<svg xmlns="http://www.w3.org/2000/svg" viewBox="0 0 36.34 102.79"><defs><style>.cls-1{fill:#fff;}.cls-2,.cls-3,.cls-4,.cls-5,.cls-6{fill:none;stroke:#2d5357;stroke-miterlimit:10;}.cls-3{stroke-dasharray:3.79 3.79;}.cls-4{stroke-dasharray:3.83 3.83;}.cls-5{stroke-dasharray:3.98 3.98;}.cls-6{stroke-dasharray:3.72 3.72;}</style></defs><g id="katman_2" data-name="katman 2"><g id="katman_1-2" data-name="katman 1"><polygon class="cls-1" points="35.84 102.29 20.48 102.29 18.17 99.18 15.98 102.29 0.5 102.29 0.5 6.78 18.17 0.53 35.84 6.78 35.84 102.29"/><polyline class="cls-2" points="35.84 100.29 35.84 102.29 33.84 102.29"/><line class="cls-3" x1="30.06" y1="102.29" x2="24.38" y2="102.29"/><polyline class="cls-2" points="22.48 102.29 20.48 102.29 18.17 99.18 15.98 102.29 13.98 102.29"/><line class="cls-4" x1="10.15" y1="102.29" x2="4.41" y2="102.29"/><polyline class="cls-2" points="2.5 102.29 0.5 102.29 0.5 100.29"/><line class="cls-5" x1="0.5" y1="96.32" x2="0.5" y2="10.77"/><polyline class="cls-2" points="0.5 8.78 0.5 6.78 2.38 6.12"/><polyline class="cls-6" points="5.89 4.87 18.17 0.53 32.2 5.49"/><polyline class="cls-2" points="33.96 6.12 35.84 6.78 35.84 8.78"/><line class="cls-5" x1="35.84" y1="12.76" x2="35.84" y2="98.31"/></g></g></svg>