<svg xmlns="http://www.w3.org/2000/svg" viewBox="0 0 49.2 199.44"><defs><style>.cls-1{fill:#fff;}.cls-2,.cls-3,.cls-4,.cls-5,.cls-6{fill:none;stroke:#2d5357;stroke-miterlimit:10;}.cls-3{stroke-dasharray:3.39 3.39;}.cls-4{stroke-dasharray:3.42 3.42;}.cls-5{stroke-dasharray:4.05 4.05;}.cls-6{stroke-dasharray:4.6 4.6;}</style></defs><g id="katman_2" data-name="katman 2"><g id="katman_1-2" data-name="katman 1"><polygon class="cls-1" points="48.7 198.94 27.75 198.94 24.6 192.86 21.61 198.94 0.5 198.94 0.5 12.75 24.6 0.56 48.7 12.75 48.7 198.94"/><polyline class="cls-2" points="48.7 196.94 48.7 198.94 46.7 198.94"/><line class="cls-3" x1="43.31" y1="198.94" x2="31.45" y2="198.94"/><polyline class="cls-2" points="29.75 198.94 27.75 198.94 26.83 197.17"/><polyline class="cls-2" points="25.52 194.64 24.6 192.86 23.72 194.66"/><polyline class="cls-2" points="22.49 197.15 21.61 198.94 19.61 198.94"/><line class="cls-4" x1="16.19" y1="198.94" x2="4.21" y2="198.94"/><polyline class="cls-2" points="2.5 198.94 0.5 198.94 0.5 196.94"/><line class="cls-5" x1="0.5" y1="192.89" x2="0.5" y2="16.77"/><polyline class="cls-2" points="0.5 14.75 0.5 12.75 2.29 11.85"/><line class="cls-6" x1="6.39" y1="9.77" x2="20.76" y2="2.5"/><polyline class="cls-2" points="22.82 1.46 24.6 0.56 26.38 1.46"/><line class="cls-6" x1="30.49" y1="3.54" x2="44.86" y2="10.81"/><polyline class="cls-2" points="46.91 11.85 48.7 12.75 48.7 14.75"/><line class="cls-5" x1="48.7" y1="18.8" x2="48.7" y2="194.92"/></g></g></svg>