<svg xmlns="http://www.w3.org/2000/svg" viewBox="0 0 102.03 114.76"><defs><style>.cls-1{fill:#d6d6d6;}.cls-2{fill:#a8a8a8;}.cls-3{fill:#a2c629;}.cls-4{fill:#879e00;}.cls-5{fill:#ceb576;}.cls-6{fill:#b7b7b7;}.cls-7{fill:#7f7f7f;}</style></defs><g id="katman_2" data-name="katman 2"><g id="katman_1-2" data-name="katman 1"><rect class="cls-1" x="0.66" y="1.41" width="52.04" height="111.91"/><rect class="cls-2" x="46.05" y="1.06" width="6.2" height="112.62"/><rect class="cls-3" x="52.22" y="3.81" width="49.81" height="107.12"/><rect class="cls-4" x="50.25" y="3.81" width="1.99" height="107.12"/><path class="cls-5" d="M94.43,57.37A2.77,2.77,0,1,0,97.2,54.6,2.77,2.77,0,0,0,94.43,57.37Z"/><polygon class="cls-3" points="53.35 0 53.35 3.81 3.81 3.81 3.81 110.95 53.35 110.95 53.35 114.76 0 114.76 0 114.74 0 110.95 0 3.81 0 0 53.35 0"/><rect class="cls-1" x="48.72" y="9.4" width="3.06" height="6.84"/><rect class="cls-6" x="49.28" y="9.4" width="0.3" height="6.84"/><rect class="cls-6" x="50.9" y="9.4" width="0.3" height="6.84"/><rect class="cls-1" x="49.59" y="8.75" width="1.34" height="8.14" rx="0.51"/><rect class="cls-7" x="49.59" y="12.69" width="1.34" height="0.26"/><rect class="cls-1" x="48.72" y="98.5" width="3.06" height="6.84"/><rect class="cls-6" x="49.28" y="98.5" width="0.3" height="6.84"/><rect class="cls-6" x="50.9" y="98.5" width="0.3" height="6.84"/><rect class="cls-1" x="49.59" y="97.85" width="1.34" height="8.14" rx="0.51"/><rect class="cls-7" x="49.59" y="101.78" width="1.34" height="0.26"/></g></g></svg>