<svg xmlns="http://www.w3.org/2000/svg" viewBox="0 0 25.84 25.84"><defs><style>.cls-1{fill:#a2c629;}.cls-2{fill:#1a1a1a;}</style></defs><g id="katman_2" data-name="katman 2"><g id="katman_1-2" data-name="katman 1"><circle class="cls-1" cx="12.92" cy="12.92" r="12.92"/><path class="cls-2" d="M20.11,14.42a11.56,11.56,0,0,0-.83-2.76c-.23-.52-1.18-1.58-1.2-2.08a2.74,2.74,0,0,1-.87,2.11c0-3.07-1.62-5.89-3.15-8.56a22.65,22.65,0,0,1-2,7.4,8.13,8.13,0,0,0-.17-3.43c-1.62,2.37-4.45,3.82-5.66,6.41a6.24,6.24,0,0,0-.08,5.06,6.07,6.07,0,0,0,3.06,3h0a3.57,3.57,0,0,1-1.27-1.81,3.7,3.7,0,0,1,.44-2.95c.91-1.43,2.67-2.06,3.8-3.32a4.89,4.89,0,0,1-.16,2,13.22,13.22,0,0,0,1.73-4.18,10.64,10.64,0,0,1,1.19,5.26,1.63,1.63,0,0,0,.67-1.17c0,.29.45,1,.55,1.31a6.78,6.78,0,0,1,.27,1.68,4.46,4.46,0,0,1-1,2.75,3.28,3.28,0,0,1-1.71,1.23h0a6.39,6.39,0,0,0,5.32-3.15A7.58,7.58,0,0,0,20.11,14.42Z"/></g></g></svg>