<svg xmlns="http://www.w3.org/2000/svg" viewBox="0 0 103.79 69.11"><defs><style>.cls-1{fill:#879e00;fill-rule:evenodd;}</style></defs><g id="katman_2" data-name="katman 2"><g id="katman_1-2" data-name="katman 1"><path class="cls-1" d="M89.21,26.46,101.8,4.73l-1.27-.56L87.93,26a2.34,2.34,0,0,0-1.41.29,2.45,2.45,0,0,0-.81.68l-10.34.83a2.62,2.62,0,0,0-.3-1,2.54,2.54,0,0,0-1.48-1.2,2.46,2.46,0,0,0-1.89.2,2.43,2.43,0,0,0-1.2,1.48,2.33,2.33,0,0,0,0,1.31L51.77,39.26a2.5,2.5,0,0,0-2.93-.4,2.45,2.45,0,0,0-1.19,1.48,2.41,2.41,0,0,0,.19,1.89,2.19,2.19,0,0,0,.21.34L39.6,50.41l-.17,0a2.46,2.46,0,0,0-2.89,1.18l-13.75-.37a2.5,2.5,0,0,0-.3-1A2.38,2.38,0,0,0,21,49a2.42,2.42,0,0,0-1.89.19,2.52,2.52,0,0,0-1.2,1.48,2.59,2.59,0,0,0-.1,1L4.09,64.71a2.54,2.54,0,0,0-.88-.48,2.61,2.61,0,0,0-1.91.19A2.57,2.57,0,0,0,.11,65.91h0a2.49,2.49,0,0,0,.21,1.9A2.41,2.41,0,0,0,1.79,69a2.47,2.47,0,0,0,1.89-.2,2.52,2.52,0,0,0,1.19-3L18.36,52.9a2.6,2.6,0,0,0,1.23.82,2.5,2.5,0,0,0,2.91-1.2l13.73.37a2.59,2.59,0,0,0,.3,1A2.46,2.46,0,0,0,38,55.13a2.39,2.39,0,0,0,1.89-.2,2.51,2.51,0,0,0,1.2-1.48,2.56,2.56,0,0,0-.19-1.89,4,4,0,0,0-.23-.34l8.47-7.84.16,0a2.42,2.42,0,0,0,1.89-.19,2.51,2.51,0,0,0,1.21-1.48,2.46,2.46,0,0,0,0-1.32L71.14,29.78a2.35,2.35,0,0,0,1,.6,2.49,2.49,0,0,0,2.94-1.27l10.11-.89a2.52,2.52,0,0,0,.29,1.41A2.47,2.47,0,0,0,87,30.83a2.5,2.5,0,0,0,1.89-.19,2.43,2.43,0,0,0,1.2-1.48,2.47,2.47,0,0,0-.19-1.91A2.59,2.59,0,0,0,89.21,26.46ZM3.57,66.93a1.17,1.17,0,0,1-.54.68,1.06,1.06,0,0,1-.85.08h0a1.17,1.17,0,0,1-.66-.54,1.13,1.13,0,0,1-.13-.42.92.92,0,0,1,0-.44A1.12,1.12,0,0,1,2,65.64a1.19,1.19,0,0,1,.86-.1,1.12,1.12,0,0,1,.66.55,1.15,1.15,0,0,1,.13.41A1,1,0,0,1,3.57,66.93ZM21.38,51.65h0a1.06,1.06,0,0,1-.53.66,1.39,1.39,0,0,1-.41.13,1.33,1.33,0,0,1-.45,0,1.06,1.06,0,0,1-.66-.54,1.08,1.08,0,0,1-.09-.84,1.16,1.16,0,0,1,.54-.67,1.07,1.07,0,0,1,.85-.09,1.15,1.15,0,0,1,.67.54A1.1,1.1,0,0,1,21.38,51.65ZM39.8,53.06a1.09,1.09,0,0,1-.55.66,1.16,1.16,0,0,1-.42.14,1,1,0,0,1-.42,0,1.07,1.07,0,0,1-.68-.54,1.15,1.15,0,0,1-.12-.4,1.06,1.06,0,0,1,0-.44,1.17,1.17,0,0,1,.54-.66,1.1,1.1,0,0,1,.86-.1,1.13,1.13,0,0,1,.66.54,1.23,1.23,0,0,1,.13.41A1.29,1.29,0,0,1,39.8,53.06ZM51.1,41.37a1,1,0,0,1-.54.66,1.22,1.22,0,0,1-.4.12A1.09,1.09,0,0,1,49,41.58a1,1,0,0,1-.12-.4,1,1,0,0,1,0-.45,1.12,1.12,0,0,1,.53-.66,1.13,1.13,0,0,1,.86-.09,1,1,0,0,1,.66.54,1.25,1.25,0,0,1,.13.4A1.33,1.33,0,0,1,51.1,41.37ZM74,28.31a1.07,1.07,0,0,1-.54.68,1,1,0,0,1-.4.12,1,1,0,0,1-.45,0,1.14,1.14,0,0,1-.75-1.39,1.12,1.12,0,0,1,1.39-.75,1,1,0,0,1,.66.54,1.39,1.39,0,0,1,.13.41A1.21,1.21,0,0,1,74,28.31Zm14.82.46a1.13,1.13,0,0,1-.54.66,1,1,0,0,1-.4.12,1.12,1.12,0,0,1-.45,0,1.1,1.1,0,0,1-.66-.54,1.11,1.11,0,0,1-.09-.85A1.11,1.11,0,0,1,88,27.37h0a1.08,1.08,0,0,1,.66.53,1.35,1.35,0,0,1,.12.41A1.12,1.12,0,0,1,88.77,28.77Z"/><polygon class="cls-1" points="103.3 0 98.1 3.57 103.79 6.29 103.3 0"/></g></g></svg>