<svg xmlns="http://www.w3.org/2000/svg" xmlns:xlink="http://www.w3.org/1999/xlink" viewBox="0 0 23.59 34.52"><defs><style>.cls-1{fill:none;}.cls-2{fill:#d8c5b2;}.cls-3{clip-path:url(#clip-path);}.cls-4{fill:url(#linear-gradient);}.cls-5{fill:url(#linear-gradient-2);}.cls-6{fill:url(#linear-gradient-3);}</style><clipPath id="clip-path"><circle class="cls-1" cx="11.79" cy="11.82" r="9.49" transform="translate(-0.12 0.12) rotate(-0.58)"/></clipPath><linearGradient id="linear-gradient" x1="0.62" y1="5.38" x2="23.58" y2="5.38" gradientUnits="userSpaceOnUse"><stop offset="0" stop-color="#cf1400"/><stop offset="1" stop-color="#cf1400"/></linearGradient><linearGradient id="linear-gradient-2" x1="0.62" y1="11.92" x2="23.58" y2="11.92" gradientUnits="userSpaceOnUse"><stop offset="0" stop-color="#fff"/><stop offset="1" stop-color="#e6e6e6"/></linearGradient><linearGradient id="linear-gradient-3" x1="0.62" y1="18.46" x2="23.58" y2="18.46" xlink:href="#linear-gradient"/></defs><g id="katman_2" data-name="katman 2"><g id="katman_1-2" data-name="katman 1"><path class="cls-2" d="M11.79,0A11.79,11.79,0,0,0,0,11.79c0,6.52,11.79,22.73,11.79,22.73s11.8-16.21,11.8-22.73A11.79,11.79,0,0,0,11.79,0Zm0,17.41a5.28,5.28,0,1,1,5.28-5.28A5.28,5.28,0,0,1,11.79,17.41Z"/><g class="cls-3"><rect class="cls-4" x="0.62" y="2.08" width="22.96" height="6.59"/><rect class="cls-5" x="0.62" y="8.63" width="22.96" height="6.59"/><rect class="cls-6" x="0.62" y="15.17" width="22.96" height="6.59"/></g></g></g></svg>