<svg xmlns="http://www.w3.org/2000/svg" viewBox="0 0 222.26 121.48"><defs><style>.cls-1{isolation:isolate;}.cls-2{fill:#e5e5e5;}.cls-3{fill:#acb2b8;opacity:0.25;mix-blend-mode:multiply;}.cls-4{fill:#abb8d4;}.cls-5{fill:#dee4e7;}.cls-6{fill:#68697f;}.cls-7{fill:#828aa8;}.cls-8{fill:#73748d;}.cls-9{fill:#ced8e0;}.cls-10{fill:#fafcef;opacity:0.55;}.cls-11{fill:#f2f2f2;}.cls-12{fill:#999;}.cls-13{fill:#919cb8;}</style></defs><g class="cls-1"><g id="katman_2" data-name="katman 2"><g id="katman_1-2" data-name="katman 1"><polygon class="cls-2" points="222.26 33.91 222.26 39.81 219.27 38.41 219.27 121.48 80.54 121.48 80.54 38.41 77.54 39.81 77.54 33.91 139.13 0.01 222.26 33.91"/><rect class="cls-3" x="153.17" y="38.4" width="65.83" height="17.92"/><polygon class="cls-4" points="161.84 36.01 161.84 116.59 7.35 116.59 7.35 36.24 8.21 35.9 84.89 5.27 161.57 35.9 161.84 36.01"/><path class="cls-5" d="M130.47,20.74a.78.78,0,0,1-.78.78H116.8a.78.78,0,0,1-.78-.78h0a.78.78,0,0,1,.78-.78h12.89a.78.78,0,0,1,.78.78Z"/><path class="cls-5" d="M130.47,23.79a.78.78,0,0,1-.78.78H116.8a.78.78,0,0,1-.78-.78h0a.79.79,0,0,1,.78-.79h12.89a.79.79,0,0,1,.78.79Z"/><path class="cls-5" d="M130.47,26.84a.78.78,0,0,1-.78.78H116.8a.78.78,0,0,1-.78-.78h0a.78.78,0,0,1,.78-.79h12.89a.78.78,0,0,1,.78.79Z"/><path class="cls-5" d="M130.47,29.88a.79.79,0,0,1-.78.79H116.8a.79.79,0,0,1-.78-.79h0a.78.78,0,0,1,.78-.78h12.89a.78.78,0,0,1,.78.78Z"/><path class="cls-5" d="M149.9,20.74a.78.78,0,0,1-.78.78H136.23a.78.78,0,0,1-.78-.78h0a.78.78,0,0,1,.78-.78h12.89a.78.78,0,0,1,.78.78Z"/><path class="cls-5" d="M149.9,23.79a.78.78,0,0,1-.78.78H136.23a.78.78,0,0,1-.78-.78h0a.79.79,0,0,1,.78-.79h12.89a.79.79,0,0,1,.78.79Z"/><path class="cls-5" d="M149.9,26.84a.78.78,0,0,1-.78.78H136.23a.78.78,0,0,1-.78-.78h0a.78.78,0,0,1,.78-.79h12.89a.78.78,0,0,1,.78.79Z"/><path class="cls-5" d="M149.9,29.88a.79.79,0,0,1-.78.79H136.23a.79.79,0,0,1-.78-.79h0a.78.78,0,0,1,.78-.78h12.89a.78.78,0,0,1,.78.78Z"/><path class="cls-6" d="M84.89,0,0,33.91V39.8l3.52-1.4v83.07H166.26V38.4l3.52,1.4V33.91Zm77,116.59H7.35V36.24l.86-.34L84.89,5.27,161.57,35.9l.27.11Z"/><polygon class="cls-7" points="7.35 79.32 18.12 79.32 18.12 60.93 51.28 60.93 51.28 88.75 78.43 88.75 78.43 60.93 99.93 60.93 99.93 80.5 110.55 80.5 110.55 70.62 128.53 70.62 128.53 87.33 139.14 87.33 139.14 60.93 153.89 60.93 153.89 78.57 161.85 78.57 161.85 116.58 7.35 116.58 7.35 79.32"/><rect class="cls-8" x="7.35" y="39.63" width="154.5" height="3.88"/><rect class="cls-8" x="66.84" y="41.57" width="1.61" height="12.98"/><polygon class="cls-8" points="78.43 58.09 56.87 58.09 66.6 54.55 68.7 54.55 78.43 58.09"/><rect class="cls-8" x="32.56" y="41.57" width="1.61" height="12.98"/><polygon class="cls-8" points="44.14 58.09 22.58 58.09 32.31 54.55 34.41 54.55 44.14 58.09"/><rect class="cls-8" x="101.34" y="41.57" width="1.61" height="12.98"/><polygon class="cls-8" points="112.92 58.09 91.36 58.09 101.09 54.55 103.19 54.55 112.92 58.09"/><rect class="cls-8" x="135.83" y="41.57" width="1.61" height="12.98"/><polygon class="cls-8" points="147.42 58.09 125.86 58.09 135.59 54.55 137.69 54.55 147.42 58.09"/><path class="cls-9" d="M62,65.19V73H55.85V68.06H40.4V73H38.9V65.19H37.39V73h-.57V69.74H35.2V64.83H15.94v4.91H14.87V73H14.3V65.19H12.79v51.4H14.3v-2.75H37.39v2.75H38.9v-2.75H62v2.75h1.51V65.19ZM33.59,73H27.46V70.62h6.13ZM18.1,70.62h6.13V73H18.1Zm0,41.49v-2.36h6.13v2.36Zm9.36,0v-2.36h6.13v2.36Zm9.93,0h-.57v-3.23H35.75V98.12H15.94v10.76H14.87v3.23H14.3V94.28H37.39ZM18.1,90.19h6.13v2.35H18.1Zm15.49,2.35H27.46V90.19h6.13Zm3.8,0h-.57V89.31H35.75V78.56H15.94V89.31H14.87v3.23H14.3V74.71H37.39Zm5.32,19.57v-2.36h6.12v2.36Zm9.36,0v-2.36h6.12v2.36Zm9.93,0h-.57v-3.23H60.22V98.12H40.4v10.76h-.93v3.23H38.9V94.28H62ZM42.71,90.19h6.12v2.35H42.71Zm15.48,2.35H52.07V90.19h6.12Zm3.81,0h-.57V89.31H60.22V78.56H40.4V89.31h-.93v3.23H38.9V74.71H62Z"/><path class="cls-9" d="M65.3,65.19v51.4h1.51v-2.75H89.9v2.75h1.51v-2.75h23.1v2.75H116V65.19h-1.51V73h-.57V69.74h-1.07V64.83H93.6v4.91H92V73h-.57V65.19H89.9V73H88.4V68.06H73V73H66.81V65.19Zm29.92,5.43h6.13V73H95.22ZM110.71,73h-6.13V70.62h6.13Zm-6.13,39.14v-2.36h6.13v2.36Zm-9.36,0v-2.36h6.13v2.36ZM91.41,94.28h23.1v17.83h-.57v-3.23h-1.07V98.12H93.05v10.76H92v3.23h-.57Zm19.3-1.74h-6.13V90.19h6.13ZM95.22,90.19h6.13v2.35H95.22ZM91.41,74.71h23.1V92.54h-.57V89.31h-1.07V78.56H93.05V89.31H92v3.23h-.57ZM80,112.11v-2.36H86.1v2.36Zm-9.36,0v-2.36h6.13v2.36Zm-3.8-17.83H89.9v17.83h-.57v-3.23H88.4V98.12H68.59v10.76H67.38v3.23h-.57ZM86.1,92.54H80V90.19H86.1ZM70.61,90.19h6.13v2.35H70.61Zm-3.8-15.48H89.9V92.54h-.57V89.31H88.4V78.56H68.59V89.31H67.38v3.23h-.57Z"/><path class="cls-9" d="M156.47,65.19V73h-.57V69.74h-1.07v-4.9H135.55v4.9h-1.61V73h-.57V65.19h-1.51v51.4h1.51v-2.74h23.1v2.74H158V65.19Zm-9.94,5.44h6.13V73h-6.13Zm-9.36,0h6.13V73h-6.13Zm6.13,41.49h-6.13v-2.36h6.13Zm9.36,0h-6.13v-2.36h6.13Zm3.81,0h-.57v-3.24h-1.07V98.13H135v10.75h-1.07v3.24h-.57V94.29h23.1Zm-19.3-19.58V90.19h6.13v2.35Zm9.36,0V90.19h6.13v2.35Zm9.94,0h-.57V89.31h-1.07V78.57H135V89.31h-1.07v3.23h-.57V74.71h23.1Z"/><polygon class="cls-10" points="145.53 58.09 127.74 58.09 119.39 86.99 111.04 58.09 93.24 58.09 84.89 86.99 76.54 58.09 58.75 58.09 50.4 86.99 42.05 58.09 24.25 58.09 7.35 116.58 41.85 116.58 58.95 116.58 76.34 116.58 93.44 116.58 110.84 116.58 127.94 116.58 162.43 116.58 145.53 58.09"/><polygon class="cls-11" points="84.89 0.01 169.78 33.91 222.26 33.91 139.13 0.01 84.89 0.01"/><rect class="cls-12" x="169.78" y="33.91" width="52.48" height="5.9"/><polygon class="cls-13" points="7.35 36.24 63.51 36.24 112.92 16.47 84.89 5.27 7.35 36.24"/><rect class="cls-4" x="184.95" y="67.97" width="25.63" height="52.52"/><polygon class="cls-7" points="198.14 99.59 198.14 94.23 184.95 94.23 184.95 120.49 193.33 120.49 198.14 120.49 210.58 120.49 210.58 99.59 198.14 99.59"/><rect class="cls-2" x="169.78" y="67.97" width="15.17" height="52.25"/><rect class="cls-11" x="183.88" y="67.63" width="27.77" height="4.36"/></g></g></g></svg>