<svg xmlns="http://www.w3.org/2000/svg" viewBox="0 0 96.36 79.23"><defs><style>.cls-1{fill:#d4e7fb;}.cls-2{fill:#b7c7d9;}.cls-3{fill:#cbddf1;}.cls-4{fill:#abbacb;}.cls-5{fill:#b41f50;}.cls-6{fill:#c72258;}.cls-7{fill:#f6f6ee;}.cls-8{fill:#ded1cb;}.cls-9{fill:#cbbfba;}.cls-10{fill:#e5e5e5;}.cls-11{fill:#afafc7;}.cls-12{fill:#c3d2e9;}.cls-13{fill:#afadc5;}.cls-14{fill:#9797ac;}</style></defs><g id="katman_2" data-name="katman 2"><g id="Docs"><rect class="cls-1" x="64.56" y="34.67" width="11.66" height="44.56"/><rect class="cls-2" x="73.47" y="34.67" width="2.75" height="44.56"/><rect class="cls-1" x="66.75" y="32.55" width="6.09" height="2.12"/><rect class="cls-2" x="71.7" y="32.55" width="1.14" height="2.12"/><rect class="cls-1" x="68.1" y="30.43" width="3.39" height="2.12"/><rect class="cls-1" x="69.46" y="18.06" width="0.68" height="12.37"/><rect class="cls-2" x="69.8" y="18.06" width="0.34" height="12.37"/><rect class="cls-2" x="70.4" y="30.43" width="1.09" height="2.12"/><rect class="cls-3" x="66.75" y="34.43" width="4.95" height="0.23"/><rect class="cls-3" x="68.1" y="32.32" width="2.29" height="0.23"/><rect class="cls-3" x="64.56" y="35.54" width="11.66" height="1.28"/><rect class="cls-4" x="73.47" y="35.54" width="2.75" height="1.28"/><rect class="cls-3" x="64.56" y="37.21" width="11.66" height="1.28"/><rect class="cls-4" x="73.47" y="37.21" width="2.75" height="1.28"/><rect class="cls-3" x="64.56" y="38.89" width="11.66" height="1.28"/><rect class="cls-4" x="73.47" y="38.89" width="2.75" height="1.28"/><rect class="cls-3" x="64.56" y="40.56" width="11.66" height="1.28"/><rect class="cls-4" x="73.47" y="40.56" width="2.75" height="1.28"/><rect class="cls-3" x="64.56" y="42.23" width="11.66" height="1.28"/><rect class="cls-4" x="73.47" y="42.23" width="2.75" height="1.28"/><rect class="cls-3" x="64.56" y="43.91" width="11.66" height="1.28"/><rect class="cls-4" x="73.47" y="43.91" width="2.75" height="1.28"/><rect class="cls-3" x="64.56" y="45.58" width="11.66" height="1.28"/><rect class="cls-4" x="73.47" y="45.58" width="2.75" height="1.28"/><rect class="cls-3" x="64.56" y="47.26" width="11.66" height="1.28"/><rect class="cls-4" x="73.47" y="47.26" width="2.75" height="1.28"/><rect class="cls-3" x="64.56" y="48.93" width="11.66" height="1.28"/><rect class="cls-4" x="73.47" y="48.93" width="2.75" height="1.28"/><rect class="cls-3" x="64.56" y="50.6" width="11.66" height="1.28"/><rect class="cls-4" x="73.47" y="50.6" width="2.75" height="1.28"/><rect class="cls-3" x="64.56" y="52.28" width="11.66" height="1.28"/><rect class="cls-4" x="73.47" y="52.28" width="2.75" height="1.28"/><rect class="cls-3" x="64.56" y="53.95" width="11.66" height="1.28"/><rect class="cls-4" x="73.47" y="53.95" width="2.75" height="1.28"/><rect class="cls-3" x="64.56" y="55.63" width="11.66" height="1.28"/><rect class="cls-4" x="73.47" y="55.63" width="2.75" height="1.28"/><rect class="cls-3" x="64.56" y="57.3" width="11.66" height="1.28"/><rect class="cls-4" x="73.47" y="57.3" width="2.75" height="1.28"/><rect class="cls-3" x="64.56" y="58.97" width="11.66" height="1.28"/><rect class="cls-4" x="73.47" y="58.97" width="2.75" height="1.28"/><rect class="cls-3" x="64.56" y="60.65" width="11.66" height="1.28"/><rect class="cls-4" x="73.47" y="60.65" width="2.75" height="1.28"/><rect class="cls-3" x="64.56" y="62.32" width="11.66" height="1.28"/><rect class="cls-4" x="73.47" y="62.32" width="2.75" height="1.28"/><rect class="cls-3" x="64.56" y="64" width="11.66" height="1.28"/><rect class="cls-4" x="73.47" y="64" width="2.75" height="1.28"/><rect class="cls-3" x="64.56" y="65.67" width="11.66" height="1.28"/><rect class="cls-4" x="73.47" y="65.67" width="2.75" height="1.28"/><rect class="cls-3" x="64.56" y="67.34" width="11.66" height="1.28"/><rect class="cls-4" x="73.47" y="67.34" width="2.75" height="1.28"/><rect class="cls-3" x="64.56" y="69.02" width="11.66" height="1.28"/><rect class="cls-4" x="73.47" y="69.02" width="2.75" height="1.28"/><rect class="cls-3" x="64.56" y="70.69" width="11.66" height="1.28"/><rect class="cls-4" x="73.47" y="70.69" width="2.75" height="1.28"/><rect class="cls-3" x="64.56" y="72.37" width="11.66" height="1.28"/><rect class="cls-4" x="73.47" y="72.37" width="2.75" height="1.28"/><rect class="cls-3" x="64.56" y="74.04" width="11.66" height="1.28"/><rect class="cls-4" x="73.47" y="74.04" width="2.75" height="1.28"/><rect class="cls-3" x="64.56" y="75.72" width="11.66" height="1.28"/><rect class="cls-4" x="73.47" y="75.72" width="2.75" height="1.28"/><rect class="cls-3" x="64.56" y="77.39" width="11.66" height="1.28"/><rect class="cls-4" x="73.47" y="77.39" width="2.75" height="1.28"/><path class="cls-5" d="M70.41,17.7a.61.61,0,0,1-.61.62l-.12,0a.61.61,0,0,1,0-1.2h.12A.61.61,0,0,1,70.41,17.7Z"/><ellipse class="cls-6" cx="69.68" cy="17.7" rx="0.5" ry="0.6"/><rect class="cls-7" x="77.25" y="44.41" width="19.12" height="34.82"/><rect class="cls-8" x="90.66" y="44.41" width="5.7" height="34.82"/><rect class="cls-9" x="76.91" y="59.78" width="33.2" height="5.01" transform="translate(155.8 -31.23) rotate(90)"/><rect class="cls-7" x="85.17" y="36.8" width="3.28" height="11.94" transform="translate(129.58 -44.03) rotate(90)"/><rect class="cls-8" x="89.02" y="40.65" width="3.28" height="4.23" transform="translate(133.43 -47.89) rotate(90)"/><rect class="cls-7" x="80.83" y="36.93" width="0.34" height="4.2"/><rect class="cls-8" x="81" y="36.93" width="0.17" height="4.2"/><rect class="cls-7" x="88.21" y="36.93" width="0.34" height="4.2"/><path class="cls-5" d="M81.38,36.68a.38.38,0,0,1-.38.38h-.07a.38.38,0,0,1,0-.74H81A.38.38,0,0,1,81.38,36.68Z"/><path class="cls-6" d="M81.24,36.68a.31.31,0,1,1-.31-.37A.37.37,0,0,1,81.24,36.68Z"/><rect class="cls-8" x="92.44" y="36.93" width="0.34" height="4.2"/><circle class="cls-5" cx="92.61" cy="36.68" r="0.38"/><rect class="cls-10" x="80.83" y="43.89" width="7.71" height="0.52"/><rect class="cls-9" x="88.55" y="43.89" width="4.23" height="0.52"/><rect class="cls-8" x="88.38" y="36.93" width="0.17" height="4.2"/><path class="cls-5" d="M88.76,36.68a.38.38,0,0,1-.38.38h-.07a.38.38,0,0,1,0-.74h.07A.38.38,0,0,1,88.76,36.68Z"/><ellipse class="cls-6" cx="88.31" cy="36.68" rx="0.31" ry="0.37"/><rect class="cls-11" x="78.38" y="45.68" width="2.45" height="32.69"/><rect class="cls-12" x="78.77" y="46.08" width="2.06" height="32.3"/><rect class="cls-11" x="82.52" y="45.68" width="2.45" height="32.69"/><rect class="cls-12" x="82.91" y="46.08" width="2.06" height="32.3"/><rect class="cls-11" x="86.65" y="45.68" width="2.45" height="32.69"/><rect class="cls-12" x="87.04" y="46.08" width="2.06" height="32.3"/><rect class="cls-7" x="17.41" y="27.47" width="28.42" height="51.76"/><rect class="cls-8" x="37.35" y="27.47" width="8.48" height="51.76"/><rect class="cls-9" x="16.91" y="50.32" width="49.35" height="7.44" transform="translate(95.63 12.45) rotate(90)"/><rect class="cls-7" x="29.18" y="16.16" width="4.87" height="17.75" transform="translate(56.65 -6.58) rotate(90)"/><rect class="cls-8" x="34.91" y="21.89" width="4.87" height="6.29" transform="translate(62.38 -12.31) rotate(90)"/><rect class="cls-7" x="22.74" y="16.35" width="0.5" height="6.25"/><rect class="cls-8" x="22.99" y="16.35" width="0.25" height="6.25"/><rect class="cls-7" x="33.7" y="16.35" width="0.5" height="6.25"/><path class="cls-5" d="M23.56,16a.57.57,0,0,1-.57.56h-.1a.56.56,0,0,1,0-1.11H23A.57.57,0,0,1,23.56,16Z"/><path class="cls-6" d="M23.35,16a.47.47,0,1,1-.46-.56A.57.57,0,0,1,23.35,16Z"/><rect class="cls-8" x="39.99" y="16.35" width="0.5" height="6.25"/><path class="cls-5" d="M40.81,16a.57.57,0,1,1-.57-.56A.57.57,0,0,1,40.81,16Z"/><rect class="cls-10" x="22.74" y="26.71" width="11.46" height="0.77"/><rect class="cls-9" x="34.2" y="26.71" width="6.29" height="0.77"/><rect class="cls-8" x="33.95" y="16.35" width="0.25" height="6.25"/><path class="cls-5" d="M34.52,16a.57.57,0,0,1-.57.56h-.1a.56.56,0,0,1,0-1.11H34A.57.57,0,0,1,34.52,16Z"/><path class="cls-6" d="M34.31,16a.47.47,0,1,1-.46-.56A.57.57,0,0,1,34.31,16Z"/><rect class="cls-11" x="19.1" y="29.37" width="3.64" height="48.6"/><rect class="cls-12" x="19.68" y="29.95" width="3.06" height="48.01"/><rect class="cls-11" x="25.24" y="29.37" width="3.64" height="48.6"/><rect class="cls-12" x="25.82" y="29.95" width="3.06" height="48.01"/><rect class="cls-11" x="31.38" y="29.37" width="3.64" height="48.6"/><rect class="cls-12" x="31.97" y="29.95" width="3.06" height="48.01"/><rect class="cls-6" x="49.86" y="21.89" width="0.96" height="0.98"/><rect class="cls-5" x="50.34" y="21.89" width="0.48" height="0.98"/><rect class="cls-1" x="41.86" y="22.56" width="24.36" height="56.67"/><rect class="cls-13" x="63.73" y="22.56" width="2.49" height="56.67"/><rect class="cls-14" x="64.26" y="23.38" width="1.96" height="55.32"/><rect class="cls-1" x="46.53" y="19.87" width="15.59" height="2.69"/><rect class="cls-13" x="59.19" y="19.87" width="2.92" height="2.69"/><rect class="cls-1" x="49.99" y="17.17" width="8.67" height="2.69"/><rect class="cls-1" x="53.46" y="1.45" width="0.87" height="15.73"/><rect class="cls-13" x="53.89" y="1.45" width="0.43" height="15.73"/><rect class="cls-13" x="55.86" y="17.17" width="2.8" height="2.69"/><rect class="cls-3" x="46.53" y="22.26" width="12.66" height="0.3"/><rect class="cls-3" x="49.99" y="19.57" width="5.87" height="0.3"/><rect class="cls-11" x="42.71" y="23.38" width="4.64" height="54.79"/><rect class="cls-12" x="43.45" y="24.03" width="3.9" height="54.14"/><rect class="cls-11" x="50.54" y="23.38" width="4.64" height="54.79"/><rect class="cls-12" x="51.28" y="24.03" width="3.9" height="54.14"/><rect class="cls-11" x="58.37" y="23.38" width="4.64" height="54.79"/><rect class="cls-12" x="59.12" y="24.03" width="3.9" height="54.14"/><path class="cls-5" d="M54.75.87a.86.86,0,0,1-.86.86l-.16,0a.86.86,0,0,1,0-1.69l.16,0A.86.86,0,0,1,54.75.87Z"/><path class="cls-6" d="M54.43.87a.85.85,0,0,1-.7.84.86.86,0,1,1,.7-.84Z"/><rect class="cls-6" x="4.52" y="46.79" width="0.54" height="0.55"/><rect class="cls-5" x="4.79" y="46.79" width="0.27" height="0.55"/><rect class="cls-1" y="47.17" width="16.19" height="32.06"/><rect class="cls-13" x="12.37" y="47.17" width="3.81" height="32.06"/><rect class="cls-14" x="12.67" y="47.63" width="3.22" height="31.3"/><rect class="cls-1" x="2.64" y="45.64" width="8.82" height="1.52"/><rect class="cls-13" x="9.81" y="45.64" width="1.65" height="1.52"/><rect class="cls-1" x="4.6" y="44.12" width="4.91" height="1.52"/><rect class="cls-1" x="6.56" y="35.22" width="0.49" height="8.9"/><rect class="cls-13" x="6.8" y="35.22" width="0.25" height="8.9"/><rect class="cls-13" x="7.92" y="44.12" width="1.58" height="1.52"/><rect class="cls-3" x="2.64" y="47" width="7.16" height="0.17"/><rect class="cls-3" x="4.6" y="45.48" width="3.32" height="0.17"/><rect class="cls-11" x="0.48" y="47.63" width="2.63" height="31"/><rect class="cls-12" x="0.9" y="48" width="2.21" height="30.63"/><rect class="cls-11" x="4.91" y="47.63" width="2.63" height="31"/><rect class="cls-12" x="5.33" y="48" width="2.21" height="30.63"/><rect class="cls-11" x="9.34" y="47.63" width="2.63" height="31"/><rect class="cls-12" x="9.76" y="48" width="2.21" height="30.63"/><path class="cls-5" d="M7.29,34.9a.48.48,0,0,1-.49.48H6.71a.49.49,0,0,1,0-1H6.8A.48.48,0,0,1,7.29,34.9Z"/><path class="cls-6" d="M7.11,34.9a.49.49,0,0,1-.4.48.49.49,0,0,1,0-1A.49.49,0,0,1,7.11,34.9Z"/></g></g></svg>