<svg xmlns="http://www.w3.org/2000/svg" viewBox="0 0 96.36 79.23"><defs><style>.cls-1{fill:#f6f6ee;}.cls-2{fill:#ded1cb;}.cls-3{fill:#cbbfba;}.cls-4{fill:#b41f50;}.cls-5{fill:#c72258;}.cls-6{fill:#e5e5e5;}.cls-7{fill:#afafc7;}.cls-8{fill:#c3d2e9;}.cls-9{fill:#d4e7fb;}.cls-10{fill:#afadc5;}.cls-11{fill:#9797ac;}.cls-12{fill:#cbddf1;}</style></defs><g id="katman_2" data-name="katman 2"><g id="Docs"><rect class="cls-1" x="77.25" y="44.41" width="19.12" height="34.82"/><rect class="cls-2" x="90.66" y="44.41" width="5.7" height="34.82"/><rect class="cls-3" x="76.91" y="59.78" width="33.2" height="5.01" transform="translate(155.8 -31.23) rotate(90)"/><rect class="cls-1" x="85.17" y="36.8" width="3.28" height="11.94" transform="translate(129.58 -44.03) rotate(90)"/><rect class="cls-2" x="89.02" y="40.65" width="3.28" height="4.23" transform="translate(133.43 -47.89) rotate(90)"/><rect class="cls-1" x="80.83" y="36.93" width="0.34" height="4.2"/><rect class="cls-2" x="81" y="36.93" width="0.17" height="4.2"/><rect class="cls-1" x="88.21" y="36.93" width="0.34" height="4.2"/><path class="cls-4" d="M81.38,36.68a.38.38,0,0,1-.38.38h-.07a.38.38,0,0,1,0-.74H81A.38.38,0,0,1,81.38,36.68Z"/><path class="cls-5" d="M81.24,36.68a.31.31,0,1,1-.31-.37A.37.37,0,0,1,81.24,36.68Z"/><rect class="cls-2" x="92.44" y="36.93" width="0.34" height="4.2"/><circle class="cls-4" cx="92.61" cy="36.68" r="0.38"/><rect class="cls-6" x="80.83" y="43.89" width="7.71" height="0.52"/><rect class="cls-3" x="88.55" y="43.89" width="4.23" height="0.52"/><rect class="cls-2" x="88.38" y="36.93" width="0.17" height="4.2"/><path class="cls-4" d="M88.76,36.68a.38.38,0,0,1-.38.38h-.07a.38.38,0,0,1,0-.74h.07A.38.38,0,0,1,88.76,36.68Z"/><ellipse class="cls-5" cx="88.31" cy="36.68" rx="0.31" ry="0.37"/><rect class="cls-7" x="78.38" y="45.68" width="2.45" height="32.69"/><rect class="cls-8" x="78.77" y="46.08" width="2.06" height="32.3"/><rect class="cls-7" x="82.52" y="45.68" width="2.45" height="32.69"/><rect class="cls-8" x="82.91" y="46.08" width="2.06" height="32.3"/><rect class="cls-7" x="86.65" y="45.68" width="2.45" height="32.69"/><rect class="cls-8" x="87.04" y="46.08" width="2.06" height="32.3"/><rect class="cls-1" x="17.41" y="27.47" width="28.42" height="51.76"/><rect class="cls-2" x="37.35" y="27.47" width="8.48" height="51.76"/><rect class="cls-3" x="16.91" y="50.32" width="49.35" height="7.44" transform="translate(95.63 12.45) rotate(90)"/><rect class="cls-1" x="29.18" y="16.16" width="4.87" height="17.75" transform="translate(56.65 -6.58) rotate(90)"/><rect class="cls-2" x="34.91" y="21.89" width="4.87" height="6.29" transform="translate(62.38 -12.31) rotate(90)"/><rect class="cls-1" x="22.74" y="16.35" width="0.5" height="6.25"/><rect class="cls-2" x="22.99" y="16.35" width="0.25" height="6.25"/><rect class="cls-1" x="33.7" y="16.35" width="0.5" height="6.25"/><path class="cls-4" d="M23.56,16a.57.57,0,0,1-.57.56h-.1a.56.56,0,0,1,0-1.11H23A.57.57,0,0,1,23.56,16Z"/><path class="cls-5" d="M23.35,16a.47.47,0,1,1-.46-.56A.57.57,0,0,1,23.35,16Z"/><rect class="cls-2" x="39.99" y="16.35" width="0.5" height="6.25"/><path class="cls-4" d="M40.81,16a.57.57,0,1,1-.57-.56A.57.57,0,0,1,40.81,16Z"/><rect class="cls-6" x="22.74" y="26.71" width="11.46" height="0.77"/><rect class="cls-3" x="34.2" y="26.71" width="6.29" height="0.77"/><rect class="cls-2" x="33.95" y="16.35" width="0.25" height="6.25"/><path class="cls-4" d="M34.52,16a.57.57,0,0,1-.57.56h-.1a.56.56,0,0,1,0-1.11H34A.57.57,0,0,1,34.52,16Z"/><path class="cls-5" d="M34.31,16a.47.47,0,1,1-.46-.56A.57.57,0,0,1,34.31,16Z"/><rect class="cls-7" x="19.1" y="29.37" width="3.64" height="48.6"/><rect class="cls-8" x="19.68" y="29.95" width="3.06" height="48.01"/><rect class="cls-7" x="25.24" y="29.37" width="3.64" height="48.6"/><rect class="cls-8" x="25.82" y="29.95" width="3.06" height="48.01"/><rect class="cls-7" x="31.38" y="29.37" width="3.64" height="48.6"/><rect class="cls-8" x="31.97" y="29.95" width="3.06" height="48.01"/><rect class="cls-5" x="49.86" y="21.89" width="0.96" height="0.98"/><rect class="cls-4" x="50.34" y="21.89" width="0.48" height="0.98"/><rect class="cls-9" x="41.86" y="22.56" width="24.36" height="56.67"/><rect class="cls-10" x="63.73" y="22.56" width="2.49" height="56.67"/><rect class="cls-11" x="64.26" y="23.38" width="1.96" height="55.32"/><rect class="cls-9" x="46.53" y="19.87" width="15.59" height="2.69"/><rect class="cls-10" x="59.19" y="19.87" width="2.92" height="2.69"/><rect class="cls-9" x="49.99" y="17.17" width="8.67" height="2.69"/><rect class="cls-9" x="53.46" y="1.45" width="0.87" height="15.73"/><rect class="cls-10" x="53.89" y="1.45" width="0.43" height="15.73"/><rect class="cls-10" x="55.86" y="17.17" width="2.8" height="2.69"/><rect class="cls-12" x="46.53" y="22.26" width="12.66" height="0.3"/><rect class="cls-12" x="49.99" y="19.57" width="5.87" height="0.3"/><rect class="cls-7" x="42.71" y="23.38" width="4.64" height="54.79"/><rect class="cls-8" x="43.45" y="24.03" width="3.9" height="54.14"/><rect class="cls-7" x="50.54" y="23.38" width="4.64" height="54.79"/><rect class="cls-8" x="51.28" y="24.03" width="3.9" height="54.14"/><rect class="cls-7" x="58.37" y="23.38" width="4.64" height="54.79"/><rect class="cls-8" x="59.12" y="24.03" width="3.9" height="54.14"/><path class="cls-4" d="M54.75.87a.86.86,0,0,1-.86.86l-.16,0a.86.86,0,0,1,0-1.69l.16,0A.86.86,0,0,1,54.75.87Z"/><path class="cls-5" d="M54.43.87a.85.85,0,0,1-.7.84.86.86,0,1,1,.7-.84Z"/><rect class="cls-5" x="4.52" y="46.79" width="0.54" height="0.55"/><rect class="cls-4" x="4.79" y="46.79" width="0.27" height="0.55"/><rect class="cls-9" y="47.17" width="16.19" height="32.06"/><rect class="cls-10" x="12.37" y="47.17" width="3.81" height="32.06"/><rect class="cls-11" x="12.67" y="47.63" width="3.22" height="31.3"/><rect class="cls-9" x="2.64" y="45.64" width="8.82" height="1.52"/><rect class="cls-10" x="9.81" y="45.64" width="1.65" height="1.52"/><rect class="cls-9" x="4.6" y="44.12" width="4.91" height="1.52"/><rect class="cls-9" x="6.56" y="35.22" width="0.49" height="8.9"/><rect class="cls-10" x="6.8" y="35.22" width="0.25" height="8.9"/><rect class="cls-10" x="7.92" y="44.12" width="1.58" height="1.52"/><rect class="cls-12" x="2.64" y="47" width="7.16" height="0.17"/><rect class="cls-12" x="4.6" y="45.48" width="3.32" height="0.17"/><rect class="cls-7" x="0.48" y="47.63" width="2.63" height="31"/><rect class="cls-8" x="0.9" y="48" width="2.21" height="30.63"/><rect class="cls-7" x="4.91" y="47.63" width="2.63" height="31"/><rect class="cls-8" x="5.33" y="48" width="2.21" height="30.63"/><rect class="cls-7" x="9.34" y="47.63" width="2.63" height="31"/><rect class="cls-8" x="9.76" y="48" width="2.21" height="30.63"/><path class="cls-4" d="M7.29,34.9a.48.48,0,0,1-.49.48H6.71a.49.49,0,0,1,0-1H6.8A.48.48,0,0,1,7.29,34.9Z"/><path class="cls-5" d="M7.11,34.9a.49.49,0,0,1-.4.48.49.49,0,0,1,0-1A.49.49,0,0,1,7.11,34.9Z"/></g></g></svg>