<svg xmlns="http://www.w3.org/2000/svg" viewBox="0 0 147.57 27.33"><defs><style>.cls-1{fill:#a3c726;}.cls-2{fill:#141429;}</style></defs><g id="katman_2" data-name="katman 2"><g id="katman_1-2" data-name="katman 1"><path class="cls-1" d="M23.86,15.49v1a2.83,2.83,0,0,1-2.78-2.34H16.37a2.89,2.89,0,0,1-.43,1.06l3.5,3.51-.73.73L15.21,16a2.69,2.69,0,0,1-1,.42v4.76a2.82,2.82,0,0,1,2.31,2.76h-1a1.8,1.8,0,0,0-1.28-1.73v5.15A13.67,13.67,0,0,0,27.33,14.18H22.14a1.79,1.79,0,0,0,1.72,1.31"/><path class="cls-1" d="M18.77,7.86l.73.72-3.56,3.57a2.89,2.89,0,0,1,.42,1h4.73a2.83,2.83,0,0,1,2.76-2.29v1a1.8,1.8,0,0,0-1.71,1.26h5.19A13.68,13.68,0,0,0,14.17,0V5.21a1.8,1.8,0,0,0,1.28-1.72h1a2.81,2.81,0,0,1-2.31,2.77V11a2.76,2.76,0,0,1,1,.43Z"/><path class="cls-1" d="M8.64,19.45l-.73-.73,3.49-3.49A2.78,2.78,0,0,1,11,14.18H6.23a2.83,2.83,0,0,1-2.78,2.34v-1a1.8,1.8,0,0,0,1.73-1.31H0A13.68,13.68,0,0,0,13.14,27.33V22.19a1.81,1.81,0,0,0-1.28,1.72h-1a2.84,2.84,0,0,1,2.31-2.76V16.39a2.6,2.6,0,0,1-1-.43Z"/><path class="cls-1" d="M3.45,11.9v-1a2.83,2.83,0,0,1,2.76,2.29H11a2.77,2.77,0,0,1,.42-1L7.85,8.61l.73-.72,3.55,3.54a2.81,2.81,0,0,1,1-.42V6.27A2.82,2.82,0,0,1,10.83,3.5h1a1.79,1.79,0,0,0,1.28,1.71V0A13.67,13.67,0,0,0,0,13.16H5.15a1.8,1.8,0,0,0-1.7-1.26"/><path class="cls-1" d="M14.46,15.22a1.71,1.71,0,0,0,.73-.73,1.77,1.77,0,0,0,.1-1.34,1.36,1.36,0,0,0-.11-.25,1.64,1.64,0,0,0-.73-.72,1.39,1.39,0,0,0-.28-.12,1.68,1.68,0,0,0-.5-.07,1.89,1.89,0,0,0-.53.08l-.26.11a1.77,1.77,0,0,0-.73.73,1.22,1.22,0,0,0-.1.24,2.13,2.13,0,0,0-.1.55,1.92,1.92,0,0,0,.07.48,2.85,2.85,0,0,0,.12.31,1.75,1.75,0,0,0,.73.72,1,1,0,0,0,.27.11,1.6,1.6,0,0,0,.53.09,1.43,1.43,0,0,0,.5-.09,1.66,1.66,0,0,0,.29-.1"/><path class="cls-2" d="M39.87,17.47c1.14,0,1.8-.61,1.8-1.53s-.62-1.53-1.8-1.53H37.15v3.06Zm-.23-4.64c1,0,1.65-.48,1.65-1.44s-.53-1.3-1.53-1.3h-2.6v2.75ZM35.42,8.54H40c1.81,0,3.1,1,3.1,2.73a2.22,2.22,0,0,1-1.2,2.14v.08A2.52,2.52,0,0,1,43.46,16c0,1.91-1.29,3-3.34,3h-4.7Z"/><path class="cls-2" d="M51.75,11.3v4.79a3,3,0,0,1-3.33,3.07,3,3,0,0,1-3.32-3.07V11.3h1.7v4.52c0,1.08.46,1.75,1.62,1.75S50,16.9,50,15.82V11.3Z"/><rect class="cls-2" x="53.84" y="7.94" width="1.71" height="11.09"/><path class="cls-2" d="M64.15,11.3v4.79a3,3,0,0,1-3.33,3.07,3,3,0,0,1-3.32-3.07V11.3h1.71v4.52c0,1.08.46,1.75,1.61,1.75s1.62-.67,1.62-1.75V11.3Z"/><path class="cls-2" d="M66.25,11.3h1.51l.14,1h0a2.56,2.56,0,0,1,2.27-1.14A2.59,2.59,0,0,1,73,14V19H71.29V14.41c0-1.08-.49-1.7-1.57-1.7s-1.77.77-1.77,2V19h-1.7Z"/><path class="cls-2" d="M80.09,15.16c0-1.33-.55-2.48-1.92-2.48s-1.9,1.13-1.9,2.48.49,2.49,1.9,2.49,1.92-1.15,1.92-2.49m-5.34,4.71h1.67c.06.64.61,1.25,1.74,1.25A1.65,1.65,0,0,0,80,19.42V18.1H80a2.53,2.53,0,0,1-2.22,1.06c-2.08,0-3.2-1.69-3.22-4s1.23-4,3.22-4A2.52,2.52,0,0,1,80,12.24H80l.19-.92h1.52v8.13c0,1.84-1.39,3.14-3.58,3.14-2,0-3.36-1.12-3.41-2.72"/><polygon class="cls-2" points="86.98 8.54 88.73 8.54 88.73 17.43 93.68 17.43 93.68 19.02 86.98 19.02 86.98 8.54"/><path class="cls-2" d="M100.1,15.16c0-1.53-.61-2.48-1.91-2.48s-1.92,1-1.92,2.48.63,2.49,1.92,2.49,1.91-.93,1.91-2.49m-5.57,0c0-2.26,1.23-4,3.66-4s3.65,1.74,3.65,4-1.2,4-3.65,4-3.66-1.72-3.66-4"/><path class="cls-2" d="M108.57,15.16c0-1.33-.56-2.48-1.92-2.48s-1.9,1.13-1.9,2.48.49,2.49,1.9,2.49,1.92-1.15,1.92-2.49m-5.34,4.71h1.67c.06.64.63,1.25,1.73,1.25a1.65,1.65,0,0,0,1.88-1.7V18.1h-.06a2.53,2.53,0,0,1-2.22,1.06c-2.08,0-3.2-1.69-3.22-4s1.23-4,3.22-4a2.52,2.52,0,0,1,2.22,1.06h0l.2-.92h1.51v8.13c0,1.84-1.39,3.14-3.58,3.14-2,0-3.34-1.12-3.4-2.72"/><path class="cls-2" d="M112.25,11.3H114V19h-1.71ZM112,9a1.11,1.11,0,0,1,2.19-.2.67.67,0,0,1,0,.2A1.1,1.1,0,0,1,112,9"/><path class="cls-2" d="M115.49,16.45h1.71c0,.77.61,1.24,1.57,1.24s1.48-.32,1.48-.86-.31-.74-1-.89l-1.36-.25c-1.26-.26-2.15-1-2.15-2.28s1.11-2.25,3-2.25,3.08,1,3.08,2.53h-1.67c0-.7-.56-1.15-1.44-1.15s-1.29.31-1.29.88.37.74,1,.84l1.31.26c1.35.28,2.25.84,2.25,2.31s-1.41,2.33-3.2,2.33c-2.08,0-3.22-1.08-3.28-2.71"/><path class="cls-2" d="M124.3,16.92V12.75H123V11.3h1.35V9.66l1.48-.42H126V11.3h1.88v1.45H126v3.87c0,.73.31,1,1,1a2.42,2.42,0,0,0,.75-.1h.15V19a4.93,4.93,0,0,1-1.32.17,2,2,0,0,1-2.29-2.25"/><path class="cls-2" d="M129.68,11.3h1.7V19h-1.7ZM129.44,9a1.1,1.1,0,0,1,2.18-.2.67.67,0,0,1,0,.2,1.09,1.09,0,0,1-2.18,0"/><path class="cls-2" d="M132.91,15.16c0-2.38,1.27-4,3.64-4a3,3,0,0,1,3.37,3H138.2a1.53,1.53,0,0,0-1.65-1.44c-1.32,0-1.9,1-1.9,2.49s.58,2.5,1.9,2.5a1.52,1.52,0,0,0,1.66-1.44h1.71a3,3,0,0,1-3.32,2.94c-2.38,0-3.69-1.62-3.69-4"/><path class="cls-2" d="M141.09,16.45h1.71c0,.77.6,1.24,1.57,1.24s1.49-.32,1.49-.86-.31-.74-1-.89l-1.37-.25a2.29,2.29,0,0,1-2.14-2.28c0-1.32,1.1-2.25,3-2.25s3.09,1,3.09,2.53h-1.68c0-.7-.55-1.15-1.44-1.15s-1.28.31-1.28.88.37.74,1,.84l1.32.26c1.35.28,2.25.84,2.25,2.31s-1.41,2.33-3.2,2.33c-2.08,0-3.23-1.08-3.28-2.71"/></g></g></svg>