<svg xmlns="http://www.w3.org/2000/svg" viewBox="0 0 91.71 135.81"><defs><style>.cls-1{fill:#a1c52b;}.cls-2{font-size:22.8px;font-family:BasierCircle-Bold, Basier Circle;font-weight:700;letter-spacing:-0.02em;}.cls-3{font-size:11.96px;letter-spacing:-0.03em;}</style></defs><g id="katman_2" data-name="katman 2"><g id="katman_1-2" data-name="katman 1"><path class="cls-1" d="M80.09,52v3.46a9.5,9.5,0,0,1-9.34-7.84H54.91a9.2,9.2,0,0,1-1.44,3.54L65.24,62.9,62.8,65.35,51,53.58A9.08,9.08,0,0,1,47.52,55V70.92a9.5,9.5,0,0,1,7.78,9.33H51.84a6,6,0,0,0-4.32-5.78V91.72A45.89,45.89,0,0,0,91.71,47.59H74.29A6,6,0,0,0,80.09,52"/><path class="cls-1" d="M63,26.34l2.45,2.44-12,12a9.27,9.27,0,0,1,1.42,3.37h15.9a9.5,9.5,0,0,1,9.31-7.67v3.46a6,6,0,0,0-5.75,4.21H91.71A45.89,45.89,0,0,0,47.52,0V17.48a6,6,0,0,0,4.32-5.78H55.3A9.5,9.5,0,0,1,47.52,21V36.9A9.49,9.49,0,0,1,51,38.32Z"/><path class="cls-1" d="M29,65.25l-2.45-2.44,11.7-11.7a9.23,9.23,0,0,1-1.42-3.52H20.87a9.48,9.48,0,0,1-9.33,7.84V52a6,6,0,0,0,5.8-4.38H0A45.88,45.88,0,0,0,44.06,91.71V74.48a6,6,0,0,0-4.28,5.77H36.33a9.5,9.5,0,0,1,7.73-9.32V55a9,9,0,0,1-3.39-1.44Z"/><path class="cls-1" d="M11.54,39.92V36.46a9.5,9.5,0,0,1,9.31,7.67h16a9.11,9.11,0,0,1,1.41-3.34L26.32,28.88l2.45-2.45L40.68,38.35a9,9,0,0,1,3.38-1.42V21a9.49,9.49,0,0,1-7.73-9.32h3.45a6,6,0,0,0,4.28,5.77V0A45.9,45.9,0,0,0,0,44.13H17.29a6,6,0,0,0-5.75-4.21"/><path class="cls-1" d="M48.5,51.06A5.82,5.82,0,0,0,51,48.62a6.18,6.18,0,0,0,.42-1A5.9,5.9,0,0,0,51.61,46a5.8,5.8,0,0,0-.3-1.83,5,5,0,0,0-.37-.85,5.76,5.76,0,0,0-3.42-2.83,5.7,5.7,0,0,0-1.66-.25,6,6,0,0,0-1.8.29,6,6,0,0,0-.86.37,5.79,5.79,0,0,0-2.45,2.45,5.9,5.9,0,0,0-.34.82A5.54,5.54,0,0,0,40.1,46a5.9,5.9,0,0,0,.24,1.63,5.84,5.84,0,0,0,3.72,3.83,6,6,0,0,0,1.8.29,5.7,5.7,0,0,0,1.66-.25,5.6,5.6,0,0,0,1-.4"/><text class="cls-2" transform="translate(0.54 118.53)">BULUNG<tspan class="cls-3"><tspan x="-0.54" y="14.35">GO GREEN WITH</tspan></tspan></text></g></g></svg>