<svg xmlns="http://www.w3.org/2000/svg" viewBox="0 0 217.8 2041.37"><defs><style>.cls-1{fill:#fefefe;}.cls-2{fill:#c9c9c9;}.cls-3{fill:#646464;}.cls-4{fill:#fdfdfd;}.cls-5{fill:#fafafa;}.cls-6{fill:#3e3e3e;}.cls-7{fill:#2d2d2d;}.cls-8{fill:#2f2f2f;}.cls-9{fill:#010101;}.cls-10{fill:#020202;}.cls-11{fill:#141529;}.cls-12{fill:#a2c62c;}</style></defs><g id="katman_2" data-name="katman 2"><g id="katman_1-2" data-name="katman 1"><path class="cls-1" d="M200.38,2041.37H183.05c-.07,0-.09,0-.09-.09v-9c0-.07,0-.08.09-.08h34.67c.07,0,.08,0,.08.08v9c0,.07,0,.09-.08.09Zm-16.45-3.78v.32a1.61,1.61,0,0,0,0,.31v.32a1.4,1.4,0,0,0,0,.29v.32c0,.39,0,.78,0,1.18,0,.15,0,.15.15.15h33c.06,0,.07,0,.07-.08v-1.57a.94.94,0,0,0,0-.29v-.32a1.61,1.61,0,0,0,0-.31v-4.64c0-.12,0-.12-.12-.12h-33c-.13,0-.13,0-.13.12v4.21S183.93,2037.56,183.93,2037.59Z"/><path class="cls-2" d="M217.15,2039.15v1.25s0,.08-.07.08h-33c-.15,0-.15,0-.15-.15,0-.4,0-.79,0-1.18h3.73a.08.08,0,0,0,.08,0c.07-.08.13-.17.19-.25s0-.05,0-.06h-4a1.4,1.4,0,0,1,0-.29h4a.43.43,0,0,0,.46-.25s.06,0,0-.08,0,0-.08,0h-4.38a1.61,1.61,0,0,1,0-.31h.13c1.43,0,2.86,0,4.29,0a.43.43,0,0,0,.46-.25s.06,0,.05-.07-.06,0-.1,0h-4.83s0-.07,0-.11v-4.21c0-.12,0-.12.13-.12h33c.12,0,.12,0,.12.12v4.33H217c-1.12,0-2.24,0-3.35,0-.22,0-.38,0-.47.24,0,0-.06,0,0,.09s.06,0,.09,0h3.9a1.61,1.61,0,0,1,0,.31l-.18,0h-3.89a.26.26,0,0,0-.26.13l-.08.12s-.06,0,0,.08.05,0,.08,0h4.37a1.41,1.41,0,0,1,0,.29h-4.63a.11.11,0,0,0-.08,0l-.18.25s0,.06,0,.06h4.87Zm-15.51-3.09s0,0,0-.07c.36-.47.71-1,1.06-1.43,0,0,.06,0,0-.08s-.06,0-.09,0h-2.81a.2.2,0,0,0-.19.09c-.56.77-1.12,1.53-1.69,2.29l-.27.38h7.37a.15.15,0,0,0,.13-.07l1.92-2.62s.05,0,0-.07,0,0-.07,0h-2.87a.14.14,0,0,0-.13.06c-.32.44-.65.87-1,1.32a.43.43,0,0,1-.42.21C202.36,2036,202,2036.06,201.64,2036.06Zm-8.68-1.59h-3.1a.16.16,0,0,0-.14.07l-.94,1.27s-.06,0,0,.09.06,0,.09,0h5.73c.18,0,.22.09.12.23s-.24.34-.36.51-.17.23-.25.34,0,.2.1.23h2.44a.18.18,0,0,0,.16-.09l.64-.87a.85.85,0,0,0,.16-.46,1.18,1.18,0,0,0-.63-1.1,1.87,1.87,0,0,0-1-.25Zm-1.92,4.69h2.37a3.77,3.77,0,0,0,.58,0,3.65,3.65,0,0,0,2.41-1.47s0,0,0,0,0,0-.06,0h-3.63c-.16,0-.18-.11-.09-.24v0l.6-.81c.09-.14.06-.21-.11-.24H190.5a.16.16,0,0,0-.14.07l-2,2.74s-.06,0,0,.08.06,0,.09,0Zm18.3-1.57H206s-.09,0-.12,0a3.38,3.38,0,0,0-.42.62.48.48,0,0,0,.07.51.8.8,0,0,0,.34.26,2.46,2.46,0,0,0,.8.15h4.93a.12.12,0,0,0,.11-.05l1.05-1.43s.05,0,0-.08-.07,0-.1,0Zm-3.18-.37h3.17a.1.1,0,0,0,.09-.06l.53-.72,1.4-1.9s.06,0,0-.08-.06,0-.08,0h-3a.15.15,0,0,0-.14.06c-.24.34-.49.67-.73,1Zm-8.34,1.94h1.43a.13.13,0,0,0,.12-.05l1.06-1.45s0,0,0-.05,0,0-.07,0h-2.88a.12.12,0,0,0-.11.05l-1.05,1.43s0,0,0,.07.05,0,.07,0Zm2.89,0s0,0,.07,0h2.89a.13.13,0,0,0,.12-.06l1.05-1.43s0,0,0-.07-.05,0-.08,0h-2.86a.15.15,0,0,0-.13.06l-.78,1.06Z"/><path class="cls-3" d="M183.93,2037.59h4.83s.08,0,.1,0,0,0-.05.07a.43.43,0,0,1-.46.25c-1.43,0-2.86,0-4.29,0h-.13Z"/><path class="cls-3" d="M217.15,2039.15h-4.87s-.05,0,0-.06l.18-.25a.11.11,0,0,1,.08,0h4.63Z"/><path class="cls-3" d="M217.15,2038.54h-4.37s-.07,0-.08,0,0-.06,0-.08l.08-.12a.26.26,0,0,1,.26-.13H217l.18,0Z"/><path class="cls-3" d="M183.93,2038.22h4.38s.07,0,.08,0,0,.06,0,.08a.43.43,0,0,1-.46.25h-4Z"/><path class="cls-3" d="M183.93,2038.83h4s0,0,0,.06-.12.17-.19.25a.08.08,0,0,1-.08,0h-3.73Z"/><path class="cls-3" d="M217.15,2037.91h-3.9s-.08,0-.09,0,0-.06,0-.09c.09-.2.25-.24.47-.24,1.11,0,2.23,0,3.35,0h.13Z"/><path class="cls-3" d="M201.64,2036.06c.36,0,.72,0,1.08,0a.43.43,0,0,0,.42-.21c.31-.45.64-.88,1-1.32a.14.14,0,0,1,.13-.06h2.87s.06,0,.07,0,0,0,0,.07l-1.92,2.62a.15.15,0,0,1-.13.07h-7.37l.27-.38c.57-.76,1.13-1.52,1.69-2.29a.2.2,0,0,1,.19-.09h2.81s.07,0,.09,0,0,0,0,.08c-.35.48-.7,1-1.06,1.43C201.65,2036,201.63,2036,201.64,2036.06Z"/><path class="cls-3" d="M193,2034.47h3a1.87,1.87,0,0,1,1,.25,1.18,1.18,0,0,1,.63,1.1.85.85,0,0,1-.16.46l-.64.87a.18.18,0,0,1-.16.09h-2.44c-.15,0-.18-.1-.1-.23s.17-.22.25-.34.25-.34.36-.51.06-.22-.12-.23h-5.73s-.08,0-.09,0,0-.06,0-.09l.94-1.27a.16.16,0,0,1,.14-.07Z"/><path class="cls-3" d="M191,2039.16H188.4s-.07,0-.09,0,0-.06,0-.08l2-2.74a.16.16,0,0,1,.14-.07h2.64c.17,0,.2.1.11.24l-.6.81v0c-.09.13-.07.21.09.24h3.63s0,0,.06,0,0,0,0,0a3.65,3.65,0,0,1-2.41,1.47,3.77,3.77,0,0,1-.58,0Z"/><path class="cls-3" d="M209.34,2037.59h3.35s.08,0,.1,0,0,.06,0,.08l-1.05,1.43a.12.12,0,0,1-.11.05h-4.93a2.46,2.46,0,0,1-.8-.15.8.8,0,0,1-.34-.26.48.48,0,0,1-.07-.51,3.38,3.38,0,0,1,.42-.62s.08,0,.12,0Z"/><path class="cls-3" d="M206.16,2037.22l1.25-1.69c.24-.33.49-.66.73-1a.15.15,0,0,1,.14-.06h3s.06,0,.08,0,0,0,0,.08l-1.4,1.9-.53.72a.1.1,0,0,1-.09.06h-3.17Z"/><path class="cls-3" d="M197.82,2039.16h-1.43s-.06,0-.07,0,0-.05,0-.07l1.05-1.43a.12.12,0,0,1,.11-.05h2.88s.06,0,.07,0,0,0,0,.05l-1.06,1.45a.13.13,0,0,1-.12.05Z"/><path class="cls-3" d="M200.71,2039.14l.31-.43.78-1.06a.15.15,0,0,1,.13-.06h2.86s.06,0,.08,0,0,.05,0,.07l-1.05,1.43a.13.13,0,0,1-.12.06h-2.89S200.73,2039.17,200.71,2039.14Z"/><path class="cls-4" d="M147.73,2018.51h-2.11c-.12,0-.15,0-.15-.14,0-4.87,0-9.73,0-14.59,0-2.14,0-4.27,0-6.41,0-.12,0-.15.15-.15h18.7c.13,0,.15,0,.15.15v21c0,.12,0,.15-.15.14h-2.1v0c0-.38,0-.75,0-1.13,0-.18,0-.22-.23-.22H147.83c-.09,0-.11,0-.11.11,0,.42,0,.83,0,1.24Zm0-14.12c0,.12,0,.25,0,.38a.23.23,0,0,1-.14.27.23.23,0,0,0-.09.37,1.76,1.76,0,0,1,.09.2.41.41,0,0,1-.26.53c-.26.1-.51.21-.78.3-.08,0-.11.06-.06.15.16.24.3.49.44.74,0,.08.09.09.17.05s.35-.13.52-.21.11,0,.11.08c0,.29,0,.58,0,.87,0,.11,0,.15-.13.17l-.9.22c-.06,0-.13,0-.09.11.08.24.12.49.18.74s.16.28.39.25a2.45,2.45,0,0,0,.37-.08c.17-.07.18,0,.18.14,0,.82,0,1.64,0,2.45,0,.15,0,.18.18.18h5a.29.29,0,0,1,.31.24.29.29,0,0,0,.39.22,19,19,0,0,1,2.12-.31c1.13-.13,2.27-.11,3.4-.14,1,0,1.93,0,2.89,0,.14,0,.18,0,.18-.17,0-1.09,0-2.18,0-3.27,0-.16,0-.2.19-.19H163c.09,0,.12,0,.12-.1q0-.42,0-.84c0-.1,0-.12-.13-.12h-.59c-.14,0-.15,0-.15-.15s0-.5,0-.74,0-.17.17-.18l1.3-.11c.12,0,.17,0,.16-.17a6.15,6.15,0,0,1-.06-.74c0-.19-.08-.18-.21-.16l-1.24.18c-.05,0-.11,0-.12,0s0-.1.1-.11l.58-.07a.22.22,0,0,0,.24-.25c0-.15,0-.29,0-.44s0-.28.27-.31l.91-.06c.1,0,.13,0,.12-.15l0-.76c0-.22,0-.22-.23-.2h-.09l-1.67.2c-.06,0-.18.08-.19-.08s0-.22.15-.22a3,3,0,0,0,.4-.06.25.25,0,0,0,.25-.32c0-.17,0-.35-.05-.52s-.07-.24-.25-.18a2.64,2.64,0,0,1-.3.07c-.14,0-.21,0-.2-.16,0-.87,0-1.75,0-2.62,0-.13,0-.17-.17-.17H160c-.12,0-.17,0-.19-.15s-.12-.3-.37-.22a5.57,5.57,0,0,1-2.18.3c-.24,0-.27,0-.32-.28s-.07-.24-.21-.22-.31-.09-.37-.27a.94.94,0,0,0-.06-.15c-.11-.24-.11-.24-.34-.15l-2.91,1a1.78,1.78,0,0,1-.33.09c-.06,0-.17,0-.19,0s.09-.08.15-.1l1.64-.58c.12,0,.14-.09.1-.2a4,4,0,0,1-.16-.45c-.15-.47-.15-.47-.62-.28-1.15.48-2.27,1-3.38,1.61a.64.64,0,0,1-.33.08H148c-.15,0-.2,0-.2.19,0,1.28,0,2.57,0,3.85a.22.22,0,0,1-.15.23c-.46.18-.91.38-1.36.58l-.76.32.53.71a.16.16,0,0,0,.24.06l1.28-.58C147.62,2004.43,147.68,2004.37,147.77,2004.39Zm2.1,10a.77.77,0,0,0,.43-.42.86.86,0,0,0-.75-1.25c-.54,0-1.08,0-1.62,0-.14,0-.17,0-.16.17v2.63c0,.43,0,.42.42.43.14,0,.16-.05.16-.17,0-.34,0-.69,0-1,0-.07,0-.13.1-.13h.85a.48.48,0,0,1,.47.42,4.58,4.58,0,0,1,0,.64c0,.24,0,.25.29.25h.39a1.86,1.86,0,0,1-.16-.83A.63.63,0,0,0,149.87,2014.37Zm9.26,1.14a1.76,1.76,0,0,1,0,.58.46.46,0,0,1-.46.34c-.23,0-.47,0-.59-.21a.24.24,0,0,0-.25-.13h-.21c-.12,0-.13.05-.1.14a.71.71,0,0,0,.43.49,1.61,1.61,0,0,0,1.06,0,.83.83,0,0,0,.66-.81c0-.76,0-1.53,0-2.29,0,0,0-.09,0-.09a1.69,1.69,0,0,0-.45,0c-.07,0,0,.16,0,.24h0a1,1,0,0,0-1.5.09,1.48,1.48,0,0,0-.13,1.34A1,1,0,0,0,159.13,2015.51Zm-6.48-.73v-.54a.64.64,0,0,0-.47-.66,1.49,1.49,0,0,0-1.06,0,.7.7,0,0,0-.44.45c-.06.21-.05.23.16.23h.24a.09.09,0,0,0,.1,0,.53.53,0,0,1,.68-.3c.19,0,.3.15.29.29s-.12.24-.27.26l-.16,0a3.86,3.86,0,0,0-.68.11.62.62,0,0,0-.48.66.63.63,0,0,0,.51.64,1.25,1.25,0,0,0,1-.15s.07-.1.14,0a.52.52,0,0,0,.64.16c.12-.07,0-.19.06-.28s0-.1-.09-.1-.15-.06-.15-.17Zm4,.93a.5.5,0,0,0,.68.21c.1-.07,0-.19.05-.29s0-.08-.07-.08-.17-.1-.17-.22v-1.11a.62.62,0,0,0-.43-.62,1.52,1.52,0,0,0-1.13,0,.66.66,0,0,0-.4.43c-.08.22-.07.24.17.24h.22a.09.09,0,0,0,.1,0,.59.59,0,0,1,.8-.26.25.25,0,0,1,.17.27.25.25,0,0,1-.2.23l-.23,0c-.22,0-.44.06-.65.11a.6.6,0,0,0-.51.65.63.63,0,0,0,.52.65A1.25,1.25,0,0,0,156.64,2015.71Zm5.58-1a1.13,1.13,0,0,0-.5-1.06,1.27,1.27,0,0,0-1.58.2,1.42,1.42,0,0,0,0,1.73,1.27,1.27,0,0,0,1.36.26A1.12,1.12,0,0,0,162.22,2014.75Zm-8.26.54h0c-.14-.42-.29-.84-.42-1.26s-.15-.48-.64-.46h-.05c0,.07,0,.12,0,.18.2.58.41,1.15.63,1.73.15.42.15.41.59.41a.16.16,0,0,0,.19-.13c.18-.52.37-1,.55-1.55.08-.21.15-.42.24-.65h-.41c-.1,0-.15,0-.18.14C154.3,2014.24,154.13,2014.76,154,2015.29Z"/><path class="cls-5" d="M162.22,2018.48v0H147.73v0h14.49Z"/><path class="cls-6" d="M147.77,2004.39c-.09,0-.15,0-.22.07l-1.28.58a.16.16,0,0,1-.24-.06l-.53-.71.76-.32c.45-.2.9-.4,1.36-.58a.22.22,0,0,0,.15-.23c0-1.28,0-2.57,0-3.85,0-.15.05-.19.2-.19h1.94a.64.64,0,0,0,.33-.08c1.11-.56,2.23-1.13,3.38-1.61.47-.19.47-.19.62.28a4,4,0,0,0,.16.45c0,.11,0,.16-.1.2l-1.64.58c-.06,0-.16,0-.15.1s.13.06.19,0a1.78,1.78,0,0,0,.33-.09l2.91-1c.23-.09.23-.09.34.15a.94.94,0,0,1,.06.15c.06.18.15.3.37.27s.19.1.21.22.08.27.32.28a5.57,5.57,0,0,0,2.18-.3c.25-.08.33,0,.37.22s.07.15.19.15h2.09c.13,0,.17,0,.17.17,0,.87,0,1.75,0,2.62,0,.18.06.2.2.16a2.64,2.64,0,0,0,.3-.07c.18-.06.25,0,.25.18s0,.35.05.52a.25.25,0,0,1-.25.32,3,3,0,0,1-.4.06c-.17,0-.15.11-.15.22s.13.08.19.08l1.67-.2h.09c.23,0,.23,0,.23.2l0,.76c0,.1,0,.14-.12.15l-.91.06c-.27,0-.28,0-.27.31s0,.29,0,.44a.22.22,0,0,1-.24.25l-.58.07c-.07,0-.11,0-.1.11s.07.06.12,0l1.24-.18c.13,0,.22,0,.21.16a6.15,6.15,0,0,0,.06.74c0,.13,0,.16-.16.17l-1.3.11c-.13,0-.18,0-.17.18s0,.49,0,.74,0,.16.15.15H163c.1,0,.13,0,.13.12q0,.42,0,.84c0,.09,0,.11-.12.1h-.56c-.15,0-.19,0-.19.19,0,1.09,0,2.18,0,3.27,0,.14,0,.17-.18.17-1,0-1.93,0-2.89,0-1.13,0-2.27,0-3.4.14a19,19,0,0,0-2.12.31.29.29,0,0,1-.39-.22.29.29,0,0,0-.31-.24h-5c-.14,0-.18,0-.18-.18,0-.81,0-1.63,0-2.45,0-.15,0-.21-.18-.14a2.45,2.45,0,0,1-.37.08c-.23,0-.33,0-.39-.25s-.1-.5-.18-.74c0-.09,0-.09.09-.11l.9-.22c.1,0,.13-.06.13-.17,0-.29,0-.58,0-.87,0-.09,0-.12-.11-.08s-.35.14-.52.21-.13,0-.17-.05c-.14-.25-.28-.5-.44-.74-.05-.09,0-.11.06-.15.27-.09.52-.2.78-.3a.41.41,0,0,0,.26-.53,1.76,1.76,0,0,0-.09-.2.23.23,0,0,1,.09-.37.23.23,0,0,0,.14-.27C147.76,2004.64,147.77,2004.51,147.77,2004.39Zm1.89,7.54c.43,0,.87,0,1.3,0,.18,0,.24,0,.28-.22.09-.42.14-.46.58-.52l.24,0,2.24-.27c.11,0,.14,0,.13-.16,0-.3,0-.6,0-.9s0-.2-.2-.15l-2.46.7c-.11,0-.14,0-.15-.1a6.23,6.23,0,0,0-.09-.74c0-.14,0-.17.15-.19.52-.09,1-.21,1.54-.34a4.82,4.82,0,0,0,.91-.29s.08,0,.07-.07a.08.08,0,0,0-.1-.06l-.09,0-3.92,1a2.28,2.28,0,0,1-.68.13c-.12,0-.19,0-.19-.18a.91.91,0,0,0-.06-.32c-.06-.17-.15-.21-.32-.15s-.36.14-.54.19-.12.09-.12.18v2.3c0,.12,0,.16.16.15Zm9.47-1v0h1.78c.18,0,.22.08.22.23s0,.41,0,.61,0,.12.11.12h.52c.1,0,.12,0,.12-.12v-3.25c0-.09,0-.11-.11-.1l-4.55.53c-.11,0-.13,0-.13.14.05.56.1,1.12.14,1.68,0,.11,0,.13.14.13Zm-8-6.19a2.86,2.86,0,0,0,.74-.13c2-.58,4-1.18,6-1.7.27-.07.35,0,.45.23.17.47.17.47.67.37.16,0,.19-.11.18-.24a2.71,2.71,0,0,0,0-.41c0-.16,0-.21.17-.23l2.13-.41c.36-.07.36-.08.36-.45v-2.16c0-.06,0-.15-.09-.14H160c-.09,0-.1,0-.1.11s.1.14.19.14l.34,0a.22.22,0,0,1,.27.2,5.78,5.78,0,0,0,.12.57c0,.17,0,.24-.18.29a1.25,1.25,0,0,1-.19,0l-2.87.56c-.13,0-.22.07-.18.24s.11.19.27.16l2.89-.67c.53-.12.53-.12.66.42.07.31.05.34-.26.42l-4.39,1.16c-1.62.44-3.26.86-4.86,1.38A1,1,0,0,0,151.16,2004.75Zm2.86-5.27a1,1,0,0,0-.25,0c-.45.16-.91.3-1.34.49a32,32,0,0,0-3.33,1.75c-.16.1-.22.06-.37-.16s0-.2.08-.27c.66-.43,1.34-.82,2-1.21.31-.17.63-.35,1-.49,0,0,.11,0,.09-.09s-.08,0-.12,0a1,1,0,0,0-.71.17,1.87,1.87,0,0,1-.31.17c-.15.08-.32.24-.43.21s-.13-.28-.19-.44a.17.17,0,0,0-.17-.12h-1.67c-.12,0-.15,0-.15.16V2003c0,.15,0,.15.15.1l1.86-.8c.3-.13.33-.25.15-.51s-.18-.49.14-.64c1.14-.54,2.27-1.09,3.45-1.55C153.94,1999.56,154,1999.56,154,1999.48Zm-5.88,8c0,.24,0,.4,0,.57s0,.1.12.08l3.42-.86a.21.21,0,0,0,.17-.29c-.07-.29,0-.33.24-.42.56-.17,1.11-.34,1.67-.49a24.45,24.45,0,0,1,2.64-.7l1.07-.19c.12,0,.14-.1.17-.19s0-.11-.06-.11-.31-.1-.49-.05l-2.1.61a31.84,31.84,0,0,0-3.06.94c-.73.3-1.47.57-2.2.85a.31.31,0,0,1-.45-.16.8.8,0,0,1-.08-.16c-.15-.28-.23-.29-.52-.19S148,2007.06,148.14,2007.48Zm13.64-2-.18,0c-.87.13-1.74.25-2.6.39a29.35,29.35,0,0,0-4.89,1.12c-.25.09-.26.09-.19.35a.14.14,0,0,0,0,.07c0,.1,0,.21.15.22s.14-.11.17-.19a.55.55,0,0,1,.45-.39c.63-.13,1.26-.29,1.89-.43,1.4-.32,2.8-.64,4.22-.87.31-.06.63-.08.94-.12.06,0,.1,0,.09-.1S161.82,2005.46,161.78,2005.46Zm-9.86-4c.09.09.16,0,.23,0,1.63-.45,3.22-1,4.82-1.61.11,0,.17,0,.22.07s.07.25.19.23.1-.18.13-.29,0-.06,0-.09a.34.34,0,0,0-.32-.36.7.7,0,0,0-.35.12l-3.09,1.19Zm-3.78,3v.16c0,.22,0,.22.19.14L150,2004c.3-.12.3-.13.16-.42s-.2-.26-.42-.16c-.44.2-.88.41-1.33.6C148.21,2004.14,148.07,2004.24,148.14,2004.45Zm13.71,2.67c0-.13,0-.26,0-.4s0-.13-.14-.11-.41.05-.62.05-.15,0-.14.15,0,.49,0,.73,0,.11.13.11h.54c.17,0,.22-.06.21-.22A1.58,1.58,0,0,1,161.85,2007.12Zm-1.17-3.57,1.08-.11c.16,0,.08-.13.09-.21s0-.08-.11-.07l-1.09.16c-.1,0-.18,0-.17.14S160.6,2003.54,160.68,2003.55Z"/><path class="cls-6" d="M162.22,2018.48H147.73c0-.41,0-.82,0-1.24,0-.08,0-.12.11-.11H162c.19,0,.23,0,.23.22C162.21,2017.73,162.22,2018.1,162.22,2018.48Z"/><path class="cls-6" d="M149.87,2014.37a.63.63,0,0,1,.45.7,1.86,1.86,0,0,0,.16.83h-.39c-.24,0-.26,0-.29-.25a4.58,4.58,0,0,0,0-.64.48.48,0,0,0-.47-.42h-.85c-.1,0-.1.06-.1.13,0,.34,0,.69,0,1,0,.12,0,.17-.16.17-.42,0-.42,0-.42-.43v-2.63c0-.13,0-.18.16-.17.54,0,1.08,0,1.62,0a.86.86,0,0,1,.75,1.25A.77.77,0,0,1,149.87,2014.37Zm-1-.22h.4a.47.47,0,0,0,.52-.52c0-.31-.16-.47-.5-.48h-.83c-.09,0-.13,0-.13.12,0,.25,0,.51,0,.76s0,.12.13.12Z"/><path class="cls-6" d="M159.13,2015.51a1,1,0,0,1-1.66-.25,1.48,1.48,0,0,1,.13-1.34,1,1,0,0,1,1.5-.09h0c0-.08,0-.22,0-.24a1.69,1.69,0,0,1,.45,0s0,.06,0,.09c0,.76,0,1.53,0,2.29a.83.83,0,0,1-.66.81,1.61,1.61,0,0,1-1.06,0,.71.71,0,0,1-.43-.49c0-.09,0-.15.1-.14h.21a.24.24,0,0,1,.25.13c.12.24.36.23.59.21a.46.46,0,0,0,.46-.34A1.76,1.76,0,0,0,159.13,2015.51Zm0-.81a.91.91,0,0,0-.12-.49.56.56,0,0,0-1,0,1,1,0,0,0,0,1,.52.52,0,0,0,.49.29.55.55,0,0,0,.51-.29A1.11,1.11,0,0,0,159.13,2014.7Z"/><path class="cls-6" d="M152.65,2014.78v.6c0,.11,0,.19.15.17s.1,0,.09.1.06.21-.06.28a.52.52,0,0,1-.64-.16c-.07-.09-.1,0-.14,0a1.25,1.25,0,0,1-1,.15.63.63,0,0,1-.51-.64.62.62,0,0,1,.48-.66,3.86,3.86,0,0,1,.68-.11l.16,0c.15,0,.27-.08.27-.26s-.1-.26-.29-.29a.53.53,0,0,0-.68.3.09.09,0,0,1-.1,0h-.24c-.21,0-.22,0-.16-.23a.7.7,0,0,1,.44-.45,1.49,1.49,0,0,1,1.06,0,.64.64,0,0,1,.47.66Zm-.53,0a1.5,1.5,0,0,1-.45.09,1,1,0,0,0-.42.11.33.33,0,0,0-.17.29.27.27,0,0,0,.15.23.58.58,0,0,0,.89-.5Z"/><path class="cls-6" d="M156.64,2015.71a1.25,1.25,0,0,1-1.08.22.63.63,0,0,1-.52-.65.6.6,0,0,1,.51-.65c.21-.05.43-.08.65-.11l.23,0a.25.25,0,0,0,.2-.23.25.25,0,0,0-.17-.27.59.59,0,0,0-.8.26.09.09,0,0,1-.1,0h-.22c-.24,0-.25,0-.17-.24a.66.66,0,0,1,.4-.43,1.52,1.52,0,0,1,1.13,0,.62.62,0,0,1,.43.62v1.11c0,.12,0,.24.17.22s.07,0,.07.08,0,.22-.05.29A.5.5,0,0,1,156.64,2015.71Zm0-.7c0-.24,0-.24-.22-.19l-.17,0a1.39,1.39,0,0,0-.46.09.34.34,0,0,0-.2.29.25.25,0,0,0,.13.24.71.71,0,0,0,.68,0A.44.44,0,0,0,156.61,2015Z"/><path class="cls-6" d="M162.22,2014.75a1.12,1.12,0,0,1-.68,1.13,1.27,1.27,0,0,1-1.36-.26,1.42,1.42,0,0,1,0-1.73,1.27,1.27,0,0,1,1.58-.2A1.13,1.13,0,0,1,162.22,2014.75Zm-.51,0a1,1,0,0,0-.1-.46.58.58,0,0,0-.54-.36.57.57,0,0,0-.57.34,1,1,0,0,0,0,1,.61.61,0,0,0,1,.09A1,1,0,0,0,161.71,2014.75Z"/><path class="cls-6" d="M154,2015.29c.17-.53.34-1,.5-1.58,0-.11.08-.15.18-.14h.41c-.09.23-.16.44-.24.65-.18.51-.37,1-.55,1.55a.16.16,0,0,1-.19.13c-.44,0-.44,0-.59-.41-.22-.58-.43-1.15-.63-1.73,0-.06-.06-.11,0-.18h.05c.49,0,.49,0,.64.46s.28.84.42,1.26Z"/><path class="cls-5" d="M149.66,2011.93H148.3c-.12,0-.16,0-.16-.15v-2.3c0-.09,0-.15.12-.18s.36-.13.54-.19.26,0,.32.15a.91.91,0,0,1,.06.32c0,.13.07.18.19.18a2.28,2.28,0,0,0,.68-.13l3.92-1,.09,0a.08.08,0,0,1,.1.06s0,.06-.07.07a4.82,4.82,0,0,1-.91.29c-.51.13-1,.25-1.54.34-.12,0-.18.05-.15.19a6.23,6.23,0,0,1,.09.74c0,.1,0,.13.15.1l2.46-.7c.16,0,.2,0,.2.15s0,.6,0,.9c0,.12,0,.15-.13.16l-2.24.27-.24,0c-.44.06-.49.1-.58.52,0,.17-.1.22-.28.22C150.53,2011.92,150.09,2011.93,149.66,2011.93Z"/><path class="cls-4" d="M159.13,2010.94h-1.79c-.1,0-.14,0-.14-.13,0-.56-.09-1.12-.14-1.68,0-.1,0-.13.13-.14l4.55-.53c.09,0,.11,0,.11.1v3.25c0,.09,0,.13-.12.12h-.52c-.09,0-.12,0-.11-.12s0-.41,0-.61,0-.23-.22-.23h-1.78Z"/><path class="cls-5" d="M151.16,2004.75a1,1,0,0,1,.5-.3c1.6-.52,3.24-.94,4.86-1.38l4.39-1.16c.31-.08.33-.11.26-.42-.13-.54-.13-.54-.66-.42l-2.89.67c-.16,0-.23,0-.27-.16s.05-.21.18-.24l2.87-.56a1.25,1.25,0,0,0,.19,0c.15,0,.23-.12.18-.29a5.78,5.78,0,0,1-.12-.57.22.22,0,0,0-.27-.2l-.34,0c-.09,0-.2,0-.19-.14s0-.11.1-.11h1.81c.13,0,.09.08.09.14v2.16c0,.37,0,.38-.36.45l-2.13.41c-.15,0-.21.07-.17.23a2.71,2.71,0,0,1,0,.41c0,.13,0,.21-.18.24-.5.1-.5.1-.67-.37-.1-.26-.18-.3-.45-.23-2,.52-4,1.12-6,1.7A2.86,2.86,0,0,1,151.16,2004.75Z"/><path class="cls-5" d="M154,1999.48c0,.08-.08.08-.13.1-1.18.46-2.31,1-3.45,1.55-.32.15-.36.35-.14.64s.15.38-.15.51l-1.86.8c-.11.05-.15.05-.15-.1v-3.35c0-.12,0-.16.15-.16H150a.17.17,0,0,1,.17.12c.06.16.06.4.19.44s.28-.13.43-.21a1.87,1.87,0,0,0,.31-.17,1,1,0,0,1,.71-.17s.11,0,.12,0,0,.07-.09.09c-.33.14-.65.32-1,.49-.69.39-1.37.78-2,1.21-.1.07-.18.12-.08.27s.21.26.37.16a32,32,0,0,1,3.33-1.75c.43-.19.89-.33,1.34-.49A1,1,0,0,1,154,1999.48Z"/><path class="cls-5" d="M148.14,2007.48c-.15-.42.13-.61.54-.76s.37-.09.52.19a.8.8,0,0,0,.08.16.31.31,0,0,0,.45.16c.73-.28,1.47-.55,2.2-.85a31.84,31.84,0,0,1,3.06-.94l2.1-.61c.18,0,.33.05.49.05s.07.06.06.11,0,.17-.17.19l-1.07.19a24.45,24.45,0,0,0-2.64.7c-.56.15-1.11.32-1.67.49-.29.09-.31.13-.24.42a.21.21,0,0,1-.17.29l-3.42.86c-.1,0-.12,0-.12-.08S148.14,2007.72,148.14,2007.48Z"/><path class="cls-5" d="M161.78,2005.46s.07,0,.07.07,0,.09-.09.1c-.31,0-.63.06-.94.12-1.42.23-2.82.55-4.22.87-.63.14-1.26.3-1.89.43a.55.55,0,0,0-.45.39c0,.08,0,.2-.17.19s-.13-.12-.15-.22a.14.14,0,0,1,0-.07c-.07-.26-.06-.26.19-.35a29.35,29.35,0,0,1,4.89-1.12c.86-.14,1.73-.26,2.6-.39Z"/><path class="cls-5" d="M151.92,2001.5l1.84-.72,3.09-1.19a.7.7,0,0,1,.35-.12.34.34,0,0,1,.32.36s0,.06,0,.09,0,.27-.13.29-.14-.14-.19-.23-.11-.11-.22-.07c-1.6.57-3.19,1.16-4.82,1.61C152.08,2001.54,152,2001.59,151.92,2001.5Z"/><path class="cls-5" d="M148.14,2004.45c-.07-.21.07-.31.28-.39.45-.19.89-.4,1.33-.6.22-.1.32-.06.42.16s.14.3-.16.42l-1.68.71c-.19.08-.19.08-.19-.14Z"/><path class="cls-5" d="M161.85,2007.12a1.58,1.58,0,0,0,0,.31c0,.16,0,.23-.21.22h-.54c-.09,0-.13,0-.13-.11s0-.49,0-.73,0-.14.14-.15.41,0,.62-.05.14,0,.14.11S161.85,2007,161.85,2007.12Z"/><path class="cls-5" d="M160.68,2003.55c-.08,0-.18,0-.2-.09s.07-.13.17-.14l1.09-.16c.06,0,.13,0,.11.07s.07.19-.09.21Z"/><path class="cls-5" d="M148.88,2014.15h-.41c-.09,0-.13,0-.13-.12s0-.51,0-.76c0-.1,0-.12.13-.12h.83c.34,0,.5.17.5.48a.47.47,0,0,1-.52.52Z"/><path class="cls-5" d="M159.13,2014.7a1.11,1.11,0,0,1-.12.5.55.55,0,0,1-.51.29.52.52,0,0,1-.49-.29,1,1,0,0,1,0-1,.56.56,0,0,1,1,0A.91.91,0,0,1,159.13,2014.7Z"/><path class="cls-5" d="M152.12,2014.76v.22a.58.58,0,0,1-.89.5.27.27,0,0,1-.15-.23.33.33,0,0,1,.17-.29,1,1,0,0,1,.42-.11A1.5,1.5,0,0,0,152.12,2014.76Z"/><path class="cls-5" d="M156.61,2015a.44.44,0,0,1-.24.46.71.71,0,0,1-.68,0,.25.25,0,0,1-.13-.24.34.34,0,0,1,.2-.29,1.39,1.39,0,0,1,.46-.09l.17,0C156.61,2014.77,156.61,2014.77,156.61,2015Z"/><path class="cls-5" d="M161.71,2014.75a1,1,0,0,1-.17.56.61.61,0,0,1-1-.09,1,1,0,0,1,0-1,.57.57,0,0,1,.57-.34.58.58,0,0,1,.54.36A1,1,0,0,1,161.71,2014.75Z"/><path class="cls-1" d="M116.45,2040.63H93c-.08,0-.09,0-.09-.09V2034c0-.08,0-.09.08-.09h47c.08,0,.09,0,.09.09v6.51c0,.07,0,.08-.09.08ZM94.93,2037l.06.07c.28.34.57.68.85,1a.2.2,0,0,0,.17.08h3.73a3.55,3.55,0,0,0,.79-.09,1.66,1.66,0,0,0,1.12-.79,2,2,0,0,0,.2-1.08,1.69,1.69,0,0,0-.49-1.09,2,2,0,0,0-1.47-.59H96s-.07,0-.07.08v2.09c0,.06,0,.07.07.07h1.36c.07,0,.08,0,.08-.08s0-.34,0-.52a.41.41,0,0,1,.46-.46h1.66a1.25,1.25,0,0,1,.43.07.62.62,0,0,1,0,1.16,1.4,1.4,0,0,1-.45.06H94.93Zm21,.66h0v2.18c0,.07,0,.1.09.1h.86c.07,0,.09,0,.09-.1v-3.58c0-.08,0-.08-.09-.08h-.88a.13.13,0,0,0-.15.07L114.6,2038s0,.07-.07.08a.18.18,0,0,1,0-.07c-.44-.6-.88-1.19-1.31-1.79,0-.06-.09-.09-.16-.08h-.89c-.06,0-.08,0-.08.07v3.62c0,.06,0,.08.08.08H113c.07,0,.09,0,.09-.1,0-.7,0-1.39,0-2.09v-.12l.06.08c.45.59.9,1.18,1.34,1.78,0,0,.06.06.11,0s.23-.31.34-.46Zm20.44-.07.09.1,1.83,2.19s.07.08.14.08h.92c.06,0,.08,0,.08-.07v-3.62c0-.06,0-.07-.08-.07h-.86c-.09,0-.1,0-.1.1v2.16a.15.15,0,0,1,0,.11l0,0-1.85-2.26a.14.14,0,0,0-.14-.06h-.9c-.08,0-.1,0-.1.09v3.6c0,.06,0,.08.07.07h.89c.07,0,.08,0,.07-.08v-2.29Zm-30.77,1.06.18-.06a1.06,1.06,0,0,0,.67-.83,1.25,1.25,0,0,0-.7-1.43,1.72,1.72,0,0,0-.7-.14h-2.62c-.06,0-.09,0-.09.08v3.6c0,.06,0,.09.09.09h.87c.07,0,.09,0,.09-.09,0-.35,0-.7,0-1.06,0-.08,0-.09.1-.09h1a.17.17,0,0,1,.15.07c.24.37.5.73.75,1.1a.14.14,0,0,0,.13.07h1s0,0,.07,0Zm3.6,1.42a3.83,3.83,0,0,0,.66-.08,1.89,1.89,0,0,0,1.26-.85,2,2,0,0,0,.28-1.16,1.8,1.8,0,0,0-1.18-1.72,2.8,2.8,0,0,0-2.09,0,1.76,1.76,0,0,0-1,1,2.14,2.14,0,0,0-.13.87,1.8,1.8,0,0,0,1.07,1.66A2.85,2.85,0,0,0,109.24,2040.05Zm23.37,0a3.19,3.19,0,0,0,.63-.08,1.88,1.88,0,0,0,1.32-1,2.09,2.09,0,0,0,.22-1.13,1.78,1.78,0,0,0-1-1.57,2.8,2.8,0,0,0-2-.16,1.8,1.8,0,0,0-1.2.93,2.08,2.08,0,0,0-.2,1.25,1.75,1.75,0,0,0,1,1.44A2.79,2.79,0,0,0,132.61,2040.05Zm-6.31-2v1.8c0,.05,0,.09.07.09H130c.06,0,.07,0,.07-.07s0-.42,0-.64,0-.1-.11-.1h-2.48c-.07,0-.1,0-.1-.09a3.08,3.08,0,0,0,0-.43c0-.09,0-.11.11-.11h1.81c.07,0,.09,0,.09-.09s0-.42,0-.63,0-.1-.1-.1h-1.82c-.07,0-.09,0-.09-.09a4.17,4.17,0,0,0,0-.5c0-.09,0-.11.11-.11h2.34c.08,0,.1,0,.1-.1s0-.42,0-.63,0-.09-.1-.09H126.4c-.08,0-.1,0-.1.09Zm-8.46,0v1.8c0,.05,0,.09.07.09h3.58c.07,0,.08,0,.08-.09v-.63c0-.09,0-.1-.1-.1H119c-.06,0-.09,0-.09-.09a3.09,3.09,0,0,0,0-.43c0-.09,0-.11.1-.11h1.81c.07,0,.09,0,.09-.09s0-.42,0-.63,0-.1-.1-.1H119c-.07,0-.09,0-.09-.09a4.17,4.17,0,0,0,0-.5c0-.08,0-.11.1-.11h2.1c.07,0,.09,0,.09-.09,0-.22,0-.43,0-.65,0-.07,0-.08-.09-.08h-3.15c-.08,0-.09,0-.09.09Zm5.91-1.88h-1.91c-.08,0-.1,0-.1.08,0,.22,0,.43,0,.64s0,.1.1.1h1.28c.09,0,.11,0,.11.12,0,.91,0,1.83,0,2.74,0,.08,0,.1.1.1h.85c.08,0,.1,0,.1-.1,0-.92,0-1.84,0-2.76,0-.08,0-.1.1-.1h1.28c.08,0,.11,0,.11-.1s0-.42,0-.63,0-.09-.1-.09Zm-27.84,3v.7c0,.06,0,.08.07.08h1.37c.05,0,.07,0,.07-.07v-1.4c0-.06,0-.08-.08-.08H96c-.06,0-.07,0-.07.08ZM93.46,2037l1,1.15.06,0H95s0,0,0,0L94,2037a.09.09,0,0,0-.07,0Zm.76,0,.94,1.13s0,.05.07.05h.45l-.93-1.11,0,0a.05.05,0,0,0,0,0Z"/><path class="cls-7" d="M94.93,2037h4.58a1.4,1.4,0,0,0,.45-.06.62.62,0,0,0,0-1.16,1.25,1.25,0,0,0-.43-.07H97.88a.41.41,0,0,0-.46.46c0,.18,0,.35,0,.52s0,.08-.08.08H96c-.06,0-.07,0-.07-.07v-2.09c0-.07,0-.08.07-.08h3.91a2,2,0,0,1,1.47.59,1.69,1.69,0,0,1,.49,1.09,2,2,0,0,1-.2,1.08,1.66,1.66,0,0,1-1.12.79,3.55,3.55,0,0,1-.79.09H96a.2.2,0,0,1-.17-.08c-.28-.35-.57-.69-.85-1Z"/><path class="cls-8" d="M116,2037.64l-1,1.39c-.11.15-.23.3-.34.46s-.07,0-.11,0c-.44-.6-.89-1.19-1.34-1.78l-.06-.08v.12c0,.7,0,1.39,0,2.09,0,.07,0,.1-.09.1h-.88c-.06,0-.08,0-.08-.08v-3.62c0-.06,0-.07.08-.07H113c.07,0,.11,0,.16.08.43.6.87,1.19,1.31,1.79a.18.18,0,0,0,0,.07s0,0,.07-.08l1.31-1.79a.13.13,0,0,1,.15-.07h.88c.06,0,.09,0,.09.08v3.58c0,.08,0,.1-.09.1h-.86c-.08,0-.09,0-.09-.1v-2.18Z"/><path class="cls-7" d="M136.41,2037.57v2.29c0,.05,0,.08-.07.08h-.89c-.06,0-.07,0-.07-.07v-3.6c0-.08,0-.1.1-.09h.9a.14.14,0,0,1,.14.06l1.85,2.26,0,0a.15.15,0,0,0,0-.11v-2.16c0-.08,0-.11.1-.1h.86c.06,0,.08,0,.08.07v3.62c0,.06,0,.08-.08.07h-.92c-.07,0-.1,0-.14-.08l-1.83-2.19Z"/><path class="cls-7" d="M105.64,2038.63l.93,1.29s0,0-.07,0h-1a.14.14,0,0,1-.13-.07c-.25-.37-.51-.73-.75-1.1a.17.17,0,0,0-.15-.07h-1c-.07,0-.1,0-.1.09,0,.36,0,.71,0,1.06,0,.07,0,.09-.09.09h-.87c-.08,0-.09,0-.09-.09v-3.6c0-.07,0-.08.09-.08h2.62a1.72,1.72,0,0,1,.7.14,1.25,1.25,0,0,1,.7,1.43,1.06,1.06,0,0,1-.67.83Zm-1.38-.75H105a.4.4,0,0,0,.43-.37.42.42,0,0,0-.34-.49l-.18,0h-1.44c-.08,0-.09,0-.09.09q0,.36,0,.72c0,.07,0,.09.09.09Z"/><path class="cls-7" d="M109.24,2040.05a2.85,2.85,0,0,1-1.17-.24,1.8,1.8,0,0,1-1.07-1.66,2.14,2.14,0,0,1,.13-.87,1.76,1.76,0,0,1,1-1,2.8,2.8,0,0,1,2.09,0,1.8,1.8,0,0,1,1.18,1.72,2,2,0,0,1-.28,1.16,1.89,1.89,0,0,1-1.26.85A3.83,3.83,0,0,1,109.24,2040.05Zm1.14-2a1.12,1.12,0,0,0-.29-.85,1.33,1.33,0,0,0-1.51-.19,1.23,1.23,0,0,0-.32,1.69,1.14,1.14,0,0,0,.85.44A1.08,1.08,0,0,0,110.38,2038.1Z"/><path class="cls-7" d="M132.61,2040.05a2.79,2.79,0,0,1-1.27-.27,1.75,1.75,0,0,1-1-1.44,2.08,2.08,0,0,1,.2-1.25,1.8,1.8,0,0,1,1.2-.93,2.8,2.8,0,0,1,2,.16,1.78,1.78,0,0,1,1,1.57,2.09,2.09,0,0,1-.22,1.13,1.88,1.88,0,0,1-1.32,1A3.19,3.19,0,0,1,132.61,2040.05Zm-1.21-2a1.17,1.17,0,1,0,1.09-1.18A1.09,1.09,0,0,0,131.4,2038.09Z"/><path class="cls-7" d="M126.3,2038.05v-1.79c0-.07,0-.09.1-.09h3.39c.08,0,.1,0,.1.09s0,.42,0,.63,0,.1-.1.1h-2.34c-.09,0-.11,0-.11.11a4.17,4.17,0,0,1,0,.5c0,.07,0,.09.09.09h1.82c.08,0,.1,0,.1.1s0,.42,0,.63,0,.09-.09.09h-1.81c-.09,0-.12,0-.11.11a3.08,3.08,0,0,1,0,.43c0,.08,0,.09.1.09h2.48c.09,0,.11,0,.11.1s0,.43,0,.64,0,.07-.07.07h-3.59c-.08,0-.07,0-.07-.09Z"/><path class="cls-7" d="M117.84,2038.05v-1.79c0-.07,0-.09.09-.09h3.15c.07,0,.09,0,.09.08,0,.22,0,.43,0,.65,0,.07,0,.09-.09.09H119c-.08,0-.1,0-.1.11a4.17,4.17,0,0,1,0,.5c0,.07,0,.09.09.09h1.81c.09,0,.1,0,.1.1s0,.42,0,.63,0,.09-.09.09H119c-.08,0-.1,0-.1.11a3.09,3.09,0,0,1,0,.43c0,.08,0,.09.09.09h2.5c.08,0,.11,0,.1.1v.63c0,.06,0,.09-.08.09h-3.58c-.07,0-.07,0-.07-.09Z"/><path class="cls-7" d="M123.75,2036.17h1.9c.08,0,.1,0,.1.09s0,.42,0,.63,0,.1-.11.1h-1.28c-.08,0-.1,0-.1.1,0,.92,0,1.84,0,2.76,0,.08,0,.1-.1.1h-.85c-.08,0-.1,0-.1-.1,0-.91,0-1.83,0-2.74,0-.09,0-.12-.11-.12h-1.28c-.07,0-.1,0-.1-.1s0-.42,0-.64c0-.07,0-.08.1-.08Z"/><path class="cls-8" d="M95.91,2039.16v-.7c0-.06,0-.08.07-.08h1.36c.06,0,.08,0,.08.08v1.4c0,.06,0,.08-.07.07H96c-.06,0-.07,0-.07-.08Z"/><path class="cls-8" d="M93.46,2037H94a.09.09,0,0,1,.07,0l.93,1.12s0,0,0,0h-.43l-.06,0Z"/><path class="cls-8" d="M94.22,2037h.45a.05.05,0,0,1,0,0l0,0,.93,1.11h-.45s0,0-.07-.05Z"/><path class="cls-1" d="M104.26,2037.88h-.75c-.07,0-.09,0-.09-.09q0-.36,0-.72c0-.06,0-.09.09-.09H105l.18,0a.42.42,0,0,1,.34.49.4.4,0,0,1-.43.37Z"/><path class="cls-1" d="M110.38,2038.1a1.08,1.08,0,0,1-1.27,1.09,1.14,1.14,0,0,1-.85-.44,1.23,1.23,0,0,1,.32-1.69,1.33,1.33,0,0,1,1.51.19A1.12,1.12,0,0,1,110.38,2038.1Z"/><path class="cls-1" d="M131.4,2038.09a1.08,1.08,0,0,1,1.09-1.18,1.14,1.14,0,1,1-1.09,1.18Z"/><path class="cls-1" d="M193.29,1990.16H175.13c-.07,0-.09,0-.09-.08q0-10.18,0-20.36c0-.07,0-.09.09-.09h36.33c.07,0,.08,0,.08.09v20.36c0,.07,0,.08-.08.08Zm-13.11-17.61h-1s-.05,0-.07,0l-.9,1.73c-.45.84-.89,1.69-1.34,2.54l-1.53,2.91a.13.13,0,0,0,0,.12l2.64,5,1.11,2.12c0,.06.06.09.13.08.24,0,.48,0,.72,0a.12.12,0,0,0,.13-.08l1.59-3,2.15-4.08a.2.2,0,0,0,0-.21l-2-3.7-.3-.57-.46.87a.14.14,0,0,0,0,.17l1.72,3.28a.09.09,0,0,1,0,.12l-1.14,2.16-1.74,3.33c-.12.21-.24.43-.35.66l-1-1.81-2.28-4.34a.12.12,0,0,1,0-.13l1.19-2.25,1.65-3.14Zm1.59,1.08.06.1c.6,1.14,1.2,2.28,1.79,3.42.46.88.93,1.75,1.39,2.62a.12.12,0,0,1,0,.13l-1.65,3.12-2,3.76-.18.35c.31,0,.61,0,.92,0a.13.13,0,0,0,.13-.09l1.45-2.76,2.31-4.38a.15.15,0,0,0,0-.13l-1.28-2.43-2.48-4.73a.1.1,0,0,0-.1-.07h-.77s-.07,0-.09,0l-.86,1.65-2.9,5.5a.14.14,0,0,0,0,.17l1.83,3.48c.14.27.28.54.43.81.15-.29.3-.58.46-.86a.17.17,0,0,0,0-.19l-1.71-3.26a.09.09,0,0,1,0-.12l2.53-4.82ZM197,1980.3l-.07-.08-1.57-1.76a.14.14,0,0,0-.11-.06h-.64c-.05,0-.07,0-.07.07v2.82s0,.07.07.07h.61c.07,0,.09,0,.09-.09,0-.57,0-1.14,0-1.71,0,0,0-.06,0-.09a.52.52,0,0,0,.1.11c.5.58,1,1.15,1.52,1.72,0,0,.05.06.1.06h.65c.05,0,.07,0,.07-.07q0-1.41,0-2.82c0-.06,0-.07-.07-.07h-.61c-.07,0-.08,0-.08.09v1.81Zm-6.43,1.06,0-.09c-.18-.31-.36-.63-.55-.94,0,0,0-.06,0-.09a1,1,0,0,0,.47-1,.87.87,0,0,0-.51-.69,1.16,1.16,0,0,0-.52-.11h-1.89c-.06,0-.06,0-.06.07v2.81c0,.06,0,.08.07.08h.62c.05,0,.07,0,.07-.07v-.75c0-.08,0-.11.1-.11h.73a.12.12,0,0,1,.13.08c.15.26.3.52.46.78,0,0,0,.07.07.07Zm7.63,0H199s0,0,.05-.06.11-.25.15-.38,0-.07.09-.07h1.36c.05,0,.07,0,.09.07l.15.38a.08.08,0,0,0,.08.06h.81l-1.27-2.9a.1.1,0,0,0-.1-.06h-.87a.12.12,0,0,0-.12.08l-1,2.2C198.4,1980.9,198.3,1981.12,198.2,1981.36Zm-6.93-1.49v1.41s0,.08.06.08h2.45c.05,0,.06,0,.06-.07v-.44c0-.07,0-.08-.08-.08h-1.64c-.07,0-.09,0-.09-.08a3.08,3.08,0,0,0,0-.43c0-.08,0-.1.09-.1h1.41c.08,0,.09,0,.09-.1a2.8,2.8,0,0,1,0-.41c0-.07,0-.08-.09-.08h-1.42c-.06,0-.08,0-.08-.08a2.94,2.94,0,0,0,0-.42c0-.07,0-.1.09-.1h1.61c.06,0,.08,0,.08-.08a3.09,3.09,0,0,1,0-.43c0-.06,0-.08-.08-.08h-2.38c-.06,0-.08,0-.08.08Zm10.93-.38v.88a1.48,1.48,0,0,0,0,.21.87.87,0,0,0,.64.7,2.69,2.69,0,0,0,1.75,0,.84.84,0,0,0,.63-.89v-1.9c0-.06,0-.08-.08-.08h-.58c-.08,0-.11,0-.11.1,0,.61,0,1.21,0,1.82a.33.33,0,0,1-.19.31,1,1,0,0,1-.44.14,1.14,1.14,0,0,1-.68-.13.35.35,0,0,1-.21-.34c0-.61,0-1.22,0-1.82,0-.06,0-.08-.08-.08h-.6c-.07,0-.09,0-.08.08Zm7.47-1.09h-1.44c-.07,0-.09,0-.09.08a2.94,2.94,0,0,1,0,.42c0,.07,0,.09.09.09h1c.07,0,.09,0,.09.08,0,.74,0,1.47,0,2.2,0,.07,0,.09.09.09H210c.07,0,.08,0,.08-.09v-2.19c0-.08,0-.1.1-.1h1c.06,0,.08,0,.07-.08v-.43c0-.07,0-.08-.08-.08Zm-3.6,1.48v1.4s0,.08.06.08h2.32c.05,0,.07,0,.06-.07v-.44c0-.06,0-.08-.08-.08h-1.5c-.08,0-.1,0-.1-.09,0-.73,0-1.47,0-2.2,0-.06,0-.08-.08-.08h-.6c-.07,0-.09,0-.09.09Z"/><path class="cls-9" d="M180.18,1972.55l-1,1.83-1.65,3.14-1.19,2.25a.12.12,0,0,0,0,.13l2.28,4.34,1,1.81c.11-.23.23-.45.35-.66l1.74-3.33,1.14-2.16a.09.09,0,0,0,0-.12l-1.72-3.28a.14.14,0,0,1,0-.17l.46-.87.3.57,2,3.7a.2.2,0,0,1,0,.21l-2.15,4.08-1.59,3a.12.12,0,0,1-.13.08c-.24,0-.48,0-.72,0-.07,0-.1,0-.13-.08l-1.11-2.12-2.64-5a.13.13,0,0,1,0-.12l1.53-2.91c.45-.85.89-1.7,1.34-2.54l.9-1.73s0,0,.07,0Z"/><path class="cls-9" d="M181.77,1973.63l-.7,1.33-2.53,4.82a.09.09,0,0,0,0,.12l1.71,3.26a.17.17,0,0,1,0,.19c-.16.28-.31.57-.46.86-.15-.27-.29-.54-.43-.81l-1.83-3.48a.14.14,0,0,1,0-.17l2.9-5.5.86-1.65s0,0,.09,0h.77a.1.1,0,0,1,.1.07l2.48,4.73,1.28,2.43a.15.15,0,0,1,0,.13l-2.31,4.38-1.45,2.76a.13.13,0,0,1-.13.09c-.31,0-.61,0-.92,0l.18-.35,2-3.76,1.65-3.12a.12.12,0,0,0,0-.13c-.46-.87-.93-1.74-1.39-2.62-.59-1.14-1.19-2.28-1.79-3.42Z"/><path class="cls-9" d="M197,1980.3v-1.81c0-.07,0-.09.08-.09h.61c.05,0,.07,0,.07.07q0,1.41,0,2.82s0,.07-.07.07H197s-.07,0-.1-.06c-.51-.57-1-1.14-1.52-1.72a.52.52,0,0,1-.1-.11s0,.06,0,.09c0,.57,0,1.14,0,1.71,0,.07,0,.09-.09.09h-.61c-.06,0-.07,0-.07-.07v-2.82c0-.06,0-.07.07-.07h.64a.14.14,0,0,1,.11.06l1.57,1.76Z"/><path class="cls-10" d="M190.57,1981.36h-.84s-.06,0-.07-.07c-.16-.26-.31-.52-.46-.78a.12.12,0,0,0-.13-.08h-.73c-.09,0-.11,0-.1.11v.75s0,.07-.07.07h-.62c-.07,0-.07,0-.07-.08v-2.81s0-.07.06-.07h1.89a1.16,1.16,0,0,1,.52.11.87.87,0,0,1,.51.69,1,1,0,0,1-.47,1c-.05,0,0,0,0,.09.19.31.37.63.55.94Zm-1.74-1.51h.49a.26.26,0,0,0,.23-.13.59.59,0,0,0,.07-.37.34.34,0,0,0-.37-.36h-.95c-.05,0-.06,0-.06.06v.73c0,.06,0,.07.07.07Z"/><path class="cls-10" d="M198.2,1981.36c.1-.24.2-.46.3-.68l1-2.2a.12.12,0,0,1,.12-.08h.87a.1.1,0,0,1,.1.06l1.27,2.9H201a.08.08,0,0,1-.08-.06l-.15-.38c0-.05,0-.07-.09-.07h-1.36c-.05,0-.07,0-.09.07s-.1.25-.15.38,0,.06-.05.06Zm2.32-1.1L200,1979l-.51,1.29Z"/><path class="cls-10" d="M191.27,1979.87v-1.39c0-.06,0-.08.08-.08h2.38c.06,0,.08,0,.08.08a3.09,3.09,0,0,0,0,.43c0,.07,0,.08-.08.08h-1.61c-.08,0-.09,0-.09.1a2.94,2.94,0,0,1,0,.42c0,.07,0,.08.08.08h1.42c.07,0,.09,0,.09.08a2.8,2.8,0,0,0,0,.41c0,.08,0,.1-.09.1h-1.41c-.07,0-.09,0-.09.1a3.08,3.08,0,0,1,0,.43c0,.06,0,.08.09.08h1.64c.06,0,.09,0,.08.08v.44s0,.07-.06.07h-2.45c-.07,0-.06,0-.06-.08Z"/><path class="cls-9" d="M202.2,1979.49v-1c0-.07,0-.08.08-.08h.6c.06,0,.08,0,.08.08,0,.6,0,1.21,0,1.82a.35.35,0,0,0,.21.34,1.14,1.14,0,0,0,.68.13,1,1,0,0,0,.44-.14.33.33,0,0,0,.19-.31c0-.61,0-1.21,0-1.82,0-.09,0-.1.11-.1h.58c.07,0,.08,0,.08.08v1.9a.84.84,0,0,1-.63.89,2.69,2.69,0,0,1-1.75,0,.87.87,0,0,1-.64-.7,1.48,1.48,0,0,1,0-.21Z"/><path class="cls-9" d="M209.67,1978.4h1.45c.06,0,.09,0,.08.08v.43c0,.06,0,.08-.07.08h-1c-.08,0-.1,0-.1.1v2.19c0,.07,0,.09-.08.09h-.59c-.07,0-.09,0-.09-.09,0-.73,0-1.46,0-2.2,0-.07,0-.09-.09-.08h-1c-.07,0-.09,0-.09-.09a2.94,2.94,0,0,0,0-.42c0-.07,0-.08.09-.08Z"/><path class="cls-9" d="M206.07,1979.88v-1.39c0-.07,0-.09.09-.09h.6c.06,0,.08,0,.08.08,0,.73,0,1.47,0,2.2,0,.07,0,.09.1.09h1.5c.07,0,.09,0,.08.08v.44s0,.07-.06.07h-2.32c-.06,0-.06,0-.06-.08Z"/><path class="cls-1" d="M188.83,1979.85h-.52c-.05,0-.07,0-.07-.07v-.73s0-.06.06-.06h.95a.34.34,0,0,1,.37.36.59.59,0,0,1-.07.37.26.26,0,0,1-.23.13Z"/><path class="cls-1" d="M200.52,1980.26h-1L200,1979Z"/><path class="cls-11" d="M75.47,15.22h13c5.17,0,8.84,2.86,8.84,7.77a6.37,6.37,0,0,1-3.42,6.1v.17a7.23,7.23,0,0,1,4.53,7.21c0,5.47-3.67,8.62-9.52,8.62H75.47Zm12,12.25c3,0,4.7-1.37,4.7-4.1,0-2.3-1.5-3.71-4.4-3.71H80.42v7.81Zm.64,13.14c3.25,0,5.13-1.7,5.13-4.39s-1.71-4.4-5.13-4.4H80.42v8.79Z"/><path class="cls-11" d="M122,23.07V36.73c0,4.91-3.29,8.71-9.48,8.71S103,41.64,103,36.73V23.07h4.86V36c0,3.07,1.33,5,4.61,5s4.61-1.93,4.61-5V23.07Z"/><rect class="cls-11" x="127.96" y="13.51" width="4.87" height="31.58"/><path class="cls-11" d="M157.32,23.07V36.73c0,4.91-3.28,8.71-9.47,8.71s-9.48-3.8-9.48-8.71V23.07h4.87V36c0,3.07,1.32,5,4.61,5s4.61-1.93,4.61-5V23.07Z"/><path class="cls-11" d="M163.3,23.07h4.31l.38,2.86h.17a7.21,7.21,0,0,1,6.45-3.24c4.91,0,7.94,3,7.94,8V45.09h-4.87V31.91c0-3.08-1.41-4.83-4.48-4.83s-5,2.18-5,5.85V45.09H163.3Z"/><path class="cls-11" d="M187.54,47.48h4.74c.17,1.84,1.79,3.59,4.95,3.59,3.62,0,5.33-2.13,5.33-4.87V42.45h-.17a7.17,7.17,0,0,1-6.32,3c-5.93,0-9.13-4.82-9.17-11.4,0-6.87,3.5-11.39,9.17-11.39a7.14,7.14,0,0,1,6.32,3h.17l.56-2.65h4.31V46.29c0,5.25-4,9-10.2,9-5.77,0-9.56-3.2-9.69-7.77m15.19-13.4c0-3.8-1.58-7.08-5.46-7.08s-5.42,3.24-5.42,7.08,1.41,7.09,5.42,7.09,5.46-3.29,5.46-7.09"/><path class="cls-12" d="M50.92,33.05v2.19a6,6,0,0,1-5.93-5H34.91A5.78,5.78,0,0,1,34,32.51L41.48,40l-1.55,1.55-7.49-7.48a5.78,5.78,0,0,1-2.22.9V45.09A6.05,6.05,0,0,1,35.16,51H33a3.84,3.84,0,0,0-2.74-3.67v11A29.17,29.17,0,0,0,58.31,30.26H47.24a3.84,3.84,0,0,0,3.68,2.79"/><path class="cls-12" d="M40.05,16.75l1.56,1.55L34,25.92a5.93,5.93,0,0,1,.91,2.14H45a6,6,0,0,1,5.92-4.88v2.2a3.84,3.84,0,0,0-3.65,2.68h11A29.16,29.16,0,0,0,30.22,0V11.12A3.84,3.84,0,0,0,33,7.44h2.2a6,6,0,0,1-4.94,5.93v10.1a5.59,5.59,0,0,1,2.21.9Z"/><path class="cls-12" d="M18.42,41.49l-1.56-1.56,7.44-7.44a6,6,0,0,1-.9-2.23H13.27a6,6,0,0,1-5.93,5V33.05A3.84,3.84,0,0,0,11,30.26H0A29.17,29.17,0,0,0,28,58.31v-11A3.82,3.82,0,0,0,25.3,51H23.1A6,6,0,0,1,28,45.1V35a5.69,5.69,0,0,1-2.16-.91Z"/><path class="cls-12" d="M7.34,25.38v-2.2a6,6,0,0,1,5.92,4.88H23.42a5.7,5.7,0,0,1,.89-2.12l-7.57-7.58,1.55-1.55,7.58,7.57a5.56,5.56,0,0,1,2.15-.9V13.37A6,6,0,0,1,23.1,7.44h2.2A3.83,3.83,0,0,0,28,11.11V0A29.18,29.18,0,0,0,0,28.06H11a3.84,3.84,0,0,0-3.65-2.68"/><path class="cls-12" d="M30.84,32.46a3.6,3.6,0,0,0,1.82-2.2,3.58,3.58,0,0,0,.15-1,3.4,3.4,0,0,0-.19-1.16,3.25,3.25,0,0,0-.23-.54A3.65,3.65,0,0,0,30.83,26a3.56,3.56,0,0,0-.61-.25,3.73,3.73,0,0,0-1.06-.16,3.59,3.59,0,0,0-1.14.19,3.35,3.35,0,0,0-.55.23,3.67,3.67,0,0,0-1.56,1.56,4.06,4.06,0,0,0-.22.52,3.66,3.66,0,0,0-.19,1.16,3.58,3.58,0,0,0,.15,1,3.48,3.48,0,0,0,.26.63,3.62,3.62,0,0,0,1.54,1.56,2.87,2.87,0,0,0,.57.24,3.59,3.59,0,0,0,1.14.19,3.54,3.54,0,0,0,1.68-.42"/></g></g></svg>