<svg xmlns="http://www.w3.org/2000/svg" viewBox="0 0 42.94 9.99"><defs><style>.cls-1{fill:#606060;}.cls-2{fill:#434343;}.cls-3{fill:#565656;}.cls-4{fill:#6b6b6b;}.cls-5{fill:#ddd;}.cls-6{fill:#f7f7f7;}.cls-7{fill:#a7a7a7;}.cls-8{fill:#8d8d8d;}.cls-9{fill:#878787;}.cls-10{fill:#777;}.cls-11{fill:#727272;}.cls-12{fill:#efefef;}.cls-13{fill:#919191;}.cls-14{fill:#9f9f9f;}.cls-15{fill:#aaa;}.cls-16{fill:#9d9d9d;}.cls-17{fill:#979797;}.cls-18{fill:#9b9b9b;}.cls-19{fill:#858585;}.cls-20{fill:#888;}.cls-21{fill:#e0e0e0;}.cls-22{fill:#848484;}.cls-23{fill:#929292;}.cls-24{fill:#6d6d6d;}.cls-25{fill:#bdbdbd;}.cls-26{fill:#cecece;}.cls-27{fill:#9a9a9a;}.cls-28{fill:#8f8f8f;}.cls-29{fill:#b0b0b0;}.cls-30{fill:#e7e7e7;}.cls-31{fill:#bebebe;}.cls-32{fill:#adadad;}.cls-33{fill:#cacaca;}.cls-34{fill:#eee;}.cls-35{fill:#dbdbdb;}.cls-36{fill:#acacac;}.cls-37{fill:#ececec;}.cls-38{fill:#757575;}.cls-39{fill:#c9c9c9;}.cls-40{fill:#ababab;}.cls-41{fill:#dfdfdf;}.cls-42{fill:#a6a6a6;}.cls-43{fill:#555;}.cls-44{fill:#d1d1d1;}.cls-45{fill:#aeaeae;}.cls-46{fill:#f2f2f2;}.cls-47{fill:#d8d8d8;}.cls-48{fill:#e4e4e4;}.cls-49{fill:#a1a1a1;}.cls-50{fill:#ebebeb;}.cls-51{fill:#f4f4f4;}.cls-52{fill:#bababa;}.cls-53{fill:#7c7c7c;}.cls-54{fill:#5b5b5b;}.cls-55{fill:#fbfbfb;}.cls-56{fill:#d6d6d6;}.cls-57{fill:#676767;}.cls-58{fill:#c3c3c3;}.cls-59{fill:#7e7e7e;}.cls-60{fill:#8b8b8b;}.cls-61{fill:#9e9e9e;}.cls-62{fill:#535353;}.cls-63{fill:#494949;}.cls-64{fill:#a4a4a4;}.cls-65{fill:#a2a2a2;}.cls-66{fill:#626262;}.cls-67{fill:#969696;}.cls-68{fill:#989898;}.cls-69{fill:#8e8e8e;}.cls-70{fill:#d3d3d3;}.cls-71{fill:#6a6a6a;}.cls-72{fill:#909090;}.cls-73{fill:#868686;}.cls-74{fill:#7d7d7d;}.cls-75{fill:#464646;}.cls-76{fill:#7f7f7f;}.cls-77{fill:#717171;}.cls-78{fill:#9c9c9c;}.cls-79{fill:#7b7b7b;}.cls-80{fill:#c2c2c2;}.cls-81{fill:#595959;}.cls-82{fill:#787878;}.cls-83{fill:#525252;}</style></defs><g id="katman_2" data-name="katman 2"><g id="katman_1-2" data-name="katman 1"><path class="cls-1" d="M39.42,8h.71a4,4,0,0,1,0,.49h-.71c0-.17,0-.33,0-.49ZM42.05,3.9h.89c-.08,1.26-.17,2.52-.26,3.78h-.91c.09-1.26.19-2.52.28-3.78Zm-13.22,0h.9c-.08,1.26-.18,2.52-.26,3.78h-.9l.23-3.34c0-.15,0-.29,0-.43Zm-11,0h2.84c0,.19,0,.37,0,.55a.12.12,0,0,1,0,.08L19.27,6.24a8.68,8.68,0,0,1-.65.7h1.92c0,.24,0,.48-.05.73h-3c0-.17,0-.34,0-.5a.18.18,0,0,1,0-.1L18.41,6c.26-.33.52-.67.81-1,.12-.13.25-.25.36-.39H17.82c0-.24,0-.48.05-.73ZM39,4.21a1.49,1.49,0,0,1,1-.4A2.07,2.07,0,0,1,41,4c-.06.22-.1.43-.16.65a1.68,1.68,0,0,0-.7-.17.6.6,0,0,0-.45.15.34.34,0,0,0-.07.39.71.71,0,0,0,.28.29c.15.11.33.18.49.28a1.73,1.73,0,0,1,.44.37A1.09,1.09,0,0,1,41,7.18a1.27,1.27,0,0,1-.82.53,2.43,2.43,0,0,1-1.31-.1,1.39,1.39,0,0,1-.28-.12c.05-.22.1-.43.16-.64a1.92,1.92,0,0,0,1.1.22.41.41,0,0,0,.35-.29A.51.51,0,0,0,40,6.3,2.36,2.36,0,0,0,39.45,6a1.6,1.6,0,0,1-.62-.59A1,1,0,0,1,39,4.21Zm-2.88.42a1.47,1.47,0,0,0-.67.82,1.85,1.85,0,0,0-.06,1.09.73.73,0,0,0,.32.43.56.56,0,0,0,.56,0,1.12,1.12,0,0,0,.4-.46,2.52,2.52,0,0,0,.24-1l.08-1A1.19,1.19,0,0,0,36.13,4.63ZM35.82,4a2.91,2.91,0,0,1,1.27-.15,3.54,3.54,0,0,1,.85.16c0,.6-.1,1.2-.14,1.8a8,8,0,0,0,0,1.89H37c0-.29,0-.58,0-.87a2.22,2.22,0,0,1-.4.61,1.19,1.19,0,0,1-1.05.33,1.21,1.21,0,0,1-.88-.64,2,2,0,0,1-.21-1.06,2.48,2.48,0,0,1,.43-1.34,2.06,2.06,0,0,1,1-.73Zm-9.32,0a2.4,2.4,0,0,1,1.13-.1,1.55,1.55,0,0,1,.42.12l-.15.7A1.44,1.44,0,0,0,27,4.58a1.18,1.18,0,0,0-.77.64,1.65,1.65,0,0,0-.14,1,.94.94,0,0,0,.3.57A.9.9,0,0,0,27,7a2.21,2.21,0,0,0,.76-.17c.05.23.09.45.12.68a2.47,2.47,0,0,1-.81.2A1.88,1.88,0,0,1,26,7.57a1.5,1.5,0,0,1-.71-.72,2,2,0,0,1-.19-.9,2.15,2.15,0,0,1,.34-1.21,2,2,0,0,1,1-.8Zm-3.71.69a1.49,1.49,0,0,0-.68.84,1.86,1.86,0,0,0-.05,1.07.81.81,0,0,0,.28.42A.63.63,0,0,0,23,7a1.21,1.21,0,0,0,.37-.44,2.39,2.39,0,0,0,.25-.94l.09-1a1.24,1.24,0,0,0-.87.08Zm.32-.8A3.93,3.93,0,0,1,24.6,4c-.06.64-.1,1.28-.15,1.91a8.15,8.15,0,0,0,0,1.78h-.83c0-.29,0-.57,0-.87-.07.11-.11.24-.18.34a1.27,1.27,0,0,1-.71.56,1.24,1.24,0,0,1-.85,0,1.32,1.32,0,0,1-.72-.86,2.46,2.46,0,0,1-.06-1,2.19,2.19,0,0,1,2-2Zm-7.83.26a2.24,2.24,0,0,1,1.16-.28,2.08,2.08,0,0,1,.74.15L17,4.65a1.6,1.6,0,0,0-.92-.07,1.19,1.19,0,0,0-.72.58,1.67,1.67,0,0,0-.15,1.18,1,1,0,0,0,.45.59,1.13,1.13,0,0,0,.68.08,2.14,2.14,0,0,0,.55-.15c0,.2.07.4.11.6,0,0,0,.08,0,.09a2.41,2.41,0,0,1-1.06.2,1.71,1.71,0,0,1-1.11-.39,1.59,1.59,0,0,1-.54-.91A2.37,2.37,0,0,1,14.45,5a2,2,0,0,1,.83-.92ZM11,2.45h2.89c0,.26,0,.52,0,.77h-2c0,.46-.06.91-.1,1.37h1.88c0,.25,0,.5-.05.76H11.65c0,.52-.07,1-.1,1.57h2.1c0,.25,0,.51-.05.76h-3c.13-1.75.25-3.49.38-5.23ZM32.15,4.57a1,1,0,0,0-.62.59,3.07,3.07,0,0,0-.19,1.16.81.81,0,0,0,.16.59.64.64,0,0,0,.65.13,1.12,1.12,0,0,0,.67-.61A2,2,0,0,0,33,5.21a.93.93,0,0,0-.29-.54.62.62,0,0,0-.56-.1ZM30.74,2.18h.91c0,.76-.11,1.51-.15,2.26a1.8,1.8,0,0,1,.26-.3,1.39,1.39,0,0,1,1.36-.24,1.22,1.22,0,0,1,.66.64A2.25,2.25,0,0,1,34,5.76,2.51,2.51,0,0,1,33.5,7a1.93,1.93,0,0,1-.9.67,2.44,2.44,0,0,1-1.17.09,1.31,1.31,0,0,1-.54-.2,1,1,0,0,1-.36-.5,2.37,2.37,0,0,1-.06-.84c.08-1.08.15-2.16.23-3.24,0-.26,0-.52,0-.77Z"/><path class="cls-2" d="M5.27.05A5.58,5.58,0,0,1,7,.09a3.83,3.83,0,0,1,1.18.4,3.14,3.14,0,0,1,.63.45,2.19,2.19,0,0,1,.71,1.44c0-.06,0-.11,0-.17a2.58,2.58,0,0,0-.14-.39,1.3,1.3,0,0,0-.28-.41l-.17-.17s0-.06-.07-.06l0,0s0-.06-.07,0L8.51,1A.91.91,0,0,0,8.35.86.61.61,0,0,0,8.17.65a2.37,2.37,0,0,0-.7-.27,4.57,4.57,0,0,0-1,0c-.37,0-.74.1-1.11.16A2,2,0,0,1,5,.53c-.24,0-.47.08-.71.11a4.9,4.9,0,0,1-.77.07A.69.69,0,0,1,3.25.62,7.16,7.16,0,0,1,5.27.05Z"/><path class="cls-3" d="M5.38.49C5.75.43,6.12.36,6.49.33a5.32,5.32,0,0,1,1,0,2.54,2.54,0,0,1,.71.27.58.58,0,0,1,.17.21C8.17.8,8.06.66,7.89.59A3.27,3.27,0,0,0,7.2.44,7,7,0,0,0,5.43.57c-.24,0-.49.07-.73.09S4,.78,3.62.83a2.08,2.08,0,0,1-.43,0,.82.82,0,0,0-.27,0,2.69,2.69,0,0,0-.38.19.77.77,0,0,1-.19.08A4.56,4.56,0,0,1,3.26.62a.69.69,0,0,0,.31.09A6.48,6.48,0,0,0,4.34.64,5.65,5.65,0,0,1,5,.53l.34,0Z"/><path class="cls-4" d="M5.43.57A7,7,0,0,1,7.2.44a3.27,3.27,0,0,1,.69.15c.17.07.29.22.46.27L8.52,1A3.83,3.83,0,0,0,6.82.6a4.57,4.57,0,0,0-1.1.11l-.17,0a4,4,0,0,0-.84.12A2.45,2.45,0,0,0,4.16,1l-.31.09a5.4,5.4,0,0,1-.57.18c-.3.07-.59.13-.88.22s-.33.13-.49.19a1.92,1.92,0,0,0-.46.27.76.76,0,0,1-.19.12,1.55,1.55,0,0,1,.21-.23,4.75,4.75,0,0,1,.69-.57.8.8,0,0,1,.19-.13.4.4,0,0,0,.18-.07A2.35,2.35,0,0,1,2.92.87a.81.81,0,0,1,.27,0,2,2,0,0,0,.42,0C4,.77,4.33.69,4.69.65A6,6,0,0,0,5.43.57Z"/><path class="cls-5" d="M5.72.71A4.57,4.57,0,0,1,6.82.6,3.83,3.83,0,0,1,8.52,1l.19.12a.08.08,0,0,0,.08.06l0,0a.07.07,0,0,0,.07.06l.17.17v0l-.31-.25A2.51,2.51,0,0,0,8,.82,5.59,5.59,0,0,0,7.33.67s0,0,0,0a4.73,4.73,0,0,0-.52,0c-.37,0-.74.07-1.11.11Z"/><path class="cls-6" d="M5.72.71a10.22,10.22,0,0,1,1.1-.1,4.73,4.73,0,0,1,.53,0s0,0,0,0a9.08,9.08,0,0,0-1.28,0,5.09,5.09,0,0,0-.66.12H5.24L5.33.79,5.55.74l.17,0Z"/><path class="cls-7" d="M6.05.72a7.83,7.83,0,0,1,1.28,0A4.53,4.53,0,0,1,8,.84l-.1,0A4.16,4.16,0,0,0,7.25.74a4.89,4.89,0,0,0-1,0L5.68.83A5.68,5.68,0,0,0,5,1l-.68.23A4.58,4.58,0,0,0,3,2.08a2.52,2.52,0,0,0-.3.35.3.3,0,0,0-.06.11c.12-.07.21-.19.33-.27a4.84,4.84,0,0,1,.46-.33,5.83,5.83,0,0,0,.7-.37A8.23,8.23,0,0,1,5.4,1.11,2.8,2.8,0,0,1,6.16.94l.19,0-.08.18a.86.86,0,0,0-.3.12.51.51,0,0,1-.29.08l-.53,0a1.55,1.55,0,0,0-.53.09A4,4,0,0,0,4,1.83.58.58,0,0,0,3.78,2l.33-.08A2.17,2.17,0,0,1,4,2.17l0,0c-.09.07-.19.11-.28.17a2.68,2.68,0,0,1-.28.18.71.71,0,0,0,.17-.36,1,1,0,0,0-.23.08A3,3,0,0,0,3,2.58a2,2,0,0,0-.64.64c0-.1.08-.19.11-.29a1.31,1.31,0,0,0,.2-.28,1.85,1.85,0,0,0-.4.39c0-.09.1-.16.15-.24a1.79,1.79,0,0,0,.13-.32,1.54,1.54,0,0,1,.36-.36,5.68,5.68,0,0,1,.6-.5c.17-.11.35-.2.52-.3A10.14,10.14,0,0,1,5,.94l.36-.1A5.09,5.09,0,0,1,6.05.72Z"/><path class="cls-8" d="M4.71.86A4,4,0,0,1,5.55.74L5.33.79,5,.87A5.59,5.59,0,0,1,4.16,1,2.59,2.59,0,0,1,4.71.86Z"/><path class="cls-9" d="M6.24.76a4.89,4.89,0,0,1,1,0,3.16,3.16,0,0,0-.32,0,4,4,0,0,0,.5.09A3.05,3.05,0,0,0,8,.92L8,.87,8.22,1A.38.38,0,0,1,8,1c-.27,0-.55-.09-.83-.11a4.12,4.12,0,0,0-.86,0A1.83,1.83,0,0,1,6,.89L6.29.81s0,0,0-.05Z"/><path class="cls-10" d="M9.48,2.21a1.21,1.21,0,0,0,0,.18,2.39,2.39,0,0,1-.07.88,3.65,3.65,0,0,0,0-.66C9.48,2.47,9.48,2.34,9.48,2.21ZM6.93.77l.32,0a4.16,4.16,0,0,1,.69.12H8L8,.93A3.81,3.81,0,0,1,7.44.86,2.71,2.71,0,0,1,6.93.77Z"/><path class="cls-11" d="M5.68.83A5,5,0,0,1,6.24.76l0,.06L6,.9A5.64,5.64,0,0,0,5.35,1a5.22,5.22,0,0,0-2,.86,3.2,3.2,0,0,0-.45.3,3.85,3.85,0,0,1-.3.27.06.06,0,0,0,0,0A1.67,1.67,0,0,1,3,2.08,4.33,4.33,0,0,1,4.3,1.24L5,1A5.68,5.68,0,0,1,5.68.83Z"/><path class="cls-12" d="M5,.87,5.33.79,5.24.85h.15A2,2,0,0,1,5,.94,10.31,10.31,0,0,0,4,1.32H3.92a1.92,1.92,0,0,1,.31-.18C4.48,1,4.73,1,5,.87Z"/><path class="cls-13" d="M6.35.87a4.22,4.22,0,0,1,.87,0c.28,0,.55.07.83.1a.33.33,0,0,0,.17,0,.21.21,0,0,1,.13.1C8.19,1.08,8,1,7.87,1a.91.91,0,0,0-.23,0,.68.68,0,0,1-.22.12l-.06,0a1,1,0,0,1-.44.09A1.17,1.17,0,0,0,7,1,5.78,5.78,0,0,1,7.57,1,3.56,3.56,0,0,0,7,.92a4.72,4.72,0,0,0-.84,0,3.21,3.21,0,0,0-.76.16,7.39,7.39,0,0,0-1.32.47,7.67,7.67,0,0,1-.7.36.43.43,0,0,0,0-.05,5.39,5.39,0,0,1,2-.86C5.57,1,5.79.92,6,.9a1.76,1.76,0,0,0,.33,0Z"/><path class="cls-14" d="M7.94.86l.1,0a2.49,2.49,0,0,1,.73.36c.11.08.2.18.31.26s0,0,0-.05a1.26,1.26,0,0,1,.27.42l-.21-.24A1.12,1.12,0,0,0,9.28,2a2.91,2.91,0,0,1,.21.63,4.93,4.93,0,0,1,0,.67.94.94,0,0,1-.16.42v0a1.94,1.94,0,0,1,0-.24c-.18,0-.31.18-.49.23L8.6,3.7l0-.05a.59.59,0,0,0,.14-.06.8.8,0,0,0,.51-.4,2.62,2.62,0,0,0,0-.79.93.93,0,0,0,0-.29,1.21,1.21,0,0,0-.18-.44,2.17,2.17,0,0,0-.37-.31A3,3,0,0,0,7.87,1c.16,0,.32.06.48,0A.21.21,0,0,0,8.22,1L8,.88l0,0Z"/><path class="cls-15" d="M4.16,1A5.59,5.59,0,0,0,5,.87c-.25.08-.5.16-.75.26a2.55,2.55,0,0,0-.69.32l-.37.16c-.32.14-.69.09-1,.25a5.44,5.44,0,0,0-.5.22c-.16.11-.33.21-.48.33a.64.64,0,0,1-.18.1,1.1,1.1,0,0,1,.2-.23A3.32,3.32,0,0,1,1.7,2a2.61,2.61,0,0,1,.43-.24c.26-.09.52-.16.78-.23a3.42,3.42,0,0,0,.94-.4Z"/><path class="cls-16" d="M6.16.94A5.9,5.9,0,0,1,7,.91a3.79,3.79,0,0,1,.58,0A4.07,4.07,0,0,0,7,1c-.1,0-.2.06-.3.07l-.39,0A1.34,1.34,0,0,1,6.35,1l-.19,0Z"/><path class="cls-17" d="M7.42,1.13A.94.94,0,0,0,7.64,1a.91.91,0,0,1,.23,0,3,3,0,0,1,.81.34H8.59c0,.12.1.2.16.3A2.08,2.08,0,0,1,9,2.18a3.83,3.83,0,0,1,0,.47A.85.85,0,0,1,9,3c-.1.17-.12.38-.24.55l-.14.06a3.85,3.85,0,0,1-.48,0c-.19,0-.38,0-.58,0l0-.12a.23.23,0,0,0,.07-.07h0a.39.39,0,0,0,.4.06,1.11,1.11,0,0,0,.31-.09.51.51,0,0,0,.22-.26,1.52,1.52,0,0,0,.16-.55,1.51,1.51,0,0,0,0-.42,1.1,1.1,0,0,0-.12-.33,1.62,1.62,0,0,0-.27-.41,2.66,2.66,0,0,0-.38-.28.81.81,0,0,0-.46-.05Z"/><path class="cls-18" d="M6.67,1.11c.1,0,.2-.05.3-.07a.65.65,0,0,1,0,.2,1.48,1.48,0,0,0-.51.13,1.73,1.73,0,0,1-.51,0,3.23,3.23,0,0,0-1.24.2.13.13,0,0,0,0,.09l-.43.14a.25.25,0,0,1-.17,0,5.15,5.15,0,0,1,.61-.33,1.55,1.55,0,0,1,.53-.09l.53,0A.51.51,0,0,0,6,1.28a.84.84,0,0,1,.31-.12C6.41,1.13,6.53,1.13,6.67,1.11Z"/><path class="cls-19" d="M3.28,1.26c.2-.05.38-.13.57-.18a3.42,3.42,0,0,1-.94.4c-.26.07-.52.14-.78.23A2.61,2.61,0,0,0,1.7,2a3.32,3.32,0,0,0-.5.33,1.1,1.1,0,0,0-.2.23c-.12.13-.2.29-.31.43a2.77,2.77,0,0,1-.22.29,3.84,3.84,0,0,1,.63-1,1.33,1.33,0,0,1,.16-.17.76.76,0,0,0,.19-.12,1.61,1.61,0,0,1,.46-.26,4.19,4.19,0,0,1,.49-.2,8.7,8.7,0,0,1,.88-.22Z"/><path class="cls-20" d="M8.71,1.1a.07.07,0,0,1,.08,0A.08.08,0,0,1,8.71,1.1Z"/><path class="cls-21" d="M3.54,1.45a2.55,2.55,0,0,1,.69-.32,2,2,0,0,0-.32.18H4c-.17.1-.35.19-.52.3a5.68,5.68,0,0,0-.6.5,1.54,1.54,0,0,0-.36.36c-.13.15-.19.34-.31.49l-.07.1a.94.94,0,0,1,0-.16L2.08,3a.91.91,0,0,0,0-.49,1.35,1.35,0,0,0-.35,0,2.38,2.38,0,0,0-.65.34,1.32,1.32,0,0,0-.45.43c-.06.08-.11.16-.16.24V3.38a2.33,2.33,0,0,1,.31-.5,4.25,4.25,0,0,1,.76-.58A2.82,2.82,0,0,1,2,2.07c.29-.11.61-.09.9-.22a1.64,1.64,0,0,0,.46-.27,1.18,1.18,0,0,0,.18-.13Z"/><path class="cls-22" d="M7.36,1.14l0,0a.84.84,0,0,1,.47.07,1.69,1.69,0,0,1,.38.28,1.39,1.39,0,0,1,.27.41,1.2,1.2,0,0,1,.13.33,1.2,1.2,0,0,1,0,.42,1.47,1.47,0,0,1-.16.54.49.49,0,0,1-.22.27A1,1,0,0,1,8,3.53a.41.41,0,0,1-.4-.06l0-.05a.75.75,0,0,0,.39,0,.74.74,0,0,0,.33-.3,1.21,1.21,0,0,0,.22-.42,1.07,1.07,0,0,0-.06-.59,2.46,2.46,0,0,0-.22-.39,1,1,0,0,0-.43-.39c-.08,0-.18-.06-.24,0L7.54,1.2l-.1.05a.76.76,0,0,0-.08-.11Z"/><path class="cls-13" d="M7.91,2.39a3.4,3.4,0,0,1,0,.45.66.66,0,0,1-.13.4.72.72,0,0,0,.07-.43,1.49,1.49,0,0,0,0-.42Zm-1-1.15a1,1,0,0,0,.45-.1l.08.12s0,.09,0,.14a2.48,2.48,0,0,0-.27,0A.77.77,0,0,1,7,1.5l-.44,0a5.3,5.3,0,0,0-.69,0c-.18,0-.36,0-.53.05a4.39,4.39,0,0,0-.52.13.52.52,0,0,0-.16.06s0-.07,0-.09a3.31,3.31,0,0,1,1.25-.2,2.12,2.12,0,0,0,.5,0,1.48,1.48,0,0,1,.51-.13Z"/><path class="cls-19" d="M7.44,1.26l.1-.06.11.13a1.26,1.26,0,0,1,.19.28c-.15,0-.31.13-.47.07A.83.83,0,0,0,7,1.61l-.28,0a5.3,5.3,0,0,0-.69,0s0,0,0-.06l-.23,0a3.28,3.28,0,0,1,.7,0c.14,0,.29,0,.44,0a1.22,1.22,0,0,0,.26-.06.83.83,0,0,1,.27,0,.53.53,0,0,0,0-.15Z"/><path class="cls-8" d="M8.83,1.18a.09.09,0,0,1,.07.06A.07.07,0,0,1,8.83,1.18Z"/><path class="cls-10" d="M7.65,1.33a.2.2,0,0,1,.25,0,1.12,1.12,0,0,1,.42.39,2.5,2.5,0,0,1,.23.39,1.19,1.19,0,0,1,0,.59,1,1,0,0,1-.21.42.76.76,0,0,1-.34.3.65.65,0,0,1-.39,0l.06-.06A.27.27,0,0,0,8,3.29,1.71,1.71,0,0,0,8.22,3c.08-.11.26-.12.3-.27A.89.89,0,0,0,8.45,2a2.42,2.42,0,0,0-.38-.51.69.69,0,0,0-.2-.13l0,0a.87.87,0,0,1,.21.43A3.59,3.59,0,0,0,7.7,2,1.67,1.67,0,0,0,7,1.6a1,1,0,0,1,.38.08c.16.06.31,0,.47-.07a1.42,1.42,0,0,0-.2-.28Z"/><path class="cls-23" d="M8.59,1.36h.09a1.79,1.79,0,0,1,.37.31,1.09,1.09,0,0,1,.18.43,1,1,0,0,1,0,.3,2.55,2.55,0,0,1,0,.78.78.78,0,0,1-.51.41A5.38,5.38,0,0,0,9,3a.74.74,0,0,0,0-.39,3.83,3.83,0,0,0,0-.47,1.78,1.78,0,0,0-.25-.52.67.67,0,0,1-.16-.3Z"/><path class="cls-24" d="M7.86,1.36a.92.92,0,0,1,.21.13A2.08,2.08,0,0,1,8.44,2a.93.93,0,0,1,.08.75c0,.15-.22.16-.31.27A1.65,1.65,0,0,1,8,3.29a.28.28,0,0,1-.31.07l.1-.12a.64.64,0,0,0,.13-.4,3.15,3.15,0,0,0,0-.44A.8.8,0,0,0,7.69,2L8,1.85a.93.93,0,0,0-.2-.44l0,0Z"/><path class="cls-25" d="M3.18,1.61l.36-.16a1.09,1.09,0,0,1-.17.13,2.87,2.87,0,0,1-.55.22A3.32,3.32,0,0,0,2.05,2a4.9,4.9,0,0,0-.71.39,2.05,2.05,0,0,0-.55.51,2.33,2.33,0,0,0-.31.5,5.7,5.7,0,0,0-.3.78V4.09a4.87,4.87,0,0,1,.23-.74.83.83,0,0,1,.07-.13,3.06,3.06,0,0,0,.21-.29c.11-.14.2-.29.32-.43a.56.56,0,0,0,.17-.09,3.82,3.82,0,0,1,.49-.33,3.81,3.81,0,0,1,.5-.23C2.48,1.7,2.85,1.75,3.18,1.61Z"/><path class="cls-8" d="M5.29,1.52c.18,0,.35,0,.53,0l.22,0,0,.06a5.62,5.62,0,0,0-1.15.25.42.42,0,0,1-.15,0h0c.09-.07.21-.1.24-.22H4.77a4.94,4.94,0,0,1,.52-.13Z"/><path class="cls-26" d="M6.11,6.79a2.35,2.35,0,0,1,.7.08H6.75l-.31,0-.26,0-.07,0Zm-3.29-5a3.71,3.71,0,0,0,.55-.22,1.61,1.61,0,0,1-.46.26C2.62,2,2.3,2,2,2.07l-.46.23a4.77,4.77,0,0,0-.76.58,2.44,2.44,0,0,1,.55-.51A6.1,6.1,0,0,1,2.05,2,2.87,2.87,0,0,1,2.82,1.81Z"/><path class="cls-23" d="M9.13,1.58l.21.25a1.74,1.74,0,0,1,.14.38c0,.14,0,.27,0,.39A2.91,2.91,0,0,0,9.28,2a1.09,1.09,0,0,1-.15-.39Z"/><path class="cls-27" d="M4.61,1.71a.52.52,0,0,1,.16-.06H4.9c0,.11-.15.15-.23.21h0c-.11.06-.22.09-.33.15l-.29.13H4c0-.07,0-.15.08-.23L3.78,2A1.3,1.3,0,0,1,4,1.82a.25.25,0,0,0,.17,0,3.52,3.52,0,0,0,.43-.13Z"/><path class="cls-28" d="M2.94,2.19a2.35,2.35,0,0,1,.45-.3.43.43,0,0,0,0,.05c-.16.1-.31.21-.46.32a4.09,4.09,0,0,1-.33.28.24.24,0,0,1,.06-.11.06.06,0,0,0,0,0C2.75,2.38,2.83,2.28,2.94,2.19Z"/><path class="cls-29" d="M3.48,2.22a.9.9,0,0,1,.23-.08c0,.14-.1.24-.18.36a1.12,1.12,0,0,1-.2.17,4.25,4.25,0,0,0-.93,1h0c-.09,0-.13.1-.18.16a1.11,1.11,0,0,0,0-.19.66.66,0,0,1,.06-.27,1.05,1.05,0,0,1,.17-.29c.14-.2.34-.34.49-.53a3.24,3.24,0,0,1,.53-.35Z"/><path class="cls-30" d="M1.74,2.49a1.37,1.37,0,0,1,.35,0,.82.82,0,0,1,0,.49,2.44,2.44,0,0,0-.22.31c-.12.18-.19.38-.3.56s-.28.46-.41.7l-.07,0A4.14,4.14,0,0,1,1.29,4c.06-.12.14-.25.08-.38s-.14.09-.21.06,0-.15,0-.23S1.07,3.3,1,3.31s-.28.17-.4.27a1.8,1.8,0,0,0-.34.52v0A3.26,3.26,0,0,1,.48,3.5c.06-.08.11-.16.16-.24a1.67,1.67,0,0,1,.45-.43,2.69,2.69,0,0,1,.65-.34Z"/><path class="cls-31" d="M2.2,3c.12-.15.17-.34.3-.49a1.79,1.79,0,0,1-.13.32L2.22,3a1.85,1.85,0,0,1,.4-.39,1.79,1.79,0,0,1-.2.28v0A.64.64,0,0,0,2.28,3c-.12.18-.24.37-.35.56a.49.49,0,0,1,0-.21,2.92,2.92,0,0,0,.14-.31h0Z"/><path class="cls-32" d="M2.31,3.21c.2-.22.35-.51.64-.64-.15.19-.35.33-.49.53a1.22,1.22,0,0,0-.17.29.88.88,0,0,0-.06.27,1.23,1.23,0,0,1,0,.19c0-.06.1-.14.18-.16A2.49,2.49,0,0,1,2.24,4a3.08,3.08,0,0,0-.3,2.08,2.39,2.39,0,0,0,.82,1.33.39.39,0,0,0-.08.1c0,.07,0,.14-.05.21l-.08,0,.08.16v0l-.06,0a5.49,5.49,0,0,1-.5-.69,4.83,4.83,0,0,1-.35-.81,3.54,3.54,0,0,1-.08-.45c0-.27,0-.54,0-.81a1.79,1.79,0,0,1,0-.23,5.63,5.63,0,0,1,.14-.59A4.36,4.36,0,0,1,2.3,3.1l.13-.17-.12.28Z"/><path class="cls-33" d="M7.72,3.14c0-.11.12-.21.17-.33a.79.79,0,0,1-.07.43l-.1.12-.06.06,0,.05h0l0,0a.74.74,0,0,0,.12-.13.47.47,0,0,0,0-.17Z"/><path class="cls-34" d="M2.28,3l.13-.15,0,0-.13.17a4.7,4.7,0,0,0-.54,1.16c-.05.2-.09.4-.14.6,0-.1,0-.2,0-.3l-.06.09A2.48,2.48,0,0,1,1.78,4c0-.13.11-.25.15-.38s.23-.38.35-.57Z"/><path class="cls-35" d="M2.08,3l.08,0a.94.94,0,0,1,0,.16h0a2.08,2.08,0,0,0-.36.59l-.24.48c-.06.14-.1.28-.16.41a2.43,2.43,0,0,1-.14.2l-.08,0a1.62,1.62,0,0,1,0-.2c.12-.23.27-.46.4-.7s.19-.38.3-.55A2.44,2.44,0,0,1,2.08,3Z"/><path class="cls-26" d="M1.75,3.67a2.08,2.08,0,0,1,.36-.59,1.64,1.64,0,0,1-.14.3.85.85,0,0,0,0,.22A3,3,0,0,1,1.78,4a2.47,2.47,0,0,0-.17.66,3.84,3.84,0,0,0-.09.75A4.19,4.19,0,0,0,2,7.23a4.38,4.38,0,0,0,.75.92c-.29-.15-.54-.38-.84-.5a1.12,1.12,0,0,0-.31-.1,2.54,2.54,0,0,0,0,.29,3,3,0,0,1-.68-.38c-.14-.1-.24-.24-.37-.35a1.65,1.65,0,0,1-.27-.38A3,3,0,0,1,.1,6.22,6.48,6.48,0,0,1,0,5.45a2.48,2.48,0,0,0,0,.47c0-.13,0-.26,0-.4s0-.31,0-.46a2.1,2.1,0,0,1,0-.43s0,.07,0,.11,0,.23,0,.34a2.58,2.58,0,0,0,0,.29c0,.13,0,.26,0,.38a3.47,3.47,0,0,0,.06.45.62.62,0,0,0,.12.29,2,2,0,0,0,.22.2.93.93,0,0,0,.27.12L1,6.89c.11,0,.23,0,.35,0a.23.23,0,0,0,.14,0,4.81,4.81,0,0,1-.41-1.4.8.8,0,0,1,.06-.4c0-.11,0-.22.06-.33l.13-.2c.07-.13.11-.28.17-.41l.24-.48Z"/><path class="cls-36" d="M7.58,3.29a1,1,0,0,1,.14-.15.47.47,0,0,1,0,.17l-.13.12a2.76,2.76,0,0,1-.68.36,2.27,2.27,0,0,1,.44-.27.83.83,0,0,0,.26-.23Z"/><path class="cls-37" d="M.56,4c0,.07-.13.07-.16.14a1.71,1.71,0,0,0-.2.7.71.71,0,0,0,0,.25,2.24,2.24,0,0,1,.13.27,1,1,0,0,0,.15.48.46.46,0,0,0,.09-.27,1.34,1.34,0,0,1,0-.35,2,2,0,0,1,.34-.63,1,1,0,0,0,.14-.47.62.62,0,0,1-.27,0C.75,4.08.72,4,.63,4S.57,4,.56,4Zm0-.42c.12-.1.23-.26.4-.27s.11,0,.13.1,0,.16,0,.23.14,0,.21-.06,0,.26-.08.38a4.14,4.14,0,0,0-.21.59h0A.26.26,0,0,0,1,4.7c0,.1-.12.18-.17.29a1.64,1.64,0,0,0-.15.49A3.33,3.33,0,0,1,.57,6C.51,6,.44,6,.41,6a2,2,0,0,1-.14-.54C.23,5.28.12,5.16.14,5a5.29,5.29,0,0,0,0-.56L.28,4.1a1.58,1.58,0,0,1,.33-.52Z"/><path class="cls-38" d="M7.23,3.52c.13-.07.23-.15.35-.23a.7.7,0,0,1-.26.22,4,4,0,0,0-.44.27l-.12.05C6.5,3.88,6.24,4,6,4c-.49.1-1,.17-1.47.25a1.53,1.53,0,0,0-.29.07c-.2,0-.38.09-.58.12A2.3,2.3,0,0,1,4,4.31c.42-.11.85-.16,1.28-.23a10.64,10.64,0,0,0,1.38-.32A2.81,2.81,0,0,0,7.23,3.52Z"/><path class="cls-39" d="M.18,4.16a6.43,6.43,0,0,1,.29-.77V3.5a3.26,3.26,0,0,0-.22.62,3.38,3.38,0,0,0-.18.62.34.34,0,0,1,0-.1.88.88,0,0,1,0-.17,2.34,2.34,0,0,1,.09-.38v.07Z"/><path class="cls-40" d="M8.83,3.64c.18-.05.31-.2.49-.23a1.94,1.94,0,0,0,0,.24A1.67,1.67,0,0,1,9,4.11a2.46,2.46,0,0,1-.38.41c-.15,0-.29.07-.44.09s-.29.07-.44.09a2,2,0,0,0-.55.12,1.68,1.68,0,0,0-.42.27c-.11.1-.18.24-.31.31A1.83,1.83,0,0,1,6,5.55l.26-.12c.12,0,.18-.15.26-.25a1.51,1.51,0,0,1,.4-.35,4.34,4.34,0,0,1,.53-.26,2.6,2.6,0,0,0,.36-.21A1.26,1.26,0,0,0,8.26,4L8.1,3.88l.07-.11A1.29,1.29,0,0,0,8.6,3.7l.23-.06Z"/><path class="cls-41" d="M8,8.57l.18-.14a1.06,1.06,0,0,1-.29.27,1.54,1.54,0,0,1-.5.24l0,0H7.39A2.11,2.11,0,0,0,8,8.57ZM6.88,3.78a2.44,2.44,0,0,0,.68-.35l0,0a.23.23,0,0,1-.07.07l-.13.09-.21.13.06,0,.3.07A2.7,2.7,0,0,1,7,4c-.18.05-.34.14-.51.2-.39.14-.77.31-1.17.41A1.18,1.18,0,0,0,5,4.77a4.19,4.19,0,0,0-.76.39c-.14.1-.17.29-.28.42s-.15.18-.1.28a1.75,1.75,0,0,0,.24.23.27.27,0,0,0,.28.11.32.32,0,0,0,.08-.12l0,0a2.39,2.39,0,0,0,.62.39H5l-.14-.07-.3-.14c-.15,0-.3,0-.44-.09a1,1,0,0,0-.49-.12c-.07,0-.1.08-.13.13A1.08,1.08,0,0,1,3,5.73.84.84,0,0,1,3,5.24a1,1,0,0,0,0,.24,3.78,3.78,0,0,0,.17-.35,1.76,1.76,0,0,1,.64-.6c.88-.34,1.84-.31,2.74-.57a1.57,1.57,0,0,0,.3-.12H6.76l.12-.05Z"/><path class="cls-42" d="M7.39,3.61l.13-.09,0,.12c.2,0,.39,0,.58,0a3.85,3.85,0,0,0,.48,0,.11.11,0,0,1,0,.05,1.07,1.07,0,0,1-.43.06L8,3.74c-.14,0-.29,0-.44,0s-.09-.06-.13-.1Z"/><path class="cls-31" d="M7.18,3.74a1.37,1.37,0,0,1,.2-.13s.08.1.15.1.29,0,.44,0L8,3.81A1.46,1.46,0,0,0,7.8,4c0,.05.14.09.13.17a1.33,1.33,0,0,1-.47.25c-.15.06-.28.16-.44.21a5.65,5.65,0,0,0-.67.29A1.32,1.32,0,0,0,6,5.08a1.12,1.12,0,0,0-.21.37c0,.09-.16.11-.24.14a3.85,3.85,0,0,1-.82.11.56.56,0,0,0-.31.09c-.05,0-.07.09-.1.14a.83.83,0,0,0,.21-.06s0,.08,0,.11l0,0V5.91a.53.53,0,0,0-.19.23s-.1,0-.13-.07A.55.55,0,0,1,4,5.82s0-.08.06-.11.33-.15.48-.26.1-.17.17-.25A1,1,0,0,1,5.11,5l.36-.14.47-.17c.19-.07.39-.1.59-.16L7,4.33a.44.44,0,0,0,.16-.1.66.66,0,0,0,0-.14c.17-.12.39-.15.56-.27a1.14,1.14,0,0,0-.45-.06l-.05,0Z"/><path class="cls-43" d="M9.3,3.65v0a.59.59,0,0,1-.09.2,3,3,0,0,1-.49.63,4.61,4.61,0,0,1-2,1,11.15,11.15,0,0,1-1.61.31l-.44.09a.36.36,0,0,0-.22.16v0s0-.07,0-.1V6l0,0a1,1,0,0,1,.29-.1c.17,0,.33-.1.5-.12s.59-.09.88-.15a4.05,4.05,0,0,0,.5-.12,3.66,3.66,0,0,0,.43-.15,2.83,2.83,0,0,0,.57-.23A1.69,1.69,0,0,0,8,5a2.49,2.49,0,0,0,.6-.42v0A3,3,0,0,0,9,4.1a1.48,1.48,0,0,0,.28-.45Z"/><path class="cls-29" d="M8,3.74l.2,0-.07.11L8.27,4a1.42,1.42,0,0,1-.49.35,2.71,2.71,0,0,1-.37.21c-.18.07-.35.17-.53.26a1.68,1.68,0,0,0-.4.35.6.6,0,0,1-.25.25L6,5.55l-.53.13a3.94,3.94,0,0,0-.7.14A.43.43,0,0,0,4.55,6l0,0a.49.49,0,0,0,0-.11l-.21.06c0-.06,0-.12.11-.15a.66.66,0,0,1,.31-.09,3.67,3.67,0,0,0,.81-.11c.09,0,.2,0,.25-.14s.09-.27.2-.37a2.11,2.11,0,0,1,.33-.18A6.61,6.61,0,0,1,7,4.61c.15-.05.29-.14.44-.2a1.45,1.45,0,0,0,.47-.26C8,4.07,7.85,4,7.81,4A.91.91,0,0,1,8,3.82L8,3.74Z"/><path class="cls-44" d="M7.24,3.77a1.07,1.07,0,0,1,.44.06C7.51,4,7.3,4,7.13,4.1a.71.71,0,0,1,0,.14.54.54,0,0,1-.16.1l-.43.15c-.19.06-.39.09-.58.16l-.47.17L5.11,5a1.15,1.15,0,0,0-.37.25c-.06.08-.08.19-.16.25s-.35.14-.49.26S4,5.79,4,5.83a.82.82,0,0,0,.12.25s.09,0,.14.07a.52.52,0,0,1,.18-.23s0,.07,0,.1,0,.07,0,.11l0,0-.08.13a.3.3,0,0,1-.29-.12C4,6,3.91,6,3.85,5.86s0-.19.1-.27.14-.32.28-.43A4.45,4.45,0,0,1,5,4.77a1.86,1.86,0,0,1,.37-.14c.41-.1.79-.27,1.18-.4A5.21,5.21,0,0,1,7,4a4.45,4.45,0,0,0,.51-.19l-.3-.07Z"/><path class="cls-45" d="M.32,7.25a2.3,2.3,0,0,0,.34.28c.14.1.23.26.39.34s.21.09.31.15.27.19.41.27A.32.32,0,0,0,2,8.36c0-.08,0-.2.1-.28a.35.35,0,0,1,.2,0,8.77,8.77,0,0,0,1,.39l.15.09a1.28,1.28,0,0,1-.43-.1,1.75,1.75,0,0,0-.64-.14,1.64,1.64,0,0,0,0,.22l-.19,0c-.25-.12-.48-.27-.73-.4A2.7,2.7,0,0,1,1,8C.9,7.86.8,7.72.67,7.62L.46,7.48v0a.92.92,0,0,1-.14-.28ZM6,4c.26,0,.52-.11.78-.16A1.93,1.93,0,0,1,6.35,4c-.58.13-1.16.21-1.75.31l-.38,0c.1,0,.19,0,.29-.06C5,4.17,5.49,4.09,6,4Z"/><path class="cls-6" d="M6.75,6.88h.06l.18,0a.58.58,0,0,1,.31.22c-.14-.06-.25-.16-.39-.21Zm0-3h.09a1.57,1.57,0,0,1-.3.12c-.9.26-1.86.23-2.74.57A1.32,1.32,0,0,0,3.16,5L3,5.16V5a1,1,0,0,1,.54-.5,5.06,5.06,0,0,1,.66-.21l.38,0c.58-.1,1.17-.18,1.74-.31a1.93,1.93,0,0,0,.41-.12Z"/><path class="cls-46" d="M.56,4s0-.06.06,0,.12.14.19.19a.5.5,0,0,0,.27,0,.87.87,0,0,1-.15.47,2.16,2.16,0,0,0-.33.64,1.34,1.34,0,0,0,0,.35.43.43,0,0,1-.09.26.88.88,0,0,1-.15-.48c0-.1-.1-.17-.13-.27a.65.65,0,0,1,0-.24,1.71,1.71,0,0,1,.2-.71C.43,4.07.52,4.07.56,4Z"/><path class="cls-47" d="M.08,4.74a2.74,2.74,0,0,1,.18-.62h0c0,.12-.05.24-.08.36A3.32,3.32,0,0,0,.1,5a.81.81,0,0,0,0,.31c.06.18.06.37.11.55a.89.89,0,0,0,.16.34.24.24,0,0,0,.26.08.92.92,0,0,0,.08-.47,2.17,2.17,0,0,1,.07-.57C.9,5,1,4.81,1.07,4.57v0l.07,0a1.23,1.23,0,0,0,0,.2l.08,0c0,.11,0,.22-.06.33a1.11,1.11,0,0,0-.06.4,5.15,5.15,0,0,0,.42,1.4.2.2,0,0,1-.15,0c-.11,0-.24,0-.35,0L.79,6.81A.9.9,0,0,1,.52,6.7a2,2,0,0,1-.21-.2.55.55,0,0,1-.13-.29,3.47,3.47,0,0,1-.06-.45c0-.13,0-.25,0-.38a1.45,1.45,0,0,1,0-.29c0-.12,0-.23,0-.35Z"/><path class="cls-18" d="M3.64,4.43c.2,0,.38-.11.58-.12-.22.07-.44.11-.65.2A1,1,0,0,0,3,5,.81.81,0,0,0,3,5.23.91.91,0,0,0,3,5.72a1.17,1.17,0,0,0,.5.51l.25.12a2.19,2.19,0,0,0,.76.15,3.93,3.93,0,0,0,.49,0H5.1c-.2-.14-.45-.2-.61-.39v0a1.11,1.11,0,0,0,.55.35,1,1,0,0,1,.27.13h0a8,8,0,0,1-.85,0,2.12,2.12,0,0,1-1-.33A2.23,2.23,0,0,1,3.19,6,2.15,2.15,0,0,1,3,5.79a.06.06,0,0,1,0,0,.85.85,0,0,1-.12-.41,1,1,0,0,1,.41-.81,1.06,1.06,0,0,1,.33-.18Z"/><path class="cls-48" d="M.1,5a3.44,3.44,0,0,1,.09-.56A5.29,5.29,0,0,1,.14,5c0,.15.09.26.12.39A2,2,0,0,0,.41,6S.51,6,.56,6a2.52,2.52,0,0,0,.08-.54A1.38,1.38,0,0,1,.78,5c0-.1.12-.19.17-.29a.33.33,0,0,1,.12-.14,5.69,5.69,0,0,1-.25.69,1.81,1.81,0,0,0-.06.57,1,1,0,0,1-.08.47.25.25,0,0,1-.27-.08.81.81,0,0,1-.15-.34C.2,5.69.21,5.5.15,5.32A.76.76,0,0,1,.1,5Z"/><path class="cls-49" d="M8.2,4.61a3.26,3.26,0,0,1,.45-.09h0l-.06,0a3.08,3.08,0,0,0-1,.48c-.12.1-.25.17-.37.27a3.73,3.73,0,0,1-.44.14c-.43.06-.85.18-1.28.22L6,5.55a1.55,1.55,0,0,0,.51-.14c.14-.07.2-.21.31-.31a1.63,1.63,0,0,1,.43-.27,1.71,1.71,0,0,1,.54-.13c.15,0,.29-.07.44-.09Z"/><path class="cls-50" d="M3.16,5a1.32,1.32,0,0,1,.65-.49,1.76,1.76,0,0,0-.64.6c-.06.11-.1.24-.17.35a.69.69,0,0,1,0-.25A.94.94,0,0,1,3,5v.15L3.16,5Z"/><path class="cls-22" d="M8.57,4.56l.06,0A2.09,2.09,0,0,1,8,5a1.64,1.64,0,0,1-.3.14,1.55,1.55,0,0,1,.33-.21c.16-.1.34-.2.51-.32Z"/><path class="cls-51" d="M1.61,4.65l0-.1a1.53,1.53,0,0,0,0,.3,1.79,1.79,0,0,0,0,.23,2.21,2.21,0,0,0,0,.81c0,.15.05.3.08.45a3,3,0,0,0,.64,1.29,1,1,0,0,0,.21.21l.06,0a.61.61,0,0,0,.13.16,5.09,5.09,0,0,0,.64.48,2.64,2.64,0,0,0,.38.18,2,2,0,0,0,.4.16,4.27,4.27,0,0,0,1.46.3,4.32,4.32,0,0,0,1.29-.12A3,3,0,0,0,7.4,8.9h.06l0,0L7.28,9,7,9.09a3.7,3.7,0,0,1-.48.09A5.13,5.13,0,0,1,4.23,9L4,8.88l-.1,0-.11,0-.24-.11,0,0-.08-.05-.07,0-.15-.09c-.15-.09-.28-.2-.42-.3l0,0A3.92,3.92,0,0,1,2,7.22a4.14,4.14,0,0,1-.47-1.83,3.65,3.65,0,0,1,.09-.74Z"/><path class="cls-27" d="M7.53,5.05a2.9,2.9,0,0,1,1-.48l-.52.31a2.3,2.3,0,0,0-.33.21,3.88,3.88,0,0,1-.56.23c.12-.1.25-.18.37-.27Z"/><path class="cls-35" d="M1.63,5.89a2.45,2.45,0,0,1,0-.81C1.59,5.35,1.62,5.62,1.63,5.89Z"/><path class="cls-52" d="M0,5.92a3.53,3.53,0,0,1,0-.46,4.88,4.88,0,0,0,.07.76,2.73,2.73,0,0,0,.14.51,1,1,0,0,0,.25.48l.21.2A3.17,3.17,0,0,0,1.41,8a1.24,1.24,0,0,0,.3.16,2.67,2.67,0,0,1,0-.4A1.22,1.22,0,0,1,2.35,8a1.57,1.57,0,0,0,.45.22c.14.1.27.21.42.3a10.09,10.09,0,0,1-1-.38.38.38,0,0,0-.21,0c-.07.07,0,.19-.1.27a.42.42,0,0,1-.19-.06c-.14-.09-.27-.19-.41-.27a1.73,1.73,0,0,0-.3-.16C.89,7.79.8,7.64.65,7.54S.43,7.35.32,7.25A1.17,1.17,0,0,1,.22,7,4.92,4.92,0,0,1,0,5.92Z"/><path class="cls-53" d="M5.44,5.68c.43,0,.85-.16,1.28-.22a2.15,2.15,0,0,1-.5.12,8.5,8.5,0,0,1-.88.15c-.17,0-.33.09-.49.13a.76.76,0,0,0-.3.1.62.62,0,0,1,.19-.14,3.94,3.94,0,0,1,.7-.14Z"/><path class="cls-54" d="M7,6.86l.15-.07a2.64,2.64,0,0,1,.4.12h0L7.61,7c0,.2-.07.41-.1.62s-.06.27-.08.41-.07.3-.08.46,0,.22-.11.27a3.73,3.73,0,0,0-.35.16c-.15.06-.31.06-.47.11H6.35L6.2,9a1.11,1.11,0,0,1,.25,0,1.8,1.8,0,0,0,.4-.1c.06,0,.06-.09.07-.14,0-.27.1-.53.14-.79,0-.11,0-.22.05-.34h0l.06,0a1,1,0,0,0,.15-.2.34.34,0,0,0,0-.22A.65.65,0,0,0,7,6.92l0-.06ZM3,5.79A2.15,2.15,0,0,0,3.19,6a1.43,1.43,0,0,0,.24.19,2.12,2.12,0,0,0,1,.33,8,8,0,0,0,.85,0,.43.43,0,0,1-.16,0,3.16,3.16,0,0,1-1.06-.09A1.54,1.54,0,0,1,3.16,6,.6.6,0,0,1,3,5.83v0Z"/><path class="cls-37" d="M3.53,6.23c0-.05.05-.13.12-.14a1.09,1.09,0,0,1,.5.13c.14,0,.29,0,.43.09a1.73,1.73,0,0,1,.31.14,4.68,4.68,0,0,0-.54-.1c-.14,0-.27-.08-.41-.11a.41.41,0,0,0-.22,0l.06.09A1.15,1.15,0,0,1,3.53,6.23Z"/><path class="cls-55" d="M3.72,6.27a.41.41,0,0,1,.22,0c.14,0,.27.1.41.12a4.68,4.68,0,0,1,.54.09L5,6.52a4,4,0,0,1-.49,0,2.19,2.19,0,0,1-.76-.15l-.06-.09Z"/><path class="cls-56" d="M1.71,6.34a5.77,5.77,0,0,0,.34.81,6.82,6.82,0,0,0,.51.69,1.1,1.1,0,0,1-.21-.22,2.92,2.92,0,0,1-.64-1.28Z"/><path class="cls-57" d="M6,6.75l.13,0a3.85,3.85,0,0,1,1,.07L7,6.86l0,.06-.18,0a2,2,0,0,0-.69-.08H6v0Z"/><path class="cls-58" d="M.24,6.73a1.31,1.31,0,0,0,.27.38,4,4,0,0,0,.37.35,3,3,0,0,0,.68.38,2.89,2.89,0,0,1,0-.29l.31.1c.3.13.55.35.84.5l0,0A1.67,1.67,0,0,1,2.36,8a1.38,1.38,0,0,0-.64-.26,2.81,2.81,0,0,0,0,.41A1.34,1.34,0,0,1,1.41,8,3.1,3.1,0,0,1,.7,7.41L.5,7.22a1,1,0,0,1-.26-.49Z"/><path class="cls-59" d="M6,6.8h.1l.07,0a3.23,3.23,0,0,0,.66.29.64.64,0,0,1,.26.49h0l-.06,0a.42.42,0,0,0-.18-.39A2.15,2.15,0,0,0,6.38,7,1.52,1.52,0,0,1,6,6.8Z"/><path class="cls-60" d="M6.19,6.82l.26,0a.69.69,0,0,1,.3.17.47.47,0,0,1,.1.1A3.23,3.23,0,0,1,6.19,6.82Z"/><path class="cls-61" d="M6.45,6.84l.31,0a.74.74,0,0,1,.2.23l.18.26a.3.3,0,0,1,0,.19l0,0a.68.68,0,0,0-.27-.49L6.76,7A.79.79,0,0,0,6.45,6.84Z"/><path class="cls-15" d="M6.75,6.88l.17,0a1.56,1.56,0,0,1,.17.25.8.8,0,0,0,.23.18.62.62,0,0,1-.16.2.3.3,0,0,0,0-.19c0-.09-.12-.17-.17-.26a.66.66,0,0,0-.21-.23Z"/><path class="cls-62" d="M7.46,6.91h0A1.62,1.62,0,0,1,8,7.13h0A.37.37,0,0,1,8,7.3c0,.21-.09.41-.1.63s-.07.29-.08.44a1,1,0,0,1-.09.27c.14-.07.27-.15.42-.21a1.73,1.73,0,0,1-.51.29,4.48,4.48,0,0,1-.71.22c.11-.07.23-.1.34-.16s.11-.17.12-.26.06-.32.08-.47.05-.27.08-.41.06-.41.1-.62l-.15-.11Z"/><path class="cls-25" d="M6.92,6.93c.14.05.24.15.38.21a.34.34,0,0,1,0,.22.8.8,0,0,1-.23-.18,1.56,1.56,0,0,0-.17-.25Z"/><path class="cls-63" d="M8,7.12H8a.92.92,0,0,1,.51.9,1.7,1.7,0,0,1-.27.33l-.1.07-.42.21a.72.72,0,0,0,.09-.27,3.39,3.39,0,0,0,.08-.44A6.37,6.37,0,0,1,8,7.3a.55.55,0,0,0,0-.18Z"/><path class="cls-64" d="M2.68,7.48a.39.39,0,0,1,.08-.1,3.17,3.17,0,0,0,.54.36A1.08,1.08,0,0,0,3,8c0,.07,0,.14.1.18a2,2,0,0,0,.56.34,2.62,2.62,0,0,1,.58.29H4.2c-.2-.11-.41-.17-.61-.27a3.23,3.23,0,0,1-.67-.44c-.1-.08-.18-.18-.29-.26a1.09,1.09,0,0,1-.08-.15l.08,0A1.6,1.6,0,0,1,2.68,7.48Z"/><path class="cls-65" d="M.45,7.49a1.64,1.64,0,0,1,.22.14c.13.1.22.23.35.33a2.16,2.16,0,0,0,.34.17c.25.12.48.28.73.4l.18,0,0-.22a2,2,0,0,1,.64.14,1.28,1.28,0,0,0,.43.1l.07,0c-.29.08-.58-.09-.87-.08a2.62,2.62,0,0,1,0,.28,7.55,7.55,0,0,1-1-.52,1.35,1.35,0,0,0-.36-.18A.53.53,0,0,1,1,8a.93.93,0,0,0-.41-.29v0a.63.63,0,0,1-.12-.21s0,0,0,0Z"/><path class="cls-66" d="M7.05,7.65l.06,0c0,.12,0,.23-.05.34,0,.26-.11.53-.14.79,0,0,0,.12-.07.14a1.67,1.67,0,0,1-.4.1.66.66,0,0,0,.11-.36c0-.24.09-.47.12-.71l-.11,0a4.16,4.16,0,0,0,.48-.22Z"/><path class="cls-67" d="M.58,7.71A1,1,0,0,1,1,8a.62.62,0,0,0,.26.12,1.81,1.81,0,0,1,.37.18,6.47,6.47,0,0,0,1,.53V8.54c.29,0,.57.16.86.08l.09.05a1.23,1.23,0,0,1-.38,0,2,2,0,0,0-.35,0l.06.3a1.63,1.63,0,0,1-.45-.2l-.2-.12-.75-.45a.88.88,0,0,0-.22-.1A.49.49,0,0,1,1,8.06a.65.65,0,0,0-.3-.18v0a1.08,1.08,0,0,1-.11-.18,0,0,0,0,1,0,0Z"/><path class="cls-68" d="M3,8a1.08,1.08,0,0,1,.26-.3l.48.2a.5.5,0,0,0-.11.26c0,.12-.06.25,0,.36a2.33,2.33,0,0,1-.56-.34S3,8.11,3,8Z"/><path class="cls-69" d="M.68,7.89a.56.56,0,0,1,.3.17.5.5,0,0,0,.26.11.88.88,0,0,1,.22.1l.75.44v.08c-.32-.16-.64-.32-.95-.5a.5.5,0,0,0-.34,0h0C.83,8.14.74,8,.68,7.93v0Z"/><path class="cls-70" d="M2.61,7.88l0,0,.29.25a3.23,3.23,0,0,0,.67.44c.2.1.41.16.6.27h0a2,2,0,0,1-.4-.16c-.13-.06-.26-.11-.38-.18a5.09,5.09,0,0,1-.64-.48.75.75,0,0,1-.14-.17Z"/><path class="cls-71" d="M6.21,8l.36-.11.11,0c0,.24-.09.47-.12.71A.64.64,0,0,1,6.45,9,1.14,1.14,0,0,0,6.2,9l.15,0-.24,0-.33,0L6.06,9a2.23,2.23,0,0,0,.08-.45A1.54,1.54,0,0,0,6.21,8Z"/><path class="cls-72" d="M3.67,8.2a.48.48,0,0,1,.12-.26,4.6,4.6,0,0,0,.5.13h0a.59.59,0,0,1,.06.14c0,.16-.09.3-.09.46s0,.08.09.11A1.85,1.85,0,0,0,4.67,9L5,9h0l0,0a2.41,2.41,0,0,1-.75-.22,2.62,2.62,0,0,0-.58-.29c-.09-.12,0-.25,0-.37Z"/><path class="cls-11" d="M5.4,8.12A5.27,5.27,0,0,0,6.21,8a1.54,1.54,0,0,1-.07.56A2.14,2.14,0,0,1,6.06,9c-.09,0-.19,0-.28.08l.32,0a5.91,5.91,0,0,1-1,0H5V9a.67.67,0,0,0,.25,0,.83.83,0,0,0,.13-.51C5.42,8.34,5.48,8.21,5.4,8.12Z"/><path class="cls-8" d="M8.21,8.36A1.7,1.7,0,0,0,8.48,8a.78.78,0,0,1,0,.21V8.19a2,2,0,0,1-.21.28,3.53,3.53,0,0,1-.57.45,1.37,1.37,0,0,0-.41.42.3.3,0,0,1-.14.11A3,3,0,0,1,7.28,9l.14-.06a1.49,1.49,0,0,0,.49-.24.84.84,0,0,0,.29-.27V8.36Z"/><path class="cls-73" d="M4.24,8.07h0c.15,0,.29,0,.43.06a.7.7,0,0,0,.25,0,2.67,2.67,0,0,0-.15.62c0,.1-.13.08-.2.1l0,.06a1.81,1.81,0,0,1-.37-.18s-.09-.06-.08-.11.09-.31.08-.47a.35.35,0,0,0,0-.13Z"/><path class="cls-74" d="M4.72,8.14c.23,0,.46,0,.68,0s0,.22,0,.33A.83.83,0,0,1,5.28,9,1,1,0,0,1,5,9V9A2.45,2.45,0,0,1,4.66,9l0-.06c.07,0,.19,0,.2-.1A2.67,2.67,0,0,1,5,8.18a.69.69,0,0,1-.25,0Z"/><path class="cls-75" d="M5.19,9.5a.5.5,0,0,1,.41.09.9.9,0,0,1-.3.28l0,0a2,2,0,0,0,.35,0,5,5,0,0,1-1.61,0,.73.73,0,0,0,.25-.08c.06-.09,0-.2.09-.29a.42.42,0,0,1,.15,0c.21,0,.43,0,.64,0Zm3-1a2,2,0,0,0,.21-.28v.05A1.82,1.82,0,0,1,8,8.9a3.37,3.37,0,0,1-.65.47.38.38,0,0,1,.09-.18,2.23,2.23,0,0,0,.26-.27,3.94,3.94,0,0,0,.56-.45Z"/><path class="cls-76" d="M8.11,8.43l.1-.07s0,0,0,.07L8,8.57c-.18.08-.35.18-.53.24A5.87,5.87,0,0,1,6.67,9H6.42a4,4,0,0,0,.47-.11,4.48,4.48,0,0,0,.71-.22A1.73,1.73,0,0,0,8.11,8.43ZM.92,8.25a.5.5,0,0,1,.34,0c.31.18.63.34,1,.5L3,9.16a7.13,7.13,0,0,1-.78-.26,2.78,2.78,0,0,1-.63-.29,2.23,2.23,0,0,0-.45-.25l0,.08A1.33,1.33,0,0,1,.92,8.25Z"/><path class="cls-77" d="M1.09,8.36a1.66,1.66,0,0,1,.45.25,3.69,3.69,0,0,0,.64.29A7.66,7.66,0,0,0,3,9.15l.16.06.19,0a1.64,1.64,0,0,1,0-.32,3.43,3.43,0,0,0,.45-.16l.11.05A2,2,0,0,0,3.46,9a.51.51,0,0,0,0,.3,2,2,0,0,1-.55-.07l-.31-.07c-.11,0-.22,0-.33,0a1,1,0,0,0-.17,0A.29.29,0,0,0,2,9.22a4.76,4.76,0,0,1-.95-.78l0-.08Z"/><path class="cls-78" d="M7.49,8.81c.18-.06.35-.16.53-.24a2.46,2.46,0,0,1-.62.33,3,3,0,0,1-.48.15c-.22,0-.44.07-.65.08A4,4,0,0,1,5,9.07l0,0a5.91,5.91,0,0,0,1,0l.24,0h.08a1.1,1.1,0,0,0,.25,0,4.73,4.73,0,0,0,.82-.22Z"/><path class="cls-20" d="M3.15,8.71a1.23,1.23,0,0,0,.38,0l.05,0a2.76,2.76,0,0,1-.51.16c0,.12.08.24,0,.36L3,9.15c-.25-.11-.49-.23-.73-.36V8.71l.21.12a1.46,1.46,0,0,0,.44.2l-.06-.3a2,2,0,0,1,.35,0Z"/><path class="cls-79" d="M3.07,8.85c.17-.07.36,0,.51-.16l.12.06a3.43,3.43,0,0,1-.45.16,1.64,1.64,0,0,0,0,.32.65.65,0,0,1-.19,0C3.15,9.09,3,9,3.07,8.85Z"/><path class="cls-71" d="M3.46,9a2,2,0,0,1,.35-.19l.11,0,0,0A.37.37,0,0,1,3.82,9c0,.08-.12.12-.16.21l-.06.19a4,4,0,0,0-.49,0c-.12.05-.19.18-.26.28A4.66,4.66,0,0,1,2,9.21s.06-.08.11-.11l.17,0c.11,0,.22,0,.34,0l.3.07a2,2,0,0,0,.55.07.76.76,0,0,1,0-.3Z"/><path class="cls-66" d="M3.88,8.87l0,0,.1,0S4,9,4.05,9a2,2,0,0,0,.31.19c-.17.05-.38,0-.52.14a.32.32,0,0,1-.17.11c-.12,0-.25,0-.36.06l.1.19-.09.06v0l-.46-.16c.07-.1.13-.23.25-.28a4.21,4.21,0,0,1,.5,0l.06-.2c0-.08.12-.13.16-.2l.06-.12Z"/><path class="cls-80" d="M4.19,8.86h.08A2.07,2.07,0,0,0,5,9.07a4,4,0,0,0,1.24.06c.22,0,.43-.06.65-.08a4.32,4.32,0,0,1-1.29.12,4,4,0,0,1-1.45-.31Z"/><path class="cls-81" d="M4.05,9a.17.17,0,0,1,0-.12L4.23,9H4.16a1.15,1.15,0,0,0,.51.24c.19.06.38.08.56.15-.2,0-.4,0-.6,0h-.4a.45.45,0,0,0-.28,0,.49.49,0,0,0-.11.14c0,.07,0,.13,0,.19a.32.32,0,0,1-.16.09l-.36-.09v0l.09-.05a1.14,1.14,0,0,0-.1-.19c.11-.08.24,0,.36-.06a.39.39,0,0,0,.17-.11c.14-.14.35-.1.52-.14A1.69,1.69,0,0,1,4.05,9Z"/><path class="cls-82" d="M7.25,9.34a1.52,1.52,0,0,1,.41-.43,3.33,3.33,0,0,1-.25.28.32.32,0,0,0-.09.17v0a1.55,1.55,0,0,1-.22.12L7,9.47a1.23,1.23,0,0,0,.08-.38H7A1.22,1.22,0,0,0,7.28,9a2.54,2.54,0,0,0-.17.46.49.49,0,0,0,.14-.11Z"/><path class="cls-83" d="M4.15,9l.08,0a5.12,5.12,0,0,0,2.3.23h.33a3.25,3.25,0,0,1-.54.12,1.64,1.64,0,0,0-.5.08,1,1,0,0,0,.23.13c0,.13-.1.21-.13.32a1.26,1.26,0,0,0,.38-.06,1.61,1.61,0,0,1,.38-.08,5.15,5.15,0,0,1-.7.2,2.91,2.91,0,0,1-.31,0c-.12,0-.24,0-.35,0l0,0a.9.9,0,0,0,.3-.28.58.58,0,0,0-.41-.09c-.21,0-.43,0-.64,0l-.14,0c0,.09,0,.21-.1.3a.67.67,0,0,1-.24.07,2.66,2.66,0,0,1-.39-.07.35.35,0,0,0,.16-.08c0-.06,0-.13,0-.19A.36.36,0,0,1,4,9.45a.45.45,0,0,1,.28,0l.4,0c.2,0,.4,0,.6,0-.18-.07-.37-.1-.56-.16A1.36,1.36,0,0,1,4.15,9Z"/><path class="cls-4" d="M6.53,9.18,7,9.09h.07A1.23,1.23,0,0,1,7,9.48l.09,0a2.09,2.09,0,0,1-.41.17,1.61,1.61,0,0,0-.38.08H6.2a2,2,0,0,0,.07-.23.75.75,0,0,0-.09-.15l.13-.08a2.47,2.47,0,0,0,.54-.11Z"/><path class="cls-66" d="M5.82,9.38a1.7,1.7,0,0,1,.5-.09l-.14.08a.31.31,0,0,1,.09.14.62.62,0,0,1-.07.23l.1,0a1,1,0,0,1-.38.05c0-.11.13-.19.13-.31a1,1,0,0,1-.23-.12Z"/></g></g></svg>