<svg xmlns="http://www.w3.org/2000/svg" viewBox="0 0 68.83 68.83"><defs><style>.cls-1{fill:#fff;}.cls-2{fill:#2d5357;}</style></defs><g id="katman_2" data-name="katman 2"><g id="katman_1-2" data-name="katman 1"><circle class="cls-1" cx="34.42" cy="34.42" r="31.38"/><path class="cls-2" d="M34.42,68.83A34.42,34.42,0,1,1,68.83,34.42,34.46,34.46,0,0,1,34.42,68.83Zm0-62.76A28.35,28.35,0,1,0,62.76,34.42,28.38,28.38,0,0,0,34.42,6.07Z"/><path class="cls-2" d="M34.42,15.69a1,1,0,0,1-1-1V10.12a1,1,0,0,1,2,0v4.56A1,1,0,0,1,34.42,15.69Z"/><path class="cls-2" d="M24.55,18.33a1,1,0,0,1-.88-.5l-2.28-3.95a1,1,0,0,1,.37-1.38,1,1,0,0,1,1.39.37l2.27,4a1,1,0,0,1-.87,1.51Z"/><path class="cls-2" d="M17.32,25.56a.9.9,0,0,1-.5-.14l-4-2.27a1,1,0,0,1,1-1.76l3.95,2.28a1,1,0,0,1-.51,1.89Z"/><path class="cls-2" d="M14.68,35.43H10.12a1,1,0,0,1,0-2h4.56a1,1,0,0,1,0,2Z"/><path class="cls-2" d="M13.38,47.57a1,1,0,0,1-.88-.5,1,1,0,0,1,.37-1.38l4-2.28a1,1,0,1,1,1,1.75l-3.95,2.28A1,1,0,0,1,13.38,47.57Z"/><path class="cls-2" d="M22.27,56.47a1.06,1.06,0,0,1-.51-.14A1,1,0,0,1,21.39,55l2.28-4a1,1,0,1,1,1.75,1L23.15,56A1,1,0,0,1,22.27,56.47Z"/><path class="cls-2" d="M34.42,59.72a1,1,0,0,1-1-1V54.15a1,1,0,0,1,2,0v4.56A1,1,0,0,1,34.42,59.72Z"/><path class="cls-2" d="M46.56,56.47a1,1,0,0,1-.87-.51L43.41,52a1,1,0,1,1,1.75-1l2.28,4a1,1,0,0,1-.37,1.38A1,1,0,0,1,46.56,56.47Z"/><path class="cls-2" d="M55.45,47.57a1,1,0,0,1-.5-.13l-4-2.28a1,1,0,1,1,1-1.75l4,2.28a1,1,0,0,1,.37,1.38A1,1,0,0,1,55.45,47.57Z"/><path class="cls-2" d="M58.71,35.43H54.15a1,1,0,0,1,0-2h4.56a1,1,0,0,1,0,2Z"/><path class="cls-2" d="M51.51,25.56A1,1,0,0,1,51,23.67l4-2.28a1,1,0,0,1,1,1.76l-4,2.27A.9.9,0,0,1,51.51,25.56Z"/><path class="cls-2" d="M44.28,18.33a1,1,0,0,1-.87-1.51l2.28-4a1,1,0,1,1,1.75,1l-2.28,3.95A1,1,0,0,1,44.28,18.33Z"/><line class="cls-1" x1="34.42" y1="34.42" x2="34.42" y2="20.37"/><path class="cls-2" d="M37.14,25.09l-2.72-4.72-2.73,4.72H33.4v9.33a1,1,0,0,0,2,0V25.09Z"/><line class="cls-1" x1="34.42" y1="34.42" x2="49.03" y2="43.82"/><path class="cls-2" d="M49,43.82,46.54,39l-.93,1.44L35,33.56a1,1,0,1,0-1.09,1.71l10.65,6.85-.93,1.44Z"/><path class="cls-2" d="M37.37,34.42a3,3,0,1,1-2.95-3A2.95,2.95,0,0,1,37.37,34.42Z"/></g></g></svg>