<svg xmlns="http://www.w3.org/2000/svg" viewBox="0 0 92.96 60.24"><defs><style>.cls-1{fill:#1d1d1b;opacity:0.3;}.cls-2{fill:#fff;}.cls-3{fill:#7c7c7c;}</style></defs><g id="katman_2" data-name="katman 2"><g id="katman_1-2" data-name="katman 1"><path class="cls-1" d="M93,57.57c0,1.47-20.81,2.67-46.48,2.67S0,59,0,57.57,20.81,54.9,46.48,54.9,93,56.09,93,57.57Z"/><circle class="cls-2" cx="46.18" cy="29.15" r="26.58"/><path class="cls-3" d="M46.18,58.3A29.15,29.15,0,1,1,75.33,29.15,29.19,29.19,0,0,1,46.18,58.3Zm0-53.16a24,24,0,1,0,24,24A24,24,0,0,0,46.18,5.14Z"/><path class="cls-3" d="M46.18,13.29a.87.87,0,0,1-.86-.86V8.57a.86.86,0,0,1,1.72,0v3.86A.86.86,0,0,1,46.18,13.29Z"/><path class="cls-3" d="M37.82,15.53a.87.87,0,0,1-.74-.43l-1.93-3.34a.86.86,0,0,1,1.49-.86l1.93,3.34a.86.86,0,0,1-.32,1.17A.82.82,0,0,1,37.82,15.53Z"/><path class="cls-3" d="M31.7,21.65a.81.81,0,0,1-.42-.12L27.93,19.6a.86.86,0,0,1,.86-1.48l3.34,1.93a.86.86,0,0,1,.32,1.17A.88.88,0,0,1,31.7,21.65Z"/><path class="cls-3" d="M29.46,30H25.61a.86.86,0,0,1,0-1.72h3.85a.86.86,0,0,1,0,1.72Z"/><path class="cls-3" d="M28.36,40.3a.87.87,0,0,1-.74-.43.85.85,0,0,1,.31-1.17l3.35-1.93a.86.86,0,0,1,1.17.31.86.86,0,0,1-.32,1.17l-3.34,1.93A.82.82,0,0,1,28.36,40.3Z"/><path class="cls-3" d="M35.89,47.83a.81.81,0,0,1-.42-.12.86.86,0,0,1-.32-1.17l1.93-3.34a.85.85,0,0,1,1.17-.31.86.86,0,0,1,.32,1.17L36.64,47.4A.88.88,0,0,1,35.89,47.83Z"/><path class="cls-3" d="M46.18,50.58a.86.86,0,0,1-.86-.85V45.87a.86.86,0,0,1,1.72,0v3.86A.85.85,0,0,1,46.18,50.58Z"/><path class="cls-3" d="M56.47,47.83a.86.86,0,0,1-.74-.43L53.8,44.06a.86.86,0,0,1,1.48-.86l1.93,3.34a.86.86,0,0,1-.74,1.29Z"/><path class="cls-3" d="M64,40.3a.85.85,0,0,1-.43-.12l-3.34-1.93a.86.86,0,0,1,.86-1.48l3.34,1.93a.85.85,0,0,1,.31,1.17A.86.86,0,0,1,64,40.3Z"/><path class="cls-3" d="M66.76,30H62.9a.86.86,0,1,1,0-1.72h3.86a.86.86,0,1,1,0,1.72Z"/><path class="cls-3" d="M60.66,21.65a.86.86,0,0,1-.74-.43.85.85,0,0,1,.31-1.17l3.34-1.93a.86.86,0,1,1,.86,1.48l-3.34,1.93A.85.85,0,0,1,60.66,21.65Z"/><path class="cls-3" d="M54.54,15.53a.86.86,0,0,1-.74-1.29l1.93-3.34a.86.86,0,0,1,1.48.86L55.28,15.1A.86.86,0,0,1,54.54,15.53Z"/><line class="cls-2" x1="46.18" y1="29.15" x2="46.18" y2="17.25"/><path class="cls-3" d="M48.49,21.25l-2.31-4-2.31,4h1.45v7.9a.86.86,0,0,0,1.72,0v-7.9Z"/><line class="cls-2" x1="46.18" y1="29.15" x2="58.56" y2="37.11"/><path class="cls-3" d="M58.56,37.11,56.45,33l-.78,1.22-9-5.8a.86.86,0,1,0-.93,1.44l9,5.8L54,36.89Z"/><path class="cls-3" d="M48.68,29.15a2.5,2.5,0,1,1-2.5-2.5A2.5,2.5,0,0,1,48.68,29.15Z"/></g></g></svg>