<svg xmlns="http://www.w3.org/2000/svg" viewBox="0 0 362.36 62.79"><defs><style>.cls-1{isolation:isolate;}.cls-2{opacity:0.3;}.cls-3,.cls-4{fill:#424241;}.cls-12,.cls-4{opacity:0.44;mix-blend-mode:multiply;}.cls-5{fill:#3c3c3b;}.cls-6{fill:#6a6d67;}.cls-7{fill:#888a85;}.cls-8{fill:#454545;}.cls-9{fill:#343434;}.cls-10{fill:#d3d3d3;}.cls-11{fill:#c4c4c5;}.cls-12,.cls-29{fill:#a4a4a5;}.cls-13{fill:#e9e9e9;}.cls-14{fill:#dadadb;}.cls-15{fill:#a3a3a4;}.cls-16{fill:#7a7a7b;}.cls-17{fill:#4a4a4a;}.cls-18{fill:#c3c5c2;}.cls-19{fill:#5c5c5c;}.cls-20{fill:#636362;}.cls-21{fill:#a2c629;}.cls-22{fill:#e8450c;}.cls-23{fill:#879e00;}.cls-24{fill:#f2f2f2;}.cls-25{fill:#828281;}.cls-26{fill:#ededed;}.cls-27{fill:#fbfbfb;}.cls-28{fill:#dbdbdb;}.cls-30{fill:#2d2d2c;}</style></defs><g class="cls-1"><g id="katman_2" data-name="katman 2"><g id="katman_1-2" data-name="katman 1"><g class="cls-2"><path class="cls-3" d="M330.57,4.87c-1-.32-2-.6-3-.83L327.3,4l-.91-.17-.57-.11-.8-.12-.74-.09-.7-.08-.92-.07-.56,0q-.75,0-1.5,0h0a32.23,32.23,0,0,0-8,1c-.69.18-1.36.39-2,.61Z"/><path class="cls-3" d="M164.25,59a4.77,4.77,0,0,1-2.31.61h1.24a4.69,4.69,0,0,0,1.68-.32A4.85,4.85,0,0,1,164.25,59Z"/><path class="cls-3" d="M161.8,55.58h-4.74a4.81,4.81,0,0,0,4.59,4,4.67,4.67,0,0,0,2.37-.71A4.8,4.8,0,0,1,161.8,55.58Z"/><path class="cls-3" d="M161.65,53.89h0l.19-.19a4.72,4.72,0,0,1,.69-1.63l-.84-.84h-2.34v2.67h2.31Z"/><path class="cls-3" d="M189,54.73a4.84,4.84,0,0,1-4.84,4.84h.32a4.84,4.84,0,0,0,4.84-4.84,3,3,0,0,0,0-.31H189A3,3,0,0,1,189,54.73Z"/><path class="cls-3" d="M189,54.73a3,3,0,0,0,0-.31h-1.24a3,3,0,0,1,0,.31,4.84,4.84,0,0,1-4.84,4.84h1.24A4.84,4.84,0,0,0,189,54.73Z"/><path class="cls-3" d="M187.33,54.73c0-.11,0-.21,0-.31h-3.71v1.16h-5.54a4.67,4.67,0,0,0,9.28-.85Z"/><path class="cls-3" d="M187.77,54.73a3,3,0,0,0,0-.31h-.44c0,.1,0,.2,0,.31a4.83,4.83,0,0,1-4.68,4.82l-.16,0h.44A4.84,4.84,0,0,0,187.77,54.73Z"/><path class="cls-3" d="M175.27,53.89l-.28-.28v.28Z"/><rect class="cls-3" x="182.98" y="54.42" width="0.6" height="1.17"/><path class="cls-3" d="M161.64,53.88h.16a1.62,1.62,0,0,1,0-.2Z"/><path class="cls-3" d="M183,54.42H175.8l-.53-.53H175v-.28l-2.39-2.39-1.8-1.8V46.09H159.55l4.51,4.51a4.75,4.75,0,0,1,2.33-.7h1.85a4.86,4.86,0,0,1,4.84,4.84,4.71,4.71,0,0,1-.09.85h10Z"/><path class="cls-3" d="M60.28,59a4.7,4.7,0,0,1-2.3.61h1.24a4.69,4.69,0,0,0,1.68-.32A5,5,0,0,1,60.28,59Z"/><path class="cls-3" d="M57.83,55.58H53.1a4.82,4.82,0,0,0,4.6,4,4.67,4.67,0,0,0,2.36-.71A4.85,4.85,0,0,1,57.83,55.58Z"/><path class="cls-3" d="M57.69,53.89h0l.18-.19a4.92,4.92,0,0,1,.69-1.63l-.83-.84H55.37v2.67h2.32Z"/><path class="cls-3" d="M85.05,54.73a4.84,4.84,0,0,1-4.84,4.84h.32a4.84,4.84,0,0,0,4.84-4.84c0-.11,0-.21,0-.31H85C85,54.52,85.05,54.62,85.05,54.73Z"/><path class="cls-3" d="M85.05,54.73c0-.11,0-.21,0-.31H83.78c0,.1,0,.2,0,.31A4.84,4.84,0,0,1,79,59.57h1.24A4.84,4.84,0,0,0,85.05,54.73Z"/><path class="cls-3" d="M83.36,54.73a3,3,0,0,0,0-.31H79.62v1.16H74.09a4.66,4.66,0,0,0,9.27-.85Z"/><path class="cls-3" d="M83.81,54.73c0-.11,0-.21,0-.31h-.45a3,3,0,0,1,0,.31,4.82,4.82,0,0,1-4.68,4.82l-.16,0H79A4.84,4.84,0,0,0,83.81,54.73Z"/><path class="cls-3" d="M71.39,53.89,71,53.52v.37Z"/><rect class="cls-3" x="79.02" y="54.42" width="0.61" height="1.17"/><path class="cls-3" d="M57.68,53.88h.15l0-.2Z"/><path class="cls-3" d="M79,54.42h-7.1l-.53-.53H71v-.37l-2.3-2.3-1.8-1.8V46.09H55.58l4.51,4.51a4.79,4.79,0,0,1,2.34-.7h1.84a4.86,4.86,0,0,1,4.84,4.84,4.71,4.71,0,0,1-.08.85H79Z"/><path class="cls-3" d="M153.41,53.89v-.53l-.53.53Z"/><path class="cls-3" d="M150.8,51.46A4.83,4.83,0,0,1,152,53.89h.49l.91-.91V51.22H151Z"/><path class="cls-3" d="M139.29,51.22l-3.19,3.2h.39l3.19-3.2Z"/><path class="cls-3" d="M140.7,51.22l-3.2,3.2h3.26a4.81,4.81,0,0,1,1.48-3.2Z"/><path class="cls-3" d="M37.54,51.22l-3.2,3.2h2.45a4.82,4.82,0,0,1,1.49-3.2Z"/><path class="cls-3" d="M46.84,51.46A4.82,4.82,0,0,1,48,53.89h1.41V51.22H47.08Z"/><rect class="cls-3" x="210.49" y="48.43" width="1.02" height="5.99"/><path class="cls-3" d="M211.51,46.09V46a5.89,5.89,0,0,1-.95.08Z"/><polygon class="cls-3" points="209.35 48.43 209.35 51.22 199.49 51.22 195.26 51.22 195.26 54.42 210.49 54.42 210.49 48.43 209.35 48.43"/><polygon class="cls-3" points="210.49 46.09 210.49 48.43 211.51 48.43 211.51 46.09 210.56 46.09 210.49 46.09"/><polygon class="cls-4" points="210.49 46.09 210.49 48.43 211.51 48.43 211.51 46.09 210.56 46.09 210.49 46.09"/><rect class="cls-3" x="209.35" y="46.09" width="1.14" height="2.33"/><rect class="cls-4" x="209.35" y="46.09" width="1.14" height="2.33"/><polygon class="cls-3" points="161.68 51.22 159.34 48.88 159.34 51.22 161.68 51.22"/><polygon class="cls-3" points="57.72 51.22 55.37 48.88 55.37 51.22 57.72 51.22"/><path class="cls-3" d="M139.29,51.22h.39l1.42-1.41v-.39Z"/><polygon class="cls-3" points="153.41 51.22 153.41 48.85 151.04 51.22 153.41 51.22"/><path class="cls-3" d="M142.12,48.43v1.38l-1.42,1.41h1.54a4.85,4.85,0,0,1,3.17-1.32h1.84a4.78,4.78,0,0,1,1.78.35l4.15-4.15H142.12Z"/><polygon class="cls-3" points="49.45 51.22 49.45 48.85 47.08 51.22 49.45 51.22"/><path class="cls-3" d="M39,48.43v1.38l-1.41,1.41h.74a4.85,4.85,0,0,1,3.16-1.32h1.85a4.82,4.82,0,0,1,1.78.35l4.14-4.15H39Z"/><polygon class="cls-3" points="195.26 51.22 199.49 51.22 199.49 46.09 195.26 46.09 195.26 48.43 195.26 51.22"/><path class="cls-3" d="M142.12,49.81V48.43h-1v1h0v.39l-1.42,1.41-3.19,3.2h1l3.2-3.2Z"/><path class="cls-3" d="M141.1,49.42h0v-1h-5.74a.36.36,0,0,1,.35.36.37.37,0,0,1-.37.36H72v-.72h-5.1v1l1.8,1.8,2.3,2.3.37.37.53.53H136.1l3.19-3.2Zm-5.76,2.67H72v-.74h63.32a.37.37,0,0,1,0,.74Zm0-1.47H72v-.73h63.32a.37.37,0,1,1,0,.73Z"/><rect class="cls-3" x="141.1" y="46.09" width="1.02" height="2.33"/><rect class="cls-4" x="141.1" y="46.09" width="1.02" height="2.33"/><path class="cls-3" d="M141.1,46.09H66.92v2.34H141.1V46.09Z"/><path class="cls-4" d="M141.1,46.09H66.92v2.34H141.1V46.09Z"/><path class="cls-3" d="M135.34,51.35h-.59a.37.37,0,0,1,0,.74h.59a.37.37,0,0,0,0-.74Z"/><path class="cls-3" d="M135.34,49.89h-.59a.37.37,0,1,1,0,.73h.59a.37.37,0,1,0,0-.73Z"/><path class="cls-3" d="M134.75,48.42a.37.37,0,1,1,0,.73h.59a.37.37,0,0,0,.37-.36.36.36,0,0,0-.35-.36h-.61Z"/><path class="cls-3" d="M135.12,51.72a.37.37,0,0,0-.37-.37H72v.74h62.73A.37.37,0,0,0,135.12,51.72Z"/><path class="cls-3" d="M135.12,50.25a.36.36,0,0,0-.37-.36H72v.73h62.73A.36.36,0,0,0,135.12,50.25Z"/><path class="cls-3" d="M135.12,48.79a.36.36,0,0,0-.37-.37H72v.72h62.73A.36.36,0,0,0,135.12,48.79Z"/><path class="cls-3" d="M39,49.81V48.43h-1v1.38l-4.62,4.61h1l3.2-3.2Z"/><path class="cls-3" d="M37.94,49.81V48.43H32.2a.35.35,0,0,1,.34.36.36.36,0,0,1-.36.36H18.31v-.72h-5.1v1.38l4.61,4.61h15.5Zm-5.76,2.28H18.31v-.74H32.18a.37.37,0,0,1,0,.74Zm0-1.47H18.31v-.73H32.18a.37.37,0,0,1,0,.73Z"/><rect class="cls-3" x="37.94" y="46.09" width="1.02" height="2.33"/><rect class="cls-4" x="37.94" y="46.09" width="1.02" height="2.33"/><path class="cls-3" d="M18.31,48.42H37.94V46.09H13.21v2.34h5.1Z"/><path class="cls-4" d="M18.31,48.42H37.94V46.09H13.21v2.34h5.1Z"/><path class="cls-3" d="M32.18,51.35h-.59a.37.37,0,0,1,0,.74h.59a.37.37,0,0,0,0-.74Z"/><path class="cls-3" d="M32.18,49.89h-.59a.37.37,0,1,1,0,.73h.59a.37.37,0,0,0,0-.73Z"/><path class="cls-3" d="M31.59,48.42a.37.37,0,1,1,0,.73h.59a.36.36,0,0,0,.36-.36.35.35,0,0,0-.34-.36h-.61Z"/><path class="cls-3" d="M32,51.72a.38.38,0,0,0-.37-.37H18.31v.74H31.59A.38.38,0,0,0,32,51.72Z"/><path class="cls-3" d="M32,50.25a.37.37,0,0,0-.37-.36H18.31v.73H31.59A.37.37,0,0,0,32,50.25Z"/><path class="cls-3" d="M32,48.79a.37.37,0,0,0-.37-.37H18.31v.72H31.59A.37.37,0,0,0,32,48.79Z"/><polygon class="cls-3" points="195.26 48.43 194.24 48.43 194.24 54.42 195.26 54.42 195.26 51.22 195.26 48.43"/><path class="cls-3" d="M191.58,48.43a.35.35,0,0,1,.34.36.36.36,0,0,1-.36.36h-15.8v-.72h-5v1l1.8,1.8L175,53.61l.28.28.53.53h18.44v-6Zm0,3.66h-15.8v-.74h15.8a.37.37,0,0,1,0,.74Zm0-1.47h-15.8v-.73h15.8a.37.37,0,0,1,0,.73Z"/><rect class="cls-3" x="194.24" y="46.09" width="1.02" height="2.33"/><rect class="cls-4" x="194.24" y="46.09" width="1.02" height="2.33"/><path class="cls-3" d="M170.8,46.09v2.34h23.44V46.09H170.8Z"/><path class="cls-4" d="M170.8,46.09v2.34h23.44V46.09H170.8Z"/><path class="cls-3" d="M191.56,51.35H191a.37.37,0,0,1,0,.74h.59a.37.37,0,0,0,0-.74Z"/><path class="cls-3" d="M191.56,49.89H191a.37.37,0,1,1,0,.73h.59a.37.37,0,0,0,0-.73Z"/><path class="cls-3" d="M191,48.42a.37.37,0,1,1,0,.73h.59a.36.36,0,0,0,.36-.36.35.35,0,0,0-.34-.36H191Z"/><path class="cls-3" d="M191.34,51.72a.37.37,0,0,0-.37-.37H175.76v.74H191A.37.37,0,0,0,191.34,51.72Z"/><path class="cls-3" d="M191.34,50.25a.36.36,0,0,0-.37-.36H175.76v.73H191A.36.36,0,0,0,191.34,50.25Z"/><path class="cls-3" d="M191.34,48.79a.36.36,0,0,0-.37-.37H175.76v.72H191A.36.36,0,0,0,191.34,48.79Z"/><polygon class="cls-3" points="209.35 51.22 209.35 48.43 209.35 46.09 199.49 46.09 199.49 51.22 209.35 51.22"/><path class="cls-3" d="M148.37,53.89H149a3.88,3.88,0,0,0-.14-.45Z"/><path class="cls-3" d="M142.42,54.73a3.31,3.31,0,0,0,6.54.85h-1.88a1.43,1.43,0,0,1-1.16.6l-.18,0-.17,0a1.45,1.45,0,1,1,0-2.9l.17,0,.18,0H146l1.49-1.5a3.25,3.25,0,0,0-5.05,2.94Z"/><path class="cls-3" d="M150,55.58h-1a3.5,3.5,0,0,1-3.22,2.64h0l-.17,0a3.51,3.51,0,1,1,0-7l.17,0h0a3.5,3.5,0,0,1,1.73.55l.81-.8a4.77,4.77,0,0,0-2.87-1.09,4.79,4.79,0,0,0-4.65,4.52,3,3,0,0,0,0,.31,4.66,4.66,0,0,0,9.27.85Z"/><path class="cls-3" d="M148.82,53.44a3.88,3.88,0,0,1,.14.45h1a4.77,4.77,0,0,0-.39-1.23Z"/><path class="cls-3" d="M145.74,53.3l-.17,0a1.45,1.45,0,1,0,0,2.9l.17,0a1.4,1.4,0,0,0,.5-.16h0a1.3,1.3,0,0,0,.39-.31l0,0a.73.73,0,0,0,.05-.09h-1.32V53.89h0l.52-.53-.17-.05Z"/><path class="cls-3" d="M146.93,59.57h.32a4.84,4.84,0,0,0,4.76-4h-.32A4.84,4.84,0,0,1,146.93,59.57Z"/><path class="cls-3" d="M150.63,51.64a4.79,4.79,0,0,1,1.06,2.25H152a4.83,4.83,0,0,0-1.21-2.43Z"/><path class="cls-3" d="M146.93,49.89a4.76,4.76,0,0,1,2,.44l.1-.09a4.78,4.78,0,0,0-1.78-.35Z"/><path class="cls-3" d="M151.69,55.58h-1.24a4.84,4.84,0,0,1-4.76,4h1.24A4.84,4.84,0,0,0,151.69,55.58Z"/><path class="cls-3" d="M149.9,52.37a4.93,4.93,0,0,1,.55,1.52h1.24a4.79,4.79,0,0,0-1.06-2.25Z"/><path class="cls-3" d="M145.69,49.89a4.8,4.8,0,0,1,2.79.89l.45-.45a4.76,4.76,0,0,0-2-.44Z"/><path class="cls-3" d="M150.45,55.58H150a4.81,4.81,0,0,1-4.59,4l-.16,0h.44A4.84,4.84,0,0,0,150.45,55.58Z"/><path class="cls-3" d="M149.61,52.66a4.77,4.77,0,0,1,.39,1.23h.45a4.93,4.93,0,0,0-.55-1.52Z"/><path class="cls-3" d="M145.57,49.89h-.16A4.77,4.77,0,0,1,148.28,51l.2-.21a4.8,4.8,0,0,0-2.79-.89Z"/><path class="cls-3" d="M142.42,54.73a3.5,3.5,0,0,1,3.32-3.49h0l-.17,0a3.51,3.51,0,1,0,0,7l.17,0h0A3.5,3.5,0,0,1,142.42,54.73Z"/><path class="cls-3" d="M146.64,55.69a1.3,1.3,0,0,1-.39.31h0a1.4,1.4,0,0,1-.5.16l.18,0a1.43,1.43,0,0,0,1.16-.6h-.37a.73.73,0,0,1-.05.09Z"/><path class="cls-3" d="M145.74,53.3h0l.17.05.07-.06h-.06Z"/><path class="cls-3" d="M166.75,53.3l.16,0a1.45,1.45,0,0,1,0,2.9l-.18,0-.18,0a1.43,1.43,0,0,1-1.16-.6h-1.87a3.35,3.35,0,1,0,3.21-4.34,3.6,3.6,0,0,0-1.56.47Z"/><path class="cls-3" d="M164,53.89h.33l-.62-.62a3.48,3.48,0,0,0-.21.62Z"/><path class="cls-3" d="M171.07,54.73a4.84,4.84,0,0,0-4.68-4.83,4.75,4.75,0,0,0-2.33.7l1,1a3.5,3.5,0,0,1,1.51-.36l.18,0h0a3.49,3.49,0,0,1,0,7h0l-.18,0a3.52,3.52,0,0,1-3.39-2.66H161.8A4.8,4.8,0,0,0,164,58.84a4.67,4.67,0,0,1-2.37.71l-.16,0h.45a4.77,4.77,0,0,0,2.31-.61,4.85,4.85,0,0,0,.61.29,4.69,4.69,0,0,1-1.68.32h.32A4.92,4.92,0,0,0,165,59.3a4.37,4.37,0,0,0,1.36.25A4.82,4.82,0,0,0,171.07,54.73Z"/><path class="cls-3" d="M161.8,53.89h1.36a3.29,3.29,0,0,1,.34-.85l-1-1a4.72,4.72,0,0,0-.69,1.63A1.62,1.62,0,0,0,161.8,53.89Z"/><path class="cls-3" d="M166.55,56.18l.18,0a1.46,1.46,0,0,0,.5-.16h0a1.3,1.3,0,0,0,.39-.31l0,0a1.59,1.59,0,0,0,.26-.41,0,0,0,0,1,0,0,1.43,1.43,0,0,0,0-1,0,0,0,0,1,0,0,1.59,1.59,0,0,0-.26-.41l0,0a1.45,1.45,0,0,0-.39-.3h0a1.46,1.46,0,0,0-.46-.15l.57.57h0v1.69h-2A1.43,1.43,0,0,0,166.55,56.18Z"/><path class="cls-3" d="M171.56,51.22a4.82,4.82,0,0,0-3.32-1.33h-.32a4.84,4.84,0,1,1,0,9.68h.32a4.82,4.82,0,0,0,4.75-4,4.71,4.71,0,0,0,.09-.85A4.85,4.85,0,0,0,171.56,51.22Z"/><path class="cls-3" d="M172.76,54.73a4.84,4.84,0,0,0-4.84-4.84h-1.24a4.84,4.84,0,1,1,0,9.68h1.24A4.84,4.84,0,0,0,172.76,54.73Z"/><path class="cls-3" d="M171.52,54.73a4.84,4.84,0,0,0-4.84-4.84h-.29a4.83,4.83,0,0,1,0,9.65l-.16,0h.45A4.84,4.84,0,0,0,171.52,54.73Z"/><path class="cls-3" d="M163.52,55.58h-.36a3.52,3.52,0,0,0,3.39,2.66l.18,0h0A3.5,3.5,0,0,1,163.52,55.58Z"/><path class="cls-3" d="M166.73,51.24h0l-.18,0a3.5,3.5,0,0,0-1.51.36l.13.13A3.6,3.6,0,0,1,166.73,51.24Z"/><path class="cls-3" d="M163.52,53.89a3.48,3.48,0,0,1,.21-.62L163.5,53a3.29,3.29,0,0,0-.34.85Z"/><path class="cls-3" d="M167.23,53.46a1.45,1.45,0,0,1,.39.3l0,0a1.59,1.59,0,0,1,.26.41,0,0,0,0,0,0,0,1.43,1.43,0,0,1,0,1,0,0,0,0,0,0,0,1.59,1.59,0,0,1-.26.41l0,0a1.3,1.3,0,0,1-.39.31h0a1.46,1.46,0,0,1-.5.16l.18,0a1.45,1.45,0,0,0,0-2.9l-.16,0h0a1.46,1.46,0,0,1,.46.15Z"/><polygon class="cls-3" points="159.34 48.88 158.73 48.27 158.73 53.89 159.34 53.89 159.34 51.22 159.34 48.88"/><polygon class="cls-3" points="166.73 53.88 166.72 53.89 166.73 53.89 166.73 55.58 167.34 55.58 167.34 53.89 167.32 53.89 167.34 53.88 166.77 53.31 166.75 53.3 165.17 51.71 165.04 51.58 164.06 50.6 159.55 46.09 158.94 46.09 166.73 53.88"/><polygon class="cls-3" points="148.37 53.89 148.82 53.44 149.61 52.66 149.9 52.37 150.63 51.64 150.8 51.46 151.04 51.22 153.41 48.85 153.41 48.25 147.77 53.89 148.37 53.89"/><path class="cls-3" d="M161.8,55.58h4.93V53.89h0l-7.79-7.79h-5.76L149,50.24l-.1.09-.45.45-.2.21-.81.8L146,53.29l-.07.06-.52.53h0v1.69H161.8Zm-8.39-6.73v5h-5.64l5.64-5.64Zm5.32,5V48.28l.61.6,2.34,2.34.84.84,1,1,.23.23.62.62h-5.62Z"/><path class="cls-3" d="M38.45,54.73a3.31,3.31,0,0,0,6.54.85H43.12a1.43,1.43,0,0,1-1.16.6l-.18,0-.18,0a1.45,1.45,0,0,1,0-2.9l.18,0,.18,0h0l1.5-1.5a3.26,3.26,0,0,0-5.06,2.94Z"/><path class="cls-3" d="M44.41,53.89H45c0-.15-.09-.3-.14-.45Z"/><path class="cls-3" d="M46,55.58H45a3.49,3.49,0,0,1-3.21,2.64h0l-.18,0a3.51,3.51,0,0,1,0-7l.18,0h0a3.54,3.54,0,0,1,1.73.55l.81-.8a4.65,4.65,0,0,0-7.53,3.43c0,.1,0,.2,0,.31a4.67,4.67,0,0,0,9.28.85Z"/><path class="cls-3" d="M44.86,53.44c0,.15.1.3.14.45h1a4.67,4.67,0,0,0-.4-1.23Z"/><path class="cls-3" d="M41.78,53.3l-.18,0a1.45,1.45,0,0,0,0,2.9l.18,0h0a1.46,1.46,0,0,0,.5-.16h0a1.3,1.3,0,0,0,.39-.31l0,0,.06-.09H41.42V53.89h0l.53-.53-.17-.05Z"/><path class="cls-3" d="M43,59.57h.32a4.82,4.82,0,0,0,4.75-4h-.32A4.82,4.82,0,0,1,43,59.57Z"/><path class="cls-3" d="M46.66,51.64a4.7,4.7,0,0,1,1.06,2.25H48a4.82,4.82,0,0,0-1.2-2.43Z"/><path class="cls-3" d="M43,49.89a4.79,4.79,0,0,1,2,.44l.1-.09a4.82,4.82,0,0,0-1.78-.35Z"/><path class="cls-3" d="M47.72,55.58H46.48a4.82,4.82,0,0,1-4.75,4H43A4.82,4.82,0,0,0,47.72,55.58Z"/><path class="cls-3" d="M45.93,52.37a4.69,4.69,0,0,1,.55,1.52h1.24a4.7,4.7,0,0,0-1.06-2.25Z"/><path class="cls-3" d="M41.73,49.89a4.8,4.8,0,0,1,2.79.89l.45-.45a4.79,4.79,0,0,0-2-.44Z"/><path class="cls-3" d="M46.48,55.58H46a4.82,4.82,0,0,1-4.6,4l-.16,0h.45A4.82,4.82,0,0,0,46.48,55.58Z"/><path class="cls-3" d="M45.64,52.66a4.67,4.67,0,0,1,.4,1.23h.44a4.69,4.69,0,0,0-.55-1.52Z"/><path class="cls-3" d="M41.6,49.89h-.16A4.82,4.82,0,0,1,44.32,51l.2-.21a4.8,4.8,0,0,0-2.79-.89Z"/><path class="cls-3" d="M38.45,54.73a3.51,3.51,0,0,1,3.33-3.49h0l-.18,0a3.51,3.51,0,0,0,0,7l.18,0h0A3.51,3.51,0,0,1,38.45,54.73Z"/><path class="cls-3" d="M42.67,55.69a1.3,1.3,0,0,1-.39.31h0a1.46,1.46,0,0,1-.5.16h0l.18,0a1.43,1.43,0,0,0,1.16-.6h-.37l-.06.09Z"/><path class="cls-3" d="M41.78,53.3h0l.17.05.06-.06h0Z"/><path class="cls-3" d="M62.79,53.3l.15,0a1.45,1.45,0,1,1,0,2.9l-.17,0-.18,0a1.43,1.43,0,0,1-1.16-.6H59.56a3.34,3.34,0,1,0,3.21-4.34,3.56,3.56,0,0,0-1.56.47Z"/><path class="cls-3" d="M60.06,53.89h.32l-.61-.62a3.52,3.52,0,0,0-.22.62Z"/><path class="cls-3" d="M67.11,54.73a4.84,4.84,0,0,0-4.68-4.83,4.79,4.79,0,0,0-2.34.7l1,1a3.51,3.51,0,0,1,1.52-.36l.18,0h0a3.49,3.49,0,0,1,0,7h0l-.18,0a3.51,3.51,0,0,1-3.39-2.66H57.83a4.85,4.85,0,0,0,2.23,3.26,4.67,4.67,0,0,1-2.36.71l-.16,0H58a4.7,4.7,0,0,0,2.3-.61,5,5,0,0,0,.62.29,4.69,4.69,0,0,1-1.68.32h.32a4.76,4.76,0,0,0,1.52-.27,4.49,4.49,0,0,0,1.37.25A4.82,4.82,0,0,0,67.11,54.73Z"/><path class="cls-3" d="M57.83,53.89h1.36a4.19,4.19,0,0,1,.34-.85l-1-1a4.92,4.92,0,0,0-.69,1.63Z"/><path class="cls-3" d="M62.59,56.18l.18,0h0a1.41,1.41,0,0,0,.49-.16h0a1.3,1.3,0,0,0,.39-.31s0,0,0,0a1.55,1.55,0,0,0,.25-.41,0,0,0,0,0,0,0,1.43,1.43,0,0,0,0-1,0,0,0,0,0,0,0,1.55,1.55,0,0,0-.25-.41l0,0a1.45,1.45,0,0,0-.39-.3h0a1.38,1.38,0,0,0-.46-.15l.57.57h0v1.69H61.43A1.43,1.43,0,0,0,62.59,56.18Z"/><path class="cls-3" d="M67.59,51.22a4.8,4.8,0,0,0-3.32-1.33H64a4.84,4.84,0,1,1,0,9.68h.32a4.84,4.84,0,0,0,4.76-4,4.71,4.71,0,0,0,.08-.85A4.81,4.81,0,0,0,67.59,51.22Z"/><path class="cls-3" d="M68.79,54.73A4.84,4.84,0,0,0,64,49.89H62.71a4.84,4.84,0,1,1,0,9.68H64A4.84,4.84,0,0,0,68.79,54.73Z"/><path class="cls-3" d="M67.55,54.73a4.84,4.84,0,0,0-4.84-4.84h-.28a4.83,4.83,0,0,1,0,9.65l-.16,0h.44A4.84,4.84,0,0,0,67.55,54.73Z"/><path class="cls-3" d="M59.56,55.58H59.2a3.51,3.51,0,0,0,3.39,2.66l.18,0h0A3.5,3.5,0,0,1,59.56,55.58Z"/><path class="cls-3" d="M59.55,53.89a3.52,3.52,0,0,1,.22-.62L59.53,53a4.19,4.19,0,0,0-.34.85Z"/><path class="cls-3" d="M62.77,51.24h0l-.18,0a3.51,3.51,0,0,0-1.52.36l.14.13A3.56,3.56,0,0,1,62.77,51.24Z"/><path class="cls-3" d="M63.27,53.46a1.45,1.45,0,0,1,.39.3l0,0a1.55,1.55,0,0,1,.25.41,0,0,0,0,1,0,0,1.43,1.43,0,0,1,0,1,0,0,0,0,1,0,0,1.55,1.55,0,0,1-.25.41s0,0,0,0a1.3,1.3,0,0,1-.39.31h0a1.41,1.41,0,0,1-.49.16h0l.17,0a1.45,1.45,0,1,0,0-2.9l-.15,0h0a1.38,1.38,0,0,1,.46.15Z"/><polygon class="cls-3" points="55.37 48.88 54.77 48.27 54.77 53.89 55.37 53.89 55.37 51.22 55.37 48.88"/><polygon class="cls-3" points="54.98 46.09 62.77 53.88 62.75 53.89 62.77 53.89 62.77 55.58 63.37 55.58 63.37 53.89 63.36 53.89 63.37 53.88 62.8 53.31 62.79 53.3 61.2 51.71 61.07 51.58 60.09 50.6 55.58 46.09 55.21 46.09 54.98 46.09"/><polygon class="cls-3" points="44.41 53.89 44.86 53.44 45.64 52.66 45.93 52.37 46.66 51.64 46.84 51.46 47.08 51.22 49.45 48.85 49.45 48.25 43.8 53.89 44.41 53.89"/><path class="cls-3" d="M57.83,55.58h4.94V53.89h0L55,46.09H49.21l-4.14,4.15-.1.09-.45.45-.2.21-.81.8L42,53.29l-.06.06-.53.53h0v1.69H57.83Zm-8.38-6.73v5H43.8l5.65-5.64Zm5.32,5V48.28l.6.6,2.35,2.34.83.84,1,1,.24.23.61.62H54.77Z"/><path class="cls-3" d="M211.67,44.7a6,6,0,0,1-5.6-3.92H201.3v-29h3.1a2,2,0,0,1,1.33-1.3,5.91,5.91,0,0,1,1.6-3.68H335.08a33.35,33.35,0,0,0-3.93-1.67h0l-.47-.15-.12,0H211.67a5.94,5.94,0,0,0-3.81,1.39H65.58a88.07,88.07,0,0,0-18,1.89H198.27a5.78,5.78,0,0,1,1.55,3.95V40.26A5.83,5.83,0,0,1,194,46.09h16.57a6,6,0,0,0,2.15-.41v-1Z"/><rect class="cls-3" x="83.96" y="35.4" width="11.8" height="1.36"/><polygon class="cls-3" points="180.15 34.24 180.15 30.76 159.42 30.76 96.17 30.76 96.17 34.24 180.15 34.24"/><path class="cls-3" d="M84,44.08a.91.91,0,0,0,.91.91h10a.9.9,0,0,0,.9-.91V37.93H84Z"/><rect class="cls-3" x="96.17" y="35.4" width="83.98" height="1.36"/><path class="cls-3" d="M29.47,46.09H194a5.83,5.83,0,0,0,5.83-5.83V12.1a5.78,5.78,0,0,0-1.55-3.95H47.53c-2.67.55-5.32,1.22-7.93,2a.6.6,0,0,0,.1,1.16l.08,0q3.28,0,6.56-.13,3-.08,5.9-.2l.58,0q6.48-.29,12.89-.76h0l.62,0a2.15,2.15,0,0,1,1,4.12l-12.23,5.1a88.47,88.47,0,0,1-33.9,6.76H5A3.83,3.83,0,0,0,1.7,28,11.91,11.91,0,0,0,0,34.91,12.2,12.2,0,0,0,12.3,46.09H29.47Zm1-17.15c6.07-1,18.18-3.66,25.71-7C60,20.28,64,18.34,66.7,17a17,17,0,0,1,7.7-1.84h2.71V30.76H30.61a.89.89,0,0,1-.86-.64h0a.88.88,0,0,1-.06-.27A.91.91,0,0,1,30.46,28.94Zm53.08,5.3V30.76h-4V15.12H198.27V30.76h-5.48v3.48h4.9a.58.58,0,0,1,0,1.16h-4.9v1.36h4.9a.59.59,0,0,1,0,1.17h-4.9v6.15a1.14,1.14,0,0,1-1.14,1.14H181.29a1.14,1.14,0,0,1-1.14-1.14V37.93h-84v6.15A1.14,1.14,0,0,1,95,45.22H84.68a1.14,1.14,0,0,1-1.14-1.14V37.93H16.27a.59.59,0,0,1,0-1.17H83.54V35.4H16.27a.58.58,0,0,1,0-1.16H83.54ZM7.05,37a2.63,2.63,0,0,1-1.33.36c-.11,0-.21,0-.32,0l-.24,0a2.68,2.68,0,0,1-2.67-2.67V31.46a2.68,2.68,0,0,1,2.67-2.67H17.8a.92.92,0,0,1,.47,1.72Z"/><rect class="cls-3" x="83.96" y="30.76" width="11.8" height="3.47"/><path class="cls-3" d="M192.37,37.93h-11.8v6.15a.91.91,0,0,0,.91.91h10a.91.91,0,0,0,.91-.91Z"/><rect class="cls-3" x="180.57" y="30.76" width="11.8" height="3.47"/><rect class="cls-3" x="180.57" y="35.4" width="11.8" height="1.36"/><path class="cls-3" d="M66.1,14.32l-12.23,5.1A88.39,88.39,0,0,1,20,26.18h1.24a88.47,88.47,0,0,0,33.9-6.76l12.23-5.1a2.15,2.15,0,0,0-1-4.12l-.62,0h0A2.14,2.14,0,0,1,66.1,14.32Z"/><path class="cls-3" d="M53.87,19.42l12.23-5.1a2.14,2.14,0,0,0-.38-4.08h0q-6.42.48-12.89.76l-.58,0q-2.94.12-5.9.2-3.27.09-6.56.13l-.08,0c-1.1.41-2.2.83-3.29,1.29L9.54,23A12.19,12.19,0,0,0,5.1,26.18H20A88.39,88.39,0,0,0,53.87,19.42Z"/><path class="cls-3" d="M204.38,37.93h-.08V12.33a2,2,0,0,1,.1-.6h-3.1a2,2,0,0,1,2,2V38.78a2,2,0,0,1-2,2h4.76a6.13,6.13,0,0,1-.34-1.48A2,2,0,0,1,204.38,37.93Z"/><path class="cls-3" d="M203.3,38.78v-25a2,2,0,0,0-2-2V40.78h0A2,2,0,0,0,203.3,38.78Z"/><path class="cls-3" d="M84.68,16.35H95a1.14,1.14,0,0,1,1.14,1.13V30.76h84V17.48a1.14,1.14,0,0,1,1.14-1.13h10.36a1.14,1.14,0,0,1,1.14,1.13V30.76h4.89V15.7H80.11V30.76h3.43V17.48A1.14,1.14,0,0,1,84.68,16.35Zm83.1,2.18a.69.69,0,0,1,.69-.69h8.34a.69.69,0,0,1,.69.69v8.82a.69.69,0,0,1-.69.69h-8.34a.69.69,0,0,1-.69-.69Zm-13.78,0a.69.69,0,0,1,.69-.69H163a.69.69,0,0,1,.69.69v8.82A.69.69,0,0,1,163,28h-8.34a.69.69,0,0,1-.69-.69Zm-13.77,0a.69.69,0,0,1,.69-.69h8.34a.69.69,0,0,1,.69.69v8.82a.69.69,0,0,1-.69.69h-8.34a.69.69,0,0,1-.69-.69Zm-13.78,0a.69.69,0,0,1,.69-.69h8.34a.69.69,0,0,1,.69.69v8.82a.69.69,0,0,1-.69.69h-8.34a.69.69,0,0,1-.69-.69Zm-13.77,0a.69.69,0,0,1,.69-.69h8.34a.69.69,0,0,1,.69.69v8.82a.69.69,0,0,1-.69.69h-8.34a.69.69,0,0,1-.69-.69Zm-13.78,0a.69.69,0,0,1,.69-.69h8.34a.69.69,0,0,1,.69.69v8.82a.69.69,0,0,1-.69.69H99.59a.69.69,0,0,1-.69-.69Z"/><path class="cls-3" d="M84,17.48V30.76H95.75V17.48a.9.9,0,0,0-.9-.9h-10A.9.9,0,0,0,84,17.48Zm1.17,1.05a.69.69,0,0,1,.69-.69h8.34a.69.69,0,0,1,.69.69v8.82a.69.69,0,0,1-.69.69H85.82a.69.69,0,0,1-.69-.69Z"/><path class="cls-3" d="M180.57,17.48V30.76h11.8V17.48a.9.9,0,0,0-.91-.9h-10A.9.9,0,0,0,180.57,17.48Zm1.17,1.05a.69.69,0,0,1,.69-.69h8.34a.69.69,0,0,1,.69.69v8.82a.69.69,0,0,1-.69.69h-8.34a.69.69,0,0,1-.69-.69Z"/><path class="cls-3" d="M74.4,15.7a17,17,0,0,0-7.7,1.84c-2.73,1.38-6.67,3.32-10.53,5-7.53,3.31-19.64,6-25.71,7a.88.88,0,0,0-.71.59.89.89,0,0,0,.86.64H76.52V15.7Z"/><path class="cls-3" d="M29.75,30.12a.88.88,0,0,1-.06-.27.88.88,0,0,0,.06.27Z"/><path class="cls-4" d="M29.75,30.12a.88.88,0,0,1-.06-.27.88.88,0,0,0,.06.27Z"/><path class="cls-3" d="M30.46,29.53c6.07-1,18.18-3.66,25.71-7,3.86-1.7,7.8-3.64,10.53-5a17,17,0,0,1,7.7-1.84h2.12V30.76h.59V15.12H74.4A17,17,0,0,0,66.7,17C64,18.34,60,20.28,56.17,22c-7.53,3.31-19.64,6-25.71,7a.91.91,0,0,0-.77.91.88.88,0,0,0,.06.27A.88.88,0,0,1,30.46,29.53Z"/><path class="cls-4" d="M30.46,29.53c6.07-1,18.18-3.66,25.71-7,3.86-1.7,7.8-3.64,10.53-5a17,17,0,0,1,7.7-1.84h2.12V30.76h.59V15.12H74.4A17,17,0,0,0,66.7,17C64,18.34,60,20.28,56.17,22c-7.53,3.31-19.64,6-25.71,7a.91.91,0,0,0-.77.91.88.88,0,0,0,.06.27A.88.88,0,0,1,30.46,29.53Z"/><polygon class="cls-3" points="80.11 15.12 79.52 15.12 79.52 30.76 80.11 30.76 80.11 15.7 80.11 15.12"/><polygon class="cls-3" points="197.68 15.7 197.68 30.76 198.27 30.76 198.27 15.12 197.69 15.12 197.69 15.7 197.68 15.7"/><polygon class="cls-4" points="197.68 15.7 197.68 30.76 198.27 30.76 198.27 15.12 197.69 15.12 197.69 15.7 197.68 15.7"/><polygon class="cls-3" points="197.68 15.7 197.68 15.12 159.42 15.12 80.11 15.12 80.11 15.7 197.68 15.7"/><polygon class="cls-4" points="197.68 15.7 197.68 15.12 159.42 15.12 80.11 15.12 80.11 15.7 197.68 15.7"/><rect class="cls-3" x="197.68" y="15.12" width="0.01" height="0.59"/><rect class="cls-4" x="197.68" y="15.12" width="0.01" height="0.59"/><rect class="cls-4" x="197.68" y="15.12" width="0.01" height="0.59"/><path class="cls-3" d="M168.47,28h.3a.69.69,0,0,1-.69-.69V18.53a.69.69,0,0,1,.69-.69h-.3a.69.69,0,0,0-.69.69v8.82A.69.69,0,0,0,168.47,28Z"/><path class="cls-3" d="M177.2,18.53v8.82a.69.69,0,0,1-.69.69h.3a.69.69,0,0,0,.69-.69V18.53a.69.69,0,0,0-.69-.69h-.3A.69.69,0,0,1,177.2,18.53Z"/><rect class="cls-3" x="168.08" y="17.84" width="9.11" height="10.2" rx="0.69"/><path class="cls-3" d="M154.69,28H155a.69.69,0,0,1-.69-.69V18.53a.69.69,0,0,1,.69-.69h-.31a.69.69,0,0,0-.69.69v8.82A.69.69,0,0,0,154.69,28Z"/><path class="cls-3" d="M163.42,18.53v8.82a.69.69,0,0,1-.69.69h.3a.69.69,0,0,0,.69-.69V18.53a.69.69,0,0,0-.69-.69h-.3A.69.69,0,0,1,163.42,18.53Z"/><rect class="cls-3" x="154.31" y="17.84" width="9.11" height="10.2" rx="0.69"/><path class="cls-3" d="M140.92,28h.3a.69.69,0,0,1-.69-.69V18.53a.69.69,0,0,1,.69-.69h-.3a.69.69,0,0,0-.69.69v8.82A.69.69,0,0,0,140.92,28Z"/><path class="cls-3" d="M149.65,18.53v8.82A.69.69,0,0,1,149,28h.3a.69.69,0,0,0,.69-.69V18.53a.69.69,0,0,0-.69-.69H149A.69.69,0,0,1,149.65,18.53Z"/><rect class="cls-3" x="140.53" y="17.84" width="9.11" height="10.2" rx="0.69"/><path class="cls-3" d="M127.14,28h.31a.69.69,0,0,1-.69-.69V18.53a.69.69,0,0,1,.69-.69h-.31a.69.69,0,0,0-.69.69v8.82A.69.69,0,0,0,127.14,28Z"/><path class="cls-3" d="M135.87,18.53v8.82a.69.69,0,0,1-.69.69h.3a.69.69,0,0,0,.69-.69V18.53a.69.69,0,0,0-.69-.69h-.3A.69.69,0,0,1,135.87,18.53Z"/><rect class="cls-3" x="126.76" y="17.84" width="9.11" height="10.2" rx="0.69"/><path class="cls-3" d="M113.37,28h.3a.69.69,0,0,1-.69-.69V18.53a.69.69,0,0,1,.69-.69h-.3a.69.69,0,0,0-.69.69v8.82A.69.69,0,0,0,113.37,28Z"/><path class="cls-3" d="M122.09,18.53v8.82a.68.68,0,0,1-.68.69h.3a.69.69,0,0,0,.69-.69V18.53a.69.69,0,0,0-.69-.69h-.3A.68.68,0,0,1,122.09,18.53Z"/><rect class="cls-3" x="112.98" y="17.84" width="9.11" height="10.2" rx="0.69"/><path class="cls-3" d="M99.59,28h.3a.68.68,0,0,1-.68-.69V18.53a.68.68,0,0,1,.68-.69h-.3a.69.69,0,0,0-.69.69v8.82A.69.69,0,0,0,99.59,28Z"/><path class="cls-3" d="M108.32,18.53v8.82a.69.69,0,0,1-.69.69h.3a.69.69,0,0,0,.69-.69V18.53a.69.69,0,0,0-.69-.69h-.3A.69.69,0,0,1,108.32,18.53Z"/><rect class="cls-3" x="99.21" y="17.84" width="9.11" height="10.2" rx="0.69"/><path class="cls-3" d="M85.82,28h.3a.69.69,0,0,1-.69-.69V18.53a.69.69,0,0,1,.69-.69h-.3a.69.69,0,0,0-.69.69v8.82A.69.69,0,0,0,85.82,28Z"/><path class="cls-3" d="M94.54,18.53v8.82a.69.69,0,0,1-.69.69h.31a.69.69,0,0,0,.69-.69V18.53a.69.69,0,0,0-.69-.69h-.31A.69.69,0,0,1,94.54,18.53Z"/><rect class="cls-3" x="85.43" y="17.84" width="9.11" height="10.2" rx="0.69"/><path class="cls-3" d="M182.43,28h.3a.69.69,0,0,1-.69-.69V18.53a.69.69,0,0,1,.69-.69h-.3a.69.69,0,0,0-.69.69v8.82A.69.69,0,0,0,182.43,28Z"/><path class="cls-3" d="M191.16,18.53v8.82a.69.69,0,0,1-.69.69h.3a.69.69,0,0,0,.69-.69V18.53a.69.69,0,0,0-.69-.69h-.3A.69.69,0,0,1,191.16,18.53Z"/><rect class="cls-3" x="182.04" y="17.84" width="9.11" height="10.2" rx="0.69"/><path class="cls-3" d="M5.4,36.4A1.62,1.62,0,0,0,6,36.19a1.62,1.62,0,0,1-.63.21Z"/><path class="cls-3" d="M4,31.46v3.22A1.72,1.72,0,0,0,4.52,36l3-1.71h-2a.87.87,0,0,1-.87-.87v-1a.87.87,0,0,1,.87-.87h6.82l3.05-1.76H5.72A1.75,1.75,0,0,0,4,31.46Z"/><polygon class="cls-3" points="17.25 29.71 17.25 29.71 14.21 31.47 17.25 29.71"/><path class="cls-3" d="M5.45,31.47a.87.87,0,0,0-.87.87v1a.87.87,0,0,0,.87.87h2l4.78-2.77Z"/><path class="cls-3" d="M18.7,29.47a.93.93,0,0,0-.9-.68h-.55a.92.92,0,0,1,.46,1.72L6.5,37a2.86,2.86,0,0,1-1.1.33c.11,0,.21,0,.32,0A2.63,2.63,0,0,0,7.05,37l11.22-6.48A.94.94,0,0,0,18.7,29.47Z"/><path class="cls-3" d="M5.16,36.43l.24,0h0Z"/><path class="cls-3" d="M4,34.68V31.46a1.75,1.75,0,0,1,1.75-1.75H5.16a1.76,1.76,0,0,0-1.75,1.75v3.22a1.72,1.72,0,0,0,.8,1.45L4.52,36A1.72,1.72,0,0,1,4,34.68Z"/><path class="cls-3" d="M17.71,30.51a.92.92,0,0,0-.46-1.72H5.16a2.68,2.68,0,0,0-2.67,2.67v3.22a2.68,2.68,0,0,0,2.67,2.67l.24,0A2.86,2.86,0,0,0,6.5,37ZM5.4,36.4l-.24,0a1.76,1.76,0,0,1-.45-.07l-.1,0a2.17,2.17,0,0,1-.41-.19h0a1.72,1.72,0,0,1-.8-1.45V31.46a1.76,1.76,0,0,1,1.75-1.75H17.25L14.2,31.47,9.42,34.24,6,36.19A1.62,1.62,0,0,1,5.4,36.4Z"/><polygon class="cls-3" points="14.21 31.47 17.25 29.71 15.32 29.71 15.32 29.71 12.27 31.47 14.21 31.47"/><polygon class="cls-4" points="14.21 31.47 17.25 29.71 15.32 29.71 15.32 29.71 12.27 31.47 14.21 31.47"/><path class="cls-3" d="M7.49,34.24,4.52,36a1.85,1.85,0,0,0,.88.45A1.62,1.62,0,0,0,6,36.19l3.39-1.95Z"/><path class="cls-4" d="M7.49,34.24,4.52,36a1.85,1.85,0,0,0,.88.45A1.62,1.62,0,0,0,6,36.19l3.39-1.95Z"/><polygon class="cls-3" points="7.49 34.24 9.42 34.24 14.21 31.47 12.27 31.47 7.49 34.24"/><polygon class="cls-4" points="7.49 34.24 9.42 34.24 14.21 31.47 12.27 31.47 7.49 34.24"/><path class="cls-3" d="M4.52,36l-.31.18h0a2.17,2.17,0,0,0,.41.19l.1,0a1.76,1.76,0,0,0,.45.07l.24,0A1.85,1.85,0,0,1,4.52,36Z"/><path class="cls-4" d="M4.52,36l-.31.18h0a2.17,2.17,0,0,0,.41.19l.1,0a1.76,1.76,0,0,0,.45.07l.24,0A1.85,1.85,0,0,1,4.52,36Z"/><path class="cls-3" d="M197.27,34.82a.58.58,0,0,1-.58.58h1a.58.58,0,0,0,0-1.16h-1A.58.58,0,0,1,197.27,34.82Z"/><path class="cls-3" d="M197.27,37.34a.58.58,0,0,1-.58.59h1a.59.59,0,0,0,0-1.17h-1A.58.58,0,0,1,197.27,37.34Z"/><path class="cls-3" d="M16.27,34.24a.58.58,0,0,0,0,1.16H83.54V34.24H16.27Z"/><rect class="cls-3" x="96.17" y="34.24" width="83.98" height="1.16"/><rect class="cls-3" x="83.96" y="34.24" width="11.8" height="1.16"/><rect class="cls-3" x="180.57" y="34.24" width="11.8" height="1.16"/><path class="cls-3" d="M196.69,35.4a.58.58,0,0,0,0-1.16h-3.9V35.4Z"/><path class="cls-3" d="M17.27,36.76h-1a.59.59,0,0,0,0,1.17H83.54V36.76Z"/><rect class="cls-3" x="83.96" y="36.76" width="11.8" height="1.16"/><rect class="cls-3" x="180.57" y="36.76" width="11.8" height="1.16"/><path class="cls-3" d="M196.69,37.93a.59.59,0,0,0,0-1.17h-3.9v1.17Z"/><rect class="cls-3" x="96.17" y="36.76" width="83.98" height="1.16"/><path class="cls-3" d="M84.68,45h.19a.91.91,0,0,1-.91-.91V17.48a.9.9,0,0,1,.91-.9h-.19a.9.9,0,0,0-.91.9v26.6A.91.91,0,0,0,84.68,45Z"/><path class="cls-3" d="M96.17,35.4V17.48A1.14,1.14,0,0,0,95,16.35h-.18A1.14,1.14,0,0,1,96,17.48v26.6a1.14,1.14,0,0,1-1.13,1.14H95a1.14,1.14,0,0,0,1.14-1.14V35.4Z"/><path class="cls-3" d="M83.54,36.76v7.32a1.14,1.14,0,0,0,1.14,1.14H94.85A1.14,1.14,0,0,0,96,44.08V17.48a1.14,1.14,0,0,0-1.13-1.13H84.68a1.14,1.14,0,0,0-1.14,1.13V36.76Zm.23-19.28a.9.9,0,0,1,.91-.9H94.85a.9.9,0,0,1,.9.9v26.6a.9.9,0,0,1-.9.91H84.68a.91.91,0,0,1-.91-.91Z"/><path class="cls-3" d="M180.57,44.08V17.48a.9.9,0,0,1,.91-.9h-.19a.9.9,0,0,0-.91.9v26.6a.91.91,0,0,0,.91.91h.19A.91.91,0,0,1,180.57,44.08Z"/><path class="cls-3" d="M191.65,16.35h-.19a1.14,1.14,0,0,1,1.14,1.13v26.6a1.14,1.14,0,0,1-1.14,1.14h.19a1.14,1.14,0,0,0,1.14-1.14V17.48A1.14,1.14,0,0,0,191.65,16.35Z"/><path class="cls-3" d="M192.6,44.08V17.48a1.14,1.14,0,0,0-1.14-1.13H181.29a1.14,1.14,0,0,0-1.14,1.13v26.6a1.14,1.14,0,0,0,1.14,1.14h10.17A1.14,1.14,0,0,0,192.6,44.08Zm-1.14.91H181.29a.91.91,0,0,1-.91-.91V17.48a.9.9,0,0,1,.91-.9h10.17a.9.9,0,0,1,.91.9v26.6A.91.91,0,0,1,191.46,45Z"/><path class="cls-3" d="M204.3,37.93h.08a2,2,0,0,1-.08-.54Z"/><path class="cls-3" d="M259.78,57.57a4.77,4.77,0,0,1-2.31.61h1.24a4.74,4.74,0,0,0,1.69-.32A4.39,4.39,0,0,1,259.78,57.57Z"/><path class="cls-3" d="M257.18,52.5h0l.19-.19a4.72,4.72,0,0,1,.69-1.63l-.84-.84h-2.34V52.5h2.31Z"/><path class="cls-3" d="M257.33,54.19h-4.74a4.56,4.56,0,0,0,7,3.26A4.78,4.78,0,0,1,257.33,54.19Z"/><path class="cls-3" d="M284.54,53.34a4.84,4.84,0,0,1-4.84,4.84H280a4.84,4.84,0,0,0,4.84-4.84c0-.11,0-.21,0-.32h-.32C284.52,53.13,284.54,53.23,284.54,53.34Z"/><path class="cls-3" d="M284.54,53.34c0-.11,0-.21,0-.32h-1.24c0,.11,0,.21,0,.32a4.84,4.84,0,0,1-4.84,4.84h1.24A4.84,4.84,0,0,0,284.54,53.34Z"/><path class="cls-3" d="M282.86,53.34c0-.11,0-.21,0-.32h-3.7v1.17h-5.54a4.67,4.67,0,0,0,9.28-.85Z"/><path class="cls-3" d="M283.3,53.34c0-.11,0-.21,0-.32h-.45c0,.11,0,.21,0,.32a4.83,4.83,0,0,1-4.69,4.82l-.15,0h.44A4.84,4.84,0,0,0,283.3,53.34Z"/><path class="cls-3" d="M270.89,52.5l-.37-.37v.37Z"/><rect class="cls-3" x="278.51" y="53.02" width="0.61" height="1.17"/><path class="cls-3" d="M257.17,52.49h.15c0-.07,0-.13,0-.2Z"/><path class="cls-3" d="M278.51,53h-7.1l-.52-.52h-.37v-.37l-2.3-2.3c-.55-.55-1.13-1.12-1.81-1.81V44.7H255.08l4.5,4.51a4.82,4.82,0,0,1,2.34-.7h1.84a4.77,4.77,0,0,1,4.76,5.69h10Z"/><path class="cls-3" d="M345.71,49.83c-1,1-1.92,1.92-3.19,3.19h.39l3.19-3.19Z"/><path class="cls-3" d="M347.12,49.83,343.93,53h2.87a4.83,4.83,0,0,1,1.48-3.19Z"/><path class="cls-3" d="M246.33,50.07a4.91,4.91,0,0,1,1.21,2.43h1.4V49.83h-2.37Z"/><path class="cls-3" d="M239.06,49V47h-.61v1.38L233.84,53h2.44A4.82,4.82,0,0,1,239.06,49Z"/><rect class="cls-3" x="238.45" y="44.7" width="0.61" height="2.33"/><rect class="cls-4" x="238.45" y="44.7" width="0.61" height="2.33"/><polygon class="cls-3" points="257.21 49.83 254.87 47.49 254.87 49.83 257.21 49.83"/><path class="cls-3" d="M345.71,49.83h.39l1.42-1.42V48Z"/><path class="cls-3" d="M348.54,47v1.38l-1.42,1.42h1.16a4.8,4.8,0,0,1,3.17-1.32h1.07V44.7h-4Z"/><polygon class="cls-3" points="248.94 49.83 248.94 47.46 246.57 49.83 248.94 49.83"/><path class="cls-3" d="M239.06,47V49a4.77,4.77,0,0,1,1.88-.45h1.84a4.78,4.78,0,0,1,1.78.34l4.14-4.14h-9.64Z"/><path class="cls-3" d="M348.54,48.41V47h-1v1h0v.38l-1.42,1.42L342.91,53h1l3.19-3.19Z"/><path class="cls-3" d="M347.52,48h0V47h-5.73a.37.37,0,0,1,0,.73H271.51V47h-5.1v1c.68.69,1.26,1.26,1.81,1.81l2.3,2.3.37.37.52.52h71.11c1.27-1.27,2.18-2.17,3.19-3.19Zm-5.76,2.66H271.51V50h70.25a.38.38,0,0,1,.37.37A.37.37,0,0,1,341.76,50.69Zm0-1.46H271.51V48.5h70.25a.37.37,0,0,1,.37.36A.38.38,0,0,1,341.76,49.23Z"/><rect class="cls-3" x="347.52" y="44.7" width="1.02" height="2.33"/><rect class="cls-4" x="347.52" y="44.7" width="1.02" height="2.33"/><path class="cls-3" d="M347.52,44.7H266.41V47h81.11V44.7Z"/><path class="cls-4" d="M347.52,44.7H266.41V47h81.11V44.7Z"/><path class="cls-3" d="M341.76,50h-.59a.37.37,0,0,1,.37.37.36.36,0,0,1-.37.36h.59a.37.37,0,0,0,.37-.36A.38.38,0,0,0,341.76,50Z"/><path class="cls-3" d="M341.76,48.5h-.59a.36.36,0,0,1,.37.36.37.37,0,0,1-.37.37h.59a.38.38,0,0,0,.37-.37A.37.37,0,0,0,341.76,48.5Z"/><path class="cls-3" d="M341.17,47a.37.37,0,1,1,0,.73h.59a.37.37,0,0,0,0-.73h-.62Z"/><path class="cls-3" d="M341.54,50.33a.37.37,0,0,0-.37-.37H271.51v.73h69.66A.36.36,0,0,0,341.54,50.33Z"/><path class="cls-3" d="M341.54,48.86a.36.36,0,0,0-.37-.36H271.51v.73h69.66A.37.37,0,0,0,341.54,48.86Z"/><path class="cls-3" d="M341.54,47.4a.36.36,0,0,0-.37-.37H271.51v.73h69.66A.36.36,0,0,0,341.54,47.4Z"/><path class="cls-3" d="M238.45,47h-1v1.38L232.82,53h1l4.61-4.61Z"/><path class="cls-3" d="M237.43,47h-5.74a.37.37,0,0,1,.34.37.36.36,0,0,1-.36.36H217.81V47h-5.1v1.38L217.32,53h15.5l4.61-4.61Zm-5.76,3.66H217.81V50h13.86a.37.37,0,0,1,.36.37A.36.36,0,0,1,231.67,50.69Zm0-1.46H217.81V48.5h13.86a.36.36,0,0,1,.36.36A.37.37,0,0,1,231.67,49.23Z"/><rect class="cls-3" x="237.43" y="44.7" width="1.02" height="2.33"/><rect class="cls-4" x="237.43" y="44.7" width="1.02" height="2.33"/><path class="cls-3" d="M217.81,47h19.62V44.7H212.71V47Z"/><path class="cls-4" d="M217.81,47h19.62V44.7H212.71V47Z"/><path class="cls-3" d="M231.67,50h-.59a.37.37,0,0,1,.37.37.36.36,0,0,1-.37.36h.59a.36.36,0,0,0,.36-.36A.37.37,0,0,0,231.67,50Z"/><path class="cls-3" d="M231.67,48.5h-.59a.36.36,0,0,1,.37.36.37.37,0,0,1-.37.37h.59a.37.37,0,0,0,.36-.37A.36.36,0,0,0,231.67,48.5Z"/><path class="cls-3" d="M231.08,47a.37.37,0,1,1,0,.73h.59a.36.36,0,0,0,.36-.36.37.37,0,0,0-.34-.37h-.61Z"/><path class="cls-3" d="M231.45,50.33a.37.37,0,0,0-.37-.37H217.81v.73h13.27A.36.36,0,0,0,231.45,50.33Z"/><path class="cls-3" d="M231.45,48.86a.36.36,0,0,0-.37-.36H217.81v.73h13.27A.37.37,0,0,0,231.45,48.86Z"/><path class="cls-3" d="M231.45,47.4a.36.36,0,0,0-.37-.37H217.81v.73h13.27A.36.36,0,0,0,231.45,47.4Z"/><path class="cls-3" d="M351.78,49.85a3.49,3.49,0,0,0,0,7h-.17a3.39,3.39,0,0,0,.91-.13V54.66a1.48,1.48,0,0,1-.56.12h-.35a1.45,1.45,0,1,1,0-2.89l.17,0,.18,0H352l.5-.51V50a3.45,3.45,0,0,0-.91-.13Z"/><path class="cls-3" d="M352.52,56.71a3.39,3.39,0,0,1-.91.13,3.51,3.51,0,1,1,0-7,3.45,3.45,0,0,1,.91.13V48.69a4.2,4.2,0,0,0-1.07-.18A4.79,4.79,0,0,0,346.8,53c0,.11,0,.21,0,.32a4.82,4.82,0,0,0,4.68,4.82,4.69,4.69,0,0,0,1.07-.17Z"/><path class="cls-3" d="M351.43,54.19V52.5h0L352,52c-.05,0-.1,0-.17-.05h0l-.17,0a1.45,1.45,0,1,0,0,2.89h.17a1.63,1.63,0,0,0,.5-.16h0a1.06,1.06,0,0,0,.23-.19,1.67,1.67,0,0,0,.16-.12l0,0,.05-.09h-1.32Z"/><path class="cls-3" d="M351.73,58.18h.79v-.07A5.16,5.16,0,0,1,351.73,58.18Z"/><path class="cls-3" d="M352.52,48.56V48.5h-.79A5.06,5.06,0,0,1,352.52,48.56Z"/><path class="cls-3" d="M352.52,58a4.69,4.69,0,0,1-1.07.17l-.16,0h.44a5.16,5.16,0,0,0,.79-.07Z"/><path class="cls-3" d="M351.61,48.5h-.16a4.2,4.2,0,0,1,1.07.18v-.13a5.06,5.06,0,0,0-.79-.06Z"/><path class="cls-3" d="M348.46,53.34a3.49,3.49,0,0,1,3.32-3.49l-.17,0a3.51,3.51,0,1,0,0,7h.17A3.51,3.51,0,0,1,348.46,53.34Z"/><path class="cls-3" d="M352.68,54.3a1.67,1.67,0,0,1-.16.12,1.06,1.06,0,0,1-.23.19h0a1.63,1.63,0,0,1-.5.16H352a1.48,1.48,0,0,0,.56-.12,1.39,1.39,0,0,0,.6-.47h-.37l-.05.09Z"/><path class="cls-3" d="M352,52l.07-.06H352l-.18,0h0C351.85,51.92,351.9,52,352,52Z"/><polygon class="cls-3" points="351.95 51.96 351.43 52.49 351.44 52.5 351.43 52.5 351.43 54.19 352.03 54.19 352.52 54.19 352.52 51.39 352.02 51.9 351.95 51.96"/><path class="cls-3" d="M243.9,52.5h.59a3.88,3.88,0,0,0-.14-.45Z"/><path class="cls-3" d="M241.27,49.85a3.49,3.49,0,0,0,0,7h-.17a3.49,3.49,0,0,0,3.38-2.65h-1.87a1.42,1.42,0,0,1-1.16.59h-.35a1.45,1.45,0,1,1,0-2.89l.17,0,.18,0h.06L243,50.4a3.45,3.45,0,0,0-1.9-.57Z"/><path class="cls-3" d="M245.53,54.19h-1.05a3.5,3.5,0,1,1-3.38-4.36,3.45,3.45,0,0,1,1.9.57l.81-.81a4.82,4.82,0,0,0-2.87-1.08,4.77,4.77,0,0,0-1.88.45A4.82,4.82,0,0,0,236.28,53c0,.11,0,.21,0,.32a4.67,4.67,0,0,0,9.28.85Z"/><path class="cls-3" d="M244.35,52.05a3.88,3.88,0,0,1,.14.45h1a4.53,4.53,0,0,0-.39-1.23Z"/><path class="cls-3" d="M241.1,51.89a1.45,1.45,0,1,0,0,2.89h.17a1.63,1.63,0,0,0,.5-.16h0a1.9,1.9,0,0,0,.39-.31l0,0,.05-.09h-1.32V52.5h0l.52-.53-.17-.05Z"/><path class="cls-3" d="M242.46,58.18h.32a4.82,4.82,0,0,0,4.75-4h-.32A4.82,4.82,0,0,1,242.46,58.18Z"/><path class="cls-3" d="M246.16,50.25a4.79,4.79,0,0,1,1.06,2.25h.32a4.91,4.91,0,0,0-1.21-2.43Z"/><path class="cls-3" d="M242.46,48.5a4.76,4.76,0,0,1,2,.44l.1-.1a4.78,4.78,0,0,0-1.78-.34Z"/><path class="cls-3" d="M247.21,54.19H246a4.84,4.84,0,0,1-4.76,4h1.24A4.82,4.82,0,0,0,247.21,54.19Z"/><path class="cls-3" d="M245.42,51A4.62,4.62,0,0,1,246,52.5h1.24a4.79,4.79,0,0,0-1.06-2.25Z"/><path class="cls-3" d="M241.22,48.5a4.8,4.8,0,0,1,2.79.89l.45-.45a4.76,4.76,0,0,0-2-.44Z"/><path class="cls-3" d="M246,54.19h-.45a4.84,4.84,0,0,1-4.59,4l-.16,0h.44A4.84,4.84,0,0,0,246,54.19Z"/><path class="cls-3" d="M245.14,51.27a4.53,4.53,0,0,1,.39,1.23H246a4.62,4.62,0,0,0-.56-1.52Z"/><path class="cls-3" d="M241.1,48.5h-.16a4.82,4.82,0,0,1,2.87,1.08l.2-.2a4.8,4.8,0,0,0-2.79-.89Z"/><path class="cls-3" d="M237.94,53.34a3.5,3.5,0,0,1,3.33-3.49l-.17,0a3.51,3.51,0,1,0,0,7h.17A3.51,3.51,0,0,1,237.94,53.34Z"/><path class="cls-3" d="M242.17,54.3a1.9,1.9,0,0,1-.39.31h0a1.63,1.63,0,0,1-.5.16h.18a1.42,1.42,0,0,0,1.16-.59h-.37l-.05.09Z"/><path class="cls-3" d="M241.27,51.91l.17.05.07-.06h-.06Z"/><path class="cls-3" d="M260.7,50.32l1.58,1.59.16,0a1.45,1.45,0,0,1,0,2.89h-.36a1.42,1.42,0,0,1-1.16-.59h-1.87a3.35,3.35,0,1,0,3-4.36l.18,0A3.43,3.43,0,0,0,260.7,50.32Z"/><path class="cls-3" d="M259.55,52.5h.33l-.62-.62a4.13,4.13,0,0,0-.22.62Z"/><path class="cls-3" d="M266.6,53.34a4.59,4.59,0,0,0-7-4.13l1,1a3.5,3.5,0,1,1,1.69,6.64h-.18a3.51,3.51,0,0,1-3.39-2.65h-1.36a4.78,4.78,0,0,0,2.23,3.26,4.8,4.8,0,0,1-2.37.71l-.16,0h.44a4.77,4.77,0,0,0,2.31-.61,4.39,4.39,0,0,0,.62.29,4.74,4.74,0,0,1-1.69.32H259a4.87,4.87,0,0,0,1.53-.27,4.68,4.68,0,0,0,1.36.25A4.82,4.82,0,0,0,266.6,53.34Z"/><path class="cls-3" d="M257.32,52.5h1.37a3.29,3.29,0,0,1,.34-.85l-1-1a4.72,4.72,0,0,0-.69,1.63C257.34,52.37,257.34,52.43,257.32,52.5Z"/><path class="cls-3" d="M262.08,54.78h.18a1.57,1.57,0,0,0,.49-.16h0a1.48,1.48,0,0,0,.39-.31l0,0a1.33,1.33,0,0,0,.25-.41.06.06,0,0,0,0,0,1.34,1.34,0,0,0,.1-.49,1.39,1.39,0,0,0-.1-.5.08.08,0,0,0,0,0,1.46,1.46,0,0,0-.25-.41l0,0a1.45,1.45,0,0,0-.39-.3h0a1.39,1.39,0,0,0-.45-.14l.56.57h0v1.69h-1.94A1.42,1.42,0,0,0,262.08,54.78Z"/><path class="cls-3" d="M267.09,49.83a4.84,4.84,0,0,0-3.33-1.33h-.32a4.84,4.84,0,1,1,0,9.68h.32a4.83,4.83,0,0,0,3.33-8.35Z"/><path class="cls-3" d="M268.29,53.34a4.84,4.84,0,0,0-4.85-4.84h-1.23a4.84,4.84,0,1,1,0,9.68h1.23A4.85,4.85,0,0,0,268.29,53.34Z"/><path class="cls-3" d="M267.05,53.34a4.84,4.84,0,0,0-4.84-4.84h-.29a4.83,4.83,0,0,1,0,9.65l-.16,0h.45A4.84,4.84,0,0,0,267.05,53.34Z"/><path class="cls-3" d="M259.05,54.19h-.36a3.51,3.51,0,0,0,3.39,2.65h.18A3.5,3.5,0,0,1,259.05,54.19Z"/><path class="cls-3" d="M262.26,49.85l-.18,0a3.5,3.5,0,0,0-1.51.36l.13.13A3.43,3.43,0,0,1,262.26,49.85Z"/><path class="cls-3" d="M259,52.5a4.13,4.13,0,0,1,.22-.62l-.23-.23a3.29,3.29,0,0,0-.34.85Z"/><path class="cls-3" d="M262.76,52.07a1.45,1.45,0,0,1,.39.3l0,0a1.46,1.46,0,0,1,.25.41.08.08,0,0,1,0,0,1.39,1.39,0,0,1,.1.5,1.34,1.34,0,0,1-.1.49.06.06,0,0,1,0,0,1.33,1.33,0,0,1-.25.41l0,0a1.48,1.48,0,0,1-.39.31h0a1.57,1.57,0,0,1-.49.16h.18a1.45,1.45,0,0,0,0-2.89l-.16,0h0a1.39,1.39,0,0,1,.45.14Z"/><polygon class="cls-3" points="254.87 47.49 254.26 46.88 254.26 52.5 254.87 52.5 254.87 49.83 254.87 47.49"/><polygon class="cls-3" points="254.47 44.7 262.26 52.49 262.25 52.5 262.26 52.5 262.26 54.19 262.86 54.19 262.86 52.5 262.85 52.5 262.86 52.49 262.3 51.92 262.28 51.91 260.7 50.32 260.57 50.19 259.58 49.21 255.08 44.7 254.7 44.7 254.47 44.7"/><polygon class="cls-3" points="243.9 52.5 244.35 52.05 245.13 51.27 245.42 50.98 246.16 50.24 246.33 50.07 246.57 49.83 248.94 47.46 248.94 46.85 243.3 52.5 243.9 52.5"/><path class="cls-3" d="M257.33,54.19h4.93V52.5h0l-7.79-7.79H248.7l-4.14,4.14-.1.1-.45.45-.2.2-.81.81-1.49,1.5-.07.06-.52.53h0v1.69h16.41Zm-8.39-6.73v5H243.3l5.64-5.64Zm5.32,5V46.88l.61.61,2.34,2.34.84.84,1,1,.23.23.62.62h-5.62Z"/><path class="cls-3" d="M204.3,15.12V37.39a2,2,0,0,0,.08.54,2,2,0,0,0,1.35,1.37c0-.19,0-.38,0-.56V10.83c0-.13,0-.27,0-.4a2,2,0,0,0-1.33,1.3,2,2,0,0,0-.1.6Z"/><path class="cls-3" d="M289.19,29.37H228.58v3.47H352.43a33.24,33.24,0,0,0-.45-3.47H289.19Z"/><path class="cls-3" d="M355.75,34q0-.59-.06-1.17c-.08-1.17-.21-2.33-.4-3.47a34.86,34.86,0,0,0-3.87-11.14l-.3-.53c-.25-.42-.5-.84-.76-1.25-.46-.73-.94-1.45-1.45-2.14l-.45-.59a35.31,35.31,0,0,0-7.16-7c-.92-.67-1.87-1.3-2.86-1.88a35.18,35.18,0,0,0-35.72,0h7.86c.67-.22,1.34-.43,2-.61a32.23,32.23,0,0,1,8-1h0q.75,0,1.5,0l.56,0,.92.07.7.08.74.09.8.12.57.11.91.17.27.07a29.83,29.83,0,0,1,3,.83l.12,0,.47.15h0a33.35,33.35,0,0,1,3.93,1.67,32.3,32.3,0,0,1,9.13,7l.51.59c.59.69,1.16,1.4,1.7,2.14a31.77,31.77,0,0,1,4.7,9.38c.05.17.1.36.15.54.28,1,.52,2,.71,3a33.24,33.24,0,0,1,.45,3.47c0,.39.05.78.06,1.17s0,.79,0,1.18v19h.6a1.39,1.39,0,0,1-.6.47v3.52h.77a4.81,4.81,0,0,0,2.49-.7V35.19C355.78,34.8,355.76,34.4,355.75,34Z"/><path class="cls-3" d="M288.68,34h-60.1v1.36H352.52v-.18c0-.39,0-.79,0-1.18H288.68Z"/><path class="cls-3" d="M306.08,6.75H207.33a5.91,5.91,0,0,0-1.6,3.68c0,.13,0,.27,0,.4V38.74c0,.18,0,.37,0,.56a6.13,6.13,0,0,0,.34,1.48,6,6,0,0,0,5.6,3.92H352.52V36.53H228.58v6.16a1.14,1.14,0,0,1-1.14,1.14H217.09A1.14,1.14,0,0,1,216,42.69V36.53h-.7a.58.58,0,0,1,0-1.16h.7V34h-.7a.58.58,0,0,1-.58-.58.59.59,0,0,1,.58-.59h.7V29.37h-6.83V13.72H344.21a32.3,32.3,0,0,0-9.13-7h-29Z"/><path class="cls-3" d="M228.16,36.53H216.37v6.16a.9.9,0,0,0,.9.91h10a.91.91,0,0,0,.91-.91Z"/><rect class="cls-3" x="216.37" y="29.37" width="11.8" height="3.47"/><rect class="cls-3" x="216.37" y="34.01" width="11.8" height="1.36"/><path class="cls-3" d="M216.37,16.09V29.37h11.79V16.09a.91.91,0,0,0-.91-.91h-10A.9.9,0,0,0,216.37,16.09Zm1.16,1.05a.69.69,0,0,1,.69-.69h8.35a.68.68,0,0,1,.68.69V26a.68.68,0,0,1-.68.69h-8.35a.69.69,0,0,1-.69-.69Z"/><path class="cls-3" d="M296.45,14.31H209.71V29.37H216V16.09A1.14,1.14,0,0,1,217.09,15h10.35a1.14,1.14,0,0,1,1.14,1.14V29.37H352c-.19-1-.43-2-.71-3a.69.69,0,0,1-.54.28h-8.34a.69.69,0,0,1-.69-.69V17.14a.69.69,0,0,1,.69-.69h4c-.54-.74-1.11-1.45-1.7-2.14H296.45ZM241,26a.69.69,0,0,1-.69.69H232a.69.69,0,0,1-.69-.69V17.14a.69.69,0,0,1,.69-.69h8.34a.69.69,0,0,1,.69.69Zm13.78,0a.69.69,0,0,1-.69.69h-8.34a.69.69,0,0,1-.69-.69V17.14a.69.69,0,0,1,.69-.69h8.34a.69.69,0,0,1,.69.69Zm13.77,0a.69.69,0,0,1-.69.69h-8.34a.69.69,0,0,1-.69-.69V17.14a.69.69,0,0,1,.69-.69h8.34a.69.69,0,0,1,.69.69Zm13.78,0a.69.69,0,0,1-.69.69h-8.34a.69.69,0,0,1-.69-.69V17.14a.69.69,0,0,1,.69-.69h8.34a.69.69,0,0,1,.69.69Zm13.77,0a.69.69,0,0,1-.69.69H287.1a.68.68,0,0,1-.58-.34.69.69,0,0,1-.11-.35V17.14a.69.69,0,0,1,.69-.69h8.34a.69.69,0,0,1,.69.69Zm13.78,0a.69.69,0,0,1-.69.69h-8.34a.69.69,0,0,1-.69-.69V17.14a.69.69,0,0,1,.69-.69h8.34a.69.69,0,0,1,.69.69Zm18-8.82a.69.69,0,0,1,.69-.69H337a.68.68,0,0,1,.69.69V26a.69.69,0,0,1-.69.69h-8.34a.69.69,0,0,1-.69-.69Zm-5-.69h.3a.69.69,0,0,1,.69.69V26a.69.69,0,0,1-.69.69h-8.34a.69.69,0,0,1-.69-.69V17.14a.69.69,0,0,1,.69-.69h8Z"/><polygon class="cls-3" points="209.71 13.72 209.13 13.72 209.13 29.37 209.71 29.37 209.71 14.31 209.71 13.72"/><path class="cls-3" d="M297,13.72H209.71v.59h135l-.51-.59H297Z"/><path class="cls-4" d="M297,13.72H209.71v.59h135l-.51-.59H297Z"/><path class="cls-3" d="M300.49,26V17.14a.69.69,0,0,1,.69-.69h-.3a.69.69,0,0,0-.69.69V26a.69.69,0,0,0,.69.69h.3A.69.69,0,0,1,300.49,26Z"/><path class="cls-3" d="M309.22,16.45h-.3a.69.69,0,0,1,.69.69V26a.69.69,0,0,1-.69.69h.3a.69.69,0,0,0,.69-.69V17.14A.69.69,0,0,0,309.22,16.45Z"/><rect class="cls-3" x="300.49" y="16.45" width="9.11" height="10.2" rx="0.69"/><path class="cls-3" d="M286.72,26V17.14a.68.68,0,0,1,.42-.64.76.76,0,0,1,.27-.05h-.31a.69.69,0,0,0-.69.69V26a.69.69,0,0,0,.11.35.68.68,0,0,0,.58.34h.31a.6.6,0,0,1-.27-.06A.68.68,0,0,1,286.72,26Z"/><path class="cls-3" d="M295.44,16.45h-.3a.69.69,0,0,1,.69.69V26a.69.69,0,0,1-.69.69h.3a.69.69,0,0,0,.69-.69V17.14A.69.69,0,0,0,295.44,16.45Z"/><path class="cls-3" d="M295.83,26V17.14a.69.69,0,0,0-.69-.69h-7.73a.76.76,0,0,0-.27.05.68.68,0,0,0-.42.64V26a.68.68,0,0,0,.42.63.6.6,0,0,0,.27.06h7.73A.69.69,0,0,0,295.83,26Z"/><path class="cls-3" d="M272.94,26V17.14a.69.69,0,0,1,.69-.69h-.3a.69.69,0,0,0-.69.69V26a.69.69,0,0,0,.69.69h.3A.69.69,0,0,1,272.94,26Z"/><path class="cls-3" d="M281.67,16.45h-.31a.68.68,0,0,1,.69.69V26a.69.69,0,0,1-.69.69h.31a.69.69,0,0,0,.69-.69V17.14A.69.69,0,0,0,281.67,16.45Z"/><rect class="cls-3" x="272.94" y="16.45" width="9.11" height="10.2" rx="0.69"/><path class="cls-3" d="M259.16,26V17.14a.69.69,0,0,1,.69-.69h-.3a.69.69,0,0,0-.69.69V26a.69.69,0,0,0,.69.69h.3A.69.69,0,0,1,259.16,26Z"/><path class="cls-3" d="M267.89,16.45h-.3a.69.69,0,0,1,.69.69V26a.69.69,0,0,1-.69.69h.3a.69.69,0,0,0,.69-.69V17.14A.69.69,0,0,0,267.89,16.45Z"/><rect class="cls-3" x="259.16" y="16.45" width="9.11" height="10.2" rx="0.69"/><path class="cls-3" d="M245.39,26V17.14a.69.69,0,0,1,.69-.69h-.3a.69.69,0,0,0-.69.69V26a.69.69,0,0,0,.69.69h.3A.69.69,0,0,1,245.39,26Z"/><path class="cls-3" d="M254.12,16.45h-.31a.69.69,0,0,1,.69.69V26a.69.69,0,0,1-.69.69h.31a.69.69,0,0,0,.69-.69V17.14A.69.69,0,0,0,254.12,16.45Z"/><rect class="cls-3" x="245.39" y="16.45" width="9.11" height="10.2" rx="0.69"/><path class="cls-3" d="M231.61,26V17.14a.69.69,0,0,1,.69-.69H232a.69.69,0,0,0-.69.69V26a.69.69,0,0,0,.69.69h.3A.69.69,0,0,1,231.61,26Z"/><path class="cls-3" d="M240.34,16.45H240a.69.69,0,0,1,.69.69V26a.69.69,0,0,1-.69.69h.3A.69.69,0,0,0,241,26V17.14A.69.69,0,0,0,240.34,16.45Z"/><rect class="cls-3" x="231.61" y="16.45" width="9.11" height="10.2" rx="0.69"/><path class="cls-3" d="M218.22,26.65h.31a.69.69,0,0,1-.69-.69V17.14a.69.69,0,0,1,.69-.69h-.31a.69.69,0,0,0-.69.69V26A.69.69,0,0,0,218.22,26.65Z"/><path class="cls-3" d="M227,17.14V26a.69.69,0,0,1-.69.69h.31a.68.68,0,0,0,.68-.69V17.14a.68.68,0,0,0-.68-.69h-.31A.69.69,0,0,1,227,17.14Z"/><rect class="cls-3" x="217.84" y="16.45" width="9.11" height="10.2" rx="0.69"/><path class="cls-3" d="M314.45,26V17.14a.69.69,0,0,1,.69-.69h-.3a.69.69,0,0,0-.69.69V26a.69.69,0,0,0,.69.69h.3A.69.69,0,0,1,314.45,26Z"/><path class="cls-3" d="M323.57,17.14V26a.69.69,0,0,1-.69.69h.3a.69.69,0,0,0,.69-.69V17.14a.69.69,0,0,0-.69-.69h-.3A.69.69,0,0,1,323.57,17.14Z"/><path class="cls-3" d="M315.14,16.45a.69.69,0,0,0-.69.69V26a.69.69,0,0,0,.69.69h7.74a.69.69,0,0,0,.69-.69V17.14a.69.69,0,0,0-.69-.69h-7.74Z"/><path class="cls-3" d="M342,26V17.14a.69.69,0,0,1,.69-.69h-.3a.69.69,0,0,0-.69.69V26a.69.69,0,0,0,.69.69h.3A.69.69,0,0,1,342,26Z"/><path class="cls-3" d="M350.43,26.65h.3a.69.69,0,0,0,.54-.28c0-.18-.1-.37-.15-.54V26A.69.69,0,0,1,350.43,26.65Z"/><path class="cls-3" d="M342,17.14V26a.69.69,0,0,0,.69.69h7.74a.69.69,0,0,0,.69-.69v-.13a31.77,31.77,0,0,0-4.7-9.38h-3.73A.69.69,0,0,0,342,17.14Z"/><path class="cls-3" d="M328.61,26.65h.31a.69.69,0,0,1-.69-.69V17.14a.69.69,0,0,1,.69-.69h-.31a.69.69,0,0,0-.69.69V26A.69.69,0,0,0,328.61,26.65Z"/><path class="cls-3" d="M337.34,17.14V26a.69.69,0,0,1-.69.69h.3a.69.69,0,0,0,.69-.69V17.14a.68.68,0,0,0-.69-.69h-.3A.69.69,0,0,1,337.34,17.14Z"/><rect class="cls-3" x="328.23" y="16.45" width="9.11" height="10.2" rx="0.69"/><path class="cls-3" d="M288.74,32.84H228.58V34H352.49c0-.39,0-.78-.06-1.17H288.74Z"/><rect class="cls-3" x="216.37" y="32.84" width="11.8" height="1.16"/><path class="cls-3" d="M215.25,32.84a.59.59,0,0,0-.58.59.58.58,0,0,0,.58.58h.7V32.84Z"/><rect class="cls-3" x="216.37" y="35.37" width="11.8" height="1.16"/><path class="cls-3" d="M215.25,35.37a.58.58,0,0,0,0,1.16h.7V35.37Z"/><polygon class="cls-3" points="288.64 35.37 285.39 35.37 228.58 35.37 228.58 36.53 285.39 36.53 288.64 36.53 309.83 36.53 352.52 36.53 352.52 35.37 309.83 35.37 288.64 35.37"/><path class="cls-3" d="M216.37,42.69V16.09a.9.9,0,0,1,.9-.91h-.18a.91.91,0,0,0-.91.91v26.6a.91.91,0,0,0,.91.91h.18A.9.9,0,0,1,216.37,42.69Z"/><path class="cls-3" d="M228.58,34V16.09A1.14,1.14,0,0,0,227.44,15h-.19a1.14,1.14,0,0,1,1.14,1.14v26.6a1.14,1.14,0,0,1-1.14,1.14h.19a1.14,1.14,0,0,0,1.14-1.14V34Z"/><path class="cls-3" d="M228.39,42.69V16.09A1.14,1.14,0,0,0,227.25,15H217.09A1.14,1.14,0,0,0,216,16.09v26.6a1.14,1.14,0,0,0,1.14,1.14h10.16A1.14,1.14,0,0,0,228.39,42.69Zm-1.14.91H217.09a.91.91,0,0,1-.91-.91V16.09a.91.91,0,0,1,.91-.91h10.16a.91.91,0,0,1,.91.91v26.6A.91.91,0,0,1,227.25,43.6Z"/></g><path class="cls-5" d="M337.15,8.09c-1-.32-2-.6-3-.83l-.27-.07L333,7l-.57-.1-.8-.12-.74-.09-.7-.08-.92-.07-.56,0-1.5,0h0a32.23,32.23,0,0,0-8,1c-.69.18-1.36.39-2,.61Z"/><path class="cls-6" d="M170.83,62.18a4.77,4.77,0,0,1-2.31.61h1.24a4.79,4.79,0,0,0,1.69-.32A4.39,4.39,0,0,1,170.83,62.18Z"/><path class="cls-6" d="M168.38,58.8h-4.74a4.81,4.81,0,0,0,4.59,4,4.67,4.67,0,0,0,2.37-.71A4.8,4.8,0,0,1,168.38,58.8Z"/><path class="cls-6" d="M168.23,57.11h0l.19-.19a4.72,4.72,0,0,1,.69-1.63l-.84-.84h-2.34v2.67h2.31Z"/><path class="cls-7" d="M195.59,58a4.84,4.84,0,0,1-4.84,4.84h.32A4.84,4.84,0,0,0,195.91,58a3,3,0,0,0,0-.31h-.32A3,3,0,0,1,195.59,58Z"/><path class="cls-6" d="M195.59,58a3,3,0,0,0,0-.31h-1.24a3,3,0,0,1,0,.31,4.84,4.84,0,0,1-4.84,4.84h1.24A4.84,4.84,0,0,0,195.59,58Z"/><path class="cls-6" d="M193.91,58c0-.11,0-.21,0-.31h-3.71V58.8h-5.54a4.67,4.67,0,0,0,9.28-.85Z"/><path class="cls-7" d="M194.35,58a3,3,0,0,0,0-.31h-.44c0,.1,0,.2,0,.31a4.82,4.82,0,0,1-4.68,4.82l-.16,0h.44A4.84,4.84,0,0,0,194.35,58Z"/><path class="cls-8" d="M181.85,57.11l-.28-.28v.28Z"/><rect class="cls-8" x="189.56" y="57.64" width="0.6" height="1.17"/><path class="cls-9" d="M168.22,57.1h.16a1.38,1.38,0,0,1,0-.2Z"/><path class="cls-9" d="M189.56,57.64h-7.18l-.53-.53h-.28v-.28l-2.39-2.39-1.8-1.8V49.31H166.13l4.51,4.51a4.75,4.75,0,0,1,2.33-.7h1.85a4.77,4.77,0,0,1,4.75,5.69h10Z"/><path class="cls-6" d="M66.87,62.18a4.77,4.77,0,0,1-2.31.61H65.8a4.69,4.69,0,0,0,1.68-.32A4.85,4.85,0,0,1,66.87,62.18Z"/><path class="cls-6" d="M64.41,58.8H59.68a4.82,4.82,0,0,0,4.6,4,4.67,4.67,0,0,0,2.36-.71A4.85,4.85,0,0,1,64.41,58.8Z"/><path class="cls-6" d="M64.27,57.11h0l.18-.19a4.92,4.92,0,0,1,.69-1.63l-.83-.84H62v2.67h2.32Z"/><path class="cls-7" d="M91.63,58a4.84,4.84,0,0,1-4.84,4.84h.32A4.84,4.84,0,0,0,92,58c0-.11,0-.21,0-.31H91.6C91.6,57.74,91.63,57.84,91.63,58Z"/><path class="cls-6" d="M91.63,58c0-.11,0-.21,0-.31H90.36a3,3,0,0,1,0,.31,4.84,4.84,0,0,1-4.84,4.84h1.24A4.84,4.84,0,0,0,91.63,58Z"/><path class="cls-6" d="M89.94,58a3,3,0,0,0,0-.31h-3.7V58.8H80.67A4.66,4.66,0,0,0,89.94,58Z"/><path class="cls-7" d="M90.39,58a3,3,0,0,0,0-.31h-.45a3,3,0,0,1,0,.31,4.82,4.82,0,0,1-4.68,4.82l-.16,0h.45A4.84,4.84,0,0,0,90.39,58Z"/><path class="cls-8" d="M78,57.11l-.37-.37v.37Z"/><rect class="cls-8" x="85.6" y="57.64" width="0.61" height="1.17"/><path class="cls-9" d="M64.26,57.1h.15l0-.2Z"/><path class="cls-9" d="M85.6,57.64H78.5L78,57.11H77.6v-.37l-2.3-2.3-1.8-1.8V49.31H62.16l4.51,4.51a4.79,4.79,0,0,1,2.34-.7h1.84a4.82,4.82,0,0,1,4.76,5.69h10Z"/><path class="cls-10" d="M160,57.11v-.53l-.53.53Z"/><path class="cls-11" d="M157.38,54.68a4.75,4.75,0,0,1,1.21,2.43h.49c.32-.32.62-.63.91-.91V54.44h-2.37Z"/><path class="cls-11" d="M145.87,54.44l-3.19,3.2h.39l3.19-3.2Z"/><path class="cls-11" d="M147.28,54.44l-3.19,3.2h3.25a4.85,4.85,0,0,1,1.48-3.2Z"/><path class="cls-11" d="M44.12,54.44l-3.2,3.2h2.45a4.82,4.82,0,0,1,1.49-3.2Z"/><path class="cls-11" d="M53.42,54.68a4.82,4.82,0,0,1,1.2,2.43H56V54.44H53.66Z"/><rect class="cls-10" x="217.07" y="51.64" width="1.02" height="5.99"/><path class="cls-10" d="M218.09,49.31v-.08a5.89,5.89,0,0,1-1,.08Z"/><polygon class="cls-11" points="215.93 51.65 215.93 54.44 206.07 54.44 201.84 54.44 201.84 57.64 217.07 57.64 217.07 51.65 215.93 51.65"/><polygon class="cls-10" points="217.07 49.31 217.07 51.65 218.09 51.65 218.09 49.31 217.15 49.31 217.07 49.31"/><polygon class="cls-12" points="217.07 49.31 217.07 51.65 218.09 51.65 218.09 49.31 217.15 49.31 217.07 49.31"/><rect class="cls-11" x="215.93" y="49.31" width="1.14" height="2.33"/><rect class="cls-12" x="215.93" y="49.31" width="1.14" height="2.33"/><polygon class="cls-9" points="168.26 54.44 165.92 52.1 165.92 54.44 168.26 54.44"/><polygon class="cls-9" points="64.3 54.44 61.95 52.1 61.95 54.44 64.3 54.44"/><path class="cls-9" d="M145.87,54.44h.39L147.68,53v-.38Z"/><polygon class="cls-9" points="159.99 54.44 159.99 52.07 157.62 54.44 159.99 54.44"/><path class="cls-9" d="M148.7,51.64V53l-1.42,1.42h1.54A4.8,4.8,0,0,1,152,53.12h1.84a5,5,0,0,1,1.78.34l4.15-4.14H148.7Z"/><polygon class="cls-9" points="56.03 54.44 56.03 52.07 53.66 54.44 56.03 54.44"/><path class="cls-9" d="M45.54,51.64V53l-1.42,1.42h.74A4.8,4.8,0,0,1,48,53.12h1.85a5,5,0,0,1,1.78.34l4.14-4.14H45.54Z"/><polygon class="cls-9" points="201.84 54.44 206.07 54.44 206.07 49.31 201.84 49.31 201.84 51.65 201.84 54.44"/><path class="cls-13" d="M148.7,53V51.64h-1v1h0V53l-1.42,1.42-3.19,3.2h1l3.19-3.2Z"/><path class="cls-14" d="M147.68,52.64h0v-1H142a.37.37,0,0,1,0,.73H78.6v-.73H73.5v1l1.8,1.8,2.3,2.3.37.37.53.53h64.18l3.19-3.2Zm-5.76,2.67H78.6v-.74h63.32a.37.37,0,0,1,0,.74Zm0-1.47H78.6v-.73h63.32a.37.37,0,1,1,0,.73Z"/><rect class="cls-13" x="147.68" y="49.31" width="1.02" height="2.33"/><rect class="cls-12" x="147.68" y="49.31" width="1.02" height="2.33"/><path class="cls-14" d="M147.68,49.31H73.5v2.33h74.18V49.31Z"/><path class="cls-12" d="M147.68,49.31H73.5v2.33h74.18V49.31Z"/><path class="cls-15" d="M141.92,54.57h-.59a.37.37,0,0,1,0,.74h.59a.37.37,0,0,0,0-.74Z"/><path class="cls-15" d="M141.92,53.11h-.59a.37.37,0,1,1,0,.73h.59a.37.37,0,1,0,0-.73Z"/><path class="cls-15" d="M141.33,51.64a.37.37,0,1,1,0,.73h.59a.37.37,0,0,0,0-.73h-.62Z"/><path class="cls-16" d="M141.7,54.94a.37.37,0,0,0-.37-.37H78.6v.74h62.73A.37.37,0,0,0,141.7,54.94Z"/><path class="cls-16" d="M141.7,53.47a.36.36,0,0,0-.37-.36H78.6v.73h62.73A.36.36,0,0,0,141.7,53.47Z"/><path class="cls-16" d="M141.7,52a.36.36,0,0,0-.37-.37H78.6v.73h62.73A.36.36,0,0,0,141.7,52Z"/><path class="cls-13" d="M45.54,53V51.64h-1V53l-4.61,4.62h1l3.2-3.2Z"/><path class="cls-14" d="M44.52,53V51.64H38.78a.37.37,0,0,1,.34.37.36.36,0,0,1-.36.36H24.9v-.73H19.79V53l4.61,4.62H39.91Zm-5.76,2.29H24.9v-.74H38.76a.37.37,0,0,1,0,.74Zm0-1.47H24.9v-.73H38.76a.37.37,0,0,1,0,.73Z"/><rect class="cls-13" x="44.52" y="49.31" width="1.02" height="2.33"/><rect class="cls-12" x="44.52" y="49.31" width="1.02" height="2.33"/><path class="cls-14" d="M24.9,51.64H44.52V49.31H19.79v2.33Z"/><path class="cls-12" d="M24.9,51.64H44.52V49.31H19.79v2.33Z"/><path class="cls-15" d="M38.76,54.57h-.59a.37.37,0,0,1,0,.74h.59a.37.37,0,0,0,0-.74Z"/><path class="cls-15" d="M38.76,53.11h-.59a.37.37,0,1,1,0,.73h.59a.37.37,0,0,0,0-.73Z"/><path class="cls-15" d="M38.17,51.64a.37.37,0,1,1,0,.73h.59a.36.36,0,0,0,.36-.36.37.37,0,0,0-.34-.37h-.61Z"/><path class="cls-16" d="M38.54,54.94a.38.38,0,0,0-.37-.37H24.9v.74H38.17A.38.38,0,0,0,38.54,54.94Z"/><path class="cls-16" d="M38.54,53.47a.37.37,0,0,0-.37-.36H24.9v.73H38.17A.37.37,0,0,0,38.54,53.47Z"/><path class="cls-16" d="M38.54,52a.37.37,0,0,0-.37-.37H24.9v.73H38.17A.37.37,0,0,0,38.54,52Z"/><polygon class="cls-13" points="201.84 51.65 200.82 51.65 200.82 57.64 201.84 57.64 201.84 54.44 201.84 51.65"/><path class="cls-14" d="M198.16,51.64a.38.38,0,0,1,.35.37.37.37,0,0,1-.37.36h-15.8v-.73h-5v1l1.8,1.8,2.39,2.39.28.28.53.53h18.44v-6Zm0,3.67h-15.8v-.74h15.8a.37.37,0,0,1,0,.74Zm0-1.47h-15.8v-.73h15.8a.37.37,0,1,1,0,.73Z"/><rect class="cls-13" x="200.82" y="49.31" width="1.02" height="2.33"/><rect class="cls-12" x="200.82" y="49.31" width="1.02" height="2.33"/><path class="cls-14" d="M177.38,49.31v2.33h23.44V49.31H177.38Z"/><path class="cls-12" d="M177.38,49.31v2.33h23.44V49.31H177.38Z"/><path class="cls-15" d="M198.14,54.57h-.59a.37.37,0,1,1,0,.74h.59a.37.37,0,0,0,0-.74Z"/><path class="cls-15" d="M198.14,53.11h-.59a.37.37,0,1,1,0,.73h.59a.37.37,0,1,0,0-.73Z"/><path class="cls-15" d="M197.55,51.64a.37.37,0,1,1,0,.73h.59a.37.37,0,0,0,.37-.36.38.38,0,0,0-.35-.37h-.61Z"/><path class="cls-16" d="M197.92,54.94a.37.37,0,0,0-.37-.37H182.34v.74h15.21A.37.37,0,0,0,197.92,54.94Z"/><path class="cls-16" d="M197.92,53.47a.36.36,0,0,0-.37-.36H182.34v.73h15.21A.36.36,0,0,0,197.92,53.47Z"/><path class="cls-16" d="M197.92,52a.36.36,0,0,0-.37-.37H182.34v.73h15.21A.36.36,0,0,0,197.92,52Z"/><polygon class="cls-17" points="215.93 54.44 215.93 51.65 215.93 49.31 206.07 49.31 206.07 54.44 215.93 54.44"/><path class="cls-6" d="M155,57.11h.59a3.88,3.88,0,0,0-.14-.45Z"/><path class="cls-6" d="M149,58a3.31,3.31,0,0,0,6.54.85h-1.88a1.42,1.42,0,0,1-1.16.59h-.35a1.45,1.45,0,1,1,0-2.89l.18,0,.17,0h.06l1.49-1.5A3.25,3.25,0,0,0,149,58Z"/><path class="cls-7" d="M156.58,58.8h-1a3.5,3.5,0,0,1-3.22,2.64h-.17a3.51,3.51,0,1,1,0-7l.18,0h0a3.5,3.5,0,0,1,1.73.55l.81-.81a4.64,4.64,0,0,0-7.52,3.44,3,3,0,0,0,0,.31,4.66,4.66,0,0,0,9.27.85Z"/><path class="cls-7" d="M155.4,56.66a3.88,3.88,0,0,1,.14.45h1a4.65,4.65,0,0,0-.39-1.23Z"/><path class="cls-7" d="M152.33,56.52l-.18,0a1.45,1.45,0,1,0,0,2.89h.18a1.66,1.66,0,0,0,.49-.16h0a1.3,1.3,0,0,0,.39-.31l0,0,0-.09H152V57.11h0l.52-.53-.16,0Z"/><path class="cls-18" d="M153.51,62.79h.32a4.84,4.84,0,0,0,4.76-4h-.32A4.84,4.84,0,0,1,153.51,62.79Z"/><path class="cls-18" d="M157.21,54.86a4.79,4.79,0,0,1,1.06,2.25h.32a4.75,4.75,0,0,0-1.21-2.43Z"/><path class="cls-18" d="M153.51,53.11a4.84,4.84,0,0,1,2,.44l.09-.1a5,5,0,0,0-1.78-.34Z"/><path class="cls-7" d="M158.27,58.8H157a4.84,4.84,0,0,1-4.76,4h1.24A4.84,4.84,0,0,0,158.27,58.8Z"/><path class="cls-7" d="M156.48,55.59a4.93,4.93,0,0,1,.55,1.52h1.24a4.79,4.79,0,0,0-1.06-2.25Z"/><path class="cls-7" d="M152.27,53.11a4.8,4.8,0,0,1,2.79.89l.46-.45a4.84,4.84,0,0,0-2-.44Z"/><path class="cls-18" d="M157,58.8h-.45a4.8,4.8,0,0,1-4.59,4l-.16,0h.44A4.84,4.84,0,0,0,157,58.8Z"/><path class="cls-18" d="M156.19,55.88a4.65,4.65,0,0,1,.39,1.23H157a4.93,4.93,0,0,0-.55-1.52Z"/><path class="cls-18" d="M152.15,53.11H152a4.82,4.82,0,0,1,2.87,1.08l.2-.2a4.8,4.8,0,0,0-2.79-.89Z"/><path class="cls-18" d="M149,58a3.51,3.51,0,0,1,3.32-3.49h0l-.18,0a3.51,3.51,0,1,0,0,7h.17A3.51,3.51,0,0,1,149,58Z"/><path class="cls-18" d="M153.22,58.91a1.3,1.3,0,0,1-.39.31h0a1.66,1.66,0,0,1-.49.16h.17a1.42,1.42,0,0,0,1.16-.59h-.37l0,.09Z"/><path class="cls-18" d="M152.33,56.52h0l.16,0,.07-.06h-.06Z"/><path class="cls-6" d="M173.33,56.52l.16,0a1.45,1.45,0,0,1,0,2.89h-.36A1.43,1.43,0,0,1,172,58.8H170.1a3.35,3.35,0,1,0,3.21-4.34,3.6,3.6,0,0,0-1.56.47Z"/><path class="cls-6" d="M170.6,57.11h.33l-.62-.62a3.48,3.48,0,0,0-.21.62Z"/><path class="cls-7" d="M177.66,58A4.84,4.84,0,0,0,173,53.12a4.75,4.75,0,0,0-2.33.7l1,1a3.5,3.5,0,0,1,1.51-.36l.18,0h0a3.49,3.49,0,0,1,0,7h-.18a3.49,3.49,0,0,1-3.38-2.65h-1.37a4.8,4.8,0,0,0,2.22,3.26,4.67,4.67,0,0,1-2.37.71l-.16,0h.45a4.77,4.77,0,0,0,2.31-.61,4.39,4.39,0,0,0,.62.29,4.79,4.79,0,0,1-1.69.32h.32a4.87,4.87,0,0,0,1.53-.27,4.42,4.42,0,0,0,1.36.25A4.83,4.83,0,0,0,177.66,58Z"/><path class="cls-7" d="M168.38,57.11h1.36a3.29,3.29,0,0,1,.34-.85l-1-1a4.72,4.72,0,0,0-.69,1.63A1.38,1.38,0,0,0,168.38,57.11Z"/><path class="cls-7" d="M173.13,59.39h.18a1.72,1.72,0,0,0,.5-.16h0a1.3,1.3,0,0,0,.39-.31,0,0,0,0,0,0,0,1.36,1.36,0,0,0,.26-.41.08.08,0,0,1,0,0,1.58,1.58,0,0,0,.09-.49,1.64,1.64,0,0,0-.09-.5,0,0,0,0,1,0,0,1.36,1.36,0,0,0-.26-.41l0,0a1.45,1.45,0,0,0-.39-.3h0a1.46,1.46,0,0,0-.46-.15l.57.57h0V58.8H172A1.43,1.43,0,0,0,173.13,59.39Z"/><path class="cls-18" d="M178.14,54.44a4.82,4.82,0,0,0-3.32-1.33h-.32a4.84,4.84,0,1,1,0,9.68h.32a4.83,4.83,0,0,0,3.32-8.35Z"/><path class="cls-7" d="M179.34,58a4.84,4.84,0,0,0-4.84-4.84h-1.24a4.84,4.84,0,1,1,0,9.68h1.24A4.84,4.84,0,0,0,179.34,58Z"/><path class="cls-18" d="M178.1,58a4.84,4.84,0,0,0-4.84-4.84H173a4.83,4.83,0,0,1,0,9.65l-.16,0h.45A4.84,4.84,0,0,0,178.1,58Z"/><path class="cls-18" d="M170.1,58.8h-.35a3.49,3.49,0,0,0,3.38,2.65h.18A3.5,3.5,0,0,1,170.1,58.8Z"/><path class="cls-18" d="M173.31,54.46h0l-.18,0a3.5,3.5,0,0,0-1.51.36l.13.13A3.6,3.6,0,0,1,173.31,54.46Z"/><path class="cls-18" d="M170.1,57.11a3.48,3.48,0,0,1,.21-.62l-.23-.23a3.29,3.29,0,0,0-.34.85Z"/><path class="cls-18" d="M173.81,56.68a1.45,1.45,0,0,1,.39.3l0,0a1.36,1.36,0,0,1,.26.41,0,0,0,0,0,0,0,1.64,1.64,0,0,1,.09.5,1.58,1.58,0,0,1-.09.49.08.08,0,0,0,0,0,1.36,1.36,0,0,1-.26.41,0,0,0,0,1,0,0,1.3,1.3,0,0,1-.39.31h0a1.72,1.72,0,0,1-.5.16h.18a1.45,1.45,0,0,0,0-2.89l-.16,0h0a1.46,1.46,0,0,1,.46.15Z"/><polygon class="cls-19" points="165.92 52.1 165.31 51.49 165.31 57.11 165.92 57.11 165.92 54.44 165.92 52.1"/><polygon class="cls-19" points="173.31 57.1 173.3 57.11 173.31 57.11 173.31 58.8 173.92 58.8 173.92 57.11 173.9 57.11 173.92 57.1 173.35 56.53 173.33 56.52 171.75 54.93 171.62 54.8 170.64 53.82 166.13 49.31 165.52 49.31 173.31 57.1"/><polygon class="cls-19" points="154.95 57.11 155.4 56.66 156.19 55.88 156.48 55.59 157.21 54.86 157.38 54.68 157.62 54.44 159.99 52.07 159.99 51.47 154.35 57.11 154.95 57.11"/><path class="cls-8" d="M168.38,58.8h4.93V57.11h0l-7.79-7.79h-5.76l-4.15,4.14-.09.1-.46.45-.2.2-.81.81-1.49,1.5-.07.06-.52.53h0V58.8h16.41ZM160,52.07v5h-5.64L160,51.47Zm5.32,5V51.49l.61.61,2.34,2.34.84.84,1,1,.23.23.62.62h-5.62Z"/><path class="cls-6" d="M45,58a3.31,3.31,0,0,0,6.54.85H49.7a1.42,1.42,0,0,1-1.16.59h-.36a1.45,1.45,0,0,1,0-2.89l.18,0,.18,0h.06L50.09,55A3.26,3.26,0,0,0,45,58Z"/><path class="cls-6" d="M51,57.11h.59c0-.15-.09-.3-.14-.45Z"/><path class="cls-7" d="M52.62,58.8h-1a3.49,3.49,0,0,1-3.21,2.64h-.18a3.51,3.51,0,0,1,0-7l.18,0h0a3.5,3.5,0,0,1,1.73.55l.81-.81A4.85,4.85,0,0,0,48,53.12a4.81,4.81,0,0,0-4.65,4.52c0,.1,0,.2,0,.31a4.67,4.67,0,0,0,9.28.85Z"/><path class="cls-7" d="M51.44,56.66c.05.15.1.3.14.45h1a4.67,4.67,0,0,0-.4-1.23Z"/><path class="cls-7" d="M48.36,56.52l-.18,0a1.45,1.45,0,0,0,0,2.89h.18a1.72,1.72,0,0,0,.5-.16h0a1.3,1.3,0,0,0,.39-.31l0,0a.47.47,0,0,0,.06-.09H48V57.11h0l.53-.53-.17,0Z"/><path class="cls-18" d="M49.55,62.79h.32a4.82,4.82,0,0,0,4.75-4H54.3A4.82,4.82,0,0,1,49.55,62.79Z"/><path class="cls-18" d="M53.24,54.86a4.7,4.7,0,0,1,1.06,2.25h.32a4.82,4.82,0,0,0-1.2-2.43Z"/><path class="cls-18" d="M49.55,53.11a4.79,4.79,0,0,1,2,.44l.1-.1a5,5,0,0,0-1.78-.34Z"/><path class="cls-7" d="M54.3,58.8H53.06a4.82,4.82,0,0,1-4.75,4h1.24A4.82,4.82,0,0,0,54.3,58.8Z"/><path class="cls-7" d="M52.51,55.59a5,5,0,0,1,.56,1.52H54.3a4.7,4.7,0,0,0-1.06-2.25Z"/><path class="cls-7" d="M48.31,53.11A4.8,4.8,0,0,1,51.1,54l.45-.45a4.79,4.79,0,0,0-2-.44Z"/><path class="cls-18" d="M53.06,58.8h-.44a4.82,4.82,0,0,1-4.6,4l-.16,0h.45A4.82,4.82,0,0,0,53.06,58.8Z"/><path class="cls-18" d="M52.22,55.88a4.67,4.67,0,0,1,.4,1.23h.45a5,5,0,0,0-.56-1.52Z"/><path class="cls-18" d="M48.18,53.11H48A4.85,4.85,0,0,1,50.9,54.2l.2-.2a4.8,4.8,0,0,0-2.79-.89Z"/><path class="cls-18" d="M45,58a3.51,3.51,0,0,1,3.33-3.49h0l-.18,0a3.51,3.51,0,0,0,0,7h.18A3.51,3.51,0,0,1,45,58Z"/><path class="cls-18" d="M49.25,58.91a1.3,1.3,0,0,1-.39.31h0a1.72,1.72,0,0,1-.5.16h.18a1.42,1.42,0,0,0,1.16-.59h-.37a.47.47,0,0,1-.06.09Z"/><path class="cls-18" d="M48.36,56.52h0l.17,0,.07-.06h-.06Z"/><path class="cls-6" d="M69.37,56.52l.15,0a1.45,1.45,0,1,1,0,2.89h-.35A1.42,1.42,0,0,1,68,58.8H66.14a3.34,3.34,0,1,0,3.21-4.34,3.56,3.56,0,0,0-1.56.47Z"/><path class="cls-6" d="M66.64,57.11H67l-.62-.62a3.52,3.52,0,0,0-.22.62Z"/><path class="cls-7" d="M73.69,58A4.84,4.84,0,0,0,69,53.12a4.79,4.79,0,0,0-2.34.7l1,1a3.51,3.51,0,0,1,1.52-.36l.18,0h0a3.49,3.49,0,0,1,0,7h-.18a3.5,3.5,0,0,1-3.39-2.65H64.41a4.85,4.85,0,0,0,2.23,3.26,4.67,4.67,0,0,1-2.36.71l-.16,0h.44a4.77,4.77,0,0,0,2.31-.61,4.85,4.85,0,0,0,.61.29,4.69,4.69,0,0,1-1.68.32h.32a4.76,4.76,0,0,0,1.52-.27,4.49,4.49,0,0,0,1.37.25A4.82,4.82,0,0,0,73.69,58Z"/><path class="cls-7" d="M64.41,57.11h1.36a3.71,3.71,0,0,1,.35-.85l-1-1a4.92,4.92,0,0,0-.69,1.63Z"/><path class="cls-7" d="M69.17,59.39h.18a1.66,1.66,0,0,0,.49-.16h0a1.3,1.3,0,0,0,.39-.31l0,0a1.55,1.55,0,0,0,.25-.41s0,0,0,0a1.34,1.34,0,0,0,.1-.49,1.39,1.39,0,0,0-.1-.5,0,0,0,0,0,0,0,1.55,1.55,0,0,0-.25-.41l0,0a1.45,1.45,0,0,0-.39-.3h0a1.38,1.38,0,0,0-.46-.15l.57.57h0V58.8H68A1.42,1.42,0,0,0,69.17,59.39Z"/><path class="cls-18" d="M74.18,54.44a4.84,4.84,0,0,0-3.33-1.33h-.32a4.84,4.84,0,0,1,0,9.68h.32a4.84,4.84,0,0,0,3.33-8.35Z"/><path class="cls-7" d="M75.37,58a4.83,4.83,0,0,0-4.84-4.84H69.29a4.84,4.84,0,1,1,0,9.68h1.24A4.84,4.84,0,0,0,75.37,58Z"/><path class="cls-18" d="M74.14,58a4.84,4.84,0,0,0-4.85-4.84H69a4.83,4.83,0,0,1,0,9.65l-.16,0h.44A4.85,4.85,0,0,0,74.14,58Z"/><path class="cls-18" d="M66.14,58.8h-.36a3.5,3.5,0,0,0,3.39,2.65h.18A3.5,3.5,0,0,1,66.14,58.8Z"/><path class="cls-18" d="M66.13,57.11a3.52,3.52,0,0,1,.22-.62l-.23-.23a3.71,3.71,0,0,0-.35.85Z"/><path class="cls-18" d="M69.35,54.46h0l-.18,0a3.51,3.51,0,0,0-1.52.36l.14.13A3.56,3.56,0,0,1,69.35,54.46Z"/><path class="cls-18" d="M69.85,56.68a1.45,1.45,0,0,1,.39.3l0,0a1.55,1.55,0,0,1,.25.41,0,0,0,0,1,0,0,1.39,1.39,0,0,1,.1.5,1.34,1.34,0,0,1-.1.49s0,0,0,0a1.55,1.55,0,0,1-.25.41l0,0a1.3,1.3,0,0,1-.39.31h0a1.66,1.66,0,0,1-.49.16h.17a1.45,1.45,0,1,0,0-2.89l-.15,0h0a1.38,1.38,0,0,1,.46.15Z"/><polygon class="cls-19" points="61.95 52.1 61.35 51.49 61.35 57.11 61.95 57.11 61.95 54.44 61.95 52.1"/><polygon class="cls-19" points="61.56 49.31 69.35 57.1 69.33 57.11 69.35 57.11 69.35 58.8 69.95 58.8 69.95 57.11 69.94 57.11 69.95 57.1 69.38 56.53 69.37 56.52 67.79 54.93 67.65 54.8 66.67 53.82 62.16 49.31 61.79 49.31 61.56 49.31"/><polygon class="cls-19" points="50.99 57.11 51.44 56.66 52.22 55.88 52.51 55.59 53.24 54.86 53.42 54.68 53.66 54.44 56.03 52.07 56.03 51.47 50.38 57.11 50.99 57.11"/><path class="cls-8" d="M64.41,58.8h4.94V57.11h0l-7.79-7.79H55.79l-4.14,4.14-.1.1L51.1,54l-.2.2-.81.81-1.49,1.5-.07.06L48,57.1h0V58.8H64.41ZM56,52.07v5H50.38L56,51.47Zm5.32,5V51.49l.6.61,2.35,2.34.83.84,1,1,.23.23.62.62H61.35Z"/><path class="cls-13" d="M218.25,47.92a6,6,0,0,1-5.6-3.92h-4.76V15H211a2,2,0,0,1,1.33-1.3,5.91,5.91,0,0,1,1.6-3.68H341.66a33.35,33.35,0,0,0-3.93-1.67h0l-.46-.15-.13-.05H218.25a5.94,5.94,0,0,0-3.81,1.39H72.16a88.77,88.77,0,0,0-18,1.88H204.85a5.81,5.81,0,0,1,1.55,4V43.48a5.83,5.83,0,0,1-5.83,5.83h16.57a6,6,0,0,0,2.15-.41v-1Z"/><rect class="cls-14" x="90.54" y="38.62" width="11.8" height="1.36"/><polygon class="cls-14" points="186.74 37.46 186.74 33.98 166 33.98 102.75 33.98 102.75 37.46 186.74 37.46"/><path class="cls-14" d="M90.54,47.3a.91.91,0,0,0,.91.91h10a.9.9,0,0,0,.9-.91V41.15H90.54Z"/><rect class="cls-14" x="102.75" y="38.62" width="83.98" height="1.36"/><path class="cls-14" d="M36.05,49.31H200.57a5.83,5.83,0,0,0,5.83-5.83V15.31a5.81,5.81,0,0,0-1.55-4H54.11c-2.67.56-5.32,1.23-7.93,2a.6.6,0,0,0,.1,1.16l.09,0q3.29,0,6.55-.13,3-.07,5.91-.2l.57,0q6.48-.29,12.89-.76h0l.62,0a2.15,2.15,0,0,1,1,4.12l-12.23,5.1a88.43,88.43,0,0,1-33.9,6.76H11.59a3.83,3.83,0,0,0-3.31,1.84A12,12,0,0,0,6.6,38.13,12.2,12.2,0,0,0,18.88,49.31H36.05Zm1-17.15c6.07-1,18.18-3.66,25.72-7,3.85-1.69,7.79-3.63,10.52-5A17,17,0,0,1,81,18.34h2.71V34H37.19a.9.9,0,0,1-.86-.64h0a.88.88,0,0,1-.06-.28A.9.9,0,0,1,37,32.16Zm53.08,5.3V34h-4V18.34H204.85V34h-5.48v3.48h4.9a.58.58,0,1,1,0,1.16h-4.9V40h4.9a.59.59,0,0,1,0,1.17h-4.9V47.3a1.14,1.14,0,0,1-1.14,1.14H187.87a1.15,1.15,0,0,1-1.14-1.14V41.15h-84V47.3a1.14,1.14,0,0,1-1.14,1.14H91.26a1.14,1.14,0,0,1-1.14-1.14V41.15H22.85a.59.59,0,0,1,0-1.17H90.12V38.62H22.85a.58.58,0,1,1,0-1.16H90.12ZM13.63,40.21a2.74,2.74,0,0,1-1.33.36c-.11,0-.21,0-.32,0l-.24,0A2.68,2.68,0,0,1,9.07,37.9V34.68A2.68,2.68,0,0,1,11.74,32H24.39a.92.92,0,0,1,.46,1.72Z"/><rect class="cls-14" x="90.54" y="33.98" width="11.8" height="3.47"/><path class="cls-14" d="M199,41.15h-11.8V47.3a.91.91,0,0,0,.91.91h10a.91.91,0,0,0,.91-.91Z"/><rect class="cls-14" x="187.15" y="33.98" width="11.8" height="3.47"/><rect class="cls-14" x="187.15" y="38.62" width="11.8" height="1.36"/><path class="cls-17" d="M72.68,17.54l-12.23,5.1a88.39,88.39,0,0,1-33.9,6.76h1.24a88.43,88.43,0,0,0,33.9-6.76l12.23-5.1a2.15,2.15,0,0,0-1-4.12l-.62,0h0A2.14,2.14,0,0,1,72.68,17.54Z"/><path class="cls-20" d="M60.45,22.64l12.23-5.1a2.14,2.14,0,0,0-.38-4.08h0q-6.42.48-12.89.76l-.57,0q-3,.12-5.91.2-3.27.09-6.55.13l-.09,0c-1.1.41-2.2.83-3.29,1.29L16.12,26.25a12.19,12.19,0,0,0-4.44,3.15H26.55A88.39,88.39,0,0,0,60.45,22.64Z"/><path class="cls-17" d="M211,41.15h-.08V15.55a2,2,0,0,1,.1-.6h-3.09a2,2,0,0,1,2,2V42a2,2,0,0,1-2,2h4.76a5.68,5.68,0,0,1-.33-1.48A2,2,0,0,1,211,41.15Z"/><path class="cls-5" d="M209.88,42V17a2,2,0,0,0-2-2V44h0A2,2,0,0,0,209.88,42Z"/><path class="cls-21" d="M91.26,19.56h10.35a1.15,1.15,0,0,1,1.14,1.14V34h84V20.7a1.15,1.15,0,0,1,1.14-1.14h10.36a1.15,1.15,0,0,1,1.14,1.14V34h4.89V18.92H86.69V34h3.43V20.7A1.15,1.15,0,0,1,91.26,19.56Zm83.1,2.19a.69.69,0,0,1,.69-.69h8.34a.69.69,0,0,1,.69.69v8.82a.69.69,0,0,1-.69.69h-8.34a.69.69,0,0,1-.69-.69Zm-13.77,0a.68.68,0,0,1,.68-.69h8.35a.68.68,0,0,1,.68.69v8.82a.68.68,0,0,1-.68.69h-8.35a.68.68,0,0,1-.68-.69Zm-13.78,0a.69.69,0,0,1,.69-.69h8.34a.69.69,0,0,1,.69.69v8.82a.69.69,0,0,1-.69.69H147.5a.69.69,0,0,1-.69-.69Zm-13.78,0a.69.69,0,0,1,.69-.69h8.34a.69.69,0,0,1,.69.69v8.82a.69.69,0,0,1-.69.69h-8.34a.69.69,0,0,1-.69-.69Zm-13.77,0a.69.69,0,0,1,.69-.69h8.34a.69.69,0,0,1,.69.69v8.82a.69.69,0,0,1-.69.69H120a.69.69,0,0,1-.69-.69Zm-13.78,0a.69.69,0,0,1,.69-.69h8.34a.69.69,0,0,1,.69.69v8.82a.69.69,0,0,1-.69.69h-8.34a.69.69,0,0,1-.69-.69Z"/><path class="cls-21" d="M90.54,20.7V34h11.79V20.7a.9.9,0,0,0-.9-.9h-10A.9.9,0,0,0,90.54,20.7Zm1.17,1.05a.69.69,0,0,1,.69-.69h8.34a.69.69,0,0,1,.69.69v8.82a.69.69,0,0,1-.69.69H92.4a.69.69,0,0,1-.69-.69Z"/><path class="cls-21" d="M187.15,20.7V34H199V20.7a.9.9,0,0,0-.91-.9h-10A.9.9,0,0,0,187.15,20.7Zm1.17,1.05a.69.69,0,0,1,.69-.69h8.34a.69.69,0,0,1,.69.69v8.82a.69.69,0,0,1-.69.69H189a.69.69,0,0,1-.69-.69Z"/><path class="cls-21" d="M81,18.92a17,17,0,0,0-7.7,1.84c-2.73,1.38-6.67,3.32-10.52,5-7.54,3.31-19.65,6-25.72,7a.88.88,0,0,0-.71.59.9.9,0,0,0,.86.64H83.1V18.92Z"/><path class="cls-14" d="M36.33,33.34a.88.88,0,0,1-.06-.28.88.88,0,0,0,.06.28Z"/><path class="cls-12" d="M36.33,33.34a.88.88,0,0,1-.06-.28.88.88,0,0,0,.06.28Z"/><path class="cls-22" d="M37,32.75c6.07-1,18.18-3.66,25.72-7,3.85-1.7,7.79-3.64,10.52-5A17,17,0,0,1,81,18.92H83.1V34h.59V18.34H81a17,17,0,0,0-7.7,1.83c-2.73,1.39-6.67,3.33-10.52,5-7.54,3.31-19.65,6-25.72,7a.9.9,0,0,0-.77.9.88.88,0,0,0,.06.28A.88.88,0,0,1,37,32.75Z"/><path class="cls-23" d="M37,32.75c6.07-1,18.18-3.66,25.72-7,3.85-1.7,7.79-3.64,10.52-5A17,17,0,0,1,81,18.92H83.1V34h.59V18.34H81a17,17,0,0,0-7.7,1.83c-2.73,1.39-6.67,3.33-10.52,5-7.54,3.31-19.65,6-25.72,7a.9.9,0,0,0-.77.9.88.88,0,0,0,.06.28A.88.88,0,0,1,37,32.75Z"/><polygon class="cls-24" points="86.69 18.34 86.1 18.34 86.1 33.98 86.69 33.98 86.69 18.92 86.69 18.34"/><polygon class="cls-22" points="204.26 18.92 204.26 33.98 204.85 33.98 204.85 18.34 204.27 18.34 204.27 18.92 204.26 18.92"/><polygon class="cls-23" points="204.26 18.92 204.26 33.98 204.85 33.98 204.85 18.34 204.27 18.34 204.27 18.92 204.26 18.92"/><polygon class="cls-22" points="204.26 18.92 204.26 18.34 166 18.34 86.69 18.34 86.69 18.92 204.26 18.92"/><polygon class="cls-23" points="204.26 18.92 204.26 18.34 166 18.34 86.69 18.34 86.69 18.92 204.26 18.92"/><rect class="cls-22" x="204.26" y="18.34" width="0.01" height="0.59"/><rect class="cls-12" x="204.26" y="18.34" width="0.01" height="0.59"/><rect class="cls-12" x="204.26" y="18.34" width="0.01" height="0.59"/><path class="cls-25" d="M175.05,31.26h.3a.69.69,0,0,1-.69-.69V21.75a.69.69,0,0,1,.69-.69h-.3a.69.69,0,0,0-.69.69v8.82A.69.69,0,0,0,175.05,31.26Z"/><path class="cls-17" d="M183.78,21.75v8.82a.69.69,0,0,1-.69.69h.3a.69.69,0,0,0,.69-.69V21.75a.69.69,0,0,0-.69-.69h-.3A.69.69,0,0,1,183.78,21.75Z"/><rect class="cls-20" x="174.66" y="21.06" width="9.11" height="10.2" rx="0.69"/><path class="cls-25" d="M161.27,31.26h.31a.69.69,0,0,1-.69-.69V21.75a.69.69,0,0,1,.69-.69h-.31a.68.68,0,0,0-.68.69v8.82A.68.68,0,0,0,161.27,31.26Z"/><path class="cls-17" d="M170,21.75v8.82a.69.69,0,0,1-.69.69h.31a.68.68,0,0,0,.68-.69V21.75a.68.68,0,0,0-.68-.69h-.31A.69.69,0,0,1,170,21.75Z"/><rect class="cls-20" x="160.89" y="21.06" width="9.11" height="10.2" rx="0.69"/><path class="cls-25" d="M147.5,31.26h.3a.69.69,0,0,1-.69-.69V21.75a.69.69,0,0,1,.69-.69h-.3a.69.69,0,0,0-.69.69v8.82A.69.69,0,0,0,147.5,31.26Z"/><path class="cls-17" d="M156.23,21.75v8.82a.69.69,0,0,1-.69.69h.3a.69.69,0,0,0,.69-.69V21.75a.69.69,0,0,0-.69-.69h-.3A.69.69,0,0,1,156.23,21.75Z"/><rect class="cls-20" x="147.11" y="21.06" width="9.11" height="10.2" rx="0.69"/><path class="cls-25" d="M133.72,31.26H134a.69.69,0,0,1-.69-.69V21.75a.69.69,0,0,1,.69-.69h-.31a.69.69,0,0,0-.69.69v8.82A.69.69,0,0,0,133.72,31.26Z"/><path class="cls-17" d="M142.45,21.75v8.82a.69.69,0,0,1-.69.69h.3a.69.69,0,0,0,.69-.69V21.75a.69.69,0,0,0-.69-.69h-.3A.69.69,0,0,1,142.45,21.75Z"/><rect class="cls-20" x="133.34" y="21.06" width="9.11" height="10.2" rx="0.69"/><path class="cls-25" d="M120,31.26h.3a.69.69,0,0,1-.69-.69V21.75a.69.69,0,0,1,.69-.69H120a.69.69,0,0,0-.69.69v8.82A.69.69,0,0,0,120,31.26Z"/><path class="cls-17" d="M128.68,21.75v8.82a.69.69,0,0,1-.69.69h.3a.69.69,0,0,0,.69-.69V21.75a.69.69,0,0,0-.69-.69H128A.69.69,0,0,1,128.68,21.75Z"/><rect class="cls-20" x="119.56" y="21.06" width="9.11" height="10.2" rx="0.69"/><path class="cls-25" d="M106.17,31.26h.3a.68.68,0,0,1-.68-.69V21.75a.68.68,0,0,1,.68-.69h-.3a.69.69,0,0,0-.69.69v8.82A.69.69,0,0,0,106.17,31.26Z"/><path class="cls-17" d="M114.9,21.75v8.82a.69.69,0,0,1-.69.69h.3a.69.69,0,0,0,.69-.69V21.75a.69.69,0,0,0-.69-.69h-.3A.69.69,0,0,1,114.9,21.75Z"/><rect class="cls-20" x="105.79" y="21.06" width="9.11" height="10.2" rx="0.69"/><path class="cls-25" d="M92.4,31.26h.3a.69.69,0,0,1-.69-.69V21.75a.69.69,0,0,1,.69-.69h-.3a.69.69,0,0,0-.69.69v8.82A.69.69,0,0,0,92.4,31.26Z"/><path class="cls-17" d="M101.12,21.75v8.82a.69.69,0,0,1-.69.69h.31a.69.69,0,0,0,.69-.69V21.75a.69.69,0,0,0-.69-.69h-.31A.69.69,0,0,1,101.12,21.75Z"/><rect class="cls-20" x="92.01" y="21.06" width="9.11" height="10.2" rx="0.69"/><path class="cls-25" d="M189,31.26h.3a.69.69,0,0,1-.69-.69V21.75a.69.69,0,0,1,.69-.69H189a.69.69,0,0,0-.69.69v8.82A.69.69,0,0,0,189,31.26Z"/><path class="cls-17" d="M197.74,21.75v8.82a.69.69,0,0,1-.69.69h.3a.69.69,0,0,0,.69-.69V21.75a.69.69,0,0,0-.69-.69h-.3A.69.69,0,0,1,197.74,21.75Z"/><rect class="cls-20" x="188.62" y="21.06" width="9.11" height="10.2" rx="0.69"/><path class="cls-26" d="M12,39.62a1.62,1.62,0,0,0,.63-.21,1.62,1.62,0,0,1-.63.21Z"/><path class="cls-26" d="M10.55,34.68V37.9a1.72,1.72,0,0,0,.55,1.27l3-1.71H12a.87.87,0,0,1-.87-.87v-1a.87.87,0,0,1,.87-.87h6.82l3-1.76H12.3A1.75,1.75,0,0,0,10.55,34.68Z"/><polygon class="cls-26" points="23.83 32.93 23.83 32.93 20.79 34.69 23.83 32.93"/><path class="cls-14" d="M12,34.69a.87.87,0,0,0-.87.87v1a.87.87,0,0,0,.87.87h2l4.78-2.77Z"/><path class="cls-15" d="M25.28,32.69a.93.93,0,0,0-.89-.68h-.56a.92.92,0,0,1,.46,1.72L13.08,40.21a2.86,2.86,0,0,1-1.1.33c.11,0,.21,0,.32,0a2.74,2.74,0,0,0,1.33-.36l11.22-6.48A.94.94,0,0,0,25.28,32.69Z"/><path class="cls-15" d="M11.74,39.65l.24,0h0Z"/><path class="cls-15" d="M10.55,37.9V34.68a1.75,1.75,0,0,1,1.75-1.75h-.56A1.75,1.75,0,0,0,10,34.68V37.9a1.73,1.73,0,0,0,.8,1.45l.31-.18A1.72,1.72,0,0,1,10.55,37.9Z"/><path class="cls-16" d="M24.29,33.73A.92.92,0,0,0,23.83,32H11.74a2.68,2.68,0,0,0-2.67,2.67V37.9a2.68,2.68,0,0,0,2.67,2.67l.24,0a2.86,2.86,0,0,0,1.1-.33ZM12,39.62l-.24,0a1.76,1.76,0,0,1-.45-.07l-.1,0a1.73,1.73,0,0,1-.41-.2h0A1.73,1.73,0,0,1,10,37.9V34.68a1.75,1.75,0,0,1,1.75-1.75H23.83l-3,1.76L16,37.46l-3.39,1.95A1.62,1.62,0,0,1,12,39.62Z"/><polygon class="cls-26" points="20.79 34.69 23.83 32.93 21.9 32.93 21.9 32.93 18.85 34.69 20.79 34.69"/><polygon class="cls-12" points="20.79 34.69 23.83 32.93 21.9 32.93 21.9 32.93 18.85 34.69 20.79 34.69"/><path class="cls-26" d="M14.07,37.46l-3,1.71a1.85,1.85,0,0,0,.88.45,1.62,1.62,0,0,0,.63-.21L16,37.46Z"/><path class="cls-12" d="M14.07,37.46l-3,1.71a1.85,1.85,0,0,0,.88.45,1.62,1.62,0,0,0,.63-.21L16,37.46Z"/><polygon class="cls-14" points="14.07 37.46 16 37.46 20.79 34.69 18.85 34.69 14.07 37.46"/><polygon class="cls-12" points="14.07 37.46 16 37.46 20.79 34.69 18.85 34.69 14.07 37.46"/><path class="cls-15" d="M11.1,39.17l-.31.18h0a1.73,1.73,0,0,0,.41.2l.1,0a1.76,1.76,0,0,0,.45.07l.24,0A1.85,1.85,0,0,1,11.1,39.17Z"/><path class="cls-12" d="M11.1,39.17l-.31.18h0a1.73,1.73,0,0,0,.41.2l.1,0a1.76,1.76,0,0,0,.45.07l.24,0A1.85,1.85,0,0,1,11.1,39.17Z"/><path class="cls-27" d="M203.85,38a.58.58,0,0,1-.58.58h1a.58.58,0,1,0,0-1.16h-1A.58.58,0,0,1,203.85,38Z"/><path class="cls-27" d="M203.85,40.56a.58.58,0,0,1-.58.59h1a.59.59,0,0,0,0-1.17h-1A.58.58,0,0,1,203.85,40.56Z"/><path class="cls-13" d="M22.85,37.46a.58.58,0,1,0,0,1.16H90.12V37.46H22.85Z"/><rect class="cls-13" x="102.75" y="37.46" width="83.98" height="1.16"/><rect class="cls-13" x="90.54" y="37.46" width="11.8" height="1.16"/><rect class="cls-13" x="187.15" y="37.46" width="11.8" height="1.16"/><path class="cls-13" d="M203.27,38.62a.58.58,0,1,0,0-1.16h-3.9v1.16Z"/><path class="cls-13" d="M23.85,40h-1a.59.59,0,0,0,0,1.17H90.12V40Z"/><rect class="cls-13" x="90.54" y="39.98" width="11.8" height="1.16"/><rect class="cls-13" x="187.15" y="39.98" width="11.8" height="1.16"/><path class="cls-13" d="M203.27,41.15a.59.59,0,0,0,0-1.17h-3.9v1.17Z"/><rect class="cls-13" x="102.75" y="39.98" width="83.98" height="1.16"/><path class="cls-28" d="M91.26,48.21h.19a.91.91,0,0,1-.91-.91V20.7a.9.9,0,0,1,.91-.9h-.19a.9.9,0,0,0-.91.9V47.3A.91.91,0,0,0,91.26,48.21Z"/><path class="cls-28" d="M102.75,38.62V20.7a1.15,1.15,0,0,0-1.14-1.14h-.18a1.14,1.14,0,0,1,1.13,1.14V47.3a1.14,1.14,0,0,1-1.13,1.14h.18a1.14,1.14,0,0,0,1.14-1.14V38.62Z"/><path class="cls-29" d="M90.12,40V47.3a1.14,1.14,0,0,0,1.14,1.14h10.17a1.14,1.14,0,0,0,1.13-1.14V20.7a1.14,1.14,0,0,0-1.13-1.14H91.26a1.15,1.15,0,0,0-1.14,1.14V40Zm.23-19.28a.9.9,0,0,1,.91-.9h10.17a.9.9,0,0,1,.9.9V47.3a.9.9,0,0,1-.9.91H91.26a.91.91,0,0,1-.91-.91Z"/><path class="cls-28" d="M187.15,47.3V20.7a.9.9,0,0,1,.91-.9h-.19a.9.9,0,0,0-.9.9V47.3a.9.9,0,0,0,.9.91h.19A.91.91,0,0,1,187.15,47.3Z"/><path class="cls-28" d="M198.23,19.56H198a1.15,1.15,0,0,1,1.14,1.14V47.3A1.14,1.14,0,0,1,198,48.44h.19a1.14,1.14,0,0,0,1.14-1.14V20.7A1.15,1.15,0,0,0,198.23,19.56Z"/><path class="cls-29" d="M199.18,47.3V20.7A1.15,1.15,0,0,0,198,19.56H187.87a1.15,1.15,0,0,0-1.14,1.14V47.3a1.15,1.15,0,0,0,1.14,1.14H198A1.14,1.14,0,0,0,199.18,47.3Zm-1.14.91H187.87a.9.9,0,0,1-.9-.91V20.7a.9.9,0,0,1,.9-.9H198a.9.9,0,0,1,.91.9V47.3A.91.91,0,0,1,198,48.21Z"/><path class="cls-30" d="M210.88,41.15H211a2,2,0,0,1-.08-.54Z"/><path class="cls-6" d="M266.36,60.79a4.87,4.87,0,0,1-2.3.61h1.23a5,5,0,0,0,1.69-.32A4.39,4.39,0,0,1,266.36,60.79Z"/><path class="cls-6" d="M263.76,55.72h0l.19-.19a4.72,4.72,0,0,1,.69-1.63l-.84-.84h-2.34v2.67h2.31Z"/><path class="cls-6" d="M263.91,57.41h-4.74a4.56,4.56,0,0,0,7,3.26A4.78,4.78,0,0,1,263.91,57.41Z"/><path class="cls-7" d="M291.12,56.56a4.84,4.84,0,0,1-4.84,4.84h.32a4.84,4.84,0,0,0,4.84-4.84c0-.11,0-.21,0-.32h-.32C291.1,56.35,291.12,56.45,291.12,56.56Z"/><path class="cls-6" d="M291.12,56.56c0-.11,0-.21,0-.32h-1.24c0,.11,0,.21,0,.32A4.84,4.84,0,0,1,285,61.4h1.24A4.84,4.84,0,0,0,291.12,56.56Z"/><path class="cls-6" d="M289.44,56.56c0-.11,0-.21,0-.32H285.7v1.17h-5.54a4.67,4.67,0,0,0,9.28-.85Z"/><path class="cls-7" d="M289.88,56.56c0-.11,0-.21,0-.32h-.44c0,.11,0,.21,0,.32a4.83,4.83,0,0,1-4.68,4.82l-.16,0H285A4.84,4.84,0,0,0,289.88,56.56Z"/><path class="cls-8" d="M277.47,55.72l-.37-.37v.37Z"/><rect class="cls-8" x="285.09" y="56.24" width="0.61" height="1.17"/><path class="cls-9" d="M263.75,55.71h.15c0-.07,0-.14,0-.2Z"/><path class="cls-9" d="M285.09,56.24H278l-.52-.52h-.37v-.37l-2.3-2.3L273,51.24V47.92H261.66l4.51,4.51a4.75,4.75,0,0,1,2.33-.7l-.16,0h2a4.77,4.77,0,0,1,4.75,5.7h10Z"/><path class="cls-11" d="M352.3,53.05l-3.2,3.19h.39l3.19-3.19Z"/><path class="cls-11" d="M353.7,53.05l-3.19,3.19h2.87a4.83,4.83,0,0,1,1.48-3.19Z"/><path class="cls-11" d="M252.91,53.29a4.91,4.91,0,0,1,1.21,2.43h1.4V53.05h-2.37Z"/><path class="cls-11" d="M245.64,52.18V50.25H245v1.38l-4.61,4.61h2.45A4.8,4.8,0,0,1,245.64,52.18Z"/><rect class="cls-11" x="245.03" y="47.92" width="0.61" height="2.33"/><rect class="cls-12" x="245.03" y="47.92" width="0.61" height="2.33"/><polygon class="cls-9" points="263.79 53.05 261.45 50.71 261.45 53.05 263.79 53.05"/><path class="cls-9" d="M352.3,53.05h.38l1.42-1.42v-.38C353.42,51.93,352.84,52.5,352.3,53.05Z"/><path class="cls-9" d="M355.12,50.25v1.38l-1.42,1.42h1.16A4.82,4.82,0,0,1,358,51.73l-.16,0h1.23V47.92h-4Z"/><polygon class="cls-9" points="255.52 53.05 255.52 50.68 253.15 53.05 255.52 53.05"/><path class="cls-9" d="M245.64,50.25v1.93a4.77,4.77,0,0,1,1.88-.45l-.16,0h2a4.78,4.78,0,0,1,1.78.35l4.14-4.14h-9.64Z"/><path class="cls-13" d="M355.12,51.63V50.25h-1v1h0v.38l-1.42,1.42-3.19,3.19h1l3.19-3.19Z"/><path class="cls-14" d="M354.1,51.25h0v-1h-5.73a.37.37,0,0,1,0,.73H278.09v-.73H273v1l1.81,1.81,2.3,2.3.37.37.52.52H349.1l3.2-3.19C352.84,52.5,353.42,51.93,354.1,51.25Zm-5.76,2.66H278.09v-.73h70.25a.38.38,0,0,1,.37.37A.37.37,0,0,1,348.34,53.91Zm0-1.46H278.09v-.74h70.25a.37.37,0,1,1,0,.74Z"/><rect class="cls-13" x="354.1" y="47.92" width="1.02" height="2.33"/><rect class="cls-12" x="354.1" y="47.92" width="1.02" height="2.33"/><path class="cls-14" d="M354.1,47.92H273v2.33H354.1V47.92Z"/><path class="cls-12" d="M354.1,47.92H273v2.33H354.1V47.92Z"/><path class="cls-15" d="M348.34,53.18h-.58a.37.37,0,0,1,.36.37.36.36,0,0,1-.36.36h.58a.37.37,0,0,0,.37-.36A.38.38,0,0,0,348.34,53.18Z"/><path class="cls-15" d="M348.34,51.71h-.58a.37.37,0,0,1,0,.74h.58a.37.37,0,1,0,0-.74Z"/><path class="cls-15" d="M347.76,50.25a.37.37,0,0,1,0,.73h.58a.37.37,0,0,0,0-.73h-.61Z"/><path class="cls-16" d="M348.12,53.55a.37.37,0,0,0-.36-.37H278.09v.73h69.67A.36.36,0,0,0,348.12,53.55Z"/><path class="cls-16" d="M348.12,52.08a.37.37,0,0,0-.36-.37H278.09v.74h69.67A.37.37,0,0,0,348.12,52.08Z"/><path class="cls-16" d="M348.12,50.61a.36.36,0,0,0-.36-.36H278.09V51h69.67A.36.36,0,0,0,348.12,50.61Z"/><path class="cls-13" d="M245,50.25h-1v1.38l-4.61,4.61h1L245,51.63Z"/><path class="cls-14" d="M244,50.25h-5.74a.37.37,0,0,1,0,.73H224.39v-.73h-5.1v1.38l4.61,4.61h15.5L244,51.63Zm-5.76,3.66H224.39v-.73h13.86a.38.38,0,0,1,.37.37A.37.37,0,0,1,238.25,53.91Zm0-1.46H224.39v-.74h13.86a.37.37,0,1,1,0,.74Z"/><rect class="cls-13" x="244.01" y="47.92" width="1.02" height="2.33"/><rect class="cls-12" x="244.01" y="47.92" width="1.02" height="2.33"/><path class="cls-14" d="M224.39,50.25H244V47.92H219.29v2.33Z"/><path class="cls-12" d="M224.39,50.25H244V47.92H219.29v2.33Z"/><path class="cls-15" d="M238.25,53.18h-.59a.37.37,0,0,1,.37.37.36.36,0,0,1-.37.36h.59a.37.37,0,0,0,.37-.36A.38.38,0,0,0,238.25,53.18Z"/><path class="cls-15" d="M238.25,51.71h-.59a.37.37,0,1,1,0,.74h.59a.37.37,0,1,0,0-.74Z"/><path class="cls-15" d="M237.66,50.25a.37.37,0,1,1,0,.73h.59a.37.37,0,0,0,0-.73h-.61Z"/><path class="cls-16" d="M238,53.55a.37.37,0,0,0-.37-.37H224.39v.73h13.27A.36.36,0,0,0,238,53.55Z"/><path class="cls-16" d="M238,52.08a.37.37,0,0,0-.37-.37H224.39v.74h13.27A.37.37,0,0,0,238,52.08Z"/><path class="cls-16" d="M238,50.61a.36.36,0,0,0-.37-.36H224.39V51h13.27A.36.36,0,0,0,238,50.61Z"/><path class="cls-6" d="M358.37,53.07a3.49,3.49,0,0,0,0,7l-.18,0a3.39,3.39,0,0,0,.91-.13v-2a1.48,1.48,0,0,1-.56.12l-.17,0-.18,0a1.45,1.45,0,1,1,0-2.89l.18,0,.17,0h.06l.5-.5V53.18a3.39,3.39,0,0,0-.91-.13Z"/><path class="cls-7" d="M359.1,59.93a3.39,3.39,0,0,1-.91.13,3.51,3.51,0,1,1,0-7,3.39,3.39,0,0,1,.91.13V51.9a4.69,4.69,0,0,0-1.07-.17,4.79,4.79,0,0,0-4.65,4.51c0,.11,0,.21,0,.32A4.83,4.83,0,0,0,358,61.38a4.69,4.69,0,0,0,1.07-.17Z"/><path class="cls-7" d="M358,57.41V55.72h0l.52-.53s-.1,0-.16,0h0l-.18,0a1.45,1.45,0,1,0,0,2.89l.18,0h0a1.4,1.4,0,0,0,.49-.15h0a.8.8,0,0,0,.23-.18,1.67,1.67,0,0,0,.16-.12l0,0,.05-.09H358Z"/><path class="cls-7" d="M358.31,61.4h.79v-.07A5,5,0,0,1,358.31,61.4Z"/><path class="cls-7" d="M359.1,51.78v-.07h-.79A5,5,0,0,1,359.1,51.78Z"/><path class="cls-18" d="M359.1,61.21a4.69,4.69,0,0,1-1.07.17l-.16,0h.44a5,5,0,0,0,.79-.07Z"/><path class="cls-18" d="M358.19,51.71h-.32l.16,0a4.69,4.69,0,0,1,1.07.17v-.12a5,5,0,0,0-.79-.07Z"/><path class="cls-18" d="M355,56.56a3.5,3.5,0,0,1,3.33-3.49l-.18,0a3.51,3.51,0,1,0,0,7l.18,0A3.49,3.49,0,0,1,355,56.56Z"/><path class="cls-18" d="M359.26,57.52a1.67,1.67,0,0,1-.16.12.8.8,0,0,1-.23.18h0a1.4,1.4,0,0,1-.49.15h0l.17,0a1.52,1.52,0,0,0,1.17-.59h-.38l-.05.09Z"/><path class="cls-18" d="M358.53,55.18l.07-.07h-.06l-.17,0h0C358.43,55.13,358.48,55.17,358.53,55.18Z"/><polygon class="cls-8" points="358.54 55.18 358.01 55.71 358.02 55.72 358.01 55.72 358.01 57.41 358.61 57.41 359.1 57.41 359.1 54.61 358.6 55.12 358.54 55.18"/><path class="cls-6" d="M250.48,55.72h.59a3,3,0,0,0-.14-.45Z"/><path class="cls-6" d="M247.85,53.07a3.49,3.49,0,0,0,0,7l-.17,0a3.49,3.49,0,0,0,3.38-2.65h-1.87A1.42,1.42,0,0,1,248,58l-.18,0-.17,0a1.45,1.45,0,1,1,0-2.89l.17,0,.18,0h.06l1.49-1.49a3.45,3.45,0,0,0-1.9-.57Z"/><path class="cls-7" d="M252.11,57.41h-1.05a3.5,3.5,0,1,1-3.38-4.36,3.45,3.45,0,0,1,1.9.57l.81-.81a4.82,4.82,0,0,0-2.87-1.08,4.82,4.82,0,0,0-4.65,4.51c0,.11,0,.21,0,.32a4.67,4.67,0,0,0,9.28.85Z"/><path class="cls-7" d="M250.93,55.27a3,3,0,0,1,.14.45h1a4.72,4.72,0,0,0-.39-1.24Z"/><path class="cls-7" d="M247.68,55.11a1.45,1.45,0,1,0,0,2.89l.17,0a1.39,1.39,0,0,0,.5-.15h0a1.4,1.4,0,0,0,.39-.3s0,0,0,0l0-.09H247.5V55.72h0l.52-.53c-.06,0-.11,0-.17,0Z"/><path class="cls-18" d="M249,61.4h.32a4.82,4.82,0,0,0,4.75-4h-.32A4.82,4.82,0,0,1,249,61.4Z"/><path class="cls-18" d="M252.74,53.46a4.88,4.88,0,0,1,1.06,2.26h.32a4.91,4.91,0,0,0-1.21-2.43Z"/><path class="cls-18" d="M249,51.71a4.77,4.77,0,0,1,2,.45l.1-.1a4.78,4.78,0,0,0-1.78-.35Z"/><path class="cls-7" d="M253.79,57.41h-1.23a4.84,4.84,0,0,1-4.76,4H249A4.82,4.82,0,0,0,253.79,57.41Z"/><path class="cls-7" d="M252,54.2a4.62,4.62,0,0,1,.56,1.52h1.24a4.88,4.88,0,0,0-1.06-2.26Z"/><path class="cls-7" d="M247.8,51.71a4.81,4.81,0,0,1,2.79.9l.45-.45a4.77,4.77,0,0,0-2-.45Z"/><path class="cls-18" d="M252.56,57.41h-.45a4.83,4.83,0,0,1-4.59,4l-.16,0h.44A4.84,4.84,0,0,0,252.56,57.41Z"/><path class="cls-18" d="M251.72,54.48a4.72,4.72,0,0,1,.39,1.24h.45A4.62,4.62,0,0,0,252,54.2Z"/><path class="cls-18" d="M247.68,51.71h-.32l.16,0a4.82,4.82,0,0,1,2.87,1.08l.2-.2a4.81,4.81,0,0,0-2.79-.9Z"/><path class="cls-18" d="M244.52,56.56a3.5,3.5,0,0,1,3.33-3.49l-.17,0a3.51,3.51,0,1,0,0,7l.17,0A3.49,3.49,0,0,1,244.52,56.56Z"/><path class="cls-18" d="M248.75,57.52a1.4,1.4,0,0,1-.39.3h0a1.39,1.39,0,0,1-.5.15l.18,0a1.42,1.42,0,0,0,1.16-.59h-.37l0,.09S248.75,57.51,248.75,57.52Z"/><path class="cls-18" d="M247.85,55.13c.06,0,.11,0,.17,0l.07-.07H248Z"/><path class="cls-6" d="M267.28,53.54l1.58,1.58H269A1.45,1.45,0,0,1,269,58l-.18,0-.18,0a1.42,1.42,0,0,1-1.16-.59h-1.87a3.35,3.35,0,1,0,3-4.36l.18,0A3.47,3.47,0,0,0,267.28,53.54Z"/><path class="cls-6" d="M266.13,55.72h.33l-.62-.62a4.13,4.13,0,0,0-.22.62Z"/><path class="cls-7" d="M273.18,56.56a4.84,4.84,0,0,0-4.68-4.83,4.75,4.75,0,0,0-2.33.7l1,1A3.49,3.49,0,1,1,268.84,60h0l-.18,0a3.51,3.51,0,0,1-3.39-2.65h-1.36a4.78,4.78,0,0,0,2.23,3.26,4.8,4.8,0,0,1-2.37.71l-.16,0h.45a4.87,4.87,0,0,0,2.3-.61,4.39,4.39,0,0,0,.62.29,5,5,0,0,1-1.69.32h.32a4.82,4.82,0,0,0,1.53-.27,4.68,4.68,0,0,0,1.36.25A4.82,4.82,0,0,0,273.18,56.56Z"/><path class="cls-7" d="M263.9,55.72h1.37a3.15,3.15,0,0,1,.34-.85l-1-1a4.72,4.72,0,0,0-.69,1.63C263.92,55.58,263.92,55.65,263.9,55.72Z"/><path class="cls-7" d="M268.66,58l.18,0a1.34,1.34,0,0,0,.49-.15h0a1.27,1.27,0,0,0,.39-.3l0,0a1.33,1.33,0,0,0,.25-.41l0,0a1.41,1.41,0,0,0,0-1s0,0,0,0a1.33,1.33,0,0,0-.25-.41l0,0a1.27,1.27,0,0,0-.39-.3h0a1.39,1.39,0,0,0-.45-.14l.56.57h0v1.69H267.5A1.42,1.42,0,0,0,268.66,58Z"/><path class="cls-18" d="M273.67,53.05a4.83,4.83,0,0,0-3.32-1.34H270a4.85,4.85,0,1,1,0,9.69h.33a4.83,4.83,0,0,0,3.32-8.35Z"/><path class="cls-7" d="M274.87,56.56A4.85,4.85,0,0,0,270,51.71h-1.23a4.85,4.85,0,0,1,0,9.69H270A4.85,4.85,0,0,0,274.87,56.56Z"/><path class="cls-18" d="M273.63,56.56a4.85,4.85,0,0,0-4.84-4.85h-.45l.16,0a4.83,4.83,0,0,1,0,9.65l-.16,0h.45A4.84,4.84,0,0,0,273.63,56.56Z"/><path class="cls-18" d="M265.63,57.41h-.36a3.51,3.51,0,0,0,3.39,2.65l.18,0h0A3.49,3.49,0,0,1,265.63,57.41Z"/><path class="cls-18" d="M268.84,53.07l-.18,0a3.5,3.5,0,0,0-1.51.36l.13.13A3.47,3.47,0,0,1,268.84,53.07Z"/><path class="cls-18" d="M265.62,55.72a4.13,4.13,0,0,1,.22-.62l-.23-.23a3.15,3.15,0,0,0-.34.85Z"/><path class="cls-18" d="M269.34,55.29a1.27,1.27,0,0,1,.39.3l0,0A1.33,1.33,0,0,1,270,56s0,0,0,0a1.41,1.41,0,0,1,0,1l0,0a1.33,1.33,0,0,1-.25.41l0,0a1.27,1.27,0,0,1-.39.3h0a1.34,1.34,0,0,1-.49.15l.18,0a1.45,1.45,0,0,0,0-2.89h-.16l0,0a1.39,1.39,0,0,1,.45.14Z"/><polygon class="cls-19" points="261.45 50.71 260.84 50.1 260.84 55.72 261.45 55.72 261.45 53.05 261.45 50.71"/><polygon class="cls-19" points="261.05 47.92 268.84 55.71 268.83 55.72 268.84 55.72 268.84 57.41 269.44 57.41 269.44 55.72 269.43 55.72 269.44 55.71 268.88 55.14 268.86 55.12 267.28 53.54 267.15 53.41 266.17 52.43 261.66 47.92 261.28 47.92 261.05 47.92"/><polygon class="cls-19" points="250.48 55.72 250.93 55.27 251.72 54.48 252 54.2 252.74 53.46 252.91 53.29 253.15 53.05 255.52 50.68 255.52 50.08 249.88 55.72 250.48 55.72"/><path class="cls-8" d="M263.91,57.41h4.93V55.72h0l-7.79-7.79h-5.77l-4.14,4.14-.1.1-.45.45-.2.2-.81.81-1.49,1.49-.07.07-.52.53h0v1.69h16.41Zm-8.39-6.73v5h-5.64l5.64-5.65Zm5.32,5V50.1l.61.61,2.34,2.34.84.84,1,1,.23.23.62.62h-5.62Z"/><path class="cls-5" d="M210.88,18.33V40.61a2,2,0,0,0,.08.54,2,2,0,0,0,1.36,1.37,5.44,5.44,0,0,1,0-.57V14.05c0-.13,0-.27,0-.4a2,2,0,0,0-1.43,1.9Z"/><path class="cls-14" d="M295.77,32.59H235.16v3.47H359a33.24,33.24,0,0,0-.45-3.47H295.77Z"/><path class="cls-15" d="M362.33,37.23q0-.58-.06-1.17c-.08-1.17-.21-2.33-.4-3.47A34.91,34.91,0,0,0,358,21.44l-.3-.52c-.25-.42-.5-.84-.76-1.25-.46-.73-.94-1.45-1.45-2.14l-.45-.59a35.25,35.25,0,0,0-7.15-7C347,9.3,346,8.67,345,8.09a35.18,35.18,0,0,0-35.72,0h7.86c.67-.22,1.34-.43,2-.61a32.23,32.23,0,0,1,8-1h0l1.5,0,.56,0,.92.07.7.08.74.09.8.12L333,7l.91.18.27.07a29.83,29.83,0,0,1,3,.83l.13.05.46.15h0A33.35,33.35,0,0,1,341.66,10a32.3,32.3,0,0,1,9.13,7l.51.59c.59.69,1.16,1.4,1.7,2.14A31.84,31.84,0,0,1,357.7,29l.15.55a29.76,29.76,0,0,1,.71,3,33.24,33.24,0,0,1,.45,3.47c0,.39.05.78.06,1.17s0,.79,0,1.18v19h.61a1.48,1.48,0,0,1-.61.47V61.4h.77a4.81,4.81,0,0,0,2.49-.7V38.41C362.36,38,362.34,37.62,362.33,37.23Z"/><path class="cls-14" d="M295.26,37.23h-60.1v1.36H359.1v-.18c0-.39,0-.79,0-1.18H295.26Z"/><path class="cls-14" d="M312.66,10H213.91a5.91,5.91,0,0,0-1.6,3.68c0,.13,0,.27,0,.4V42a5.44,5.44,0,0,0,0,.57,5.68,5.68,0,0,0,.33,1.48,6,6,0,0,0,5.6,3.92H359.1V39.75H235.16v6.16A1.14,1.14,0,0,1,234,47.05H223.67a1.14,1.14,0,0,1-1.14-1.14V39.75h-.7a.58.58,0,0,1,0-1.16h.7V37.23h-.7a.59.59,0,0,1,0-1.17h.7V32.59h-6.82V16.94H350.79a32.3,32.3,0,0,0-9.13-7h-29Z"/><path class="cls-14" d="M234.74,39.75H223v6.16a.9.9,0,0,0,.9.91h10a.9.9,0,0,0,.9-.91Z"/><rect class="cls-14" x="222.95" y="32.59" width="11.8" height="3.47"/><rect class="cls-14" x="222.95" y="37.23" width="11.8" height="1.36"/><path class="cls-21" d="M223,19.31V32.59h11.79V19.31a.9.9,0,0,0-.9-.91h-10A.9.9,0,0,0,223,19.31Zm1.17,1a.68.68,0,0,1,.69-.68h8.34a.68.68,0,0,1,.69.68v8.83a.69.69,0,0,1-.69.69h-8.34a.69.69,0,0,1-.69-.69Z"/><path class="cls-21" d="M303,17.53H216.29V32.59h6.24V19.31a1.14,1.14,0,0,1,1.14-1.14H234a1.14,1.14,0,0,1,1.14,1.14V32.59h123.4a29.76,29.76,0,0,0-.71-3,.68.68,0,0,1-.54.28H349a.69.69,0,0,1-.69-.69V20.35a.68.68,0,0,1,.69-.68h4c-.54-.74-1.11-1.45-1.7-2.14H303ZM247.61,29.18a.69.69,0,0,1-.69.69h-8.34a.69.69,0,0,1-.69-.69V20.35a.68.68,0,0,1,.69-.68h8.34a.68.68,0,0,1,.69.68Zm13.78,0a.69.69,0,0,1-.69.69h-8.34a.69.69,0,0,1-.69-.69V20.35a.68.68,0,0,1,.69-.68h8.34a.68.68,0,0,1,.69.68Zm13.77,0a.69.69,0,0,1-.69.69h-8.34a.69.69,0,0,1-.69-.69V20.35a.68.68,0,0,1,.69-.68h8.34a.68.68,0,0,1,.69.68Zm13.78,0a.69.69,0,0,1-.69.69h-8.34a.69.69,0,0,1-.69-.69V20.35a.68.68,0,0,1,.69-.68h8.34a.68.68,0,0,1,.69.68Zm13.77,0a.69.69,0,0,1-.69.69h-8.34a.68.68,0,0,1-.58-.34.72.72,0,0,1-.11-.35V20.35a.68.68,0,0,1,.69-.68H302a.68.68,0,0,1,.69.68Zm13.78,0a.69.69,0,0,1-.69.69h-8.34a.69.69,0,0,1-.69-.69V20.35a.68.68,0,0,1,.69-.68h8.34a.68.68,0,0,1,.69.68Zm18-8.83a.67.67,0,0,1,.68-.68h8.35a.67.67,0,0,1,.68.68v8.83a.68.68,0,0,1-.68.69h-8.35a.68.68,0,0,1-.68-.69Zm-5.05-.68h.3a.68.68,0,0,1,.69.68v8.83a.69.69,0,0,1-.69.69h-8.34a.69.69,0,0,1-.69-.69V20.35a.68.68,0,0,1,.69-.68h8Z"/><polygon class="cls-24" points="216.29 16.94 215.71 16.94 215.71 32.59 216.29 32.59 216.29 17.53 216.29 16.94"/><path class="cls-22" d="M303.54,16.94H216.29v.59h135l-.51-.59H303.54Z"/><path class="cls-23" d="M303.54,16.94H216.29v.59h135l-.51-.59H303.54Z"/><path class="cls-25" d="M307.07,29.18V20.35a.68.68,0,0,1,.69-.68h-.3a.68.68,0,0,0-.69.68v8.83a.69.69,0,0,0,.69.69h.3A.69.69,0,0,1,307.07,29.18Z"/><path class="cls-17" d="M315.8,19.67h-.3a.68.68,0,0,1,.69.68v8.83a.69.69,0,0,1-.69.69h.3a.69.69,0,0,0,.69-.69V20.35A.68.68,0,0,0,315.8,19.67Z"/><rect class="cls-20" x="307.07" y="19.67" width="9.11" height="10.2" rx="0.69"/><path class="cls-25" d="M293.3,29.18V20.35a.68.68,0,0,1,.42-.63.76.76,0,0,1,.27,0h-.31a.68.68,0,0,0-.69.68v8.83a.72.72,0,0,0,.11.35.68.68,0,0,0,.58.34H294a.6.6,0,0,1-.27-.06A.68.68,0,0,1,293.3,29.18Z"/><path class="cls-17" d="M302,19.67h-.3a.68.68,0,0,1,.69.68v8.83a.69.69,0,0,1-.69.69h.3a.69.69,0,0,0,.69-.69V20.35A.68.68,0,0,0,302,19.67Z"/><path class="cls-20" d="M302.41,29.18V20.35a.68.68,0,0,0-.69-.68H294a.76.76,0,0,0-.27,0,.68.68,0,0,0-.42.63v8.83a.68.68,0,0,0,.42.63.6.6,0,0,0,.27.06h7.73A.69.69,0,0,0,302.41,29.18Z"/><path class="cls-25" d="M279.52,29.18V20.35a.68.68,0,0,1,.69-.68h-.3a.68.68,0,0,0-.69.68v8.83a.69.69,0,0,0,.69.69h.3A.69.69,0,0,1,279.52,29.18Z"/><path class="cls-17" d="M288.25,19.67H288a.67.67,0,0,1,.68.68v8.83a.68.68,0,0,1-.68.69h.3a.69.69,0,0,0,.69-.69V20.35A.68.68,0,0,0,288.25,19.67Z"/><rect class="cls-20" x="279.52" y="19.67" width="9.11" height="10.2" rx="0.69"/><path class="cls-25" d="M265.75,29.18V20.35a.67.67,0,0,1,.68-.68h-.3a.68.68,0,0,0-.69.68v8.83a.69.69,0,0,0,.69.69h.3A.68.68,0,0,1,265.75,29.18Z"/><path class="cls-17" d="M274.47,19.67h-.3a.68.68,0,0,1,.69.68v8.83a.69.69,0,0,1-.69.69h.3a.69.69,0,0,0,.69-.69V20.35A.68.68,0,0,0,274.47,19.67Z"/><rect class="cls-20" x="265.75" y="19.67" width="9.11" height="10.2" rx="0.69"/><path class="cls-25" d="M252,29.18V20.35a.68.68,0,0,1,.69-.68h-.3a.68.68,0,0,0-.69.68v8.83a.69.69,0,0,0,.69.69h.3A.69.69,0,0,1,252,29.18Z"/><path class="cls-17" d="M260.7,19.67h-.31a.68.68,0,0,1,.69.68v8.83a.69.69,0,0,1-.69.69h.31a.69.69,0,0,0,.69-.69V20.35A.68.68,0,0,0,260.7,19.67Z"/><rect class="cls-20" x="251.97" y="19.67" width="9.11" height="10.2" rx="0.69"/><path class="cls-25" d="M238.19,29.18V20.35a.68.68,0,0,1,.69-.68h-.3a.68.68,0,0,0-.69.68v8.83a.69.69,0,0,0,.69.69h.3A.69.69,0,0,1,238.19,29.18Z"/><path class="cls-17" d="M246.92,19.67h-.3a.68.68,0,0,1,.69.68v8.83a.69.69,0,0,1-.69.69h.3a.69.69,0,0,0,.69-.69V20.35A.68.68,0,0,0,246.92,19.67Z"/><rect class="cls-20" x="238.19" y="19.67" width="9.11" height="10.2" rx="0.69"/><path class="cls-25" d="M224.81,29.87h.3a.69.69,0,0,1-.69-.69V20.35a.68.68,0,0,1,.69-.68h-.3a.68.68,0,0,0-.69.68v8.83A.69.69,0,0,0,224.81,29.87Z"/><path class="cls-17" d="M233.53,20.35v8.83a.69.69,0,0,1-.69.69h.31a.69.69,0,0,0,.69-.69V20.35a.68.68,0,0,0-.69-.68h-.31A.68.68,0,0,1,233.53,20.35Z"/><rect class="cls-20" x="224.42" y="19.67" width="9.11" height="10.2" rx="0.69"/><path class="cls-25" d="M321,29.18V20.35a.68.68,0,0,1,.69-.68h-.3a.68.68,0,0,0-.69.68v8.83a.69.69,0,0,0,.69.69h.3A.69.69,0,0,1,321,29.18Z"/><path class="cls-17" d="M330.15,20.35v8.83a.69.69,0,0,1-.69.69h.3a.69.69,0,0,0,.69-.69V20.35a.68.68,0,0,0-.69-.68h-.3A.68.68,0,0,1,330.15,20.35Z"/><path class="cls-20" d="M321.72,19.67a.68.68,0,0,0-.69.68v8.83a.69.69,0,0,0,.69.69h7.74a.69.69,0,0,0,.69-.69V20.35a.68.68,0,0,0-.69-.68h-7.74Z"/><path class="cls-25" d="M348.58,29.18V20.35a.68.68,0,0,1,.69-.68H349a.68.68,0,0,0-.69.68v8.83a.69.69,0,0,0,.69.69h.3A.69.69,0,0,1,348.58,29.18Z"/><path class="cls-17" d="M357,29.87h.3a.68.68,0,0,0,.54-.28L357.7,29v.14A.69.69,0,0,1,357,29.87Z"/><path class="cls-20" d="M348.58,20.35v8.83a.69.69,0,0,0,.69.69H357a.69.69,0,0,0,.69-.69V29a31.84,31.84,0,0,0-4.7-9.37h-3.73A.68.68,0,0,0,348.58,20.35Z"/><path class="cls-25" d="M335.19,29.87h.31a.69.69,0,0,1-.69-.69V20.35a.68.68,0,0,1,.69-.68h-.31a.67.67,0,0,0-.68.68v8.83A.68.68,0,0,0,335.19,29.87Z"/><path class="cls-17" d="M343.92,20.35v8.83a.69.69,0,0,1-.69.69h.31a.68.68,0,0,0,.68-.69V20.35a.67.67,0,0,0-.68-.68h-.31A.68.68,0,0,1,343.92,20.35Z"/><rect class="cls-20" x="334.81" y="19.67" width="9.11" height="10.2" rx="0.69"/><path class="cls-13" d="M295.32,36.06H235.16v1.17H359.07c0-.39,0-.78-.06-1.17H295.32Z"/><rect class="cls-13" x="222.95" y="36.06" width="11.8" height="1.16"/><path class="cls-13" d="M221.83,36.06a.59.59,0,0,0,0,1.17h.7V36.06Z"/><rect class="cls-13" x="222.95" y="38.59" width="11.8" height="1.16"/><path class="cls-13" d="M221.83,38.59a.58.58,0,0,0,0,1.16h.7V38.59Z"/><polygon class="cls-13" points="295.23 38.59 291.97 38.59 235.16 38.59 235.16 39.75 291.97 39.75 295.23 39.75 316.41 39.75 359.1 39.75 359.1 38.59 316.41 38.59 295.23 38.59"/><path class="cls-28" d="M223,45.91V19.31a.9.9,0,0,1,.9-.91h-.18a.91.91,0,0,0-.91.91v26.6a.91.91,0,0,0,.91.91h.18A.9.9,0,0,1,223,45.91Z"/><path class="cls-28" d="M235.16,37.23V19.31A1.14,1.14,0,0,0,234,18.17h-.18A1.14,1.14,0,0,1,235,19.31v26.6a1.14,1.14,0,0,1-1.13,1.14H234a1.14,1.14,0,0,0,1.14-1.14V37.23Z"/><path class="cls-29" d="M235,45.91V19.31a1.14,1.14,0,0,0-1.13-1.14H223.67a1.14,1.14,0,0,0-1.14,1.14v26.6a1.14,1.14,0,0,0,1.14,1.14h10.17A1.14,1.14,0,0,0,235,45.91Zm-1.13.91H223.67a.91.91,0,0,1-.91-.91V19.31a.91.91,0,0,1,.91-.91h10.17a.9.9,0,0,1,.9.91v26.6A.9.9,0,0,1,233.84,46.82Z"/></g></g></g></svg>