<svg xmlns="http://www.w3.org/2000/svg" viewBox="0 0 197.01 151.97"><defs><style>.cls-1{fill:#659ea3;}.cls-2,.cls-3{fill:#2d5357;}.cls-2{opacity:0.3;}.cls-4{fill:#84b1b5;}.cls-5{fill:#f2daae;}.cls-6{fill:#515357;opacity:0.2;}.cls-7{fill:#577579;}.cls-8{fill:#3b6e7a;}.cls-9{fill:#1b454c;}.cls-10{opacity:0.6;}</style></defs><g id="katman_2" data-name="katman 2"><g id="katman_1-2" data-name="katman 1"><path class="cls-1" d="M197,93.08V152H0V16c1.08-1.37,2.05-2.89,3-4.3.63-1,1.29-1.94,2-2.87.33-.47.67-.94,1-1.38s.55-.73.86-1.07L7,6.11A23.29,23.29,0,0,1,13.2.86,5.74,5.74,0,0,1,17.62.18l.12,0c.16,0,.31.09.48.14s.39.15.6.25a20.73,20.73,0,0,1,2.6,1.55c.49.34,1,.66,1.49,1h0l.4.28.26.18L24,4a4.41,4.41,0,0,1,.51.46c.17.15.33.32.49.48.65.74,1.31,2,2.27,2.37a6.15,6.15,0,0,0,2.92-.09,2.49,2.49,0,0,1,1.72.23,10.23,10.23,0,0,1,1.57,1.3c1,1,1.89,2.11,2.8,3.16a14.54,14.54,0,0,0,2.52,2.44,9.76,9.76,0,0,0,3.23,1.24,6.61,6.61,0,0,1,2.91,1,7.48,7.48,0,0,1,2.42,3.77c.61,2.26.83,4.23,2.7,5.86,1.58,1.37,3.67,1.22,5.61,1.6,5.56,1,5.45,8.27,9.76,11,2.26,1.43,4.92,1.5,6.59,3.87,1.12,1.58,1.16,3.52,1.3,5.42A16.62,16.62,0,0,0,73.54,50a9.11,9.11,0,0,0,3.65,5.5A17.41,17.41,0,0,0,83,57.92a15.65,15.65,0,0,1,6.59,3.29A21.21,21.21,0,0,1,93.77,67a55.89,55.89,0,0,0,3.57,6.31,13.47,13.47,0,0,0,.86,1.1,21.21,21.21,0,0,0,4.54,3.84,16.5,16.5,0,0,0,4.4,2,24.53,24.53,0,0,0,3.79.79h0c1.72.24,3.47.35,5.24.49a39.18,39.18,0,0,1,8.12,1.38,20.94,20.94,0,0,1,3.44,1.38c1.24.59,2.45,1.23,3.72,1.74,2.8,1.14,5.78,1.22,8.74,1.43.22,0,.45,0,.65.06,2.22.15,4.41.36,6.6.65,0,0,0,0,0,0,1.12.14,2.24.29,3.36.47,13,2,26.15-.35,39.16-1.19C192.34,87.27,194.68,93.1,197,93.08Z"/><path class="cls-2" d="M1.52,55a2.94,2.94,0,0,0,2.15-.39A4.7,4.7,0,0,0,5,52.8a6.09,6.09,0,0,1,1.38-1.53,10.08,10.08,0,0,0,1.28-1.48,41.21,41.21,0,0,0,2.94-5.33l2.28-4.56c.12-.25.65-.4.91-.44a3,3,0,0,1,1.42.11c1.13.36,2.27,1.25,3.49,1.2.92,0,2.74-1,2.43-2.12a4.19,4.19,0,0,1-.31-2.26,7.9,7.9,0,0,1,1.14-2.24c.6-.94,1.24-1.85,1.86-2.78a3.23,3.23,0,0,0,.89-1.92A3.28,3.28,0,0,0,23.48,27c-1.62-1.26-4-1.26-5.94-.93s-4.42,1-5.37,2.89-1.06,4.58-3.61,4.48a3,3,0,0,1-2.44-1.14,6.32,6.32,0,0,1-.87-2.71,57.16,57.16,0,0,1-.64-5.85c-.08-1.95-.19-3.91.78-5.69a3.45,3.45,0,0,1,1.78-1.67,6.32,6.32,0,0,0,2-.81,3.6,3.6,0,0,0,.78-3.21A10.61,10.61,0,0,0,8.61,9.23,21.59,21.59,0,0,1,7,6.12,54.91,54.91,0,0,0,3,11.7c-.93,1.42-1.9,2.92-3,4.3V55.37A2.62,2.62,0,0,1,1.52,55Z"/><path class="cls-2" d="M31.7,53.22c.09-.45.13-1.09-.41-1.28a4.07,4.07,0,0,0-2.47.33,7.58,7.58,0,0,0-2.1.92,10.57,10.57,0,0,0-1.45,1.39,28.66,28.66,0,0,1-3,3.2,7.73,7.73,0,0,1-3.15,1.63,6.5,6.5,0,0,0-3.77,1.94c-.78.85-1,2-1.56,2.93A3.81,3.81,0,0,1,11,66c-1.27.22-2.49-.5-3.6-1a7.21,7.21,0,0,0-4.25-.52A11.68,11.68,0,0,1,0,64.86V99.14c1.41,0,2.83,0,4.24,0,3.38,0,6.77-.09,10.15,0a71.83,71.83,0,0,1,9.39.56,97.1,97.1,0,0,0,10.36.85,102.17,102.17,0,0,0,13.55-.35,45.32,45.32,0,0,0,12.72-2.79c3.11-1.27,6.36-3.3,7.55-6.62a12,12,0,0,0-.62-9A27.77,27.77,0,0,0,65.13,78c-.68-1-2.42.53-3.2-.34s-.36-2-.56-3c-.1-.47-.65-.88-.93-1.27s-.58-.87-.91-1.27A3.23,3.23,0,0,0,56.25,71a7.48,7.48,0,0,0-3,1.14,15.12,15.12,0,0,0-2,1.69,7.11,7.11,0,0,1-1.48,1.25c-1.25.7-2.28-.31-3-1.3a13.22,13.22,0,0,1-2-3.72c-.29-1-.23-2.07-.53-3.06a3.17,3.17,0,0,0-3-1.93,3.26,3.26,0,0,0-2.61,1.58,4.67,4.67,0,0,1-2,1.75,5.15,5.15,0,0,1-3.42-.11A7.36,7.36,0,0,1,29,62.47a8.53,8.53,0,0,1,.92-5.11A17.46,17.46,0,0,0,31.7,53.22Z"/><path class="cls-3" d="M1.51,72.22a3.4,3.4,0,0,0-1.51.2V95.94c1,.22,2,.44,3,.68,2.55.6,5.11,1.27,7.71,1.66a43,43,0,0,0,8,.44A93.15,93.15,0,0,0,30.49,97.4c3.83-.63,7.65-1.28,11.49-1.85,7.8-1.18,15.7-1,23.55-1.31a83.71,83.71,0,0,0,12-1.24c1.87-.36,4.55-1.18,5-3.38.57-3.2-3.66-5.88-6.33-4.16a.12.12,0,0,1-.18-.07c-.26-.75-.66-1.65-1.54-1.8A5.11,5.11,0,0,0,72.1,84a.12.12,0,0,1-.15-.09,4.9,4.9,0,0,0-3.59-4.18c-2.17-.43-3.72,1.12-4.3,3.07a.13.13,0,0,1-.23,0,2.67,2.67,0,0,0-2.6-1.43,4.94,4.94,0,0,0-2.37,1.46.12.12,0,0,1-.21-.09,12.25,12.25,0,0,0-1.06-5.21c-.46-.83-1.23-1.64-2.27-1.39a4.61,4.61,0,0,0-2.54,2.18,16.5,16.5,0,0,0-2,4.82.12.12,0,0,1-.24,0c-.19-.64-.56-2.08-1.45-2.1s-1.54.83-2,1.42a.13.13,0,0,1-.21,0c-.19-1-.5-2.26-1.43-2.81a2.23,2.23,0,0,0-2,0,9.41,9.41,0,0,0-3.7,3.24.12.12,0,0,1-.23-.06c-.15-2.37-1.31-5.51-3.93-6.09-2.94-.66-4.1,2.7-4.32,5a.12.12,0,0,1-.24,0c-.41-1.16-1.2-2.5-2.6-2.51A5.26,5.26,0,0,0,24.87,81a.13.13,0,0,1-.21-.09,9.3,9.3,0,0,0-.94-4.81,4.27,4.27,0,0,0-2.53-2.26c-3.17-.75-3.94,3.83-4,6a.12.12,0,0,1-.24,0,3,3,0,0,0-3.1-2.35,6.87,6.87,0,0,0-3.71,1.66.12.12,0,0,1-.21-.08c0-1.24-.35-2.93-1.59-3.54-1.44-.7-2.67.64-3.35,1.75-.07.1-.24.07-.23-.06C4.82,75.13,4,72.42,1.51,72.22Z"/><path class="cls-2" d="M197,93.08v17.34c-.25.13-.5.24-.75.38-3.11,1.56-6.17,3.2-9.54,4a17.12,17.12,0,0,1-3,.43,27.76,27.76,0,0,1-8-1.1c-.79-.19-1.56-.4-2.34-.61-1.51-.41-3-.86-4.52-1.27l-1-.29a44.64,44.64,0,0,0-7.79-1.49,42.9,42.9,0,0,0-8.55.42,48.43,48.43,0,0,1-7.11.39l-1.06-.07a20,20,0,0,1-7.88-2.46c-3.91-2.16-6.89-5.62-10.54-8.15-.22-.15-.44-.3-.68-.44a29.19,29.19,0,0,0-9-3.4l-3-.66-2.15-.44-.1,0h0c-3.23-.67-6.57-1.19-9.77-2.1a27,27,0,0,1-5.54-2.13A33,33,0,0,1,90.87,89c-1.1-.76-2.16-1.58-3.22-2.39-1.47-1.14-2.92-2.31-4.43-3.39-1.68-1.2-3.52-2.16-5.13-3.45a11.22,11.22,0,0,1-1.1-1,20.8,20.8,0,0,1-3.35-5.11c-.94-1.76-2.08-3.93-3.85-5a27.94,27.94,0,0,0-3-1.19,11.32,11.32,0,0,1-3.35-2.61c-1.78-1.89-3-4.1-5-5.79C57,57.86,55.22,57,53.62,55.82,51.09,54,50.35,51.32,50,48.49c-.12-1.15-.19-2.33-.27-3.48-.24-3.23-2.85-4.63-5.3-6.31a30.38,30.38,0,0,1-5.28-4.17A12.88,12.88,0,0,1,36,28.13c-.45-2.08.19-4.79-1.5-6.38s-3.88-2.27-5.88-3.12a20.75,20.75,0,0,1-7.11-4.49c-2.23-2.33-2.94-5.45-3-8.57A16.78,16.78,0,0,0,17.62.18l.12,0c.16,0,.31.09.48.14s.39.15.6.25a20.73,20.73,0,0,1,2.6,1.55c.49.34,1,.66,1.49,1h0l.4.28.26.18L24,4a4.41,4.41,0,0,1,.51.46c.17.15.33.32.49.48.65.74,1.31,2,2.27,2.37a6.15,6.15,0,0,0,2.92-.09,2.49,2.49,0,0,1,1.72.23,10.23,10.23,0,0,1,1.57,1.3c1,1,1.89,2.11,2.8,3.16a14.54,14.54,0,0,0,2.52,2.44,9.76,9.76,0,0,0,3.23,1.24,6.61,6.61,0,0,1,2.91,1,7.48,7.48,0,0,1,2.42,3.77c.61,2.26.83,4.23,2.7,5.86,1.58,1.37,3.67,1.22,5.61,1.6,5.56,1,5.45,8.27,9.76,11,2.26,1.43,4.92,1.5,6.59,3.87,1.12,1.58,1.16,3.52,1.3,5.42A16.62,16.62,0,0,0,73.54,50a9.11,9.11,0,0,0,3.65,5.5A17.41,17.41,0,0,0,83,57.92a15.65,15.65,0,0,1,6.59,3.29A21.21,21.21,0,0,1,93.77,67a55.89,55.89,0,0,0,3.57,6.31,13.47,13.47,0,0,0,.86,1.1,21.21,21.21,0,0,0,4.54,3.84,16.5,16.5,0,0,0,4.4,2,24.53,24.53,0,0,0,3.79.79h0c1.72.24,3.47.35,5.24.49a39.18,39.18,0,0,1,8.12,1.38,20.94,20.94,0,0,1,3.44,1.38c1.24.59,2.45,1.23,3.72,1.74,2.8,1.14,5.78,1.22,8.74,1.43.22,0,.45,0,.65.06,2.22.15,4.41.36,6.6.65,0,0,0,0,0,0,1.12.14,2.24.29,3.36.47,13,2,26.15-.35,39.16-1.19C192.34,87.27,194.68,93.1,197,93.08Z"/><path class="cls-2" d="M197,92.8v17.62c-.25.13-.5.24-.75.38-3.11,1.56-6.17,3.2-9.54,4a17.12,17.12,0,0,1-3,.43,27.76,27.76,0,0,1-8-1.1c-.79-.19-1.56-.4-2.34-.61-1.51-.41-3-.86-4.52-1.27l-1-.29a44.64,44.64,0,0,0-7.79-1.49,42.9,42.9,0,0,0-8.55.42,48.43,48.43,0,0,1-7.11.39l-1.06-.07a20,20,0,0,1-7.88-2.46c-3.91-2.16-6.89-5.62-10.54-8.15-.22-.15-.44-.3-.68-.44a29.19,29.19,0,0,0-9-3.4l-3-.66-2.15-.44-.1,0h0a20.46,20.46,0,0,0-1.53-1.82.5.5,0,0,1-.1-.11c-.89-.94-1.83-1.8-2.76-2.69l-.29-.28a19.23,19.23,0,0,1-2.77-3.41,1.56,1.56,0,0,1-.13-.19l-.62-.94A56.67,56.67,0,0,0,97,79.37a13.49,13.49,0,0,0-3.48-2.91c-.34-.19-.69-.36-1-.54h0a11.78,11.78,0,0,1-3.09-1.86,8.84,8.84,0,0,1-2.29-4,6.87,6.87,0,0,0-2.13-3.41,21.66,21.66,0,0,0-3.79-1.9,17.61,17.61,0,0,1-4.39-3.73A46.77,46.77,0,0,1,72.89,57c-1-1.26-1.9-2.63-3-3.85-.21-.22-.42-.37-.64-.57a3.2,3.2,0,0,1-.57-.84c-.24-.45-.54-1.28-1-1.54-.83-.5-1.69.25-2.4.65a1.06,1.06,0,0,1-.73.19c-.25,0-.54-.51-.68-.7a7.77,7.77,0,0,1-.94-1.75c-.07-.18-.14-.38-.2-.56a30.37,30.37,0,0,1-.92-3.36c-.66-2.78-1.39-5.41-3.19-7.68-1.67-2.1-4.15-3-6.49-4.08-2.61-1.22-4.81-3.19-5.38-6.11-.28-1.42-.33-2.87-.72-4.26a5.12,5.12,0,0,0-2-2.74,5.46,5.46,0,0,0-2.23-.71,16.67,16.67,0,0,1-4.28-2c-1.64-.92-3.25-1.89-4.83-2.88s-2.85-2-4.39-2.78c-.74-.37-1.53-.59-2.26-1a4.17,4.17,0,0,1-1.47-1.91,15.87,15.87,0,0,1-1.66-5.38h0l.4.29.26.18L24,4a4.41,4.41,0,0,1,.51.46c.17.15.33.32.49.48.65.74,1.31,2,2.27,2.37a6.15,6.15,0,0,0,2.92-.09,2.49,2.49,0,0,1,1.72.23,10.23,10.23,0,0,1,1.57,1.3c1,1,1.89,2.11,2.8,3.16a14.54,14.54,0,0,0,2.52,2.44,9.76,9.76,0,0,0,3.23,1.24,6.61,6.61,0,0,1,2.91,1,7.48,7.48,0,0,1,2.42,3.77c.61,2.26.83,4.23,2.7,5.86,1.58,1.37,3.67,1.22,5.61,1.6,5.56,1,5.45,8.27,9.76,11,2.26,1.43,4.92,1.5,6.59,3.87,1.12,1.58,1.16,3.52,1.3,5.42A16.62,16.62,0,0,0,73.54,50a9.11,9.11,0,0,0,3.65,5.5A17.41,17.41,0,0,0,83,57.92a15.65,15.65,0,0,1,6.59,3.29A21.21,21.21,0,0,1,93.77,67a55.89,55.89,0,0,0,3.57,6.31,13.47,13.47,0,0,0,.86,1.1,21.21,21.21,0,0,0,4.54,3.84,16.5,16.5,0,0,0,4.4,2,24.53,24.53,0,0,0,3.79.79h0c1.72.24,3.47.35,5.24.49a39.18,39.18,0,0,1,8.12,1.38,20.94,20.94,0,0,1,3.44,1.38c1.24.59,2.45,1.23,3.72,1.74,2.8,1.14,5.78,1.22,8.74,1.43.22,0,.45,0,.65.06,2.22.15,4.41.36,6.6.65,0,0,0,0,0,0,1.12.14,2.24.29,3.36.47,13,2,26.15-.35,39.16-1.19C192.34,87.27,194.68,92.81,197,92.8Z"/><path class="cls-4" d="M187,114.84c-11-4.23-21.54-9.61-32.32-14.4a136,136,0,0,0-17.84-6.83A188.67,188.67,0,0,0,116.47,89c-14-2.33-28.21-2.61-42.39-2.27a140.69,140.69,0,0,0-22.35,2,158.15,158.15,0,0,0-20.82,5.66C20.64,97.77,10.48,101.72,0,104.45V152H197V118.25C193.61,117.26,190.25,116.1,187,114.84Z"/><path class="cls-5" d="M115,108.41l.77-.16a35.39,35.39,0,0,0,4.65-1.24,14.43,14.43,0,0,0,2.4-1.1,9.8,9.8,0,0,0,1-.62c.23-.17.36-.23.13-.46s-.3-.31-.46-.46a95.17,95.17,0,0,0-7.67-7.22,49,49,0,0,0-9.63-5.92c-3-1.45-6.14-2.78-9.14-4.32q-3.39-.18-6.78-.26c4.27,3,8.73,5.81,12.9,9C107.81,99.16,112.23,103.21,115,108.41Z"/><path class="cls-6" d="M123.93,104.83c-.15-.16-.3-.31-.46-.46a95.17,95.17,0,0,0-7.67-7.22,49,49,0,0,0-9.63-5.92c-3-1.45-6.14-2.78-9.14-4.32l-1.44-.07a19.47,19.47,0,0,0,3.5,1.69,31.73,31.73,0,0,1,4,2.1c1.47.87,2.92,1.78,4.42,2.57,1.31.69,2.59,1.41,3.82,2.22a41.44,41.44,0,0,1,11.09,10.72l.42-.23a9.8,9.8,0,0,0,1-.62C124,105.12,124.16,105.06,123.93,104.83Z"/><path class="cls-7" d="M83.58,88.94a3.69,3.69,0,0,1,.71.64.88.88,0,0,1,.21.55,1.09,1.09,0,0,1-.23.64,1.39,1.39,0,0,1-.85.55,3.85,3.85,0,0,1-.72-.63.84.84,0,0,1-.2-.56,1.09,1.09,0,0,1,.23-.64A1.52,1.52,0,0,1,83.58,88.94Z"/><path class="cls-7" d="M82.43,89.52a2.56,2.56,0,0,1,.76.54.73.73,0,0,1,.2.46.65.65,0,0,1-.24.44,2.48,2.48,0,0,1-.8.45,1.85,1.85,0,0,1-.77-.5.73.73,0,0,1-.19-.51.74.74,0,0,1,.24-.48A1.69,1.69,0,0,1,82.43,89.52Z"/><path class="cls-7" d="M81.2,89.11a2.24,2.24,0,0,1,.76.64.94.94,0,0,1,.2.56.87.87,0,0,1-.24.54,2.35,2.35,0,0,1-.8.56,1.9,1.9,0,0,1-.77-.6,1,1,0,0,1-.19-.61.92.92,0,0,1,.24-.58A1.65,1.65,0,0,1,81.2,89.11Z"/><path class="cls-7" d="M81,99.55a3.35,3.35,0,0,1,.77.6,1,1,0,0,1,.27.57,1.19,1.19,0,0,1-.16.7,1.54,1.54,0,0,1-.8.67,3.54,3.54,0,0,1-.77-.6,1,1,0,0,1-.26-.57,1.19,1.19,0,0,1,.16-.7A1.55,1.55,0,0,1,81,99.55Z"/><path class="cls-7" d="M79.47,100.2a2.92,2.92,0,0,1,.86.3.7.7,0,0,1,.32.43.78.78,0,0,1-.11.57,1.37,1.37,0,0,1-.74.59,3.87,3.87,0,0,1-.81-.36.59.59,0,0,1-.29-.37.79.79,0,0,1,.1-.51A1.8,1.8,0,0,1,79.47,100.2Z"/><path class="cls-7" d="M82.43,100.45a2,2,0,0,1,.76.47.72.72,0,0,1,.2.48.74.74,0,0,1-.24.47,2.28,2.28,0,0,1-.8.47,2.09,2.09,0,0,1-.77-.47.65.65,0,0,1-.19-.47.73.73,0,0,1,.24-.48A2.28,2.28,0,0,1,82.43,100.45Z"/><path class="cls-7" d="M95.1,99.36a1.45,1.45,0,0,1,.86.55,1.15,1.15,0,0,1,.22.64.82.82,0,0,1-.2.56,4.52,4.52,0,0,1-.71.63,1.43,1.43,0,0,1-.86-.56,1,1,0,0,1-.22-.63.88.88,0,0,1,.2-.56A3.71,3.71,0,0,1,95.1,99.36Z"/><path class="cls-7" d="M96.25,99.93a1.73,1.73,0,0,1,.8.4.71.71,0,0,1,.24.48.73.73,0,0,1-.19.51,1.78,1.78,0,0,1-.77.5,2.3,2.3,0,0,1-.8-.45.57.57,0,0,1-.23-.43.63.63,0,0,1,.19-.46A2.65,2.65,0,0,1,96.25,99.93Z"/><path class="cls-7" d="M97.48,99.52a1.8,1.8,0,0,1,.8.51.93.93,0,0,1,0,1.19,1.76,1.76,0,0,1-.76.6,2.19,2.19,0,0,1-.81-.55.85.85,0,0,1-.23-.54.89.89,0,0,1,.19-.57A2.61,2.61,0,0,1,97.48,99.52Z"/><path class="cls-7" d="M60.94,91.24a3.4,3.4,0,0,1,.78.6,1,1,0,0,1,.26.57,1.19,1.19,0,0,1-.16.7,1.51,1.51,0,0,1-.79.67,3.71,3.71,0,0,1-.78-.6,1,1,0,0,1-.26-.57,1.19,1.19,0,0,1,.16-.7A1.55,1.55,0,0,1,60.94,91.24Z"/><path class="cls-7" d="M59.47,91.89a3,3,0,0,1,.85.3.66.66,0,0,1,.32.42.8.8,0,0,1-.11.58,1.33,1.33,0,0,1-.74.59,4.49,4.49,0,0,1-.81-.36.59.59,0,0,1-.29-.37.79.79,0,0,1,.1-.51A1.7,1.7,0,0,1,59.47,91.89Z"/><path class="cls-7" d="M62.42,92.14a1.91,1.91,0,0,1,.76.47.67.67,0,0,1,.2.47.77.77,0,0,1-.23.48,2.34,2.34,0,0,1-.81.47,2.18,2.18,0,0,1-.77-.47.66.66,0,0,1-.19-.48.74.74,0,0,1,.24-.47A2.13,2.13,0,0,1,62.42,92.14Z"/><path class="cls-7" d="M126.18,94.8a1.45,1.45,0,0,1,.86.55,1.15,1.15,0,0,1,.22.64.82.82,0,0,1-.2.56,4.52,4.52,0,0,1-.71.63,1.43,1.43,0,0,1-.86-.56,1,1,0,0,1-.22-.63.88.88,0,0,1,.2-.56A3.71,3.71,0,0,1,126.18,94.8Z"/><path class="cls-7" d="M127.33,95.37a1.73,1.73,0,0,1,.8.4.71.71,0,0,1,.24.48.73.73,0,0,1-.19.51,1.78,1.78,0,0,1-.77.5,2.3,2.3,0,0,1-.8-.45.57.57,0,0,1-.23-.43.63.63,0,0,1,.19-.46A2.65,2.65,0,0,1,127.33,95.37Z"/><path class="cls-7" d="M128.56,95a1.8,1.8,0,0,1,.8.51,1,1,0,0,1,.24.59,1,1,0,0,1-.19.6,1.76,1.76,0,0,1-.76.6,2.19,2.19,0,0,1-.81-.55.85.85,0,0,1-.23-.54.89.89,0,0,1,.19-.57A2.61,2.61,0,0,1,128.56,95Z"/><path class="cls-8" d="M149.31,96.65c-27.49,3.51-54.8,8.29-82.43,10.67-13.82,1.19-27.65,1.8-41.52,1.94-6.86.07-13.72.36-20.58.12L0,109.19V152H197V92.8A437.83,437.83,0,0,0,149.31,96.65Z"/><path class="cls-5" d="M170.17,101.18c.76,2.29.33,4.78-1.87,6.06s-4.84,1.37-7.27,1.43a59.08,59.08,0,0,0-6.51.39,54.68,54.68,0,0,0-14.35,3.67c-4,1.73-8.3,4.38-9.85,8.69a.13.13,0,0,1,.07.21,6.54,6.54,0,0,0-.55.65c.63.14,1.27.29,1.89.46,2,.53,3.91,1.1,5.86,1.67a37.38,37.38,0,0,0,6,1.54,3.26,3.26,0,0,0,2.91-.64,8.11,8.11,0,0,0,1.19-2.3,13.8,13.8,0,0,1,1.72-3,14,14,0,0,1,6.3-4.21,35.3,35.3,0,0,1,7.94-1.8,67.05,67.05,0,0,1,6.94-.35c2.1,0,4.55-.11,6.33-1.37,2.05-1.45,2.28-4.14,2.05-6.45-.49-4.92-3.47-10.37-8.58-11.5-1.79.16-3.59.33-5.38.52a2.82,2.82,0,0,1,.31.21A13.06,13.06,0,0,1,170.17,101.18Z"/><path class="cls-6" d="M178.94,105.82c-.49-4.92-3.47-10.37-8.58-11.5l-.68.06a36.64,36.64,0,0,1,5,4.63,15.73,15.73,0,0,1,2.64,5.63c.46,1.77.75,4.08-.64,5.53s-3.8,1.94-5.88,2c-1.53.06-3.06,0-4.58.06a59.81,59.81,0,0,0-6,.53,34.39,34.39,0,0,0-9.84,2.49c-4.36,2-8.17,5.57-9.58,10.13a17.56,17.56,0,0,0,2.74.57,3.26,3.26,0,0,0,2.91-.64,8.11,8.11,0,0,0,1.19-2.3,13.8,13.8,0,0,1,1.72-3,14,14,0,0,1,6.3-4.21,35.3,35.3,0,0,1,7.94-1.8,67.05,67.05,0,0,1,6.94-.35c2.1,0,4.55-.11,6.33-1.37C178.94,110.82,179.17,108.13,178.94,105.82Z"/><path class="cls-4" d="M115.07,107a1.55,1.55,0,0,1,.79.67,1.19,1.19,0,0,1,.16.7,1,1,0,0,1-.26.57,3.4,3.4,0,0,1-.78.6,1.47,1.47,0,0,1-.79-.67,1.19,1.19,0,0,1-.16-.7,1,1,0,0,1,.26-.57A3.71,3.71,0,0,1,115.07,107Z"/><path class="cls-4" d="M116.54,107.68a1.69,1.69,0,0,1,.68.64.79.79,0,0,1,.1.51.57.57,0,0,1-.29.37,3.87,3.87,0,0,1-.81.36,1.33,1.33,0,0,1-.74-.59.77.77,0,0,1-.11-.57.7.7,0,0,1,.32-.43A2.71,2.71,0,0,1,116.54,107.68Z"/><path class="cls-4" d="M113.59,107.92a2.28,2.28,0,0,1,.8.47.73.73,0,0,1,.24.48.65.65,0,0,1-.19.47,2,2,0,0,1-.77.47,2.19,2.19,0,0,1-.81-.47.77.77,0,0,1-.23-.47.67.67,0,0,1,.2-.48A2,2,0,0,1,113.59,107.92Z"/><path class="cls-4" d="M191.92,98.81a3.1,3.1,0,0,1,.55.81,1,1,0,0,1,.08.61,1.16,1.16,0,0,1-.32.56,1.93,1.93,0,0,1-.89.48,2.13,2.13,0,0,1-.66-.75,1.06,1.06,0,0,1-.09-.69,1.26,1.26,0,0,1,.37-.63A1.62,1.62,0,0,1,191.92,98.81Z"/><path class="cls-4" d="M190.36,98.48a2.21,2.21,0,0,1,.78.72,1.29,1.29,0,0,1,0,1.44,2.13,2.13,0,0,1-.78.72,2.17,2.17,0,0,1-.79-.72,1.33,1.33,0,0,1-.21-.72,1.42,1.42,0,0,1,.21-.72A2.17,2.17,0,0,1,190.36,98.48Z"/><path class="cls-4" d="M188.88,99.06a6.68,6.68,0,0,1,.78.46.7.7,0,0,1,.29.43,1,1,0,0,1-.13.63,1.24,1.24,0,0,1-.78.61,7.69,7.69,0,0,1-.78-.46.65.65,0,0,1-.28-.43,1,1,0,0,1,.12-.63A1.27,1.27,0,0,1,188.88,99.06Z"/><path class="cls-4" d="M151,100.08a3.1,3.1,0,0,1,.55.81,1,1,0,0,1,.08.61,1.11,1.11,0,0,1-.32.56,2,2,0,0,1-.89.49,2.23,2.23,0,0,1-.66-.76,1,1,0,0,1-.09-.69,1.19,1.19,0,0,1,.37-.62A1.62,1.62,0,0,1,151,100.08Z"/><path class="cls-4" d="M149.4,99.76a2.2,2.2,0,0,1,.78.71,1.29,1.29,0,0,1,0,1.44,2.13,2.13,0,0,1-.78.72,2.17,2.17,0,0,1-.79-.72,1.33,1.33,0,0,1-.21-.72,1.42,1.42,0,0,1,.21-.72A2.16,2.16,0,0,1,149.4,99.76Z"/><path class="cls-4" d="M147.92,100.33a7.69,7.69,0,0,1,.78.46.73.73,0,0,1,.29.43,1,1,0,0,1-.13.63,1.28,1.28,0,0,1-.78.62c-.39-.23-.61-.34-.78-.46a.69.69,0,0,1-.28-.44,1,1,0,0,1,.12-.63A1.34,1.34,0,0,1,147.92,100.33Z"/><path class="cls-4" d="M182.36,111.94a1.62,1.62,0,0,1,1,.39,1.19,1.19,0,0,1,.37.63,1.06,1.06,0,0,1-.09.69,2.13,2.13,0,0,1-.66.75,1.93,1.93,0,0,1-.89-.48,1.16,1.16,0,0,1-.32-.56,1,1,0,0,1,.08-.61A3.38,3.38,0,0,1,182.36,111.94Z"/><path class="cls-4" d="M183.92,111.61a2.17,2.17,0,0,1,.79.72,1.42,1.42,0,0,1,.21.72,1.25,1.25,0,0,1-.21.72,2.17,2.17,0,0,1-.79.72,2.21,2.21,0,0,1-.78-.72,1.34,1.34,0,0,1-.22-.72,1.43,1.43,0,0,1,.22-.72A2.21,2.21,0,0,1,183.92,111.61Z"/><path class="cls-4" d="M185.4,112.19a1.27,1.27,0,0,1,.78.61,1,1,0,0,1,.12.63.65.65,0,0,1-.28.43,6.68,6.68,0,0,1-.78.46,1.24,1.24,0,0,1-.78-.61.89.89,0,0,1-.12-.63.65.65,0,0,1,.28-.43A7.69,7.69,0,0,1,185.4,112.19Z"/><path class="cls-9" d="M184.63,117.84c-6.85.91-13.89.74-20.79.78a330.93,330.93,0,0,1-41.16-2.05c-12.32-1.49-24.65-3.68-36.35-7.91-10.51-3.79-20.59-8.66-30.8-13.18s-20.87-8.91-32-11.18A69.72,69.72,0,0,0,0,83.36V152H197l-.25-31.25C192.63,121.41,188.78,117.28,184.63,117.84Z"/><path class="cls-5" d="M65.28,120.58c-.65.59-1.3,1.19-1.92,1.81l-.84.86c-.3.32.14.46.43.65a19.76,19.76,0,0,0,3.93,2c2.81,1.14,5.75,1.94,8.56,3.09.92.37,1.84.73,2.77,1.08a38.48,38.48,0,0,1,10.94-11.47,37.16,37.16,0,0,1,11.9-5.7,126.24,126.24,0,0,1-13.36-3.79,45,45,0,0,0-13.84,5.28A50.59,50.59,0,0,0,65.28,120.58Z"/><path class="cls-6" d="M98.86,112.41c-3.1.85-4.9,2-7.4,3A30.15,30.15,0,0,0,84,119.52c-1.29.94-2.55,1.93-3.8,2.93s-2.23,1.75-3.25,2.73A23.09,23.09,0,0,0,74,128.46h0c.48.18,1,.35,1.42.55.92.37,1.84.73,2.77,1.08a38.48,38.48,0,0,1,10.94-11.47,37.16,37.16,0,0,1,11.9-5.7C100.32,112.77,99.59,112.59,98.86,112.41Z"/><path class="cls-8" d="M65.26,104.84a3.71,3.71,0,0,1,.71.63.89.89,0,0,1,.21.56,1.07,1.07,0,0,1-.23.63,1.4,1.4,0,0,1-.85.56,4.25,4.25,0,0,1-.72-.63.94.94,0,0,1-.2-.56,1.09,1.09,0,0,1,.23-.64A1.42,1.42,0,0,1,65.26,104.84Z"/><path class="cls-8" d="M64.11,105.41a2.38,2.38,0,0,1,.76.55.69.69,0,0,1,.2.46.64.64,0,0,1-.23.43,2.48,2.48,0,0,1-.81.45,1.85,1.85,0,0,1-.77-.5.73.73,0,0,1-.19-.51.76.76,0,0,1,.24-.48A1.78,1.78,0,0,1,64.11,105.41Z"/><path class="cls-8" d="M62.88,105a2.36,2.36,0,0,1,.76.64,1,1,0,0,1,.2.57.87.87,0,0,1-.24.54,2.22,2.22,0,0,1-.8.55,1.8,1.8,0,0,1-.77-.6,1,1,0,0,1-.19-.6,1,1,0,0,1,.24-.59A1.8,1.8,0,0,1,62.88,105Z"/><path class="cls-8" d="M122.66,120.71a1.6,1.6,0,0,1,.79.67,1.27,1.27,0,0,1,.16.7,1,1,0,0,1-.26.57,3.4,3.4,0,0,1-.78.6,1.47,1.47,0,0,1-.79-.67,1.19,1.19,0,0,1-.16-.7,1,1,0,0,1,.26-.57A3.71,3.71,0,0,1,122.66,120.71Z"/><path class="cls-8" d="M124.13,121.37a1.59,1.59,0,0,1,.67.64.74.74,0,0,1,.11.51.6.6,0,0,1-.29.37,4.3,4.3,0,0,1-.82.36,1.41,1.41,0,0,1-.74-.59.81.81,0,0,1-.1-.57.7.7,0,0,1,.32-.43A2.71,2.71,0,0,1,124.13,121.37Z"/><path class="cls-8" d="M121.18,121.61a2.28,2.28,0,0,1,.8.47.73.73,0,0,1,.24.48.65.65,0,0,1-.19.47,2,2,0,0,1-.77.47,2.19,2.19,0,0,1-.81-.47.72.72,0,0,1-.23-.47.66.66,0,0,1,.19-.48A2.18,2.18,0,0,1,121.18,121.61Z"/><path class="cls-8" d="M153.33,125.86a3.82,3.82,0,0,1,.72.64.93.93,0,0,1,.2.55,1.15,1.15,0,0,1-.22.64,1.45,1.45,0,0,1-.86.55,4.09,4.09,0,0,1-.71-.63.89.89,0,0,1-.21-.56,1.09,1.09,0,0,1,.23-.64A1.52,1.52,0,0,1,153.33,125.86Z"/><path class="cls-8" d="M152.18,126.44a2.56,2.56,0,0,1,.76.54.68.68,0,0,1,.2.46.64.64,0,0,1-.23.44,2.56,2.56,0,0,1-.81.45,1.8,1.8,0,0,1-.76-.5.73.73,0,0,1-.19-.51.68.68,0,0,1,.23-.48A1.69,1.69,0,0,1,152.18,126.44Z"/><path class="cls-8" d="M151,126a2.24,2.24,0,0,1,.76.64.88.88,0,0,1,.2.56.85.85,0,0,1-.23.54,2.41,2.41,0,0,1-.81.56,1.92,1.92,0,0,1-.76-.6.91.91,0,0,1,0-1.19A1.7,1.7,0,0,1,151,126Z"/><path class="cls-8" d="M8.73,86.83a1.69,1.69,0,0,1,.74.81,1.52,1.52,0,0,1,.1.8,1.39,1.39,0,0,1-.34.7,2.12,2.12,0,0,1-.91.56,2.17,2.17,0,0,1-.64-.86,1.46,1.46,0,0,1-.08-.73,1.32,1.32,0,0,1,.31-.64A2.87,2.87,0,0,1,8.73,86.83Z"/><path class="cls-8" d="M7.34,85.68a3.25,3.25,0,0,1,.7.88,1.8,1.8,0,0,1,.19.8,1.84,1.84,0,0,1-.2.83,2.33,2.33,0,0,1-.78.86,2.42,2.42,0,0,1-.79-.83,1.73,1.73,0,0,1,0-1.74A2,2,0,0,1,7.34,85.68Z"/><path class="cls-8" d="M5.69,86.83a3.54,3.54,0,0,1,.78.7A1.37,1.37,0,0,1,6.6,89a1.72,1.72,0,0,1-.74.8A2.71,2.71,0,0,1,5,89.11a1.35,1.35,0,0,1-.29-.7,1.58,1.58,0,0,1,.15-.8A1.7,1.7,0,0,1,5.69,86.83Z"/><path class="cls-8" d="M19.85,96.15a1.68,1.68,0,0,1,1,.39,1.26,1.26,0,0,1,.37.63,1.2,1.2,0,0,1-.09.69,2.23,2.23,0,0,1-.66.76,2,2,0,0,1-.89-.49,1.08,1.08,0,0,1-.32-.56A1,1,0,0,1,19.3,97,3.1,3.1,0,0,1,19.85,96.15Z"/><path class="cls-8" d="M21.41,95.82a2.17,2.17,0,0,1,.79.72,1.34,1.34,0,0,1,0,1.44,2.17,2.17,0,0,1-.79.72,2,2,0,0,1-.78-.72,1.29,1.29,0,0,1,0-1.44A2.21,2.21,0,0,1,21.41,95.82Z"/><path class="cls-8" d="M22.89,96.4a1.3,1.3,0,0,1,.78.61,1,1,0,0,1,.12.63.69.69,0,0,1-.28.44c-.17.12-.39.23-.79.45a1.3,1.3,0,0,1-.78-.61,1,1,0,0,1-.12-.63.7.7,0,0,1,.29-.43A6.68,6.68,0,0,1,22.89,96.4Z"/><path class="cls-8" d="M43,103.4a2.53,2.53,0,0,1,.81.67,1.25,1.25,0,0,1,.28.65,1.31,1.31,0,0,1-.11.71,2.24,2.24,0,0,1-.65.84,2.06,2.06,0,0,1-.9-.58,1.36,1.36,0,0,1-.18-1.51A1.83,1.83,0,0,1,43,103.4Z"/><path class="cls-8" d="M44.28,104.14a1.74,1.74,0,0,1,.82.55,1,1,0,0,1,.23.58.88.88,0,0,1-.19.53,3.57,3.57,0,0,1-.7.64,1.53,1.53,0,0,1-.87-.5,1,1,0,0,1-.24-.62.89.89,0,0,1,.2-.58A2.41,2.41,0,0,1,44.28,104.14Z"/><path class="cls-8" d="M45.51,103.24a1.68,1.68,0,0,1,.84.77,1.61,1.61,0,0,1,.18.86,1.57,1.57,0,0,1-.28.77,2.75,2.75,0,0,1-.82.72,2,2,0,0,1-.75-.85,1.65,1.65,0,0,1-.15-.79,1.45,1.45,0,0,1,.25-.7A3.77,3.77,0,0,1,45.51,103.24Z"/><path class="cls-7" d="M160.77,129.85A141.4,141.4,0,0,1,142,132.54a161,161,0,0,1-19.89,0,162.81,162.81,0,0,1-18.17-2,116.23,116.23,0,0,1-15.14-3.86c-10.72-3.41-21.11-7.75-31.67-11.59C39,108.46,18.84,102.77,0,108.31V152H197V124.32C184.78,124.79,172.75,127.45,160.77,129.85Z"/><g class="cls-10"><path class="cls-9" d="M188.87,131.6a1.81,1.81,0,0,1,.73.81,1.43,1.43,0,0,1,.11.8,1.37,1.37,0,0,1-.35.7,2.25,2.25,0,0,1-.9.57,2.16,2.16,0,0,1-.64-.87,1.35,1.35,0,0,1-.08-.73,1.29,1.29,0,0,1,.3-.64A3.31,3.31,0,0,1,188.87,131.6Z"/><path class="cls-9" d="M187.47,130.45a3.06,3.06,0,0,1,.7.88,1.85,1.85,0,0,1,.2.8,1.73,1.73,0,0,1-.21.83,2.15,2.15,0,0,1-.77.86,2.46,2.46,0,0,1-.8-.83,1.78,1.78,0,0,1-.22-.86,1.72,1.72,0,0,1,.24-.88A1.93,1.93,0,0,1,187.47,130.45Z"/><path class="cls-9" d="M185.83,131.6a3.43,3.43,0,0,1,.77.71,1.26,1.26,0,0,1,.27.67,1.45,1.45,0,0,1-.13.77,1.87,1.87,0,0,1-.75.81,2.87,2.87,0,0,1-.82-.67,1.37,1.37,0,0,1-.28-.7,1.41,1.41,0,0,1,.15-.81A1.65,1.65,0,0,1,185.83,131.6Z"/></g><g class="cls-10"><path class="cls-9" d="M27.14,115.71a2.36,2.36,0,0,1,.74.65,1,1,0,0,1,.17.59,1,1,0,0,1-.25.57,2.54,2.54,0,0,1-.83.57,1.76,1.76,0,0,1-.74-.61,1,1,0,0,1-.18-.63,1.07,1.07,0,0,1,.26-.6A1.92,1.92,0,0,1,27.14,115.71Z"/><path class="cls-9" d="M25.74,114.32a2.42,2.42,0,0,1,.78.9,2,2,0,0,1,.22.9,2.11,2.11,0,0,1-.21.9,2.4,2.4,0,0,1-.79.91A2.4,2.4,0,0,1,25,117a2.11,2.11,0,0,1-.21-.9,2,2,0,0,1,.22-.9A2.42,2.42,0,0,1,25.74,114.32Z"/><path class="cls-9" d="M24.67,116.12a2.05,2.05,0,0,1,.79.51.85.85,0,0,1,.21.52.75.75,0,0,1-.21.51,2.05,2.05,0,0,1-.79.51,1.92,1.92,0,0,1-.78-.51.77.77,0,0,1-.22-.51.81.81,0,0,1,.22-.52A2.08,2.08,0,0,1,24.67,116.12Z"/></g><g class="cls-10"><path class="cls-9" d="M50,127.86a2.88,2.88,0,0,1,.62.89,1.48,1.48,0,0,1,.11.77,1.57,1.57,0,0,1-.33.77,1.72,1.72,0,0,1-.95.62,3.82,3.82,0,0,1-.6-.89,1.45,1.45,0,0,1-.1-.76,1.58,1.58,0,0,1,.32-.76A1.87,1.87,0,0,1,50,127.86Z"/><path class="cls-9" d="M48.62,127.09a3.38,3.38,0,0,1,.61.93,1.72,1.72,0,0,1-.1,1.57,2.31,2.31,0,0,1-.79.82,2.09,2.09,0,0,1-.78-.84,1.76,1.76,0,0,1-.18-.89,1.85,1.85,0,0,1,.3-.88A1.94,1.94,0,0,1,48.62,127.09Z"/><path class="cls-9" d="M47.17,127.89a5.31,5.31,0,0,1,.61.85,1.54,1.54,0,0,1,.19.66,1.59,1.59,0,0,1-.16.67,3.25,3.25,0,0,1-.64.87,1.71,1.71,0,0,1-.92-.65,1.47,1.47,0,0,1-.28-.86,1.51,1.51,0,0,1,.26-.88A1.55,1.55,0,0,1,47.17,127.89Z"/></g><g class="cls-10"><path class="cls-9" d="M11.19,128.85a2.06,2.06,0,0,1,.74.66.9.9,0,0,1,.18.58,1,1,0,0,1-.25.57,2.39,2.39,0,0,1-.83.57,1.7,1.7,0,0,1-.74-.61,1,1,0,0,1-.18-.63,1.1,1.1,0,0,1,.26-.6A2,2,0,0,1,11.19,128.85Z"/><path class="cls-9" d="M9.8,127.46a2.42,2.42,0,0,1,.78.9,2,2,0,0,1,.22.9,2.19,2.19,0,0,1-.21.91,2.46,2.46,0,0,1-.79.9,2.46,2.46,0,0,1-.79-.9,2.19,2.19,0,0,1-.21-.91,2,2,0,0,1,.22-.9A2.33,2.33,0,0,1,9.8,127.46Z"/><path class="cls-9" d="M8.73,129.26a2,2,0,0,1,.79.52.72.72,0,0,1,0,1,2.05,2.05,0,0,1-.79.51A1.92,1.92,0,0,1,8,130.8a.7.7,0,0,1,0-1A2,2,0,0,1,8.73,129.26Z"/></g><g class="cls-10"><path class="cls-9" d="M171.14,142.52a1.8,1.8,0,0,1,.76.78,1.49,1.49,0,0,1,.13.79,1.37,1.37,0,0,1-.32.72,1.94,1.94,0,0,1-.9.58,2.24,2.24,0,0,1-.65-.84,1.31,1.31,0,0,1-.11-.71,1.33,1.33,0,0,1,.28-.65A2.65,2.65,0,0,1,171.14,142.52Z"/><path class="cls-9" d="M169.83,143.26a2.47,2.47,0,0,1,.74.6.9.9,0,0,1,.21.58,1.05,1.05,0,0,1-.25.62,1.46,1.46,0,0,1-.87.5,3.76,3.76,0,0,1-.69-.64.78.78,0,0,1-.19-.54,1,1,0,0,1,.23-.57A1.64,1.64,0,0,1,169.83,143.26Z"/><path class="cls-9" d="M168.6,142.36a3.25,3.25,0,0,1,.72.78,1.45,1.45,0,0,1,.25.7,1.56,1.56,0,0,1-.15.79,1.83,1.83,0,0,1-.74.84,2.61,2.61,0,0,1-.82-.71,1.48,1.48,0,0,1-.28-.77,1.65,1.65,0,0,1,1-1.63Z"/></g><g class="cls-10"><path class="cls-9" d="M143.05,139a2.88,2.88,0,0,1,.62.89,1.48,1.48,0,0,1,.11.77,1.57,1.57,0,0,1-.33.77,1.72,1.72,0,0,1-.95.62,3.82,3.82,0,0,1-.6-.89,1.45,1.45,0,0,1-.1-.76,1.65,1.65,0,0,1,.32-.77A1.93,1.93,0,0,1,143.05,139Z"/><path class="cls-9" d="M141.67,138.25a3.38,3.38,0,0,1,.61.93,1.72,1.72,0,0,1-.1,1.57,2.31,2.31,0,0,1-.79.82,2.09,2.09,0,0,1-.78-.84,1.76,1.76,0,0,1-.18-.89,1.85,1.85,0,0,1,.3-.88A1.94,1.94,0,0,1,141.67,138.25Z"/><path class="cls-9" d="M140.22,139.05a5.31,5.31,0,0,1,.61.85,1.54,1.54,0,0,1,.19.66,1.59,1.59,0,0,1-.16.67,3.25,3.25,0,0,1-.64.87,1.71,1.71,0,0,1-.92-.65,1.47,1.47,0,0,1-.28-.86,1.51,1.51,0,0,1,.26-.88A1.55,1.55,0,0,1,140.22,139.05Z"/></g><g class="cls-10"><path class="cls-9" d="M30.26,141.83a3.1,3.1,0,0,1,.83.64,1.22,1.22,0,0,1,.3.64,1.35,1.35,0,0,1-.08.73,2.07,2.07,0,0,1-.64.86,2.14,2.14,0,0,1-.9-.56,1.41,1.41,0,0,1-.35-.7,1.43,1.43,0,0,1,.11-.8A1.76,1.76,0,0,1,30.26,141.83Z"/><path class="cls-9" d="M31.66,140.68a1.93,1.93,0,0,1,.86.8,1.72,1.72,0,0,1,.24.88,1.8,1.8,0,0,1-.22.86,2.46,2.46,0,0,1-.8.83,2.29,2.29,0,0,1-.77-.86,1.73,1.73,0,0,1-.21-.83,1.82,1.82,0,0,1,.2-.8A3.06,3.06,0,0,1,31.66,140.68Z"/><path class="cls-9" d="M33.3,141.83a1.61,1.61,0,0,1,.79.78,1.39,1.39,0,0,1,.15.8,1.37,1.37,0,0,1-.28.71,2.87,2.87,0,0,1-.82.67,1.87,1.87,0,0,1-.75-.81,1.48,1.48,0,0,1-.13-.77,1.32,1.32,0,0,1,.27-.68A3.69,3.69,0,0,1,33.3,141.83Z"/></g><g class="cls-10"><path class="cls-9" d="M65.26,137.25a1.81,1.81,0,0,1,.82.53,1.06,1.06,0,0,1,.26.61,1,1,0,0,1-.17.62,1.75,1.75,0,0,1-.75.62,2.33,2.33,0,0,1-.82-.58,1,1,0,0,1-.26-.56,1,1,0,0,1,.18-.59A2.36,2.36,0,0,1,65.26,137.25Z"/><path class="cls-9" d="M66.66,135.85a2.51,2.51,0,0,1,.78.9,2.17,2.17,0,0,1,.22.91,2,2,0,0,1-.22.9,2.51,2.51,0,0,1-.78.9,2.46,2.46,0,0,1-.79-.9,1.85,1.85,0,0,1-.21-.9,2.16,2.16,0,0,1,.21-.91A2.46,2.46,0,0,1,66.66,135.85Z"/><path class="cls-9" d="M67.72,137.66a2.05,2.05,0,0,1,.79.51.8.8,0,0,1,.21.51.79.79,0,0,1-.21.52,2.05,2.05,0,0,1-.79.51,1.92,1.92,0,0,1-.78-.51.81.81,0,0,1-.22-.52.77.77,0,0,1,.22-.51A2.08,2.08,0,0,1,67.72,137.66Z"/></g><g class="cls-10"><path class="cls-9" d="M88.73,134.55a1.89,1.89,0,0,1,.93.64A1.6,1.6,0,0,1,90,136a1.46,1.46,0,0,1-.11.76,3.54,3.54,0,0,1-.59.89,1.75,1.75,0,0,1-1-.62,1.67,1.67,0,0,1-.33-.77,1.61,1.61,0,0,1,.11-.77A2.88,2.88,0,0,1,88.73,134.55Z"/><path class="cls-9" d="M90.12,133.78a2,2,0,0,1,.93.71,1.75,1.75,0,0,1,.3.88,1.57,1.57,0,0,1-.18.89,2.17,2.17,0,0,1-.78.85,2.41,2.41,0,0,1-.79-.83,1.72,1.72,0,0,1-.24-.78,1.74,1.74,0,0,1,.14-.79A3.23,3.23,0,0,1,90.12,133.78Z"/><path class="cls-9" d="M91.56,134.58a1.52,1.52,0,0,1,.94.66,1.49,1.49,0,0,1,0,1.74,1.71,1.71,0,0,1-.92.65,3.09,3.09,0,0,1-.63-.86,1.4,1.4,0,0,1-.16-.68,1.36,1.36,0,0,1,.18-.65A4.9,4.9,0,0,1,91.56,134.58Z"/></g></g></g></svg>