<svg xmlns="http://www.w3.org/2000/svg" viewBox="0 0 22.42 9.88"><defs><style>.cls-1{fill:#6b6b6b;}.cls-2{fill:#373737;}.cls-3{fill:#fff;}</style></defs><g id="katman_2" data-name="katman 2"><g id="katman_1-2" data-name="katman 1"><polygon class="cls-1" points="13.56 1.75 12.08 1.75 12.08 8.13 16.61 8.13 16.61 6.89 13.56 6.89 13.56 1.75"/><path class="cls-1" d="M19.86,5.7h1.2V6.81A3.21,3.21,0,0,1,20,7c-1.33,0-1.77-.67-1.77-2S18.65,2.86,20,2.86a1.7,1.7,0,0,1,1.51.68l.92-.85a2.88,2.88,0,0,0-2.46-1c-2.06,0-3.15,1.13-3.15,3.28s1,3.29,3.14,3.29a4.71,4.71,0,0,0,2.49-.62V4.51H19.86Z"/><path class="cls-2" d="M4.94,9.88A4.94,4.94,0,1,0,0,4.94,4.94,4.94,0,0,0,4.94,9.88"/><polygon class="cls-3" points="4.74 2.77 4.74 7.1 6.12 7.1 6.12 6.71 5.13 6.71 5.13 2.77 4.74 2.77"/><path class="cls-3" d="M3.36,4a.59.59,0,0,0,0-1.18A.59.59,0,0,0,3.36,4"/><path class="cls-3" d="M5.13.81H4.94A4.14,4.14,0,0,0,.81,4.94,4.1,4.1,0,0,0,2,7.86,4.14,4.14,0,0,0,9.07,4.94V4.75H6.12v.38H8.68v.06a3.75,3.75,0,0,1-7.49-.25A3.76,3.76,0,0,1,4.94,1.19h.19Z"/></g></g></svg>