<svg xmlns="http://www.w3.org/2000/svg" viewBox="0 0 339.27 42.85"><defs><style>.cls-1{isolation:isolate;}.cls-2{fill:#494949;}.cls-3{fill:#4d4d4d;}.cls-4{fill:#353535;}.cls-5{fill:#2f2f2f;}.cls-6{fill:#b50c1f;}.cls-7{fill:#c9d300;}.cls-8{fill:#333;}.cls-24,.cls-27,.cls-9{fill:#e5e5e5;}.cls-10{fill:#ccc;}.cls-10,.cls-12,.cls-27,.cls-28{mix-blend-mode:multiply;}.cls-11{fill:#666;}.cls-12{fill:#969696;}.cls-13{fill:#838d9b;}.cls-14{fill:#2e2e2e;}.cls-15{fill:#92cec5;opacity:0.63;}.cls-16,.cls-20{fill:#fff;}.cls-16,.cls-24{opacity:0.53;}.cls-17{fill:#a2c629;}.cls-18{fill:none;}.cls-19{fill:#7d931d;}.cls-20{opacity:0.3;}.cls-21{fill:#838282;}.cls-22{fill:#47454c;}.cls-23{fill:#605e67;}.cls-25{fill:#f58d1d;}.cls-26{fill:#f2f2f2;}.cls-28{fill:#c0c3c7;}</style></defs><g class="cls-1"><g id="katman_2" data-name="katman 2"><g id="katman_1-2" data-name="katman 1"><rect class="cls-2" x="280.1" y="28.34" width="30.82" height="7.43"/><rect class="cls-3" x="4.37" y="27.25" width="268.55" height="2.85"/><rect class="cls-2" x="310.38" y="26.62" width="28.36" height="9.15"/><rect class="cls-4" x="217.79" y="29.44" width="6.73" height="3.89"/><polygon class="cls-3" points="288.33 35.77 272.01 35.77 273.87 32.05 277.61 29.23 281.61 29.23 285.07 30.91 288.33 35.77"/><polygon class="cls-5" points="309.44 32.92 286.78 32.92 285.18 30.65 309.44 30.65 309.44 32.92"/><rect class="cls-6" x="295.91" y="29.23" width="2.69" height="2.82"/><rect class="cls-7" y="22.71" width="305.13" height="4.54"/><polygon class="cls-3" points="305.13 35.77 288.81 35.77 290.66 32.05 294.4 29.23 298.4 29.23 301.87 30.91 305.13 35.77"/><path class="cls-8" d="M286.32,36.62a6.23,6.23,0,1,1-6.22-6.23A6.23,6.23,0,0,1,286.32,36.62Z"/><path class="cls-9" d="M284.27,36.62a4.18,4.18,0,1,1-4.17-4.18A4.17,4.17,0,0,1,284.27,36.62Z"/><path class="cls-10" d="M280.1,30.91a5.71,5.71,0,1,0,5.7,5.71A5.7,5.7,0,0,0,280.1,30.91Zm0,9.2a3.5,3.5,0,1,1,3.5-3.49A3.5,3.5,0,0,1,280.1,40.11Z"/><path class="cls-3" d="M281.79,36.62a1.7,1.7,0,1,1-1.69-1.69A1.69,1.69,0,0,1,281.79,36.62Z"/><path class="cls-11" d="M288.38,36.62H287a6,6,0,0,0,0-.85,7.94,7.94,0,0,0-.15-.85,6.94,6.94,0,0,0-13.46,0,6.77,6.77,0,0,0-.21,1.7v2.62h-1.35V36.62a7.91,7.91,0,0,1,.18-1.7,8.25,8.25,0,0,1,8.11-6.58h.52a8.26,8.26,0,0,1,7.58,6.57,9.2,9.2,0,0,1,.18,1.7Z"/><path class="cls-12" d="M283.57,36.23a4,4,0,0,0-6.95,0,3.5,3.5,0,0,1,6.95,0Z"/><polygon class="cls-3" points="221.85 35.77 205.53 35.77 207.39 32.05 211.13 29.23 215.13 29.23 218.6 30.91 221.85 35.77"/><path class="cls-8" d="M219.85,36.62a6.23,6.23,0,1,1-6.23-6.23A6.23,6.23,0,0,1,219.85,36.62Z"/><path class="cls-9" d="M217.79,36.62a4.18,4.18,0,1,1-4.17-4.18A4.17,4.17,0,0,1,217.79,36.62Z"/><path class="cls-10" d="M213.62,30.91a5.71,5.71,0,1,0,5.71,5.71A5.71,5.71,0,0,0,213.62,30.91Zm0,9.2a3.5,3.5,0,1,1,3.49-3.49A3.49,3.49,0,0,1,213.62,40.11Z"/><path class="cls-3" d="M215.31,36.62a1.69,1.69,0,1,1-1.69-1.69A1.69,1.69,0,0,1,215.31,36.62Z"/><path class="cls-11" d="M221.9,36.62h-1.34a6,6,0,0,0-.06-.85,7.94,7.94,0,0,0-.15-.85,6.94,6.94,0,0,0-13.46,0,6.77,6.77,0,0,0-.21,1.7v2.62h-1.35V36.62a7.91,7.91,0,0,1,.18-1.7,8.25,8.25,0,0,1,8.11-6.58h.51a8.28,8.28,0,0,1,7.6,6.57c.05.28.1.56.13.85A7.94,7.94,0,0,1,221.9,36.62Z"/><path class="cls-12" d="M217.09,36.23a4,4,0,0,0-7,0,3.5,3.5,0,0,1,7,0Z"/><path class="cls-13" d="M325.43,11.12l.64,7.83.5.07c.66.07,1.31.13,1.93.16,1.37.1,2.6.12,3.42.18h0c.26,0,.47,0,.64.07.53.08,1,.15,1.54.2l0-1.63.09-6.88Zm.62.42h7.66l-.17,6.83-.59.36h-4.5l-.44-4h-1.26l-.17,4Z"/><path class="cls-13" d="M337.23,18.52a1.94,1.94,0,0,1,0,.24.09.09,0,0,1,0,0c0,.2,0,.39.05.56s0,.12,0,.18,0,.23,0,.33a2.16,2.16,0,0,0,0,.28l.58.19.29.12.21.08-.34-1.82Z"/><polygon class="cls-3" points="220.61 35.77 236.93 35.77 235.08 32.05 231.34 29.23 227.34 29.23 223.87 30.91 220.61 35.77"/><path class="cls-8" d="M222.62,36.62a6.23,6.23,0,1,0,6.23-6.23A6.23,6.23,0,0,0,222.62,36.62Z"/><path class="cls-9" d="M224.68,36.62a4.18,4.18,0,1,0,4.17-4.18A4.17,4.17,0,0,0,224.68,36.62Z"/><path class="cls-10" d="M223.14,36.62a5.71,5.71,0,1,0,5.71-5.71A5.71,5.71,0,0,0,223.14,36.62Zm2.21,0a3.5,3.5,0,1,1,3.5,3.49A3.5,3.5,0,0,1,225.35,36.62Z"/><path class="cls-3" d="M227.16,36.62a1.69,1.69,0,1,0,1.69-1.69A1.69,1.69,0,0,0,227.16,36.62Z"/><path class="cls-11" d="M220.57,36.62h1.34a7.92,7.92,0,0,1,.05-.85c0-.29.1-.57.16-.85a6.94,6.94,0,0,1,6.73-5.24,6.83,6.83,0,0,1,3.16.76,6.92,6.92,0,0,1,3.57,4.48,6.77,6.77,0,0,1,.21,1.7v2.62h1.34V36.62a8.6,8.6,0,0,0-.17-1.7,8.26,8.26,0,0,0-8.11-6.58h-.52a8.28,8.28,0,0,0-7.59,6.57,8.17,8.17,0,0,0-.17,1.7Z"/><path class="cls-12" d="M225.37,36.23a4,4,0,0,1,7,0,3.5,3.5,0,0,0-7,0Z"/><rect class="cls-4" x="21.23" y="29.44" width="6.73" height="3.89"/><polygon class="cls-3" points="25.3 35.77 8.97 35.77 10.83 32.05 14.57 29.23 18.57 29.23 22.04 30.91 25.3 35.77"/><path class="cls-8" d="M23.29,36.62a6.23,6.23,0,1,1-6.23-6.23A6.23,6.23,0,0,1,23.29,36.62Z"/><path class="cls-9" d="M21.23,36.62a4.18,4.18,0,1,1-4.17-4.18A4.17,4.17,0,0,1,21.23,36.62Z"/><path class="cls-10" d="M17.06,30.91a5.71,5.71,0,1,0,5.7,5.71A5.71,5.71,0,0,0,17.06,30.91Zm0,9.2a3.5,3.5,0,1,1,3.49-3.49A3.49,3.49,0,0,1,17.06,40.11Z"/><path class="cls-3" d="M18.75,36.62a1.7,1.7,0,1,1-1.69-1.69A1.69,1.69,0,0,1,18.75,36.62Z"/><path class="cls-11" d="M25.34,36.62H24a6,6,0,0,0,0-.85,7.94,7.94,0,0,0-.15-.85,6.94,6.94,0,0,0-13.46,0,6.77,6.77,0,0,0-.21,1.7v2.62H8.77V36.62A7.91,7.91,0,0,1,9,34.92a8.25,8.25,0,0,1,8.11-6.58h.51a8.28,8.28,0,0,1,7.6,6.57,7.9,7.9,0,0,1,.12.85A6,6,0,0,1,25.34,36.62Z"/><path class="cls-12" d="M20.53,36.23a4,4,0,0,0-7,0,3.5,3.5,0,0,1,7,0Z"/><polygon class="cls-3" points="24.05 35.77 40.37 35.77 38.52 32.05 34.78 29.23 30.78 29.23 27.31 30.91 24.05 35.77"/><path class="cls-8" d="M26.06,36.62a6.23,6.23,0,1,0,6.23-6.23A6.23,6.23,0,0,0,26.06,36.62Z"/><path class="cls-9" d="M28.12,36.62a4.18,4.18,0,1,0,4.17-4.18A4.17,4.17,0,0,0,28.12,36.62Z"/><path class="cls-10" d="M26.58,36.62a5.71,5.71,0,1,0,5.71-5.71A5.71,5.71,0,0,0,26.58,36.62Zm2.21,0a3.5,3.5,0,1,1,3.5,3.49A3.5,3.5,0,0,1,28.79,36.62Z"/><path class="cls-3" d="M30.6,36.62a1.69,1.69,0,1,0,1.69-1.69A1.69,1.69,0,0,0,30.6,36.62Z"/><path class="cls-11" d="M24,36.62h1.34a6.75,6.75,0,0,1,.21-1.7,6.94,6.94,0,0,1,6.73-5.24,6.83,6.83,0,0,1,3.16.76A6.92,6.92,0,0,1,39,34.92a7.26,7.26,0,0,1,.21,1.7v2.62h1.34V36.62a8.6,8.6,0,0,0-.17-1.7,8.26,8.26,0,0,0-8.11-6.58h-.52a8.28,8.28,0,0,0-7.59,6.57,8.17,8.17,0,0,0-.17,1.7Z"/><path class="cls-12" d="M28.81,36.23a4,4,0,0,1,7,0,3.5,3.5,0,0,0-7,0Z"/><rect class="cls-4" x="168.07" y="29.44" width="6.73" height="3.89"/><polygon class="cls-3" points="172.13 35.77 155.81 35.77 157.67 32.05 161.41 29.23 165.41 29.23 168.88 30.91 172.13 35.77"/><path class="cls-8" d="M170.13,36.62a6.23,6.23,0,1,1-6.24-6.23A6.23,6.23,0,0,1,170.13,36.62Z"/><path class="cls-9" d="M168.07,36.62a4.18,4.18,0,1,1-4.18-4.18A4.18,4.18,0,0,1,168.07,36.62Z"/><path class="cls-10" d="M163.89,30.91a5.71,5.71,0,1,0,5.71,5.71A5.7,5.7,0,0,0,163.89,30.91Zm0,9.2a3.5,3.5,0,1,1,3.5-3.49A3.49,3.49,0,0,1,163.89,40.11Z"/><path class="cls-3" d="M165.59,36.62a1.7,1.7,0,1,1-1.7-1.69A1.7,1.7,0,0,1,165.59,36.62Z"/><path class="cls-11" d="M172.18,36.62h-1.35a6,6,0,0,0-.05-.85,7.94,7.94,0,0,0-.15-.85,6.94,6.94,0,0,0-13.46,0,6.77,6.77,0,0,0-.21,1.7v2.62h-1.35V36.62a7.91,7.91,0,0,1,.18-1.7,8.25,8.25,0,0,1,8.1-6.58h.52A8.26,8.26,0,0,1,172,34.92a7.91,7.91,0,0,1,.13.85A6,6,0,0,1,172.18,36.62Z"/><path class="cls-12" d="M167.37,36.23a4,4,0,0,0-7,0,3.5,3.5,0,0,1,7,0Z"/><polygon class="cls-3" points="170.89 35.77 187.21 35.77 185.36 32.05 181.62 29.23 177.62 29.23 174.15 30.91 170.89 35.77"/><path class="cls-8" d="M172.9,36.62a6.23,6.23,0,1,0,6.23-6.23A6.23,6.23,0,0,0,172.9,36.62Z"/><path class="cls-9" d="M175,36.62a4.17,4.17,0,1,0,4.17-4.18A4.17,4.17,0,0,0,175,36.62Z"/><path class="cls-10" d="M173.42,36.62a5.71,5.71,0,1,0,5.71-5.71A5.71,5.71,0,0,0,173.42,36.62Zm2.21,0a3.5,3.5,0,1,1,3.5,3.49A3.5,3.5,0,0,1,175.63,36.62Z"/><path class="cls-3" d="M177.44,36.62a1.69,1.69,0,1,0,1.69-1.69A1.69,1.69,0,0,0,177.44,36.62Z"/><path class="cls-11" d="M170.85,36.62h1.34a6.75,6.75,0,0,1,.21-1.7,6.94,6.94,0,0,1,6.73-5.24,6.83,6.83,0,0,1,3.16.76,6.92,6.92,0,0,1,3.57,4.48,7.26,7.26,0,0,1,.21,1.7v2.62h1.34V36.62a8.6,8.6,0,0,0-.17-1.7,8.26,8.26,0,0,0-8.11-6.58h-.52A8.28,8.28,0,0,0,171,34.92a8.17,8.17,0,0,0-.17,1.7Z"/><path class="cls-12" d="M175.65,36.23a4,4,0,0,1,7,0,3.5,3.5,0,0,0-7,0Z"/><rect class="cls-4" x="64.39" y="29.44" width="6.73" height="3.89"/><polygon class="cls-3" points="68.45 35.77 52.13 35.77 53.99 32.05 57.73 29.23 61.73 29.23 65.19 30.91 68.45 35.77"/><path class="cls-8" d="M66.44,36.62a6.23,6.23,0,1,1-6.23-6.23A6.23,6.23,0,0,1,66.44,36.62Z"/><path class="cls-9" d="M64.39,36.62a4.18,4.18,0,1,1-4.18-4.18A4.18,4.18,0,0,1,64.39,36.62Z"/><path class="cls-10" d="M60.21,30.91a5.71,5.71,0,1,0,5.71,5.71A5.7,5.7,0,0,0,60.21,30.91Zm0,9.2a3.5,3.5,0,1,1,3.5-3.49A3.49,3.49,0,0,1,60.21,40.11Z"/><path class="cls-3" d="M61.91,36.62a1.7,1.7,0,1,1-1.7-1.69A1.7,1.7,0,0,1,61.91,36.62Z"/><path class="cls-11" d="M68.5,36.62H67.15a6,6,0,0,0-.05-.85,6.07,6.07,0,0,0-.16-.85,6.93,6.93,0,0,0-13.45,0,6.77,6.77,0,0,0-.21,1.7v2.62H51.93V36.62a7.91,7.91,0,0,1,.18-1.7,8.25,8.25,0,0,1,8.1-6.58h.52a8.26,8.26,0,0,1,7.59,6.57,9.2,9.2,0,0,1,.18,1.7Z"/><path class="cls-12" d="M63.69,36.23a4,4,0,0,0-6.95,0,3.5,3.5,0,0,1,6.95,0Z"/><polygon class="cls-3" points="67.21 35.77 83.53 35.77 81.68 32.05 77.94 29.23 73.94 29.23 70.47 30.91 67.21 35.77"/><path class="cls-8" d="M69.22,36.62a6.23,6.23,0,1,0,6.23-6.23A6.23,6.23,0,0,0,69.22,36.62Z"/><path class="cls-9" d="M71.27,36.62a4.18,4.18,0,1,0,4.18-4.18A4.18,4.18,0,0,0,71.27,36.62Z"/><path class="cls-10" d="M69.74,36.62a5.71,5.71,0,1,0,5.71-5.71A5.71,5.71,0,0,0,69.74,36.62Zm2.21,0a3.5,3.5,0,1,1,3.5,3.49A3.5,3.5,0,0,1,72,36.62Z"/><path class="cls-3" d="M73.76,36.62a1.69,1.69,0,1,0,1.69-1.69A1.69,1.69,0,0,0,73.76,36.62Z"/><path class="cls-11" d="M67.17,36.62h1.34a6.75,6.75,0,0,1,.21-1.7,6.94,6.94,0,0,1,6.73-5.24,6.86,6.86,0,0,1,3.16.76,7,7,0,0,1,3.57,4.48,7.26,7.26,0,0,1,.21,1.7v2.62h1.34V36.62a8.6,8.6,0,0,0-.17-1.7,8.26,8.26,0,0,0-8.11-6.58h-.52a8.28,8.28,0,0,0-7.59,6.57,8.17,8.17,0,0,0-.17,1.7Z"/><path class="cls-12" d="M72,36.23a4,4,0,0,1,7,0,3.5,3.5,0,0,0-7,0Z"/><rect class="cls-4" x="114.03" y="29.44" width="6.73" height="3.89"/><polygon class="cls-3" points="118.09 35.77 101.77 35.77 103.62 32.05 107.36 29.23 111.36 29.23 114.83 30.91 118.09 35.77"/><path class="cls-8" d="M116.08,36.62a6.23,6.23,0,1,1-6.23-6.23A6.23,6.23,0,0,1,116.08,36.62Z"/><path class="cls-9" d="M114,36.62a4.18,4.18,0,1,1-4.18-4.18A4.18,4.18,0,0,1,114,36.62Z"/><path class="cls-10" d="M109.85,30.91a5.71,5.71,0,1,0,5.71,5.71A5.71,5.71,0,0,0,109.85,30.91Zm0,9.2a3.5,3.5,0,1,1,3.5-3.49A3.5,3.5,0,0,1,109.85,40.11Z"/><path class="cls-3" d="M111.54,36.62a1.69,1.69,0,1,1-1.69-1.69A1.69,1.69,0,0,1,111.54,36.62Z"/><path class="cls-11" d="M118.13,36.62h-1.34a6.75,6.75,0,0,0-.21-1.7,6.94,6.94,0,0,0-6.73-5.24,6.86,6.86,0,0,0-3.16.76,7,7,0,0,0-3.57,4.48,7.26,7.26,0,0,0-.21,1.7v2.62h-1.34V36.62a8.6,8.6,0,0,1,.17-1.7,8.26,8.26,0,0,1,8.11-6.58h.52A8.28,8.28,0,0,1,118,34.92a8.17,8.17,0,0,1,.17,1.7Z"/><path class="cls-12" d="M113.33,36.23a4,4,0,0,0-7,0,3.5,3.5,0,0,1,7,0Z"/><polygon class="cls-3" points="116.85 35.77 133.17 35.77 131.31 32.05 127.58 29.23 123.58 29.23 120.11 30.91 116.85 35.77"/><path class="cls-8" d="M118.86,36.62a6.23,6.23,0,1,0,6.23-6.23A6.22,6.22,0,0,0,118.86,36.62Z"/><path class="cls-9" d="M120.91,36.62a4.18,4.18,0,1,0,4.18-4.18A4.18,4.18,0,0,0,120.91,36.62Z"/><path class="cls-10" d="M119.38,36.62a5.71,5.71,0,1,0,5.71-5.71A5.71,5.71,0,0,0,119.38,36.62Zm2.21,0a3.5,3.5,0,1,1,3.5,3.49A3.5,3.5,0,0,1,121.59,36.62Z"/><path class="cls-3" d="M123.39,36.62a1.7,1.7,0,1,0,1.7-1.69A1.7,1.7,0,0,0,123.39,36.62Z"/><path class="cls-11" d="M116.8,36.62h1.35a6,6,0,0,1,0-.85,8,8,0,0,1,.16-.85,6.93,6.93,0,0,1,13.45,0,6.77,6.77,0,0,1,.21,1.7v2.62h1.35V36.62a7.91,7.91,0,0,0-.18-1.7,8.25,8.25,0,0,0-8.1-6.58h-.52A8.28,8.28,0,0,0,117,34.92a9.2,9.2,0,0,0-.18,1.7Z"/><path class="cls-12" d="M121.61,36.23a4,4,0,0,1,7,0,3.5,3.5,0,0,0-7,0Z"/><path class="cls-8" d="M303.19,36.62A6.23,6.23,0,1,1,297,30.39,6.22,6.22,0,0,1,303.19,36.62Z"/><path class="cls-9" d="M301.14,36.62A4.18,4.18,0,1,1,297,32.44,4.17,4.17,0,0,1,301.14,36.62Z"/><path class="cls-10" d="M297,30.91a5.71,5.71,0,1,0,5.71,5.71A5.71,5.71,0,0,0,297,30.91Zm0,9.2a3.5,3.5,0,1,1,3.5-3.49A3.5,3.5,0,0,1,297,40.11Z"/><path class="cls-3" d="M298.66,36.62A1.7,1.7,0,1,1,297,34.93,1.69,1.69,0,0,1,298.66,36.62Z"/><path class="cls-12" d="M300.45,36.23a4,4,0,0,0-7,0,3.5,3.5,0,0,1,7,0Z"/><path class="cls-8" d="M330.2,36.36a6,6,0,1,1-6-6A6,6,0,0,1,330.2,36.36Z"/><path class="cls-9" d="M328.23,36.36a4,4,0,1,1-4-4A4,4,0,0,1,328.23,36.36Z"/><path class="cls-10" d="M324.23,30.89a5.47,5.47,0,1,0,5.47,5.47A5.47,5.47,0,0,0,324.23,30.89Zm0,8.82a3.35,3.35,0,1,1,3.35-3.35A3.35,3.35,0,0,1,324.23,39.71Z"/><path class="cls-3" d="M325.85,36.36a1.62,1.62,0,1,1-1.62-1.62A1.63,1.63,0,0,1,325.85,36.36Z"/><path class="cls-12" d="M327.56,36a3.86,3.86,0,0,0-6.66,0,3.35,3.35,0,0,1,6.66,0Z"/><path class="cls-11" d="M305.25,36.62h-1.34a7.92,7.92,0,0,0-.05-.85c0-.29-.1-.57-.16-.85a6.94,6.94,0,0,0-13.46,0,6.77,6.77,0,0,0-.21,1.7v2.62h-1.35V36.62a7.91,7.91,0,0,1,.18-1.7A8.25,8.25,0,0,1,297,28.34h.52a8.28,8.28,0,0,1,7.59,6.57c.05.28.1.56.13.85A7.94,7.94,0,0,1,305.25,36.62Z"/><rect class="cls-14" x="289.54" y="27.25" width="12.78" height="1.09"/><path class="cls-15" d="M335.92,11.12a51.47,51.47,0,0,1,1.45,9,8.33,8.33,0,0,1,1.51.6c-.28-3.51-.84-7.23-1.95-9.64Z"/><path class="cls-15" d="M325.43,11.12l.65,7.83c2.76.37,5.49.32,6.49.48.54.08,1.05.15,1.56.2l.1-8.51Z"/><path class="cls-16" d="M325.79,11.53l.24,2.9.05,0c.58-.21,1-.68,1.69-.53.47.11.74.64,1.32.64,1,0,1.8-.84,2.75-.48.58.21.9.79,1.63.9l.35,0,.05-3.44Z"/><polygon class="cls-11" points="315.71 27.56 315.71 29.14 318.61 32.04 321.13 29.92 325.27 29.32 327.58 30.2 330.78 33.41 330.78 27.16 315.71 27.16 315.71 27.56"/><path class="cls-17" d="M311.37,7.59v20h15.8l3.95,2.36h8a91.4,91.4,0,0,0-.25-9.16,8.33,8.33,0,0,0-1.51-.6,51.47,51.47,0,0,0-1.45-9h1a8.6,8.6,0,0,0-.51-1c-.54-.85-2.28-1.43-4.62-1.82-6.28-1.06-16.88-.78-20-.76Zm7.56,6.58c0-3.08,2.11-3.05,3.08-3.05h12.22l-.11,8.51c-.5-.05-1-.12-1.55-.2-1-.16-3.73-.11-6.49-.48C322.52,18.49,318.93,17.34,318.93,14.17Z"/><rect class="cls-10" x="336.02" y="25.01" width="0.52" height="4.91"/><path class="cls-10" d="M324.12,22.44a.77.77,0,0,0-.77.76v1a.77.77,0,0,0,.77.76h2.64c.42,0,.56-.28.31-.62l-.94-1.3a1.71,1.71,0,0,0-1.22-.62Z"/><path class="cls-11" d="M318.93,14.17c0,3.17,3.59,4.32,7.15,4.78l-.65-7.83H322C321,11.12,318.93,11.09,318.93,14.17Z"/><path class="cls-18" d="M325.43,11.12l.65,7.83c2.76.37,5.48.32,6.49.48.53.08,1.05.15,1.55.2l.11-8.51Z"/><path class="cls-19" d="M311.77,3.61v4c3.15,0,13.75-.3,20,.76a4.18,4.18,0,0,0-2.42-1.29l-5.3-.6A22,22,0,0,0,313.5,0Z"/><polygon class="cls-20" points="312.87 3.89 321.77 6.9 322.95 6.45 312.87 3.89"/><polygon class="cls-11" points="310.38 7.84 310.38 29.14 315.35 29.14 315.35 27.56 311.38 27.56 311.38 7.84 310.38 7.84"/><path class="cls-21" d="M316.9,34.69l0-.13a5.36,5.36,0,0,1,.22-.81s0-.11.05-.16a7.11,7.11,0,0,1,.73-1.49A.83.83,0,0,1,318,32a7.54,7.54,0,0,1,1.05-1.27l.11-.1a7.79,7.79,0,0,1,1.31-1l.16-.09a7,7,0,0,1,.73-.35h0l.11,0L322,29l.29-.07.36-.1.31-.06.36,0,.33,0,.13,0h.94l.13,0,.32,0,.36,0,.32.06.36.1.28.07.49.18.12,0h0a7,7,0,0,1,.73.35l.15.09a7.48,7.48,0,0,1,1.32,1l.11.1A7.54,7.54,0,0,1,330.45,32l.08.12a7.07,7.07,0,0,1,.72,1.49l.06.16a5.36,5.36,0,0,1,.22.81.59.59,0,0,1,0,.13,7.23,7.23,0,0,1,.14,1.4v2.36h-1.21V36.09a6.41,6.41,0,0,0-.19-1.53,5.26,5.26,0,0,0-.19-.6l-.05-.13c-.06-.15-.12-.3-.19-.45a.91.91,0,0,1-.07-.14q-.12-.24-.27-.48l0,0a5.74,5.74,0,0,0-.36-.5l-.08-.09-.32-.37-.12-.11a3.49,3.49,0,0,0-.35-.32l-.11-.09a4.41,4.41,0,0,0-.49-.36l-.07-.05-.44-.26-.17-.08-.47-.21-.13-.05a4.57,4.57,0,0,0-.63-.19l-.13,0-.53-.1-.18,0c-.23,0-.45,0-.68,0s-.46,0-.68,0l-.18,0-.53.1-.14,0a4.44,4.44,0,0,0-.62.19l-.13.05-.48.21-.16.08-.44.26-.08.05a5.6,5.6,0,0,0-.49.36l-.1.09a3.49,3.49,0,0,0-.35.32l-.12.11-.33.37-.07.09a5.74,5.74,0,0,0-.36.5l0,0q-.15.24-.27.48a.91.91,0,0,0-.07.14,4.32,4.32,0,0,0-.19.45l-.06.13a5.26,5.26,0,0,0-.18.6,5.94,5.94,0,0,0-.19,1.53v2.36h-1.21V36.09A8.1,8.1,0,0,1,316.9,34.69Z"/><path class="cls-22" d="M333.82,10.37v4a.49.49,0,0,0,.49-.48v-3A.49.49,0,0,0,333.82,10.37Z"/><rect class="cls-23" x="333.55" y="10.37" width="0.28" height="3.99"/><path class="cls-23" d="M334.31,11.07v1.19h1.8a.59.59,0,0,0,.59-.6.58.58,0,0,0-.59-.59Z"/><polygon class="cls-16" points="332.94 20.08 332.05 20.72 324.37 19.54 332.94 20.08"/><polygon class="cls-24" points="338.11 20.76 338.11 25.87 338.74 25.87 338.45 21.15 338.11 20.76"/><rect class="cls-24" x="338.11" y="26.62" width="0.63" height="2.97"/><rect class="cls-21" x="336.29" y="32.36" width="2.68" height="4.28" rx="0.59"/><path class="cls-21" d="M338.53,36.62a27.68,27.68,0,0,1-6.27,1.12v-2h5.85Z"/><rect class="cls-21" x="332.26" y="32.36" width="4.93" height="1.93"/><rect class="cls-21" x="332.26" y="33.96" width="3.49" height="2.43"/><rect class="cls-21" x="330.78" y="30.29" width="8.19" height="0.51"/><rect class="cls-25" x="337.63" y="30.8" width="1.64" height="2.53"/><rect class="cls-26" x="336.82" y="30.8" width="0.8" height="2.53"/><path class="cls-27" d="M315.71,21v5.58h6.14V21Zm.38.39h5.36v4.84h-5.36Z"/><rect class="cls-27" x="315.71" y="8.68" width="0.35" height="11.87"/><rect class="cls-11" x="241.71" y="27.25" width="23.73" height="6.54"/><path class="cls-25" d="M243.12,31.56a.94.94,0,1,0,.94-.94A.94.94,0,0,0,243.12,31.56Z"/><path class="cls-25" d="M262.1,31.56a.94.94,0,1,0,.94-.94A.94.94,0,0,0,262.1,31.56Z"/><rect class="cls-28" x="241.71" y="27.25" width="23.73" height="1.98"/></g></g></g></svg>