<svg xmlns="http://www.w3.org/2000/svg" viewBox="0 0 99.5 61.08"><defs><style>.cls-1{fill:#edcc88;}.cls-1,.cls-3,.cls-4{fill-rule:evenodd;}.cls-2{fill:#d8b05c;}.cls-3{fill:#59595b;}.cls-4{fill:#a5896b;}</style></defs><g id="katman_2" data-name="katman 2"><g id="katman_1-2" data-name="katman 1"><polygon class="cls-1" points="77.13 24.74 77.14 0 47.96 0 47.96 24.74 77.13 24.74"/><rect class="cls-2" x="70.29" width="6.86" height="24.74"/><path class="cls-3" d="M59.47,16.22a3.29,3.29,0,0,1,2.93,2.3,1.58,1.58,0,0,0-1-.38,1.59,1.59,0,0,0-1,.37,1.61,1.61,0,0,0-.88-.36v3.58h0a.43.43,0,0,0,.12.29.37.37,0,0,0,.28.13h0a.39.39,0,0,0,.29-.13.43.43,0,0,0,.12-.29h.28a.74.74,0,0,1-.2.51.67.67,0,0,1-.49.21h0a.65.65,0,0,1-.48-.21.74.74,0,0,1-.2-.51h0V18.15a1.64,1.64,0,0,0-.87.36,1.59,1.59,0,0,0-1-.37,1.58,1.58,0,0,0-1,.38,3.29,3.29,0,0,1,2.92-2.3v-.49h.29Z"/><path class="cls-3" d="M63.66,21.73h4.9v.73h-4.9v-.73Zm4.11-.28v-4h.36l-.68-1.32-.68,1.32h.36v4Zm-2.67,0v-4h.35l-.68-1.32-.68,1.32h.36v4Z"/><path class="cls-3" d="M54.81,16.2c-.26,1.9-1.2,3.34-2.36,3.48V22h1.13v.51H51V22h1.12V19.68c-1.15-.14-2.1-1.58-2.35-3.48h3.66l.3.69-.33,0,.33,1.28-.11-1.08h.26l-.05-.86Z"/><polygon class="cls-4" points="57.33 0 60.49 0 60.49 4.75 59.99 4.87 59.44 4.47 58.63 4.96 58.02 4.48 57.33 4.89 57.33 0"/><polygon class="cls-4" points="72.91 0 74.52 0 74.52 4.75 74.26 4.87 73.98 4.47 73.57 4.96 73.26 4.48 72.91 4.89 72.91 0"/><polygon class="cls-1" points="3.85 61.08 65.86 61.08 65.89 8.36 3.85 8.36 3.85 61.08"/><rect class="cls-2" x="51.31" y="8.36" width="14.57" height="52.72"/><path class="cls-3" d="M28.32,42.85a7,7,0,0,1,6.23,4.89,3.35,3.35,0,0,0-4.36,0,3.52,3.52,0,0,0-1.87-.78v7.63h0a.92.92,0,0,0,.25.63.82.82,0,0,0,.6.27h0a.82.82,0,0,0,.61-.27.92.92,0,0,0,.25-.63h.61a1.6,1.6,0,0,1-.43,1.09,1.43,1.43,0,0,1-1,.45h0a1.41,1.41,0,0,1-1-.45,1.6,1.6,0,0,1-.43-1.09h0V46.94a3.37,3.37,0,0,0-1.86.77,3.34,3.34,0,0,0-4.35,0,7,7,0,0,1,6.21-4.89V41.8h.61Z"/><path class="cls-3" d="M37.23,54.55h10.4V56.1H37.23V54.55ZM46,54V45.41h.76l-1.44-2.8-1.45,2.8h.76V54Zm-5.69,0V45.41H41l-1.44-2.8-1.45,2.8h.76V54Z"/><path class="cls-3" d="M18.4,42.79c-.54,4-2.55,7.11-5,7.41V55h2.39V56.1H10.21V55h2.4V50.2c-2.45-.3-4.47-3.37-5-7.41h7.79L16,44.26l-.7-.08L16,46.9l-.24-2.29.55,0-.12-1.84Z"/><polygon class="cls-4" points="23.76 8.36 30.5 8.36 30.5 18.46 29.42 18.71 28.25 17.87 26.53 18.89 25.23 17.89 23.76 18.76 23.76 8.36"/><polygon class="cls-4" points="56.89 8.36 60.31 8.36 60.31 18.46 59.76 18.71 59.17 17.87 58.29 18.89 57.63 17.89 56.89 18.76 56.89 8.36"/><polygon class="cls-1" points="0 61.08 38.83 61.08 38.85 28.06 0 28.06 0 61.08"/><rect class="cls-2" x="29.72" y="28.06" width="9.13" height="33.02"/><path class="cls-3" d="M15.32,49.66a4.36,4.36,0,0,1,3.9,3.06,2.09,2.09,0,0,0-1.37-.51,2.15,2.15,0,0,0-1.36.5,2.12,2.12,0,0,0-1.17-.49V57h0a.55.55,0,0,0,.16.39.5.5,0,0,0,.38.17h0a.5.5,0,0,0,.38-.17.59.59,0,0,0,.15-.39h.38a1,1,0,0,1-.26.68.92.92,0,0,1-.65.28h0a.92.92,0,0,1-.65-.28,1,1,0,0,1-.27-.68h0V52.22a2.12,2.12,0,0,0-1.16.49,2.1,2.1,0,0,0-2.73,0,4.36,4.36,0,0,1,3.89-3.06V49h.38Z"/><path class="cls-3" d="M20.9,57h6.52v1H20.9V57Zm5.47-.36V51.27h.48l-.91-1.76L25,51.27h.47v5.36Zm-3.56,0V51.27h.48l-.91-1.76-.91,1.76H22v5.36Z"/><path class="cls-3" d="M9.11,49.63c-.33,2.53-1.6,4.45-3.13,4.63v3h1.5V58H4v-.68h1.5v-3c-1.54-.18-2.8-2.1-3.14-4.63H7.23l.39.91-.44,0,.45,1.7-.15-1.44.35,0-.08-1.15Z"/><polygon class="cls-4" points="12.47 28.06 16.69 28.06 16.69 34.39 16.02 34.54 15.28 34.02 14.2 34.66 13.39 34.03 12.47 34.58 12.47 28.06"/><polygon class="cls-4" points="33.22 28.06 35.36 28.06 35.36 34.39 35.02 34.54 34.65 34.02 34.09 34.66 33.68 34.03 33.22 34.58 33.22 28.06"/><polygon class="cls-1" points="56.46 61.08 99.49 61.08 99.5 24.5 56.46 24.5 56.46 61.08"/><rect class="cls-2" x="89.39" y="24.5" width="10.11" height="36.58"/><path class="cls-3" d="M73.44,48.43a4.82,4.82,0,0,1,4.32,3.39,2.33,2.33,0,0,0-3,0,2.37,2.37,0,0,0-1.29-.54v5.3h0a.64.64,0,0,0,.17.44.6.6,0,0,0,.42.18h0a.58.58,0,0,0,.42-.18.64.64,0,0,0,.17-.44h.43a1.1,1.1,0,0,1-.3.75,1,1,0,0,1-.72.31h0a1,1,0,0,1-.72-.31,1.09,1.09,0,0,1-.29-.75h0V51.27a2.29,2.29,0,0,0-1.29.53,2.33,2.33,0,0,0-3,0A4.83,4.83,0,0,1,73,48.43V47.7h.42Z"/><path class="cls-3" d="M79.62,56.55h7.22v1.07H79.62V56.55Zm6.06-.4V50.21h.53l-1-2-1,2h.53v5.94Zm-4,0V50.21h.53l-1-2-1,2h.53v5.94Z"/><path class="cls-3" d="M66.56,48.39c-.38,2.8-1.77,4.93-3.48,5.14v3.34h1.67v.75H60.88v-.75h1.66V53.53c-1.71-.21-3.1-2.34-3.48-5.14h5.41l.43,1-.48-.06.5,1.89-.17-1.59.39,0-.09-1.28Z"/><polygon class="cls-4" points="70.27 24.5 74.95 24.5 74.95 31.51 74.2 31.68 73.39 31.1 72.2 31.81 71.29 31.11 70.27 31.71 70.27 24.5"/><polygon class="cls-4" points="93.26 24.5 95.63 24.5 95.63 31.51 95.26 31.68 94.85 31.1 94.24 31.81 93.78 31.11 93.26 31.71 93.26 24.5"/></g></g></svg>