<svg xmlns="http://www.w3.org/2000/svg" viewBox="0 0 361.47 99.79"><defs><style>.cls-1{isolation:isolate;}.cls-2{fill:#a2c629;}.cls-3{fill:#cbc9d0;opacity:0.75;mix-blend-mode:multiply;}.cls-4{fill:#423f47;}.cls-5{fill:#71727a;}.cls-6{fill:#060507;}.cls-7{fill:#1b2832;}.cls-8{fill:#eb6e4a;}.cls-9{fill:#879e00;}.cls-10{fill:#aadbeb;}.cls-11{fill:#84dafc;}.cls-12{fill:#e6e5e8;}.cls-13{fill:#c9d300;}.cls-14{fill:#f38660;}.cls-15{fill:#73d6fe;}.cls-16{fill:#f2825b;}.cls-17{fill:#65c5ee;}</style></defs><g class="cls-1"><g id="katman_2" data-name="katman 2"><g id="katman_1-2" data-name="katman 1"><path class="cls-2" d="M288.14,65.26a.11.11,0,0,0,0,.16c-.61,0-1.22-.07-1.83-.07l-14.74-.08c-.62,0-1.24.07-1.86.07H39c-2.38,0-4.76.05-7.14.08a2.73,2.73,0,0,0-1.5,0l-1.93,0a3.46,3.46,0,0,0-1.6,0l-17,0a.32.32,0,0,0-.25-.08H9c-1.38.19-2-.31-2-1.79Q7,32.42,7,1.32L7,.14h5.34l35.28,0,41.57,0H93.5a5.44,5.44,0,0,0,2.09,0,35,35,0,0,0,4.8,0,53.46,53.46,0,0,0,7.16,0c.66,0,1.33.09,2,.09H288c.53,0,1,.06,1.57.09q0,16.79,0,33.55,0,15.65,0,31.27c0,.16-.09.31-.13.47Z"/><rect class="cls-3" y="96.42" width="347.5" height="3.37"/><path class="cls-4" d="M125.53,89.16c0,.4.23.93-.45,1s-1.25.39-1.73-.14c-1.34-1.46-2.52-1.31-3.27.44a.59.59,0,0,0-.57.55.46.46,0,0,0-.07.1s0,.06,0,.06a.39.39,0,0,0,.1-.08l.27,0a3.3,3.3,0,0,1-.84,1.75c-.64-1.15-.81,0-1,.27-3.37,4.32-7.85,5.78-13.12,5a11.51,11.51,0,0,1-5.21-2.19,13,13,0,0,1-5-6.91.72.72,0,0,0-.44-.52c0-1.07-.6-2.08-.38-3.18l.24-.25,0,0a2.54,2.54,0,0,0,.61-1.41c2.54-9.31,14.72-12.62,21.71-6a15.53,15.53,0,0,1,4.25,7.89c0,.57,0,1.14,0,1.7-.07.9-.06,1.58,1.18,1.59s1.58-.36,1.44-1.49c-.1-.8,0-1.63-.2-2.41-1.71-8.31-7.92-13.36-16.41-13.36q-28,0-56,0a20,20,0,0,0-2.56.15,15.88,15.88,0,0,0-13.74,17v.34l-.12.53h-1c0-.91-.1-1.81-.09-2.71A16.83,16.83,0,0,1,49.76,70.43c19.47,0,38.94-.07,58.41,0,5.78,0,10.26,2.87,13.48,7.62a16.73,16.73,0,0,1,2.79,10.71c0,.41-.14,1,.31,1.16C125.37,90.19,125.22,89.4,125.53,89.16Zm-10.82-2.92a7.3,7.3,0,1,0-7.26,7.29A7.24,7.24,0,0,0,114.71,86.24Z"/><path class="cls-5" d="M125.53,89.16c-.31.24-.16,1-.78.8-.45-.16-.34-.75-.31-1.16a16.73,16.73,0,0,0-2.79-10.71c-3.22-4.75-7.7-7.59-13.48-7.62-19.47-.11-38.94-.07-58.41,0A16.83,16.83,0,0,0,33.21,86.9c0,.9.06,1.8.09,2.71l0,.72c-.5-.08-1,0-1.42-.46a28.5,28.5,0,0,1,.55-7.43.16.16,0,0,0,0-.18A2.77,2.77,0,0,0,33,80.73a.12.12,0,0,0,0-.17,2.71,2.71,0,0,0,.64-1.48l-.08,0,.33-.31a1.2,1.2,0,0,0,.52-.87l.3-.56h0a.6.6,0,0,0,.32-.59v0a.67.67,0,0,0,.54-.62h0c.4-.41,1.21-.64.6-1.46,1.7-.5,2.82-1.8,4.06-2.94l4.69-2a26.68,26.68,0,0,1,6.9-.79q26.61,0,53.2,0a27.29,27.29,0,0,1,7.75.81l4.49,1.88c1.58,1.51,3.52,2.67,4.57,4.71l.07.07.17.21a.64.64,0,0,1,.41.52l.72,1.18a2.1,2.1,0,0,0,.13.26,29.24,29.24,0,0,1,2.18,6.5A6,6,0,0,1,125.53,89.16Z"/><path class="cls-6" d="M342.17,89.59l-1.43,0L340.6,89c.17-1.5.71-3,.3-4.53-.64-6.42-7-11.33-12-11.63-7.26-.43-13.82,4.8-14.54,11.92a12.85,12.85,0,0,0-.19,2.84c-.31.05-.78,0-.71.46s.66.33,1,.4l.16.8-.18.37-1.72,0a12.92,12.92,0,0,1-.27-3.82,15.16,15.16,0,0,1,18.1-14.56c1.73.33,3,1.61,4.73,1.85a2.5,2.5,0,0,0,1.17.56c5,4.08,7.31,9.2,6.18,15.69Z"/><path class="cls-5" d="M345.42,89.59l-1.23.12a.21.21,0,0,1-.07-.2.26.26,0,0,1-.17-.14,26.24,26.24,0,0,0,.16-6.26A21.54,21.54,0,0,0,341.66,74c-.76-1.42-2.22-2-3.17-3.2A8.9,8.9,0,0,0,334,67.66a27.53,27.53,0,0,0-17.89,1,8.84,8.84,0,0,0-5.63,5.48c-.21.62-.64.62-1.12.62l-11.14,0,0-1.13a2.49,2.49,0,0,1,1.43-.08c.45.26.8,0,1.14-.25,1.9.67,3.87.25,5.8.3,2.84.08,3-.05,4.06-2.75h.09l.07,0a11.59,11.59,0,0,0,2.05-2,1.61,1.61,0,0,0,1.09-.59.86.86,0,0,0,.7-.54l.45-.07a2.55,2.55,0,0,0,1.71-.8l.58-.11c.33-.06.66-.09,1-.18a38.07,38.07,0,0,1,10.7-1,25,25,0,0,1,7.43,1.72,50.19,50.19,0,0,1,5.12,4v.11l.33.34h0l.33.54a2.19,2.19,0,0,0,.17.53,20.9,20.9,0,0,1,3,11.8C345.3,86.19,345.39,87.89,345.42,89.59Z"/><path class="cls-7" d="M81.83,99.37c-2,.35-4,.72-6,0l-4-1.54a14.66,14.66,0,0,1-6.1-8.31c-.22-.84-.94-.42-1.44-.47s-1-.2-1.23.57a14.2,14.2,0,0,1-5.66,7.92,21.59,21.59,0,0,1-4.82,1.93,22.6,22.6,0,0,1-6-.21l-3.81-1.76A15.27,15.27,0,0,1,37,89l0,0c.66.06.76.59,1,1.08a13,13,0,0,0,5.44,6.39,13.42,13.42,0,0,0,18.25-4.68c.73-1.18.83-2.62,1.74-3.69.69,1.05,1.57.67,2.45.34.29.64.6,1.27.88,1.92,4,9.27,16.43,10.48,22.44,3.09.27-.33.46-.73,1-.73l0,0c-.62,2.34-2.6,3.5-4.3,4.9A25,25,0,0,1,81.83,99.37Z"/><path class="cls-5" d="M262.93,73.21c2.74.33,5.5.12,8.25.19a3.5,3.5,0,0,1,1.54.14c0,.37,0,.75,0,1.13-4.28,0-8.56,0-12.85.06a1.9,1.9,0,0,1-1.55-.82,8,8,0,0,0-5.34-2.67,52.56,52.56,0,0,0-9.55-.17c-3.59.21-7.16.8-9.6,3.9-.61.78-1.09.61-1.73.25l.66-1.32.56-.61a2.12,2.12,0,0,0,.88-.8L236,71.33h.08l.08-.06a1.85,1.85,0,0,0,1.16-.54h0c1.24-.06,2.36-.71,3.61-.82l-1.34-.22a13,13,0,0,1,3.24-.11c3.14,0,6.3-.06,9.44.21,2.35.26,4.66.73,6.31,2.6C259.85,73.88,261.35,73.6,262.93,73.21Z"/><path class="cls-7" d="M336.12,96.66l-.82.62h0a17.91,17.91,0,0,1-5,2.16,23.65,23.65,0,0,1-6.12-.14l-3.82-1.76a15.32,15.32,0,0,1-5-5.91,5.73,5.73,0,0,0-.93-2l.18-.37a1.75,1.75,0,0,1,.88,1.06,13.27,13.27,0,0,0,24.3,0c.19-.47.26-1,.8-1.28l.14.64A16.36,16.36,0,0,1,336.12,96.66Z"/><path class="cls-7" d="M114.65,97.57,111,99.28a19.92,19.92,0,0,1-7.14,0l-3.32-1.42c-2.77-2-5.06-4.44-5.93-7.86-.26-1-.84-.91-1.57-1s-1.17.13-1.41,1c-.28,1-.4,2.15-1.45,2.78l0,0a20.45,20.45,0,0,1,1.7-4.27,2.46,2.46,0,0,0,2.46,0,.72.72,0,0,1,.44.52,13,13,0,0,0,5,6.91A11.51,11.51,0,0,0,104.92,98c5.27.76,9.75-.7,13.12-5,.17-.22.34-1.42,1-.27h0a.71.71,0,0,0-.36.65C117.75,95.21,116.1,96.29,114.65,97.57Z"/><path class="cls-7" d="M244.43,99.38a26.79,26.79,0,0,1-4.23-1.81,14.75,14.75,0,0,1-5.71-7.79.4.4,0,0,0-.07-.24l.15-.27c.41.14.52.52.67.87a13,13,0,0,0,5.23,6.18A13.64,13.64,0,0,0,258.12,93c.91-1.17,1.08-2.74,2.22-3.73l.11.36A14.34,14.34,0,0,1,255,97.34a33,33,0,0,1-4,2A22,22,0,0,1,244.43,99.38Z"/><path class="cls-5" d="M273.29,73.55a7,7,0,0,1,1.12-.15q11,0,22.06,0a8.45,8.45,0,0,1,1.11.15l0,1.13H273.33C273.32,74.3,273.31,73.92,273.29,73.55Z"/><path class="cls-6" d="M262.93,73.21c-1.58.39-3.08.67-4.38-.8-1.65-1.87-4-2.34-6.31-2.6a2.86,2.86,0,0,1,1.53-.18c3.46,0,6.93,0,10.39,0a7.88,7.88,0,0,1,2.82.18l.1.33c-1.45.86-3.14.89-4.69,1.39-.66.21-1.35.36-2.22.59A11.69,11.69,0,0,0,262.93,73.21Z"/><path class="cls-6" d="M12.14,87.57a.16.16,0,0,0-.07.21l-3.64,0,0,0a18.31,18.31,0,0,1,0-4.25c.13-.12.19-.11.49-.14l.63-.13H12Z"/><path class="cls-8" d="M9.27,73.07c-1.33.08-1.9-.49-1.7-1.85a7.08,7.08,0,0,0,0-1.84c-.14-1.13.24-1.73,1.44-1.62l.51,0,.11,0,.18,1.74a2.91,2.91,0,0,0,0,2.19L9.55,73Z"/><path class="cls-7" d="M273.29,73.55c0,.37,0,.75,0,1.12l0,14.89h-.59l0-14.89c0-.38,0-.76,0-1.13Z"/><path class="cls-7" d="M297.55,74.67l0-1.13h.57c0,.38,0,.76,0,1.13l0,14.9h-.58Z"/><path class="cls-9" d="M310.58,70.76c-1.11,2.7-1.22,2.83-4.06,2.75-1.93-.05-3.9.37-5.8-.3,0-.53-.07-1.07-.11-1.6s0-.82,0-1.23c.06-1.39.12-2.78.19-4.17.43,1.58.14,3.2.19,4.8.06,1.85.16,2,2.06,2,1.14,0,2.28,0,3.42,0,1.3,0,2.57.14,3.13-1.48C309.72,71.21,310.25,71,310.58,70.76Z"/><path class="cls-9" d="M300.73,59.84a32.66,32.66,0,0,0,.33-5.23,15.65,15.65,0,0,1,.26-3,1.62,1.62,0,0,1,.46,1.29c-.44,2.82-.08,5.66-.21,8.48,0,.7,0,1.42-.71,1.88l-.16-1.67Z"/><path class="cls-5" d="M289.55,66.16c0,.18,0,.36,0,.54,0,.59,0,1.17,0,1.75V69c0,.2,0,.4,0,.6a.41.41,0,0,0-.23.15l-1.17-.08c0-1.42,0-2.83,0-4.25a.11.11,0,0,1,0-.16l1.3.22c0,.13.08.25.13.38S289.55,66.06,289.55,66.16Z"/><path class="cls-9" d="M301.31,50.93c0-1.87,0-3.74,0-5.61,0-.59,0-1.18,0-1.77.56-1.27,0-2.69.54-4a1.36,1.36,0,0,1,.28,1.34c-.38,2-.09,4-.32,6A15.32,15.32,0,0,1,301.31,50.93Z"/><path class="cls-9" d="M302,36.41l-.12-2.25,0-.6c.5-1.65.22-3.41.62-5.07.62,2.57-.22,5.12-.2,7.68C302.3,36.25,302.09,36.33,302,36.41Z"/><path class="cls-7" d="M33.27,90.33l0-.72h1C34.33,90.39,33.81,90.37,33.27,90.33Z"/><path class="cls-7" d="M34.38,89.07v-.34l2.64.11A.94.94,0,0,0,37,89l0,0Z"/><path class="cls-7" d="M344,89.37a.26.26,0,0,0,.17.14l-1.12.15a.16.16,0,0,0-.23,0l-.6-.08.46-.31Z"/><path class="cls-10" d="M342.77,89.67a.16.16,0,0,1,.23,0l-.12.07Z"/><path class="cls-11" d="M33.89,78.74l-.33.31Z"/><path class="cls-4" d="M286.32,65.35l-14.74-.08c-.62,0-1.24.07-1.86.07H39c-2.38,0-4.76.05-7.14.08.12,1.11,1.08,1.61,1.7,2.36.22.26.69.51.17.92a.67.67,0,0,1-1-.1,11.51,11.51,0,0,0-1.11-1.1c-.35-.29-.63-1-1.23-.48s-.87,1-.21,1.72a6.12,6.12,0,0,1,.64.93l13.39-.05a2.85,2.85,0,0,1,.68.18,26.68,26.68,0,0,1,6.9-.79q26.59,0,53.2,0a27,27,0,0,1,7.75.81,2.06,2.06,0,0,1,1.38-.2c26.95,0,53.91-.07,80.86,0,6.23,0,12.47,0,18.71.14.62,0,1.55-.35,1.59.85s-1,.93-1.63.93H120.07c-.95,0-1.9.08-2.85.11,1.59,1.51,3.53,2.67,4.57,4.71a4.83,4.83,0,0,0-.41-.74c-.5-.65-.48-1,.46-1,3.6,0,7.2,0,10.8.06.47,0,.94-.09,1.41-.09h62.49c.57,0,1.13.08,1.7.13,3.79,0,7.59,0,11.38-.11.94,0,.72.66.86,1.14.59-1.35,3.14-1.68,4.38-.56l.7-.86a29.51,29.51,0,0,0,0-3.26c-.13-1.28.45-1.45,1.55-1.44,7,0,14,0,21,0l1.43,0a12.94,12.94,0,0,1,3.23-.11c3.15,0,6.3-.06,9.45.21a2.85,2.85,0,0,1,1.53-.18c3.46,0,6.92,0,10.38,0a7.86,7.86,0,0,1,2.82.18l14.08-.12.11-.07.1.08,6.85,0c0-1.42,0-2.83,0-4.25C287.54,65.39,286.93,65.35,286.32,65.35ZM66.57,68.48c-.68,0-1.49,0-1.56-.86s.68-1,1.39-1,1.59,0,1.63,1S67.23,68.43,66.57,68.48Zm43.45,0c-.69,0-1.5-.06-1.48-1s.9-1,1.61-1,1.44.12,1.38,1S110.66,68.44,110,68.51Zm43.49,0c-.62,0-1.42,0-1.42-.92s.79-1,1.45-1,1.58.05,1.54,1S154.23,68.47,153.51,68.48Zm43.66,0c-.76,0-1.55,0-1.55-.94s.79-1,1.46-1,1.57,0,1.52,1S197.74,68.45,197.17,68.49Zm43.45,0c-.66-.07-1.51-.05-1.48-.94s.89-1,1.61-1,1.47.11,1.41,1S241.29,68.47,240.62,68.51Zm43.57,0c-.69,0-1.5,0-1.51-.92s.76-1,1.46-1,1.58,0,1.56,1S284.84,68.43,284.19,68.48Z"/><path class="cls-4" d="M26.88,67.15c-.43-.45-.15-1.17-.05-1.77l-17,0a4.59,4.59,0,0,1-.21,2.38l.18,1.74c3.56,0,7.13.08,10.69.1a42.78,42.78,0,0,0,6.79-.12C27.32,68.69,27.59,67.9,26.88,67.15ZM23,68.48c-.66,0-1.47,0-1.52-.86s.72-1,1.39-1,1.59,0,1.61,1S23.69,68.46,23,68.48Z"/><path class="cls-4" d="M33.73,68.71a.67.67,0,0,1-1-.1,11.51,11.51,0,0,0-1.11-1.1c-.35-.29-.63-1-1.23-.48s-.87,1-.21,1.72a6.12,6.12,0,0,1,.64.93l-3.53-.18c0-.81.3-1.6-.41-2.35-.43-.45-.15-1.17-.05-1.77a3.46,3.46,0,0,1,1.6,0c0,.48-.62,1,0,1.42s.92-.33,1.4-.48.44-.59.51-1a2.73,2.73,0,0,1,1.5,0c.12,1.11,1.08,1.61,1.7,2.36C33.78,68.05,34.25,68.3,33.73,68.71Z"/><path class="cls-4" d="M30.36,65.39c-.07.38-.13.85-.51,1s-.86.81-1.4.48,0-.94,0-1.42Z"/><path class="cls-4" d="M9.63,67.78l-.11,0c0-.81.05-1.61.07-2.42a.32.32,0,0,1,.25.08A4.59,4.59,0,0,1,9.63,67.78Z"/><path class="cls-12" d="M132.64,74.78c.47,0,1-.09,1.42-.09h62.49c.56,0,1.13.08,1.69.13-.28,2.8-.09,5.6-.11,8.41,0,1.08-.27,1.49-1.44,1.49q-31.26,0-62.52,0c-1,0-1.49-.16-1.5-1.31s.62-1.29,1.53-1.27,1.9,0,2.85,0l1.93,0h25.48l1.93,0q13,0,26,0c3.68,0,3.14.5,3.24-3.29,0-1.15-.33-1.62-1.54-1.61-9.22,0-18.44,0-27.67.05a3.52,3.52,0,0,0-1.93,0H139a3.86,3.86,0,0,0-1.91,0l-1.84,0C132.79,77.23,132.79,77.23,132.64,74.78Z"/><path class="cls-6" d="M210.48,75.85c.6-1.35,3.15-1.68,4.38-.56,0,2.57,0,5.14,0,7.71-1.26.55-2.64,0-3.91.39l-.32-.07c0-.2-.09-.4-.13-.6V81a1.87,1.87,0,0,0,0-1.68Z"/><path class="cls-12" d="M213.82,86.17c0,.71,0,1.42,0,2.13h-3.28c1.2-.84,1.5-3,.66-4.71a6.41,6.41,0,0,1,2.79,0l.09.2-.28.36Z"/><path class="cls-4" d="M139,82.11l-1.93,0c0-1.6,0-3.2,0-4.8a3.86,3.86,0,0,1,1.91,0C139,78.89,139,80.5,139,82.11Z"/><path class="cls-7" d="M214.86,89.53c.44.2,1.26-.24,1.23.74s-.79.64-1.26.65a51.24,51.24,0,0,0-5.26.09l-.4-.29c0-.3,0-.6,0-.9.37-.45.91-.14,1.34-.32C212,90.09,213.41,89.46,214.86,89.53Z"/><path class="cls-4" d="M214.86,89.53c-1.45-.07-2.91.56-4.36,0l.06-1.19h3.28a.46.46,0,0,1,0,.2l.74.2Z"/><path class="cls-4" d="M125.48,85.16a29.24,29.24,0,0,0-2.18-6.5A13.26,13.26,0,0,1,125.48,85.16Z"/><path class="cls-4" d="M214,83.59a6.41,6.41,0,0,0-2.79,0l-.28-.21c1.27-.43,2.65.16,3.91-.39C214.91,83.68,214.31,83.42,214,83.59Z"/><path class="cls-4" d="M123.17,78.4l-.72-1.18A1.93,1.93,0,0,1,123.17,78.4Z"/><path class="cls-4" d="M210.48,79.31a1.87,1.87,0,0,1,0,1.68A4,4,0,0,1,210.48,79.31Z"/><path class="cls-11" d="M209.16,89.82c0,.3,0,.6,0,.9s-.29.34-.39.06A.74.74,0,0,1,209.16,89.82Z"/><path class="cls-7" d="M119.86,91l-.27,0-.08-.08a.59.59,0,0,1,.57-.55Z"/><path class="cls-4" d="M118.66,93.41a.71.71,0,0,1,.36-.65A.81.81,0,0,1,118.66,93.41Z"/><path class="cls-4" d="M210.49,82.72c0,.2.09.4.13.6C210.34,83.17,210.41,83,210.49,82.72Z"/><path class="cls-4" d="M122,76.7l-.17-.21Z"/><path class="cls-6" d="M37,88.84l-2.64-.11a15.88,15.88,0,0,1,13.74-17,20,20,0,0,1,2.56-.15q28,0,56,0c8.49,0,14.7,5,16.41,13.36.16.78.1,1.61.2,2.41.14,1.13-.31,1.5-1.44,1.49s-1.25-.69-1.18-1.59c0-.56,0-1.13,0-1.7a14.57,14.57,0,0,0-.13-2A13.37,13.37,0,0,0,94.1,85l0,0-.24.25c-.22,1.1.38,2.11.38,3.18a2.46,2.46,0,0,1-2.46,0c-.1-1.09.54-2.11.26-3.21-.06-.31.21-.77-.39-.82.12-.19.09-.32-.13-.39.6-.42.27-1,.14-1.41a13.34,13.34,0,0,0-26,1.25c-.69,1.55-.06,3,.15,4.57-.88.33-1.76.71-2.45-.34a12.15,12.15,0,0,0,.1-3.71c-.14-.48,0-1-.49-1.4v0c-.06-.31.14-.71-.3-.89v0a3,3,0,0,0-.26-1.38,13.42,13.42,0,0,0-14.86-7.71A13.2,13.2,0,0,0,36.92,85.3C36.64,86.49,37.19,87.66,37,88.84Z"/><path class="cls-12" d="M114.71,86.24a7.3,7.3,0,1,1-7.33-7.33A7.3,7.3,0,0,1,114.71,86.24Z"/><path class="cls-5" d="M94.1,85a13.37,13.37,0,0,1,26.44-1.46,14.57,14.57,0,0,1,.13,2,15.53,15.53,0,0,0-4.25-7.89c-7-6.67-19.17-3.36-21.71,6A2.54,2.54,0,0,1,94.1,85Z"/><path class="cls-7" d="M119.59,91.05a.39.39,0,0,1-.1.08s-.06,0,0-.06a.46.46,0,0,1,.07-.1Z"/><path class="cls-5" d="M93.89,85.24l.24-.25Z"/><path class="cls-2" d="M341.54,71.27v-.11a8.44,8.44,0,0,1-.24-3.9c.06-.39,0-.72.66-.58,1.45.32,1.65,0,1.26-1.49.45-.12,1.35.69,1.31-.25-.06-1.31.71-1.33,1.56-1.56.35-.09.89-.35.78-.87s-.62-.39-1-.35c-1.42.16-1.91-.5-1.76-1.83,0-.3.12-.74-.31-.84s-.6.26-.78.52a1.54,1.54,0,0,0-.3.78c0,1.13-.43,1.13-1.12.41-.2-.21-.39-.42-.61-.61-.41-.35-.8-1-1.41-.48s0,1,.34,1.42a6.94,6.94,0,0,1-.83,3.41,1.56,1.56,0,0,1-.57.06c-1.58-.1-2.07.84-2.13,2.21A25,25,0,0,0,329,65.49a38.07,38.07,0,0,0-10.7,1c-.32.09-.65.12-1,.18a1.6,1.6,0,0,0,.29-2.53,16.54,16.54,0,0,1-1.36-2.65,61.8,61.8,0,0,1-3.59-9.28c-.27-.94,0-1.18.93-1.18,2.67,0,5.34.06,8,0,1.17,0,1.46.42,1.44,1.5,0,3.62,0,7.24,0,10.85a2,2,0,0,0,.27,1.5c.5-.58.29-1.17.29-1.71,0-11.75,0-23.5,0-35.26,0-1.4.43-1.79,1.78-1.75,2.66.1,5.33,0,8,0l16.12,0c-.36.83-.11,2-1.36,2.33a11.85,11.85,0,0,0-5.67-1c-2.79.08-5.59,0-8.39,0a3.26,3.26,0,0,0-2.72.92,2.55,2.55,0,0,0-.89,2.13c-.49.45-.39,1.05-.4,1.6,0,2.76,0,5.52,0,8.28a4.36,4.36,0,0,0,2.14,3.9,15.26,15.26,0,0,0,6.12,2.21,50.93,50.93,0,0,0,9.83,1.3,3.23,3.23,0,0,0,3,.43c1-.3,1.85-.78,2.91-.36a.53.53,0,0,0,.66-.39.57.57,0,0,0-.33-.7c-.29-.17-.59-.31-.88-.47-.82,0-.91-.51-.69-1.14.76-2.17,0-4.23-.46-6.31a30.26,30.26,0,0,1,.1-5.55c.31-.22.3-.43,0-.62l0-.89.14-.55a.5.5,0,0,0,0-.8l-.15-.54c-.09-.55-.07-1.38-.6-1.48-1.38-.25-1.26-1.37-1.58-2.26,1.13.53,1.13.53,2.3,0a.57.57,0,0,0,.51.55c-.84,1.87.35,3.57.44,5.37-.46.4-.2.55.22.63l.48,2-.81-.57c-1.14-.69-.54.5-.53.6.26,1.83.46,3.67.88,5.48.62,2.58,1.51,5.17,1.58,7.78.22,7.38.06,14.76.1,22.14,0,1.16-.41,1.45-1.5,1.44-4,0-8,0-12,0h0ZM331,58.71c.76,0,1.51,0,2.27,0s1.06-.16,1-.94-.24-1.13-1.06-1.1c-1.42,0-2.84,0-4.26,0-.74,0-1.13.2-1.13,1s.43,1,1.15,1S330.36,58.71,331,58.71Zm7.45,2.71c-.47.08-.56.42-.57.82s.16.75.65.71a.71.71,0,0,0,.7-.86C339.21,61.65,338.89,61.47,338.47,61.42Zm12.81-34v.11l.11,0Z"/><path class="cls-9" d="M352.46,26.17c-1.17.54-1.17.54-2.3,0h-.69l-16.12,0c-2.67,0-5.34.07-8,0-1.35,0-1.79.35-1.78,1.75.05,11.76,0,23.51,0,35.26,0,.54.21,1.13-.29,1.71a2,2,0,0,1-.27-1.5c0-3.61,0-7.23,0-10.85,0-1.08-.27-1.54-1.44-1.5-2.66.07-5.33,0-8,0-.88,0-1.2.24-.93,1.18a61.8,61.8,0,0,0,3.59,9.28,16.54,16.54,0,0,0,1.36,2.65,1.6,1.6,0,0,1-.29,2.53l-.58.11c-.73-.07-1.46-.15-1.71.8l-.45.07c-.39,0-.64.13-.7.54a1.61,1.61,0,0,1-1.09.59,2,2,0,0,0-2.05,2l-.07,0h-.09c-.33.26-.86.45-1,.78-.56,1.62-1.83,1.52-3.13,1.48-1.14,0-2.28,0-3.42,0-1.9,0-2-.15-2.06-2-.05-1.6.24-3.22-.19-4.8,0-1,0-1.95.05-2.93.68-.46.68-1.18.71-1.88.13-2.82-.23-5.66.21-8.48a1.62,1.62,0,0,0-.46-1.29v-.7a15.32,15.32,0,0,0,.5-4c.23-2-.06-4,.32-6a1.36,1.36,0,0,0-.28-1.34l0-.63a1.79,1.79,0,0,0,.06-1.89l0-.66c.12-.08.33-.16.33-.24,0-2.56.82-5.11.2-7.68,0-.41.05-.81.07-1.22.53-.53.94-1.07.1-1.68l.12-.61c.95-.94.45-2,.31-3.06.36-4.05.64-8.12,2.08-12l.11.78a3.3,3.3,0,0,0,.58,1.44,90.5,90.5,0,0,0,.87,12.19c.06.59.2,1.18,1,1.2s1-.64,1-1.28c.27-4.18,2.75-6.9,5.92-9.25,1.27-.94,2.91-1.17,4-2.35l1,.26c-.13.73-.79.73-1.3.94-4.21,1.76-7.52,4.39-8.82,9-.63,2.26-.32,2.7,2,2.71l41.24,0c.05.17.1.34.16.52ZM318.73,36.86c0-1.94,0-3.89,0-5.84,0-1.44-.56-2-2-2-2.19,0-4.37,0-6.56,0-1.93,0-2.43.4-2.28,2.35a74.45,74.45,0,0,0,2.42,12.54c.17.7.64.84,1.28.83,1.71,0,3.42,0,5.14,0,1.41,0,2-.59,2-2C318.75,40.76,318.73,38.81,318.73,36.86ZM323,38.31c0-3.57,0-7.14,0-10.71,0-1.13-.36-1.48-1.48-1.47-4.38.05-8.76,0-13.14,0-.49,0-1.17-.21-1.33.5a2.64,2.64,0,0,0,.4,2c.34.47.77-.32,1.22-.37a10.85,10.85,0,0,1,1.26-.16c2.14,0,4.29,0,6.43,0s3.12.86,3.13,2.9c0,4.08.35,8.18-.21,12.26a2.23,2.23,0,0,1-2.53,2.26c-1.29,0-2.57,0-3.86,0-2.21,0-2.21,0-1.67,2.07.12.46.24.92.33,1.39a1.53,1.53,0,0,0,1.78,1.41c2.76-.05,5.52-.06,8.28,0,1.09,0,1.39-.39,1.38-1.42C323,45.46,323,41.89,323,38.31Z"/><path class="cls-2" d="M352.71,25.6l-41.24,0c-2.29,0-2.6-.45-2-2.71,1.3-4.61,4.61-7.24,8.82-9,.51-.21,1.17-.21,1.3-.94,2.18,1,4.54.8,6.82,1a165.9,165.9,0,0,1,17.19,2.5c4.64,1,7.4,3.8,8.77,8.19C352.5,25,352.61,25.28,352.71,25.6Z"/><path class="cls-2" d="M345.42,89.59c0-1.7-.12-3.4-.07-5.1a20.9,20.9,0,0,0-3-11.8,2.19,2.19,0,0,1-.17-.53h9.71c3.32,0,3.32,0,3.44,3.32a.65.65,0,0,0,0,.14c.05.36-.11.91.4.94s.41-.52.45-.87a5.42,5.42,0,0,0,0-.57c0-8.76,0-17.52,0-26.28,0-3.09-1.27-6-1.62-9-.16-1.48-.8-3-.94-4.53h.59a.67.67,0,0,1,0,.67l.29.45v0l.19.3c0,.19.07.38.11.58-.18.13-.13.23,0,.32a1.47,1.47,0,0,1,.23,1l.21.39c.75,2.56,1.49,5.13,2.24,7.69-.28.1-.85-.09-.74.37s.64.17,1,.19c.48.84,1.39.64,2.12.87,0,.53-.08,1.14.75,1.14a.62.62,0,0,1,.35.54l.31.36a5.17,5.17,0,0,1,.1,2.28c-.15.08-.41.13-.43.23-.06.31.23.3.43.35,0,2.83,0,5.67,0,8.5a2.1,2.1,0,0,1-.36,1.21c-.68.14-.69-1.84-1.64-.58s.9.7.95,1.36c0,.09,0,.23-.08.25-1.79.86-.93,1.77-.05,2.67l.21.29c.39,2.86,0,5.73.18,8.59a11.73,11.73,0,0,0,0,6.59,2.81,2.81,0,0,0,.33,1.92,1.14,1.14,0,0,1,.24.66c-.17,1.76-.64,3.47-.79,5.25-.06.76-1.18.88-1.92.93-1.71.1-3.42.1-5.13.12-1.42,0-2.86-.06-4.27,0A4,4,0,0,1,345.42,89.59Zm1.8-3.14s-.06,0-.06.07l.07.18,0,.61a.53.53,0,0,0,0,.76c.3.66.9.42,1.38.43,1.52,0,3.05,0,4.57,0,3.47,0,3.47,0,3.1-3.52a3,3,0,0,0,0-1.72,19.52,19.52,0,0,0,0-4.83c.3-.9.07-1.31-1-1.29-2.75.06-5.51.07-8.26,0-1.14,0-1.2.43-.78,1.27.27,1.61.54,3.22.82,4.83a5.44,5.44,0,0,0,.06,2Zm12-3.15a2.31,2.31,0,0,0,.22-.34s-.13-.15-.18-.14a2.09,2.09,0,0,0-.29.16ZM358.46,52l-.15.17.11.08.15-.17Zm1.08,28.8-.08-.1a1.76,1.76,0,0,0-.09.2s.05.06.07.09Z"/><path class="cls-2" d="M318.64,12.66c-1.1,1.18-2.74,1.41-4,2.35-3.17,2.35-5.65,5.07-5.92,9.25,0,.64-.17,1.29-1,1.28s-.9-.61-1-1.2a90.5,90.5,0,0,1-.87-12.19c.86-.11.3-1.57,1.41-1.46.3,0,.59-.2.44-.54s-.47-.24-.73-.08a4.67,4.67,0,0,1-1.7.64l-.11-.78,0,0a.8.8,0,0,0,.35-.75c.87-.56,1.74-.19,2.61,0,.17.89.95,1,1.55.92,1.72-.13,3,1.85,4.83,1,.11,0,.45.21.54.4.8,1.6,2.13,1.43,3.52,1.12Z"/><path class="cls-2" d="M318.6,12.65c-1.39.31-2.72.48-3.52-1.12-.09-.19-.43-.44-.54-.4-1.86.82-3.11-1.16-4.83-1-.6.05-1.38,0-1.55-.92a23.07,23.07,0,0,1,9.8,2.76C318.25,12.09,318.56,12.26,318.6,12.65Z"/><path class="cls-12" d="M360.55,81.89a11.73,11.73,0,0,1,0-6.59c.93,1.32.33,2.81.42,4.22C361.06,80.31,361.36,81.23,360.55,81.89Z"/><path class="cls-2" d="M360.33,63.5c-.05-.66-1.81-.22-.95-1.36s1,.72,1.64.58A1,1,0,0,1,360.33,63.5Z"/><path class="cls-9" d="M303.1,21.92c.14,1,.64,2.12-.31,3.06A10.18,10.18,0,0,1,303.1,21.92Z"/><path class="cls-9" d="M302.67,25.59c.84.61.43,1.15-.1,1.68A2.83,2.83,0,0,1,302.67,25.59Z"/><path class="cls-13" d="M357.76,47.24c-.36,0-.91.23-1-.19s.46-.27.74-.37C357.58,46.87,357.67,47.05,357.76,47.24Z"/><path class="cls-14" d="M354.18,35.3h-.59c-.34-.32-.27-.74-.29-1.14l.81.57A.41.41,0,0,1,354.18,35.3Z"/><path class="cls-13" d="M360.63,49.25c-.83,0-.73-.61-.75-1.14C360.5,48.25,360.57,48.74,360.63,49.25Z"/><path class="cls-14" d="M353.63,32.72c-.42-.08-.68-.23-.22-.63A.55.55,0,0,1,353.63,32.72Z"/><path class="cls-14" d="M352.46,26.17l.41-.05a.52.52,0,0,1,.1.6A.57.57,0,0,1,352.46,26.17Z"/><path class="cls-13" d="M361.39,53c-.2,0-.49,0-.43-.35,0-.1.28-.15.43-.23Z"/><path class="cls-2" d="M305.55,9.15a.8.8,0,0,1-.35.75A.86.86,0,0,1,305.55,9.15Z"/><path class="cls-14" d="M355.26,39l-.21-.39Z"/><path class="cls-14" d="M361.29,50.15l-.31-.36A.35.35,0,0,1,361.29,50.15Z"/><path class="cls-14" d="M354.49,36.42,354.2,36A.37.37,0,0,1,354.49,36.42Z"/><path class="cls-14" d="M354.82,37.6c-.17-.09-.22-.19,0-.32C354.79,37.38,354.81,37.49,354.82,37.6Z"/><path class="cls-14" d="M354.67,36.7l-.19-.3Z"/><path class="cls-14" d="M360.41,66.71l-.21-.29Z"/><path class="cls-6" d="M112.74,69.83a2.06,2.06,0,0,1,1.38-.2c26.95,0,53.91-.07,80.86,0,6.24,0,12.47,0,18.71.14.63,0,1.55-.34,1.59.85s-1,.93-1.63.93H120.07c-.95,0-1.9.08-2.84.11Z"/><path class="cls-6" d="M27.29,69.5l3.53.18,13.4-.05a2.78,2.78,0,0,1,.67.18l-4.69,2c-4.72-.29-9.44-.21-14.16-.06a26.87,26.87,0,0,0-5.6,0c-3.55-.21-7.11-.06-10.66,0a2.91,2.91,0,0,1,0-2.19c3.57,0,7.13.08,10.69.1A42.76,42.76,0,0,0,27.29,69.5Z"/><path class="cls-4" d="M26,71.7c4.72-.15,9.44-.23,14.16.06C39,72.9,37.84,74.2,36.14,74.7H27.78A5,5,0,0,1,26,71.7Z"/><path class="cls-4" d="M312.72,89.56H298.16l0-14.9,11.14,0c.48,0,.91,0,1.12-.62a8.84,8.84,0,0,1,5.63-5.48,27.53,27.53,0,0,1,17.89-1,8.9,8.9,0,0,1,4.52,3.09c.95,1.16,2.41,1.78,3.17,3.2a21.54,21.54,0,0,1,2.45,9.16,26.24,26.24,0,0,1-.16,6.26l-1.32-.09c1.13-6.49-1.19-11.61-6.18-15.69.29-.37.59-.72.86-1.1s.38-.73,0-1-.68,0-.94.28-.74.85-1.11,1.28c-1.72-.24-3-1.52-4.73-1.85a15.16,15.16,0,0,0-18.1,14.56A12.92,12.92,0,0,0,312.72,89.56Zm-9.86-9.12c-.6,0-1.42-.32-1.95.51a1.07,1.07,0,0,0,.18,1.51c.6.56,3.11.5,3.61-.09a1.2,1.2,0,0,0,0-1.67C304.2,80.12,303.56,80.43,302.86,80.44Z"/><path class="cls-4" d="M340.6,89c-.54.26-.61.81-.8,1.28a13.27,13.27,0,0,1-24.3,0,1.75,1.75,0,0,0-.88-1.06c-.05-.27-.11-.53-.16-.8.4-.48-.21-.58-.33-.86a12.85,12.85,0,0,1,.19-2.84c.49-.19.5-1.06,1.24-.89l.05,0c-.14.39-.29.79-.42,1.19-.51,1.63.26,4,1.45,4.35,1.46.43,2.93.93,4.43.11.24.35.45.73.72,1.06a7,7,0,0,0,7.46,2.71,6.9,6.9,0,0,0,5.51-5.53c.92-4-1.29-7.37-5.72-8.82,0-.95-1.64-1.38-.8-2.61.24-.36.34-.89-.1-1.15s-.75.2-1,.54A7.74,7.74,0,0,1,324.87,78a.66.66,0,0,1-.79,0,.46.46,0,0,1-.09-.64c.39-.56.51-1.15-.28-1.32s-.9.57-1.12,1.08a1.48,1.48,0,0,0,.09,1.37,2.88,2.88,0,0,1,.35,1.92l-1.93,2.34a3.52,3.52,0,0,0-2.85-.52c-.9.28-1.73.72-2.59,0l-.12-.12a12.84,12.84,0,0,1,13.9-7.75c5.45.94,9.11,3.89,10.88,9.15.12.35.16.76.58.93C341.31,86,340.77,87.47,340.6,89Z"/><path class="cls-4" d="M315.56,83.84c-.74-.17-.75.7-1.24.89.72-7.12,7.28-12.35,14.54-11.92,5.08.3,11.4,5.21,12,11.63-.42-.17-.46-.58-.58-.93-1.77-5.26-5.43-8.21-10.88-9.15a12.84,12.84,0,0,0-13.9,7.75l-.06.18.18-.06c.86.76,1.69.32,2.59,0a3.52,3.52,0,0,1,2.85.52l-.49,1.09c-.27-.08-.54-.17-.82-.24-.44-.12-.9-.17-1,.4s.18.91.76,1a6.09,6.09,0,0,0,.85,0l0,2c-.39.17-.51.4-.14.72.67.42.55,1.22.87,1.81-1.5.82-3,.32-4.43-.11-1.19-.34-2-2.72-1.45-4.35.13-.4.28-.8.42-1.19.3-.06.55-.18.48-.55,0,0-.16-.11-.22-.09A.63.63,0,0,0,315.56,83.84Zm3.71,4.28c-.32,0-.62.14-.7.52a.19.19,0,0,0,.24.24c.38-.07.48-.37.53-.7l.1-.09-.07-.07Zm-.62-1.43c-.15-.69-.48-1.15-1.24-1.14a.91.91,0,0,0-1,1c0,.74.34,1.22,1.06,1.21A1.22,1.22,0,0,0,318.65,86.69Z"/><path class="cls-4" d="M335.28,73c.37-.43.76-.84,1.11-1.28s.57-.57.94-.28.22.69,0,1-.57.73-.86,1.1A2.5,2.5,0,0,1,335.28,73Z"/><path class="cls-7" d="M314.13,87.57c.12.28.73.38.33.86-.38-.07-.95.18-1-.4S313.82,87.62,314.13,87.57Z"/><path class="cls-2" d="M336.43,67.21c.06-1.37.55-2.31,2.13-2.21a1.56,1.56,0,0,0,.57-.06,6.94,6.94,0,0,0,.83-3.41c-.35-.43-1-.86-.34-1.42s1,.13,1.41.48c.22.19.41.4.61.61.69.72,1.09.72,1.12-.41a1.54,1.54,0,0,1,.3-.78c.18-.26.41-.6.78-.52s.35.54.31.84c-.15,1.33.34,2,1.76,1.83.35,0,.86-.12,1,.35s-.43.78-.78.87c-.85.23-1.62.25-1.56,1.56,0,.94-.86.13-1.31.25.39,1.54.19,1.81-1.26,1.49-.64-.14-.6.19-.66.58a8.44,8.44,0,0,0,.24,3.9A50.19,50.19,0,0,0,336.43,67.21Z"/><path class="cls-2" d="M353.3,34.15c0,.4-.05.82.29,1.14.14,1.55.78,3.05.94,4.53.35,3,1.61,5.93,1.62,9,0,8.76,0,17.52,0,26.28a5.42,5.42,0,0,1,0,.57c0,.35.09.9-.45.87s-.35-.58-.4-.94a.65.65,0,0,1,0-.14c-.12-3.33-.12-3.33-3.44-3.32h-9.71l-.33-.54c4,0,8-.06,12,0,1.09,0,1.51-.28,1.5-1.44,0-7.38.12-14.76-.1-22.14-.07-2.61-1-5.2-1.58-7.78-.42-1.81-.62-3.65-.88-5.48C352.76,34.65,352.16,33.46,353.3,34.15Z"/><path class="cls-9" d="M310.74,70.72a2,2,0,0,1,2.05-2A11.59,11.59,0,0,1,310.74,70.72Z"/><path class="cls-9" d="M315,67.55c.25-1,1-.87,1.71-.8A2.55,2.55,0,0,1,315,67.55Z"/><path class="cls-9" d="M313.88,68.16c.06-.41.31-.55.7-.54A.86.86,0,0,1,313.88,68.16Z"/><path class="cls-14" d="M341.54,71.27l.33.34Z"/><path class="cls-4" d="M37,88.84c.17-1.18-.38-2.35-.1-3.54a15.3,15.3,0,0,1,4.83-8.15c5.46-4.64,14.52-3.72,18.88,2,.74,1,1.11,2.19,2.07,3v0A.78.78,0,0,0,63,83v0c.05.51-.24,1.13.49,1.4a12.15,12.15,0,0,1-.1,3.71c-.91,1.07-1,2.51-1.74,3.69a13.42,13.42,0,0,1-18.25,4.68,13,13,0,0,1-5.44-6.39c-.2-.49-.3-1-1-1.08A.94.94,0,0,1,37,88.84ZM42.9,86.3a7.31,7.31,0,1,0,7.27-7.4A7.29,7.29,0,0,0,42.9,86.3Z"/><path class="cls-4" d="M65.82,88.44c-.21-1.52-.84-3-.15-4.57.35-.14.43-.47.55-.78a13.39,13.39,0,0,1,10.37-8.78C83,73,90.26,77.66,91.55,84c.22.07.25.2.13.39l.39.82c.28,1.1-.36,2.12-.26,3.21a20.45,20.45,0,0,0-1.7,4.27c-.51,0-.7.4-1,.73-6,7.39-18.48,6.18-22.44-3.09C66.42,89.71,66.11,89.08,65.82,88.44Zm5.69-2.22a7.31,7.31,0,1,0,7.21-7.32A7.29,7.29,0,0,0,71.51,86.22Z"/><path class="cls-4" d="M232.44,89.54l-1.43.07a42.27,42.27,0,0,1,.58-9.33c.19-1-.05-1.42-1.09-1.26a15.68,15.68,0,0,1,0-3.75l1.54,0c.64.36,1.12.53,1.73-.25,2.44-3.1,6-3.69,9.6-3.9a52.56,52.56,0,0,1,9.55.17,8,8,0,0,1,5.34,2.67,1.9,1.9,0,0,0,1.55.82c4.29,0,8.57,0,12.85-.06l0,14.89H262.43a15.51,15.51,0,0,0-.92-9.35c-1.59-3.47-3.76-6.54-7.71-7.44a26.39,26.39,0,0,0-14.47.6,9.68,9.68,0,0,0-7,8.38A31.81,31.81,0,0,0,232.44,89.54Zm35-6.79v0h.71c.83,0,1.4-.38,1.4-1.25a1.19,1.19,0,0,0-1.27-1.25,9.92,9.92,0,0,0-2.11.07,1.1,1.1,0,0,0-.91,1.26,1.09,1.09,0,0,0,1.05,1.13A10.65,10.65,0,0,0,267.44,82.75Z"/><polygon class="cls-15" points="335.3 97.28 335.37 97.36 335.28 97.28 335.3 97.28"/><path class="cls-4" d="M260.34,89.26c-1.14,1-1.31,2.56-2.22,3.73a13.64,13.64,0,0,1-17.65,3.33,13,13,0,0,1-5.23-6.18c-.15-.35-.26-.73-.68-.87a10.3,10.3,0,0,1-.29-5.11c.55-.27.55-.86.72-1.33a13.28,13.28,0,0,1,21.72-4.91,14.37,14.37,0,0,1,4,7.66C261,86.85,260.4,88,260.34,89.26Zm-5.58-3.12a7.31,7.31,0,1,0-7.3,7.39A7.29,7.29,0,0,0,254.76,86.14Z"/><path class="cls-6" d="M260.34,89.26c.06-1.23.7-2.41.38-3.68a7.89,7.89,0,0,0-.18-2.27,13.36,13.36,0,0,0-26.27.85,10.3,10.3,0,0,0,.29,5.11c0,.09-.09.18-.14.27l-.28.1-1.7-.1a31.81,31.81,0,0,1-.08-7.8,9.68,9.68,0,0,1,7-8.38,26.39,26.39,0,0,1,14.47-.6c3.95.9,6.12,4,7.71,7.44a15.51,15.51,0,0,1,.92,9.35l-2,.07Z"/><path class="cls-5" d="M234.14,89.64l.28-.1a.4.4,0,0,1,.07.24Z"/><path class="cls-4" d="M297.58,89.57H273.3l0-14.89h24.22Zm-12.7-12.3c-.61,0-1.23,0-1.84,0-1.47-.07-1.71.86-1.72,2s.08,2.25,1.63,2.28c1.18,0,2.37,0,3.55,0s1.66-.56,1.68-1.73c.05-2.49,0-2.57-2.44-2.57Z"/><path class="cls-4" d="M9.78,71.71c3.55-.11,7.11-.26,10.66,0-.1,1.12-1.36,1.78-1.2,3a9.93,9.93,0,0,0-2.61,1.72,2.63,2.63,0,0,0-1.2.79l-.52.35a4.49,4.49,0,0,0-1.56,1,1.91,1.91,0,0,0-1,.72c-.56,1.31,0,2.7-.31,4H9.57c0-3.43,0-6.87,0-10.3C9.62,72.57,9.7,72.14,9.78,71.71Z"/><path class="cls-4" d="M19.24,74.66c-.16-1.22,1.1-1.88,1.2-3a26.87,26.87,0,0,1,5.6,0,5,5,0,0,0,1.74,3L23,74.8H20.38Zm4.37-1.08a.75.75,0,0,0,.77-.79c0-.47-.3-.65-.73-.65a.65.65,0,0,0-.7.7A.63.63,0,0,0,23.61,73.58Z"/><polygon class="cls-5" points="281.05 69.7 281.16 69.63 281.26 69.71 281.16 69.75 281.05 69.7"/><path class="cls-9" d="M301.94,37.07a1.79,1.79,0,0,1-.06,1.89A5.45,5.45,0,0,1,301.94,37.07Z"/><path class="cls-16" d="M240.62,68.51c-.66-.07-1.51-.05-1.48-.94s.89-1,1.62-1,1.47.11,1.4,1S241.29,68.47,240.62,68.51Z"/><path class="cls-16" d="M110,68.51c-.68,0-1.5-.06-1.47-1s.89-1,1.6-1,1.45.12,1.38,1S110.66,68.44,110,68.51Z"/><path class="cls-16" d="M284.19,68.48c-.68,0-1.49,0-1.51-.92s.76-1,1.46-1,1.58,0,1.57,1S284.84,68.43,284.19,68.48Z"/><path class="cls-16" d="M66.57,68.48c-.67,0-1.48,0-1.56-.86s.69-1,1.39-1,1.59,0,1.63,1S67.23,68.43,66.57,68.48Z"/><path class="cls-16" d="M197.17,68.49c-.76,0-1.55,0-1.54-.94s.78-1,1.45-1,1.57,0,1.52,1S197.74,68.45,197.17,68.49Z"/><path class="cls-16" d="M153.51,68.48c-.62,0-1.42,0-1.42-.92s.79-1,1.45-1,1.59.05,1.54,1S154.23,68.47,153.51,68.48Z"/><path class="cls-16" d="M23,68.48c-.66,0-1.47,0-1.52-.86s.72-1,1.4-1,1.59,0,1.6,1S23.69,68.46,23,68.48Z"/><path class="cls-4" d="M164.46,82.11c0-1.61,0-3.22,0-4.82a3.52,3.52,0,0,1,1.93,0c0,1.6,0,3.2,0,4.8Z"/><path class="cls-7" d="M214.6,88.7l-.74-.2C214.13,88.51,214.43,88.36,214.6,88.7Z"/><path class="cls-11" d="M214.1,83.79l-.28.36Z"/><path class="cls-5" d="M91.55,84C90.26,77.66,83,73,76.59,74.31a13.39,13.39,0,0,0-10.37,8.78c-.12.31-.2.64-.55.78a13.34,13.34,0,0,1,26-1.25C91.82,83.08,92.15,83.61,91.55,84Z"/><path class="cls-4" d="M62.7,82.15c-1-.82-1.33-2-2.07-3-4.36-5.71-13.42-6.63-18.88-2a15.3,15.3,0,0,0-4.83,8.15A13.2,13.2,0,0,1,47.58,73.06a13.42,13.42,0,0,1,14.86,7.71A3,3,0,0,1,62.7,82.15Z"/><path class="cls-4" d="M63.47,84.39c-.73-.27-.44-.89-.49-1.4C63.42,83.36,63.33,83.91,63.47,84.39Z"/><path class="cls-4" d="M63,83a.78.78,0,0,1-.3-.89C63.13,82.31,62.93,82.71,63,83Z"/><path class="cls-5" d="M92.07,85.24l-.39-.82C92.28,84.47,92,84.93,92.07,85.24Z"/><path class="cls-10" d="M331.33,28.39a3.26,3.26,0,0,1,2.72-.92c2.8,0,5.6.07,8.39,0a11.85,11.85,0,0,1,5.67,1,7.16,7.16,0,0,0-.19,1.11c0,3.89,0,7.79,0,11.68a1.44,1.44,0,0,0,.73,1.43c.75.4.46.64-.09.93a2.81,2.81,0,0,0-.59.6,2.19,2.19,0,0,1-1.16-.47,48.6,48.6,0,0,1-11.32-11.44C334.36,30.8,333.32,29.07,331.33,28.39Z"/><path class="cls-17" d="M331.33,28.39c2,.68,3,2.41,4.15,4A48.6,48.6,0,0,0,346.8,43.78a2.19,2.19,0,0,0,1.16.47c0,.72-.11,1.44-.17,2.17A43.15,43.15,0,0,1,334.42,44c-3.3-1.26-4-2.44-3.95-5.91,0-2.52,0-5,0-7.56A2.55,2.55,0,0,1,331.33,28.39Z"/><path class="cls-4" d="M347.79,46.42c.06-.73.12-1.45.17-2.17a2.81,2.81,0,0,1,.59-.6c.55-.29.84-.53.09-.93a1.44,1.44,0,0,1-.73-1.43c0-3.89,0-7.79,0-11.68a7.16,7.16,0,0,1,.19-1.11c1.25-.31,1-1.5,1.36-2.33h.69c.32.89.2,2,1.58,2.26.53.1.51.93.6,1.48a3.47,3.47,0,0,0,0,1.89c0,.29,0,.59,0,.89a.48.48,0,0,0,0,.62,30.26,30.26,0,0,0-.1,5.55c-.34,1.55.94,3.78-2.05,4.39,1.76,0,2.07,1,2.07,2.26,0,.73.66.67,1.13.8.29.16.59.3.88.47a.57.57,0,0,1,.33.7.53.53,0,0,1-.66.39c-1.06-.42-1.93.06-2.91.36a3.21,3.21,0,0,1-3-.43C348,47.35,347.9,46.88,347.79,46.42Z"/><path class="cls-12" d="M347.79,46.42c.11.46.21.93.32,1.39a50.93,50.93,0,0,1-9.84-1.3,15.26,15.26,0,0,1-6.12-2.21A4.36,4.36,0,0,1,330,40.4c.07-2.76,0-5.52,0-8.28,0-.55-.09-1.15.4-1.6,0,2.52,0,5,0,7.56,0,3.47.65,4.65,3.95,5.91A43.15,43.15,0,0,0,347.79,46.42Z"/><path class="cls-4" d="M331,58.71c-.66,0-1.33,0-2,0s-1.15-.13-1.15-1,.39-1.05,1.13-1c1.42,0,2.84,0,4.26,0,.82,0,1.05.34,1.06,1.1s-.35,1-1,.94S331.78,58.71,331,58.71Z"/><path class="cls-10" d="M353.46,46.32c-.47-.13-1.13-.07-1.13-.8,0-1.28-.31-2.27-2.07-2.26,3-.61,1.71-2.84,2.05-4.39.48,2.08,1.22,4.14.46,6.31C352.55,45.81,352.64,46.3,353.46,46.32Z"/><path class="cls-2" d="M338.47,61.42c.42,0,.74.23.78.67a.71.71,0,0,1-.7.86c-.49,0-.66-.27-.65-.71S338,61.5,338.47,61.42Z"/><path class="cls-8" d="M352.36,31.81a3.47,3.47,0,0,1,0-1.89l.15.54c0,.26,0,.53,0,.8Z"/><path class="cls-8" d="M352.41,33.32a.48.48,0,0,1,0-.62C352.71,32.89,352.72,33.1,352.41,33.32Z"/><path class="cls-14" d="M352.5,31.26c0-.27,0-.54,0-.8A.5.5,0,0,1,352.5,31.26Z"/><polygon class="cls-8" points="351.28 27.38 351.38 27.44 351.27 27.48 351.28 27.38"/><path class="cls-2" d="M318.73,36.86c0,2,0,3.9,0,5.85,0,1.42-.57,2-2,2-1.72,0-3.43,0-5.14,0-.64,0-1.11-.13-1.28-.83a74.45,74.45,0,0,1-2.42-12.54c-.15-1.95.35-2.35,2.28-2.35,2.19,0,4.37,0,6.56,0,1.42,0,2,.57,2,2C318.75,33,318.73,34.92,318.73,36.86Z"/><path class="cls-2" d="M323,38.31c0,3.58,0,7.15,0,10.72,0,1-.29,1.44-1.38,1.42-2.76-.06-5.52-.05-8.28,0A1.53,1.53,0,0,1,311.59,49c-.09-.47-.21-.93-.33-1.39-.54-2.07-.54-2.07,1.67-2.07,1.29,0,2.57,0,3.86,0a2.23,2.23,0,0,0,2.53-2.26c.56-4.08.23-8.18.21-12.26,0-2-1.08-2.87-3.13-2.9s-4.29,0-6.43,0a10.85,10.85,0,0,0-1.26.16c-.45.05-.88.84-1.22.37a2.64,2.64,0,0,1-.4-2c.16-.71.84-.5,1.33-.5,4.38,0,8.76,0,13.14,0,1.12,0,1.49.34,1.48,1.47C323,31.17,323,34.74,323,38.31Z"/><path class="cls-2" d="M305.29,10.71a4.67,4.67,0,0,0,1.7-.64c.26-.16.59-.24.73.08s-.14.56-.44.54c-1.11-.11-.55,1.35-1.41,1.46A3.3,3.3,0,0,1,305.29,10.71Z"/><path class="cls-4" d="M347.1,83.28c-.28-1.62-.55-3.23-.82-4.84h10a19.52,19.52,0,0,1,0,4.83Z"/><path class="cls-4" d="M356.3,85c.37,3.51.37,3.51-3.1,3.52-1.52,0-3.05,0-4.57,0-.48,0-1.08.23-1.38-.43v-.76c0-.2,0-.41,0-.61a.31.31,0,0,0,0-.25l-.06-1.21a3,3,0,0,1,1.65-.24Z"/><path class="cls-5" d="M356.3,85h-7.49a3,3,0,0,0-1.65.24,5.39,5.39,0,0,1-.06-2h9.16A3,3,0,0,1,356.3,85Z"/><path class="cls-6" d="M356.29,78.44h-10c-.42-.84-.36-1.29.78-1.27,2.75,0,5.51,0,8.26,0C356.36,77.13,356.59,77.54,356.29,78.44Z"/><path class="cls-13" d="M359.18,83.3l-.25-.32a2.09,2.09,0,0,1,.29-.16s.18.12.18.14A2.31,2.31,0,0,1,359.18,83.3Z"/><path class="cls-13" d="M358.46,52l.11.08-.15.17-.11-.08Z"/><path class="cls-13" d="M359.54,80.82l-.1.19s-.08-.06-.07-.09a1.76,1.76,0,0,1,.09-.2Z"/><path class="cls-5" d="M347.25,87.31v.76A.53.53,0,0,1,347.25,87.31Z"/><path class="cls-5" d="M347.22,86.45a.31.31,0,0,1,0,.25l-.07-.18S347.2,86.47,347.22,86.45Z"/><path class="cls-16" d="M302.86,80.44c.7,0,1.34-.32,1.83.26a1.2,1.2,0,0,1,0,1.67c-.5.59-3,.65-3.61.09a1.07,1.07,0,0,1-.18-1.51C301.44,80.12,302.26,80.49,302.86,80.44Z"/><path class="cls-12" d="M321.07,89.54c-.32-.59-.2-1.39-.87-1.81.26-.2.18-.47.14-.72l0-2,.24-1.1.49-1.09L323,80.45A12.54,12.54,0,0,1,326.16,79l1.13-.16L329,79c4.43,1.45,6.64,4.81,5.72,8.82a6.9,6.9,0,0,1-5.51,5.53,7,7,0,0,1-7.46-2.71C321.52,90.27,321.31,89.89,321.07,89.54Z"/><path class="cls-4" d="M326.16,79A12.54,12.54,0,0,0,323,80.45a2.88,2.88,0,0,0-.35-1.92,1.48,1.48,0,0,1-.09-1.37c.22-.51.44-1.22,1.12-1.08s.67.76.28,1.32a.46.46,0,0,0,.09.64.66.66,0,0,0,.79,0,7.74,7.74,0,0,0,2.28-2.28c.24-.34.51-.83,1-.54s.34.79.1,1.15c-.84,1.23.8,1.66.8,2.61l-1.75-.12c-.19-.4-.51-.8-1-.71S326.14,78.69,326.16,79Z"/><path class="cls-4" d="M318.65,86.69a1.22,1.22,0,0,1-1.18,1c-.72,0-1.1-.47-1.06-1.21a.91.91,0,0,1,1-1C318.17,85.54,318.5,86,318.65,86.69Z"/><path class="cls-4" d="M320.61,83.88l-.24,1.1a6.09,6.09,0,0,1-.85,0c-.58-.06-.88-.41-.76-1s.59-.52,1-.4C320.07,83.71,320.34,83.8,320.61,83.88Z"/><path class="cls-4" d="M319.34,88.18c0,.33-.15.63-.53.7a.19.19,0,0,1-.24-.24c.08-.38.38-.47.7-.52Z"/><path class="cls-4" d="M315.56,83.84a.63.63,0,0,1,.31-.59c.06,0,.22,0,.22.09.07.37-.18.49-.48.55Z"/><path class="cls-4" d="M320.34,87c0,.25.12.52-.14.72C319.83,87.41,320,87.18,320.34,87Z"/><path class="cls-4" d="M315.66,82.23l-.18.06.06-.18Z"/><path class="cls-4" d="M319.27,88.12l.1-.1.07.07-.1.09Z"/><path class="cls-12" d="M42.9,86.3a7.31,7.31,0,1,1,14.62,0,7.31,7.31,0,0,1-14.62,0Z"/><path class="cls-12" d="M71.51,86.22a7.31,7.31,0,1,1,7.38,7.31A7.26,7.26,0,0,1,71.51,86.22Z"/><path class="cls-5" d="M230.5,79c1-.16,1.28.24,1.09,1.26a42.27,42.27,0,0,0-.58,9.33.69.69,0,0,1-.94.6c-.57-.14-.43-.66-.44-1.06,0-3.14.31-6.24.55-9.35C230.29,79.54,230.4,79.28,230.5,79Z"/><path class="cls-8" d="M230.5,79c-.1.26-.21.52-.32.78-1.4.25-1.88-.41-1.77-1.74.06-.7,0-1.41,0-2.12,0-.5-.17-1.13.57-1.25s1.26-.25,1.53.58A15.68,15.68,0,0,0,230.5,79Z"/><path class="cls-16" d="M267.44,82.75a10.65,10.65,0,0,1-1.13,0,1.09,1.09,0,0,1-1.05-1.13,1.1,1.1,0,0,1,.91-1.26,9.92,9.92,0,0,1,2.11-.07,1.19,1.19,0,0,1,1.27,1.25c0,.87-.57,1.24-1.4,1.25h-.71Z"/><path class="cls-12" d="M254.76,86.14a7.31,7.31,0,1,1-7.3-7.25A7.3,7.3,0,0,1,254.76,86.14Z"/><path class="cls-4" d="M234.27,84.16a13.36,13.36,0,0,1,26.27-.85,7.89,7.89,0,0,1,.18,2.27,14.37,14.37,0,0,0-4-7.66A13.28,13.28,0,0,0,235,82.83C234.82,83.3,234.82,83.89,234.27,84.16Z"/><path class="cls-5" d="M284.88,77.27h.86c2.45,0,2.49.08,2.44,2.57,0,1.17-.46,1.77-1.68,1.73s-2.37,0-3.55,0c-1.55,0-1.64-1.11-1.63-2.28s.25-2.09,1.72-2C283.65,77.3,284.27,77.27,284.88,77.27Z"/><path class="cls-4" d="M23.61,73.58a.63.63,0,0,1-.66-.74.65.65,0,0,1,.7-.7c.43,0,.74.18.73.65A.75.75,0,0,1,23.61,73.58Z"/><path class="cls-4" d="M326.16,79c0-.31-.19-.79.18-.87s.76.31,1,.71Z"/></g></g></g></svg>