<svg xmlns="http://www.w3.org/2000/svg" viewBox="0 0 224.62 109.79"><defs><style>.cls-1{isolation:isolate;}.cls-2{fill:#09a660;}.cls-3{fill:#009c53;}.cls-4{fill:#919395;}.cls-5{fill:#8a5f3d;}.cls-6{fill:#7c5031;}.cls-7{fill:#307439;}.cls-8{fill:#2c6934;}.cls-9{fill:#818183;}.cls-10{fill:#e5e6e6;}.cls-10,.cls-25{mix-blend-mode:multiply;}.cls-11{fill:#171925;}.cls-12{fill:#869303;}.cls-13{fill:#242635;}.cls-14{fill:#6a686a;}.cls-15{fill:#888587;}.cls-16{fill:#434243;}.cls-17{fill:#fff;}.cls-18{fill:#d2d2d2;}.cls-19{fill:#9e9e9d;}.cls-20{fill:#a2c629;}.cls-21{fill:#b4d333;}.cls-22{fill:#879e00;}.cls-23{fill:#6e6f71;}.cls-24,.cls-25{fill:#dfdfdf;}</style></defs><g class="cls-1"><g id="katman_2" data-name="katman 2"><g id="katman_1-2" data-name="katman 1"><path class="cls-2" d="M0,54.94s.7-2.88,2.35-3.19a3.44,3.44,0,0,1,2.8.77S7.22,46.7,12,46.59s4.84,7,4.84,7a4.52,4.52,0,0,1,4.95-2.16c3.3.82,2.27,4.22,2.27,4.22a2,2,0,0,1,2.47,0A4,4,0,0,1,28,58.55s3.92-2.37,6.08,3.92L.17,60.41Z"/><path class="cls-3" d="M0,60s.59-2.47,2-2.74a3,3,0,0,1,2.4.66s1.76-5,5.81-5.06,4.15,6,4.15,6A3.87,3.87,0,0,1,18.6,57c2.82.7,1.94,3.61,1.94,3.61a1.73,1.73,0,0,1,2.11,0A3.42,3.42,0,0,1,24,63.07s3.35-2,5.2,3.35l-29-1.76Z"/><path class="cls-2" d="M224.62,109.79H.17V60.41C9.17,61.09,142.15,65.55,224.62,109.79Z"/><path class="cls-4" d="M106.64,109.79H75.53C42.51,91.57.31,82.47.31,82.47l-.14-.21V71.66l105.49,32A28,28,0,0,1,106.64,109.79Z"/><path class="cls-5" d="M136.41,81.63H126.23s4.18-4.61,4-20.28l1.07,1,.6-.56.47-.44C132.22,77,136.41,81.63,136.41,81.63Z"/><path class="cls-6" d="M131,65.83s.31,10.34-2.37,15.8h-2.43s4.18-4.61,4-20.28l1.07,1,.6-.56L132,65Z"/><path class="cls-7" d="M141.4,61.63c1.76,1.68,5.76,2.8,5.76,2.8-4.72,1.36-11.2-.72-11.2-.72.72,1.28,3.36,2.88,3.36,2.88-2.88.56-8-1.44-8-1.44h0c-.49.19-5.23,2-8,1.43,0,0,2.64-1.6,3.36-2.88,0,0-6.48,2.08-11.2.72,0,0,4-1.12,5.76-2.8,0,0-5.76,1.2-10.08-1.6,0,0,5.63.16,9.07-3.36a9.55,9.55,0,0,1-5.15.16s4.88-1.72,6-3.43c0,0-5.79,1.59-9,.07,0,0,8.32-2.4,10.16-6.08a22,22,0,0,1-8.16.48s6.13-2.59,8.53-6.35a11.85,11.85,0,0,1-4.61.67s6-4.54,7.22-7.18a16.33,16.33,0,0,1-4.9.75s5.36-5.12,6.08-7.68a29.29,29.29,0,0,1-4.24.59s4.61-2.51,4.93-4.91a11.56,11.56,0,0,1-3.65.75,15,15,0,0,0,4.66-5.6l-2.77-.11s3-3.09,3.73-5l-1.86.4S130.72,7.83,131.28,4c0-.1,0-.21,0-.31.4,3.76,4.16,10.48,4.16,10.48l-1.87-.4c.72,1.92,3.73,5,3.73,5l-2.77.11a15,15,0,0,0,4.67,5.6,11.61,11.61,0,0,1-3.66-.75c.32,2.4,4.94,4.91,4.94,4.91a29.29,29.29,0,0,1-4.24-.59c.72,2.56,6.08,7.68,6.08,7.68a16.42,16.42,0,0,1-4.91-.75c1.2,2.64,7.23,7.18,7.23,7.18a11.8,11.8,0,0,1-4.61-.67c2.4,3.76,8.53,6.35,8.53,6.35a22,22,0,0,1-8.16-.48c1.84,3.68,10.16,6.08,10.16,6.08-3.2,1.52-9-.07-9-.07,1.08,1.71,6,3.43,6,3.43a9.58,9.58,0,0,1-5.16-.16c3.44,3.52,9.08,3.36,9.08,3.36C147.16,62.83,141.4,61.63,141.4,61.63Z"/><path class="cls-8" d="M141.4,61.63c1.76,1.68,5.76,2.8,5.76,2.8-4.72,1.36-11.2-.72-11.2-.72.72,1.28,3.36,2.88,3.36,2.88-2.88.56-8-1.44-8-1.44h0V4c0-.1,0-.21,0-.31.4,3.76,4.16,10.48,4.16,10.48l-1.87-.4c.72,1.92,3.73,5,3.73,5l-2.77.11a15,15,0,0,0,4.67,5.6,11.61,11.61,0,0,1-3.66-.75c.32,2.4,4.94,4.91,4.94,4.91a29.29,29.29,0,0,1-4.24-.59c.72,2.56,6.08,7.68,6.08,7.68a16.42,16.42,0,0,1-4.91-.75c1.2,2.64,7.23,7.18,7.23,7.18a11.8,11.8,0,0,1-4.61-.67c2.4,3.76,8.53,6.35,8.53,6.35a22,22,0,0,1-8.16-.48c1.84,3.68,10.16,6.08,10.16,6.08-3.2,1.52-9-.07-9-.07,1.08,1.71,6,3.43,6,3.43a9.58,9.58,0,0,1-5.16-.16c3.44,3.52,9.08,3.36,9.08,3.36C147.16,62.83,141.4,61.63,141.4,61.63Z"/><path class="cls-5" d="M95.62,72.15H86.2s3.87-4.27,3.72-18.78l1,.92.56-.51.43-.41C91.75,67.88,95.62,72.15,95.62,72.15Z"/><path class="cls-6" d="M90.64,57.52s.29,9.57-2.19,14.63H86.2s3.87-4.27,3.72-18.78l1,.92.56-.51.08,2.93Z"/><path class="cls-7" d="M100.24,53.63c1.63,1.55,5.34,2.59,5.34,2.59-4.37,1.26-10.37-.67-10.37-.67.66,1.19,3.11,2.67,3.11,2.67-2.67.52-7.41-1.34-7.41-1.34l0,0c-.45.17-4.84,1.81-7.37,1.32,0,0,2.45-1.48,3.11-2.67,0,0-6,1.93-10.37.67,0,0,3.71-1,5.34-2.59,0,0-5.34,1.11-9.34-1.49,0,0,5.22.15,8.41-3.1a9,9,0,0,1-4.78.14s4.52-1.59,5.52-3.17c0,0-5.37,1.47-8.33.06,0,0,7.7-2.22,9.41-5.63a20.5,20.5,0,0,1-7.56.45s5.68-2.4,7.9-5.88a11,11,0,0,1-4.27.62s5.58-4.2,6.69-6.65a15.15,15.15,0,0,1-4.54.69s5-4.74,5.63-7.11a26.31,26.31,0,0,1-3.93.55s4.27-2.32,4.57-4.55a10.66,10.66,0,0,1-3.38.7,13.9,13.9,0,0,0,4.32-5.19L85.33,14s2.79-2.86,3.46-4.64l-1.73.37S90.35,3.82,90.87.29c0-.1,0-.2,0-.29.37,3.48,3.85,9.7,3.85,9.7L93,9.33C93.7,11.11,96.49,14,96.49,14l-2.57.1a13.9,13.9,0,0,0,4.32,5.19,10.66,10.66,0,0,1-3.38-.7c.3,2.23,4.57,4.55,4.57,4.55a26.31,26.31,0,0,1-3.93-.55c.67,2.37,5.63,7.11,5.63,7.11A15.15,15.15,0,0,1,96.59,29c1.11,2.45,6.69,6.65,6.69,6.65A11,11,0,0,1,99,35c2.22,3.48,7.9,5.88,7.9,5.88a20.5,20.5,0,0,1-7.56-.45c1.71,3.41,9.41,5.63,9.41,5.63-3,1.41-8.33-.06-8.33-.06,1,1.58,5.52,3.17,5.52,3.17a9,9,0,0,1-4.78-.14c3.19,3.25,8.41,3.1,8.41,3.1C105.58,54.74,100.24,53.63,100.24,53.63Z"/><path class="cls-8" d="M100.24,53.63c1.63,1.55,5.34,2.59,5.34,2.59-4.37,1.26-10.37-.67-10.37-.67.66,1.19,3.11,2.67,3.11,2.67-2.67.52-7.41-1.34-7.41-1.34l0,0V.29c0-.1,0-.2,0-.29.37,3.48,3.85,9.7,3.85,9.7L93,9.33C93.7,11.11,96.49,14,96.49,14l-2.57.1a13.9,13.9,0,0,0,4.32,5.19,10.66,10.66,0,0,1-3.38-.7c.3,2.23,4.57,4.55,4.57,4.55a26.31,26.31,0,0,1-3.93-.55c.67,2.37,5.63,7.11,5.63,7.11A15.15,15.15,0,0,1,96.59,29c1.11,2.45,6.69,6.65,6.69,6.65A11,11,0,0,1,99,35c2.22,3.48,7.9,5.88,7.9,5.88a20.5,20.5,0,0,1-7.56-.45c1.71,3.41,9.41,5.63,9.41,5.63-3,1.41-8.33-.06-8.33-.06,1,1.58,5.52,3.17,5.52,3.17a9,9,0,0,1-4.78-.14c3.19,3.25,8.41,3.1,8.41,3.1C105.58,54.74,100.24,53.63,100.24,53.63Z"/><path class="cls-5" d="M42.66,63.9H34.92S38.1,60.39,38,48.48l.81.76.46-.42.36-.34C39.48,60.39,42.66,63.9,42.66,63.9Z"/><path class="cls-6" d="M38.57,51.89s.24,7.86-1.8,12H34.92S38.1,60.39,38,48.48l.81.76.46-.42.07,2.41Z"/><path class="cls-7" d="M46.45,48.69a13.08,13.08,0,0,0,4.38,2.13c-3.59,1-8.51-.55-8.51-.55a9.32,9.32,0,0,0,2.55,2.19c-2.19.43-6.08-1.09-6.08-1.09h0c-.37.14-4,1.49-6,1.08a9.17,9.17,0,0,0,2.55-2.19s-4.92,1.58-8.51.55a13.08,13.08,0,0,0,4.38-2.13s-4.38.91-7.67-1.22c0,0,4.29.13,6.9-2.55a7.22,7.22,0,0,1-3.92.12s3.71-1.31,4.53-2.6c0,0-4.41,1.2-6.84.05,0,0,6.33-1.83,7.73-4.63a16.55,16.55,0,0,1-6.21.37s4.66-2,6.49-4.83a8.82,8.82,0,0,1-3.51.51s4.58-3.45,5.5-5.45A12.65,12.65,0,0,1,30.4,29s4.07-3.89,4.62-5.84a22,22,0,0,1-3.22.45s3.5-1.91,3.75-3.73a8.77,8.77,0,0,1-2.78.57,11.42,11.42,0,0,0,3.55-4.26l-2.11-.08a16.55,16.55,0,0,0,2.84-3.81l-1.42.3s2.7-4.83,3.13-7.73l0-.24c.3,2.86,3.16,8,3.16,8l-1.42-.3a16.55,16.55,0,0,0,2.84,3.81l-2.11.08a11.42,11.42,0,0,0,3.55,4.26A8.77,8.77,0,0,1,42,19.9c.25,1.82,3.76,3.73,3.76,3.73a22.2,22.2,0,0,1-3.23-.45c.55,1.95,4.62,5.84,4.62,5.84a12.65,12.65,0,0,1-3.73-.56c.92,2,5.5,5.45,5.5,5.45a8.82,8.82,0,0,1-3.51-.51c1.83,2.86,6.49,4.83,6.49,4.83a16.55,16.55,0,0,1-6.21-.37c1.4,2.8,7.73,4.63,7.73,4.63-2.43,1.15-6.84-.05-6.84-.05.82,1.29,4.53,2.6,4.53,2.6a7.22,7.22,0,0,1-3.92-.12c2.61,2.68,6.9,2.55,6.9,2.55C50.83,49.6,46.45,48.69,46.45,48.69Z"/><path class="cls-8" d="M46.45,48.69a13.08,13.08,0,0,0,4.38,2.13c-3.59,1-8.51-.55-8.51-.55a9.32,9.32,0,0,0,2.55,2.19c-2.19.43-6.08-1.09-6.08-1.09h0V4.89l0-.24c.3,2.86,3.16,8,3.16,8l-1.42-.3a16.55,16.55,0,0,0,2.84,3.81l-2.11.08a11.42,11.42,0,0,0,3.55,4.26A8.77,8.77,0,0,1,42,19.9c.25,1.82,3.76,3.73,3.76,3.73a22.2,22.2,0,0,1-3.23-.45c.55,1.95,4.62,5.84,4.62,5.84a12.65,12.65,0,0,1-3.73-.56c.92,2,5.5,5.45,5.5,5.45a8.82,8.82,0,0,1-3.51-.51c1.83,2.86,6.49,4.83,6.49,4.83a16.55,16.55,0,0,1-6.21-.37c1.4,2.8,7.73,4.63,7.73,4.63-2.43,1.15-6.84-.05-6.84-.05.82,1.29,4.53,2.6,4.53,2.6a7.22,7.22,0,0,1-3.92-.12c2.61,2.68,6.9,2.55,6.9,2.55C50.83,49.6,46.45,48.69,46.45,48.69Z"/><path class="cls-9" d="M224.62,109.79H88.18C45.05,88.44.17,80.22.17,80.22V60.41c1.81.14,8.64.43,19.08,1.17l1.66.12C63.23,64.77,159.62,74.92,224.62,109.79Z"/><path class="cls-4" d="M224.62,109.79H212.54C206,105.68,147.42,71.16,20.91,61.7,63.23,64.77,159.62,74.92,224.62,109.79Z"/><path class="cls-10" d="M22.37,83s78.55,25.46,83.5,24.23c0,0,62.26-5.57,64.73-10.93s-81.23-21-81.23-21S38.86,79.17,22.37,83Z"/><rect class="cls-11" x="23.42" y="67.62" width="36.59" height="2.18" transform="translate(85.06 136.4) rotate(178.63)"/><polygon class="cls-11" points="74.1 78.42 63.74 77.22 61.67 72.04 53.5 70.49 51.26 68.15 53.14 62.31 73.71 62.15 74.1 78.42"/><polygon class="cls-11" points="59.29 67.76 48.17 65.8 46.32 68.99 33.61 66.74 30.83 64.09 30.68 58.04 59.67 61.31 59.29 67.76"/><polygon class="cls-11" points="25.69 55.44 20.56 65.65 29.14 65.87 34.35 55.68 25.69 55.44"/><path class="cls-12" d="M92.22,85.76,103,85.5,109.64,73s-9.9-2.9-13.18-2.45C91.88,71.21,92.22,85.76,92.22,85.76Z"/><path class="cls-11" d="M100.42,88.43c.18,7.7,4.52,13.84,9.68,13.72s9.21-6.47,9-14.17-4.52-13.84-9.68-13.72S100.23,80.73,100.42,88.43Z"/><polygon class="cls-11" points="110.33 102.14 102.37 102.33 101.24 74.47 109.44 74.26 110.33 102.14"/><ellipse class="cls-13" cx="101.93" cy="88.39" rx="9.35" ry="13.95" transform="translate(-2.07 2.45) rotate(-1.36)"/><path class="cls-11" d="M94.8,88.56c.14,5.87,3.45,10.56,7.39,10.46s7-4.93,6.87-10.8-3.44-10.55-7.38-10.46S94.66,82.69,94.8,88.56Z"/><path class="cls-14" d="M95.52,88.55a13.24,13.24,0,0,0,1.08,5,9.18,9.18,0,0,0,1.68,2.6h0A5.19,5.19,0,0,0,102.16,98a5,5,0,0,0,3.44-1.61,8.79,8.79,0,0,0,1.75-2.66,13,13,0,0,0,1-5.44c-.12-5.28-3.1-9.49-6.64-9.41a4.82,4.82,0,0,0-2.71,1l-.37.3a6,6,0,0,0-.81.85c-.17.21-.34.43-.5.67A12.24,12.24,0,0,0,95.52,88.55Z"/><path class="cls-15" d="M97.81,81c5.38,7.93,7.22,13.24,7.79,15.38a8.79,8.79,0,0,0,1.75-2.66c-1.65-2-7.64-12.6-8.36-13.87l-.37.3A6,6,0,0,0,97.81,81Z"/><path class="cls-16" d="M96.88,88.51c.1,4.16,2.44,7.48,5.23,7.41s5-3.49,4.87-7.65-2.44-7.47-5.23-7.41S96.79,84.35,96.88,88.51Z"/><ellipse class="cls-13" cx="102.3" cy="88.38" rx="4.44" ry="6.62" transform="translate(-2.07 2.46) rotate(-1.36)"/><path class="cls-14" d="M98.69,88.47c.08,3.17,1.87,5.7,4,5.65,1.38,0,2.57-1.15,3.22-2.81h0a7.63,7.63,0,0,0,.36-1.31,8.34,8.34,0,0,0,.14-1.52v-.19a8.83,8.83,0,0,0-.15-1.39h0c-.48-2.5-2-4.31-3.85-4.27a3.58,3.58,0,0,0-2.93,2.17A7.68,7.68,0,0,0,98.69,88.47Z"/><path class="cls-15" d="M98.69,88.47c1.25-.36,3.62-.3,7.22,2.84h0a7.92,7.92,0,0,0,.5-2.83,9.53,9.53,0,0,1-6.93-3.68A7.68,7.68,0,0,0,98.69,88.47Z"/><path class="cls-16" d="M99.13,88.46c.06,2.43,1.43,4.37,3.06,4.33s2.91-2,2.85-4.47S103.61,84,102,84,99.08,86,99.13,88.46Z"/><path class="cls-15" d="M100.22,88.43c0,1.92,1.13,3.45,2.41,3.42s2.3-1.61,2.25-3.53-1.13-3.45-2.41-3.42S100.17,86.51,100.22,88.43Z"/><path class="cls-11" d="M139.81,83.17c.15,6.43,3.77,11.55,8.08,11.45s7.67-5.39,7.52-11.82-3.77-11.55-8.08-11.44S139.65,76.75,139.81,83.17Z"/><polygon class="cls-11" points="148.08 94.61 141.44 94.77 140.23 71.54 147.33 71.36 148.08 94.61"/><path class="cls-13" d="M133.27,83.33c.15,6.42,3.77,11.55,8.08,11.45S149,89.38,148.87,83s-3.77-11.55-8.08-11.45S133.12,76.91,133.27,83.33Z"/><ellipse class="cls-11" cx="141.07" cy="83.14" rx="5.95" ry="8.87" transform="translate(-1.94 3.38) rotate(-1.36)"/><path class="cls-14" d="M135.72,83.27a11.1,11.1,0,0,0,.9,4.17,7.88,7.88,0,0,0,1.4,2.17h0a4.34,4.34,0,0,0,3.24,1.51,4.17,4.17,0,0,0,2.87-1.35,7.26,7.26,0,0,0,1.46-2.22,10.84,10.84,0,0,0,.83-4.53c-.11-4.41-2.59-7.92-5.54-7.85a3.88,3.88,0,0,0-2.26.82l-.32.25a6.39,6.39,0,0,0-.67.7c-.14.18-.28.36-.41.56A10.22,10.22,0,0,0,135.72,83.27Z"/><path class="cls-15" d="M137.63,76.94c4.49,6.62,6,11,6.5,12.83a7.26,7.26,0,0,0,1.46-2.22c-1.38-1.67-6.38-10.51-7-11.56l-.32.25A6.39,6.39,0,0,0,137.63,76.94Z"/><ellipse class="cls-16" cx="141.07" cy="83.14" rx="4.21" ry="6.28" transform="translate(-1.94 3.38) rotate(-1.36)"/><path class="cls-13" d="M137.68,83.23c.07,3,1.79,5.48,3.83,5.43s3.65-2.56,3.57-5.61-1.79-5.48-3.83-5.44S137.6,80.18,137.68,83.23Z"/><path class="cls-14" d="M138.37,83.21c.06,2.65,1.55,4.76,3.33,4.72a3.23,3.23,0,0,0,2.69-2.35h0a6.23,6.23,0,0,0,.3-1.09,6.63,6.63,0,0,0,.11-1.28.75.75,0,0,0,0-.15,7.23,7.23,0,0,0-.12-1.16h0c-.4-2.08-1.7-3.6-3.21-3.56A2.94,2.94,0,0,0,139,80.15,6.28,6.28,0,0,0,138.37,83.21Z"/><path class="cls-15" d="M138.37,83.21c1-.3,3-.25,6,2.37h0a6.5,6.5,0,0,0,.41-2.37A7.86,7.86,0,0,1,139,80.15,6.28,6.28,0,0,0,138.37,83.21Z"/><path class="cls-16" d="M138.74,83.2c0,2,1.19,3.65,2.55,3.61s2.42-1.7,2.37-3.73-1.19-3.64-2.55-3.61S138.69,81.17,138.74,83.2Z"/><path class="cls-14" d="M139.64,83.18c0,1.6.94,2.88,2,2.85s1.91-1.34,1.87-2.94-.94-2.88-2-2.86S139.6,81.58,139.64,83.18Z"/><path class="cls-11" d="M35.35,75.05c.15,6.32,3.71,11.37,7.95,11.27S50.86,81,50.71,74.68s-3.71-11.37-8-11.27S35.2,68.72,35.35,75.05Z"/><polygon class="cls-11" points="43.49 86.31 36.95 86.47 35.77 63.59 42.76 63.41 43.49 86.31"/><path class="cls-13" d="M28.91,75.2c.15,6.33,3.71,11.37,8,11.27s7.56-5.31,7.41-11.64-3.72-11.37-8-11.27S28.76,68.88,28.91,75.2Z"/><path class="cls-11" d="M30.74,75.16c.11,4.82,2.83,8.67,6.06,8.59s5.77-4,5.65-8.87-2.83-8.67-6.06-8.59S30.62,70.34,30.74,75.16Z"/><path class="cls-14" d="M31.33,75.14a11,11,0,0,0,.88,4.11,7.6,7.6,0,0,0,1.38,2.13h0a4.29,4.29,0,0,0,3.19,1.48,4.14,4.14,0,0,0,2.83-1.33A7,7,0,0,0,41,79.36a10.74,10.74,0,0,0,.82-4.47c-.1-4.33-2.55-7.79-5.45-7.72a3.84,3.84,0,0,0-2.23.8l-.31.25a4.88,4.88,0,0,0-.67.69c-.14.17-.27.36-.4.55A10,10,0,0,0,31.33,75.14Z"/><path class="cls-15" d="M33.2,68.91c4.43,6.52,5.94,10.88,6.41,12.63A7,7,0,0,0,41,79.36C39.69,77.72,34.77,69,34.18,68l-.31.25A4.88,4.88,0,0,0,33.2,68.91Z"/><path class="cls-16" d="M32.45,75.12c.08,3.41,2,6.14,4.29,6.08s4.08-2.87,4-6.28-2-6.14-4.29-6.09S32.37,71.7,32.45,75.12Z"/><ellipse class="cls-13" cx="36.9" cy="75.01" rx="3.65" ry="5.44" transform="translate(-1.77 0.9) rotate(-1.36)"/><path class="cls-14" d="M33.93,75.08c.07,2.61,1.53,4.69,3.28,4.65a3.18,3.18,0,0,0,2.65-2.31h0a5.79,5.79,0,0,0,.3-1.07,7.27,7.27,0,0,0,.11-1.25v-.16a6.86,6.86,0,0,0-.12-1.13h0c-.39-2.05-1.68-3.54-3.16-3.51a3,3,0,0,0-2.41,1.79A6.31,6.31,0,0,0,33.93,75.08Z"/><path class="cls-15" d="M33.93,75.08c1-.3,3-.24,5.93,2.34h0a6.44,6.44,0,0,0,.41-2.32,7.8,7.8,0,0,1-5.69-3A6.31,6.31,0,0,0,33.93,75.08Z"/><path class="cls-16" d="M34.29,75.07c.05,2,1.18,3.59,2.52,3.56S39.19,77,39.15,75,38,71.37,36.63,71.4,34.25,73.08,34.29,75.07Z"/><path class="cls-15" d="M35.19,75.05c0,1.58.92,2.84,2,2.81S39.05,76.54,39,75s-.92-2.83-2-2.81S35.15,73.48,35.19,75.05Z"/><rect class="cls-16" x="60.29" y="68.89" width="12.09" height="1.73" transform="translate(-23.48 104.41) rotate(-67.54)"/><rect class="cls-16" x="45.2" y="66.69" width="12.09" height="1.73" transform="translate(-30.77 89.11) rotate(-67.54)"/><polygon class="cls-16" points="44.29 72.46 46.67 72.07 46.74 75.04 44.36 75.44 44.29 72.46"/><polygon class="cls-16" points="68.84 75.83 46.67 72.07 46.74 75.04 69.01 79.44 68.84 75.83"/><polygon class="cls-14" points="66.46 76.22 44.29 72.46 44.36 75.44 66.63 79.83 66.46 76.22"/><polygon class="cls-15" points="66.46 76.22 68.84 75.83 69.01 79.44 66.63 79.83 66.46 76.22"/><polygon class="cls-17" points="111.76 62.65 110.53 11.27 65.27 4.71 66.68 63.73 111.76 62.65"/><path class="cls-18" d="M66.55,6.15l42.77,6.19,1.17,49.1-42.6,1L66.55,6.15M64,3.27,65.47,65,113,63.86l-1.27-53.67L64,3.27Z"/><polygon class="cls-18" points="62.8 4.93 22.55 17.12 23.04 58.44 64.2 63.59 62.8 4.93"/><path class="cls-19" d="M61.6,6.59l1.33,55.59-39.77-4-.49-41.06L61.6,6.59M64,3.27,21.3,16.2l.52,43.34L65.47,65,64,3.27Z"/><path class="cls-12" d="M159.94,81.83s-1.24,3-3.09,3.84c-16.13,6.86-42,5.35-42,5.35l-2-2.68,47.42-6.51"/><path class="cls-20" d="M72.13,81.13l20.09,4.63S91.8,72,100.47,72.34s12.38,16,12.38,16a124.73,124.73,0,0,0,29.22-.7c15.47-2.29,17.87-5.81,17.87-5.81L159.87,79l-.12-5.26a5.8,5.8,0,0,0-.45-2.1,6.45,6.45,0,0,0-1.34-2,4.5,4.5,0,0,0-.56-.5s0,.3,0,0,0-.91,0-2.48A5.09,5.09,0,0,0,154.88,62s0-.05,0-.15c0-.78.07-4.51-2-6.88h0a5.74,5.74,0,0,0-1.66-1.31A91.36,91.36,0,0,0,141,49.46l-.09,0L125,31.65l-.06-.07S117,26.93,104.09,26.5a127.31,127.31,0,0,0-17.49-.27c-4.46.3-8.71,1-11.27,2.45-2.76,1.56-3.89,20.47-3.89,20.47-.9,0-.77,1.6-.77,1.6s-1.06,10.33-1.13,17.44A33.89,33.89,0,0,0,72.13,81.13Z"/><path class="cls-21" d="M158.78,80l-.13-5.26a5.6,5.6,0,0,0-.44-2.1,6.45,6.45,0,0,0-1.34-2,4.5,4.5,0,0,0-.56-.5s0,.3,0,0,0-.91,0-2.48A5.08,5.08,0,0,0,153.79,63s0-.05,0-.15c0-.78.07-4.51-2-6.88h0a5.74,5.74,0,0,0-1.66-1.31c-3.85-2-11.54-4.7-11.54-4.7l-14.7-17.29-.06-.07S115.9,28,103,27.53a127.42,127.42,0,0,0-17.5-.27c-4.24.29-8.3.94-10.88,2.25a2.08,2.08,0,0,1,.71-.83c2.56-1.44,6.81-2.15,11.27-2.45a127.31,127.31,0,0,1,17.49.27c12.9.43,20.82,5.08,20.82,5.08l.06.07,16,17.78.09,0a91.36,91.36,0,0,1,10.17,4.18A5.74,5.74,0,0,1,152.87,55h0c2.08,2.37,2,6.1,2,6.88,0,.1,0,.15,0,.15a5.09,5.09,0,0,1,2.47,4.65c0,1.57,0,2.23,0,2.48s0,0,0,0a4.5,4.5,0,0,1,.56.5,6.45,6.45,0,0,1,1.34,2,5.8,5.8,0,0,1,.45,2.1l.12,5.26.07,2.85a4.2,4.2,0,0,1-1.09.93C158.84,82.44,158.81,81.36,158.78,80Z"/><path class="cls-22" d="M155,70.67a20.05,20.05,0,0,0,3-1,4.5,4.5,0,0,0-.56-.5s0,.3,0,0Z"/><path class="cls-22" d="M72.13,81.13l20.09,4.63S91.8,72,100.47,72.34l.28,0h.12c8.39.85,12,16,12,16s-.54-9,1.35-13.6c.88-2.16,14.09-1.39,16.14-1.44,0,0-20.08-1.83-20.2-2.52-.29-1.6-.72-7-.22-7.78,2.2-3.25,8.78-5.4,8.78-5.4-5.59-.59-9.58-2.24-14.58-7.82.5-.07-7-21.26-17-22.55-4.46.31-9.28.4-11.8,1.45a1.42,1.42,0,0,0-.54.53l-.17.27c-2.24,3.85-3.18,19.67-3.18,19.67a.92.92,0,0,0-.37,0c-.58.13-.73.23-.84.89s-.55,9.62-.67,16.53c0,.33,0,.65,0,1s0,.44,0,.66A33.89,33.89,0,0,0,72.13,81.13Z"/><path class="cls-13" d="M79.09,57.62v-.47L72,56.2v.73a.84.84,0,0,0,.73.81l5.45.72A.82.82,0,0,0,79.09,57.62Z"/><path class="cls-20" d="M70.35,49.78s25.09,1.6,25.84,1.34L71.78,48.69A1.32,1.32,0,0,0,70.35,49.78Z"/><path class="cls-20" d="M69.55,67.53c7.15,1.21,24.62,4.15,25.18,4.2L69.56,66.57C69.55,66.9,69.55,67.22,69.55,67.53Z"/><path class="cls-20" d="M110.14,70.78S108.8,61,105,60.29,71.37,55,71.37,55l34.05,4.25s4.83,2.13,5,2.81S110.14,70.78,110.14,70.78Z"/><path class="cls-12" d="M100.55,60.06a1.42,1.42,0,0,1,1.18-1.45l.14-10.19-.45-.72.25-.06c.27.41.42.66.43.68l0,0L102,58.71v.1l-.1,0c-.05,0-1.15.22-1.07,1.21s.2,11.87.2,12.33h-.25C100.75,71.93,100.64,61.14,100.55,60.06Z"/><path class="cls-16" d="M92,29.47a.68.68,0,0,0-.56,1c1.55,3,6.49,12.29,9.28,16.26,3.33,4.76,4.86,3.85,28.09,3.54,6.84-.09,11.83-.21,12.28-.81l-.09,0L125,31.65C113.54,28.41,96.34,29.2,92,29.47Z"/><path class="cls-23" d="M94.21,33.22l8.78,14a2.16,2.16,0,0,0,1.89,1.11l14.71-.07,8.49,0h0l6.67,0h2.82a.48.48,0,0,0,.35-.8l-.59-.65L124.73,32.8c-.39-.39-2.84-1-6.66-1.49-1.48-.2-3.18-.37-5-.51-2.16-.15-4.54-.26-7.07-.29h0c-2.62,0-5.4,0-8.28.21l-2.43.18C93.7,31,93.45,31.85,94.21,33.22Z"/><path class="cls-9" d="M113,30.8l21.71,17.35h2.82a.48.48,0,0,0,.35-.8l-.59-.65L118.07,31.31C116.59,31.11,114.89,30.94,113,30.8Z"/><path class="cls-9" d="M97.69,30.72l21.9,17.5,8.49,0L106,30.51h0C103.35,30.48,100.57,30.54,97.69,30.72Z"/><path class="cls-17" d="M105.24,59.21s2.55.43,4.68,3.79a131.57,131.57,0,0,0,19.18,3.54,80.16,80.16,0,0,0,13.69.39,19.64,19.64,0,0,0,9.36-2.71h0a1.67,1.67,0,0,0,.28-.18,11.31,11.31,0,0,0,2.46-2.19c0-.09,0-.23,0-.4s0-.67-.05-1.12a.2.2,0,0,0,0-.07,11.65,11.65,0,0,0-.56-2.76,7.5,7.5,0,0,0-.37-.93,6.94,6.94,0,0,0-1-1.6,1.58,1.58,0,0,1-.25,1.83,4.63,4.63,0,0,1-3.06.92c-4.7.24-25.88.62-25.88.62l-.58,0c-1.89-.21-8.12-1-12.61-3.24a12.16,12.16,0,0,1-3-2s-2.17.17-2.33,1.11A46.46,46.46,0,0,0,105.24,59.21Z"/><path class="cls-13" d="M123.11,58.28a72,72,0,0,1,6,8.26c.76.08,1.53.16,2.31.22a74.64,74.64,0,0,0,11.38.17,20.34,20.34,0,0,0,8.81-2.38c.29-.17.57-.34.83-.52a36.25,36.25,0,0,0,.2-7.24l-28.94,1.54Z"/><path class="cls-13" d="M115.47,84.41a130.29,130.29,0,0,0,15.74,0c7.39-.36,16.12-1.28,23.21-3.41a37,37,0,0,0,5.45-2l-.12-5.26a5.49,5.49,0,0,0-.12-1,5.58,5.58,0,0,0-.33-1.07,6.28,6.28,0,0,1-3.11,1.07s-.23-1.92-1.78-1.76a110.82,110.82,0,0,1-20.83,2.3s-2.47-.19-3.18,2.86c0,0-8.32.51-11.62-.09S115.28,84.23,115.47,84.41Z"/><path class="cls-16" d="M126.31,59.41l.54.82.49.74.61.93.49.75.62,1,.5.77.56.86a96.26,96.26,0,0,0,12.8.39c3.87-.26,6.65-.83,8.74-2,0-.07.09-.49.1-.56,0-.24.06-.51.09-.78s.07-.71.1-1.08,0-.51.05-.78,0-.61,0-.92,0-.5,0-.75a7.89,7.89,0,0,0-.05-.84Z"/><path class="cls-13" d="M126.85,60.23l.49.74,3-.06c6.55-.16,11.77-.5,15.21-.78,2.34-.2,4.12-.38,5.2-.51l1.29-.15c0-.25,0-.5,0-.75A231.39,231.39,0,0,1,126.85,60.23Z"/><path class="cls-13" d="M128,61.9l.49.75q3.31,0,6.16,0c4.74-.12,8.47-.38,11.08-.62s4.19-.46,5.16-.62c.47-.07.83-.13,1.11-.19,0-.25,0-.51.05-.78C150.11,60.82,141.46,62,128,61.9Z"/><path class="cls-13" d="M129.06,63.6l.5.77c3.4.15,6.46.18,9.15.11,6.67-.16,11.1-.85,13-1.45,0-.24.06-.51.09-.78C149.83,63,141.77,64.21,129.06,63.6Z"/><path class="cls-16" d="M131.38,83c7.39-.35,16.11-1.28,23.21-3.4,0-.4.07-.78.1-1.16s.05-.52.07-.77c0-.48.07-.92.11-1.34,0-.27,0-.53,0-.77,0-.6.07-1.09.1-1.45s0-.68,0-.68l0-.08c0-.25-.23-.93-.52-1.06s-10.78,2.33-20.87,2.16c0,0-.87.06-1.31,1.36a4.09,4.09,0,0,0-.13.48c0,.08,0,.17-.05.27-.08.41-.16,1-.25,1.72l0,.36-.05.38q-.09.84-.21,1.83c0,.25-.05.5-.08.75C131.48,82.05,131.43,82.52,131.38,83Z"/><path class="cls-13" d="M131.53,81.6c3.19-.2,9.36-.64,12.84-1.14s8.06-1.51,10.32-2c0-.26.05-.52.07-.77-2.15.48-7.07,1.56-10.5,2s-9.44.93-12.65,1.13C131.59,81.1,131.56,81.35,131.53,81.6Z"/><path class="cls-13" d="M131.82,79c3.28-.14,9.12-.44,12.48-.85s8.38-1.4,10.57-1.84c0-.27,0-.53,0-.77-2,.42-7.17,1.43-10.72,1.87-3.29.41-9,.7-12.29.85Z"/><path class="cls-13" d="M132.16,76.56c3.34-.11,8.84-.34,12.07-.7,3.57-.4,8.72-1.35,10.79-1.75,0-.44,0-.68,0-.68l0-.08c-1.94.37-7.25,1.37-10.89,1.77-3.14.35-8.46.58-11.81.69a4.09,4.09,0,0,0-.13.48C132.19,76.37,132.18,76.46,132.16,76.56Z"/><path class="cls-16" d="M96.19,51.12s1.24-2.33.66-3.37-7.17-17.37-9.16-17.7-9.29.22-9.29.22-3,10.55-2,18.9Z"/><path class="cls-23" d="M77.6,48.46l9.5,1,6.43.65h0l1.7.18A2.41,2.41,0,0,0,96,48.65a3,3,0,0,0-.34-1.48c-.14-.29-.79-1.89-1.66-4-2-4.76-5.23-12.07-6.45-12.28a34.55,34.55,0,0,0-5.14,0c-1.4.07-2.61.16-3,.19h-.1s-.33,1.22-.72,3.14h0c-.29,1.44-.61,3.27-.85,5.27A39.67,39.67,0,0,0,77.6,48.46Z"/><path class="cls-9" d="M79.43,31.12,96,48.65a3,3,0,0,0-.34-1.48c-.14-.29-.79-1.89-1.66-4L82.4,30.93C81,31,79.79,31.09,79.43,31.12Z"/><path class="cls-9" d="M77.76,39.54l9.34,9.89,6.43.65L78.61,34.27C78.32,35.71,78,37.54,77.76,39.54Z"/><path class="cls-11" d="M119,81.2c.35,1.55,2,2.56,4.75,1.93s4-2.45,3.65-4-2.16-2.23-4.93-1.59S118.61,79.66,119,81.2Z"/><path class="cls-14" d="M119.46,80.61a2.27,2.27,0,1,0,2.22-2.32A2.27,2.27,0,0,0,119.46,80.61Z"/><path class="cls-17" d="M119.93,80.56a1.89,1.89,0,1,0,1.84-1.94A1.89,1.89,0,0,0,119.93,80.56Z"/><path class="cls-24" d="M120.28,80.55a1.62,1.62,0,1,0,1.58-1.66A1.62,1.62,0,0,0,120.28,80.55Z"/><path class="cls-17" d="M121.29,80.11a1,1,0,1,0,1-1A1,1,0,0,0,121.29,80.11Z"/><path class="cls-17" d="M120.89,81.38a.48.48,0,0,0,1,0,.48.48,0,0,0-.49-.46A.46.46,0,0,0,120.89,81.38Z"/><path class="cls-11" d="M156.41,76.11a2.66,2.66,0,0,0,3.3,2.26l.15,0-.11-4.61a5.49,5.49,0,0,0-.12-1,3.63,3.63,0,0,0-1.2.09A2.55,2.55,0,0,0,156.41,76.11Z"/><path class="cls-14" d="M156.83,75.62c0,1.1.68,2,1.47,2s1.41-.93,1.38-2-.69-2-1.47-2S156.8,74.51,156.83,75.62Z"/><path class="cls-17" d="M157.25,75.56c0,.92.57,1.66,1.23,1.64s1.16-.77,1.14-1.69-.57-1.66-1.22-1.64S157.23,74.64,157.25,75.56Z"/><path class="cls-24" d="M157.47,75.56c0,.79.49,1.42,1.05,1.4s1-.66,1-1.45-.49-1.42-1.05-1.4S157.45,74.77,157.47,75.56Z"/><path class="cls-17" d="M158.11,75.18c0,.47.29.85.63.85s.6-.41.59-.88-.29-.86-.63-.85S158.09,74.7,158.11,75.18Z"/><path class="cls-17" d="M157.86,76.3c0,.23.14.41.31.41s.29-.19.28-.42-.14-.42-.3-.42A.38.38,0,0,0,157.86,76.3Z"/><path class="cls-24" d="M124.11,64.93a1.41,1.41,0,0,0,1.24-2.15c-.67-1.12-1.49-3.1-3.46-3.34-12.9-1.61-13.85-4.8-15.18-3.72s2.1,6.42,6.66,7.45A76.78,76.78,0,0,0,124.11,64.93Z"/><path class="cls-17" d="M110.24,59.49a1.68,1.68,0,1,0,1.64-1.73A1.68,1.68,0,0,0,110.24,59.49Z"/><path class="cls-17" d="M123.45,62.92a3.33,3.33,0,0,0-2.54-2.62c-2.14-.39-5.65-1.36-6.06-.92s-1.07,2.46,1.31,3.14S123.36,64.45,123.45,62.92Z"/><path class="cls-24" d="M153.91,62.27a8.45,8.45,0,0,0,1-.83c0-.29,0-.67-.05-1.12a11.91,11.91,0,0,0-.57-2.83,7.5,7.5,0,0,0-.37-.93c-.7.9-.77,2.82-.89,4S153.4,62.61,153.91,62.27Z"/><path class="cls-17" d="M153.9,60.16c.11.56.48.51.95.16a11.91,11.91,0,0,0-.57-2.83A6.45,6.45,0,0,0,153.9,60.16Z"/><path class="cls-25" d="M105.24,59.21s2.55.43,4.68,3.79a131.57,131.57,0,0,0,19.18,3.54c-1.89-2.37-6.45-2.42-14.22-4.49a4.08,4.08,0,0,1-2.71-2.36A23.68,23.68,0,0,0,107.45,53s-2.17.17-2.33,1.11A46.46,46.46,0,0,0,105.24,59.21Z"/><path class="cls-25" d="M152.15,64.21a1.67,1.67,0,0,0,.28-.18,11.31,11.31,0,0,0,2.46-2.19c0-.09,0-.23,0-.4s0-.67-.05-1.12a.2.2,0,0,0,0-.07,4.24,4.24,0,0,1-.47,1C153.86,61.82,152.15,64.21,152.15,64.21Z"/><path class="cls-13" d="M97.44,50.05a3.81,3.81,0,0,0-4.15-3.2c-3.72.12-4.83,2.72-4.74,3.81s6.86,1,8.38.61C97.33,51.17,97.44,50.05,97.44,50.05Z"/><path class="cls-13" d="M105,47.75s-.07-.66,2.36-.84c11.55-.82,13.88.77,13.88.77Z"/><path class="cls-13" d="M108.69,47.44l-3.11,1.65a.34.34,0,0,0,0,.61h0a.34.34,0,0,0,.28,0l4.29-2.2Z"/><path class="cls-13" d="M121.8,47.66s-.07-.67,2.36-.84c11.54-.82,13.88.76,13.88.76Z"/><path class="cls-13" d="M125.49,47.35,122.38,49a.33.33,0,0,0,0,.6h0a.34.34,0,0,0,.28,0l4.29-2.2Z"/><polygon class="cls-19" points="60.06 13.04 59.95 8.49 49.9 11.01 49.99 14.85 60.06 13.04"/><path class="cls-19" d="M27.38,57.57c0-1-.1-4.53-.1-4.53L24,52.87l.1,4.48Z"/><path class="cls-17" d="M73.45,19.59l30.35,2.75a13.08,13.08,0,0,0,4.71-.42c2.91-.7,2.58-1.48,2.58-1.48s-.14-5.94-.16-6.74-1.7-1.46-1.7-1.46l-24.57-4L74.05,19Z"/><path class="cls-18" d="M73.45,19.59s7.6,0,10.51-.67,2.58-1.49,2.58-1.49-.16-6.94-.18-7.74-1.7-1.46-1.7-1.46L73.38,10.46Z"/><path class="cls-19" d="M73.45,19.59l30,2.75a14.85,14.85,0,0,0,5-.42c2.91-.7,2.58-1.48,2.58-1.48-1.28-.29-24.53-2.76-24.53-2.76Z"/><polygon class="cls-19" points="110.48 14.73 110.44 13.77 87.36 10.65 87.4 11.62 110.48 14.73"/><polygon class="cls-19" points="110.53 16.72 110.49 15.75 87.4 12.63 87.44 13.6 110.53 16.72"/><polygon class="cls-19" points="110.58 18.7 110.53 17.74 87.45 14.62 87.49 15.58 110.58 18.7"/></g></g></g></svg>