<svg xmlns="http://www.w3.org/2000/svg" viewBox="0 0 149.13 40.13"><defs><style>.cls-1{fill:#2c282c;}.cls-2{fill:#231f22;}.cls-3{fill:#e3e2e4;}.cls-4{fill:#181516;}.cls-5{fill:#150f08;}.cls-6{fill:#b5a8a2;}.cls-7{fill:#c5c5c7;}.cls-8{fill:#f5a33f;}.cls-9{fill:#ed733a;}.cls-10{fill:#fac280;}.cls-11{fill:#f5a764;}.cls-12{fill:#facba3;}.cls-13{fill:#ae6f3b;}.cls-14{fill:#1f1813;}.cls-15{fill:#9b9b9d;}.cls-16{fill:#363238;}.cls-17{fill:#262225;}.cls-18{fill:#717172;}.cls-19{fill:#b04c19;}.cls-20{fill:#fff;}.cls-21{fill:#2d5357;}.cls-22{fill:#c2c2c4;}.cls-23{fill:#494246;}.cls-24{fill:#e5f2f1;}.cls-25{fill:#331607;}</style></defs><g id="katman_2" data-name="katman 2"><g id="katman_1-2" data-name="katman 1"><polygon class="cls-1" points="119.23 36.51 119.15 36.16 119.84 35.32 120.06 35.52 119.23 36.51"/><polygon class="cls-2" points="118.89 37.2 117.62 36.9 119.29 35.62 119.91 36.15 118.89 37.2"/><path class="cls-2" d="M120.33,35.76a.09.09,0,0,1-.12,0l-.58-.52a.08.08,0,0,1,0-.11h0a.08.08,0,0,1,.11,0l.58.52a.08.08,0,0,1,0,.11Z"/><polygon class="cls-3" points="116.73 36.52 117.95 35.78 120.17 36.52 116.73 36.52"/><path class="cls-4" d="M121.55,34.87a.27.27,0,0,0-.27.27.28.28,0,0,0,.27.28h0l-.31.43-.12.88H120a.17.17,0,0,0-.16.17.16.16,0,0,0,.16.16h1.72a.16.16,0,0,0,.17-.16h0l.17-1.48h0v-.55Z"/><path class="cls-1" d="M121.33,34.87a.27.27,0,0,0-.27.27.28.28,0,0,0,.27.28h0l-.3.43-.13.88H119.8a.17.17,0,0,0-.16.17.16.16,0,0,0,.16.16h1.47a.16.16,0,0,0,.16-.16h0l.17-1.48h0v-.55Z"/><path class="cls-4" d="M123.05,34.87a.27.27,0,0,0-.27.27.28.28,0,0,0,.27.28h0l-.31.43-.12.88h-1.11a.17.17,0,0,0-.16.17.16.16,0,0,0,.16.16h1.72a.17.17,0,0,0,.17-.16h0l.17-1.48h0v-.55Z"/><path class="cls-1" d="M122.83,34.87a.27.27,0,0,0-.27.27.28.28,0,0,0,.27.28h0l-.3.43-.13.88H121.3a.17.17,0,0,0-.16.17.16.16,0,0,0,.16.16h1.47a.16.16,0,0,0,.16-.16h0l.17-1.48h0v-.55Z"/><path class="cls-5" d="M134.68,39.37a.76.76,0,1,1-.76-.76A.76.76,0,0,1,134.68,39.37Z"/><path class="cls-5" d="M122.89,39.18a1,1,0,1,1-1.9,0,1,1,0,0,1,1.9,0Z"/><path class="cls-5" d="M128.67,39.18a.94.94,0,0,1-.95,1,1,1,0,1,1,.95-1Z"/><polygon class="cls-6" points="122.1 38.92 116.72 38.92 116.72 39.1 122.1 39.11 122.1 38.92"/><polygon class="cls-3" points="116.73 36.59 116.72 38.92 129.23 38.92 129.23 36.59 116.73 36.59"/><polygon class="cls-7" points="118.22 36.59 118.22 38.92 118.29 38.92 118.29 36.59 118.22 36.59"/><polygon class="cls-7" points="126.42 36.59 126.42 38.92 126.49 38.92 126.5 36.59 126.42 36.59"/><rect class="cls-7" x="116.73" y="36.52" width="12.5" height="0.2"/><polygon class="cls-8" points="117.95 37.14 117.62 37.14 117.62 36.99 117.95 36.99 117.95 37.14"/><rect class="cls-8" x="116.73" y="36.99" width="0.33" height="0.99"/><polygon class="cls-9" points="116.96 37.9 116.72 37.9 116.73 37.74 116.96 37.74 116.96 37.9"/><rect class="cls-10" x="116.55" y="37.24" width="0.6" height="0.24" transform="translate(79.19 154.1) rotate(-89.85)"/><rect class="cls-11" x="128.24" y="33.57" width="2.4" height="2.4"/><rect class="cls-12" x="128.24" y="33.56" width="2.4" height="0.09"/><rect class="cls-12" x="129.17" y="33.57" width="0.53" height="0.66"/><polygon class="cls-13" points="129.17 35.64 129.14 35.64 129.14 35.34 129.17 35.34 129.17 35.64"/><polygon class="cls-13" points="129.09 35.65 129.09 35.62 129.38 35.62 129.38 35.66 129.09 35.65"/><polygon class="cls-13" points="129.32 35.64 129.29 35.64 129.29 35.34 129.32 35.34 129.32 35.64"/><polygon class="cls-13" points="129.09 35.39 129.16 35.28 129.22 35.39 129.09 35.39"/><polygon class="cls-13" points="129.24 35.39 129.31 35.28 129.37 35.39 129.24 35.39"/><rect class="cls-13" x="129.45" y="35.32" width="0.38" height="0.29" transform="translate(93.77 164.99) rotate(-89.82)"/><rect class="cls-11" x="127.3" y="35.97" width="2.4" height="2.4"/><rect class="cls-12" x="127.3" y="35.96" width="2.4" height="0.09"/><rect class="cls-12" x="128.24" y="35.97" width="0.53" height="0.66"/><polygon class="cls-13" points="128.24 38.04 128.2 38.04 128.21 37.74 128.24 37.74 128.24 38.04"/><polygon class="cls-13" points="128.15 38.06 128.15 38.03 128.44 38.03 128.44 38.06 128.15 38.06"/><polygon class="cls-13" points="128.39 38.04 128.35 38.04 128.36 37.74 128.39 37.74 128.39 38.04"/><polygon class="cls-13" points="128.15 37.8 128.22 37.68 128.29 37.8 128.15 37.8"/><polygon class="cls-13" points="128.31 37.8 128.37 37.68 128.44 37.8 128.31 37.8"/><rect class="cls-13" x="128.51" y="37.73" width="0.38" height="0.29" transform="translate(90.29 166.42) rotate(-89.76)"/><rect class="cls-11" x="130.98" y="33.57" width="2.4" height="2.4"/><rect class="cls-12" x="130.98" y="33.56" width="2.4" height="0.09"/><rect class="cls-12" x="131.92" y="33.57" width="0.53" height="0.66"/><polygon class="cls-13" points="131.92 35.64 131.88 35.64 131.89 35.34 131.92 35.34 131.92 35.64"/><polygon class="cls-13" points="131.84 35.65 131.84 35.62 132.12 35.62 132.12 35.66 131.84 35.65"/><polygon class="cls-13" points="132.07 35.64 132.04 35.64 132.04 35.34 132.07 35.34 132.07 35.64"/><polygon class="cls-13" points="131.84 35.39 131.9 35.28 131.97 35.39 131.84 35.39"/><polygon class="cls-13" points="131.99 35.39 132.05 35.28 132.12 35.39 131.99 35.39"/><rect class="cls-13" x="132.19" y="35.32" width="0.38" height="0.29" transform="translate(96.51 167.74) rotate(-89.82)"/><rect class="cls-11" x="129.79" y="35.97" width="2.4" height="2.4"/><rect class="cls-12" x="129.79" y="35.96" width="2.4" height="0.09"/><rect class="cls-12" x="130.72" y="35.97" width="0.53" height="0.66"/><polygon class="cls-13" points="130.72 38.04 130.69 38.04 130.69 37.74 130.72 37.74 130.72 38.04"/><polygon class="cls-13" points="130.64 38.06 130.64 38.03 130.93 38.03 130.93 38.06 130.64 38.06"/><polygon class="cls-13" points="130.87 38.04 130.84 38.04 130.84 37.74 130.87 37.74 130.87 38.04"/><polygon class="cls-13" points="130.64 37.8 130.7 37.68 130.77 37.8 130.64 37.8"/><polygon class="cls-13" points="130.79 37.8 130.85 37.68 130.92 37.8 130.79 37.8"/><rect class="cls-13" x="131" y="37.73" width="0.38" height="0.29" transform="translate(92.76 168.9) rotate(-89.76)"/><rect class="cls-11" x="132.4" y="35.97" width="2.4" height="2.4"/><rect class="cls-12" x="132.4" y="35.96" width="2.4" height="0.09"/><rect class="cls-12" x="133.34" y="35.97" width="0.53" height="0.66"/><polygon class="cls-13" points="133.34 38.04 133.3 38.04 133.31 37.74 133.34 37.74 133.34 38.04"/><polygon class="cls-13" points="133.25 38.06 133.25 38.03 133.54 38.03 133.54 38.06 133.25 38.06"/><polygon class="cls-13" points="133.49 38.04 133.46 38.04 133.46 37.74 133.49 37.74 133.49 38.04"/><polygon class="cls-13" points="133.25 37.8 133.32 37.68 133.39 37.8 133.25 37.8"/><polygon class="cls-13" points="133.41 37.8 133.47 37.68 133.54 37.8 133.41 37.8"/><rect class="cls-13" x="133.61" y="37.73" width="0.38" height="0.29" transform="matrix(0, -1, 1, 0, 95.37, 171.52)"/><rect class="cls-3" x="130.16" y="33.88" width="1.46" height="8.73" transform="translate(92.42 169.07) rotate(-89.91)"/><polygon class="cls-7" points="127.42 37.52 127.42 38.92 127.46 38.92 127.47 37.52 127.42 37.52"/><polygon class="cls-7" points="132.36 37.52 132.36 38.92 132.4 38.92 132.41 37.52 132.36 37.52"/><rect class="cls-7" x="126.52" y="37.48" width="8.73" height="0.12"/><path class="cls-6" d="M119.14,38A1.11,1.11,0,0,0,118,39.11h2.21A1.11,1.11,0,0,0,119.14,38Z"/><path class="cls-14" d="M120.09,39.18a1,1,0,1,1-1-1A1,1,0,0,1,120.09,39.18Z"/><path class="cls-6" d="M119.76,39.18a.63.63,0,0,1-1.25,0,.63.63,0,0,1,1.25,0Z"/><path class="cls-3" d="M119.62,39.18a.48.48,0,0,1-.49.48.47.47,0,0,1-.48-.48.49.49,0,1,1,1,0Z"/><polygon class="cls-6" points="121.61 38.91 121.61 39.1 135.25 39.12 135.25 38.93 121.61 38.91"/><path class="cls-6" d="M124.46,38a1.11,1.11,0,0,0-1.1,1.11h2.2A1.11,1.11,0,0,0,124.46,38Z"/><path class="cls-14" d="M125.41,39.18a.95.95,0,1,1-1-1A.95.95,0,0,1,125.41,39.18Z"/><path class="cls-6" d="M125.08,39.18a.62.62,0,0,1-1.24,0,.62.62,0,0,1,.62-.62A.62.62,0,0,1,125.08,39.18Z"/><path class="cls-3" d="M125,39.18a.49.49,0,0,1-1,0,.49.49,0,1,1,1,0Z"/><path class="cls-6" d="M132.11,39a.88.88,0,0,0-.83-.59.89.89,0,0,0-.83.59Z"/><path class="cls-14" d="M132,39.37a.76.76,0,1,1-.76-.76A.76.76,0,0,1,132,39.37Z"/><path class="cls-6" d="M131.78,39.37a.51.51,0,0,1-.5.5.5.5,0,0,1,0-1A.5.5,0,0,1,131.78,39.37Z"/><path class="cls-3" d="M131.67,39.37a.39.39,0,1,1-.78,0,.39.39,0,0,1,.39-.39A.38.38,0,0,1,131.67,39.37Z"/><rect class="cls-15" x="96.65" y="28.49" width="1.95" height="6.77"/><rect class="cls-3" x="97.64" y="28.49" width="1.95" height="6.77"/><path class="cls-16" d="M99.18,37.93c0,.66-.05,1.8-.52,2.2H97a2.21,2.21,0,1,1,2.21-2.2Z"/><path class="cls-17" d="M100.87,37.93a2.21,2.21,0,1,1-2.21-2.21A2.2,2.2,0,0,1,100.87,37.93Z"/><path class="cls-3" d="M101.08,34.94H94.91v1.37h2.47a1.85,1.85,0,1,0,3.7,0h0Z"/><rect class="cls-18" x="97.62" y="34.94" width="3.46" height="0.32"/><rect class="cls-15" x="43.59" y="28.49" width="1.95" height="6.77"/><rect class="cls-3" x="44.59" y="28.49" width="1.95" height="6.77"/><path class="cls-16" d="M46.13,37.93c0,.66-.05,1.8-.52,2.2H43.92a2.21,2.21,0,1,1,2.21-2.2Z"/><path class="cls-17" d="M47.82,37.93a2.21,2.21,0,1,1-2.21-2.21A2.2,2.2,0,0,1,47.82,37.93Z"/><path class="cls-3" d="M48,34.94H41.86v1.37h2.47a1.85,1.85,0,1,0,3.7,0h0Z"/><rect class="cls-18" x="44.57" y="34.94" width="3.46" height="0.32"/><polygon class="cls-18" points="115.01 40.13 105.18 40.13 94.77 27.8 104.6 27.8 115.01 40.13"/><polygon class="cls-19" points="64.65 21.5 62.06 23.04 62.06 21.5 58.24 23.77 62.06 26.03 62.06 24.5 64.65 26.03 64.65 21.5"/><rect class="cls-15" x="54.62" y="28.49" width="1.95" height="6.77"/><rect class="cls-3" x="55.61" y="28.49" width="1.95" height="6.77"/><path class="cls-16" d="M57.15,37.93c0,.66,0,1.8-.52,2.2H54.94a2.21,2.21,0,1,1,2.21-2.2Z"/><path class="cls-17" d="M58.84,37.93a2.21,2.21,0,1,1-2.21-2.21A2.2,2.2,0,0,1,58.84,37.93Z"/><path class="cls-3" d="M59.05,34.94H52.88v1.37h2.47a1.85,1.85,0,1,0,3.7,0h0Z"/><rect class="cls-18" x="55.59" y="34.94" width="3.46" height="0.32"/><path class="cls-15" d="M3.12,22.23A6.08,6.08,0,0,1,.53,25.36v2H5.77c4,.18,4.75-2.65,4.75-2.65s.65-6,.71-6S4.89,17.07,3.12,22.23Z"/><path class="cls-20" d="M2.58,23.35a6.52,6.52,0,0,1-2,2v1H9.41a3.61,3.61,0,0,0,1.11-1.59s.07-.58.16-1.38Z"/><path class="cls-21" d="M10.61,24c.18-1.63.58-5.22.62-5.22s-6.34-1.66-8.11,3.5a5.66,5.66,0,0,1-1,1.72Z"/><path class="cls-3" d="M2.53,22.28A6,6,0,0,1,.53,25v1a6.67,6.67,0,0,0,3.7-3.74,5.6,5.6,0,0,1,5.19-3.77C7.4,18.34,3.8,18.61,2.53,22.28Z"/><path class="cls-3" d="M0,26.06a1.32,1.32,0,0,0,1.33,1.32H72.8a1.33,1.33,0,0,0,1.33-1.32h0a1.33,1.33,0,0,0-1.33-1.33H1.33A1.32,1.32,0,0,0,0,26.06Z"/><path class="cls-15" d="M74.06,26.44a1.31,1.31,0,0,1-1.26.94H1.33a1.34,1.34,0,0,1-1.27-.94Z"/><path class="cls-3" d="M22.25,26.91v5.9c2.93,0,7.25-1.33,7.25-3S25.18,26.92,22.25,26.91Z"/><path class="cls-15" d="M29.49,29.74c-1.3,1.1-4.38,1.88-6.63,1.89V31.3h-.61v1.51c2.93,0,7.25-1.33,7.25-3C29.5,29.82,29.49,29.78,29.49,29.74Z"/><path class="cls-3" d="M25.2,29.86a2.95,2.95,0,1,1-2.95-2.95A2.95,2.95,0,0,1,25.2,29.86Z"/><path class="cls-18" d="M24.61,29.86a2.36,2.36,0,1,1-2.36-2.36A2.36,2.36,0,0,1,24.61,29.86Z"/><path class="cls-15" d="M22.62,27.53a2.36,2.36,0,0,0,0,4.65,2.35,2.35,0,0,0,0-4.65Z"/><circle class="cls-3" cx="22.23" cy="29.96" r="1.27" transform="translate(-0.04 0.03) rotate(-0.08)"/><path class="cls-20" d="M23,30a.77.77,0,0,1-1.54,0A.77.77,0,0,1,23,30Z"/><path class="cls-3" d="M30.46,26.91v7.83c3.89,0,9.62-1.76,9.62-3.92S34.35,26.93,30.46,26.91Z"/><path class="cls-15" d="M40.07,30.67c-1.72,1.46-5.81,2.5-8.81,2.51v-.44h-.8v2c3.89,0,9.62-1.76,9.62-3.92C40.08,30.77,40.07,30.72,40.07,30.67Z"/><path class="cls-3" d="M34.37,30.82a3.91,3.91,0,1,1-3.91-3.91A3.92,3.92,0,0,1,34.37,30.82Z"/><path class="cls-18" d="M33.59,30.82a3.13,3.13,0,1,1-3.13-3.13A3.13,3.13,0,0,1,33.59,30.82Z"/><path class="cls-15" d="M31,27.74a3.12,3.12,0,0,0,0,6.17,3.12,3.12,0,0,0,0-6.17Z"/><path class="cls-3" d="M32.12,31a1.7,1.7,0,1,1-1.7-1.69A1.7,1.7,0,0,1,32.12,31Z"/><path class="cls-20" d="M31.45,31a1,1,0,1,1-1-1A1,1,0,0,1,31.45,31Z"/><polygon class="cls-15" points="107.33 25.79 120.65 19.05 108.57 30.41 27.99 30.41 19.63 25.79 107.33 25.79"/><polygon class="cls-18" points="108.57 29.17 27.99 29.17 21.86 25.79 19.63 25.79 27.99 30.41 108.57 30.41 120.65 19.05 117.81 20.48 108.57 29.17"/><path class="cls-22" d="M101,25.75V15.19l-71.72.07-4.62,5.09c-5.31.2-5,5.47-5,5.47Z"/><polygon class="cls-23" points="37.8 17.31 27.34 17.31 24.92 19.98 37.8 19.98 37.8 17.31"/><polygon class="cls-22" points="30.53 17.31 28.1 19.98 28.86 19.98 31.28 17.31 30.53 17.31"/><path class="cls-3" d="M108.57,27.21H30.15a18.85,18.85,0,0,1-2.9-1.43s0-5.27,4.83-5.3l4.77-5.25H126.3Z"/><polygon class="cls-24" points="36.85 15.23 35.77 16.41 110.97 16.41 110.97 15.23 36.85 15.23"/><polygon class="cls-21" points="84.7 15.23 52.43 15.23 57.92 27.21 90.38 27.21 84.7 15.23"/><path class="cls-3" d="M105.61,15.23s8.41-1.1,12.28-6.74C122.05,2.41,123.27.16,126.3,0V15.23l-8.16,5.52Z"/><polygon class="cls-23" points="34.9 17.31 32.47 19.98 33.71 19.98 34.42 20.51 38.91 20.51 38.91 17.31 34.9 17.31"/><polygon class="cls-23" points="42.31 17.31 43.62 19.98 42.79 20.51 39.65 20.51 39.65 17.31 42.31 17.31"/><path class="cls-3" d="M48.57,23.79c-.22,1.27-1.29,2-2.12,1.64h0a2,2,0,0,1-1.07-2.2,9.14,9.14,0,0,0,0-3.13,2,2,0,0,1,1.07-2.2h0c.83-.35,1.9.37,2.12,1.64A12.14,12.14,0,0,1,48.57,23.79Z"/><path class="cls-25" d="M84.41,23.94c-.34,1.73-1.83,2.64-2.9,2.13h0a2.72,2.72,0,0,1-1.31-3,10.43,10.43,0,0,0,0-4.09,2.7,2.7,0,0,1,1.31-3h0c1.07-.52,2.56.4,2.9,2.13A14.74,14.74,0,0,1,84.41,23.94Z"/><path class="cls-21" d="M84.17,23.65c-.27,1.55-1.59,2.42-2.59,2h0A2.42,2.42,0,0,1,80.26,23a11.2,11.2,0,0,0,0-3.83,2.44,2.44,0,0,1,1.32-2.69h0c1-.42,2.32.45,2.59,2A15.08,15.08,0,0,1,84.17,23.65Z"/><path class="cls-15" d="M49.14,18.17c-.35-1.73-1.84-2.65-2.9-2.13a2.69,2.69,0,0,0-1.31,3,10.82,10.82,0,0,1,0,4.09,2.7,2.7,0,0,0,1.31,3c1.06.51,2.55-.4,2.9-2.13A14.74,14.74,0,0,0,49.14,18.17Zm-.25,5.48c-.27,1.55-1.58,2.42-2.59,2A2.42,2.42,0,0,1,45,23a11.2,11.2,0,0,0,0-3.83,2.44,2.44,0,0,1,1.32-2.69c1-.42,2.32.45,2.59,2A15.08,15.08,0,0,1,48.89,23.65Z"/><path class="cls-23" d="M50.49,18.94a1.57,1.57,0,0,0,1.58,1.57h0a1.57,1.57,0,0,0,1.57-1.57v-.06a1.57,1.57,0,0,0-1.57-1.57h0a1.57,1.57,0,0,0-1.58,1.57Z"/><path class="cls-15" d="M53.16,18.94v-.06a1.57,1.57,0,0,0-1.33-1.55l.24,0a1.57,1.57,0,0,1,1.57,1.57v.06a1.57,1.57,0,0,1-1.57,1.57,1,1,0,0,1-.24,0A1.56,1.56,0,0,0,53.16,18.94Z"/><path class="cls-23" d="M56.59,18.94a1.57,1.57,0,0,0,1.57,1.57h0a1.57,1.57,0,0,0,1.57-1.57v-.06a1.57,1.57,0,0,0-1.57-1.57h0a1.57,1.57,0,0,0-1.57,1.57Z"/><path class="cls-25" d="M59.26,18.94v-.06a1.57,1.57,0,0,0-1.34-1.55l.24,0a1.57,1.57,0,0,1,1.57,1.57v.06a1.57,1.57,0,0,1-1.57,1.57,1,1,0,0,1-.24,0A1.56,1.56,0,0,0,59.26,18.94Z"/><path class="cls-23" d="M62.68,18.94a1.57,1.57,0,0,0,1.57,1.57h0a1.57,1.57,0,0,0,1.57-1.57v-.06a1.57,1.57,0,0,0-1.57-1.57h0a1.57,1.57,0,0,0-1.57,1.57Z"/><path class="cls-25" d="M65.35,18.94v-.06A1.57,1.57,0,0,0,64,17.33l.24,0a1.57,1.57,0,0,1,1.57,1.57v.06a1.57,1.57,0,0,1-1.57,1.57,1,1,0,0,1-.24,0A1.56,1.56,0,0,0,65.35,18.94Z"/><path class="cls-23" d="M68.77,18.94a1.57,1.57,0,0,0,1.57,1.57h0a1.57,1.57,0,0,0,1.58-1.57v-.06a1.57,1.57,0,0,0-1.58-1.57h0a1.57,1.57,0,0,0-1.57,1.57Z"/><path class="cls-25" d="M71.44,18.94v-.06a1.57,1.57,0,0,0-1.33-1.55l.23,0a1.57,1.57,0,0,1,1.58,1.57v.06a1.57,1.57,0,0,1-1.58,1.57.85.85,0,0,1-.23,0A1.56,1.56,0,0,0,71.44,18.94Z"/><path class="cls-23" d="M74.86,18.94a1.57,1.57,0,0,0,1.58,1.57h0A1.57,1.57,0,0,0,78,18.94v-.06a1.57,1.57,0,0,0-1.57-1.57h0a1.57,1.57,0,0,0-1.58,1.57Z"/><path class="cls-25" d="M77.53,18.94v-.06a1.57,1.57,0,0,0-1.33-1.55l.24,0A1.57,1.57,0,0,1,78,18.88v.06a1.57,1.57,0,0,1-1.57,1.57.93.93,0,0,1-.24,0A1.56,1.56,0,0,0,77.53,18.94Z"/><path class="cls-23" d="M80.69,18.94a1.57,1.57,0,0,0,1.58,1.57h0a1.57,1.57,0,0,0,1.57-1.57v-.06a1.57,1.57,0,0,0-1.57-1.57h0a1.57,1.57,0,0,0-1.58,1.57Z"/><path class="cls-25" d="M83.36,18.94v-.06A1.56,1.56,0,0,0,82,17.33l.24,0a1.57,1.57,0,0,1,1.57,1.57v.06a1.57,1.57,0,0,1-1.57,1.57,1,1,0,0,1-.24,0A1.55,1.55,0,0,0,83.36,18.94Z"/><path class="cls-23" d="M87.05,18.94a1.57,1.57,0,0,0,1.57,1.57h0a1.57,1.57,0,0,0,1.57-1.57v-.06a1.57,1.57,0,0,0-1.57-1.57h0a1.57,1.57,0,0,0-1.57,1.57Z"/><path class="cls-15" d="M89.72,18.94v-.06a1.57,1.57,0,0,0-1.34-1.55l.24,0a1.57,1.57,0,0,1,1.57,1.57v.06a1.57,1.57,0,0,1-1.57,1.57,1,1,0,0,1-.24,0A1.56,1.56,0,0,0,89.72,18.94Z"/><path class="cls-23" d="M93.14,18.94a1.57,1.57,0,0,0,1.57,1.57h0a1.57,1.57,0,0,0,1.57-1.57v-.06a1.57,1.57,0,0,0-1.57-1.57h0a1.57,1.57,0,0,0-1.57,1.57Z"/><path class="cls-15" d="M95.81,18.94v-.06a1.57,1.57,0,0,0-1.34-1.55l.24,0a1.57,1.57,0,0,1,1.57,1.57v.06a1.57,1.57,0,0,1-1.57,1.57,1,1,0,0,1-.24,0A1.56,1.56,0,0,0,95.81,18.94Z"/><path class="cls-23" d="M99.23,18.94a1.57,1.57,0,0,0,1.57,1.57h0a1.57,1.57,0,0,0,1.58-1.57v-.06a1.57,1.57,0,0,0-1.58-1.57h0a1.57,1.57,0,0,0-1.57,1.57Z"/><path class="cls-15" d="M101.9,18.94v-.06a1.57,1.57,0,0,0-1.33-1.55l.23,0a1.57,1.57,0,0,1,1.58,1.57v.06a1.57,1.57,0,0,1-1.58,1.57.85.85,0,0,1-.23,0A1.56,1.56,0,0,0,101.9,18.94Z"/><path class="cls-21" d="M117.89,8.49c-3.87,5.64-12.28,6.74-12.28,6.74h-4.12s6.73,11.65,6.79,12h.29l9.57-6.46,8.16-5.52V0C123.27.16,122.05,2.41,117.89,8.49Z"/><polygon class="cls-25" points="118.6 14.84 123.09 17.4 126.3 15.23 126.3 14.59 118.6 14.84"/><path class="cls-3" d="M89.28,26.91v10.6c5.26,0,13-2.39,13-5.3S94.54,26.93,89.28,26.91Z"/><path class="cls-15" d="M102.28,32c-2.33,2-7.86,3.38-11.92,3.4v-.59H89.28v2.7c5.26,0,13-2.39,13-5.3A1.49,1.49,0,0,0,102.28,32Z"/><path class="cls-3" d="M94.58,32.21a5.3,5.3,0,1,1-5.3-5.3A5.3,5.3,0,0,1,94.58,32.21Z"/><path class="cls-18" d="M93.52,32.21A4.24,4.24,0,1,1,89.28,28,4.24,4.24,0,0,1,93.52,32.21Z"/><path class="cls-15" d="M90,28a4.23,4.23,0,0,0,0,8.36A4.23,4.23,0,0,0,90,28Z"/><path class="cls-3" d="M91.52,32.39a2.29,2.29,0,1,1-2.29-2.29A2.3,2.3,0,0,1,91.52,32.39Z"/><path class="cls-20" d="M90.61,32.39A1.39,1.39,0,1,1,89.23,31,1.38,1.38,0,0,1,90.61,32.39Z"/><path class="cls-3" d="M103.88,26.91v8c4,0,9.81-1.79,9.81-4S107.85,26.93,103.88,26.91Z"/><path class="cls-15" d="M113.68,30.74c-1.75,1.49-5.93,2.55-9,2.56v-.44h-.82v2c4,0,9.81-1.79,9.81-4A.86.86,0,0,0,113.68,30.74Z"/><path class="cls-3" d="M107.87,30.9a4,4,0,1,1-4-4A4,4,0,0,1,107.87,30.9Z"/><path class="cls-18" d="M107.08,30.9a3.2,3.2,0,1,1-3.2-3.19A3.19,3.19,0,0,1,107.08,30.9Z"/><path class="cls-15" d="M104.38,27.75a3.19,3.19,0,1,0,2.7,3.15A3.19,3.19,0,0,0,104.38,27.75Z"/><path class="cls-3" d="M105.57,31a1.73,1.73,0,1,1-1.73-1.73A1.72,1.72,0,0,1,105.57,31Z"/><path class="cls-20" d="M104.89,31a1,1,0,1,1-1-1.05A1,1,0,0,1,104.89,31Z"/><path class="cls-3" d="M140,26.06a1.33,1.33,0,0,1-1.33,1.32H67.15a1.33,1.33,0,0,1-1.33-1.32h0a1.33,1.33,0,0,1,1.33-1.33h71.47A1.33,1.33,0,0,1,140,26.06Z"/><path class="cls-15" d="M65.89,26.44a1.31,1.31,0,0,0,1.26.94h71.47a1.34,1.34,0,0,0,1.27-.94Z"/><path class="cls-15" d="M141,22.23c-1.77,5.16-10.38,5.15-10.38,5.15h13c4,.18,4.76-2.65,4.76-2.65s.65-6,.71-6S142.78,17.07,141,22.23Z"/><path class="cls-20" d="M140.47,23.35a7.78,7.78,0,0,1-4,3H147.3a3.69,3.69,0,0,0,1.12-1.59s.06-.58.15-1.38Z"/><path class="cls-21" d="M148.5,24c.18-1.63.58-5.22.63-5.22s-6.35-1.66-8.12,3.5a5.45,5.45,0,0,1-1,1.72Z"/><path class="cls-3" d="M137.48,26.42a7.25,7.25,0,0,0,4.64-4.14,5.61,5.61,0,0,1,5.19-3.77c-2-.17-5.62.1-6.89,3.77a7.27,7.27,0,0,1-4.64,4.14Z"/><path class="cls-21" d="M138.05,14.46a1.31,1.31,0,0,1-1.31,1.31H119.85a1.3,1.3,0,0,1-1.31-1.31h0a1.31,1.31,0,0,1,1.31-1.31H123a92.24,92.24,0,0,1,15.06,1.31Z"/><path class="cls-21" d="M118.6,14.84a1.3,1.3,0,0,0,1.25.93h16.89a1.3,1.3,0,0,0,1.25-.93Z"/></g></g></svg>