<svg xmlns="http://www.w3.org/2000/svg" viewBox="0 0 91.92 91.92"><defs><style>.cls-1{fill:#fff;}</style></defs><g id="katman_2" data-name="katman 2"><g id="katman_1-2" data-name="katman 1"><path class="cls-1" d="M0,0H91.92V91.92H0ZM77.28,77.23v2.68H79.9V77.28H77.23V74.49h2.65V69H71.83l-.15-2.76H69.14v-5.5H71.8V55.39h5.5v8h2.6V49.75H71.74l.05,0V47h2.64V44.24H71.74V41.51H74.4V36H71.83l-.14-2.61h-5.4v2.67H63.54v2.76H60.72V36.06H58V27.81H55.25V25h2.67V14.07H55.25V11.4H52.54v2.67H49.71V11.38H47.08L47,13.94H44.24V11.39h-8.1v2.73h5.31v2.71H36.06v2.73H33.39V25h2.67v2.79H33.39v2.71h2.67v5.56H38.8v2.73H33.23v2.74H30.51V38.71H27.87V36h5.3V33.37H25.1L25,36.06H16.78V33.38H11.41V36h5.41v2.83h5.39v2.62l-2.73.13v8.22H16.89v5.51h2.69V58H33.32v8.26h2.73l0,0v5.49H38.8v2.79H33.39V79.9H44.26V77.23H47.1v2.69h2.71V74.63h2.77v2.66h2.76v2.64H58l.13-2.56h5.48v2.54H69V71.74l0,.05h2.82v2.7h2.71v2.74ZM11.39,30.43h19v-19h-19Zm68.51,0v-19h-19v19ZM30.43,79.94v-19h-19v19ZM16.77,44.38H11.42V57.93h2.67v-11h2.68Zm60.61-.05V47h2.53V44.33Zm-66-2.88H14V38.89H11.37Zm68.57-5.33H77.35v2.55h2.59Z"/><path d="M71.74,41.51v2.73h2.69V47H71.79v2.84H69.11v2.63h2.63V49.75H79.9V63.42H77.3v-8H71.8v5.32H69.14v5.5h2.54L71.83,69h8.06v5.52H77.24l0,0V71.87H74.49v2.66l0,0H71.82v-2.7H69V69.13H63.46V71.8H60.89v2.63H66.3V71.74H69v8.17H63.57V77.37H58.09L58,79.93H55.34V77.29H52.58V74.63H49.81v5.29H47.1V77.23H44.26l0,0V69.11H38.76v2.67l0,0H36V66.25h2.67V63.62H36.05v2.67H33.32V58H19.58v-2.7H16.89V49.82h2.59V41.6l2.73-.13V38.85H16.82V36l0,0H25l.13-2.69h8.07V36h-5.3v2.71h2.64v2.84l0,0H25v5.55H22.37v8.11H25.1V49.75h11v2.84H27.87V55.3H38.81V58H36.13v2.62h2.63V58h2.82v5.5H44.3v2.67H47V63.49h2.82v2.75h2.71v2.83H47.1v2.7h8.21v2.62H58V69.08l-2.72-.15V66.28H52.5V63.46h2.67V58H52.5V55.29H49.75V52.54H47l0-2.78,0,0h5.55V38.73H58V36l0,.05h2.72v2.75h2.82l0-.05v2.82H60.79V44.3H58V47H55.39v8.19h2.54c0-2.8,0-5.52,0-8.23l2.85,0v2.81h2.7v2.76H60.86v2.59h5.28v-5.3H63.45c0-1,0-1.91,0-2.86H69V41.51l2.79,0ZM66.23,58.15H58.12v8h8.11Z"/><path d="M11.39,30.43v-19h19v19ZM27.74,14.16H14.14V27.7h13.6Z"/><path d="M79.9,30.46h-19v-19h19ZM63.61,27.69H77.16V14.12H63.61Z"/><path d="M30.43,79.94h-19v-19h19ZM14.17,63.59V77.14H27.73V63.59Z"/><path d="M36.06,19.56V16.83h5.39V14.12H36.14V11.39h8.1v2.55H47l.12-2.56h2.63v2.69h2.83l0,0v2.82H49.72v5.47H47V16.9H44.3v5.42H41.48v8.2H38.76l0,0V27.77H36l.05,0V25l-.05,0h2.67V19.52H36Z"/><path d="M55.25,27.81H58v8.25L58,36H44.38v-8.2h2.67l0,0v5.41h5.53V30.52l0,0h2.79V27.77Z"/><path d="M55.25,14.07h2.67V25H55.25v2.83l0,0H52.5v2.79l0,0H49.72V27.77H47l0,0c0-.93,0-1.86,0-2.79h5.57v-2.8h2.72V14Z"/><path d="M16.77,44.38v2.56H14.09v11H11.42V44.38Z"/><path d="M30.51,41.55h2.72V38.81H38.8l0-.05,0,2.79H36.05V44.3H33.22V47H27.88V44.24h2.68V41.51Z"/><path d="M44.26,77.23V79.9H33.39V74.53H38.8l0,0v2.79H44.3Z"/><path d="M66.29,36.05V33.38h5.4L71.83,36H74.4v5.52H71.74l0,0V38.81H69V36H66.24Z"/><path d="M38.8,38.81V36.08H36.06V30.52l-.05,0H38.8l0,0v2.82h2.79V38.8l-2.79,0Z"/><path d="M36.06,25H33.39V19.56h2.67l-.05,0v5.54Z"/><path d="M16.82,36H11.41V33.38h5.37v2.68Z"/><path d="M77.38,44.33h2.53V47H77.38Z"/><path d="M11.37,41.45V38.89H14v2.56Z"/><path d="M79.94,36.12v2.55H77.35V36.12Z"/><path d="M63.54,38.81V36.05h2.75l-.05,0,.05,2.8-2.79-.05Z"/><path d="M52.54,14.07V11.4h2.71v2.67l0,0H52.5Z"/><path d="M38.8,74.53V71.74l0,0h2.67v2.71H38.76Z"/><path d="M36.06,30.52H33.39V27.81h2.67l-.05,0v2.79Z"/><path d="M77.27,77.23H74.53V74.49l0,0h2.79l0,0v2.79Z"/><path d="M77.23,77.28H79.9v2.63H77.28V77.23Z"/><path class="cls-1" d="M41.55,38.8V33.34H38.76V30.52h2.72v-8.2H44.3l0-.05v2.79h2.79l0,0,0,2.79H44.38V36H58v2.72H52.56V49.8H47V47.13H44.39v2.63h2.66l0,2.78,0,0H44.39V58H49.8l0,0v2.66h2.79V58l0,0h2.67v5.42H52.5v2.82l0,0H49.83V63.49H47l0,0V60.87H44.26v2.67l0,0H41.58V58H38.76l.05,0V55.3H27.87V52.59h8.19V49.75l-.05,0h2.84v2.64h2.71V44.21h2.77V41.63H47.1V44.2h2.58V38.76H41.51Z"/><path class="cls-1" d="M30.56,41.51v2.73H27.88V47h5.34V44.3h2.83l0,0V49.8l.05,0h-11v5.42H22.37V47.06H25V41.51Z"/><path class="cls-1" d="M66.23,58.15v8H58.12v-8Zm-5.36,2.68V63.4h2.57V60.83Z"/><path class="cls-1" d="M63.5,38.76l2.79.05-.05-.05v2.79H69l0,0V47H63.5l0,0V44.26H60.75l0,0V41.58H63.5Z"/><path class="cls-1" d="M52.5,66.28h2.73v2.65l2.72.15v5.31H55.31V71.77H47.1v-2.7h5.44V66.24Z"/><path class="cls-1" d="M38.76,74.49h2.67V71.78H38.76V69.11H44.3v8.17H38.76Z"/><path class="cls-1" d="M69,71.74H66.3v2.69H60.89V71.8h2.57V69.13H69v2.66Z"/><path class="cls-1" d="M57.93,47v8.24H55.39V47H58Z"/><path class="cls-1" d="M63.44,49.86h2.7v5.3H60.86V52.57h2.63V49.81Z"/><path class="cls-1" d="M60.79,47l-2.85,0,0,0V44.3h2.81l0,0v2.79Z"/><path class="cls-1" d="M63.5,47c0,1,0,1.91,0,2.86l0,0h-2.7V47l0,0h2.79Z"/><path class="cls-1" d="M71.74,49.75v2.67H69.11V49.79h2.68Z"/><path class="cls-1" d="M47,52.54h2.75v2.75l0,0H47.05V52.5Z"/><path class="cls-1" d="M49.75,55.29H52.5V58l0,0H49.75l0,0V55.25Z"/><path class="cls-1" d="M38.76,58v2.67H36.13V58h2.68Z"/><path class="cls-1" d="M69,38.81h2.79v2.74l-2.79,0,0,0V38.76Z"/><path class="cls-1" d="M36.05,66.29V63.62h2.63v2.63H36Z"/><path class="cls-1" d="M47,63.49v2.67H44.3V63.49l0,0h2.79Z"/><path class="cls-1" d="M77.28,74.53H74.49V71.87h2.79Z"/><path class="cls-1" d="M27.74,14.16V27.7H14.14V14.16ZM25,16.9h-8V25h8Z"/><path class="cls-1" d="M63.61,27.69V14.12H77.16V27.69ZM74.45,16.91H66.34v8h8.11Z"/><path class="cls-1" d="M14.17,63.59H27.73V77.14H14.17ZM25,66.35H16.89V74.4H25Z"/><path class="cls-1" d="M52.5,14h2.79v8.19H52.57V25H47l0,0V22.27l0,.05h2.71V16.85H52.5Z"/><path class="cls-1" d="M44.3,22.32V16.9H47v5.42l0-.05H44.26Z"/><path class="cls-1" d="M36,25.06V19.52h2.67v5.54Z"/><path class="cls-1" d="M36,30.56V27.77H38.8v2.79Z"/><path class="cls-1" d="M47,27.77h2.71v2.75h2.82v2.66H47Z"/><path class="cls-1" d="M52.5,30.56V27.77h2.79v2.79Z"/><path class="cls-1" d="M36.05,44.3V41.55H38.8l0,0v2.75H36Z"/><path class="cls-1" d="M38.76,38.76l2.79,0,0,0v2.75H38.76l0,0C38.79,40.62,38.77,39.69,38.76,38.76Z"/><path class="cls-1" d="M66.29,38.81,66.24,36H69v2.8l0-.05H66.24Z"/><path d="M38.76,41.51h2.75V38.76h8.17V44.2H47.1V41.63H44.33v2.58H41.56v8.23H38.85V49.8H36V44.26h2.75Z"/><path d="M49.8,55.25V58H44.39V52.5h2.66v2.75Z"/><path d="M47.05,49.76H44.39V47.13H47V49.8Z"/><path d="M49.75,58h2.79v2.66H49.75Z"/><path d="M47.05,63.54H44.26V60.87h2.79Z"/><path d="M44.26,22.27h2.79v2.79H44.26Z"/><path d="M60.87,60.83h2.57V63.4H60.87Z"/><path d="M63.54,47.05H60.75V44.26h2.79Z"/><path d="M66.24,38.76H69v2.79H66.24Z"/><path d="M25,16.9V25h-8V16.9Z"/><path d="M74.45,16.91v8H66.34v-8Z"/><path d="M25,66.35V74.4H16.89V66.35Z"/></g></g></svg>