<svg xmlns="http://www.w3.org/2000/svg" viewBox="0 0 11.21 11.51"><defs><style>.cls-1{fill:#040c2c;}</style></defs><g id="katman_2" data-name="katman 2"><g id="katman_1-2" data-name="katman 1"><path class="cls-1" d="M5.47,8v2.5l-2.69.05s-.77-.39-.84-1S2.62,8,2.62,8Z"/><path class="cls-1" d="M1.65,9.88.1,7.23A1.46,1.46,0,0,1,.28,6.11a7.93,7.93,0,0,0,.55-.85L0,4.48l2.8.13L4.13,7.06l-.86-.51S1.23,8.75,1.65,9.88Z"/><path class="cls-1" d="M7.35,5,9.27,3.43l1.76,2s.21.85-.2,1.27a3.36,3.36,0,0,1-1.65.5Z"/><path class="cls-1" d="M11.21,6.78c-.24.69-1,2.89-1,2.89a1.41,1.41,0,0,1-1,.58,6.93,6.93,0,0,0-1,.13l-.06,1.13L6.44,9.28l1-2.58.17,1S10.62,7.83,11.21,6.78Z"/><path class="cls-1" d="M3.82,4.3,1.63,3.08,2.88.71S3.6.22,4.14.45,5.2,1.81,5.2,1.81Z"/><path class="cls-1" d="M4.06.07,7.13,0A1.42,1.42,0,0,1,8,.7a7,7,0,0,0,.48.89l1.08-.34L8.1,3.64l-2.78,0,.86-.51S5.25.25,4.06.07Z"/></g></g></svg>