<svg xmlns="http://www.w3.org/2000/svg" xmlns:xlink="http://www.w3.org/1999/xlink" viewBox="0 0 23.59 34.52"><defs><style>.cls-1{fill:none;}.cls-2{fill:#d8c5b2;}.cls-3{clip-path:url(#clip-path);}.cls-4{fill:#002664;}.cls-5{fill:#ffa400;}.cls-6{fill:#e2231a;}</style><clipPath id="clip-path"><circle class="cls-1" cx="11.79" cy="12.13" r="9.65" transform="translate(-0.12 0.12) rotate(-0.58)"/></clipPath></defs><g id="katman_2" data-name="katman 2"><g id="katman_1-2" data-name="katman 1"><path class="cls-2" d="M11.79,0A11.79,11.79,0,0,0,0,11.79c0,6.52,11.79,22.73,11.79,22.73s11.8-16.21,11.8-22.73A11.79,11.79,0,0,0,11.79,0Zm0,17.41a5.28,5.28,0,1,1,5.28-5.28A5.28,5.28,0,0,1,11.79,17.41Z"/><g class="cls-3"><polygon class="cls-4" points="1.63 2.25 1.63 12.07 1.63 21.78 8.4 21.78 8.4 12.07 8.4 2.25 1.63 2.25"/><polygon class="cls-5" points="8.37 2.25 8.37 12.07 8.37 21.78 15.14 21.78 15.14 12.07 15.14 2.25 8.37 2.25"/><polygon class="cls-6" points="15.12 2.25 15.12 12.07 15.12 21.78 21.89 21.78 21.89 12.07 21.89 2.25 15.12 2.25"/></g></g></g></svg>