<svg xmlns="http://www.w3.org/2000/svg" xmlns:xlink="http://www.w3.org/1999/xlink" viewBox="0 0 282.61 134.64"><defs><style>.cls-1{fill:none;}.cls-2{fill:#424241;opacity:0.3;}.cls-3{clip-path:url(#clip-path);}.cls-4{fill:#fcd903;}.cls-5{fill:#010299;}.cls-6{fill:#e5030c;}.cls-7{fill:#ecedef;}.cls-8{fill:#f1f0f2;}.cls-9{fill:#f00c3a;}.cls-10{fill:#e1e3e5;}.cls-11{fill:#dddfe1;}.cls-12{fill:#010eac;}.cls-13{fill:#eca3ad;}.cls-14{fill:#c89d63;}.cls-15{fill:#e7e7e9;}.cls-16{fill:#b28854;}.cls-17{fill:#faf9f9;}</style><clipPath id="clip-path" transform="translate(5.09 18.72)"><path class="cls-1" d="M120.23,86.76l-.77-.07-1.88-.15-1.45-.11-1.67-.1a11.17,11.17,0,0,1-1.17-.45l-1.33-1a5.73,5.73,0,0,1-.19-.77,2,2,0,0,1,.19-.51v-.73l-.44-.66-.84-.07-.8.33-.56.4-.73.15a1.93,1.93,0,0,1-.64-.4,5.09,5.09,0,0,1-.32-.59l-1.89-.69h-1.59L102.94,81l-1.56-.55-1-.73-1.74-.62-1.92-.07L95,79.2l-1.6.22-1.93.37-.93.4-1.08.4-1.57.58-1.15.41-1.93.58L83.28,83.4l-1.16,1.43-1.45,1-1.88,1-2.21.84-1.72.43-1.93-.21a5,5,0,0,1-1-.37c-.08-.11-.92-.73-.92-.73l-2.73-.33L67,86.62l-.77.37L64,86.91l-1.2-.37H60.7l-.84.33a14.62,14.62,0,0,1-1.49.58c-.16,0-1.45.19-1.45.19l-2-.25L54,87l-1.68-1.06-1.85-.56-1.33.11-1.6.08-.76-.48-1.53-.58-1.44-.19-1.56.55L41,85.05,38.72,85h-1L37,84.61l-.36-.81.08-1,.52-.94,1.21-.55.68-.59v-.66l-.61-.51-.68-.4-1.16-.47L35.54,78l-1-.83L33.62,76l-1.16-1.2a7.2,7.2,0,0,1-1-1.1V72.6l.51-.29.81-.45.12-.65s.44-.73.6-.73a7.12,7.12,0,0,1,.92.25l.24.63.4.14.53-.19-.09-.83-1.12-.91-.8-.41a10.11,10.11,0,0,1-.76-.84l-.65.08-.79.36-.53.15-.72.11-1.08.47L28.56,71l-.52.69a6.08,6.08,0,0,1-.68.55L26.12,72l-.8-1.24-.8-.76-1.69-.81-1.49-.47s-1-.47-1.08-.58-.84-.7-.84-.7-1-.87-1.17-1-.88-.36-.88-.36.12-.66.24-.7.84-.29.89-.43a.89.89,0,0,0-.37-.66,7.57,7.57,0,0,0-1.23-.44h-.73l-.44-.59.29-.76.71-.3.64-.83v-.85l-.47-.69a6.8,6.8,0,0,0-1-.73H14.65l-1-.58-1-.55-1.4-.4L10.71,57l-1.4-1.17-1.84-2v-.55l-.32-.88L6.94,51.2l.65-1.65-.65-1.16-1-.44-.81-1.5-1.57-1.1-1.12-1-1.25-.81-.95-1L0,42.12l.45-.52L1.89,41H3.61L4.7,40.5l1-.81.48-.54,1.28-.37,2.21.4,1.37,0,1.16-.37.89-1.35.76-1.38.52-1.76.32-1.06,1-1.42.72-.29.88-1.1L18.13,29a10.47,10.47,0,0,1,.12-1.28c.09-.18.69-1.71.69-1.71L19.7,25l.73-1.79.8-1.28,1.36-2.15.92-1.64.44-1.4,1-1.34.53-.63,1.33-1,.64-1.39L28,11.21l1-1,1.89-.4,1-.25.72-.33,1.28-.4,1.4-.19,1-.87L37,7.06l.52-.3.05-1,.19-1,.6-.22.65.62.64.11.64-.73.61-.81-.09-.59L41.52,3l1.41.48.16.4.4-.18.52.4.84.62.61.44.63.4L47.34,6l1.08-.06.52-.63.56-.11,1,.08.48.21,1.4.33.45.18,1.52.7,1.41-.15,1.11.11,1.41.15.52-.18,1.08-.23h.69l1,.34.65.91.91.62.93.55.64.47.72.48.84.69,1.33.25,1.29-.43,1-.48,1.13-1L71.61,8l.72-.63L74,7.31l1.69-.08L78,7.06l1.4-.34,1.48-.62,2-.07,1.36-.37,1.49-.88.6-.83.36-.69L87,2.6a6.31,6.31,0,0,1,.61-.77c.12-.08,1.84-.69,1.84-.69l.93-.4.79-.33L92.39.18,93.47,0h.72L95,.63l.8,1,1,1.2.84,1.09L98.37,5,99.89,6.5,101,10l.89,1.43,1.28,1.86L104.5,15s.32,1,.44,1a7.75,7.75,0,0,1,.8,1.32l-.07.88.8.36,1.2.66.16.87v1.1l.73.62.8.22.16.84.6.8.69.66,1,.18.71.58.81,1.1.07.87.13,1.17.44,1.17.88,1.17.16.8-.32,2,.16.95.32.58s0,.84,0,1a7.2,7.2,0,0,1-.36.88l-.4,1.35v1.06l-.12.91-.64,1.25-.41,1.09v2.3l.33.95.16.87,0,.7.32.69.36.63.32.8-.23,1.17-.77.91s-.28.29-.28.4a3.24,3.24,0,0,0,.28.61l.64.26.48.51.41.7.88,1v.91l.08.66.76.62,1,.36,1.85.66.88.33.92.44L123,59h1.12l1.16-.76,1.33-1,.8-.47.92-.74.56-.69,1.49-.48,1.36-.22,1.92.05,1.29.43,1,.91.8,1,.29,1.1-.24,1.1-.81.22-.16.47.44.44,0,.73-.32,1-.2.62v.55l0,1.78-.56.85-.81.51-.88.29-1,.22-.88,0-1.24,0-.6.18-.65.11-.63.33-.57.36-.53.74-.64.47-.39-.37-.17-.61.85-.41.44-.25.68-.48.16-.51-.08-.47-.53-.26-.32.37-.23-.08-.24-.88.12-.69.48-.33v-.69l-.52-.44-.56.29v.63l-.45-.29-.71-.23-.37.33-.24.55v.62l.08.65.53.52.15.7v.69l-.72.36-.44,0-.48.58H123l-.44.11,0,.48.48.26.16-.19.28,0,0,.8.73-.4.52-.37v-.44l.24,0,0,.8-.72.66-.24.47-.44.55-.28.55,0,.76.61-.32.44-.55.24-.47.2.22V72l-.6.7-1,1.13-.59.59-.17.76-.59.41-.32.47,0,1,.24,1.21.08.59-.4.54-.28.84.28.7a1.71,1.71,0,0,1,0,.4c0,.26,0,1.06,0,1.06l-.4,1-.24.91-.24.55-.24.65Z"/></clipPath></defs><g id="katman_2" data-name="katman 2"><g id="katman_1-2" data-name="katman 1"><path class="cls-2" d="M127.23,93.76l-.77-.07-1.88-.15-1.45-.11-1.67-.1a11.17,11.17,0,0,1-1.17-.45l-1.33-1a5.73,5.73,0,0,1-.19-.77,2,2,0,0,1,.19-.51v-.73l-.44-.65-.84-.08-.8.33-.56.4-.73.15a1.93,1.93,0,0,1-.64-.4,5.09,5.09,0,0,1-.32-.59l-1.89-.69h-1.59L109.94,88l-1.56-.55-1-.73-1.74-.62-1.92-.07L102,86.2l-1.6.22-1.93.37-.93.4-1.08.4-1.57.58-1.15.41-1.93.58L90.28,90.4l-1.16,1.43-1.45,1-1.88,1-2.21.84-1.72.43-1.93-.21a5,5,0,0,1-1-.37c-.08-.11-.92-.73-.92-.73l-2.73-.33L74,93.62l-.77.37L71,93.91l-1.2-.37H67.7l-.84.33a14.62,14.62,0,0,1-1.49.58c-.16,0-1.45.19-1.45.19l-2-.25L61,94l-1.68-1.06-1.85-.56-1.33.11-1.6.08-.76-.48-1.53-.58-1.44-.19-1.56.55L48,92.05,45.72,92h-1L44,91.61l-.36-.81.08-1,.52-.94,1.21-.55.68-.59v-.66l-.61-.51-.68-.4-1.16-.47L42.54,85l-1-.83L40.62,83l-1.16-1.2a7.2,7.2,0,0,1-1-1.1V79.6l.51-.29.81-.44.12-.66s.44-.73.6-.73a7.12,7.12,0,0,1,.92.25l.24.63.4.14.53-.19-.09-.83-1.12-.91-.8-.41a10.11,10.11,0,0,1-.76-.84l-.65.08-.79.36-.53.15-.72.11-1.08.47L35.56,78l-.52.69a6.08,6.08,0,0,1-.68.55L33.12,79l-.8-1.24-.8-.76-1.69-.81-1.49-.47s-1-.47-1.08-.58-.84-.7-.84-.7-1-.87-1.17-1-.88-.36-.88-.36.12-.66.24-.7.85-.29.89-.43a.89.89,0,0,0-.37-.66,7.57,7.57,0,0,0-1.23-.44h-.73l-.44-.59.29-.76.71-.3.64-.83v-.85l-.47-.69a6.8,6.8,0,0,0-1-.73H21.65l-1-.58-1-.55-1.4-.4L17.71,64l-1.4-1.17-1.84-2v-.55l-.32-.88-.21-1.23.65-1.64-.65-1.17-1-.44-.81-1.5-1.57-1.1-1.12-1-1.24-.81-1-1L7,49.12l.45-.52L8.89,48h1.72l1.09-.47,1-.81.48-.54,1.28-.37,2.21.4,1.37,0,1.16-.37.89-1.35.76-1.38.52-1.76.32-1.06,1-1.42.72-.29.88-1.1L25.13,36a10.47,10.47,0,0,1,.12-1.28c.09-.18.69-1.71.69-1.71L26.7,32l.73-1.79.8-1.28,1.36-2.15.92-1.64.44-1.4,1-1.34.53-.63,1.33-1,.64-1.39L35,18.21l1-.95,1.89-.4,1-.25.72-.33,1.28-.4,1.4-.19,1-.87.72-.76.52-.3.05-.95.19-1,.6-.22.65.62.64.11.64-.73.61-.81-.09-.59.76-.18,1.41.48.16.4.4-.18.52.4.84.62.61.44.63.4,1.25.36,1.08-.06.52-.63.56-.11,1,.08.48.21,1.4.33.45.18,1.52.7,1.41-.15,1.11.11,1.41.15.52-.18,1.08-.23h.69l1,.34.65.91.91.62.93.55.64.47.72.48.84.69,1.33.25,1.29-.43,1-.48,1.13-1,.64-.69.72-.63,1.68-.1,1.69-.08L85,14.06l1.4-.34,1.48-.62,2-.07,1.36-.37,1.49-.88.6-.83.36-.69L94,9.6a6.31,6.31,0,0,1,.61-.77c.12-.08,1.84-.69,1.84-.69l.93-.4.79-.33,1.21-.23L100.47,7h.72l.85.63.8,1,1,1.2.84,1.09.65,1.14,1.52,1.49L108,17.05l.89,1.42,1.28,1.86L111.5,22s.32,1,.44,1a7.75,7.75,0,0,1,.8,1.32l-.07.88.8.36,1.2.66.16.87v1.1l.73.62.8.22.16.84.6.8.69.66,1,.18.71.58.81,1.1.07.87.13,1.17.44,1.17.88,1.17.16.8-.32,2,.16.95.32.58s0,.84,0,1a7.2,7.2,0,0,1-.36.88l-.4,1.35v1.06l-.12.91-.64,1.25-.4,1.09v2.3l.32.95.16.87,0,.7.32.69.36.63.32.8-.23,1.17-.77.91s-.28.29-.28.4a3.24,3.24,0,0,0,.28.61l.64.26.48.51.41.7.88,1v.91l.08.66.76.62,1,.36,1.85.66.88.33.92.44L130,66h1.12l1.16-.76,1.33-1,.8-.47.92-.74.56-.69,1.49-.48,1.36-.22,1.92.05,1.29.43,1,.91.8,1,.29,1.1-.24,1.1-.81.22-.16.47.44.44,0,.73-.32,1-.2.62v.55l0,1.78-.56.85-.81.51-.88.29-1,.22-.88,0-1.24,0-.6.18-.65.11-.63.33-.57.36-.53.74-.64.47-.39-.36-.17-.62.85-.41.44-.25.68-.48.16-.51-.08-.47-.52-.26-.33.37-.23-.08-.24-.88.12-.69.48-.33v-.69l-.52-.44-.56.29v.63l-.45-.29-.71-.23-.37.33-.24.55v.62l.08.65.53.52.15.7v.69l-.72.37-.44,0-.48.58H130l-.44.11,0,.48.48.26.16-.19.28,0,0,.8.73-.4.52-.37v-.43l.24,0,0,.8-.72.66-.24.47-.44.55-.28.55,0,.76.61-.32.44-.55.24-.47.2.22V79l-.6.7-1,1.13-.59.59-.17.76-.59.41-.32.47-.05,1,.24,1.21.08.59-.4.54-.28.84.28.7a1.71,1.71,0,0,1,0,.4c0,.26,0,1.06,0,1.06l-.4,1-.24.91-.24.55-.24.65Z" transform="translate(5.09 18.72)"/><g class="cls-3"><path class="cls-4" d="M99.62,69.23c-.75-.25-.34-.94-.56-1.4.1-3.45-.82-6.75-1.4-10.1C96.3,49.83,94.87,41.92,93.55,34c-.27-1.6-1-3.14-.8-4.81-.73-.81-.47-1.78-.49-2.7a17.13,17.13,0,0,1-.8-5.56,11,11,0,0,1-3.2-1.53c.69-.89,1.82,0,2.38-.88-.18-1.53-.37-3.06-.55-4.6-1,.06-2.21,1.71-2.79.26-.5-1.27,1.31-1.19,2.18-1.57l.59-.27c-1.12-2-.78-4.26-1.52-6.31-2.15.31-4.38-.19-6.38,1.38-1,.84-2.72.39-4.12.19-1,.54-1.89,1.45-3.24.77.64-1.68,2.13-.95,3.18-1.3,1.11-1.4,3.41-.58,4.41-2.47-1.17-.88-2.79.84-3.78-.71,1.61.69,2.13-1.78,3.77-1.26,0-.45.12-.95.68-.84,1.57.32,2.71-1.1,4.29-1,.82.07,1.2-.78.61-1.64H27.39C28,2.6,28.51,6,29.07,9.48c1,5.82,2,11.66,3,17.48.77,4.29,1.68,8.55,2.42,12.84,1.25,7.14,2.36,14.29,3.61,21.43.72,4.09,1.56,8.13,2.37,12.2a5.82,5.82,0,0,1,.11,2.12c.62,3,1.25,6,1.87,9,1.24.93,2.86.07,4.35.84-1.4.63-2.76.22-4,.52,0,.84,0,1.67,0,2.51h9.45c1.08-1.14,1.53-1.25,2.71-.6.82.45,1-.6,1.64-.65,1.26-2.14,3.34-1.1,5.1-1.34.48-1.68,2.24-1,3.27-1.45,1.31-.51,2.84-1.36,4.42-1,.89.18.91-1.14,1.76-.85,2.11.33,3.92-1.27,6-1,.44-2.48-1.51-1.47-2.6-1.76-1.44,1.36-3.44,1-5.11,1.66-2.39,1.09-5,1.45-7.45,2.48-1.35.59-3.09.27-4.66.35,0,.35,0,.7-.49.64s-.51-.35-.51-.72a.56.56,0,0,1-.35-.11,2.85,2.85,0,0,0-.84.1c-.5.2-.79,1.18-1.53.45-.18-.18-.37-.55-.3-.74.28-.77,1-.62,1.61-.6a4.69,4.69,0,0,1,.64.09,7.64,7.64,0,0,1,4.41-1c1.59.07,3.05-.79,4.59-1.15a14.84,14.84,0,0,1,3.72-.57c2-.88,4.19-1,6.27-1.63,1.45-.42,3-1.36,4.33-1.13,2.82.48,5-2.75,7.81-1.15a.73.73,0,0,0,.59-.08c2.68-2,6.16-2.26,9-3.88a20.14,20.14,0,0,0,4.06-2.37C99.6,70.41,99.59,69.83,99.62,69.23ZM88.24,11.55a3.58,3.58,0,0,1-3.16.1A3.65,3.65,0,0,1,88.24,11.55Zm-1.59,4.29a4.36,4.36,0,0,1-3.73.09A4.79,4.79,0,0,1,86.65,15.84ZM73.7,5.3c.28,0,.66-.22.82-.1.62.48,1.34-1.16,1.62-.06.32,1.29-1,.65-1.6,1-1.06,1-2.15,2.05-4.14,1.32C71.55,6.46,72,5,73.7,5.3ZM88,54.2c-.32,2.3-1.59,3.93-3.83,4.28l0,0-.44.43c-2,.84-3.66,2.62-6.11,2.11l-.2,0c-.75.76-1.83.78-2.73,1.2-.4.38-.86.82-.52,1.43,1.22,2.28-.36,3.18-2,3.66a8.69,8.69,0,0,0-2.72,1c-.18.12-.5.34-.54.3-1.5-1.48-3.21.37-4.77-.35-.87-.4-1.79-.52-1.21-1.9.25-.62-.26-1.34-.61-2-1.67.09-3.38-.24-5,.37a9.64,9.64,0,0,1-6.49,0c-.63-.48-1.79-.11-2-1.23-2.57-1.39-3.43-3.19-2.7-5.86a4.09,4.09,0,0,0,.25-1.42v0l-.4-.39c-2.14-.4-.82-1.44-.44-2.3a.27.27,0,0,1,0-.25c0-.59.26-1,.81-.9,1.09.13,1.36-.66,1.74-1.36.32-1.8-1.23-2.38-2.19-3.35-.6-1.5-2.41-2-3-3.47A5,5,0,0,1,44.15,37a5,5,0,0,0,2.91-2.16c-.12-.12-.23-.25-.35-.38l-.43-.47c-.43-.32-.86-.64-1.28-1-1.26-.6-1.9-1.47-1.33-2.91,1.33-3,5.25-4.72,8.06-3.44.77.35,0,.84.12,1.25.54,1.86,2,.61,3.06.93v0l.42-.4a1.9,1.9,0,0,0-.24-2.67,2.52,2.52,0,0,1-.25-3.29c.78-1.26,2.11-1.2,3.23-.72a5.39,5.39,0,0,0,4.52.25l.44-.14c.94-.6,1.83-1.3,3.06-1.13.14.11.28.22.43.32,1.15.34,1.15,1.29,1,2.17-.31,2.88-.25,2.95,2.61,2.85a3.73,3.73,0,0,1,1,.26c.67-.53,1.19-1.12.47-2-.48-.57-.66-1.17,0-1.69s1.28-1,2.09-.3l.51-.46a2.49,2.49,0,0,1,3,.07c.48.54,1.46.33,1.76,1.16l1.27.1c1.14,2.42-.9,3.83-1.77,5.61a2.89,2.89,0,0,0,3.19,1.38c.92-.19,2-.18,2.32,1.19,2.88,2.08,3,4.79.39,7.71.85,1.19.67,2-.75,2.63s-1,1.82-.64,2.8.61,1.68,2,1.14,1.19.74,1.27,1.56l.35.46-.73,1C86.51,50.52,88.34,51.86,88,54.2Zm-.48-32.37-1.25-.66c1-.68,2-.9,2.77-.08S88.71,22.44,87.54,21.83ZM77.25,81.56h0s0,0,0,0Zm-15.47,4.3h0v0Z" transform="translate(5.09 18.72)"/><path class="cls-5" d="M30-18.72c1.73,9.93,3.41,19.86,5.19,29.78,1.32,7.3,2.86,14.56,4.13,21.87,2.11,12.15,4,24.34,6.14,36.49,1.21,6.94,2.64,13.85,4,20.77a9.93,9.93,0,0,1,.19,3.6c-.47.06-.55-1.67-1.43-.16-2.87,5-6.87,8.53-12.9,8.78-4.5.19-8.23,3.4-12.77,3.08a12.65,12.65,0,0,0-8.89,2.39A10.91,10.91,0,0,1,8,110c-4.4.43-8.65,1.22-10.84,5.8-2.48.67-2.21-.93-2.21-2.54Q-5,51.63-5.06-10c3.18,1.53,5.4-1.14,8-2,5.81-1.92,11.46-3.68,17.06.36,1.3.93,2.11,1.28,3-.68,1.08-2.47,2.3-5.13,5.89-4.83C29.16-17.06,29.6-18.15,30-18.72Z" transform="translate(5.09 18.72)"/><path class="cls-6" d="M231.5,88.45H205.28c-.14-1-.21-2.12-.44-3.15-.71-3.17-.64-6.5-2-9.53-.72-1.56-1.62-3-3.46-3.15a8,8,0,0,1-3.2-1.08c-1.75-1-3.89-1.92-4.12-4.26-.21-2-1.29-3.42-2.36-4.91-.36-.5-1-1.26-1.56-.84-2.15,1.58-3.93.23-5.77-.55-2.75-1.16-6.08-1.78-8.06-3.74-2.24-2.2-4.43-1.92-6.77-1.69a2.72,2.72,0,0,1-2.41-.74c.49-.94-.22-1.37-.8-1.07-1.07.57-3.1-.66-3.26,1.65-.81.83-1.63,1.64-2.94,1.12-.51-.2-.76,0-1,.46-.8,1.73-2.15,1.48-3.57.91.48-.65,1.75,0,2.06-1.49l-17.69,2.92-.58-.51c-.09-2.39-1.71-.5-2.51-.89-.15-.27-.31-.28-.46,0l-.09.46-1.11.84c-1.79.36-3.58.7-4.35-1.64l.46,0c1.39-.39,3.05.46,4.25-.88,2.22.1,4.33-.63,6.49-.94.56-.08.76-1.13,1.41-.61,1.71,1.37,2.79-.08,4.07-.8-1.59-.13-3.2-.54-4.73.12A5.43,5.43,0,0,1,139,55c-.86.06-1-1-1.7-1a2,2,0,0,1,1.5-.76c2-.22,3.85-.78,5.87-.9a8.32,8.32,0,0,0,4.43-1.5c.32-1.16-.64-.37-.92-.61.19-1.71,2.78-1,2.87-2.77-1.95-.67-3.81-1.53-5.9-1.55-.07-1,.44-1.23,1.29-1.19.58,0,1.17,0,1.26-.79,1.66-.26,3.24-1.06,4.95-.89a3,3,0,0,0,2.91-1.43l.44.12c1,2.07,2.38,1,3.72.55a39,39,0,0,0,6.66-1.53c.78,0,.45-.68.6-1.06s-.05-.68.59-.49c1.28.38.52-1.17,1.24-1.45.25-.09.16-.59-.15-.63-1.13-.14-1.93.92-3.13.86-.84,0-.55,1-.63,1.54l-.88.07-2.15,0-2.21.17c-1.55-1.71-3.19-1-5-.27.9.63,2-.56,2.57.56a.44.44,0,0,1-.28.27,2.25,2.25,0,0,0-1.47.88c-.86-.15-1.82.51-2.6-.33,0-.46-.17-.82-.7-.87a.8.8,0,0,0-1,.78h-.82c-.8-1.11.15-1.31.86-1.54a32.17,32.17,0,0,1,9.37-1.45c4.15-.07,8-1.78,12-2.72.07.3,0,.74.44.76s.46-.53.6-.86l.73.28.1,1c-.66,1.33-2.27.1-3,1.11-.08-.5-.2-1-.8-1.1s-.53.38-.49.74c.07.72.55.7,1.09.55h.07c.14,1.55-1.59,1.7-2.08,2.78-.66,0-.88.67-1.41.83s-.72.41-.48.92.51.85,1.11.78a.78.78,0,0,0,.76-.84c0-.56,0-1.12,0-1.68.94.09.85.8.86,1.44,0,1,.62,1.42,1.54,1.86-.67-2.51-.67-2.51,1.61-3-.77,1.77.2,1.39,1.27,1.08.5-.15,1.35-.31,1.45.42.15,1.14-.75.36-1.18.49s-1,.18-1,1.11a30,30,0,0,0,6.19.64c3.94-.24,8-.83,11.77,1.15,2.21,1.14,4.57,2,6.88,3,.79.32,1.67.72,2-.62.16-.6.29-1.42,1.09-1.4s1.19.8,1.54,1.55c1,2.24,1.89,4.67,3.38,6.59a44,44,0,0,0,5.92,5.56c.55.48,1.43,1.21,2,.28,1.18-1.86,1.87-.56,2.72.23a26.3,26.3,0,0,1,3.36,4.15,2.12,2.12,0,0,1,.17,2.74c-.7,1-.34,1.48.54,2.07A12.61,12.61,0,0,0,226,71.72c1.09.22,2.31.63,2.41,1.81a15.2,15.2,0,0,0,2.71,7.27,3.49,3.49,0,0,1,.41,2.07C231.49,84.73,231.5,86.59,231.5,88.45ZM165.7,42.84c0-.31-.23-.65-.46-.51a2.52,2.52,0,0,0-1,1c-.13.3.3.4.57.41C165.48,43.77,165.74,43.43,165.7,42.84Z" transform="translate(5.09 18.72)"/><path class="cls-7" d="M185.09,24.11c.79,1.63,2.7,1.48,4-.31a6.31,6.31,0,0,0,5.35-.63c2.26,0,4.54.41,6.51-1.25.51-.43,1.43-.87,1.79.48.16.59,4.5,1.13,4.64.64.23-.76-.45-1.82.91-2.17.77.57.32,1.42.4,2.14.23,1.85,1.32,3.39,3,3.45,2.94.09,5.38,1.38,7.89,2.46a134.46,134.46,0,0,1,18.29,10.16c5.54,3.5,10.05,8.14,15,12.25,3.11,2.56,5.05,6.15,7.41,9.35A31.3,31.3,0,0,1,264,66,36.2,36.2,0,0,0,268.51,74c1.06,1.3,1.08,3.65,1.12,5.53.06,3,.62,5.93,1,8.89H250.4c-.53-4.65-1.09-9.27-2.93-13.66a56.55,56.55,0,0,1-3-8.81c-.82-3.53-1.76-6.2-6-7.36-4-1.12-7.95-3.35-8.78-8.37a3.24,3.24,0,0,0-2.62-2.54,30,30,0,0,1-12.25-7.09A4.27,4.27,0,0,0,212,39.47,9.51,9.51,0,0,1,207.2,38c-1.87-1.21-3.56-3.07-6-3.18a35.22,35.22,0,0,1-8.14-1.58c-2.62-.76-5.21-1.77-8.09-1.08a3.88,3.88,0,0,1-4.66-2.13c-.43-1.45,1.23-2,1.52-3.16-.69-.38-1.08,0-1.52.2-1,0-2.23,1.21-3-.44a3.1,3.1,0,0,1,3.06-1.37c1.66.06,3-1.36,4.66-1.21Z" transform="translate(5.09 18.72)"/><path class="cls-8" d="M180.35,30.05A3.88,3.88,0,0,0,185,32.18c2.88-.69,5.47.32,8.09,1.08a35.22,35.22,0,0,0,8.14,1.58c2.4.11,4.09,2,6,3.18A9.51,9.51,0,0,0,212,39.47a4.27,4.27,0,0,1,2.85,1.15,30,30,0,0,0,12.25,7.09,3.24,3.24,0,0,1,2.62,2.54c.83,5,4.75,7.25,8.78,8.37,4.22,1.16,5.16,3.83,6,7.36a56.55,56.55,0,0,0,3,8.81c1.84,4.39,2.4,9,2.93,13.66H231.5c0-1.86,0-3.72,0-5.58a3.49,3.49,0,0,0-.41-2.07,15.2,15.2,0,0,1-2.71-7.27c-.1-1.18-1.32-1.59-2.41-1.81a12.61,12.61,0,0,1-4.66-2.07c-.88-.59-1.24-1.11-.54-2.07a2.12,2.12,0,0,0-.17-2.74,26.3,26.3,0,0,0-3.36-4.15c-.85-.79-1.54-2.09-2.72-.23-.59.93-1.47.2-2-.28a44,44,0,0,1-5.92-5.56c-1.49-1.92-2.34-4.35-3.38-6.59-.35-.75-.65-1.54-1.54-1.55s-.93.8-1.09,1.4c-.35,1.34-1.23.94-2,.62-2.31-1-4.67-1.81-6.88-3-3.8-2-7.83-1.39-11.77-1.15a30,30,0,0,1-6.19-.64c0-.93.58-1,1-1.11s1.33.65,1.18-.49c-.1-.73-.95-.57-1.45-.42-1.07.31-2,.69-1.27-1.08-2.28.51-2.28.51-1.61,3-.92-.44-1.52-.88-1.54-1.86,0-.64.08-1.35-.86-1.44h0c.49-1.08,2.22-1.23,2.08-2.78,2.69,1.24,3.14,1.14,5.56-1.3h-2.38l-.1-1c1.27-.3,2.76-.14,3.67-1.66a4.1,4.1,0,0,0-4.58,1.25c-.26-.35-.26-.85-1.05-.66-2.18.51-4.41.32-6.67.79-2.92.6-6.11.08-9.1,1.07-.7.23-1.18-.07-1.49-.8-.41-1,.52-.78.86-1.08a4.2,4.2,0,0,1,2.4-.76c2.4-.33,4.8-.61,7.17-1.09,3-.6,5.92-1.49,9-1.45C176.55,30.92,178.57,31.34,180.35,30.05Z" transform="translate(5.09 18.72)"/><path class="cls-9" d="M177.78,88.45h-76c0-1.5,0-3,0-4.51,0-.63-.09-1.46.83-1.44,2.56,0,2.6-1.67,2.61-3.48,0-4.07,0-4.07,3.92-3.88.29,0,.58,0,.86,0,1.85.13,2.61-.77,2.53-2.57-.06-1.57,0-3.15,0-4.72h.85c.67.36,1.27,1.15,2.11.83,2.61-1,2.64.52,2.67,2.42,0,1.66.71,2.63,2.75,2a17.3,17.3,0,0,0,5.25-2.78c.78-.58,1.41-1.43.71-2.38s-.54-2-.59-3.07h1.72c.44,2,.43,2,1.92.75a.88.88,0,0,1,.75-.2c1,.53,1.77-.26,2.63-.33,1.74-.12,3.83-.56,5,1.1a3.48,3.48,0,0,0,3.13,1.71c3.41.1,6.82.23,10.22.52a2.56,2.56,0,0,0,2.26-.49c1.31-1.08,3-.5,4.53-.38,1.26.11.77,1.23.73,2,0,.22.46.49.74.67a48.48,48.48,0,0,0,10.79,5.12c4.86,1.59,7.17,4.52,7.17,9.66Z" transform="translate(5.09 18.72)"/><path class="cls-6" d="M177.78,88.45V85c0-5.14-2.31-8.07-7.17-9.66a48.48,48.48,0,0,1-10.79-5.12c-.28-.18-.75-.45-.74-.67,0-.82.53-1.94-.73-2-1.5-.12-3.22-.7-4.53.38a2.56,2.56,0,0,1-2.26.49c-3.4-.29-6.81-.42-10.22-.52a3.48,3.48,0,0,1-3.13-1.71c-1.14-1.66-3.23-1.22-5-1.1-.86.07-1.63.86-2.63.33a.88.88,0,0,0-.75.2c-1.49,1.28-1.48,1.29-1.92-.75,2-.27.75-1.56.76-2.45.81-.56,1.8-.34,2.67-.61,3.83-1.17,7.9-.19,11.78-1.69,3.27-1.26,6.92-1.51,10.4-2.21,1.42.57,2.77.82,3.57-.91.22-.48.47-.66,1-.46,1.31.52,2.13-.29,2.94-1.12,1.46.6,2.67-.65,4.06-.58a2.72,2.72,0,0,0,2.41.74c2.34-.23,4.53-.51,6.77,1.69,2,2,5.31,2.58,8.06,3.74,1.84.78,3.62,2.13,5.77.55.58-.42,1.2.34,1.56.84,1.07,1.49,2.15,2.92,2.36,4.91.23,2.34,2.37,3.26,4.12,4.26a8,8,0,0,0,3.2,1.08c1.84.18,2.74,1.59,3.46,3.15,1.39,3,1.32,6.36,2,9.53.23,1,.3,2.1.44,3.15Z" transform="translate(5.09 18.72)"/><path class="cls-10" d="M277.47,47.67c-2.13,0-2.72-1.72-3.25-3.21a8.69,8.69,0,0,0-4.67-5c-4.48-2.21-8.56-4.87-11-9.42-.51-.94-1.19-1.66-2.39-.77a2.1,2.1,0,0,1-2.75-.22,47,47,0,0,0-8.67-5.46,1.09,1.09,0,0,1-.51-.37c-2.49-4.28-7.38-4.4-11.19-6.33-1.58-.81-3.28-2.51-5.44-1.18-.5-1.66-2.35-1-3.35-2s-2.21-1.65-2.83.56c-.14.5-.71,1.47-1.59,1-1-.54-.22-1.28.12-1.77,1.07-1.52.35-2.22-1.06-2.76s-2.87-1.29-4.52-.54a2.74,2.74,0,0,1-2.08-.23c-2.88-1.06-5.76-2.1-8.65-3.14-4-1.44-8.35-1.77-12.26-3.61a5.48,5.48,0,0,0-3.17-.16C183.5,4,179,2.7,174.44,2.15A57.56,57.56,0,0,0,167,1.3C160.9,1.35,154.82.54,148.72,0c-.58,0-.95-.25-1-.85h67.47c-.1,1.16.49,1.54,1.6,1.79,4.35,1,8.74,1.86,13,3.19,5.49,1.71,10.43,4.87,16.05,6.29a3.21,3.21,0,0,1,1.3.72c2.29,2.11,5.12,3.27,7.91,4.49,2.15.94,4.45,1.62,6.17,3.3a12.23,12.23,0,0,0,7.29,3.65,2,2,0,0,1,1.81,1.29c1.18,3.4,4.22,4.09,7.18,4.89Z" transform="translate(5.09 18.72)"/><path class="cls-11" d="M277.47,28.78c-3-.8-6-1.49-7.18-4.89a2,2,0,0,0-1.81-1.29A12.23,12.23,0,0,1,261.19,19c-1.72-1.68-4-2.36-6.17-3.3-2.79-1.22-5.62-2.38-7.91-4.49a3.21,3.21,0,0,0-1.3-.72C240.19,9,235.25,5.86,229.76,4.15c-4.25-1.33-8.64-2.21-13-3.19-1.11-.25-1.7-.63-1.6-1.79q30.33,0,60.66,0c1.24,0,1.7.16,1.69,1.59C277.43,10.08,277.47,19.43,277.47,28.78Z" transform="translate(5.09 18.72)"/><path class="cls-4" d="M112.47,67.85c0,1.57,0,3.15,0,4.72.08,1.8-.68,2.7-2.53,2.57-.28,0-.57,0-.86,0-3.9-.19-3.91-.19-3.92,3.88,0,1.81,0,3.53-2.61,3.48-.92,0-.82.81-.83,1.44,0,1.51,0,3,0,4.51H66.06c0-1.21.94-.79,1.55-.86.84-.1,2,.22,2.5-.22,2.28-1.9,5.89-1.13,7.7-4,.26-.41,1.24-.49,1-1.3s-1.06-.37-1.62-.5c.48-2.53-1.51-1.52-2.59-1.8,0-.23,0-.47,0-.7,1.46-.42,3-1.37,4.34-1.14,2.82.48,5-2.74,7.82-1.15a.67.67,0,0,0,.58-.07c2.68-2,6.15-2.27,9-3.87a21,21,0,0,0,4.07-2.38c2-.39,4-.61,5.58-2.15.32,0,.6.65.79.3s.33-1.06-.63-1.1-2.34-.24-.64-1.54l1-.17c.92.28,1.89.86,2.52-.46l.94-.09h3.53l.1.62c-1,.42-1.68,1.75-3.26,1a1.29,1.29,0,0,0-1.56.06,1.05,1.05,0,0,0,0,1c.36.56.87.13,1.34.07C110.9,67.89,111.69,67.89,112.47,67.85Zm-4.72-.64c-.39.05-.4.35-.41.63s0,.62.4.62.4-.33.4-.62S108.13,67.26,107.75,67.21Z" transform="translate(5.09 18.72)"/><path class="cls-12" d="M29.07,9.47c-.23.34-.49,1-.69,1-2.11-.18-2.82,1.39-3.46,2.84-.5,1.15-1,1-1.74.4-3.29-2.37-6.6-1.34-10-.22-1.5.5-2.81,2.07-4.68,1.17,0-4.8,0-9.59,0-14.38,0-.92.17-1.11,1.1-1.1,5.94,0,11.89,0,17.83,0Z" transform="translate(5.09 18.72)"/><path class="cls-12" d="M9.77,88.45c1.29-2.7,3.78-3.16,6.37-3.41a6.51,6.51,0,0,0,3.36-1.22,7.36,7.36,0,0,1,5.21-1.4c2.67.18,4.86-1.7,7.51-1.81,3.53-.15,5.88-2.25,7.57-5.16.51-.88.56.13.84.09q.93,4.51,1.87,9c-.58.63-.38,1.07.34,1.37l0,2.51H37.7a.85.85,0,0,0-.46-.87c-.4-.68-.79-.33-1.19,0-.81.22-1.81-.53-2.45.49l-.19.37H30c-.15-.26-.25-.61-.47-.76-2.06-1.36-3.76,0-5.55.76H17.08c-.29-.44-.58-.44-.86,0Z" transform="translate(5.09 18.72)"/><path class="cls-4" d="M77.22,81.6c.56.13,1.38-.39,1.62.5s-.77.89-1,1.3c-1.81,2.84-5.42,2.07-7.7,4-.53.44-1.66.12-2.5.22-.61.07-1.55-.35-1.55.86h-6c.11-.8-1.08-.85-1-1.65.83-.52,2.31.84,2.69-.94l0,0c1.6.2,3.3-.47,4.84.73a1.25,1.25,0,0,0,2.08-.78c.43-2.4,1.24-2.64,3.37-1.12,3,1.08,3.87-1.44,5.21-3.15Z" transform="translate(5.09 18.72)"/><path class="cls-4" d="M59.09,86.8c-.12.8,1.07.85,1,1.65H52.31c1.07-1.14,1.54-1.25,2.71-.6.82.46,1-.6,1.63-.64Z" transform="translate(5.09 18.72)"/><path class="cls-11" d="M24,88.45c1.79-.73,3.49-2.12,5.55-.76.22.15.32.5.47.76Z" transform="translate(5.09 18.72)"/><path class="cls-10" d="M33.6,88.08c.64-1,1.64-.27,2.45-.49l.74.23-.56.29-.25.34H34.26A.53.53,0,0,0,33.6,88.08Z" transform="translate(5.09 18.72)"/><path class="cls-5" d="M36.23,88.11l.56-.29.45-.24a.85.85,0,0,1,.46.87H36.41A.46.46,0,0,1,36.23,88.11Z" transform="translate(5.09 18.72)"/><path class="cls-5" d="M16.22,88.45c.28-.44.57-.44.86,0Z" transform="translate(5.09 18.72)"/><path class="cls-12" d="M33.6,88.08a.53.53,0,0,1,.66.37h-.85Z" transform="translate(5.09 18.72)"/><path class="cls-12" d="M36.23,88.11a.46.46,0,0,0,.18.34H36Z" transform="translate(5.09 18.72)"/><path class="cls-9" d="M182.37,22.27l-1.15-.64-2.56-.16a1.63,1.63,0,0,1,1.76-.77l2,0,.53,0c.6-1.46,2.17-.63,3.1-1.33a1,1,0,0,1-.56-.93v-.12l-.36-.14-1.38,0c-1.32,1.17-2.78.74-4.24.36-.25-.16-.67,0-.79-.41h-.53c-.16.44-.51.34-.85.31a4.27,4.27,0,0,1-3.92,1.14c.52-.75,1.16-1.28,1-2.13-2.38,1.36-5.14.61-7.7,1.28a53.48,53.48,0,0,1-7.7,1.14c-4,.39-7.92,2.05-12,1.7-2.18-.19-4.09.9-6.19.74-2.1.83-4.47.18-6.55,1.24-.63.31-1.19-.21-1.58-.78l-1.27-.06c-2.63.08-4.91,2-7.7,1.41a4.35,4.35,0,0,0-2,.46,6.38,6.38,0,0,1-4.06.42c-.5-.15-1.4,0-1.32-.68a1.86,1.86,0,0,1,1.32-1.53c4.8-.93,9.63-1.8,14.36-3.08.11-.41.46-.41.78-.44-.25-1.13.81-.76,1.25-1.08l.74-.21.6-.77c0-.14,0-.3-.06-.44-.38-.12-.68-.5-1.16-.36-2.74.81-2.74.8-3.6-2.2-2.27-.34-1.74,1.27-1.76,2.51-.1.12-.21.33-.34.36s-.36-.12-.29-.37c-.18-.12-.37-.24-.56-.38-1.19,1.6-2.54,1.88-3.87.83-3,.94-5.54-1.17-8.48-1s-6.09.21-9.12.57c-1.07,1.13-2,2.46-3.91,2.06-1.37-.29-2.67,1.7-4.2.13-.22-.22-1.16,1.29-2.22.73L94.29,20a3.58,3.58,0,0,0,.08.49c-.06.34-.28.71-.37,1.06a.68.68,0,0,0,.09.74.78.78,0,0,0,.31.23,3.57,3.57,0,0,0,.93.23c-2.61.23-1.14,3.21-3.07,3.72,0,.92-.24,1.89.49,2.7,1.24,1.86,2.51,1.27,3.79,0a1.16,1.16,0,0,1,1.59-.3c1.89.84,5.28.08,6-1.66.37-.85,1.13-1.43,1.28-2.16.32-1.72-1.54-.61-2.22-1.48.79-.57,1.88-.76,2.41-1.7.28-.49.81-.87.39-1.5s-.68-1.35.51-1.5c1-.11,1.7,0,1.65,1.31-.15,3.58,1.06,7.65-1.08,10.58s0,3.54,1.2,4.89c1,1.13,1.07,2.6,1.45,3.87a6.12,6.12,0,0,0,3,3.79,12.43,12.43,0,0,1,2.93,2.48c1.53,1.6,3.15,2.62,5.43,2.25a1.34,1.34,0,0,1,1.2.34c.43,0,1.15-.67,1.18.44,1.13.93,1.6,4.24.44,5.19-1.33,1.08-1.7,3.23-3.89,3.45a2.7,2.7,0,0,0-.79,2.55l.4.14a21.68,21.68,0,0,1,6.94-1.93,2.62,2.62,0,0,1,2.19-.7l.46,0c.19-.56.85-1.21.12-1.71s-1.31.64-2.14.63c.4-1.29,1.61-.75,2.4-1.05,1.45-.54,3-.88,4.48-1.28.42-.11.89-.18,1,.4s-.11.79-.66.85c-.75.07-1.17.46-1,1.28,2.23.1,4.32-.63,6.49-.94.55-.07.76-1.13,1.4-.61,1.72,1.36,2.81-.07,4.08-.79-1.6-.13-3.2-.54-4.73.1A5,5,0,0,1,139,55c-.86.06-1-1-1.7-1a2,2,0,0,1,1.5-.77c2-.21,3.86-.79,5.87-.9a8.16,8.16,0,0,0,4.43-1.51c-.33-.05-.68-.08-1-.15a2.58,2.58,0,0,1-.44-.22l.54-.23c.19-1.71,2.79-1,2.87-2.78-1.95-.65-3.82-1.52-5.89-1.54-1.23.12-1.71,1.37-2.73,1.8-.82,1.91-1.61,1-2.41,0-1-.26-2-1.3-2.74.58-.41,1.05-1.84.06-2.93.46a11.82,11.82,0,0,1-5.09,1h-2.08c1.24-.35-.6-2.3,1.23-2.39h.79c.89-.52,1.75.51,2.64,0,2.26-.35,4.53-.7,6.79-1l.49-.1.54-.24.36-.32a.56.56,0,0,1,.4-.1c.62-.54,1.24-1.12,2.19-.77,1.84.47,3.32-1.06,5.09-.93,1.66-.26,3.25-1.06,4.95-.9a3,3,0,0,0,2.91-1.42l0-.18a.13.13,0,0,1-.07-.19c-.86-.16-1.82.51-2.6-.34l-.18,0-.19,0c-.73.49-1.45.82-2.15-.07-.8-1.11.15-1.31.87-1.53a31.73,31.73,0,0,1,9.36-1.46c4.15-.08,8-1.78,12-2.72.24-.21.47-.46.82-.32-.22-.33-.28-.75-1-.57-2.18.5-4.42.31-6.67.79-2.91.6-6.11.08-9.11,1.07-.69.24-1.17-.06-1.48-.79-.41-1,.51-.78.86-1.09a4.1,4.1,0,0,1,2.4-.76c2.39-.32,4.8-.61,7.17-1.09,3-.6,5.92-1.48,9-1.45a6.35,6.35,0,0,1,2.73-.33c.67,0,1.32,0,1.42-.89-.05-.58.41-.55.76-.68.13-.7,1.07-1,.86-1.86-1,0-2.22,1.21-3-.44-.4-.1-1,.13-1.15-.35s.24-.72.6-1c1.19-.79,2.2-1.87,4-1,1.27.6,2.29-.73,3.45-1.13a2.17,2.17,0,0,0,0-.36C183.54,22.74,182.84,22.87,182.37,22.27ZM99.93,27.5a.59.59,0,0,1-.11-.54c.67-.61,1.38-.25,2.1,0C101.3,27.49,100.72,28.14,99.93,27.5Zm46.7,22.55c.39.39-.11.52-.44.57a7.53,7.53,0,0,1-.87-.06C145.83,50.16,146.19,49.61,146.63,50.05Zm-17.5,1.63.36.16a2.63,2.63,0,0,0-.15.35c-.12,0-.3-.08-.34-.16S129.09,51.8,129.13,51.68Zm10.23-13.61c.43-.41.87-.27,1.37-.15C140.25,38.4,139.79,38.1,139.36,38.07Zm7.51-1.31a2.38,2.38,0,0,1,2.64-.4A2.22,2.22,0,0,1,146.87,36.76ZM148.8,34a15,15,0,0,1-6.26.42c-1.62.55-3.34.09-5,.64-.84.28-2-.86-3.21-.45a.76.76,0,0,1-.25-.49c0-.16.26-.41.4-.41,1.17,0,2-1.06,3.2-1,3.4.2,6.67-.88,10-1.14.92-.07,1.39.07,1.29,1.06C150.73,33.33,149.41,33.74,148.8,34ZM152,35.43a.62.62,0,0,1-.27-.48,1.42,1.42,0,0,1,1.88-.43C153.1,35,152.91,35.85,152,35.43Zm-1.49-7.67a10.62,10.62,0,0,1,4.2-.11A10.79,10.79,0,0,1,150.49,27.76Zm6.61-5.15c-.07.06-.41-.12-.5-.26a.44.44,0,0,1,.34-.66c1.06-.13,2.17-.94,3.36.18C159.25,22.74,158,22,157.1,22.61Zm16.06,5.32a3.51,3.51,0,0,0-1.84.32l-.41.11a.42.42,0,0,1-.18.25c-1.14,1.15-2.58.31-3.85.55-.78-.24-1,.62-1.67.77a4.36,4.36,0,0,1-3.52-.48c1.88,0,2.49-1.82,4.1-1.5.46-.64,1.1-.42,1.71-.38l1.21-.11a18.27,18.27,0,0,1,4.39-.81c.38,0,1-.22,1,.39A.81.81,0,0,1,173.16,27.93Zm2.42-4.39c-1.9,1.09-2.42,1.17-5.42.61,1.46-.59,2.19-1.92,3.75-1.27,1.58-.43,3-1.55,4.72-1.38C178.75,23.86,177,23.52,175.58,23.54Zm-2.09,11.25-.09,0a.25.25,0,0,0,0,.09Z" transform="translate(5.09 18.72)"/><path class="cls-9" d="M94.52,11.58a1.87,1.87,0,0,0-.13.4l-1.66.1a5.34,5.34,0,0,0-2.66.26c-1.12-2-.78-4.26-1.52-6.31l2.93-1.19a.26.26,0,0,0,.36-.08l2.31.61c-1,1.74-3.49.9-4.44,3,2.17,0,4-.92,5.89-1.15,1.38-.16,2.33-1.79,3.92-1.09a.21.21,0,0,0,0,.24c-2.23,1.9-5,2.72-7.86,3.33A5.39,5.39,0,0,0,94.52,11.58Z" transform="translate(5.09 18.72)"/><path class="cls-13" d="M183,20.77c.59-1.47,2.17-.64,3.1-1.33,1.26.14,2.47-1,3.76-.15,1.13.21,3.18-.92,3.86-2.12h1.24c.22,2,1.6,1.55,3.19,1.8-.77-1.35-2.05-1-2.62-2.11l6.19-1.11c.16,1.39-.82,1.42-1.84,1.47-.61,0-1.67-.42-1.06,1.11.17.43-1.16,1.42-2.17,1.34a14.35,14.35,0,0,0-7.27,1.13c-1.85.9-3.34.39-5,.52l-1.49.14C182.91,21.24,182.94,21,183,20.77Z" transform="translate(5.09 18.72)"/><path class="cls-9" d="M277.47,47.67c-2.13,0-2.72-1.71-3.25-3.21a8.7,8.7,0,0,0-4.66-5c-4.5-2.2-8.57-4.86-11-9.43-.51-.93-1.2-1.65-2.39-.76a2.09,2.09,0,0,1-2.75-.22,47.37,47.37,0,0,0-8.67-5.46,1.17,1.17,0,0,1-.51-.37c-2.48-4.28-7.38-4.4-11.19-6.33-1.57-.8-3.27-2.51-5.44-1.18-.51-1.66-2.35-1-3.34-2s-2.22-1.65-2.84.56c-.14.49-.71,1.48-1.6,1s-.2-1.28.13-1.76c1.07-1.52.35-2.23-1.06-2.77s-2.86-1.28-4.52-.54a2.73,2.73,0,0,1-2.08-.23c-2.88-1.06-5.76-2.1-8.65-3.15-4-1.43-8.35-1.76-12.26-3.6a5.48,5.48,0,0,0-3.17-.16c-4.67.93-9.19-.38-13.74-.93A59.45,59.45,0,0,0,167,1.3C160.9,1.35,154.82.54,148.72,0c-.58,0-.95-.25-1-.86H88c.59.86.21,1.71-.61,1.64-1.58-.12-2.72,1.3-4.29,1-.56-.11-.64.39-.68.84a2.69,2.69,0,0,1-.5,1.22c2.48-1,5.39.36,7.54-1.75.39-.38.57.06.82.3.68.67.75,1.67,1.23,2.44a.26.26,0,0,0,.36-.08l2.31.61c-1,1.74-3.49.9-4.44,3,2.17,0,4-.92,5.89-1.15,1.38-.16,2.33-1.79,3.92-1.09a.21.21,0,0,0,0,.24c.29.78-.42,1.24-.62,1.94.73.26,1.77-.4,2.17.78-.58.85-2.29-.24-2.45,1.34l.18,2h-1c-1.13-.11-2.29.35-3.37-.28L94.39,12l-1.66.1c0,.3,0,.6,0,.89,1.58.1,3.17.18,4.76.31,1.38.11,1.8,1.4,2.63,2.2-.18.17-.35.35-.52.53l.46.31c-.58.7-1.38.36-2.09.44l-.58.72c-.18,1.21-.57,1.88-1.63.59l-.58,0L95,18l-1.38.18v.67l.78.12a1.34,1.34,0,0,1,1.34.77c1.06.56,2-.95,2.22-.73,1.53,1.57,2.83-.42,4.2-.13,1.88.4,2.84-.93,3.91-2.06,3-.36,6.08-.34,9.12-.57s5.52,1.9,8.48,1c.24-1,1-.83,1.76-.8l.8-.11c.48-.57.89-.1,1.31.08.19.14.38.26.56.38h.63c0-1.24-.51-2.85,1.76-2.51.81.18.78,1.09,1.42,1.8.37-1.21.8-2.12,2.07-2,.46,0,1.14.24,1,.49-.57,1.61,1,1.28,1.57,1.84,1.73-.14,3.27-1.36,5.11-.84h.86a.87.87,0,0,1,.85.43l2.6.85c.53.22,1,.43,1.77.75l-3.51.58a4.33,4.33,0,0,1-3.4,1.68c-.3.4-.59,0-.89,0,0,.49-.22.83-.81.74-.24,1.3.16,2,1.61,1.81,2.1.16,4-.93,6.19-.74,4.11.35,8-1.31,12-1.7a53.48,53.48,0,0,0,7.7-1.14c2.56-.67,5.32.08,7.7-1.28.79.91,1.94.75,3,1,.34,0,.69.13.85-.31.28-1.28,1.51-.31,2.07-.89l.93-.06c.53.11,1.21-.32,1.62.38a.23.23,0,0,1,.26,0c1.24-1.77,3.41-.68,5-1.59.79-.45,1.09,1.58,2.32,1.25l3.27-.1c.42-.55.83-.92,1.25,0,.23,2,1.61,1.56,3.2,1.81-.76-1.35-2.06-1-2.62-2.11l6.19-1.1c.16,1.39-.82,1.41-1.84,1.46-.6,0-1.67-.42-1.06,1.11.17.42-1.16,1.42-2.17,1.33a14.66,14.66,0,0,0-7.27,1.13c-1.85.91-3.34.41-5,.53l-1.49.14a.71.71,0,0,0-.5.8c.47.6,1.17.47,1.81.54.45.1,1.12-.72,1.36.33a2.33,2.33,0,0,1,1.61.81c-.7.5-1.4.06-2.06.16.79,1.63,2.69,1.48,4-.31h-.21c-.27,0-.23,0,0-.14,1.78-1.24,3.74-.33,5.61-.49,2.25,0,4.54.41,6.5-1.26.52-.41,1.43-.87,1.79.48.15.6,4.49,1.14,4.65.65.21-.75-.46-1.82.89-2.17.78.57.33,1.42.41,2.13.23,1.86,1.32,3.41,3,3.45,2.93.1,5.38,1.38,7.89,2.47a135,135,0,0,1,18.28,10.16c5.55,3.5,10.06,8.15,15.05,12.26,3.11,2.55,5,6.14,7.41,9.34A31.71,31.71,0,0,1,264,66,36.6,36.6,0,0,0,268.51,74c1.06,1.3,1.08,3.65,1.12,5.53.06,3,.62,5.93,1,8.89,1.78,0,3.59-.11,5.36,0,1.3.1,1.55-.26,1.55-1.53C277.45,73.86,277.47,60.76,277.47,47.67Zm-163.63-42c-.83,1-2.09.26-3-.91a2.49,2.49,0,0,0,1.63-1.33C113.43,3.93,114.78,4.57,113.84,5.69Zm-8.33,4.57a1.8,1.8,0,0,1-.54-.43c-.2-.29.13-.37.28-.34a1.18,1.18,0,0,1,.64.34C106.06,10.05,105.82,10.16,105.51,10.26Zm1.26.74c-.15-.08-.21-.31-.3-.48.11-.06.25-.19.33-.17a2.62,2.62,0,0,1,.57.39C107.07,10.88,106.85,11.05,106.77,11Zm1,2.58c.88-.72,1.23-1.6,2.15-1.91.11-.86-.52-2,1.08-2.26,1-.17,1.45.06,1.52,1,1,.12,1.76-.59,2.66-1.08C114.85,11.44,112.6,12.71,107.77,13.58Z" transform="translate(5.09 18.72)"/><path class="cls-9" d="M101.08,9.1c-.58.85-2.29-.24-2.45,1.34l-4.11,1.14a5.39,5.39,0,0,1-2.85-1.87c2.91-.61,5.63-1.43,7.86-3.33.29.78-.42,1.24-.62,1.94C99.64,8.58,100.68,7.92,101.08,9.1Z" transform="translate(5.09 18.72)"/><path class="cls-10" d="M134,18.21l.75-.22c.49,0,1.17.08.59-.77l-.06-.44,1.31.4c1.8-.32,3.76-.12,5.14-1.69h.87c.08.53.16,1.07.85.44l2.6.84c-.8.67-1.85.2-2.72.58-.72-.26-1.69-1.09-1.52.67l-.92.83c-1-.37-.9.33-.88.93h0c-.58-.32-.38-1.39-1.31-1.35-.17-.22-.3-.17-.41,0l0,0-.41.39c-.68.25-1.74-1.2-2.11.46-.77.1-1-.9-1.72-.86A1.28,1.28,0,0,1,134,18.21Z" transform="translate(5.09 18.72)"/><path class="cls-10" d="M140.77,22.32c-2.1.83-4.47.18-6.55,1.23-.63.32-1.2-.2-1.57-.77a4.18,4.18,0,0,1,1.19-.4c2.92-.09,3-.13,1.9-2.73,1,.21,2,1.45,3.14.33l.28.54C138.92,21.81,139.32,22.53,140.77,22.32Z" transform="translate(5.09 18.72)"/><path class="cls-9" d="M115.18,9.37c-.33,2.07-2.58,3.34-7.41,4.21.88-.72,1.23-1.6,2.15-1.91.68-.79,2.15.1,2.6-1.22C113.55,10.57,114.28,9.86,115.18,9.37Z" transform="translate(5.09 18.72)"/><path class="cls-13" d="M136.54,17.18l-1.31-.4c-.39-.13-.68-.5-1.16-.36-2.74.81-2.74.8-3.6-2.19.81.17.78,1.09,1.41,1.79.38-1.21.81-2.12,2.08-2,.45,0,1.14.24,1,.48-.57,1.62,1,1.29,1.57,1.85C136.57,16.61,136.56,16.9,136.54,17.18Z" transform="translate(5.09 18.72)"/><path class="cls-11" d="M185.14,18.24l-1.38,0L183,18l0-.43c1.25-1.77,3.42-.68,5-1.59.79-.46,1.08,1.59,2.31,1.25l-2.27.73a3.82,3.82,0,0,0-2.62.5v-.12Z" transform="translate(5.09 18.72)"/><path class="cls-9" d="M188.13,18l2.27-.73,3.29-.1c-.68,1.2-2.73,2.33-3.86,2.12C189.73,18.24,188.58,18.58,188.13,18Z" transform="translate(5.09 18.72)"/><path class="cls-9" d="M194.46,23.17a6.31,6.31,0,0,1-5.35.63h-.21c-.27,0-.23,0,0-.13C190.64,22.42,192.6,23.33,194.46,23.17Z" transform="translate(5.09 18.72)"/><path class="cls-13" d="M139.16,20.52l-.28-.54c-1.17,1.12-2.1-.12-3.14-.33a1.1,1.1,0,0,0,0-.31c.37-1.66,1.43-.21,2.11-.46l.41-.39,0,0a1.15,1.15,0,0,0,.41,0c.93,0,.73,1,1.31,1.35C139.93,20.26,139.74,20.6,139.16,20.52Z" transform="translate(5.09 18.72)"/><path class="cls-11" d="M113.84,5.69c-.83,1-2.09.26-3-.91a2.49,2.49,0,0,0,1.63-1.33C113.43,3.93,114.78,4.57,113.84,5.69Z" transform="translate(5.09 18.72)"/><path class="cls-11" d="M136.54,17.18c0-.28,0-.57,0-.85,1.73-.14,3.27-1.37,5.1-.84C140.3,17.06,138.34,16.86,136.54,17.18Z" transform="translate(5.09 18.72)"/><path class="cls-11" d="M112.52,10.45c-.45,1.32-1.92.43-2.6,1.22.11-.86-.52-2,1.08-2.26C112,9.24,112.45,9.47,112.52,10.45Z" transform="translate(5.09 18.72)"/><path class="cls-13" d="M177.35,18.45a4.25,4.25,0,0,1-3.92,1.14c.51-.76,1.17-1.28,1-2.13C175.18,18.37,176.34,18.21,177.35,18.45Z" transform="translate(5.09 18.72)"/><path class="cls-13" d="M127.52,16.35c-1.19,1.59-2.55,1.87-3.88.82.25-1,1-.82,1.76-.8.19.6.67.44,1,.29s0-.31-.2-.4C126.69,15.69,127.09,16.16,127.52,16.35Z" transform="translate(5.09 18.72)"/><path class="cls-9" d="M143.28,17.34c.87-.38,1.92.09,2.72-.58l1.77.74-3.51.59c-.46-.16-1.13.33-1.37-.46Z" transform="translate(5.09 18.72)"/><path class="cls-9" d="M98.81,12.45h-1c-1.07-.77-2.24-.25-3.37-.28L94.39,12a1.87,1.87,0,0,1,.13-.4l4.11-1.14Z" transform="translate(5.09 18.72)"/><path class="cls-11" d="M142.89,17.63c.24.79.91.3,1.37.46a4.31,4.31,0,0,1-3.4,1.68c0-.31,0-.62,0-.93l.92-.83Z" transform="translate(5.09 18.72)"/><path class="cls-13" d="M183.07,17.61c0,.14,0,.29,0,.43a2.24,2.24,0,0,1-1.54.29L180.27,18v-.76l.91-.06c.37.87,1.1.22,1.63.38A.21.21,0,0,1,183.07,17.61Z" transform="translate(5.09 18.72)"/><path class="cls-13" d="M183,20.77c0,.23-.06.47-.1.7a.71.71,0,0,0-.5.8l-1.15-.65c0-.17,0-.34,0-.52l1.22-.36Z" transform="translate(5.09 18.72)"/><path class="cls-9" d="M185.54,23.14a2.33,2.33,0,0,1,1.61.81c-.69.5-1.4.06-2.06.16l0,0-.38-.85Z" transform="translate(5.09 18.72)"/><path class="cls-13" d="M180.28,17.25c0,.26,0,.51,0,.76l-1.54.13h-.53C178.47,16.85,179.71,17.83,180.28,17.25Z" transform="translate(5.09 18.72)"/><path class="cls-13" d="M140.84,18.84c0,.31,0,.62,0,.93-.3.39-.6,0-.9,0C139.94,19.17,139.82,18.47,140.84,18.84Z" transform="translate(5.09 18.72)"/><path class="cls-9" d="M105.51,10.26a1.8,1.8,0,0,1-.54-.43c-.2-.29.13-.37.28-.34a1.18,1.18,0,0,1,.64.34C106.06,10.05,105.82,10.16,105.51,10.26Z" transform="translate(5.09 18.72)"/><path class="cls-11" d="M143.4,15.92c-.69.63-.77.09-.85-.44A.84.84,0,0,1,143.4,15.92Z" transform="translate(5.09 18.72)"/><path class="cls-6" d="M182.82,17.57c-.53-.16-1.26.49-1.63-.38C181.74,17.3,182.41,16.88,182.82,17.57Z" transform="translate(5.09 18.72)"/><path class="cls-13" d="M185.54,23.14l-.86.08-.49,0a2.17,2.17,0,0,0,0-.36C184.64,22.91,185.31,22.1,185.54,23.14Z" transform="translate(5.09 18.72)"/><path class="cls-9" d="M107.37,10.74c-.3.14-.52.31-.6.26s-.21-.31-.3-.48c.11-.06.25-.19.33-.17A2.62,2.62,0,0,1,107.37,10.74Z" transform="translate(5.09 18.72)"/><path class="cls-13" d="M194.93,17.18h-1.26C194.09,16.62,194.51,16.25,194.93,17.18Z" transform="translate(5.09 18.72)"/><path class="cls-6" d="M126.21,16.26c.17.09.4.31.2.4s-.82.31-1-.29Z" transform="translate(5.09 18.72)"/><path class="cls-13" d="M128.72,16.72c-.12.13-.22.34-.35.36s-.37-.11-.29-.37Z" transform="translate(5.09 18.72)"/><path class="cls-4" d="M80.26,23.2c1.15,2.42-.89,3.83-1.77,5.61-.68.18-1.07-1.37-1.78-.42s.16,2,.3,3c.06.45,1,.7,1.26.43,1.81-1.82,3.85-.22,5.74-.47,2.88,2.08,3,4.79.4,7.71-1.68-.4-2,.49-1.71,1.92-.77.24-.68-1.39-1.56-.51a1.93,1.93,0,0,0-.69,1.34c-.22,1.88,1.28,4-.6,5.68-.1.09.09.51.14.72.55.15.68-.3,1-.45.48-.25,1-.77,1.51-.13.61.8-.37.87-.67,1.25s-.88.43-1,1a6.52,6.52,0,0,1-5.41,5.43c-1.61.28-3.23.47-4.85.7,1.37.08,2.93.66,4,.06,1.76-1,2,.94,3.17,1.15,2,.37,3-1,4.44-1.56-.26-1-1.79-1.82-1.53-2.21,1-1.48,1.72-3.8,4.39-2.83a.59.59,0,0,0,.06.14s.08,0,.11,0L85,50.67c-.36-.72-1.27-.14-1.92-.92,1.42.39,2.08-.47,2.85-1.11.61,1.88,2.44,3.23,2.12,5.56s-1.59,3.93-3.83,4.28c1.94-1.92,2.21-3.56.57-6.3.85,3.68-.67,5.3-3.52,5.94l-3.31.73c-.09,0-.17.13-.36.28l1.42.25c-.85.25-1,1-1.41,1.6l-.19,0c-.94,0-1.82-.81-2.81-.19-.34.21-.94.29-.87.73.05.26.62.44,1,.66-.41.39-.86.82-.53,1.43,1.23,2.29-.35,3.19-2,3.66a8.6,8.6,0,0,0-2.72,1c-.18.12-.5.34-.54.3-1.49-1.48-3.21.37-4.77-.35-.88-.4-1.79-.52-1.21-1.9.26-.62-.26-1.34-.61-2a7.32,7.32,0,0,0,3.38-1.72l.46.32.11-.17-.56-.16a4.29,4.29,0,0,1-2.25-2.32c-.72.36.29,1.83-.78,1.37-1.47-.63-2.42.36-3.61.48-2.56.24-5.08,1.19-7.71.5a1.29,1.29,0,0,0-1.55.83h0l-1,0c-2.56-1.39-3.42-3.19-2.69-5.86a4.09,4.09,0,0,0,.25-1.42.71.71,0,0,0,.38-.88c0-.05-.11-.08-.17-.12l-.22,1c-.13-.14-.27-.27-.4-.4-.68-1.07.5-1.2,1.14-1.7l-1.58-.61a.23.23,0,0,1,0-.24c1.5,0,3,0,2.55-2.25.33-1.81-1.23-2.39-2.19-3.36,2.19-2.19,2.19-2.19.8-5.38-.72.39.13,1.83-1,1.77S44.11,42.94,43.78,42c-.21-.61.17-1.53-.92-1.63V40a.92.92,0,0,0,.45-.85l.42-.43c1.05-.17.6,1.33,1.5,1.37-.42-2.23-.42-2.23-1.53-1.4l-.43.42a.89.89,0,0,0-.41.88c-.31.15-.29.29,0,.43l0,3.89A5,5,0,0,1,44.16,37a3.3,3.3,0,0,1,2.39.7c.24.17.68.06,1,.07-1.22-.79.91-2.17-.52-2.93l-.35-.38c.3-.6,1.5-.47,1.29-1.42-.35-1.53.64-2,1.74-2.49h0c.75-.08,1.94.37,2.16-.25.63-1.75,1.56-1.06,2.56-.62l-.94.19c0,.05.06.14.11.16a.68.68,0,0,0,.85-.33c.74,0,.65-.37.43-.84v0l.41-.39a1.9,1.9,0,0,0-.23-2.68,2.52,2.52,0,0,1-.25-3.3c.78-1.25,2.1-1.19,3.23-.71a5.42,5.42,0,0,0,4.52.25l0,.75-.84.45-2.52.14a2.6,2.6,0,0,0,2.63,0l.85-.43c.88-.1.51-.61.35-1.05.94-.59,1.83-1.29,3-1.12V23c.64-.76.31-1.41.44-2,1.15.33,1.15,1.27,1,2.16-.31,2.87-.25,2.95,2.61,2.85a3.83,3.83,0,0,1,1,.26c1.64.77,3.16.26,4.77-.28-1.13-.64-2.12.26-3.47,0C73.69,24.85,75,24,75.09,22.35c1.39.39.15,1.61.67,2.31.85-.48.69-1.24.54-1.89-.24-1,.36-.85.93-.83.49.54,1.47.33,1.77,1.16,0,.88,0,1.77-.08,2.65-.13.15-.27.3-.41.44l-.31.48.16.11.18-.56.44-.41C79.82,25.14,79.71,24,80.26,23.2ZM48,61.4l-.19-.18.17.2.18.56s.16-.1.16-.11S48.13,61.55,48,61.4ZM59.19,27.49a9.45,9.45,0,0,0-3.44,2,2.87,2.87,0,0,0,3.44-2,1,1,0,0,0,.92-1.3.58.58,0,0,0-.52-.21C58.92,26.32,59.32,27,59.19,27.49Zm.9,31c2.12-.57,4.32-.37,6.48-.6a6.16,6.16,0,0,0-6.59.46h-4.6l0,.56C57,58.58,58.56,59.31,60.09,58.46Zm-10.78-2.2c1.6-.66,2.46,1.27,4.2,1.27a16.74,16.74,0,0,1-2.06-4.71c0-2.82-1.2-5.44-1.29-8.25,0-.5-.36-.72-.81-.82l-.25-.15.14.26c.13,3.07,1.3,6.1.39,9.21.67.37,1.19-.33,1.82-.25-.35.58.76,2.31-1.06,1.67a2,2,0,0,0-2.92,1.18c.68.1,1.66-.85,1.83.58l-.18.19Zm4.31-13.39c.21.43.66.41,1,.57a3.43,3.43,0,0,0,4-.89l.93-.42c1,1.24,2,.44,3.08.14s.72-1.19.7-1.91A4.82,4.82,0,0,0,63.18,38c-.94-1.73-.35-3.89-1.54-5.55-.16-2-.6-2.27-2.84-1.45-1.17.2-2.46-.54-3.53.45a.17.17,0,0,1-.27,0,17,17,0,0,1-4,.42c-.62,0-1.62-.13-1.45,1,.4,2.56.22,5.24,1.5,7.62a11.24,11.24,0,0,0,.37,1.41c.36.89,0,2.3.86,2.64S52.47,42.89,53.62,42.87ZM65.69,55c-.41-3.43-1.35-6.78-1.41-10.26,0-1.13-.9-.85-1.58-.88s-1.34-.23-1.42.76l-1.23.09H58.74l-1.33.07c-.61-.06-1.27-.3-1.67.43l-1,.54a2.62,2.62,0,0,0-1.61-.17c-1,0-.86.7-.88,1.33-.11,2.55,1.25,4.91,1.07,7.5,0,.15.08,2,1.55,1.55a1.9,1.9,0,0,0,1.62,1.43l1.35-.31c.58.24,1.13.35,1.49-.36l1.46-.1.9,0c1.32.33,2.57-.51,4-.15C66.34,56.58,67,55.49,65.69,55Zm-1-24.92c-1.06,0-1.42.24-1.27,1.49.34,3.07,1.23,6,1.77,9,.09.52-.15,1.17.63,1.4s1-.54,1.42-1l.59-.23c.83.07,1.61.79,2.5.2.61-.14,1.33,0,1.77-.62l1.65,0,1.75,0c1.31.25,1.7-.3,1.73-1.61.06-2.33-1.41-4.24-1.55-6.52a11.85,11.85,0,0,0-.51-3.35c-.47-1.35-.94-.55-1.49-.19a3.15,3.15,0,0,0-2.05-.2,2.13,2.13,0,0,0-1.69.41c-.67-.24-1.11.47-1.74.42H66.45C65.76,29.29,64.87,28.91,64.69,30.06Zm6.64,24c.5,0,.69-.31.68-.78.92,1.57,2.29,1,3.62.81A4.12,4.12,0,0,0,79,50.47c.27-2.87-1.23-5.49-1-8.37.09-1.14-1.14-1-1.82-.72a41.27,41.27,0,0,1-8.59,1.52c-1.64.21-2,.82-1.86,2.35C66,48,67.25,50.51,67,53.32A6.21,6.21,0,0,0,67.33,55c.12.6.54,1,1,.66C69.32,55,70.69,55.24,71.33,54.08ZM55.5,59.24c-.41.2-1.22-.38-1.13.47s1.11.7,1.62,1.18c.31.28,1.1-.36,1.08-.73C57,59.24,56,59.6,55.5,59.24Zm29-21.61c-.07-.58-.47-.79-.9-.57s-1.12-.22-1.13.6a.78.78,0,0,0,.76.85A1.22,1.22,0,0,0,84.48,37.63Zm-21.57-12,2.88.21C65,25.23,64.25,25.28,62.91,25.65ZM47.33,58.86c-.1.4-.34.84,0,1.3C47.74,59.76,47.59,59.32,47.33,58.86ZM59.51,28.61l-.43.4c.13,0,.28.18.37.14a1.88,1.88,0,0,0,.44-.36Zm-1.62-5.74s-.12.06-.14.1,0,.09.08.14l.22-.17Zm8,1.29L66,24l-.23.05a.41.41,0,0,0,.07.15S65.89,24.17,65.93,24.16Z" transform="translate(5.09 18.72)"/><path class="cls-6" d="M92.75,29.18c1.24,1.87,2.5,1.27,3.78.05a1.18,1.18,0,0,1,1.6-.3c1.89.85,5.28.08,6-1.66.36-.85,1.14-1.43,1.27-2.15.33-1.74-1.53-.62-2.21-1.49.8-.56,1.89-.76,2.41-1.71.28-.48.82-.85.4-1.49s-.69-1.36.5-1.5c1-.11,1.7,0,1.65,1.3-.16,3.58,1.06,7.66-1.07,10.58s0,3.55,1.19,4.91c1,1.12,1.07,2.6,1.45,3.86a6.11,6.11,0,0,0,3,3.79,13,13,0,0,1,2.92,2.48c1.53,1.61,3.14,2.62,5.43,2.25a1.34,1.34,0,0,1,1.2.34c-.92.37-2,.27-3,1.3,1.68.15,3.11.59,4.18-.86,1.13.94,1.6,4.24.43,5.19s-1.69,3.23-3.88,3.45a2.74,2.74,0,0,0-.8,2.54c-.65.65-2.14.65-1.65,2.16-.42,0-1.07.15-1.22,0-1.09-1.5-1.48.62-2.44.49-.53-.07-.29,1.24.2,1.87l-4.2.75-.94.09a3.59,3.59,0,0,0-2.52.46l-1,.17c-2.38-.22-4.43.73-6.44,1.83.1-3.44-.82-6.75-1.4-10.1C96.3,49.82,94.87,41.92,93.55,34,93.28,32.4,92.57,30.86,92.75,29.18Z" transform="translate(5.09 18.72)"/><path class="cls-4" d="M85.9,48.64c-.77.64-1.43,1.5-2.85,1.11.65.78,1.56.2,1.92.92h0c-2.67-1-3.38,1.35-4.39,2.83-.26.39,1.27,1.17,1.53,2.21-1.46.52-2.46,1.93-4.44,1.56-1.14-.21-1.41-2.19-3.17-1.15-1,.6-2.58,0-4-.06,1.62-.23,3.24-.42,4.85-.7a6.52,6.52,0,0,0,5.41-5.43c.12-.6.71-.65,1-1s1.28-.45.67-1.25c-.5-.64-1-.12-1.51.13-.3.15-.43.6-1,.45,0-.21-.24-.63-.14-.72,1.88-1.71.38-3.8.6-5.68a1.93,1.93,0,0,1,.69-1.34c.88-.88.79.75,1.56.51-.34-1.43,0-2.32,1.71-1.92.84,1.19.66,2-.76,2.63s-1,1.82-.64,2.8.62,1.68,2,1.14,1.19.74,1.28,1.56a7.49,7.49,0,0,0-.68.33c.25.62.68,0,1,.13Zm-.51-2.15-.13.09.24.11s0-.11,0-.13S85.44,46.51,85.39,46.49Z" transform="translate(5.09 18.72)"/><path class="cls-4" d="M91.48,4.84,88.55,6c-2.15.31-4.38-.19-6.38,1.38-1,.84-2.72.39-4.12.19,0-.17,0-.35-.06-.53,1.11-1.4,3.41-.58,4.41-2.47-1.17-.88-2.79.84-3.78-.71,1.61.69,2.13-1.78,3.77-1.26a2.69,2.69,0,0,1-.5,1.22c2.48-1,5.39.36,7.54-1.75.39-.38.57.06.82.3C90.93,3.07,91,4.07,91.48,4.84Z" transform="translate(5.09 18.72)"/><path class="cls-4" d="M49.74,63.55a1.29,1.29,0,0,1,1.55-.83c2.63.69,5.15-.26,7.71-.5,1.19-.12,2.14-1.11,3.61-.48,1.07.46.06-1,.78-1.37a4.29,4.29,0,0,0,2.25,2.32h0a7.32,7.32,0,0,1-3.38,1.72c-1.67.09-3.38-.24-5,.37l-6.49,0c-.63-.48-1.79-.1-2-1.23l1,0a.61.61,0,0,0,.07.14s.07,0,.11,0Z" transform="translate(5.09 18.72)"/><path class="cls-9" d="M100.11,15.48c-.18.17-.35.35-.52.53l-.86.21-.47.09c-.25.05-.38.18-.3.45l-.58.72c-.3-.57-.68-.86-1.25-.29-.34-.23-.67-.46-1-.7s-.59-1.33-1.2-.72c-.41.39-.24,1.28.7,1.48.16,0,.23.47.34.71l-1.38.18c-1-.24-1.77.3-2.66.47a1,1,0,0,0-.3-.09c-.18-1.53-.37-3.06-.55-4.6.86-.33,2.07.27,2.63-.95,1.58.1,3.17.18,4.76.31C98.86,13.39,99.28,14.68,100.11,15.48Z" transform="translate(5.09 18.72)"/><path class="cls-4" d="M46.28,33.94,45,33c-.47-.92,1.62,0,.77-1-.61-.7-1-1.78-2.1-1.94,1.33-3,5.25-4.72,8.07-3.44.76.35,0,.84.11,1.25-.7.38-1-.46-1.47-.64-.59,1.17,0,1.9.85,2.48-.43.57-1.22.17-1.5.79h0c-.7.13-2-.37-2,.52C47.74,32.36,46.69,32.94,46.28,33.94Z" transform="translate(5.09 18.72)"/><path class="cls-4" d="M69.52,81.47c-2.39,1.08-5,1.44-7.45,2.48-1.35.58-3.09.26-4.65.34l-1-.08a.6.6,0,0,1-.34-.11l-.42-.69a7.62,7.62,0,0,1,4.41-1c1.59.07,3.05-.79,4.59-1.16a14.83,14.83,0,0,1,3.72-.56l1.6.12Z" transform="translate(5.09 18.72)"/><path class="cls-4" d="M77.58,61c.41-.56.56-1.35,1.41-1.6l-1.42-.25c.19-.15.27-.26.36-.28l3.31-.73c2.85-.64,4.37-2.26,3.52-5.94,1.64,2.74,1.37,4.38-.57,6.3l0,0-.44.43C81.71,59.71,80,61.49,77.58,61Z" transform="translate(5.09 18.72)"/><path class="cls-4" d="M42.86,40.38c1.09.1.71,1,.92,1.63.33.93.65,2.05,1.82,2.11s.31-1.38,1-1.77c1.39,3.19,1.39,3.19-.8,5.38-.61-1.5-2.41-2-3-3.47l0-3.89Z" transform="translate(5.09 18.72)"/><path class="cls-4" d="M72,84.72c-2.13-1.52-2.94-1.28-3.37,1.12a1.25,1.25,0,0,1-2.08.78c-1.54-1.2-3.24-.53-4.84-.73.47-1.71,2.25-1.07,3.29-1.48,1.29-.52,2.83-1.36,4.42-1,.88.18.9-1.14,1.75-.85C71.36,83.3,72.4,83.75,72,84.72Z" transform="translate(5.09 18.72)"/><path class="cls-4" d="M99.06,67.83c2-1.1,4.06-2,6.44-1.83-1.7,1.3-.42,1.49.64,1.54s.87.66.63,1.1-.47-.31-.79-.3c-2.2-.26-4.27.45-6.37.9C98.87,69,99.29,68.28,99.06,67.83Z" transform="translate(5.09 18.72)"/><path class="cls-4" d="M84,31.38c-1.89.25-3.93-1.35-5.74.47-.26.27-1.2,0-1.26-.43-.14-1-1-2.05-.3-3s1.1.6,1.78.42a2.89,2.89,0,0,0,3.2,1.38C82.6,30,83.74,30,84,31.38Z" transform="translate(5.09 18.72)"/><path class="cls-6" d="M94.36,20.52c-.13.84-1.32,2,1,2.25-2.61.24-1.15,3.21-3.06,3.72a16.89,16.89,0,0,1-.81-5.55l1.5-.39Z" transform="translate(5.09 18.72)"/><path class="cls-4" d="M75.09,22.35C75,24,73.69,24.85,72.5,26c1.35.22,2.34-.68,3.47,0-1.61.54-3.13,1.05-4.77.28.67-.53,1.18-1.12.47-2-.48-.57-.66-1.18,0-1.68s1.27-1,2.08-.31h1.37Z" transform="translate(5.09 18.72)"/><path class="cls-4" d="M72,84.72c.36-1-.68-1.42-.83-2.2,2.12.33,3.93-1.28,6-1C75.91,83.28,75.07,85.8,72,84.72Z" transform="translate(5.09 18.72)"/><path class="cls-9" d="M99.61,69.24c2.1-.45,4.17-1.16,6.37-.9-1.54,1.54-3.59,1.76-5.58,2.15C99.6,70.4,99.6,69.83,99.61,69.24Z" transform="translate(5.09 18.72)"/><path class="cls-9" d="M92.73,12.08c0,.3,0,.6,0,.89-.56,1.22-1.77.62-2.63.95-1,.06-2.21,1.71-2.79.26-.5-1.27,1.31-1.19,2.18-1.57l.59-.27A5.34,5.34,0,0,1,92.73,12.08Z" transform="translate(5.09 18.72)"/><path class="cls-4" d="M69.52,81.47l.44-.62-1.6-.12c2-.88,4.2-1,6.26-1.63,0,.23,0,.47,0,.7C73.19,81.16,71.19,80.81,69.52,81.47Z" transform="translate(5.09 18.72)"/><path class="cls-4" d="M74.55,6.09c-1.08,1-2.16,2.05-4.15,1.32C71.54,6.46,72,5,73.71,5.3A.94.94,0,0,0,74.55,6.09Z" transform="translate(5.09 18.72)"/><path class="cls-4" d="M93,20.55l-1.5.39c-1.22-.19-2.11-1-3.21-1.54.71-.89,1.83,0,2.4-.87a.74.74,0,0,1,.29.08.31.31,0,0,0,0,.28c-.43,2.28.94.78,1.61.77l1,.42Z" transform="translate(5.09 18.72)"/><path class="cls-4" d="M49.73,30.5c.28-.62,1.07-.22,1.5-.79-.86-.58-1.44-1.31-.85-2.48.52.18.77,1,1.47.64.55,1.86,2,.61,3,.94.22.47.31.87-.43.84l0,0c-1-.44-1.93-1.13-2.56.62C51.67,30.87,50.48,30.42,49.73,30.5Z" transform="translate(5.09 18.72)"/><path class="cls-4" d="M47.06,34.79c1.43.76-.7,2.14.52,2.93-.35,0-.79.1-1-.07a3.3,3.3,0,0,0-2.39-.7A5,5,0,0,0,47.06,34.79Z" transform="translate(5.09 18.72)"/><path class="cls-11" d="M42.84,85.94c-.72-.3-.92-.74-.34-1.37,1.25.94,2.86.09,4.35.84C45.45,86.06,44.09,85.64,42.84,85.94Z" transform="translate(5.09 18.72)"/><path class="cls-4" d="M43.67,30.06c1.13.16,1.49,1.24,2.1,1.94.85,1-1.24,0-.77,1C43.75,32.37,43.09,31.5,43.67,30.06Z" transform="translate(5.09 18.72)"/><path class="cls-4" d="M59.09,86.8l-2.44.41c1.26-2.17,3.37-1.1,5.13-1.35C61.4,87.64,59.92,86.28,59.09,86.8Z" transform="translate(5.09 18.72)"/><path class="cls-4" d="M86.3,21.17c1-.68,2-.9,2.76-.08s-.35,1.36-1.51.74Z" transform="translate(5.09 18.72)"/><path class="cls-4" d="M78,7.08c0,.17,0,.35,0,.52-1,.54-1.89,1.45-3.25.76C75.45,6.69,76.93,7.41,78,7.08Z" transform="translate(5.09 18.72)"/><path class="cls-4" d="M74.66,62.2c-.33-.22-.9-.4-1-.66-.07-.44.53-.52.87-.73,1-.62,1.87.15,2.81.19C76.64,61.76,75.57,61.78,74.66,62.2Z" transform="translate(5.09 18.72)"/><path class="cls-4" d="M55.64,83.41l.42.69a3.22,3.22,0,0,0-.84.1c-.5.2-.79,1.18-1.54.45a.93.93,0,0,1-.29-.74c.29-.77,1-.63,1.62-.61A4.62,4.62,0,0,1,55.64,83.41Z" transform="translate(5.09 18.72)"/><path class="cls-4" d="M46.28,33.94c.41-1,1.46-1.58,1.48-2.92,0-.89,1.28-.39,2-.52-1.1.46-2.09,1-1.74,2.49.21.95-1,.82-1.29,1.42Z" transform="translate(5.09 18.72)"/><path class="cls-4" d="M77.23,21.94c-.57,0-1.17-.15-.93.83.15.65.31,1.41-.54,1.89-.52-.7.72-1.92-.67-2.31h0c-.16-.37-.5-.43-.85-.47A2.48,2.48,0,0,1,77.23,21.94Z" transform="translate(5.09 18.72)"/><path class="cls-4" d="M74.55,6.09a.94.94,0,0,1-.84-.79c.28,0,.66-.21.81-.09.62.47,1.35-1.16,1.62-.07C76.46,6.42,75.12,5.8,74.55,6.09Z" transform="translate(5.09 18.72)"/><path class="cls-4" d="M45.42,53.58l1.58.61c-.64.5-1.82.63-1.14,1.7C43.73,55.5,45,54.45,45.42,53.58Z" transform="translate(5.09 18.72)"/><path class="cls-4" d="M85.09,11.64a3.63,3.63,0,0,1,3.15-.09A3.53,3.53,0,0,1,85.09,11.64Z" transform="translate(5.09 18.72)"/><path class="cls-4" d="M82.91,15.93a4.82,4.82,0,0,1,3.74-.09A4.39,4.39,0,0,1,82.91,15.93Z" transform="translate(5.09 18.72)"/><path class="cls-4" d="M50.74,64.81l6.49,0A9.58,9.58,0,0,1,50.74,64.81Z" transform="translate(5.09 18.72)"/><path class="cls-4" d="M48,51.09c.48,2.25-1.05,2.23-2.55,2.25,0-.59.26-1,.82-.91C47.37,52.57,47.64,51.78,48,51.09Z" transform="translate(5.09 18.72)"/><path class="cls-4" d="M80.26,23.2c-.55.81-.44,1.94-1.28,2.61l-.06-.06c0-.88,0-1.77.08-2.65Z" transform="translate(5.09 18.72)"/><path class="cls-4" d="M66.52,21c-.13.58.2,1.23-.44,2V20.68Z" transform="translate(5.09 18.72)"/><path class="cls-4" d="M56.4,84.21l1,.08c0,.35-.06.69-.5.64S56.41,84.57,56.4,84.21Z" transform="translate(5.09 18.72)"/><path class="cls-4" d="M86.63,47.68c-.34-.16-.77.49-1-.13a7.49,7.49,0,0,1,.68-.33C86.4,47.37,86.51,47.53,86.63,47.68Z" transform="translate(5.09 18.72)"/><path class="cls-4" d="M74.23,21.87c.35,0,.69.1.85.47H73.72Z" transform="translate(5.09 18.72)"/><path class="cls-4" d="M63,21.8c.16.44.53.95-.35,1.05l-.12-.15,0-.75Z" transform="translate(5.09 18.72)"/><path class="cls-14" d="M83.7,58.87l.44-.43Z" transform="translate(5.09 18.72)"/><path class="cls-4" d="M55.32,28.39l-.41.39Z" transform="translate(5.09 18.72)"/><path class="cls-9" d="M114.17,64.53c-.49-.63-.73-1.94-.2-1.87,1,.13,1.35-2,2.44-.49.15.2.8,0,1.22,0,.32.53.87.33,1.33.43,2.11.45,3.84-1.34,5.93-1,2.44,0,4.71-1.34,7.2-.88a4.83,4.83,0,0,0,.15-.55,12.37,12.37,0,0,1,3.1-.15c.91,0,2,.31,2.58-.79l17.69-2.92c-.31,1.46-1.58.84-2.06,1.49-3.48.7-7.13.95-10.4,2.21-3.88,1.5-8,.52-11.78,1.69-.87.27-1.86,0-2.67.61l-2.92.4-.55.07h0c-2,.31-3.91.57-5.85,1-.6.13-1.77.12-1.54,1,.38,1.55-.78.93-1.33,1.19l-.56-.29-1.27-.08A1.56,1.56,0,0,0,114.17,64.53Z" transform="translate(5.09 18.72)"/><path class="cls-6" d="M129.28,57.53c.19-.57.84-1.21.12-1.71s-1.31.64-2.14.63c.4-1.29,1.61-.75,2.4-1.05,1.45-.54,3-.88,4.48-1.28.42-.11.89-.19,1,.4s-.1.79-.66.85c-.75.08-1.17.46-1,1.28C132.33,58,130.67,57.14,129.28,57.53Z" transform="translate(5.09 18.72)"/><path class="cls-6" d="M132.24,60.25a4.83,4.83,0,0,1-.15.55c-2.49-.46-4.76.92-7.2.88-.24-.32-.8-.34-.86-.86a1.15,1.15,0,0,1,1.44-.49c1.14.38,2.14-.15,3.21-.69-.68-.67-1.92-.18-2.06-1.36a2.7,2.7,0,0,1,2.2-.71c.77,2.34,2.56,2,4.35,1.64Z" transform="translate(5.09 18.72)"/><path class="cls-11" d="M142.6,44.79c1.84.49,3.31-1,5.09-.92-.09.78-.68.81-1.26.79-.85,0-1.36.24-1.29,1.19-1.22.12-1.7,1.37-2.72,1.8l-2-.08,0-1.26C141.79,46.68,142.37,46,142.6,44.79Z" transform="translate(5.09 18.72)"/><path class="cls-9" d="M174.45,36.29h2.38c-2.42,2.44-2.87,2.54-5.56,1.3h-.07a.61.61,0,0,0,.2-.19C172.18,36.39,173.79,37.62,174.45,36.29Z" transform="translate(5.09 18.72)"/><path class="cls-9" d="M173.44,34.83A4.1,4.1,0,0,1,178,33.58c-.91,1.52-2.4,1.36-3.67,1.66l-.73-.28v-.13l-.12,0Z" transform="translate(5.09 18.72)"/><path class="cls-9" d="M166.38,40.69a39.29,39.29,0,0,1-6.67,1.53c-1-.27-.7-1.13-.87-1.79h.89a.65.65,0,0,0,.07.41c.57.68,1.14.43,1.72,0a3.41,3.41,0,0,0,2.47-.61h.87C165.38,40.34,166,40.26,166.38,40.69Z" transform="translate(5.09 18.72)"/><path class="cls-8" d="M164.89,39.46c.08-.58-.21-1.57.63-1.54,1.2.06,2-1,3.13-.86.31,0,.4.54.15.63-.72.28,0,1.83-1.24,1.45-.64-.19-.48.23-.59.49a.34.34,0,0,1-.31-.11C166.13,37.86,165.48,39.58,164.89,39.46Z" transform="translate(5.09 18.72)"/><path class="cls-13" d="M165.1,54.81c-1.39-.07-2.6,1.18-4.06.58.16-2.31,2.19-1.08,3.26-1.65C164.88,53.44,165.59,53.87,165.1,54.81Z" transform="translate(5.09 18.72)"/><path class="cls-6" d="M132.24,60.25l.93-1,1.11-.84c.8,1.69,2,.63,3.06.43l.58.51c-.6,1.1-1.67.81-2.58.79A12.37,12.37,0,0,0,132.24,60.25Z" transform="translate(5.09 18.72)"/><path class="cls-9" d="M158.84,40.43c.17.66-.09,1.52.87,1.79-1.34.48-2.76,1.52-3.72-.55.37-.08.81,0,1.1-.33.64-.05,1.32-.06,1.4-.93A1.35,1.35,0,0,1,158.84,40.43Z" transform="translate(5.09 18.72)"/><path class="cls-8" d="M157.19,40c-.59-1.12-1.67.07-2.57-.56,1.84-.77,3.48-1.44,5,.26Z" transform="translate(5.09 18.72)"/><path class="cls-8" d="M169.19,40.38c0,.56,0,1.12,0,1.68a.78.78,0,0,1-.76.84c-.6.07-.89-.3-1.11-.78s0-.78.48-.92.75-.88,1.41-.83Z" transform="translate(5.09 18.72)"/><path class="cls-6" d="M137.34,58.8c-1.07.2-2.26,1.26-3.06-.43l.09-.46h.46C135.63,58.3,137.25,56.41,137.34,58.8Z" transform="translate(5.09 18.72)"/><path class="cls-9" d="M157.19,40l2.45-.3,2.22-.16c.21.53.72.45,1.13.58-.63.43-1.37.14-2,.31l-1.22,0h-.89a2,2,0,0,0-.35,0l-1.58-.1A.44.44,0,0,0,157.19,40Z" transform="translate(5.09 18.72)"/><path class="cls-8" d="M165.71,42.84c0,.59-.23.93-.85.92-.27,0-.7-.11-.57-.41a2.52,2.52,0,0,1,1-1C165.47,42.19,165.69,42.53,165.71,42.84Z" transform="translate(5.09 18.72)"/><path class="cls-13" d="M164.89,39.46c.59.12,1.24-1.6,1.77.06l-1.8.7H164l0-.19,0-.51Z" transform="translate(5.09 18.72)"/><path class="cls-13" d="M156.91,40.3l1.58.1c-.08.88-.76.89-1.4.94l-1.57,0a.14.14,0,0,1-.08-.19A2.25,2.25,0,0,1,156.91,40.3Z" transform="translate(5.09 18.72)"/><path class="cls-8" d="M171.4,37.4a.61.61,0,0,1-.2.19c-.54.15-1,.17-1.09-.55,0-.36,0-.79.49-.74S171.32,36.9,171.4,37.4Z" transform="translate(5.09 18.72)"/><path class="cls-9" d="M164.86,40.22l1.8-.7a.34.34,0,0,0,.31.11c-.15.38.18,1-.6,1.06C166,40.26,165.38,40.34,164.86,40.22Z" transform="translate(5.09 18.72)"/><path class="cls-8" d="M152.84,40.85l-.18,0-.19,0-1.33-.08a.8.8,0,0,1,1-.78C152.67,40,152.82,40.39,152.84,40.85Z" transform="translate(5.09 18.72)"/><path class="cls-8" d="M173.49,34.79l.12,0V35c-.14.33-.07.88-.6.86s-.37-.46-.44-.76C172.84,34.83,173.09,34.55,173.49,34.79Z" transform="translate(5.09 18.72)"/><path class="cls-13" d="M151.14,40.76l1.33.08c-.73.49-1.46.82-2.15-.07Z" transform="translate(5.09 18.72)"/><path class="cls-9" d="M149.09,50.78c-.34-.06-.68-.09-1-.17a2.14,2.14,0,0,1-.44-.2l.54-.24C148.45,50.41,149.41,49.62,149.09,50.78Z" transform="translate(5.09 18.72)"/><path class="cls-6" d="M164,39.53c0,.17,0,.34,0,.5l-1,.12c-.41-.13-.92,0-1.13-.58Z" transform="translate(5.09 18.72)"/><path class="cls-9" d="M155.52,41.37l1.57,0c-.29.37-.73.25-1.1.33l-.44-.12Z" transform="translate(5.09 18.72)"/><path class="cls-6" d="M134.83,57.91h-.46C134.52,57.63,134.68,57.64,134.83,57.91Z" transform="translate(5.09 18.72)"/><path class="cls-11" d="M184.19,23.18l.49,0c.13.28.25.57.38.85-1.7-.15-3,1.27-4.66,1.21a3.1,3.1,0,0,0-3.06,1.37c-.39-.1-.94.13-1.15-.35s.24-.72.6-1c1.2-.79,2.2-1.87,4-1C182,24.89,183,23.56,184.19,23.18Z" transform="translate(5.09 18.72)"/><path class="cls-11" d="M179.48,29c.13-.69,1.07-1,.87-1.86.44-.18.83-.58,1.52-.2-.29,1.14-2,1.71-1.52,3.16-1.78,1.29-3.8.87-5.78.8a6.51,6.51,0,0,1,2.73-.34c.67,0,1.32,0,1.42-.88A.71.71,0,0,0,179.48,29Z" transform="translate(5.09 18.72)"/><path class="cls-6" d="M116.48,66.05c.55-.26,1.71.36,1.33-1.19-.23-.93.94-.92,1.54-1,1.94-.39,3.9-.65,5.85-1,.39.64-.93,2.15,1,2,0,1-.14,2.09.59,3.07s.07,1.8-.71,2.38a17.3,17.3,0,0,1-5.25,2.78c-2,.65-2.72-.32-2.75-2,0-1.9-.06-3.42-2.67-2.42-.84.32-1.44-.47-2.11-.83l1.33-2.16,1.27.08Z" transform="translate(5.09 18.72)"/><path class="cls-9" d="M114.65,65.68l-1.33,2.16h-.85c-.78,0-1.57,0-2.34.14-.47.06-1,.49-1.34-.07a1.05,1.05,0,0,1,0-1,1.29,1.29,0,0,1,1.56-.06c1.58.78,2.22-.55,3.26-1l-.1-.62H110l4.2-.75A1.56,1.56,0,0,1,114.65,65.68Z" transform="translate(5.09 18.72)"/><path class="cls-6" d="M127.94,64.84h-1.72c0-.47-.12-1.11.56-1.19S127.87,64.13,127.94,64.84Z" transform="translate(5.09 18.72)"/><path class="cls-6" d="M127.94,64.84c-.07-.71-.34-1.29-1.16-1.19s-.51.72-.56,1.19c-2,.16-.63-1.35-1-2h0a.36.36,0,0,0,.55-.07l2.92-.4C128.69,63.28,130,64.57,127.94,64.84Z" transform="translate(5.09 18.72)"/><path class="cls-4" d="M106.51,65.83a3.59,3.59,0,0,1,2.52-.46C108.4,66.69,107.43,66.11,106.51,65.83Z" transform="translate(5.09 18.72)"/><path class="cls-4" d="M107.75,67.21c.38.05.39.36.39.63s0,.62-.4.62-.4-.34-.4-.62S107.36,67.26,107.75,67.21Z" transform="translate(5.09 18.72)"/><path class="cls-11" d="M37.24,87.58l-.45.24-.74-.23C36.45,87.25,36.84,86.9,37.24,87.58Z" transform="translate(5.09 18.72)"/><path class="cls-9" d="M131.37,22.72c-2.63.08-4.91,2-7.7,1.41a4.35,4.35,0,0,0-2,.46,6.44,6.44,0,0,1-4.06.42c-.5-.15-1.41,0-1.31-.67a1.8,1.8,0,0,1,1.31-1.54c4.81-.93,9.63-1.8,14.36-3.08a3.33,3.33,0,0,0,2,0c0,.59-.31,1-.9.9C131.29,20.41,131.29,21.53,131.37,22.72Z" transform="translate(5.09 18.72)"/><path class="cls-11" d="M142.54,34.38c-1.62.55-3.34.1-5,.65-.84.28-2-.86-3.21-.45a.86.86,0,0,1-.26-.49c0-.16.27-.42.41-.42,1.17,0,2-1.05,3.2-1,3.41.2,6.68-.88,10-1.14.92-.08,1.39.08,1.3,1.07-1.64.28-3.27.6-4.91.83C143.4,33.55,142.61,33.32,142.54,34.38Z" transform="translate(5.09 18.72)"/><path class="cls-10" d="M140.45,46.31c0,.42,0,.84,0,1.26a.74.74,0,0,1-.39.07c-1-.24-2-1.29-2.74.59-.41,1.05-1.84.06-2.93.45a11.69,11.69,0,0,1-5.09,1c-.41-.53.12-1.08,0-1.62.91-.12,2,.42,2.61-.73l6.79-1,.5-.1.54-.23.35-.33a.46.46,0,0,1,.39-.09Z" transform="translate(5.09 18.72)"/><path class="cls-9" d="M126.62,58.28c.14,1.18,1.38.69,2.06,1.36-1.07.54-2.07,1.07-3.21.69a1.15,1.15,0,0,0-1.44.49c-1.48,0-3.07.86-4.34-.61A21.51,21.51,0,0,1,126.62,58.28Z" transform="translate(5.09 18.72)"/><path class="cls-15" d="M131.37,22.72c-.08-1.19-.08-2.31,1.65-2.12.59.06.88-.31.9-.9a.81.81,0,0,0,0-.31l.08-.91c.74,0,.95,1,1.72.86a1.1,1.1,0,0,1,0,.31c1.06,2.6,1,2.64-1.9,2.73a4.18,4.18,0,0,0-1.19.4Z" transform="translate(5.09 18.72)"/><path class="cls-6" d="M119.69,60.21c1.27,1.47,2.86.62,4.34.61.06.52.62.54.86.86-2.09-.37-3.82,1.42-5.93,1-.46-.1-1,.1-1.33-.43-.49-1.51,1-1.51,1.65-2.16Z" transform="translate(5.09 18.72)"/><path class="cls-13" d="M142.54,34.38c.07-1.06.86-.83,1.55-.92,1.64-.23,3.27-.55,4.91-.83,1.73.7.42,1.11-.19,1.33A14.75,14.75,0,0,1,142.54,34.38Z" transform="translate(5.09 18.72)"/><path class="cls-11" d="M175.58,23.55c-1.9,1.08-2.42,1.16-5.41.6,1.46-.59,2.19-1.93,3.74-1.26Z" transform="translate(5.09 18.72)"/><path class="cls-13" d="M175.58,23.55l-1.67-.66c1.59-.44,3-1.57,4.74-1.4l0,0C178.77,23.85,177,23.52,175.58,23.55Z" transform="translate(5.09 18.72)"/><path class="cls-13" d="M168.71,27.46a17.8,17.8,0,0,1,4.38-.81c.39,0,1-.22,1,.39a.8.8,0,0,1-1,.88,3.52,3.52,0,0,0-1.84.34C170.77,27,169.32,28.56,168.71,27.46Z" transform="translate(5.09 18.72)"/><path class="cls-11" d="M165.21,29.93a4.36,4.36,0,0,1-3.52-.48c1.89,0,2.49-1.82,4.1-1.5l.8.05-.4.78C165.08,28.51,164.81,28.94,165.21,29.93Z" transform="translate(5.09 18.72)"/><path class="cls-13" d="M160.3,21.87c-1.05.87-2.27.13-3.19.74-.08.06-.42-.12-.5-.27a.43.43,0,0,1,.32-.65C158,21.56,159.1,20.76,160.3,21.87Z" transform="translate(5.09 18.72)"/><path class="cls-13" d="M123.53,48.88c-1.07,1.45-2.5,1-4.18.86,1-1,2.08-.93,3-1.3C122.78,48.48,123.5,47.76,123.53,48.88Z" transform="translate(5.09 18.72)"/><path class="cls-6" d="M188.13,18c.45.58,1.6.24,1.7,1.29-1.29-.86-2.5.29-3.76.15a1,1,0,0,1-.56-.94A3.82,3.82,0,0,1,188.13,18Z" transform="translate(5.09 18.72)"/><path class="cls-13" d="M129.22,48.09c.15.54-.38,1.09,0,1.62h-2.08c1.24-.35-.6-2.31,1.24-2.38,0,.55.35.73.82.77Z" transform="translate(5.09 18.72)"/><path class="cls-13" d="M140.45,46.31l0-.73c.63-.55,1.25-1.13,2.2-.79C142.37,46,141.79,46.68,140.45,46.31Z" transform="translate(5.09 18.72)"/><path class="cls-10" d="M168.71,27.46c.61,1.1,2.06-.51,2.61.8l-.42.1a5.56,5.56,0,0,0-3,.33h-.45c0-.1,0-.19,0-.29l0-.82Z" transform="translate(5.09 18.72)"/><path class="cls-6" d="M101.91,27c-.61.51-1.19,1.16-2,.52a.59.59,0,0,1-.11-.54C100.49,26.35,101.19,26.71,101.91,27Z" transform="translate(5.09 18.72)"/><path class="cls-11" d="M146.88,36.76a2.38,2.38,0,0,1,2.63-.4A2.22,2.22,0,0,1,146.88,36.76Z" transform="translate(5.09 18.72)"/><path class="cls-13" d="M181.49,18.33A2.24,2.24,0,0,0,183,18l.73.15c-1.32,1.17-2.79.74-4.24.36Z" transform="translate(5.09 18.72)"/><path class="cls-13" d="M140,47.64a.74.74,0,0,0,.39-.07l2,.08C141.61,49.56,140.81,48.64,140,47.64Z" transform="translate(5.09 18.72)"/><path class="cls-13" d="M131.83,47.36c-.61,1.15-1.7.61-2.61.73h0c0-.25,0-.51,0-.77C130.08,46.81,131,47.84,131.83,47.36Z" transform="translate(5.09 18.72)"/><path class="cls-9" d="M95.72,19.7,94.29,20c-.24,0-.5,0-.74.06l-1-.42c.5-.48,1.37,0,1.78-.73A1.34,1.34,0,0,1,95.72,19.7Z" transform="translate(5.09 18.72)"/><path class="cls-15" d="M153.59,34.52c-.48.47-.68,1.33-1.61.91-.14-.07-.31-.41-.26-.48A1.41,1.41,0,0,1,153.59,34.52Z" transform="translate(5.09 18.72)"/><path class="cls-13" d="M167.46,28.68h.45l2.82-.08c-1.14,1.15-2.57.31-3.84.56a1,1,0,0,0,.07-.29Z" transform="translate(5.09 18.72)"/><path class="cls-11" d="M154.69,27.65a10.79,10.79,0,0,1-4.2.11A10.62,10.62,0,0,1,154.69,27.65Z" transform="translate(5.09 18.72)"/><path class="cls-13" d="M167,28.88a1,1,0,0,1-.07.29c-.79-.24-1.07.62-1.68.76-.4-1-.13-1.42,1-1.15Z" transform="translate(5.09 18.72)"/><path class="cls-13" d="M181.23,21.1c0,.18,0,.35,0,.52l-2.59-.15,0,0a1.59,1.59,0,0,1,1.76-.78Z" transform="translate(5.09 18.72)"/><path class="cls-11" d="M181.49,18.33l-2,.22c-.25-.16-.67,0-.79-.41l1.54-.13Z" transform="translate(5.09 18.72)"/><path class="cls-11" d="M134,18.48c0,.31-.06.61-.08.91l-1.22-.11c-.25-1.13.8-.76,1.25-1.07A1.28,1.28,0,0,0,134,18.48Z" transform="translate(5.09 18.72)"/><path class="cls-13" d="M170.73,28.61l-2.82.08a5.56,5.56,0,0,1,3-.33A.39.39,0,0,1,170.73,28.61Z" transform="translate(5.09 18.72)"/><path class="cls-13" d="M145.32,50.55c.51-.39.88-.94,1.32-.5s-.13.52-.45.57A6.29,6.29,0,0,1,145.32,50.55Z" transform="translate(5.09 18.72)"/><path class="cls-16" d="M132.7,19.28l1.22.11a.81.81,0,0,1,0,.31,3.33,3.33,0,0,1-2,0C132,19.32,132.38,19.32,132.7,19.28Z" transform="translate(5.09 18.72)"/><path class="cls-13" d="M167.51,27.57l0,.82-.89-.39-.8-.05C166.25,27.31,166.9,27.54,167.51,27.57Z" transform="translate(5.09 18.72)"/><path class="cls-11" d="M181.23,21.1l-.82-.39,2,0Z" transform="translate(5.09 18.72)"/><path class="cls-6" d="M129.49,51.84c-.05.11-.1.23-.16.35-.11,0-.3-.08-.33-.16s.08-.23.13-.35Z" transform="translate(5.09 18.72)"/><path class="cls-10" d="M129.19,47.33c0,.26,0,.52,0,.77-.47,0-.83-.22-.82-.77Z" transform="translate(5.09 18.72)"/><path class="cls-17" d="M139.36,38.08c.44-.42.87-.28,1.37-.16C140.25,38.4,139.79,38.1,139.36,38.08Z" transform="translate(5.09 18.72)"/><path class="cls-11" d="M135.29,17.22c.58.85-.1.74-.59.77C134.89,17.73,135.09,17.47,135.29,17.22Z" transform="translate(5.09 18.72)"/><path class="cls-9" d="M93.56,20.08l.72,0c0,.16.06.32.08.49l-1.4,0Z" transform="translate(5.09 18.72)"/><path class="cls-8" d="M179.48,29a.71.71,0,0,1-.76.68C178.66,29.06,179.14,29.08,179.48,29Z" transform="translate(5.09 18.72)"/><path class="cls-16" d="M185.14,18.24l.36.14Z" transform="translate(5.09 18.72)"/><path class="cls-13" d="M140,45.67l-.35.33Z" transform="translate(5.09 18.72)"/><path class="cls-13" d="M139.12,46.23l-.5.1Z" transform="translate(5.09 18.72)"/><path class="cls-9" d="M96.13,17.19l0,0c-.62-.06-.77.38-.94.81L95,18c-.11-.24-.18-.67-.34-.71-.94-.2-1.11-1.09-.7-1.48.61-.61.8.42,1.2.72S95.79,17,96.13,17.19Z" transform="translate(5.09 18.72)"/><path class="cls-9" d="M94.38,18.93c-.41.71-1.28.25-1.78.73-.66,0-2,1.51-1.61-.76l2.61-.09Z" transform="translate(5.09 18.72)"/><path class="cls-9" d="M97.38,17.48c-.18,1.21-.57,1.88-1.63.59l.36-.85,0,0C96.7,16.62,97.08,16.91,97.38,17.48Z" transform="translate(5.09 18.72)"/><path class="cls-9" d="M93.6,18.14v.67L91,18.9a.33.33,0,0,1,0-.29C91.83,18.44,92.64,17.9,93.6,18.14Z" transform="translate(5.09 18.72)"/><path class="cls-9" d="M100.05,16.32c-.58.7-1.38.36-2.09.44-.08-.27.05-.4.3-.45l.47-.09.86-.21Z" transform="translate(5.09 18.72)"/><path class="cls-9" d="M96.11,17.22l-.36.85-.58,0C95.34,17.6,95.49,17.16,96.11,17.22Z" transform="translate(5.09 18.72)"/><path class="cls-15" d="M142.89,17.63l-1.13.38c-.17-1.76.8-.93,1.52-.67Z" transform="translate(5.09 18.72)"/><path class="cls-11" d="M138.67,18.42a1.15,1.15,0,0,1-.41,0C138.37,18.25,138.5,18.2,138.67,18.42Z" transform="translate(5.09 18.72)"/><path class="cls-11" d="M138.24,18.49l-.41.39Z" transform="translate(5.09 18.72)"/><path class="cls-9" d="M97.83,12.44c-1.13-.11-2.29.35-3.37-.28C95.59,12.19,96.76,11.67,97.83,12.44Z" transform="translate(5.09 18.72)"/><path class="cls-4" d="M71.33,54.08c-.64,1.16-2,.93-3,1.56-.51.34-.93-.06-1-.66A6.21,6.21,0,0,1,67,53.32c.26-2.81-1-5.36-1.3-8.07-.18-1.53.22-2.14,1.86-2.35a41.27,41.27,0,0,0,8.59-1.52c.68-.24,1.91-.42,1.82.72-.21,2.88,1.29,5.5,1,8.37a4.12,4.12,0,0,1-3.35,3.64c-1.33.2-2.7.76-3.62-.81A.7.7,0,0,0,71.33,54.08ZM69.5,44.6l-.21-.93c-.05,0-.14.07-.16.12a.65.65,0,0,0,.28.85,2.93,2.93,0,0,0,1.48,2.85c1.15.65.4-1.44,1.45-1.17a.52.52,0,0,0,.21,0c1.2-.13,2.19.55,3.21,1,.39-1.12-.29-2-.29-2.86,0-.47.19-1-.43-1.3-.8-.36-1.13.32-1.59.72A5.33,5.33,0,0,0,69.5,44.6Zm5.2,6.91L74.81,53a3.19,3.19,0,0,0,1.84-3.76c-.72-1.68-2.07.26-3.21.31-1.07-.31-2.29.45-3.31-.52a1,1,0,0,0-1.25.42A1.13,1.13,0,0,0,69,50.79c.52.45.95,1.06,1.74,1.1.15,1.83.83-.39,1.16.15.11.23.41.61.51.4C72.94,51.4,73.83,51.51,74.7,51.51Z" transform="translate(5.09 18.72)"/><path class="cls-4" d="M63.4,40.36c0,.72.48,1.57-.7,1.91s-2.1,1.1-3.08-.14c-.09-.62-.63-1.13-.45-1.81a4.71,4.71,0,0,0,.27-.8c.35-2.42.69-5-1.89-5.84-.23-1.3-1.37-1.68-2.28-2.28,1.07-1,2.36-.25,3.53-.45.3.79-.91,1.93,0,2.27,1.31.47.23-1.48,1.48-1.74.48-.07-.2,2.53,1.34.92,1.19,1.66.6,3.82,1.54,5.55,0,.6.14,1.27-1,.75-.88-.4-1.46-.32-1,1.2C61.82,41.93,62.64,40.44,63.4,40.36Z" transform="translate(5.09 18.72)"/><path class="cls-4" d="M51.09,40.44c-1.28-2.38-1.1-5.06-1.5-7.62-.17-1.14.83-1,1.45-1a17,17,0,0,0,4-.42c.28.81-.8,1.32-.49,2.15L54,35.06c-1.62,1.27-1.6,2.14.1,4l.4.88a1.24,1.24,0,0,0-.09.38C53.32,40.56,52.19,40,51.09,40.44Z" transform="translate(5.09 18.72)"/><path class="cls-4" d="M69.94,28.83a2.13,2.13,0,0,1,1.69-.41q1.05,5.94,2.12,11.9l-1.65,0A85.15,85.15,0,0,1,69.94,28.83Z" transform="translate(5.09 18.72)"/><path class="cls-4" d="M66.45,29.24H68.2L70.33,41c-.89.59-1.67-.13-2.5-.2A3.28,3.28,0,0,0,68,38.55C67.43,35.46,67,32.35,66.45,29.24Z" transform="translate(5.09 18.72)"/><path class="cls-4" d="M73.68,28.62c.55-.36,1-1.16,1.49.19a11.85,11.85,0,0,1,.51,3.35c.14,2.28,1.61,4.19,1.55,6.52,0,1.31-.42,1.86-1.73,1.61C74.91,36.4,73.87,32.58,73.68,28.62Z" transform="translate(5.09 18.72)"/><path class="cls-4" d="M73.68,28.62c.19,4,1.23,7.78,1.82,11.67l-1.75,0q-1.06-6-2.12-11.9A3.15,3.15,0,0,1,73.68,28.62Z" transform="translate(5.09 18.72)"/><path class="cls-4" d="M70.33,41,68.2,29.25c.63.05,1.07-.66,1.74-.42A85.15,85.15,0,0,0,72.1,40.36C71.66,41,70.94,40.84,70.33,41Z" transform="translate(5.09 18.72)"/><path class="cls-4" d="M66.45,29.24c.51,3.11,1,6.22,1.55,9.31a3.28,3.28,0,0,1-.17,2.23l-.59.23a2.55,2.55,0,0,1-.86-1.85c-.54-3-1.12-6.06-1.69-9.1C64.87,28.91,65.76,29.29,66.45,29.24Z" transform="translate(5.09 18.72)"/><path class="cls-4" d="M64.69,30.06c.57,3,1.15,6.06,1.69,9.1A2.55,2.55,0,0,0,67.24,41c-.4.43-.53,1.24-1.42,1s-.54-.88-.63-1.4c-.54-3-1.43-6-1.77-9C63.27,30.3,63.63,30,64.69,30.06Z" transform="translate(5.09 18.72)"/><path class="cls-4" d="M54.79,45.74l1-.54a75.84,75.84,0,0,1,2.15,11.86l-1.35.32C56.14,53.48,54.92,49.69,54.79,45.74Z" transform="translate(5.09 18.72)"/><path class="cls-4" d="M57.41,44.77l1.33-.07,2.1,11.91-1.46.1A106.9,106.9,0,0,1,57.41,44.77Z" transform="translate(5.09 18.72)"/><path class="cls-4" d="M60.05,44.69l1.23-.09c.16.61.36,1.21.47,1.83.57,3.13,1.12,6.26,1.68,9.39L62.2,56A86,86,0,0,1,60.05,44.69Z" transform="translate(5.09 18.72)"/><path class="cls-4" d="M63.43,55.81c-.56-3.12-1.11-6.25-1.68-9.38-.11-.62-.31-1.22-.47-1.83.08-1,.77-.84,1.42-.76l2.07,11.94Z" transform="translate(5.09 18.72)"/><path class="cls-4" d="M57.41,44.77a106.9,106.9,0,0,0,2,11.94c-.36.71-.91.6-1.49.35A75.84,75.84,0,0,0,55.74,45.2C56.14,44.47,56.8,44.71,57.41,44.77Z" transform="translate(5.09 18.72)"/><path class="cls-4" d="M54.79,45.74c.13,3.95,1.35,7.74,1.75,11.64A1.9,1.9,0,0,1,54.92,56L53.18,45.57A2.62,2.62,0,0,1,54.79,45.74Z" transform="translate(5.09 18.72)"/><path class="cls-4" d="M60.05,44.69A86,86,0,0,0,62.2,56l-.46.63-.9,0L58.74,44.7Z" transform="translate(5.09 18.72)"/><path class="cls-4" d="M64.77,55.78,62.7,43.84c.68,0,1.56-.25,1.58.88.06,3.48,1,6.83,1.41,10.26C65.64,55.54,65.43,55.91,64.77,55.78Z" transform="translate(5.09 18.72)"/><path class="cls-4" d="M53.18,45.57,54.92,56c-1.47.47-1.56-1.4-1.55-1.55.18-2.59-1.18-4.95-1.07-7.5C52.32,46.27,52.18,45.55,53.18,45.57Z" transform="translate(5.09 18.72)"/><path class="cls-4" d="M54.42,40.32a1.24,1.24,0,0,1,.09-.38c1.5.88,3.15-.22,4.66.38-.18.68.36,1.19.45,1.81l-.93.42-1.63-1.84c-.35,1.46-.9,2.58-2.41,2.73-.37-.16-.82-.14-1-.57C53.66,42,54.59,41.3,54.42,40.32Z" transform="translate(5.09 18.72)"/><path class="cls-4" d="M51.45,52.82c-.63-.08-1.15.62-1.82.25.91-3.11-.26-6.14-.39-9.21l.11-.11c.45.1.8.32.81.82.09,2.81,1.32,5.43,1.29,8.25Z" transform="translate(5.09 18.72)"/><path class="cls-4" d="M49.3,56.25c-.17-1.43-1.15-.48-1.83-.58a2,2,0,0,1,2.92-1.18c1.82.64.71-1.09,1.06-1.67h0a16.74,16.74,0,0,0,2.06,4.71c-1.74,0-2.6-1.93-4.2-1.27Z" transform="translate(5.09 18.72)"/><path class="cls-4" d="M54.42,40.32c.17,1-.76,1.63-.8,2.55-1.15,0-.46,2-1.3,1.62s-.5-1.75-.86-2.64a11.24,11.24,0,0,1-.37-1.41C52.19,40,53.32,40.56,54.42,40.32Z" transform="translate(5.09 18.72)"/><path class="cls-4" d="M54.51,33.54c-.31-.83.77-1.34.49-2.15a.17.17,0,0,0,.27,0c.91.6,2,1,2.28,2.28-1.63-.06-.68,1.2-.94,1.84-.37.91.8,1.43.69,2.36-1.42-.92-1.43-.92-1.55-2.69C55.7,34.36,55.9,33.36,54.51,33.54Z" transform="translate(5.09 18.72)"/><path class="cls-4" d="M61.64,32.4c-1.54,1.61-.86-1-1.34-.92-1.25.26-.17,2.21-1.48,1.74-.93-.34.28-1.48,0-2.27C61,30.13,61.48,30.36,61.64,32.4Z" transform="translate(5.09 18.72)"/><path class="cls-4" d="M54.65,43.44c1.51-.15,2.06-1.27,2.41-2.73l1.63,1.84A3.43,3.43,0,0,1,54.65,43.44Z" transform="translate(5.09 18.72)"/><path class="cls-4" d="M60,58.32a6.16,6.16,0,0,1,6.59-.46c-2.16.23-4.36,0-6.48.6Z" transform="translate(5.09 18.72)"/><path class="cls-4" d="M63.4,40.36c-.76.08-1.58,1.57-2.21-.46-.46-1.52.12-1.6,1-1.2,1.13.52.94-.15,1-.75A4.82,4.82,0,0,1,63.4,40.36Z" transform="translate(5.09 18.72)"/><path class="cls-4" d="M64.77,55.78c.66.13.87-.24.92-.8,1.34.51.65,1.6,0,1.45-1.42-.36-2.67.48-4,.15L62.2,56l1.23-.13Z" transform="translate(5.09 18.72)"/><path class="cls-4" d="M55.5,59.24c.51.36,1.52,0,1.57.92,0,.37-.77,1-1.08.73-.51-.48-1.53-.42-1.62-1.18S55.09,59.44,55.5,59.24Z" transform="translate(5.09 18.72)"/><path class="cls-4" d="M59.19,27.5a2.87,2.87,0,0,1-3.44,2,9.45,9.45,0,0,1,3.44-2Z" transform="translate(5.09 18.72)"/><path class="cls-4" d="M84.48,37.63a1.22,1.22,0,0,1-1.27.88.78.78,0,0,1-.76-.85c0-.82.76-.4,1.13-.6S84.41,37.05,84.48,37.63Z" transform="translate(5.09 18.72)"/><path class="cls-4" d="M60.09,58.46c-1.53.85-3.14.12-4.69.42l0-.56H60Z" transform="translate(5.09 18.72)"/><path class="cls-4" d="M43.7,38.64c1.11-.83,1.11-.83,1.53,1.4-.9,0-.45-1.54-1.5-1.37Z" transform="translate(5.09 18.72)"/><path class="cls-4" d="M59.19,27.49c.13-.51-.27-1.17.4-1.5a.58.58,0,0,1,.52.21,1,1,0,0,1-.92,1.3Z" transform="translate(5.09 18.72)"/><path class="cls-4" d="M62.91,25.65c1.34-.37,2.12-.42,2.88.21Z" transform="translate(5.09 18.72)"/><path class="cls-4" d="M61.83,23.28a2.6,2.6,0,0,1-2.63,0l2.52-.14Z" transform="translate(5.09 18.72)"/><path class="cls-4" d="M47.33,58.86c.26.46.41.9,0,1.3C47,59.7,47.23,59.26,47.33,58.86Z" transform="translate(5.09 18.72)"/><path class="cls-4" d="M59.51,28.61l.38.18a1.88,1.88,0,0,1-.44.36c-.09,0-.24-.09-.37-.14Z" transform="translate(5.09 18.72)"/><path class="cls-4" d="M54.47,29.65a.68.68,0,0,1-.85.33s-.07-.11-.11-.16l.94-.19Z" transform="translate(5.09 18.72)"/><path class="cls-4" d="M71.33,54.08A.7.7,0,0,1,72,53.3C72,53.77,71.83,54.06,71.33,54.08Z" transform="translate(5.09 18.72)"/><path class="cls-4" d="M46.26,56.29l.22-1c.06,0,.16.07.17.12a.71.71,0,0,1-.38.88Z" transform="translate(5.09 18.72)"/><path class="cls-4" d="M42.86,39.94a.89.89,0,0,1,.41-.88l0,0a.92.92,0,0,1-.45.85Z" transform="translate(5.09 18.72)"/><path class="cls-4" d="M57.89,22.87l.16.07-.22.17c0-.05-.09-.11-.08-.14S57.84,22.9,57.89,22.87Z" transform="translate(5.09 18.72)"/><path class="cls-4" d="M61.72,23.15l.84-.45.12.15-.85.43Z" transform="translate(5.09 18.72)"/><path class="cls-4" d="M65.93,24.16s-.11.05-.13,0a.41.41,0,0,1-.07-.15L66,24Z" transform="translate(5.09 18.72)"/><path class="cls-4" d="M78.54,26.22l-.18.56-.16-.11.31-.48Z" transform="translate(5.09 18.72)"/><path class="cls-4" d="M48,61.4c.11.15.22.31.32.47s-.11.07-.16.11L48,61.42Z" transform="translate(5.09 18.72)"/><path class="cls-4" d="M65.64,62.69l.56.16-.11.17-.46-.32Z" transform="translate(5.09 18.72)"/><path class="cls-4" d="M49.24,43.86l-.14-.26.25.15Z" transform="translate(5.09 18.72)"/><path class="cls-16" d="M78.51,26.19c.14-.14.28-.29.41-.44l.06.06-.44.41Z" transform="translate(5.09 18.72)"/><path class="cls-16" d="M85,50.67l.17.19s-.09,0-.11,0a.59.59,0,0,1-.06-.14Z" transform="translate(5.09 18.72)"/><path class="cls-4" d="M43.73,38.67l-.42.43,0,0,.43-.42Z" transform="translate(5.09 18.72)"/><path class="cls-4" d="M42.86,40.37c-.29-.14-.31-.28,0-.43h0v.43Z" transform="translate(5.09 18.72)"/><path class="cls-4" d="M49.31,56.26l-.19.18.18-.19Z" transform="translate(5.09 18.72)"/><path class="cls-4" d="M48,61.42l-.17-.2.19.18Z" transform="translate(5.09 18.72)"/><path class="cls-4" d="M85.39,46.49s.11,0,.14.07,0,.08,0,.13l-.24-.11Z" transform="translate(5.09 18.72)"/><path class="cls-4" d="M49.74,63.55l.17.18s-.09,0-.11,0a.61.61,0,0,1-.07-.14Z" transform="translate(5.09 18.72)"/><path class="cls-13" d="M98.73,16.22l-.47.09Z" transform="translate(5.09 18.72)"/><path class="cls-15" d="M116.48,66.05l-.56-.29Z" transform="translate(5.09 18.72)"/><path class="cls-6" d="M125.78,62.79a.36.36,0,0,1-.55.07Z" transform="translate(5.09 18.72)"/><path class="cls-9" d="M163,40.15l1-.12,0,.2a3.41,3.41,0,0,1-2.47.61l-.57-.13a.28.28,0,0,0,0-.25C161.62,40.29,162.36,40.58,163,40.15Z" transform="translate(5.09 18.72)"/><path class="cls-9" d="M161,40.71l.57.13c-.58.42-1.15.67-1.72,0Z" transform="translate(5.09 18.72)"/><path class="cls-10" d="M161,40.71l-1.15.12a.65.65,0,0,1-.07-.41l1.22,0A.28.28,0,0,1,161,40.71Z" transform="translate(5.09 18.72)"/><path class="cls-15" d="M166.59,28l.89.39c0,.1,0,.19,0,.29l-.5.2-.78-.1Z" transform="translate(5.09 18.72)"/><path class="cls-4" d="M70.78,51.89c-.79,0-1.22-.65-1.74-1.1a1.13,1.13,0,0,1-.16-1.38A1,1,0,0,1,70.13,49c1,1,2.24.21,3.31.52-.47,1.22,1.49.92,1.26,2-.87,0-1.76-.11-2.25.93-.1.21-.4-.17-.51-.4C71.62,51.43,71.22,51.54,70.78,51.89Z" transform="translate(5.09 18.72)"/><path class="cls-4" d="M69.5,44.6a5.33,5.33,0,0,1,4-.72c-.13.46-1.44.55-.42,1.36,1.17.95-.51.62-.48,1.06a.52.52,0,0,1-.21,0c-1-.27-.3,1.82-1.45,1.17a2.93,2.93,0,0,1-1.48-2.85Z" transform="translate(5.09 18.72)"/><path class="cls-4" d="M72.55,46.3c0-.44,1.65-.11.48-1.06-1-.81.29-.9.42-1.36.46-.4.79-1.08,1.59-.72.62.27.42.83.43,1.3,0,.91.68,1.74.29,2.86C74.74,46.85,73.75,46.17,72.55,46.3Z" transform="translate(5.09 18.72)"/><path class="cls-4" d="M74.7,51.51c.23-1.08-1.73-.78-1.26-2,1.14,0,2.49-2,3.21-.31A3.19,3.19,0,0,1,74.81,53Z" transform="translate(5.09 18.72)"/><path class="cls-4" d="M70.78,51.89c.44-.35.84-.46,1.16.15C71.61,51.5,70.93,53.72,70.78,51.89Z" transform="translate(5.09 18.72)"/><path class="cls-4" d="M69.41,44.64a.65.65,0,0,1-.28-.85s.11-.08.16-.12l.21.93Z" transform="translate(5.09 18.72)"/><path class="cls-4" d="M54.51,33.54c1.39-.18,1.19.82,1.24,1.65.12,1.77.13,1.77,1.55,2.69.11-.93-1.06-1.45-.69-2.36.26-.64-.69-1.9.94-1.84,2.58.8,2.24,3.42,1.89,5.84a4.71,4.71,0,0,1-.27.8c-1.51-.6-3.16.5-4.66-.38l-.4-.88c0-1.33-.07-2.66-.1-4Z" transform="translate(5.09 18.72)"/><path class="cls-4" d="M54,35.06c0,1.34.06,2.67.1,4C52.41,37.2,52.39,36.33,54,35.06Z" transform="translate(5.09 18.72)"/></g></g></g></svg>