<svg xmlns="http://www.w3.org/2000/svg" viewBox="0 0 39.61 6.07"><defs><style>.cls-1{fill:#3d3d3d;}</style></defs><g id="katman_2" data-name="katman 2"><g id="katman_1-2" data-name="katman 1"><path class="cls-1" d="M1.51,1.64a.62.62,0,0,1,0-.3A.47.47,0,0,1,2,1a.48.48,0,0,1,.52.52v.35H4v-.4C4,.2,2.85,0,2.05,0,1,0,.22.33.07,1.26A2,2,0,0,0,.08,2C.32,3.18,2.34,3.51,2.63,4.25a.75.75,0,0,1,0,.42.49.49,0,0,1-.55.38.51.51,0,0,1-.57-.52V4H0v.43C0,5.69,1,6.07,2.06,6.07s1.86-.35,2-1.3a2.55,2.55,0,0,0,0-.93C3.81,2.66,1.67,2.3,1.51,1.64Zm18.41,0a.7.7,0,0,1,0-.29A.46.46,0,0,1,20.43,1a.48.48,0,0,1,.52.51v.35h1.4v-.4C22.35.22,21.25,0,20.46,0c-1,0-1.81.33-2,1.25a1.9,1.9,0,0,0,0,.75c.24,1.15,2.24,1.48,2.53,2.2a.86.86,0,0,1,0,.42A.49.49,0,0,1,20.5,5a.5.5,0,0,1-.56-.51V4H18.43v.43c0,1.25,1,1.63,2,1.63s1.85-.35,2-1.29a2.7,2.7,0,0,0,0-.91C22.21,2.66,20.08,2.31,19.92,1.65ZM32.78,4.74,31.45.18h-2.1v5.6h1.39l-.08-4.7,1.43,4.7h2V.18H32.7ZM6.06.18,5,5.84H6.54L7.33.6l.78,5.24H9.62L8.58.18Zm8.56,0L13.9,4.61,13.19.18H10.88l-.12,5.66h1.41l0-5.24,1,5.24h1.44l1-5.24,0,5.24h1.42L16.92.18Zm13.16,0H26.34V4.37a.72.72,0,0,1,0,.21.51.51,0,0,1-.54.42.5.5,0,0,1-.54-.42.71.71,0,0,1,0-.21V.18H23.8V4.24c0,.1,0,.32,0,.37.1,1.06.94,1.41,2,1.41s1.87-.35,2-1.41a3.57,3.57,0,0,0,0-.37Zm9.83,2.48v.83h.58v.82a.82.82,0,0,1,0,.22.61.61,0,0,1-1.15,0,1.64,1.64,0,0,1,0-.22V1.72a1.18,1.18,0,0,1,0-.27.59.59,0,0,1,1.13,0c0,.09,0,.22,0,.22V2H39.6V1.8a2.62,2.62,0,0,0,0-.37c-.11-1.07-1-1.4-2-1.4s-1.86.34-2,1.4a2.22,2.22,0,0,0,0,.37V4.18a3,3,0,0,0,0,.38c.09,1,1,1.39,2,1.39s1.9-.36,2-1.39a3,3,0,0,0,0-.38V2.66Z"/></g></g></svg>