<svg xmlns="http://www.w3.org/2000/svg" xmlns:xlink="http://www.w3.org/1999/xlink" viewBox="0 0 23.59 34.52"><defs><style>.cls-1{fill:none;}.cls-2{fill:#d8c5b2;}.cls-3{clip-path:url(#clip-path);}.cls-4{fill:#c6363c;}.cls-5{fill:#0c4076;}.cls-6{fill:#fff;}</style><clipPath id="clip-path"><circle class="cls-1" cx="11.79" cy="11.19" r="8.93" transform="translate(-0.11 0.12) rotate(-0.58)"/></clipPath></defs><g id="katman_2" data-name="katman 2"><g id="katman_1-2" data-name="katman 1"><path class="cls-2" d="M11.79,0A11.79,11.79,0,0,0,0,11.79c0,6.52,11.79,22.73,11.79,22.73s11.8-16.21,11.8-22.73A11.79,11.79,0,0,0,11.79,0Zm0,17.41a5.28,5.28,0,1,1,5.28-5.28A5.28,5.28,0,0,1,11.79,17.41Z"/><g class="cls-3"><rect class="cls-4" x="1.27" y="2.02" width="21.61" height="6.2"/><rect class="cls-5" x="1.27" y="8.18" width="21.61" height="6.2"/><rect class="cls-6" x="1.27" y="14.34" width="21.61" height="6.2"/></g></g></g></svg>