<svg xmlns="http://www.w3.org/2000/svg" xmlns:xlink="http://www.w3.org/1999/xlink" viewBox="0 0 280.04 169.45"><defs><style>.cls-1{fill:#424241;}.cls-2{opacity:0.3;}.cls-3{clip-path:url(#clip-path);}.cls-4{fill:#c6363c;}.cls-5{fill:#0c4076;}.cls-6{fill:#fff;}.cls-7{fill:none;}.cls-8{fill:#494949;}</style><clipPath id="clip-path" transform="translate(38.84 0.11)"><path class="cls-1" d="M20.92,9.36s-.55.06-.74.33-.39.66-.51.82a.55.55,0,0,1-.57.33c-.42,0-2.47-.31-2.47-.31l-.77-1.17s-.92,0-1,.19a15.93,15.93,0,0,1-1,2.06c-.18.18-.74,0-1,.24s-.46.31-.46.6a2.12,2.12,0,0,1-.14,1,8.85,8.85,0,0,1-1.48.14c-.16,0-.32.35-.51.46s-.62,0-.37.38.72.57.65.73-.65.17-.92.17-.93,0-.83.18a4.41,4.41,0,0,0,.37.95c.18.27.13.36.25.53s.35.29.46.44A3.87,3.87,0,0,1,10.55,19c0,.62-.28,1.4-.21,1.57s0,.07.6.64a3.69,3.69,0,0,1,1.27,2,2.94,2.94,0,0,1-.07,1.24c-.11.33-.09.51-.34.64s-.6.11-.72.53-.27.66,0,1.08.46.56.46.8a3.17,3.17,0,0,0,0,.75,3.31,3.31,0,0,0,.19.89c.16.28.48.64.85.55s.9-.44,1.25-.2.82.69,1,.69.83-.27,1,0,.49.53.26.86-.12.66-1,.53a5.33,5.33,0,0,0-1.8,0c-.12,0-.14.24-.19.83s.42.8.4,1.06-.51.71-.72,1.2-.92.86.05,1.55a5.59,5.59,0,0,0,2,.9,1.06,1.06,0,0,1,.81.67,1.41,1.41,0,0,0,1,1,7.53,7.53,0,0,0,2.08.44,6.33,6.33,0,0,0,1.46-.13c.2,0,.25.24.34.8a2.29,2.29,0,0,0,1.55,1.37,7.27,7.27,0,0,1,1.76.11c.25.13.62.13.64.22s.72,1.48.53,1.75S22.19,44.75,22,44.55s-.78-1.26-.9-1.26-.74.17-1.2.26-2.54-.57-2.56-.4.6,1,.46,1.27S16.21,46.05,16.3,46s-1.78-.57-1.85-.4-.92.2-.6.6,2.27,1.37,2.36,1.64a13.11,13.11,0,0,1,.58,3.38c-.19.47-1.39.35-1.25.82s.23.84.55.84.56-.11.84.24.23.62.53.6a4.43,4.43,0,0,1,1.78-.11c.6.2.43.27,1,.42a2.22,2.22,0,0,1,.83.38c.32.17.72.13.88.31a2,2,0,0,1,.41.68,5,5,0,0,1,.37,1.37c0,.31.05.67-.41.78s-.86.09-.95.53-.42.9-.14,1.21.53.58.53.87-.09,1.46-.5,1.79-.84.51-.86.75.07,1.7,0,2.1a.93.93,0,0,1-.51.62c-.14.09-.07.47-.19.82s-.9,0-1,.31.11.53.11,1.08.07.8-.55.91-.86,0-.86.66-.09,1.77-.14,2.35a1.72,1.72,0,0,1-.27,1c-.12.12-.3.51-.47.6S16,73,16,73.7a10.45,10.45,0,0,0,.11,1.84c.09.42-.11.42.39.84a3.56,3.56,0,0,1,.95,1c.07.2-.11.35.37.26s.83-.28,1.36,0,1.69.57,2.11,1.12a2.19,2.19,0,0,1,.5,1.31,2.21,2.21,0,0,0,.53,1.42c.6,1,1.09,1.26,1.37,1.32s1.41,0,1.57.2a.66.66,0,0,1,.18.75c-.11.42-.23.69.21,1.13s.67,1,1.27,1.09a5.25,5.25,0,0,0,1.46.24c.67,0,1-.09,1.15.2a2.75,2.75,0,0,1,.23,1.17c0,.38-.32.58-1,.58s-1.16-.07-1.16.19a3.56,3.56,0,0,1-.07,1,3.14,3.14,0,0,1-1.59,1.2,1.89,1.89,0,0,1-1.43-.25,2.51,2.51,0,0,0-.81-.35c-.58-.2-.69-.38-1.09-.4s-.36.16-.9-.15-1.08-.67-1.29-.58a2.89,2.89,0,0,0-.69,1.26c-.09.38.37,1,.76,1.57a13.34,13.34,0,0,1,1,2.17c.28.66.19.91.4,1s2.26,1.15,2.4,1.28a2.25,2.25,0,0,1,.27,1.13,6.25,6.25,0,0,0,.19,1.13,8.53,8.53,0,0,1,1.29.73c0,.11.58,1.19.44,1.55s-.41,1.35-.44,1.46a1,1,0,0,0,0,.81c.18.45.37.51.23.78a1.3,1.3,0,0,1-1,.64,5.12,5.12,0,0,0-1.43.22c-.21.11-1.23,1.31-1.34,1.37s-.67-.2-.65-.44.23-1.39.23-1.39H21s-.18-.51-.48-.47a7.62,7.62,0,0,0-1.83,1.06c.07.07.65,1.4.42,1.53s-1.27.13-1.34.22a2.41,2.41,0,0,0,.16,1.13A10.36,10.36,0,0,0,19,108.94a6.75,6.75,0,0,0,2.1,1,6,6,0,0,1,1.66.51l1.09.86a8.19,8.19,0,0,0,.58,2c.2.08,1.4.44,1.4.5a8.38,8.38,0,0,0,.51,2.11,4.78,4.78,0,0,0,1.5,1.37,12.74,12.74,0,0,1,1.85.68c0,.09.23.64.28.82s.69.55.83.58.85-.18,1-.18a9.09,9.09,0,0,1,1,.62c.23.11,1.15.68,1.29,1.17s.48.73,1.39,1,2.88.45,2.88.45l1.8,2.8s.12,1,.12,1a13.42,13.42,0,0,0,2.1,1.44c.37.13,2.1.11,2.63.29s1.46.64,2.08.91,2.5,1.23,2.5,1.23.3,2.35.3,2.53-.72.57-.93.59a11.5,11.5,0,0,0-2,.36,11,11,0,0,1-.6,2c-.18.25-.81.67-1.18.49s-3.86-1.73-3.86-1.73a19.86,19.86,0,0,0-1.36,1.53.82.82,0,0,0,.19,1.11,17.74,17.74,0,0,1,2.33,2.21c0,.2-.81,3-.81,3.34a5.87,5.87,0,0,0,1.43,2.14c.42.29,1.11.58,1.11.69a7,7,0,0,0,.51,1.84c.23.28.69.57.69,1s-.27.93-.16,1.13.93.89.93,1.13-.1,1.46-.1,1.46,2.31,0,2.38,0,1.83,1,2.2,1.24,3.35,3.05,3.39,3.14-.25,1.17,0,1.42a2.61,2.61,0,0,1,.69.79,14.2,14.2,0,0,1,.44,1.86c0,.22-.37.93-.2,1.13s1.15.75,1.24,1,.63,3.42.67,3.62-1.34,2-1.25,2.1a3.92,3.92,0,0,0,1.44.93,4.75,4.75,0,0,0,1.36-.09c.23,0,.42.4.78.13s2.73-2.05,2.48-2.62-1.5-.62-1.37-1.29.93-3.18.93-3.18.74-.18.83-.4a6.39,6.39,0,0,1,1.27-1.28c.28-.18,1.13,0,1.13,0s.46.31.72-.06A5,5,0,0,1,66.7,159a21.32,21.32,0,0,0,2.86-1.59c.44-.36.77-1,1-1.11s1.25-.33,1.25-.33.39,1.15.62,1.17.9-.27,1.09.07.34,1.37.67,1.68a7,7,0,0,0,1.54,1c.17,0,1.14-.26,1.14-.55s-.19-.88,0-1a4.8,4.8,0,0,0,.69-.86c.16-.22.39-1.55.55-1.75a10.17,10.17,0,0,1,1.76-1.3c.14,0,.78.13,1,.18l.46.11a6.66,6.66,0,0,1,.09-1.31,3.27,3.27,0,0,1,1.5.09c.21.2.42.86.83.91a6,6,0,0,0,1.71-.29c.3-.11,1-.53,1.46-.31a6.54,6.54,0,0,0,1.57.66c.07-.08.64-1.43.64-1.43a9.86,9.86,0,0,0,1.74-.84c.2-.25.5-1.16.57-1.18s1.76.58,1.81.42.73-1,.92-1,2.38,1.28,2.91,1.37.72-.2,1.45-.33a20.11,20.11,0,0,0,2.64-.73c.34-.16.76-.66,1.22-.66a3.85,3.85,0,0,0,1.64-.23c.37-.22,1.5-1.26,1.64-1.08s2.31,1.68,2.31,1.68a18.21,18.21,0,0,0,2.15.2c.37,0,.53.11,1-.49a12.82,12.82,0,0,1,1.34-1.83c.37-.31,1.13-.55,1.29-1s.44-3.27.16-3.54-2.77-2.43-2.77-2.43,1-7.59,1-7.65a8.41,8.41,0,0,1-.65-1.75,14.66,14.66,0,0,1,.62-1.66c.07-.18.21-.57.21-.57a6.25,6.25,0,0,0,1.13,0,10.81,10.81,0,0,1,1.09-.86,13.32,13.32,0,0,0,2.28.18l1.81-2.15c.07-.09.2-1.44.34-1.48s1.48-1.35,1.48-1.35,1.2-.77,1.27-.77,1.06-2,1.23-2.06,2.88-.91,2.88-1,.65-1.18.67-1.38a12.88,12.88,0,0,0-.55-1.74l-1.48-.56-.83.16-3.47-3.41-.76-1.7-4-3.43-1.36-.35a17.72,17.72,0,0,1-2.27-2.13c0-.24-.74-5.39-.74-5.39a24.61,24.61,0,0,1-2.61-1.11c0-.11-1.68-4-1.68-4s1.78-9.11,1.87-9.11l2,0s2.26-1.82,2.4-2a26.2,26.2,0,0,0,1.94-3,13.51,13.51,0,0,1-.11-1.86,5.56,5.56,0,0,0,.57-1,4.57,4.57,0,0,1,.61-1c.13-.17,0-.64-.24-.68s-1.94,0-2.47-.64S112,74.37,111.76,74a10,10,0,0,1-.74-1.32,1.47,1.47,0,0,0-.32-1.4,9,9,0,0,0-1.06-.79c0-.07-.93-.91-.86-1.33a1.39,1.39,0,0,1,.46-.93c.24-.16,0-.47.54-.53s1.08.24,1.36-.2-.19-1.42.41-1.55,1.53.55,2.22.51,1.06-.71,1.73-.75a4.66,4.66,0,0,1,1.74.44,2,2,0,0,0-.63-1.62c-.58-.39-3-.66-3.49-1.21a22.17,22.17,0,0,0-2.79-2.46c-.44-.22-.79-.53-1.06-.51a3.06,3.06,0,0,0-1.16.82,16.29,16.29,0,0,1-2.75,1.29,1.84,1.84,0,0,0-1,1.06c-.34.71-1.8,3-2,3.23s-1.41,1.77-2.24,1.66-2-2-2.17-2.66-.3-2.12-1-2.43a11.75,11.75,0,0,0-2.1-.6L90.44,62l-1.57,0c-.71,0-1.71,0-2-.46s-1.11-2.75-1.55-3a1.41,1.41,0,0,0-1.16-.24c-.55.09-1.06-.67-1.29-.67a5.05,5.05,0,0,0-1.34.36c-.25.13-1.11,1-1.78.88s-1-1.86-1.41-2-.69-.49-1.15-.22.11-.69.48-1,1.37-2,1.69-2.06,2.54-.24,2.63-.29a3.07,3.07,0,0,0,.21-1.33,9,9,0,0,0-2.45-1.32c-.09.09-1,.86-1.11.66s-1.54-1.41-1.45-1.46,2-2,2-2L80,46.07s0-1.32.32-1.7,1.74-1.66,1.57-2-.37-1.17-.83-1.11A12.89,12.89,0,0,1,79.29,41c-.07,0-1.13.89-1.43.66a22.43,22.43,0,0,0-3.1-1.63c-.35-.05-2.08.29-2.06-.22a6,6,0,0,0-1.06-2.5l-.9.46c-.25.13-.88.78-1,.82a10.14,10.14,0,0,1-2.52-1.37c-.27-.38-.5-1.09-.69-1.13s-1.59.11-1.66-.4-.44-1.19-.39-1.5.3-.53,0-.89-1.13-1.68-1.2-1.68a13.34,13.34,0,0,1-2.54-.88c0-.16.3-1.95.35-2.08a18.44,18.44,0,0,0-.56-2s-2,.18-1.85-.15.26-.84.51-1a4.54,4.54,0,0,0,1.2-1.41c0-.27.33-4.36.33-4.36s-.83-.16-.95,0a9.32,9.32,0,0,1-1.06.86c-.09,0-1.09-.24-1.2-.66a12.5,12.5,0,0,0-.67-1.46s0-2.19-.1-2.21L53.88,15s-1-2.79-1.25-2.83-.9,0-1.1,0A18.5,18.5,0,0,1,48.75,9.6a13.43,13.43,0,0,0-1.66-3.14,5,5,0,0,0-1.55-.93c-.69-.2-1.08-.49-1.38-.44A5.6,5.6,0,0,1,42.42,5c-.11-.14-.32-.47-.39-.36a2,2,0,0,1-1,.36c-.09-.09-.58-.85-.58-.85a53.21,53.21,0,0,0-5.56,1c-.16.22-.81,1-1.29.84s-3.12-2-3.12-2-3.63,1.37-3.68,1.43-.6.78-.9.76-.53-.14-.69-.07-2.45,2.39-2.59,2.48S20.92,9.36,20.92,9.36Z"/></clipPath></defs><g id="katman_2" data-name="katman 2"><g id="katman_1-2" data-name="katman 1"><g class="cls-2"><path class="cls-1" d="M20.92,9.36s-.55.06-.74.33-.39.66-.51.82a.55.55,0,0,1-.57.33c-.42,0-2.47-.31-2.47-.31l-.77-1.17s-.92,0-1,.19a15.93,15.93,0,0,1-1,2.06c-.18.18-.74,0-1,.24s-.46.31-.46.6a2.12,2.12,0,0,1-.14,1,8.85,8.85,0,0,1-1.48.14c-.16,0-.32.35-.51.46s-.62,0-.37.38.72.57.65.73-.65.17-.92.17-.93,0-.83.18a4.41,4.41,0,0,0,.37.95c.18.27.13.36.25.53s.35.29.46.44A3.87,3.87,0,0,1,10.55,19c0,.62-.28,1.4-.21,1.57s0,.07.6.64a3.69,3.69,0,0,1,1.27,2,2.94,2.94,0,0,1-.07,1.24c-.11.33-.09.51-.34.64s-.6.11-.72.53-.27.66,0,1.08.46.56.46.8a3.17,3.17,0,0,0,0,.75,3.31,3.31,0,0,0,.19.89c.16.28.48.64.85.55s.9-.44,1.25-.2.82.69,1,.69.83-.27,1,0,.49.53.26.86-.12.66-1,.53a5.33,5.33,0,0,0-1.8,0c-.12,0-.14.24-.19.83s.42.8.4,1.06-.51.71-.72,1.2-.92.86.05,1.55a5.59,5.59,0,0,0,2,.9,1.06,1.06,0,0,1,.81.67,1.41,1.41,0,0,0,1,1,7.53,7.53,0,0,0,2.08.44,6.33,6.33,0,0,0,1.46-.13c.2,0,.25.24.34.8a2.29,2.29,0,0,0,1.55,1.37,7.27,7.27,0,0,1,1.76.11c.25.13.62.13.64.22s.72,1.48.53,1.75S22.19,44.75,22,44.55s-.78-1.26-.9-1.26-.74.17-1.2.26-2.54-.57-2.56-.4.6,1,.46,1.27S16.21,46.05,16.3,46s-1.78-.57-1.85-.4-.92.2-.6.6,2.27,1.37,2.36,1.64a13.11,13.11,0,0,1,.58,3.38c-.19.47-1.39.35-1.25.82s.23.84.55.84.56-.11.84.24.23.62.53.6a4.43,4.43,0,0,1,1.78-.11c.6.2.43.27,1,.42a2.22,2.22,0,0,1,.83.38c.32.17.72.13.88.31a2,2,0,0,1,.41.68,5,5,0,0,1,.37,1.37c0,.31.05.67-.41.78s-.86.09-.95.53-.42.9-.14,1.21.53.58.53.87-.09,1.46-.5,1.79-.84.51-.86.75.07,1.7,0,2.1a.93.93,0,0,1-.51.62c-.14.09-.07.47-.19.82s-.9,0-1,.31.11.53.11,1.08.07.8-.55.91-.86,0-.86.66-.09,1.77-.14,2.35a1.72,1.72,0,0,1-.27,1c-.12.12-.3.51-.47.6S16,73,16,73.7a10.45,10.45,0,0,0,.11,1.84c.09.42-.11.42.39.84a3.56,3.56,0,0,1,.95,1c.07.2-.11.35.37.26s.83-.28,1.36,0,1.69.57,2.11,1.12a2.19,2.19,0,0,1,.5,1.31,2.21,2.21,0,0,0,.53,1.42c.6,1,1.09,1.26,1.37,1.32s1.41,0,1.57.2a.66.66,0,0,1,.18.75c-.11.42-.23.69.21,1.13s.67,1,1.27,1.09a5.25,5.25,0,0,0,1.46.24c.67,0,1-.09,1.15.2a2.75,2.75,0,0,1,.23,1.17c0,.38-.32.58-1,.58s-1.16-.07-1.16.19a3.56,3.56,0,0,1-.07,1,3.14,3.14,0,0,1-1.59,1.2,1.89,1.89,0,0,1-1.43-.25,2.51,2.51,0,0,0-.81-.35c-.58-.2-.69-.38-1.09-.4s-.36.16-.9-.15-1.08-.67-1.29-.58a2.89,2.89,0,0,0-.69,1.26c-.09.38.37,1,.76,1.57a13.34,13.34,0,0,1,1,2.17c.28.66.19.91.4,1s2.26,1.15,2.4,1.28a2.25,2.25,0,0,1,.27,1.13,6.25,6.25,0,0,0,.19,1.13,8.53,8.53,0,0,1,1.29.73c0,.11.58,1.19.44,1.55s-.41,1.35-.44,1.46a1,1,0,0,0,0,.81c.18.45.37.51.23.78a1.3,1.3,0,0,1-1,.64,5.12,5.12,0,0,0-1.43.22c-.21.11-1.23,1.31-1.34,1.37s-.67-.2-.65-.44.23-1.39.23-1.39H21s-.18-.51-.48-.47a7.62,7.62,0,0,0-1.83,1.06c.07.07.65,1.4.42,1.53s-1.27.13-1.34.22a2.41,2.41,0,0,0,.16,1.13A10.36,10.36,0,0,0,19,108.94a6.75,6.75,0,0,0,2.1,1,6,6,0,0,1,1.66.51l1.09.86a8.19,8.19,0,0,0,.58,2c.2.08,1.4.44,1.4.5a8.38,8.38,0,0,0,.51,2.11,4.78,4.78,0,0,0,1.5,1.37,12.74,12.74,0,0,1,1.85.68c0,.09.23.64.28.82s.69.55.83.58.85-.18,1-.18a9.09,9.09,0,0,1,1,.62c.23.11,1.15.68,1.29,1.17s.48.73,1.39,1,2.88.45,2.88.45l1.8,2.8s.12,1,.12,1a13.42,13.42,0,0,0,2.1,1.44c.37.13,2.1.11,2.63.29s1.46.64,2.08.91,2.5,1.23,2.5,1.23.3,2.35.3,2.53-.72.57-.93.59a11.5,11.5,0,0,0-2,.36,11,11,0,0,1-.6,2c-.18.25-.81.67-1.18.49s-3.86-1.73-3.86-1.73a19.86,19.86,0,0,0-1.36,1.53.82.82,0,0,0,.19,1.11,17.74,17.74,0,0,1,2.33,2.21c0,.2-.81,3-.81,3.34a5.87,5.87,0,0,0,1.43,2.14c.42.29,1.11.58,1.11.69a7,7,0,0,0,.51,1.84c.23.28.69.57.69,1s-.27.93-.16,1.13.93.89.93,1.13-.1,1.46-.1,1.46,2.31,0,2.38,0,1.83,1,2.2,1.24,3.35,3.05,3.39,3.14-.25,1.17,0,1.42a2.61,2.61,0,0,1,.69.79,14.2,14.2,0,0,1,.44,1.86c0,.22-.37.93-.2,1.13s1.15.75,1.24,1,.63,3.42.67,3.62-1.34,2-1.25,2.1a3.92,3.92,0,0,0,1.44.93,4.75,4.75,0,0,0,1.36-.09c.23,0,.42.4.78.13s2.73-2.05,2.48-2.62-1.5-.62-1.37-1.29.93-3.18.93-3.18.74-.18.83-.4a6.39,6.39,0,0,1,1.27-1.28c.28-.18,1.13,0,1.13,0s.46.31.72-.06A5,5,0,0,1,66.7,159a21.32,21.32,0,0,0,2.86-1.59c.44-.36.77-1,1-1.11s1.25-.33,1.25-.33.39,1.15.62,1.17.9-.27,1.09.07.34,1.37.67,1.68a7,7,0,0,0,1.54,1c.17,0,1.14-.26,1.14-.55s-.19-.88,0-1a4.8,4.8,0,0,0,.69-.86c.16-.22.39-1.55.55-1.75a10.17,10.17,0,0,1,1.76-1.3c.14,0,.78.13,1,.18l.46.11a6.66,6.66,0,0,1,.09-1.31,3.27,3.27,0,0,1,1.5.09c.21.2.42.86.83.91a6,6,0,0,0,1.71-.29c.3-.11,1-.53,1.46-.31a6.54,6.54,0,0,0,1.57.66c.07-.08.64-1.43.64-1.43a9.86,9.86,0,0,0,1.74-.84c.2-.25.5-1.16.57-1.18s1.76.58,1.81.42.73-1,.92-1,2.38,1.28,2.91,1.37.72-.2,1.45-.33a20.11,20.11,0,0,0,2.64-.73c.34-.16.76-.66,1.22-.66a3.85,3.85,0,0,0,1.64-.23c.37-.22,1.5-1.26,1.64-1.08s2.31,1.68,2.31,1.68a18.21,18.21,0,0,0,2.15.2c.37,0,.53.11,1-.49a12.82,12.82,0,0,1,1.34-1.83c.37-.31,1.13-.55,1.29-1s.44-3.27.16-3.54-2.77-2.43-2.77-2.43,1-7.59,1-7.65a8.41,8.41,0,0,1-.65-1.75,14.66,14.66,0,0,1,.62-1.66c.07-.18.21-.57.21-.57a6.25,6.25,0,0,0,1.13,0,10.81,10.81,0,0,1,1.09-.86,13.32,13.32,0,0,0,2.28.18l1.81-2.15c.07-.09.2-1.44.34-1.48s1.48-1.35,1.48-1.35,1.2-.77,1.27-.77,1.06-2,1.23-2.06,2.88-.91,2.88-1,.65-1.18.67-1.38a12.88,12.88,0,0,0-.55-1.74l-1.48-.56-.83.16-3.47-3.41-.76-1.7-4-3.43-1.36-.35a17.72,17.72,0,0,1-2.27-2.13c0-.24-.74-5.39-.74-5.39a24.61,24.61,0,0,1-2.61-1.11c0-.11-1.68-4-1.68-4s1.78-9.11,1.87-9.11l2,0s2.26-1.82,2.4-2a26.2,26.2,0,0,0,1.94-3,13.51,13.51,0,0,1-.11-1.86,5.56,5.56,0,0,0,.57-1,4.57,4.57,0,0,1,.61-1c.13-.17,0-.64-.24-.68s-1.94,0-2.47-.64S112,74.37,111.76,74a10,10,0,0,1-.74-1.32,1.47,1.47,0,0,0-.32-1.4,9,9,0,0,0-1.06-.79c0-.07-.93-.91-.86-1.33a1.39,1.39,0,0,1,.46-.93c.24-.16,0-.47.54-.53s1.08.24,1.36-.2-.19-1.42.41-1.55,1.53.55,2.22.51,1.06-.71,1.73-.75a4.66,4.66,0,0,1,1.74.44,2,2,0,0,0-.63-1.62c-.58-.39-3-.66-3.49-1.21a22.17,22.17,0,0,0-2.79-2.46c-.44-.22-.79-.53-1.06-.51a3.06,3.06,0,0,0-1.16.82,16.29,16.29,0,0,1-2.75,1.29,1.84,1.84,0,0,0-1,1.06c-.34.71-1.8,3-2,3.23s-1.41,1.77-2.24,1.66-2-2-2.17-2.66-.3-2.12-1-2.43a11.75,11.75,0,0,0-2.1-.6L90.44,62l-1.57,0c-.71,0-1.71,0-2-.46s-1.11-2.75-1.55-3a1.41,1.41,0,0,0-1.16-.24c-.55.09-1.06-.67-1.29-.67a5.05,5.05,0,0,0-1.34.36c-.25.13-1.11,1-1.78.88s-1-1.86-1.41-2-.69-.49-1.15-.22.11-.69.48-1,1.37-2,1.69-2.06,2.54-.24,2.63-.29a3.07,3.07,0,0,0,.21-1.33,9,9,0,0,0-2.45-1.32c-.09.09-1,.86-1.11.66s-1.54-1.41-1.45-1.46,2-2,2-2L80,46.07s0-1.32.32-1.7,1.74-1.66,1.57-2-.37-1.17-.83-1.11A12.89,12.89,0,0,1,79.29,41c-.07,0-1.13.89-1.43.66a22.43,22.43,0,0,0-3.1-1.63c-.35-.05-2.08.29-2.06-.22a6,6,0,0,0-1.06-2.5l-.9.46c-.25.13-.88.78-1,.82a10.14,10.14,0,0,1-2.52-1.37c-.27-.38-.5-1.09-.69-1.13s-1.59.11-1.66-.4-.44-1.19-.39-1.5.3-.53,0-.89-1.13-1.68-1.2-1.68a13.34,13.34,0,0,1-2.54-.88c0-.16.3-1.95.35-2.08a18.44,18.44,0,0,0-.56-2s-2,.18-1.85-.15.26-.84.51-1a4.54,4.54,0,0,0,1.2-1.41c0-.27.33-4.36.33-4.36s-.83-.16-.95,0a9.32,9.32,0,0,1-1.06.86c-.09,0-1.09-.24-1.2-.66a12.5,12.5,0,0,0-.67-1.46s0-2.19-.1-2.21L53.88,15s-1-2.79-1.25-2.83-.9,0-1.1,0A18.5,18.5,0,0,1,48.75,9.6a13.43,13.43,0,0,0-1.66-3.14,5,5,0,0,0-1.55-.93c-.69-.2-1.08-.49-1.38-.44A5.6,5.6,0,0,1,42.42,5c-.11-.14-.32-.47-.39-.36a2,2,0,0,1-1,.36c-.09-.09-.58-.85-.58-.85a53.21,53.21,0,0,0-5.56,1c-.16.22-.81,1-1.29.84s-3.12-2-3.12-2-3.63,1.37-3.68,1.43-.6.78-.9.76-.53-.14-.69-.07-2.45,2.39-2.59,2.48S20.92,9.36,20.92,9.36Z" transform="translate(38.84 0.11)"/><g class="cls-3"><rect class="cls-1" width="280.04" height="55.48"/><rect class="cls-1" y="54.28" width="280.04" height="55.48"/><rect class="cls-1" y="108.56" width="280.04" height="55.48"/></g><path class="cls-1" d="M59.1,169.34a.58.58,0,0,1-.31-.13.45.45,0,0,0-.22-.09l-.31,0a3.75,3.75,0,0,1-.71.08,1.83,1.83,0,0,1-.35,0,3.89,3.89,0,0,1-1.45-1c0-.07.1-.31.6-1.06a5.26,5.26,0,0,0,.64-1c0-.07-.09-.46-.17-1-.18-1-.44-2.48-.5-2.65s-.44-.42-.76-.64a3.41,3.41,0,0,1-.48-.37c-.12-.14,0-.48.1-.77a2,2,0,0,0,.1-.38,15.86,15.86,0,0,0-.44-1.85,2.14,2.14,0,0,0-.55-.66l-.13-.12c-.19-.18-.1-.75,0-1.13a1.43,1.43,0,0,0,0-.3c-.08-.12-3-2.88-3.38-3.12s-1.27-.73-1.8-1l-.4-.22a3.1,3.1,0,0,0-.63,0l-1.73,0h0v0s.09-1.22.09-1.46-.34-.49-.58-.74a4,4,0,0,1-.34-.37c-.07-.12,0-.32,0-.55a2.44,2.44,0,0,0,.11-.6,1.12,1.12,0,0,0-.46-.75l-.23-.24a6.63,6.63,0,0,1-.51-1.86,1.81,1.81,0,0,0-.48-.3,6.27,6.27,0,0,1-.62-.36,5.91,5.91,0,0,1-1.44-2.17,19.78,19.78,0,0,1,.49-2.06c.16-.62.31-1.2.31-1.28A18,18,0,0,0,40.25,137a.84.84,0,0,1-.19-1.14,17.49,17.49,0,0,1,1.37-1.54l0,0h0S45,135.85,45.33,136a.34.34,0,0,0,.18,0,1.49,1.49,0,0,0,1-.52,10.73,10.73,0,0,0,.6-2,8.06,8.06,0,0,1,2-.39c.22,0,.89-.42.89-.56s-.27-2.29-.29-2.5c-.19-.1-1.9-1-2.48-1.23l-.77-.35a13.43,13.43,0,0,0-1.31-.56,8,8,0,0,0-1.48-.16,5.67,5.67,0,0,1-1.15-.13,11.52,11.52,0,0,1-2.13-1.47s-.08-.75-.11-1l-1.79-2.79c-.19,0-2-.24-2.87-.45s-1.27-.46-1.41-1-1-1-1.28-1.15l-.41-.26a2.81,2.81,0,0,0-.61-.36,3.63,3.63,0,0,0-.45.08,2.55,2.55,0,0,1-.58.1c-.14,0-.8-.41-.85-.6s-.12-.34-.18-.53-.09-.25-.1-.29a15,15,0,0,0-1.64-.6l-.19-.06a4.69,4.69,0,0,1-1.52-1.39,7.61,7.61,0,0,1-.51-2.1,7.76,7.76,0,0,0-.88-.32l-.51-.17a6.74,6.74,0,0,1-.59-2l-1.08-.85a4.25,4.25,0,0,0-1.33-.43l-.32-.07A7.45,7.45,0,0,1,19,109a7.94,7.94,0,0,1-1-1.1l-.14-.17a2.54,2.54,0,0,1-.16-1.17s.19-.07.57-.1a3,3,0,0,0,.78-.13.08.08,0,0,0,0-.07,4,4,0,0,0-.45-1.4,0,0,0,0,1,0,0,7.26,7.26,0,0,1,1.85-1.07c.29,0,.47.36.52.46h1.14v0s-.21,1.15-.23,1.39a.25.25,0,0,0,.08.18.9.9,0,0,0,.48.24h0a6.43,6.43,0,0,0,.48-.5,7.7,7.7,0,0,1,.86-.87,5.33,5.33,0,0,1,1.45-.22,1.25,1.25,0,0,0,.92-.63c.08-.16,0-.23-.06-.4s-.11-.19-.18-.34a1.06,1.06,0,0,1,0-.78.14.14,0,0,0,0-.06c0-.12.3-1.12.44-1.47s-.21-1-.36-1.32a1,1,0,0,1-.08-.21,8.94,8.94,0,0,0-1.28-.7h0a6.16,6.16,0,0,1-.19-1.14,2.33,2.33,0,0,0-.27-1.11c-.1-.1-1.48-.81-2.07-1.11L21.83,95c-.13-.07-.16-.19-.2-.37a4.64,4.64,0,0,0-.21-.67l-.19-.47a9.81,9.81,0,0,0-.8-1.69l-.11-.16c-.36-.53-.74-1.08-.66-1.44a2.87,2.87,0,0,1,.72-1.28l.09,0a3.07,3.07,0,0,1,1.05.49l.18.11a.93.93,0,0,0,.47.18h.13a.82.82,0,0,1,.29,0,1.31,1.31,0,0,1,.56.17,3.58,3.58,0,0,0,.53.23l.24.08a1.52,1.52,0,0,1,.48.22l.1.06a1.83,1.83,0,0,0,1.4.23,3,3,0,0,0,1.57-1.17,3.11,3.11,0,0,0,.07-.87v-.14c0-.22.28-.23.59-.23h.6c.63,0,1-.18,1-.54a2.7,2.7,0,0,0-.23-1.16c-.09-.16-.24-.19-.5-.19h-.62a3.67,3.67,0,0,1-1.06-.14l-.41-.1a1.78,1.78,0,0,1-1-.72c-.1-.13-.2-.25-.32-.38a.86.86,0,0,1-.24-1.07l0-.08a.62.62,0,0,0-.15-.69l0,0a2.56,2.56,0,0,0-1-.15,2.35,2.35,0,0,1-.54,0c-.24,0-.73-.3-1.39-1.34-.46-.74-.47-.84-.5-1.12a2.11,2.11,0,0,0,0-.31l0-.12a2,2,0,0,0-.48-1.17A3.5,3.5,0,0,0,19.81,78a5,5,0,0,1-.68-.3,1.12,1.12,0,0,0-.57-.16,1.73,1.73,0,0,0-.49.08l-.28.06c-.21,0-.31,0-.36,0s0-.08,0-.13a.23.23,0,0,0,0-.14,3.5,3.5,0,0,0-.94-1c-.35-.29-.37-.39-.37-.58a1.68,1.68,0,0,0,0-.27,9.61,9.61,0,0,1-.12-1.85c0-.45.14-.54.34-.54h0a.32.32,0,0,0,.14,0,1.19,1.19,0,0,0,.28-.35,1.54,1.54,0,0,1,.17-.24c.06-.06.21-.27.27-1v-.06c0-.58.14-1.67.14-2.29s.19-.59.61-.65l.27,0c.54-.1.53-.28.53-.73v-.15a2.25,2.25,0,0,0-.1-.59.67.67,0,0,1,0-.5c.07-.14.26-.15.43-.15h.19c.23,0,.38,0,.42-.16a1.86,1.86,0,0,0,.08-.45c0-.18,0-.33.12-.39l0,0a.86.86,0,0,0,.45-.57,9.79,9.79,0,0,0,0-1.5,5.59,5.59,0,0,1,0-.6c0-.18.22-.32.48-.5a4.07,4.07,0,0,0,.38-.28c.41-.32.5-1.49.5-1.76s-.22-.51-.48-.79l0,0c-.21-.24-.11-.54,0-.87,0-.12.09-.25.12-.38.08-.38.38-.44.72-.5l.25-.06c.37-.08.37-.33.38-.6,0,0,0-.09,0-.14a4.94,4.94,0,0,0-.33-1.25l0-.11a1.84,1.84,0,0,0-.41-.67.67.67,0,0,0-.39-.15,1.59,1.59,0,0,1-.48-.16.87.87,0,0,1-.2-.12,2,2,0,0,0-.62-.25,1.89,1.89,0,0,1-.5-.2,2.33,2.33,0,0,0-.5-.22,1.68,1.68,0,0,0-.48-.07,4.26,4.26,0,0,0-.94.13c-.15,0-.26.05-.34.05s-.27-.1-.36-.27a2.25,2.25,0,0,0-.2-.34.61.61,0,0,0-.62-.24h-.19c-.33,0-.43-.35-.56-.79l0-.07c-.09-.28.25-.37.57-.47s.59-.17.68-.37a13.34,13.34,0,0,0-.58-3.36,4.81,4.81,0,0,0-1.1-.76,7.15,7.15,0,0,1-1.25-.87c-.07-.09-.1-.16-.08-.23s.24-.21.41-.27.24-.08.26-.13.1-.06.16-.06a7.78,7.78,0,0,1,1.71.42c.07-.09.29-.33.63-.68s.76-.79.83-.9-.12-.49-.27-.77a1.3,1.3,0,0,1-.2-.48c0-.06.1-.06.13-.06a7.23,7.23,0,0,1,1,.19,7.86,7.86,0,0,0,1.36.25h.1c.22,0,.47-.1.69-.16a4.49,4.49,0,0,1,.51-.11c.07,0,.18.16.5.65a3.61,3.61,0,0,0,.43.62s0,0,.07,0A9.32,9.32,0,0,0,25,43.38c.14-.2-.29-1.18-.46-1.54a.75.75,0,0,1-.07-.18s-.13,0-.22-.07a1.62,1.62,0,0,1-.41-.13,4.59,4.59,0,0,0-1.31-.11H22.1A2.27,2.27,0,0,1,20.52,40c-.1-.56-.14-.75-.32-.77a1.58,1.58,0,0,0-.29,0,4,4,0,0,1-.86.1h-.3a7.88,7.88,0,0,1-2.09-.45,1.4,1.4,0,0,1-1-.93l0-.06a1,1,0,0,0-.78-.64l-.18-.05a5.48,5.48,0,0,1-1.84-.87c-.77-.54-.51-.91-.26-1.26a2.14,2.14,0,0,0,.2-.32,3.75,3.75,0,0,1,.41-.67,1.31,1.31,0,0,0,.3-.52.46.46,0,0,0-.13-.29,1.06,1.06,0,0,1-.26-.77c.05-.62.07-.82.21-.86a4,4,0,0,1,1-.09,5.73,5.73,0,0,1,.84.06l.34,0A.46.46,0,0,0,16,31.3a1.64,1.64,0,0,1,.12-.22c.18-.26,0-.47-.16-.69l-.1-.14a.31.31,0,0,0-.27-.1,2.46,2.46,0,0,0-.45.07,1.05,1.05,0,0,1-.26.05,1.76,1.76,0,0,1-.7-.44l-.34-.25a.46.46,0,0,0-.27-.08,1.73,1.73,0,0,0-.6.16,2.08,2.08,0,0,1-.35.12l-.12,0a1,1,0,0,1-.77-.59,1.24,1.24,0,0,1-.14-.58,2.51,2.51,0,0,0-.05-.31,1.73,1.73,0,0,1,0-.55c0-.07,0-.14,0-.21a.71.71,0,0,0-.2-.41,2.11,2.11,0,0,1-.26-.37.91.91,0,0,1,0-.9l.06-.21a.66.66,0,0,1,.52-.47,1,1,0,0,0,.21-.08c.18-.09.21-.21.26-.4s0-.14.07-.22a2.51,2.51,0,0,0,.08-1v-.2a3.47,3.47,0,0,0-1.26-2c-.22-.22-.35-.34-.43-.41a.52.52,0,0,1-.18-.24,1.48,1.48,0,0,1,.07-.56,4.34,4.34,0,0,0,.14-1,4,4,0,0,0-.67-1.62,1.88,1.88,0,0,0-.2-.19A1,1,0,0,1,9.39,17a.74.74,0,0,1-.09-.21,1.16,1.16,0,0,0-.16-.32,2.27,2.27,0,0,1-.28-.68c0-.11-.07-.21-.1-.28a.13.13,0,0,1,0-.11c.06-.08.22-.11.56-.11h.3c.5,0,.85-.06.89-.16s-.1-.17-.24-.29a2.16,2.16,0,0,1-.4-.4c-.08-.11-.1-.19-.08-.25s.14-.1.26-.12a.59.59,0,0,0,.2-.06,1.14,1.14,0,0,0,.22-.22c.1-.12.19-.23.3-.25h.34a5.47,5.47,0,0,0,1.12-.11,2.35,2.35,0,0,0,.12-.93c0-.28.15-.38.4-.56l.08-.06a1.15,1.15,0,0,1,.61-.15.81.81,0,0,0,.43-.09,17.36,17.36,0,0,0,1-2.05c.07-.19.86-.21,1-.22h0l.77,1.18c.19,0,2.06.3,2.45.3a.49.49,0,0,0,.5-.24.18.18,0,0,1,0-.07l.21-.35c.09-.16.2-.33.29-.47a1.33,1.33,0,0,1,.76-.35c.1,0,1.59-.73,1.72-.81s.51-.48,1-1A21.8,21.8,0,0,1,25.23,6a.74.74,0,0,1,.39,0l.32,0h0c.27,0,.79-.64.86-.73s2.59-1,3.68-1.46h0s2.63,1.79,3.11,2l.15,0c.45,0,1-.71,1.1-.85a46.93,46.93,0,0,1,5.59-1h0v0c.14.21.5.76.58.83h0A2.24,2.24,0,0,0,42,4.6a.09.09,0,0,1,.07,0c.08,0,.16.1.29.27l.09.11a3.6,3.6,0,0,0,1.22.12,2.91,2.91,0,0,0,.48,0,1.43,1.43,0,0,1,.67.18,7.24,7.24,0,0,0,.73.27,4,4,0,0,1,1.26.7,2,2,0,0,0,.3.23,14.11,14.11,0,0,1,1.68,3.16,19,19,0,0,0,2.74,2.59H52l.38,0,.23,0c.3,0,1.1,2.34,1.27,2.84,1,.44,2.85,1.27,2.92,1.29s.09,0,.11,2.24A11.28,11.28,0,0,1,57.61,20c.1.36.94.64,1.14.64h0a8.34,8.34,0,0,0,1.05-.85c0-.06.15-.08.33-.08a3.33,3.33,0,0,1,.65.07h0v0s-.3,4.1-.32,4.36a4.74,4.74,0,0,1-1.22,1.44,1.64,1.64,0,0,0-.44.84.78.78,0,0,0-.05.14,0,0,0,0,0,0,0s.18.12.8.12,1-.05,1-.05h0v0a14.06,14.06,0,0,1,.55,2c0,.06-.11.6-.18,1.08s-.14.9-.16,1a15.66,15.66,0,0,0,2.5.85s.17.15.88,1.18l.35.51a.61.61,0,0,1,0,.66,1,1,0,0,0-.08.25,2,2,0,0,0,.18.74,4,4,0,0,1,.21.76c0,.36.89.36,1.25.36h.39c.12,0,.22.23.39.56a4,4,0,0,0,.32.58,10,10,0,0,0,2.48,1.36,2,2,0,0,0,.28-.25,5.35,5.35,0,0,1,.69-.57l.39-.2.51-.26s.06,0,.1,0a7,7,0,0,1,1,2.49.16.16,0,0,0,.05.12c.08.09.31.13.66.13s.53,0,.78,0a4.23,4.23,0,0,1,.54,0,23.68,23.68,0,0,1,3.11,1.65.16.16,0,0,0,.11,0,2.89,2.89,0,0,0,1.22-.65l.06,0h0c.07,0,.24,0,.46.08a6.68,6.68,0,0,0,1.13.16H81c.4-.06.62.5.77.89l.1.24c.13.29-.6,1.07-1.41,1.88l-.17.16c-.36.37-.32,1.67-.31,1.68h0l-.75,1.7c-.31.32-1.82,1.86-2,2a9.27,9.27,0,0,0,.74.71,7.33,7.33,0,0,1,.71.71s0,0,0,0c.22,0,.91-.58,1-.69h0a9.19,9.19,0,0,1,2.46,1.35A3.09,3.09,0,0,1,82,53.27s-.43.06-1.24.14c-.61.06-1.24.12-1.4.15s-.65.69-1,1.2a7.08,7.08,0,0,1-.65.85,2.26,2.26,0,0,0-.64,1s0,0,.11,0a.69.69,0,0,1,.38-.11,1.31,1.31,0,0,1,.6.21l.21.12c.16.08.31.41.49.79s.53,1.15.91,1.24l.15,0a2.56,2.56,0,0,0,1.32-.69,2,2,0,0,1,.28-.21,5.38,5.38,0,0,1,1.36-.36c.1,0,.23.11.38.24a1.46,1.46,0,0,0,.82.43h.09l.36,0a1.55,1.55,0,0,1,.82.28,7.31,7.31,0,0,1,1.2,2.21c.15.35.28.64.36.79.22.41,1,.45,1.62.45h.33l1.57,0c.19,0,4.33.7,4.54.75H95a10.09,10.09,0,0,1,2,.59c.49.24.67,1.11.82,1.81a5.76,5.76,0,0,0,.14.64c.22.71,1.35,2.53,2.15,2.63.5.07,1.3-.53,2.19-1.63h0c.15-.18,1.61-2.51,2-3.23a1.9,1.9,0,0,1,1-1.07,3.45,3.45,0,0,1,.41-.17,11.29,11.29,0,0,0,2.33-1.11c.45-.41.88-.81,1.17-.83a1.35,1.35,0,0,1,.68.28,4,4,0,0,0,.41.23,23.29,23.29,0,0,1,2.8,2.47,5.25,5.25,0,0,0,2,.72,5.77,5.77,0,0,1,1.5.49,2.15,2.15,0,0,1,.66,1.63s0,0-.05,0h0l-.06,0a4.26,4.26,0,0,0-1.65-.41,1.68,1.68,0,0,0-.84.37,1.83,1.83,0,0,1-.9.38,3,3,0,0,1-1.11-.27,2.87,2.87,0,0,0-.94-.25h-.16c-.32.08-.31.43-.29.8a1.35,1.35,0,0,1-.1.74.57.57,0,0,1-.53.26l-.33,0a2.4,2.4,0,0,0-.53,0c-.31,0-.34.15-.37.29a.38.38,0,0,1-.15.24,1.34,1.34,0,0,0-.44.9c-.06.34.56,1,.77,1.22l.08.09.14.1a5.76,5.76,0,0,1,.91.69,1.48,1.48,0,0,1,.34,1.41,9.06,9.06,0,0,0,.73,1.31c.08.1.19.26.33.43.34.44.79,1,1.17,1.5s1.61.57,2.18.6l.27,0a.38.38,0,0,1,.27.27.53.53,0,0,1,0,.46,4.44,4.44,0,0,0-.59,1A3.23,3.23,0,0,1,115,79a1.53,1.53,0,0,0-.13.21,6.18,6.18,0,0,0,.07,1.32c0,.25,0,.44,0,.52a27,27,0,0,1-2,3.07c-.14.13-2.31,1.88-2.41,1.95h0l-2,0c-.13.35-1.27,6.05-1.86,9.08.4.91,1.65,3.8,1.69,4A22.91,22.91,0,0,0,111,100.3h0v0c0,.21.74,5.16.74,5.4a15.85,15.85,0,0,0,2.24,2.1l1.37.36,4,3.44.76,1.69,3.45,3.39.82-.15,1.51.56v0a12.46,12.46,0,0,1,.56,1.76,6.44,6.44,0,0,1-.45.94,2.83,2.83,0,0,0-.22.43s-.06.07-1.46.51c-.64.21-1.37.44-1.44.49a8.83,8.83,0,0,0-.72,1.19c-.44.81-.48.87-.53.87s-.8.48-1.25.77a16.83,16.83,0,0,1-1.49,1.35,3.8,3.8,0,0,0-.21.93,2.23,2.23,0,0,1-.12.54l-1.8,2.15s-.06,0-.25,0c-.41,0-1.29-.11-1.76-.17l-.3,0a10,10,0,0,0-1.06.86s0,0-.5,0h-.63c0,.09-.15.4-.2.55l-.09.2a11.83,11.83,0,0,0-.54,1.45,5.22,5.22,0,0,0,.52,1.42,2,2,0,0,1,.13.33c0,.06-.84,6.78-.94,7.64.19.17,2.49,2.17,2.76,2.42s0,3.15-.16,3.57-.47.51-.82.71a3.35,3.35,0,0,0-.48.3,7.37,7.37,0,0,0-1,1.31l-.36.52c-.33.49-.51.49-.76.49h-.21a16.82,16.82,0,0,1-2.15-.2h0c-.09-.06-2.18-1.51-2.32-1.69h0a3.93,3.93,0,0,0-1,.68,5.7,5.7,0,0,1-.56.42,3.92,3.92,0,0,1-1.66.23,1.57,1.57,0,0,0-.81.39,2.17,2.17,0,0,1-.4.27,19.88,19.88,0,0,1-2.64.73,4,4,0,0,0-.7.21,1.41,1.41,0,0,1-.57.14.71.71,0,0,1-.2,0,12.67,12.67,0,0,1-2.16-1l-.75-.37h0c-.18,0-.84.8-.88.95s-.09.05-.11.05a7.12,7.12,0,0,1-1.24-.31,4.87,4.87,0,0,0-.47-.13,2.54,2.54,0,0,0-.18.37,4.14,4.14,0,0,1-.39.79,9.11,9.11,0,0,1-1.73.84c-.08.19-.58,1.35-.65,1.43a.06.06,0,0,1-.06,0,7.47,7.47,0,0,1-1.55-.68.61.61,0,0,0-.28-.06,2.46,2.46,0,0,0-.93.28l-.22.09a6.62,6.62,0,0,1-1.59.3h-.13c-.3,0-.49-.36-.65-.62a2.21,2.21,0,0,0-.2-.3,1.66,1.66,0,0,0-.82-.12,4.39,4.39,0,0,0-.65,0,7.21,7.21,0,0,0-.07,1.28v0h0l-.46-.11-1-.18a10.85,10.85,0,0,0-1.72,1.29,3.59,3.59,0,0,0-.27.87,3.92,3.92,0,0,1-.28.88l-.12.16a3,3,0,0,1-.59.71c-.1.07-.06.37,0,.62a2.68,2.68,0,0,1,0,.35c0,.31-.93.59-1.15.59h0a7.46,7.46,0,0,1-1.57-1,2.92,2.92,0,0,1-.47-1.09,5.19,5.19,0,0,0-.2-.6.37.37,0,0,0-.33-.14,2.84,2.84,0,0,0-.42,0,1,1,0,0,1-.31,0c-.23,0-.56-.91-.65-1.16-.17,0-1,.24-1.21.32s-.26.23-.43.46a3.89,3.89,0,0,1-.57.64,21.11,21.11,0,0,1-2.88,1.6,5.14,5.14,0,0,0-1.34,1.34.44.44,0,0,1-.37.2.79.79,0,0,1-.39-.12,3.87,3.87,0,0,0-.66-.07.9.9,0,0,0-.44.08,6.85,6.85,0,0,0-1.26,1.27c-.09.22-.7.38-.83.41-.08.23-.79,2.54-.92,3.17-.07.35.27.52.63.7a1.47,1.47,0,0,1,.73.56c.24.55-1.66,2-2.48,2.66A.5.5,0,0,1,59.1,169.34Zm-.53-.29a.43.43,0,0,1,.25.11.61.61,0,0,0,.28.11.37.37,0,0,0,.23-.09C61,167.91,62,167,61.79,166.6s-.4-.39-.69-.53-.75-.38-.67-.77c.14-.66.92-3.17.92-3.19v0h0c.2,0,.74-.21.81-.37a6.54,6.54,0,0,1,1.28-1.3.94.94,0,0,1,.48-.09,5.05,5.05,0,0,1,.68.06h0a.75.75,0,0,0,.36.11.37.37,0,0,0,.31-.17A5,5,0,0,1,66.69,159a22.44,22.44,0,0,0,2.85-1.59,3.72,3.72,0,0,0,.56-.63c.18-.23.33-.43.47-.48s1.21-.32,1.25-.33h0v0c.15.43.44,1.13.59,1.15l.29,0a2.22,2.22,0,0,1,.44-.06.41.41,0,0,1,.39.18,4.14,4.14,0,0,1,.21.61,2.85,2.85,0,0,0,.45,1.06,7.34,7.34,0,0,0,1.53,1h0c.22,0,1.08-.28,1.08-.52a2.55,2.55,0,0,0,0-.34c0-.29-.09-.6.06-.68a3.46,3.46,0,0,0,.57-.7l.11-.16a4,4,0,0,0,.27-.85,3.44,3.44,0,0,1,.29-.9,9.5,9.5,0,0,1,1.77-1.31h0c.13,0,.79.13,1,.17a3.1,3.1,0,0,0,.42.1,3.84,3.84,0,0,1,.11-1.29,3.85,3.85,0,0,1,.68-.05,1.7,1.7,0,0,1,.87.15,1.49,1.49,0,0,1,.21.31c.15.25.33.56.6.58h.12a6.47,6.47,0,0,0,1.57-.29l.21-.09a2.62,2.62,0,0,1,1-.29.74.74,0,0,1,.31.07,8.11,8.11,0,0,0,1.52.67h0c0-.06.41-.89.64-1.43h0a8.74,8.74,0,0,0,1.72-.83,4.09,4.09,0,0,0,.38-.76c.14-.33.17-.41.21-.42h0a4.58,4.58,0,0,1,.5.14,7.45,7.45,0,0,0,1.22.31s0,0,0,0,.72-1,.94-1h0a5.71,5.71,0,0,1,.76.38,14.43,14.43,0,0,0,2.15,1h.18a1.57,1.57,0,0,0,.55-.13,3.06,3.06,0,0,1,.71-.21,19.08,19.08,0,0,0,2.62-.73,1.88,1.88,0,0,0,.39-.26,1.57,1.57,0,0,1,.85-.41,4.11,4.11,0,0,0,1.62-.21l.56-.42a3.2,3.2,0,0,1,1-.69.12.12,0,0,1,.08,0c.11.14,1.54,1.15,2.29,1.67.13,0,1.51.2,2,.2h.33c.23,0,.39,0,.71-.46l.35-.53a7.71,7.71,0,0,1,1-1.32,2.87,2.87,0,0,1,.5-.31c.33-.19.69-.39.79-.67.16-.43.42-3.26.17-3.5s-2.75-2.41-2.77-2.44h0c0-.08,1-7.55,1-7.65a2,2,0,0,0-.13-.3,5.29,5.29,0,0,1-.52-1.46,9.76,9.76,0,0,1,.55-1.46l.08-.2c.07-.18.21-.57.21-.58v0h0l.66,0a1.73,1.73,0,0,0,.45,0,8.75,8.75,0,0,1,1.11-.87l.31,0a16.25,16.25,0,0,0,1.75.18.49.49,0,0,0,.2,0l1.8-2.15a4.92,4.92,0,0,0,.1-.51c.11-.67.17-1,.26-1a19.35,19.35,0,0,0,1.47-1.34,14.79,14.79,0,0,1,1.28-.78s.28-.47.48-.84a7.79,7.79,0,0,1,.74-1.22,15,15,0,0,1,1.45-.49c.6-.19,1.33-.42,1.42-.47a3.88,3.88,0,0,1,.23-.44,6.75,6.75,0,0,0,.44-.92,12.85,12.85,0,0,0-.55-1.72l-1.45-.54-.84.15h0L120,113.36l-.76-1.7-4-3.42-1.37-.36a14.92,14.92,0,0,1-2.27-2.15c0-.23-.69-5-.74-5.37-2.64-1-2.62-1.1-2.61-1.14s-1-2.47-1.68-4h0s.45-2.31.9-4.56c.92-4.59,1-4.59,1-4.59l2,0c.16-.13,2.26-1.81,2.39-1.93a27.79,27.79,0,0,0,1.93-3c0-.07,0-.27-.05-.51a4.94,4.94,0,0,1-.06-1.37,1.55,1.55,0,0,1,.14-.2,3.35,3.35,0,0,0,.43-.74,4.37,4.37,0,0,1,.61-1,.46.46,0,0,0,0-.4.35.35,0,0,0-.21-.23l-.26,0c-.58,0-1.79-.1-2.23-.63s-.84-1.06-1.18-1.5l-.33-.43A11,11,0,0,1,111,72.7h0a1.46,1.46,0,0,0-.31-1.36,7.24,7.24,0,0,0-.9-.69.48.48,0,0,1-.17-.12s0,0-.08-.08c-.23-.24-.84-.9-.78-1.27a1.42,1.42,0,0,1,.47-1,.28.28,0,0,0,.12-.2c0-.14.08-.29.43-.33h.17l.38,0,.32,0a.49.49,0,0,0,.47-.23,1.29,1.29,0,0,0,.09-.7c0-.38,0-.78.35-.86l.17,0a3.06,3.06,0,0,1,1,.26,2.86,2.86,0,0,0,1.08.27,1.82,1.82,0,0,0,.86-.38,1.9,1.9,0,0,1,.87-.38,4.26,4.26,0,0,1,1.68.42l0,0a2.16,2.16,0,0,0-.64-1.55,5.61,5.61,0,0,0-1.47-.47,5.1,5.1,0,0,1-2-.75,23.08,23.08,0,0,0-2.79-2.45l-.41-.23a1.17,1.17,0,0,0-.63-.27c-.27,0-.69.4-1.13.81a11.59,11.59,0,0,1-2.36,1.12c-.18.08-.33.13-.4.17-.31.13-.6.31-.95,1s-1.82,3.06-2,3.24l0,0c-.5.62-1.45,1.65-2.16,1.65h-.09c-.88-.12-2-2-2.2-2.68a6.13,6.13,0,0,1-.15-.64c-.14-.69-.32-1.55-.78-1.77a9.52,9.52,0,0,0-2-.58l-.07,0L90.44,62l-1.57,0h-.33c-.69,0-1.44,0-1.68-.49-.09-.15-.22-.45-.37-.79a7.58,7.58,0,0,0-1.17-2.18,1.47,1.47,0,0,0-.78-.27l-.35,0h-.1a1.51,1.51,0,0,1-.86-.45.84.84,0,0,0-.34-.22,5,5,0,0,0-1.32.35,1.72,1.72,0,0,0-.28.2,2.55,2.55,0,0,1-1.36.7.5.5,0,0,1-.17,0c-.41-.09-.7-.72-1-1.27-.17-.36-.32-.7-.46-.76l-.22-.12a1.23,1.23,0,0,0-.56-.2.69.69,0,0,0-.34.09c-.12.07-.19.07-.22,0s.38-.83.66-1.1a6.66,6.66,0,0,0,.64-.83c.42-.59.85-1.19,1.06-1.23s.8-.1,1.41-.16S82,53.23,82,53.21a3.58,3.58,0,0,0,.19-1.29,10,10,0,0,0-2.4-1.3c-.07.06-.79.7-1.06.7a.12.12,0,0,1-.1,0,7.2,7.2,0,0,0-.7-.7c-.6-.55-.77-.72-.76-.78v0h0c.08,0,1.25-1.23,2-2L80,46.07c0-.12,0-1.35.33-1.72,0-.05.1-.1.17-.17.46-.45,1.53-1.52,1.39-1.81,0-.06-.06-.15-.09-.23-.15-.38-.35-.9-.7-.85H80.9a6.9,6.9,0,0,1-1.15-.16,3.29,3.29,0,0,0-.44-.07h0l0,0a3.32,3.32,0,0,1-1.26.67.28.28,0,0,1-.16-.05,22.82,22.82,0,0,0-3.07-1.63c-.1,0-.29,0-.53,0s-.53,0-.78,0-.61,0-.71-.16a.2.2,0,0,1-.07-.16,6.82,6.82,0,0,0-1-2.47l-.49.26-.4.2a5.33,5.33,0,0,0-.67.56,2.22,2.22,0,0,1-.3.26h0a9.35,9.35,0,0,1-2.53-1.38,4.15,4.15,0,0,1-.34-.59c-.12-.25-.25-.51-.34-.53h-.37c-.62,0-1.27,0-1.32-.41a3.87,3.87,0,0,0-.21-.75,2.08,2.08,0,0,1-.18-.77,2.76,2.76,0,0,1,.08-.27.51.51,0,0,0,0-.59l-.35-.51a14,14,0,0,0-.83-1.16h0a14.49,14.49,0,0,1-2.55-.87s0,0,0,0,.09-.54.16-1,.16-1,.18-1.09a13.8,13.8,0,0,0-.54-1.9c-.12,0-.57,0-1,0-.74,0-.83-.11-.85-.14a.1.1,0,0,1,0-.1s0-.1.05-.14c.11-.33.24-.74.47-.88a4.65,4.65,0,0,0,1.19-1.39c0-.25.29-4,.32-4.32a3.54,3.54,0,0,0-.61-.07c-.2,0-.26,0-.27.06a9.36,9.36,0,0,1-1.08.87h0c-.2,0-1.09-.28-1.21-.69a12,12,0,0,0-.66-1.46h0c0-.79,0-2.06-.08-2.19-.21-.08-2.81-1.25-2.92-1.3h0a11.41,11.41,0,0,0-1.22-2.81H51.52a17.33,17.33,0,0,1-2.8-2.64,14.76,14.76,0,0,0-1.65-3.12c-.1-.06-.2-.14-.31-.22a3.55,3.55,0,0,0-1.23-.7,5.78,5.78,0,0,1-.73-.27,1.32,1.32,0,0,0-.64-.17l-.49,0A4.15,4.15,0,0,1,42.4,5a1.25,1.25,0,0,1-.09-.12c-.07-.09-.19-.25-.24-.25h0a2.24,2.24,0,0,1-.94.38S41.05,5,41,5a8.64,8.64,0,0,1-.57-.83A45.2,45.2,0,0,0,35,5.11c-.16.2-.69.88-1.16.88a.52.52,0,0,1-.18,0c-.47-.2-2.87-1.83-3.11-2C29.08,4.51,27,5.33,26.86,5.4s-.59.79-.93.76l-.32,0a.76.76,0,0,0-.36,0c-.08,0-.95.89-1.58,1.51s-.94.93-1,1-1.67.8-1.73.83h0a1.25,1.25,0,0,0-.72.32c-.09.13-.2.31-.29.46a3.24,3.24,0,0,1-.22.35.43.43,0,0,1,0,.07.56.56,0,0,1-.56.28c-.42,0-2.4-.3-2.48-.31h0l-.76-1.17c-.37,0-.9.07-.94.18a15.81,15.81,0,0,1-1,2.06.68.68,0,0,1-.46.12,1.1,1.1,0,0,0-.58.13l-.08.06c-.24.18-.37.27-.37.51s0,.84-.15,1a3.65,3.65,0,0,1-1.16.12l-.33,0c-.08,0-.17.12-.25.22a1.12,1.12,0,0,1-.25.24,1.14,1.14,0,0,1-.22.07c-.09,0-.18,0-.2.08s0,.1.06.18a2.11,2.11,0,0,0,.4.39c.17.15.3.26.25.37s-.63.2-.95.2h-.3c-.29,0-.46,0-.5.09s0,0,0,0a2.34,2.34,0,0,1,.09.28,2.61,2.61,0,0,0,.27.66,1.16,1.16,0,0,1,.17.34.55.55,0,0,0,.09.19.91.91,0,0,0,.24.24,1.11,1.11,0,0,1,.22.21A4,4,0,0,1,10.59,19a5,5,0,0,1-.14,1,1.3,1.3,0,0,0-.07.52c0,.1,0,.1.16.22s.21.19.43.41a3.77,3.77,0,0,1,1.28,2.06v.2a2.66,2.66,0,0,1-.08,1.05c0,.08,0,.15-.07.22a.56.56,0,0,1-.29.44l-.22.08a.6.6,0,0,0-.48.43c0,.07,0,.14-.07.21a.89.89,0,0,0,0,.85,3.56,3.56,0,0,0,.25.36.76.76,0,0,1,.22.45c0,.07,0,.14,0,.21a1.59,1.59,0,0,0,0,.53,3.11,3.11,0,0,1,0,.32,1.4,1.4,0,0,0,.14.56.94.94,0,0,0,.71.55h.11l.33-.12a1.91,1.91,0,0,1,.63-.17.54.54,0,0,1,.31.09l.34.26a2,2,0,0,0,.66.42l.25,0a2.32,2.32,0,0,1,.46-.07.37.37,0,0,1,.33.13l.1.13c.17.22.36.47.16.77a1.13,1.13,0,0,0-.12.21.52.52,0,0,1-.58.36l-.35,0a5.69,5.69,0,0,0-.83-.06,4.51,4.51,0,0,0-1,.09c-.09,0-.12.23-.16.81a1,1,0,0,0,.24.72.52.52,0,0,1,.15.34,1.43,1.43,0,0,1-.31.55,4,4,0,0,0-.41.65,2.33,2.33,0,0,1-.2.34c-.25.34-.48.67.24,1.17a5.22,5.22,0,0,0,1.82.85l.18.05a1.06,1.06,0,0,1,.83.68l0,.06a1.34,1.34,0,0,0,1,.9,7.81,7.81,0,0,0,2.07.44h.3a3.92,3.92,0,0,0,.84-.1,1.06,1.06,0,0,1,.32,0c.23,0,.28.25.38.82a2.27,2.27,0,0,0,1.51,1.35h.43a4.59,4.59,0,0,1,1.34.12,1.42,1.42,0,0,0,.4.12c.15,0,.25.06.27.12a.73.73,0,0,0,.07.17c.3.68.59,1.4.45,1.61a9.37,9.37,0,0,1-3,1.19.17.17,0,0,1-.12,0,3.7,3.7,0,0,1-.44-.63,3.16,3.16,0,0,0-.44-.62,4.53,4.53,0,0,0-.49.11l-.7.16a6.56,6.56,0,0,1-1.49-.24,6.61,6.61,0,0,0-1-.19h-.06a2.67,2.67,0,0,0,.19.43c.18.34.36.68.27.83a12.09,12.09,0,0,1-.84.92c-.28.29-.58.6-.63.67h0a0,0,0,0,1,0,0h0a8.37,8.37,0,0,0-1.69-.41h-.09c0,.08-.16.12-.3.18s-.34.11-.37.22a.23.23,0,0,0,.06.17,7.14,7.14,0,0,0,1.24.85c.67.41,1.08.66,1.12.8a12.3,12.3,0,0,1,.58,3.4c-.09.24-.43.33-.72.42s-.59.18-.53.38l0,.08c.12.41.22.74.49.74h.34a.59.59,0,0,1,.52.27,1.24,1.24,0,0,1,.21.35c.09.18.14.25.29.24l.33-.06a5.23,5.23,0,0,1,1-.12,1.61,1.61,0,0,1,.51.07,2.5,2.5,0,0,1,.51.22,1.53,1.53,0,0,0,.48.2,1.88,1.88,0,0,1,.64.26l.2.12a1.53,1.53,0,0,0,.46.14.77.77,0,0,1,.42.17,2.18,2.18,0,0,1,.43.7l0,.11a4.52,4.52,0,0,1,.34,1.28.57.57,0,0,0,0,.13c0,.27,0,.57-.43.67l-.26,0c-.34.07-.59.12-.67.45a1.85,1.85,0,0,1-.12.4c-.1.3-.21.59,0,.79l.05.06c.26.29.49.54.49.83s-.09,1.47-.52,1.81l-.39.28c-.25.17-.44.3-.45.45a5.7,5.7,0,0,0,0,.6,9.93,9.93,0,0,1,0,1.51.93.93,0,0,1-.48.61l0,0c-.06,0-.08.18-.09.34a2.78,2.78,0,0,1-.08.46c-.06.19-.28.2-.49.2H19c-.18,0-.32,0-.36.11a.6.6,0,0,0,0,.47,2.19,2.19,0,0,1,.1.6v.15c0,.46,0,.69-.59.79l-.27.05c-.41,0-.55.07-.55.58s-.09,1.71-.14,2.3v0a1.81,1.81,0,0,1-.29,1,1.83,1.83,0,0,0-.16.22,1.11,1.11,0,0,1-.31.38.36.36,0,0,1-.18,0h0c-.11,0-.27,0-.27.48a9.37,9.37,0,0,0,.12,1.83c0,.13,0,.22,0,.29s0,.25.35.53a3.64,3.64,0,0,1,1,1.06.47.47,0,0,1,0,.16s0,.07,0,.09a.55.55,0,0,0,.29,0l.28-.06a2.35,2.35,0,0,1,.51-.08,1.12,1.12,0,0,1,.6.17,5.68,5.68,0,0,0,.68.3,3.44,3.44,0,0,1,1.43.84,2.06,2.06,0,0,1,.5,1.19l0,.12a2.24,2.24,0,0,1,0,.31c0,.27,0,.37.49,1.1.67,1,1.16,1.27,1.35,1.31a4.39,4.39,0,0,0,.52,0c.44,0,.95,0,1.07.17l0,0a.67.67,0,0,1,.17.74l0,.09a.83.83,0,0,0,.23,1,3.9,3.9,0,0,1,.33.38,1.66,1.66,0,0,0,.92.69l.41.1a3.23,3.23,0,0,0,1,.15h.37c.44,0,.67,0,.81.22a2.84,2.84,0,0,1,.24,1.19c0,.4-.35.61-1,.61h-.6c-.38,0-.52,0-.52.17v.14a3.28,3.28,0,0,1-.07.89,3.18,3.18,0,0,1-1.62,1.22,1.94,1.94,0,0,1-1.46-.25l-.1-.06a1.64,1.64,0,0,0-.46-.21l-.24-.08a3.33,3.33,0,0,1-.54-.23,1.32,1.32,0,0,0-.54-.17l-.27,0-.14,0a1,1,0,0,1-.5-.2l-.19-.1a3,3,0,0,0-1-.48H20.4a2.94,2.94,0,0,0-.67,1.24c-.08.33.29.87.65,1.39l.11.15a9.33,9.33,0,0,1,.8,1.71c.07.16.13.32.2.47a4.64,4.64,0,0,1,.21.67c0,.18.06.28.16.33l.32.16c1,.53,2,1,2.09,1.13a2.35,2.35,0,0,1,.29,1.15,5.59,5.59,0,0,0,.18,1.1,7.15,7.15,0,0,1,1.3.75,1.88,1.88,0,0,0,.08.2c.16.38.47,1.08.35,1.37s-.41,1.33-.43,1.45a.64.64,0,0,0,0,.07,1,1,0,0,0,0,.73,2.66,2.66,0,0,0,.17.34c.1.17.16.27.06.46a1.31,1.31,0,0,1-1,.66,5.23,5.23,0,0,0-1.42.22,8.55,8.55,0,0,0-.83.85,7,7,0,0,1-.5.52l-.07,0a.93.93,0,0,1-.53-.27.26.26,0,0,1-.1-.22c0-.22.18-1.15.22-1.36H21v0s-.18-.48-.45-.45a8.14,8.14,0,0,0-1.79,1,4,4,0,0,1,.46,1.43c0,.07,0,.11-.07.13a3.07,3.07,0,0,1-.81.14,2.66,2.66,0,0,0-.52.07,2.72,2.72,0,0,0,.17,1.09l.13.17a7.76,7.76,0,0,0,1,1.08,6.81,6.81,0,0,0,2.09,1l.32.08a4.11,4.11,0,0,1,1.35.44c.26.19,1.08.85,1.09.86h0a7.25,7.25,0,0,0,.56,2l.5.17c.82.26.93.31.93.36a8.17,8.17,0,0,0,.5,2.09,4.72,4.72,0,0,0,1.49,1.36l.18.06c1.4.46,1.67.58,1.69.65s0,.15.09.28a5.57,5.57,0,0,1,.18.53c0,.16.67.53.81.55a2.28,2.28,0,0,0,.55-.09,3.42,3.42,0,0,1,.46-.08,2.07,2.07,0,0,1,.65.36,3.61,3.61,0,0,0,.4.26c.25.12,1.17.69,1.31,1.19s.48.71,1.36.93,2.87.44,2.89.44h0l1.82,2.84s.11.92.11,1a17,17,0,0,0,2.08,1.41,6.51,6.51,0,0,0,1.14.12,7.22,7.22,0,0,1,1.5.17c.34.11.83.34,1.31.56l.77.35c.61.26,2.48,1.23,2.49,1.24h0v0c0,.1.3,2.35.3,2.53s-.74.6-.95.63a12.39,12.39,0,0,0-1.94.33,10.52,10.52,0,0,1-.6,2,1.58,1.58,0,0,1-1,.55.46.46,0,0,1-.21,0c-.35-.17-3.53-1.58-3.84-1.72a19.33,19.33,0,0,0-1.34,1.5.78.78,0,0,0,.18,1.07,18.7,18.7,0,0,1,2.34,2.24c0,.08-.12.55-.31,1.29a20.72,20.72,0,0,0-.49,2.05,6,6,0,0,0,1.41,2.12c.18.12.41.24.62.35s.51.28.51.36a7.19,7.19,0,0,0,.5,1.82l.22.23a1.23,1.23,0,0,1,.48.8,2.52,2.52,0,0,1-.11.62.87.87,0,0,0-.06.5,3.74,3.74,0,0,0,.33.36c.28.29.6.61.6.78s-.07,1.22-.09,1.43l1.69,0a2.75,2.75,0,0,1,.67,0l.39.22c.58.32,1.54.85,1.81,1s3.35,3.06,3.4,3.15,0,.11,0,.34-.15.92,0,1.07l.13.12a2.2,2.2,0,0,1,.57.69,15.69,15.69,0,0,1,.44,1.87,1.53,1.53,0,0,1-.11.4c-.09.26-.2.59-.11.71a4,4,0,0,0,.47.36c.34.23.73.49.79.66s.31,1.62.49,2.67c.09.5.16.9.18,1a3.92,3.92,0,0,1-.65,1.09,5.25,5.25,0,0,0-.6,1,3.92,3.92,0,0,0,1.4.91,1.79,1.79,0,0,0,.34,0,3.64,3.64,0,0,0,.7-.08Z" transform="translate(38.84 0.11)"/></g><path class="cls-4" d="M73.51,48.13a2.81,2.81,0,0,1-.24,1.24s-.43.06-1.24.14c-.61.06-1.24.12-1.4.15a1,1,0,0,0-.32.28h-.1L11.68,59.75h-.07v-.33c0-.29,0-.51,0-.6s.16-.26.35-.4l.14-.1a4.07,4.07,0,0,0,.38-.28c.41-.32.49-1.49.49-1.76a1.4,1.4,0,0,0-.47-.79l-.05,0c-.21-.24-.1-.54,0-.87a2.38,2.38,0,0,0,.11-.38c.08-.38.38-.44.73-.5l.25-.05c.36-.09.37-.34.38-.61a.66.66,0,0,1,0-.14,4.94,4.94,0,0,0-.33-1.25l0-.11a2,2,0,0,0-.41-.67.7.7,0,0,0-.39-.15,1.89,1.89,0,0,1-.48-.15l-.2-.13a2.11,2.11,0,0,0-.62-.25A1.89,1.89,0,0,1,11,50a2.33,2.33,0,0,0-.5-.22A1.75,1.75,0,0,0,10,49.7a4.35,4.35,0,0,0-.94.13c-.14,0-.25.05-.33.05s-.28-.1-.36-.27a2.45,2.45,0,0,0-.21-.34A.59.59,0,0,0,7.53,49H7.34c-.33,0-.43-.34-.56-.79l0-.07c-.08-.28.25-.37.58-.47s.59-.17.67-.37A12.91,12.91,0,0,0,7.42,44a4.67,4.67,0,0,0-1.09-.76,7.33,7.33,0,0,1-1.26-.87A.24.24,0,0,1,5,42.12c0-.14.24-.2.41-.27s.24-.08.26-.13.1-.06.15-.06a7.64,7.64,0,0,1,1.71.42c.07-.09.3-.33.64-.68s.76-.79.83-.9-.13-.49-.27-.77a1.3,1.3,0,0,1-.2-.48c0-.06.1-.06.12-.06a6.74,6.74,0,0,1,1,.19,8.2,8.2,0,0,0,1.36.25h.1c.22,0,.48-.1.7-.16a4.49,4.49,0,0,1,.51-.11c.07,0,.18.16.49.65a4.17,4.17,0,0,0,.44.63h.07a9.42,9.42,0,0,0,2.92-1.16c.14-.2-.3-1.18-.46-1.54l-.08-.18s-.12,0-.21-.07a1.69,1.69,0,0,1-.42-.13,4.48,4.48,0,0,0-1.3-.11h-.43a2.31,2.31,0,0,1-1.59-1.4c-.09-.56-.14-.75-.31-.77a1.35,1.35,0,0,0-.29,0,4.23,4.23,0,0,1-.86.1H10A7.81,7.81,0,0,1,7.91,35a1.4,1.4,0,0,1-1-.93l0-.06a1,1,0,0,0-.78-.64l-.18-.05a5.5,5.5,0,0,1-1.85-.87c-.76-.54-.5-.9-.25-1.26a2.14,2.14,0,0,0,.2-.32,3.25,3.25,0,0,1,.41-.67,1.31,1.31,0,0,0,.3-.52c0-.09-.06-.18-.14-.29a1.11,1.11,0,0,1-.25-.77c0-.62.07-.82.21-.86a4,4,0,0,1,1-.09,5.69,5.69,0,0,1,.83.06l.35,0a.46.46,0,0,0,.52-.33,1,1,0,0,1,.12-.22c.17-.26,0-.47-.16-.69a1.47,1.47,0,0,0-.1-.13.31.31,0,0,0-.27-.11,2.34,2.34,0,0,0-.45.07,1.14,1.14,0,0,1-.26.05,1.85,1.85,0,0,1-.71-.44l-.33-.25a.48.48,0,0,0-.27-.08,1.84,1.84,0,0,0-.61.16,2,2,0,0,1-.34.12l-.13,0A1,1,0,0,1,3,25.31a1.39,1.39,0,0,1-.15-.58,2.61,2.61,0,0,0,0-.31,1.73,1.73,0,0,1,0-.55v-.21a.71.71,0,0,0-.2-.41,2.9,2.9,0,0,1-.25-.37.94.94,0,0,1,0-.9c0-.07,0-.13.07-.21a.66.66,0,0,1,.52-.47L3,21.22c.18-.09.21-.21.26-.4s0-.14.07-.22a2.55,2.55,0,0,0,.07-1v-.2a3.47,3.47,0,0,0-1.26-2C2,17.14,1.82,17,1.74,17s-.14-.13-.18-.24a1.41,1.41,0,0,1,.06-.56,3.88,3.88,0,0,0,.14-1A3.92,3.92,0,0,0,1.1,13.5a2.09,2.09,0,0,0-.21-.19,1,1,0,0,1-.25-.25.57.57,0,0,1-.1-.21,1.16,1.16,0,0,0-.16-.32,2.94,2.94,0,0,1-.28-.68A2.34,2.34,0,0,0,0,11.57a.1.1,0,0,1,0-.11c.05-.08.22-.11.55-.11h.3c.5,0,.85-.06.9-.16s-.1-.17-.24-.29a2.56,2.56,0,0,1-.41-.4c-.07-.11-.1-.19-.07-.25s.14-.1.25-.12a.52.52,0,0,0,.2-.06.79.79,0,0,0,.23-.22c.1-.12.19-.23.29-.25h.34a5.39,5.39,0,0,0,1.12-.11,2.13,2.13,0,0,0,.13-.93c0-.28.15-.38.4-.56l.08-.06a1.13,1.13,0,0,1,.61-.15.77.77,0,0,0,.42-.09,15.9,15.9,0,0,0,1-2.05c.08-.19.87-.21,1-.22h0L7.89,6.6c.19,0,2.06.3,2.45.3s.42-.11.5-.24l.05-.07a3.75,3.75,0,0,0,.22-.35,5.35,5.35,0,0,1,.29-.47,1.28,1.28,0,0,1,.76-.35c.1,0,1.59-.73,1.72-.81s.51-.48,1-1c.88-.87,1.51-1.49,1.6-1.53a.78.78,0,0,1,.4,0l.31,0h0c.28,0,.8-.64.86-.73s2.6-1,3.69-1.46h0s2.64,1.79,3.12,2L25,2c.46,0,1-.71,1.11-.85a46.93,46.93,0,0,1,5.59-1h0v0c.14.21.5.76.57.83h0A2.24,2.24,0,0,0,33.25.7a.07.07,0,0,1,.06,0c.08,0,.17.1.3.27l.09.11a3.56,3.56,0,0,0,1.21.12,3.05,3.05,0,0,0,.49,0,1.46,1.46,0,0,1,.67.18,7.24,7.24,0,0,0,.73.27,3.79,3.79,0,0,1,1.25.7,2.74,2.74,0,0,0,.31.23A14,14,0,0,1,40,5.69a19.06,19.06,0,0,0,2.75,2.59h.5l.38,0,.23,0c.3,0,1.1,2.34,1.27,2.84l2.91,1.29s.09,0,.12,2.24a12.83,12.83,0,0,1,.67,1.46c.1.36.94.64,1.13.64h0a10.06,10.06,0,0,0,1.05-.85c0-.06.15-.08.32-.08a3.61,3.61,0,0,1,.66.07h0v0s-.3,4.1-.33,4.36a4.57,4.57,0,0,1-1.21,1.44,1.72,1.72,0,0,0-.45.84l0,.14a.06.06,0,0,0,0,0s.18.12.8.12,1-.05,1-.05h0v0a15.79,15.79,0,0,1,.56,2c0,.06-.11.6-.18,1.08s-.14.9-.17,1a15.78,15.78,0,0,0,2.51.85s.17.15.87,1.18c.15.22.28.41.36.51a.61.61,0,0,1,0,.66,1,1,0,0,0-.07.25,2,2,0,0,0,.17.74,4,4,0,0,1,.22.76c0,.36.89.36,1.25.36h.39c.11,0,.22.23.38.56a4,4,0,0,0,.33.58A9.82,9.82,0,0,0,61,34.69l.28-.25a4.75,4.75,0,0,1,.68-.57l.4-.2.5-.26s.07,0,.11,0a7.21,7.21,0,0,1,1,2.49.15.15,0,0,0,0,.12,1,1,0,0,0,.66.13c.26,0,.54,0,.78,0a2.72,2.72,0,0,1,.54,0,21.93,21.93,0,0,1,3.11,1.64.2.2,0,0,0,.11,0,2.78,2.78,0,0,0,1.22-.65l.06,0h0a4.42,4.42,0,0,1,.45.08,7,7,0,0,0,1.13.16h.14c.41-.06.62.5.78.89l.09.24c.14.29-.6,1.07-1.41,1.88l-.16.16c-.36.37-.32,1.67-.32,1.68h0l-.75,1.7c-.31.32-1.81,1.86-2,2,.05.08.43.43.73.72a7,7,0,0,1,.72.7s0,0,0,0a3.29,3.29,0,0,0,1-.69H71A9.34,9.34,0,0,1,73.5,48,.45.45,0,0,1,73.51,48.13Z" transform="translate(38.84 0.11)"/><path class="cls-5" d="M108.54,62.25a0,0,0,0,1-.05,0h0l-.07,0a4.21,4.21,0,0,0-1.65-.41,1.65,1.65,0,0,0-.83.37,1.87,1.87,0,0,1-.9.38,2.82,2.82,0,0,1-1.11-.27,2.93,2.93,0,0,0-.94-.25h-.16c-.33.08-.31.43-.3.8a1.35,1.35,0,0,1-.1.74.55.55,0,0,1-.52.26l-.33,0a2.4,2.4,0,0,0-.53,0c-.31,0-.34.15-.38.29a.36.36,0,0,1-.14.24,1.35,1.35,0,0,0-.45.9c0,.34.57,1,.77,1.22l.08.09.15.1a5.76,5.76,0,0,1,.91.69,1.51,1.51,0,0,1,.34,1.41,9.06,9.06,0,0,0,.73,1.31c.08.11.19.26.33.43.33.44.79,1,1.17,1.5s1.61.57,2.18.61l.27,0a.37.37,0,0,1,.26.27.49.49,0,0,1,0,.46,4.44,4.44,0,0,0-.59,1,3.62,3.62,0,0,1-.45.76l-.14.21a7.34,7.34,0,0,0,.08,1.33c0,.24,0,.43,0,.51a25.7,25.7,0,0,1-2,3.07c-.13.14-2.31,1.88-2.4,2h0l-2,0c-.13.35-1.26,6-1.85,9.08.4.91,1.64,3.8,1.68,4a23.78,23.78,0,0,0,2.59,1.08h0v0c0,.15.4,2.79.61,4.32.08.59.13,1,.13,1.08s0,.08.1.16H103L23.33,115.33h-.1a.3.3,0,0,0-.14-.06,2.4,2.4,0,0,0-.44.09,3.29,3.29,0,0,1-.58.09c-.14,0-.81-.41-.86-.6s-.08-.26-.15-.43l0-.1c-.05-.14-.09-.25-.1-.29a14.64,14.64,0,0,0-1.63-.6l-.19-.06A4.59,4.59,0,0,1,17.59,112a7.61,7.61,0,0,1-.51-2.1c-.07-.05-.56-.21-.88-.32l-.51-.17a7,7,0,0,1-.6-2L14,106.55a4.25,4.25,0,0,0-1.33-.43l-.32-.07a7.25,7.25,0,0,1-2.12-1,7.87,7.87,0,0,1-1-1.1l-.14-.17A2.3,2.3,0,0,1,9,102.63s.19-.07.56-.1a3,3,0,0,0,.79-.13.08.08,0,0,0,0-.07,3.82,3.82,0,0,0-.46-1.4.07.07,0,0,1,0-.05,7.33,7.33,0,0,1,1.86-1.07c.29,0,.47.36.51.46h1.15v0s-.2,1.15-.23,1.39a.26.26,0,0,0,.09.18.85.85,0,0,0,.47.24h0a6.45,6.45,0,0,0,.48-.5,6.92,6.92,0,0,1,.86-.87,5.33,5.33,0,0,1,1.45-.22,1.21,1.21,0,0,0,.91-.63c.09-.16,0-.23-.06-.4a2.66,2.66,0,0,1-.17-.34,1.06,1.06,0,0,1,0-.78s0,0,0-.06.3-1.12.44-1.47-.21-1-.36-1.32a1,1,0,0,1-.08-.21,9.61,9.61,0,0,0-1.28-.7h0a5.53,5.53,0,0,1-.18-1.14,2.45,2.45,0,0,0-.27-1.11c-.11-.1-1.49-.81-2.08-1.11l-.31-.16c-.13-.07-.16-.19-.2-.37a4.64,4.64,0,0,0-.21-.67c-.06-.14-.13-.3-.19-.47a10.61,10.61,0,0,0-.8-1.69l-.11-.16c-.37-.53-.75-1.08-.66-1.44A3,3,0,0,1,11.62,85l.09,0a3.1,3.1,0,0,1,1.06.49l.18.11a.93.93,0,0,0,.47.18h.13a.78.78,0,0,1,.28,0,1.31,1.31,0,0,1,.57.17,3.16,3.16,0,0,0,.53.23l.24.08a1.37,1.37,0,0,1,.47.22l.1.06a1.85,1.85,0,0,0,1.41.23,3.05,3.05,0,0,0,1.57-1.17,3.53,3.53,0,0,0,.07-.87v-.14c0-.22.28-.23.59-.23H20q1,0,1-.54a2.86,2.86,0,0,0-.22-1.16c-.1-.16-.24-.19-.5-.19h-.63a3.65,3.65,0,0,1-1-.14l-.41-.1a1.71,1.71,0,0,1-1-.72c-.1-.13-.21-.25-.33-.38A.89.89,0,0,1,16.59,80l0-.08a.64.64,0,0,0-.15-.69l0,0a2.62,2.62,0,0,0-1-.15,3.33,3.33,0,0,1-.53,0c-.24-.06-.73-.31-1.39-1.35-.47-.74-.48-.84-.5-1.12,0-.08,0-.18,0-.31l0-.12A2.06,2.06,0,0,0,12.46,75a3.39,3.39,0,0,0-1.4-.81,5.89,5.89,0,0,1-.69-.3,1.09,1.09,0,0,0-.56-.16,1.8,1.8,0,0,0-.5.08L9,73.82c-.21,0-.3,0-.35,0a.18.18,0,0,1,0-.14.36.36,0,0,0,0-.14,3.7,3.7,0,0,0-.93-1c-.36-.29-.37-.39-.38-.58a1,1,0,0,0,0-.27,10.81,10.81,0,0,1-.11-1.85c0-.45.13-.54.34-.54h0a.32.32,0,0,0,.14,0A1.19,1.19,0,0,0,8,68.89a1.07,1.07,0,0,1,.17-.24c.06-.06.21-.27.26-1v-.06c.05-.58.13-1.67.13-2.29s.2-.59.62-.65l.27,0c.53-.1.53-.28.52-.72v-.16a2.29,2.29,0,0,0-.09-.59.63.63,0,0,1,0-.5c.07-.14.26-.15.43-.15h.19c.23,0,.38,0,.42-.16a2.51,2.51,0,0,0,.08-.45c0-.18,0-.33.12-.39l0,0a.86.86,0,0,0,.45-.57,6.72,6.72,0,0,0,0-1.17v-.33c0-.29,0-.51,0-.6s.16-.26.35-.4l.14,0L73.45,48.14h.06a2.81,2.81,0,0,1-.24,1.24s-.43.06-1.24.14c-.61.06-1.24.12-1.4.15a1,1,0,0,0-.32.28c-.21.25-.46.61-.69.93a7.49,7.49,0,0,1-.66.84,2.46,2.46,0,0,0-.64,1s0,0,.12,0a.66.66,0,0,1,.37-.11,1.27,1.27,0,0,1,.6.21l.22.12c.16.08.31.41.49.79s.53,1.15.91,1.24l.15,0a2.6,2.6,0,0,0,1.32-.69,2,2,0,0,1,.28-.21,5.27,5.27,0,0,1,1.36-.36c.1,0,.22.11.38.24a1.46,1.46,0,0,0,.82.43h.08l.37,0a1.49,1.49,0,0,1,.81.28,7.31,7.31,0,0,1,1.2,2.21c.15.35.28.64.36.79.23.41,1,.45,1.63.45h.33l1.57,0c.18,0,4.33.7,4.53.75h.07a9.75,9.75,0,0,1,2,.59c.5.24.68,1.11.82,1.82,0,.23.1.46.15.63.21.71,1.35,2.53,2.14,2.63.5.07,1.31-.53,2.2-1.63h0c.15-.18,1.61-2.51,2-3.23a1.84,1.84,0,0,1,1-1.07,3.93,3.93,0,0,1,.4-.17,11.39,11.39,0,0,0,2.34-1.11c.45-.41.88-.81,1.17-.83a1.29,1.29,0,0,1,.67.28l.41.23a23.33,23.33,0,0,1,2.81,2.47,5.18,5.18,0,0,0,2,.72,5.91,5.91,0,0,1,1.5.49A2.19,2.19,0,0,1,108.54,62.25Z" transform="translate(38.84 0.11)"/><path class="cls-6" d="M117.66,115a4.76,4.76,0,0,1-.45.94c-.1.19-.21.4-.22.43s0,.07-1.46.51c-.64.21-1.36.44-1.44.49a10.5,10.5,0,0,0-.71,1.19c-.44.81-.49.87-.53.87s-.81.48-1.25.77c-.14.13-1.35,1.31-1.49,1.35a3.48,3.48,0,0,0-.21.93,2.23,2.23,0,0,1-.12.54l-1.8,2.15s-.07,0-.25,0c-.42,0-1.29-.11-1.76-.17l-.31,0a11.12,11.12,0,0,0-1.06.86s0,0-.5,0h-.63c0,.09-.14.4-.2.55a1.6,1.6,0,0,1-.08.2,11.83,11.83,0,0,0-.54,1.45,5.14,5.14,0,0,0,.51,1.42,2.06,2.06,0,0,1,.14.33c0,.06-.84,6.78-1,7.64.2.17,2.5,2.17,2.76,2.42s0,3.15-.15,3.57-.47.51-.82.71a3.5,3.5,0,0,0-.49.3,8.49,8.49,0,0,0-1,1.31c-.12.19-.24.36-.35.52-.34.49-.52.49-.77.49h-.2a17,17,0,0,1-2.16-.2h0c-.09-.06-2.18-1.51-2.32-1.69h0a3.77,3.77,0,0,0-1,.68c-.23.18-.44.35-.56.42a3.92,3.92,0,0,1-1.66.23,1.53,1.53,0,0,0-.81.39,2.17,2.17,0,0,1-.4.27,19.88,19.88,0,0,1-2.64.73,3.74,3.74,0,0,0-.7.21,1.41,1.41,0,0,1-.57.14.68.68,0,0,1-.2,0,13.05,13.05,0,0,1-2.17-1l-.74-.37c-.19,0-.84.8-.89.95s-.08.05-.1.05a7.41,7.41,0,0,1-1.25-.31,4.18,4.18,0,0,0-.47-.13,2.9,2.9,0,0,0-.17.37,4.14,4.14,0,0,1-.39.79,9.11,9.11,0,0,1-1.73.84c-.08.19-.58,1.35-.65,1.43a.06.06,0,0,1-.06,0,7.24,7.24,0,0,1-1.55-.68.64.64,0,0,0-.28-.06,2.46,2.46,0,0,0-.93.28l-.22.09a6.61,6.61,0,0,1-1.6.3H75c-.29,0-.49-.36-.64-.62a2.17,2.17,0,0,0-.21-.3,1.58,1.58,0,0,0-.81-.12,4.13,4.13,0,0,0-.65,0,7.21,7.21,0,0,0-.07,1.28v0h0l-.47-.11c-.15,0-.79-.15-.94-.18a10.42,10.42,0,0,0-1.72,1.29,4,4,0,0,0-.28.87,3.46,3.46,0,0,1-.28.88l-.11.16a3,3,0,0,1-.59.71c-.11.07-.06.38,0,.62a2.68,2.68,0,0,1,0,.35c0,.31-.94.59-1.15.59h0a7.22,7.22,0,0,1-1.57-1,2.77,2.77,0,0,1-.47-1.09,3.66,3.66,0,0,0-.21-.6.35.35,0,0,0-.33-.14,3.19,3.19,0,0,0-.42,0,.94.94,0,0,1-.31,0c-.23,0-.55-.91-.64-1.16-.17,0-1,.24-1.21.32s-.27.23-.44.46a3.15,3.15,0,0,1-.57.64,20,20,0,0,1-2.88,1.6,5.29,5.29,0,0,0-1.34,1.34.43.43,0,0,1-.37.2.88.88,0,0,1-.39-.12,3.71,3.71,0,0,0-.65-.07,1,1,0,0,0-.45.08,6.78,6.78,0,0,0-1.25,1.27c-.09.22-.7.38-.84.41-.07.23-.79,2.54-.92,3.17-.07.35.28.52.64.7s.61.3.72.56c.24.55-1.65,2-2.48,2.66a.45.45,0,0,1-.27.11.58.58,0,0,1-.32-.13.39.39,0,0,0-.21-.09l-.31,0a3.75,3.75,0,0,1-.71.08,1.83,1.83,0,0,1-.35,0,4,4,0,0,1-1.46-.95c-.05-.07.1-.31.61-1.06a5,5,0,0,0,.63-1.05c0-.07-.08-.46-.17-1-.17-1-.43-2.48-.49-2.65a3,3,0,0,0-.76-.64,3.69,3.69,0,0,1-.49-.37c-.11-.14,0-.48.1-.77a1.33,1.33,0,0,0,.1-.38,15.75,15.75,0,0,0-.43-1.85,2.19,2.19,0,0,0-.56-.66l-.13-.12c-.18-.18-.1-.75,0-1.13a1.73,1.73,0,0,0,0-.3c-.09-.12-3-2.88-3.39-3.12s-1.26-.73-1.8-1l-.39-.22a3.1,3.1,0,0,0-.63,0l-1.73,0h0v0s.1-1.22.1-1.46-.34-.49-.59-.74a3.53,3.53,0,0,1-.33-.37.79.79,0,0,1,0-.55,2.43,2.43,0,0,0,.1-.6,1.14,1.14,0,0,0-.45-.75,2.49,2.49,0,0,1-.23-.24,6.69,6.69,0,0,1-.52-1.86s-.26-.19-.47-.3a5.3,5.3,0,0,1-.62-.36A6,6,0,0,1,33,138.62a19.78,19.78,0,0,1,.49-2.06c.17-.62.32-1.2.32-1.28a18,18,0,0,0-2.32-2.19.83.83,0,0,1-.19-1.14,14.77,14.77,0,0,1,1.37-1.54v0h0s3.49,1.55,3.85,1.73a.41.41,0,0,0,.19,0,1.49,1.49,0,0,0,1-.52,11.42,11.42,0,0,0,.59-2,8.14,8.14,0,0,1,2-.39c.21,0,.89-.42.89-.56s-.27-2.29-.3-2.5-1.89-1-2.47-1.23l-.77-.35c-.48-.22-1-.45-1.31-.56a8.09,8.09,0,0,0-1.48-.16,5.57,5.57,0,0,1-1.15-.13,11.52,11.52,0,0,1-2.13-1.47c0-.05-.08-.75-.11-1l-1.79-2.79c-.2,0-2-.24-2.88-.45s-1.26-.46-1.41-1-1-1-1.27-1.15-.25-.15-.42-.26a4,4,0,0,0-.47-.3.3.3,0,0,0-.14-.06,2.4,2.4,0,0,0-.44.09,3.29,3.29,0,0,1-.58.09c-.14,0-.81-.41-.86-.6s-.08-.26-.15-.43h.07l81.64-13.65h.07c.08.59.13,1,.13,1.08s0,.08.1.16a28.38,28.38,0,0,0,2.15,1.94l1.37.36,4,3.44.76,1.69,3.45,3.39.82-.15,1.5.56v0A11.6,11.6,0,0,1,117.66,115Z" transform="translate(38.84 0.11)"/><path class="cls-7" d="M12.17,5.46s-.56.06-.74.33-.39.66-.51.82a.56.56,0,0,1-.58.33c-.41,0-2.47-.31-2.47-.31L7.11,5.46s-.92,0-1,.19a17.38,17.38,0,0,1-1,2.06c-.19.18-.74,0-1,.25s-.46.3-.46.59a2.27,2.27,0,0,1-.14.95A8.85,8.85,0,0,1,2,9.64c-.16,0-.32.35-.51.46s-.62,0-.37.38.72.57.65.73-.65.17-.93.17-.92,0-.83.18a5.77,5.77,0,0,0,.37.95c.19.27.14.36.26.53s.34.29.46.45a3.89,3.89,0,0,1,.67,1.63c0,.62-.28,1.4-.21,1.57s0,.07.6.64a3.69,3.69,0,0,1,1.27,2,3.12,3.12,0,0,1-.07,1.24c-.11.33-.09.51-.34.64s-.6.11-.72.53-.28.66,0,1.08.46.56.46.8a2.71,2.71,0,0,0,0,.75A3,3,0,0,0,3,25.3c.16.28.48.64.85.55s.9-.44,1.25-.2.82.69,1,.69.83-.27,1,0,.49.53.25.86-.11.66-1,.53a5.31,5.31,0,0,0-1.8,0c-.12,0-.14.24-.19.83s.42.8.39,1.06-.5.71-.71,1.2-.92.86,0,1.55a5.59,5.59,0,0,0,2,.9,1,1,0,0,1,.8.67,1.41,1.41,0,0,0,1,1,7.18,7.18,0,0,0,2.08.44,6.14,6.14,0,0,0,1.45-.13c.21,0,.26.24.35.8a2.29,2.29,0,0,0,1.55,1.37,7.14,7.14,0,0,1,1.75.11c.26.13.63.13.65.22s.72,1.48.53,1.75-2.84,1.35-3.05,1.15-.78-1.26-.9-1.26-.74.17-1.2.26-2.54-.57-2.56-.39.6,1,.46,1.26-1.57,1.63-1.48,1.61-1.78-.57-1.85-.4-.92.2-.6.6S7.36,43.7,7.46,44A12.7,12.7,0,0,1,8,47.35c-.18.47-1.38.36-1.24.82S7,49,7.34,49s.56-.11.83.24.23.62.53.6a4.43,4.43,0,0,1,1.78-.11c.6.2.44.27,1,.42a2.49,2.49,0,0,1,.83.38c.32.17.71.13.88.31a2,2,0,0,1,.41.68A5.78,5.78,0,0,1,14,52.9c0,.31,0,.67-.42.78s-.85.09-.94.53-.42.91-.14,1.21.53.58.53.87-.09,1.46-.51,1.79-.83.51-.85.75.07,1.7,0,2.1a.92.92,0,0,1-.5.62c-.14.09-.07.47-.19.82s-.9,0-1,.31.12.53.12,1.08.07.8-.56.91-.85,0-.85.66-.09,1.77-.14,2.35a1.7,1.7,0,0,1-.28,1c-.11.12-.3.51-.46.6s-.51-.17-.51.53a10.31,10.31,0,0,0,.12,1.84c.09.42-.12.42.39.84a3.56,3.56,0,0,1,1,1c.07.2-.12.35.37.26s.83-.28,1.36,0,1.69.57,2.1,1.12A2.15,2.15,0,0,1,13,76.24c.09.58-.07.46.53,1.42s1.09,1.26,1.36,1.32,1.41,0,1.58.2a.66.66,0,0,1,.18.75c-.12.42-.23.69.21,1.13s.67,1,1.27,1.09a5.18,5.18,0,0,0,1.45.24c.67,0,1-.09,1.16.2A2.75,2.75,0,0,1,21,83.76c0,.38-.32.58-1,.58s-1.16-.07-1.16.2a3.88,3.88,0,0,1-.07,1,3.14,3.14,0,0,1-1.59,1.2,1.84,1.84,0,0,1-1.43-.25,2.62,2.62,0,0,0-.81-.35c-.58-.2-.7-.38-1.09-.4s-.37.16-.9-.15-1.08-.67-1.29-.58a3,3,0,0,0-.7,1.26c-.09.38.37,1,.77,1.57a14.25,14.25,0,0,1,1,2.17c.28.66.19.91.39,1s2.27,1.15,2.4,1.28a2.25,2.25,0,0,1,.28,1.13A6.25,6.25,0,0,0,16,94.58a8.53,8.53,0,0,1,1.29.73c0,.11.58,1.19.44,1.55s-.42,1.35-.44,1.46a1.07,1.07,0,0,0,0,.81c.19.45.37.51.23.78a1.26,1.26,0,0,1-.94.64,5,5,0,0,0-1.43.22c-.21.11-1.23,1.31-1.34,1.37s-.67-.2-.65-.44.23-1.39.23-1.39H12.24s-.19-.51-.49-.47a7.53,7.53,0,0,0-1.82,1.06c.07.07.65,1.4.41,1.53s-1.27.13-1.34.22a2.56,2.56,0,0,0,.17,1.13A10.36,10.36,0,0,0,10.28,105a6.64,6.64,0,0,0,2.1,1,6,6,0,0,1,1.66.51l1.09.87a8.08,8.08,0,0,0,.57,2,14.39,14.39,0,0,1,1.41.5,8,8,0,0,0,.51,2.11,4.78,4.78,0,0,0,1.5,1.37A13.21,13.21,0,0,1,21,114c0,.09.23.64.28.82s.69.55.83.58.85-.18,1-.18a7.64,7.64,0,0,1,1,.62c.23.11,1.16.69,1.3,1.17s.48.73,1.38,1,2.89.45,2.89.45l1.8,2.8s.12,1,.12,1a13.42,13.42,0,0,0,2.1,1.44c.37.13,2.1.11,2.63.29s1.46.64,2.08.91,2.49,1.24,2.49,1.24.3,2.34.3,2.52-.71.57-.92.59a11.31,11.31,0,0,0-2,.36,11,11,0,0,1-.6,2c-.19.25-.81.67-1.18.49s-3.86-1.73-3.86-1.73A18,18,0,0,0,31.34,132a.81.81,0,0,0,.18,1.11,17.92,17.92,0,0,1,2.34,2.21c0,.2-.81,3-.81,3.34a5.75,5.75,0,0,0,1.43,2.14c.42.29,1.11.58,1.11.69a7,7,0,0,0,.51,1.84c.23.28.69.57.69,1s-.28.93-.16,1.13.92.89.92,1.13-.09,1.46-.09,1.46,2.31,0,2.38,0,1.82,1,2.19,1.24,3.35,3.05,3.4,3.14-.26,1.17,0,1.42a2.76,2.76,0,0,1,.69.79,16,16,0,0,1,.44,1.86c0,.22-.37.93-.21,1.13s1.16.75,1.25,1,.62,3.42.67,3.62-1.34,2-1.25,2.1a3.87,3.87,0,0,0,1.43.93,4.89,4.89,0,0,0,1.37-.08c.23,0,.41.39.78.12s2.73-2.05,2.47-2.62-1.5-.62-1.36-1.29.92-3.18.92-3.18.74-.18.84-.4a6.39,6.39,0,0,1,1.27-1.28c.27-.18,1.13,0,1.13,0s.46.31.71-.06A5.11,5.11,0,0,1,58,155.1a22,22,0,0,0,2.86-1.59c.44-.36.76-1,1-1.11s1.24-.33,1.24-.33.4,1.15.63,1.17.9-.26,1.08.07.35,1.37.67,1.68A7.29,7.29,0,0,0,67,156c.16,0,1.13-.26,1.13-.55s-.18-.88,0-1a4.83,4.83,0,0,0,.7-.86c.16-.22.39-1.55.55-1.75a10.17,10.17,0,0,1,1.76-1.3c.13,0,.78.13.94.18l.46.11a6,6,0,0,1,.1-1.31,3.27,3.27,0,0,1,1.5.09c.21.2.41.86.83.91a6,6,0,0,0,1.71-.29c.3-.11,1-.53,1.45-.31a6.71,6.71,0,0,0,1.57.66c.07-.08.65-1.43.65-1.43a9.5,9.5,0,0,0,1.73-.84c.21-.25.51-1.15.58-1.18s1.76.58,1.8.42.74-1,.93-1,2.38,1.28,2.91,1.37.71-.2,1.45-.33a19.48,19.48,0,0,0,2.63-.73c.35-.16.77-.66,1.23-.66a4,4,0,0,0,1.64-.22c.37-.23,1.5-1.27,1.64-1.09s2.31,1.68,2.31,1.68a18.21,18.21,0,0,0,2.15.2c.37,0,.53.11.94-.49a13.64,13.64,0,0,1,1.34-1.83c.37-.31,1.13-.55,1.3-1s.43-3.27.16-3.54-2.77-2.43-2.77-2.43.94-7.59.94-7.65a8.45,8.45,0,0,1-.64-1.75,13,13,0,0,1,.62-1.66c.07-.18.21-.57.21-.57a6.25,6.25,0,0,0,1.13,0,9.79,9.79,0,0,1,1.09-.86,13.32,13.32,0,0,0,2.28.18c.12-.13,1.73-2.06,1.8-2.15s.21-1.44.35-1.48,1.48-1.35,1.48-1.35,1.2-.77,1.27-.77,1.06-2,1.22-2.06,2.89-.91,2.89-1,.65-1.18.67-1.38a14.48,14.48,0,0,0-.55-1.74l-1.48-.56-.83.16-3.47-3.41-.76-1.7-4-3.43L105.2,104a17.67,17.67,0,0,1-2.26-2.13c0-.24-.74-5.39-.74-5.39a24.61,24.61,0,0,1-2.61-1.11c0-.11-1.69-4-1.69-4s1.78-9.11,1.88-9.11l2,0s2.26-1.82,2.4-2a26.2,26.2,0,0,0,1.94-3,13.58,13.58,0,0,1-.12-1.86,5,5,0,0,0,.58-1,4.53,4.53,0,0,1,.6-1c.14-.17,0-.64-.23-.68s-1.94,0-2.47-.64-1.22-1.57-1.5-1.93a10,10,0,0,1-.74-1.32,1.5,1.5,0,0,0-.32-1.4,7.86,7.86,0,0,0-1.07-.79c0-.07-.92-.91-.85-1.33a1.39,1.39,0,0,1,.46-.93c.23-.16,0-.47.53-.53s1.09.24,1.37-.2-.19-1.42.41-1.55,1.53.55,2.22.51,1.06-.71,1.73-.75a4.54,4.54,0,0,1,1.73.44,1.94,1.94,0,0,0-.62-1.61c-.58-.4-3-.67-3.49-1.22A22.89,22.89,0,0,0,101.58,57c-.44-.22-.79-.53-1.07-.51a3.12,3.12,0,0,0-1.15.82,16.29,16.29,0,0,1-2.75,1.29c-.35.15-.62.35-1,1.06s-1.8,3-2,3.23-1.41,1.77-2.24,1.66-2-2-2.17-2.66-.3-2.12-1-2.43a12,12,0,0,0-2.1-.6l-4.53-.75-1.57,0c-.72,0-1.71,0-2-.46s-1.1-2.75-1.54-3a1.41,1.41,0,0,0-1.16-.24c-.55.09-1.06-.67-1.29-.67a5.35,5.35,0,0,0-1.34.36c-.26.13-1.11,1-1.78.88s-1-1.86-1.41-2-.69-.49-1.15-.22.11-.69.48-1,1.36-2,1.69-2.06,2.54-.24,2.63-.29A3.23,3.23,0,0,0,73.47,48,9.18,9.18,0,0,0,71,46.69c-.09.09-1,.86-1.11.66s-1.55-1.41-1.45-1.46,2-2,2-2l.74-1.69s0-1.32.32-1.7,1.73-1.66,1.57-2-.37-1.17-.83-1.11a13.08,13.08,0,0,1-1.76-.22c-.06,0-1.13.89-1.43.67A21.9,21.9,0,0,0,66,36.16c-.35,0-2.08.29-2.06-.22a6,6,0,0,0-1.06-2.5l-.9.46c-.26.13-.88.78-1,.82a9.82,9.82,0,0,1-2.52-1.37c-.28-.38-.51-1.08-.69-1.13s-1.6.11-1.66-.4a14.51,14.51,0,0,1-.4-1.5c0-.31.3-.53,0-.89s-1.13-1.68-1.2-1.68a13.34,13.34,0,0,1-2.54-.88c0-.16.3-1.95.34-2.08a16.39,16.39,0,0,0-.55-1.95s-2,.18-1.85-.15.26-.84.51-1a4.68,4.68,0,0,0,1.2-1.41L52,15.92s-.83-.16-.94,0a8.58,8.58,0,0,1-1.07.86c-.09,0-1.08-.24-1.2-.66a11,11,0,0,0-.67-1.46s0-2.19-.09-2.21l-2.93-1.31s-1-2.79-1.25-2.83-.9,0-1.11,0A18.44,18.44,0,0,1,40,5.7a13.82,13.82,0,0,0-1.66-3.14,5.08,5.08,0,0,0-1.55-.93c-.69-.2-1.09-.49-1.39-.44a5.54,5.54,0,0,1-1.73-.11c-.11-.14-.32-.47-.39-.36a2,2,0,0,1-1,.36c-.09-.09-.58-.84-.58-.84a55.84,55.84,0,0,0-5.56,1c-.17.22-.81,1-1.3.84s-3.12-2-3.12-2-3.62,1.37-3.67,1.43-.6.78-.9.76-.53-.14-.69-.07S14,4.55,13.9,4.64,12.17,5.46,12.17,5.46Z" transform="translate(38.84 0.11)"/><path class="cls-8" d="M117.11,113.24v0l-1.5-.56-.82.15-3.45-3.39-.76-1.69-4-3.44-1.37-.36a28.38,28.38,0,0,1-2.15-1.94c-.06-.08-.1-.13-.1-.16s0-.49-.13-1.08c-.21-1.53-.59-4.17-.61-4.32v0h0a23.78,23.78,0,0,1-2.59-1.08c0-.24-1.28-3.13-1.68-4,.59-3,1.72-8.73,1.85-9.08l2,0h0c.09-.07,2.27-1.81,2.4-2a25.7,25.7,0,0,0,2-3.07c0-.08,0-.27,0-.51a7.34,7.34,0,0,1-.08-1.33l.14-.21a3.62,3.62,0,0,0,.45-.76,4.44,4.44,0,0,1,.59-1,.49.49,0,0,0,0-.46.37.37,0,0,0-.26-.27l-.27,0c-.57,0-1.76-.1-2.18-.61s-.84-1.06-1.17-1.5c-.14-.17-.25-.32-.33-.43a9.06,9.06,0,0,1-.73-1.31,1.51,1.51,0,0,0-.34-1.41,5.76,5.76,0,0,0-.91-.69l-.15-.1-.08-.09c-.2-.22-.82-.88-.77-1.22a1.35,1.35,0,0,1,.45-.9.36.36,0,0,0,.14-.24c0-.14.07-.25.38-.29a2.4,2.4,0,0,1,.53,0l.33,0a.55.55,0,0,0,.52-.26,1.35,1.35,0,0,0,.1-.74c0-.37,0-.72.3-.8H103a2.93,2.93,0,0,1,.94.25,2.82,2.82,0,0,0,1.11.27,1.87,1.87,0,0,0,.9-.38,1.65,1.65,0,0,1,.83-.37,4.21,4.21,0,0,1,1.65.41l.07,0h0a0,0,0,0,0,.05,0,2.19,2.19,0,0,0-.66-1.63,5.91,5.91,0,0,0-1.5-.49,5.18,5.18,0,0,1-2-.72,23.33,23.33,0,0,0-2.81-2.47l-.41-.23a1.29,1.29,0,0,0-.67-.28c-.29,0-.72.42-1.17.83A11.39,11.39,0,0,1,97,58.37a3.93,3.93,0,0,0-.4.17,1.84,1.84,0,0,0-1,1.07c-.35.72-1.81,3-2,3.23h0c-.89,1.1-1.7,1.7-2.2,1.63-.79-.1-1.93-1.92-2.14-2.63,0-.17-.1-.4-.15-.63-.14-.71-.32-1.58-.82-1.82a9.75,9.75,0,0,0-2-.59h-.07c-.2,0-4.35-.72-4.53-.75l-1.57,0h-.33c-.67,0-1.4,0-1.63-.45-.08-.15-.21-.44-.36-.79a7.31,7.31,0,0,0-1.2-2.21,1.49,1.49,0,0,0-.81-.28l-.37,0h-.08a1.46,1.46,0,0,1-.82-.43c-.16-.13-.28-.24-.38-.24a5.27,5.27,0,0,0-1.36.36,2,2,0,0,0-.28.21,2.6,2.6,0,0,1-1.32.69L71,55c-.38-.09-.68-.73-.91-1.24s-.33-.71-.49-.79l-.22-.12a1.27,1.27,0,0,0-.6-.21.66.66,0,0,0-.37.11c-.11.06-.12,0-.12,0a2.46,2.46,0,0,1,.64-1,7.49,7.49,0,0,0,.66-.84c.23-.32.48-.68.69-.93a1,1,0,0,1,.32-.28c.16,0,.79-.09,1.4-.15.81-.08,1.2-.12,1.24-.14a2.81,2.81,0,0,0,.24-1.24.45.45,0,0,0,0-.13A9.34,9.34,0,0,0,71,46.65H71a3.29,3.29,0,0,1-1,.69s0,0,0,0a7,7,0,0,0-.72-.7c-.3-.29-.68-.64-.73-.72.21-.17,1.71-1.71,2-2l.75-1.7h0s0-1.31.32-1.68l.16-.16c.81-.81,1.55-1.59,1.41-1.88l-.09-.24c-.16-.39-.37-1-.78-.89h-.14A7,7,0,0,1,71,37.17a4.42,4.42,0,0,0-.45-.08h0l-.06,0a2.78,2.78,0,0,1-1.22.65.2.2,0,0,1-.11,0A21.93,21.93,0,0,0,66,36.13a2.72,2.72,0,0,0-.54,0c-.24,0-.52,0-.78,0a1,1,0,0,1-.66-.13.15.15,0,0,1,0-.12,7.21,7.21,0,0,0-1-2.49c0-.05-.08-.06-.11,0l-.5.26-.4.2a4.75,4.75,0,0,0-.68.57l-.28.25a9.82,9.82,0,0,1-2.48-1.36,4,4,0,0,1-.33-.58c-.16-.33-.27-.53-.38-.56h-.39c-.36,0-1.2,0-1.25-.36a4,4,0,0,0-.22-.76,2,2,0,0,1-.17-.74,1,1,0,0,1,.07-.25.61.61,0,0,0,0-.66c-.08-.1-.21-.29-.36-.51-.7-1-.82-1.18-.87-1.18a15.78,15.78,0,0,1-2.51-.85c0-.09.09-.53.17-1s.15-1,.18-1.08a15.79,15.79,0,0,0-.56-2v0h0s-.53.05-1,.05-.77-.08-.8-.12a.06.06,0,0,1,0,0l0-.14a1.72,1.72,0,0,1,.45-.84,4.57,4.57,0,0,0,1.21-1.44c0-.26.32-4.32.33-4.36v0h0a3.61,3.61,0,0,0-.66-.07c-.17,0-.28,0-.32.08a10.06,10.06,0,0,1-1.05.85h0c-.19,0-1-.28-1.13-.64a12.83,12.83,0,0,0-.67-1.46c0-2.21-.09-2.23-.12-2.24l-2.91-1.29c-.17-.5-1-2.8-1.27-2.84l-.23,0-.38,0h-.5A19.06,19.06,0,0,1,40,5.69a14,14,0,0,0-1.67-3.16,2.74,2.74,0,0,1-.31-.23,3.79,3.79,0,0,0-1.25-.7,7.24,7.24,0,0,1-.73-.27,1.46,1.46,0,0,0-.67-.18,3.05,3.05,0,0,1-.49,0,3.56,3.56,0,0,1-1.21-.12L33.61.94c-.13-.17-.22-.27-.3-.27a.07.07,0,0,0-.06,0,2.24,2.24,0,0,1-.88.36h0C32.26,1,31.9.43,31.76.22v0h0a46.93,46.93,0,0,0-5.59,1C26,1.31,25.49,2,25,2l-.14,0c-.48-.2-3.09-2-3.12-2h0c-1.09.42-3.64,1.39-3.69,1.46s-.58.73-.86.73h0l-.31,0a.78.78,0,0,0-.4,0c-.09,0-.72.66-1.6,1.53-.48.47-.93.91-1,1s-1.62.77-1.72.81a1.28,1.28,0,0,0-.76.35,5.35,5.35,0,0,0-.29.47,3.75,3.75,0,0,1-.22.35l-.05.07c-.08.13-.16.24-.5.24s-2.26-.27-2.45-.3L7.13,5.42h0c-.16,0-1,0-1,.22a15.9,15.9,0,0,1-1,2.05.77.77,0,0,1-.42.09,1.13,1.13,0,0,0-.61.15L4,8c-.25.18-.4.28-.4.56a2.13,2.13,0,0,1-.13.93,5.39,5.39,0,0,1-1.12.11H2c-.1,0-.19.13-.29.25a.79.79,0,0,1-.23.22.52.52,0,0,1-.2.06c-.11,0-.22,0-.25.12s0,.14.07.25a2.56,2.56,0,0,0,.41.4c.14.12.26.23.24.29s-.4.16-.9.16H.57c-.33,0-.5,0-.55.11a.1.1,0,0,0,0,.11,2.34,2.34,0,0,1,.09.28,2.94,2.94,0,0,0,.28.68,1.16,1.16,0,0,1,.16.32.57.57,0,0,0,.1.21,1,1,0,0,0,.25.25,2.09,2.09,0,0,1,.21.19,3.92,3.92,0,0,1,.66,1.62,3.88,3.88,0,0,1-.14,1,1.41,1.41,0,0,0-.06.56c0,.11.05.12.18.24s.21.19.43.41a3.47,3.47,0,0,1,1.26,2v.2a2.55,2.55,0,0,1-.07,1c0,.08,0,.15-.07.22s-.08.31-.26.4l-.21.08a.66.66,0,0,0-.52.47c0,.08,0,.14-.07.21a.94.94,0,0,0,0,.9,2.9,2.9,0,0,0,.25.37.71.71,0,0,1,.2.41v.21a1.73,1.73,0,0,0,0,.55,2.61,2.61,0,0,1,0,.31,1.39,1.39,0,0,0,.15.58,1,1,0,0,0,.76.59l.13,0a2,2,0,0,0,.34-.12,1.84,1.84,0,0,1,.61-.16.48.48,0,0,1,.27.08l.33.25a1.85,1.85,0,0,0,.71.44,1.14,1.14,0,0,0,.26-.05,2.34,2.34,0,0,1,.45-.07.31.31,0,0,1,.27.11,1.47,1.47,0,0,1,.1.13c.17.22.33.43.16.69a1,1,0,0,0-.12.22.46.46,0,0,1-.52.33l-.35,0a5.69,5.69,0,0,0-.83-.06,4,4,0,0,0-1,.09c-.14,0-.17.24-.21.86a1.11,1.11,0,0,0,.25.77c.08.11.15.2.14.29a1.31,1.31,0,0,1-.3.52,3.25,3.25,0,0,0-.41.67,2.14,2.14,0,0,1-.2.32c-.25.36-.51.72.25,1.26a5.5,5.5,0,0,0,1.85.87l.18.05a1,1,0,0,1,.78.64l0,.06a1.4,1.4,0,0,0,1,.93,7.81,7.81,0,0,0,2.08.45h.31a4.23,4.23,0,0,0,.86-.1,1.35,1.35,0,0,1,.29,0c.17,0,.22.21.31.77a2.31,2.31,0,0,0,1.59,1.4h.43a4.48,4.48,0,0,1,1.3.11,1.69,1.69,0,0,0,.42.13c.09,0,.21,0,.21.07l.08.18c.16.36.6,1.34.46,1.54a9.42,9.42,0,0,1-2.92,1.16h-.07a4.17,4.17,0,0,1-.44-.63c-.31-.49-.42-.65-.49-.65a4.49,4.49,0,0,0-.51.11c-.22.06-.48.12-.7.16H11a8.2,8.2,0,0,1-1.36-.25,6.74,6.74,0,0,0-1-.19s-.11,0-.12.06a1.3,1.3,0,0,0,.2.48c.14.28.34.65.27.77s-.48.53-.83.9-.57.59-.64.68a7.64,7.64,0,0,0-1.71-.42c-.05,0-.13,0-.15.06s-.14.09-.26.13S5,42,5,42.12a.24.24,0,0,0,.07.23,7.33,7.33,0,0,0,1.26.87A4.67,4.67,0,0,1,7.42,44,12.91,12.91,0,0,1,8,47.34c-.08.2-.38.29-.67.37s-.66.19-.58.47l0,.07c.13.45.23.79.56.79h.19a.59.59,0,0,1,.61.24,2.45,2.45,0,0,1,.21.34c.08.17.14.29.36.27s.19,0,.33-.05A4.35,4.35,0,0,1,10,49.7a1.75,1.75,0,0,1,.49.07A2.33,2.33,0,0,1,11,50a1.89,1.89,0,0,0,.5.2,2.11,2.11,0,0,1,.62.25l.2.13a1.89,1.89,0,0,0,.48.15.7.7,0,0,1,.39.15,2,2,0,0,1,.41.67l0,.11a4.94,4.94,0,0,1,.33,1.25.66.66,0,0,0,0,.14c0,.27,0,.52-.38.61l-.25.05c-.35.06-.65.12-.73.5a2.38,2.38,0,0,1-.11.38c-.12.33-.23.63,0,.87l.05,0a1.4,1.4,0,0,1,.47.79c0,.27-.08,1.44-.49,1.76a4.07,4.07,0,0,1-.38.28l-.14.1c-.19.14-.33.25-.35.4s0,.31,0,.6v.33a6.72,6.72,0,0,1,0,1.17.86.86,0,0,1-.45.57l0,0c-.09.06-.11.21-.12.39a2.51,2.51,0,0,1-.08.45c0,.13-.19.16-.42.16h-.19c-.17,0-.36,0-.43.15a.63.63,0,0,0,0,.5,2.29,2.29,0,0,1,.09.59v.16c0,.44,0,.62-.52.72l-.27,0c-.42.06-.62.09-.62.65S8.47,67,8.42,67.62v.06c-.05.7-.2.91-.26,1a1.07,1.07,0,0,0-.17.24,1.19,1.19,0,0,1-.29.35.32.32,0,0,1-.14,0h0c-.21,0-.34.09-.34.54a10.81,10.81,0,0,0,.11,1.85,1,1,0,0,1,0,.27c0,.19,0,.29.38.58a3.7,3.7,0,0,1,.93,1,.36.36,0,0,1,0,.14.18.18,0,0,0,0,.14c.05,0,.14,0,.35,0l.28-.06a1.8,1.8,0,0,1,.5-.08,1.09,1.09,0,0,1,.56.16,5.89,5.89,0,0,0,.69.3,3.39,3.39,0,0,1,1.4.81A2.06,2.06,0,0,1,13,76.12l0,.12c0,.13,0,.23,0,.31,0,.28,0,.38.5,1.12.66,1,1.15,1.29,1.39,1.35a3.33,3.33,0,0,0,.53,0,2.62,2.62,0,0,1,1,.15l0,0a.64.64,0,0,1,.15.69l0,.08a.89.89,0,0,0,.24,1.07c.12.13.23.25.33.38a1.71,1.71,0,0,0,1,.72l.41.1a3.65,3.65,0,0,0,1,.14h.63c.26,0,.4,0,.5.19a2.86,2.86,0,0,1,.22,1.16q0,.54-1,.54h-.59c-.31,0-.59,0-.59.23v.14a3.53,3.53,0,0,1-.07.87,3.05,3.05,0,0,1-1.57,1.17,1.85,1.85,0,0,1-1.41-.23l-.1-.06a1.37,1.37,0,0,0-.47-.22l-.24-.08a3.16,3.16,0,0,1-.53-.23,1.31,1.31,0,0,0-.57-.17.78.78,0,0,0-.28,0h-.13a.93.93,0,0,1-.47-.18l-.18-.11A3.1,3.1,0,0,0,11.71,85l-.09,0a3,3,0,0,0-.71,1.28c-.09.36.29.91.66,1.44l.11.16a10.61,10.61,0,0,1,.8,1.69c.06.17.13.33.19.47a4.64,4.64,0,0,1,.21.67c0,.18.07.3.2.37l.31.16c.59.3,2,1,2.08,1.11a2.45,2.45,0,0,1,.27,1.11,5.53,5.53,0,0,0,.18,1.14h0a9.61,9.61,0,0,1,1.28.7,1,1,0,0,0,.08.21c.15.35.46,1.06.36,1.32s-.42,1.35-.44,1.47,0,0,0,.06a1.06,1.06,0,0,0,0,.78,2.66,2.66,0,0,0,.17.34c.1.17.15.24.06.4a1.21,1.21,0,0,1-.91.63,5.33,5.33,0,0,0-1.45.22,6.92,6.92,0,0,0-.86.87,6.45,6.45,0,0,1-.48.5h0a.85.85,0,0,1-.47-.24.26.26,0,0,1-.09-.18c0-.24.23-1.38.23-1.39v0H12.26c0-.1-.22-.5-.51-.46a7.33,7.33,0,0,0-1.86,1.07.07.07,0,0,0,0,.05,3.82,3.82,0,0,1,.46,1.4.08.08,0,0,1,0,.07,3,3,0,0,1-.79.13c-.37,0-.53,0-.56.1a2.3,2.3,0,0,0,.16,1.17l.14.17a7.87,7.87,0,0,0,1,1.1,7.25,7.25,0,0,0,2.12,1l.32.07a4.25,4.25,0,0,1,1.33.43l1.07.85a7,7,0,0,0,.6,2l.51.17c.32.11.81.27.88.32a7.61,7.61,0,0,0,.51,2.1,4.59,4.59,0,0,0,1.52,1.39l.19.06a14.64,14.64,0,0,1,1.63.6s.05.15.1.29l0,.1c.07.17.12.35.15.43s.72.58.86.6a3.29,3.29,0,0,0,.58-.09,2.4,2.4,0,0,1,.44-.09.3.3,0,0,1,.14.06,4,4,0,0,1,.47.3c.17.11.32.21.42.26s1.14.68,1.27,1.15.5.75,1.41,1,2.68.42,2.88.45l1.79,2.79c0,.27.11,1,.11,1a11.52,11.52,0,0,0,2.13,1.47,5.57,5.57,0,0,0,1.15.13,8.09,8.09,0,0,1,1.48.16c.34.11.83.34,1.31.56l.77.35c.58.25,2.29,1.13,2.47,1.23s.3,2.33.3,2.5-.68.54-.89.56a8.14,8.14,0,0,0-2,.39,11.42,11.42,0,0,1-.59,2,1.49,1.49,0,0,1-1,.52.41.41,0,0,1-.19,0c-.36-.18-3.82-1.71-3.85-1.73h0v0A14.77,14.77,0,0,0,31.31,132a.83.83,0,0,0,.19,1.14,18,18,0,0,1,2.32,2.19c0,.08-.15.66-.32,1.28a19.78,19.78,0,0,0-.49,2.06,6,6,0,0,0,1.45,2.17,5.3,5.3,0,0,0,.62.36c.21.11.47.25.47.3a6.69,6.69,0,0,0,.52,1.86,2.49,2.49,0,0,0,.23.24,1.14,1.14,0,0,1,.45.75,2.43,2.43,0,0,1-.1.6.79.79,0,0,0,0,.55,3.53,3.53,0,0,0,.33.37c.25.25.59.6.59.74s-.09,1.45-.1,1.46v0h0l1.73,0a3.1,3.1,0,0,1,.63,0l.39.22c.54.29,1.54.84,1.8,1s3.3,3,3.39,3.12a1.73,1.73,0,0,1,0,.3c-.06.38-.14.95,0,1.13l.13.12a2.19,2.19,0,0,1,.56.66,15.75,15.75,0,0,1,.43,1.85,1.33,1.33,0,0,1-.1.38c-.1.29-.21.63-.1.77a3.69,3.69,0,0,0,.49.37,3,3,0,0,1,.76.64c.06.17.32,1.67.49,2.65.09.51.16.9.17,1a5,5,0,0,1-.63,1.05c-.51.75-.66,1-.61,1.06a4,4,0,0,0,1.46.95,1.83,1.83,0,0,0,.35,0,3.75,3.75,0,0,0,.71-.08l.31,0a.39.39,0,0,1,.21.09.58.58,0,0,0,.32.13.45.45,0,0,0,.27-.11c.83-.62,2.72-2.11,2.48-2.66-.11-.26-.42-.41-.72-.56s-.71-.35-.64-.7c.13-.63.85-2.94.92-3.17.14,0,.75-.19.84-.41a6.78,6.78,0,0,1,1.25-1.27,1,1,0,0,1,.45-.08,3.71,3.71,0,0,1,.65.07.88.88,0,0,0,.39.12.43.43,0,0,0,.37-.2A5.29,5.29,0,0,1,58,155.13a20,20,0,0,0,2.88-1.6,3.15,3.15,0,0,0,.57-.64c.17-.23.32-.42.44-.46s1-.28,1.21-.32c.09.25.41,1.14.64,1.16a.94.94,0,0,0,.31,0,3.19,3.19,0,0,1,.42,0,.35.35,0,0,1,.33.14,3.66,3.66,0,0,1,.21.6,2.77,2.77,0,0,0,.47,1.09A7.22,7.22,0,0,0,67,156h0c.21,0,1.15-.28,1.15-.59a2.68,2.68,0,0,0,0-.35c0-.24-.09-.55,0-.62a3,3,0,0,0,.59-.71l.11-.16a3.46,3.46,0,0,0,.28-.88,4,4,0,0,1,.28-.87,10.42,10.42,0,0,1,1.72-1.29c.15,0,.79.14.94.18l.47.11h0v0a7.21,7.21,0,0,1,.07-1.28,4.13,4.13,0,0,1,.65,0,1.58,1.58,0,0,1,.81.12,2.17,2.17,0,0,1,.21.3c.15.26.35.59.64.62h.13a6.61,6.61,0,0,0,1.6-.3l.22-.09a2.46,2.46,0,0,1,.93-.28.64.64,0,0,1,.28.06,7.24,7.24,0,0,0,1.55.68.06.06,0,0,0,.06,0c.07-.08.57-1.24.65-1.43a9.11,9.11,0,0,0,1.73-.84,4.14,4.14,0,0,0,.39-.79,2.9,2.9,0,0,1,.17-.37,4.18,4.18,0,0,1,.47.13,7.41,7.41,0,0,0,1.25.31s.09,0,.1-.05.7-.95.89-.95l.74.37a13.05,13.05,0,0,0,2.17,1,.68.68,0,0,0,.2,0,1.41,1.41,0,0,0,.57-.14,3.74,3.74,0,0,1,.7-.21,19.88,19.88,0,0,0,2.64-.73,2.17,2.17,0,0,0,.4-.27,1.53,1.53,0,0,1,.81-.39,3.92,3.92,0,0,0,1.66-.23c.12-.07.33-.24.56-.42a3.77,3.77,0,0,1,1-.68h0c.14.18,2.23,1.63,2.32,1.69h0a17,17,0,0,0,2.16.2h.2c.25,0,.43,0,.77-.49.11-.16.23-.33.35-.52a8.49,8.49,0,0,1,1-1.31,3.5,3.5,0,0,1,.49-.3c.35-.2.71-.41.82-.71s.45-3.28.15-3.57-2.56-2.25-2.76-2.42c.11-.86,1-7.58,1-7.64a2.06,2.06,0,0,0-.14-.33,5.14,5.14,0,0,1-.51-1.42,11.83,11.83,0,0,1,.54-1.45,1.6,1.6,0,0,0,.08-.2c.06-.15.17-.46.2-.55h.63c.46,0,.49,0,.5,0a11.12,11.12,0,0,1,1.06-.86l.31,0c.47.06,1.34.17,1.76.17.18,0,.23,0,.25,0l1.8-2.15a2.23,2.23,0,0,0,.12-.54,3.48,3.48,0,0,1,.21-.93c.14,0,1.35-1.22,1.49-1.35.44-.29,1.18-.75,1.25-.77s.09-.06.53-.87a10.5,10.5,0,0,1,.71-1.19c.08-.05.8-.28,1.44-.49,1.41-.44,1.46-.47,1.46-.51s.12-.24.22-.43a4.76,4.76,0,0,0,.45-.94A11.6,11.6,0,0,0,117.11,113.24Zm-1.6,3.58c-.83.26-1.38.44-1.46.49a7.32,7.32,0,0,0-.73,1.22c-.21.37-.44.79-.49.84s-.84.5-1.28.78c-.51.5-1.37,1.31-1.46,1.34s-.15.31-.26,1a2.78,2.78,0,0,1-.11.51l-1.8,2.15s0,0-.19,0A16.25,16.25,0,0,1,106,125l-.32,0a8.62,8.62,0,0,0-1.1.87,1.35,1.35,0,0,1-.46,0l-.65,0h0v0s-.13.4-.2.58a1.44,1.44,0,0,0-.09.2,10.43,10.43,0,0,0-.54,1.47,5,5,0,0,0,.52,1.45l.13.3c0,.1-.94,7.57-1,7.65h0v0s2.5,2.17,2.77,2.43,0,3.07-.17,3.5-.45.48-.79.67a3.18,3.18,0,0,0-.49.31,7.22,7.22,0,0,0-1,1.32l-.36.53c-.32.45-.47.46-.71.46h-.32c-.51,0-1.9-.18-2-.2-.75-.52-2.19-1.53-2.29-1.67a.15.15,0,0,0-.08,0,3.39,3.39,0,0,0-1.06.69c-.22.18-.43.34-.55.42a4.11,4.11,0,0,1-1.62.21,1.54,1.54,0,0,0-.85.41,1.88,1.88,0,0,1-.39.26,19.69,19.69,0,0,1-2.63.73,3.4,3.4,0,0,0-.71.21,1.52,1.52,0,0,1-.54.13H88.3a14.41,14.41,0,0,1-2.14-1,5.5,5.5,0,0,0-.77-.38h0c-.23,0-.9.84-.94,1h0a7.28,7.28,0,0,1-1.23-.31,4.11,4.11,0,0,0-.49-.14h0s-.08.09-.21.42a4.09,4.09,0,0,1-.38.76,9.82,9.82,0,0,1-1.72.84h0c-.23.54-.6,1.37-.64,1.43h0a7.15,7.15,0,0,1-1.52-.67.74.74,0,0,0-.31-.07,2.56,2.56,0,0,0-1,.29l-.21.09a6.66,6.66,0,0,1-1.58.29H75c-.26,0-.45-.33-.59-.58a1.47,1.47,0,0,0-.22-.31,1.66,1.66,0,0,0-.86-.15,3.76,3.76,0,0,0-.68.05,3.87,3.87,0,0,0-.11,1.3l-.42-.11-1-.17h0a9.9,9.9,0,0,0-1.78,1.31,4.45,4.45,0,0,0-.29.9,4.19,4.19,0,0,1-.26.85l-.12.16a3.15,3.15,0,0,1-.57.7c-.14.08-.1.39,0,.68a2.55,2.55,0,0,1,0,.34c0,.24-.86.52-1.08.52h0a7.09,7.09,0,0,1-1.53-1A2.7,2.7,0,0,1,65,153.9a3.12,3.12,0,0,0-.22-.61.39.39,0,0,0-.39-.18,2.12,2.12,0,0,0-.43.06l-.29,0c-.15,0-.44-.72-.59-1.15v0h0s-1,.24-1.26.33-.29.25-.46.48a4.2,4.2,0,0,1-.56.63,22.44,22.44,0,0,1-2.85,1.59,4.92,4.92,0,0,0-1.39,1.36.36.36,0,0,1-.31.17.74.74,0,0,1-.35-.11h0a4.62,4.62,0,0,0-.67-.06.92.92,0,0,0-.48.09,6.6,6.6,0,0,0-1.29,1.3c-.07.17-.6.33-.8.38h0v0s-.79,2.53-.92,3.19c-.09.39.3.58.67.77a1.36,1.36,0,0,1,.69.53c.15.35-.77,1.31-2.46,2.58a.4.4,0,0,1-.23.09.61.61,0,0,1-.28-.11.43.43,0,0,0-.25-.11l-.32,0a3.64,3.64,0,0,1-.7.08,1.72,1.72,0,0,1-.34,0,4.07,4.07,0,0,1-1.41-.91,5,5,0,0,1,.61-1c.41-.61.67-1,.64-1.09s-.08-.47-.17-1c-.18-1.05-.44-2.49-.5-2.67s-.44-.43-.78-.66a4,4,0,0,1-.47-.36c-.09-.12,0-.45.11-.71a1.43,1.43,0,0,0,.1-.4,14,14,0,0,0-.44-1.87,2.2,2.2,0,0,0-.57-.69l-.13-.12c-.16-.15-.07-.73,0-1.07s0-.3,0-.34-3.05-2.91-3.41-3.15-1.23-.7-1.8-1l-.39-.22a2.86,2.86,0,0,0-.67,0l-1.69,0c0-.21.09-1.21.09-1.43s-.32-.49-.61-.78c-.14-.15-.28-.3-.32-.36s0-.29.05-.5a2.12,2.12,0,0,0,.11-.62,1.22,1.22,0,0,0-.47-.8l-.23-.23a7.19,7.19,0,0,1-.5-1.82c0-.08-.16-.17-.51-.36a6,6,0,0,1-.61-.35,6,6,0,0,1-1.42-2.12,20.72,20.72,0,0,1,.49-2.05c.2-.74.32-1.21.32-1.29A18.7,18.7,0,0,0,31.55,133a.77.77,0,0,1-.18-1.07,17.47,17.47,0,0,1,1.34-1.5c.3.14,3.48,1.55,3.83,1.72a.54.54,0,0,0,.22.05,1.55,1.55,0,0,0,1-.55,9.93,9.93,0,0,0,.61-2,12.23,12.23,0,0,1,1.93-.33c.22,0,1-.43,1-.63s-.29-2.43-.3-2.53v0h0s-1.88-1-2.5-1.24l-.76-.35c-.48-.22-1-.45-1.32-.56a7.87,7.87,0,0,0-1.5-.17,6.49,6.49,0,0,1-1.13-.12,15.55,15.55,0,0,1-2.08-1.41c0-.12-.11-1-.12-1l-1.81-2.84h0s-2-.22-2.88-.44-1.22-.45-1.36-.93-1.06-1.07-1.31-1.19a4.7,4.7,0,0,1-.41-.26l-.41-.26a.52.52,0,0,0-.24-.1,4,4,0,0,0-.46.08,2.15,2.15,0,0,1-.55.09c-.14,0-.76-.39-.8-.55a3.83,3.83,0,0,0-.15-.43l0-.1L21,114c0-.07-.28-.19-1.68-.65l-.19-.06A4.69,4.69,0,0,1,17.65,112a8.17,8.17,0,0,1-.5-2.09s-.11-.1-.93-.36l-.5-.17a7.25,7.25,0,0,1-.56-2h0l-1.09-.86a4.19,4.19,0,0,0-1.36-.44l-.32-.08a6.85,6.85,0,0,1-2.08-1,7.76,7.76,0,0,1-1-1.08l-.14-.17A2.7,2.7,0,0,1,9,102.67a2.42,2.42,0,0,1,.52-.07,3.07,3.07,0,0,0,.81-.14s.06-.06.07-.13A3.89,3.89,0,0,0,10,100.9a8.46,8.46,0,0,1,1.8-1c.27,0,.44.44.44.45v0h1.12c0,.21-.21,1.14-.23,1.36a.33.33,0,0,0,.1.22,1,1,0,0,0,.53.27l.07,0a5.28,5.28,0,0,0,.5-.52,8.32,8.32,0,0,1,.84-.85,5.16,5.16,0,0,1,1.42-.22,1.31,1.31,0,0,0,1-.66c.11-.19,0-.29-.05-.46s-.11-.19-.18-.34a1,1,0,0,1,0-.73s0,0,0-.07.3-1.11.44-1.45-.19-1-.36-1.37l-.08-.2A6.65,6.65,0,0,0,16,94.55a5.59,5.59,0,0,1-.18-1.1,2.35,2.35,0,0,0-.29-1.15c-.1-.1-1.07-.6-2.09-1.13L13.11,91c-.1-.05-.12-.15-.17-.33a3,3,0,0,0-.21-.67c-.06-.15-.12-.31-.19-.47a10,10,0,0,0-.8-1.71l-.11-.15c-.36-.52-.73-1.06-.65-1.39a2.94,2.94,0,0,1,.67-1.24h.06a3,3,0,0,1,1,.48l.18.11a1.09,1.09,0,0,0,.51.19l.14,0,.27,0a1.37,1.37,0,0,1,.54.17,3.16,3.16,0,0,0,.53.23l.24.08a1.58,1.58,0,0,1,.47.21l.1.06a1.92,1.92,0,0,0,1.45.25,3.09,3.09,0,0,0,1.62-1.22,3.28,3.28,0,0,0,.08-.89s0-.09,0-.14.14-.17.53-.17H20c.69,0,1-.21,1-.61a2.84,2.84,0,0,0-.23-1.19c-.14-.24-.37-.24-.81-.22h-.38a3.27,3.27,0,0,1-1-.15l-.41-.1a1.66,1.66,0,0,1-.92-.69,2.9,2.9,0,0,0-.33-.38.82.82,0,0,1-.22-1l0-.09a.66.66,0,0,0-.16-.74l0,0c-.11-.14-.62-.16-1.07-.17a4.59,4.59,0,0,1-.52,0c-.18,0-.67-.26-1.34-1.31-.46-.73-.47-.83-.49-1.1,0-.08,0-.17,0-.31l0-.12a2,2,0,0,0-.49-1.19,3.44,3.44,0,0,0-1.43-.84,5,5,0,0,1-.68-.3,1.17,1.17,0,0,0-.6-.17,2.26,2.26,0,0,0-.51.08L9,73.75c-.17,0-.27,0-.29,0s0-.05,0-.09a.47.47,0,0,0,0-.16,3.72,3.72,0,0,0-1-1.06c-.34-.28-.35-.36-.35-.53a1.17,1.17,0,0,0,0-.29,9.6,9.6,0,0,1-.11-1.83c0-.48.16-.48.27-.48h0a.38.38,0,0,0,.18,0A1.4,1.4,0,0,0,8,68.92a1.14,1.14,0,0,1,.16-.22,1.82,1.82,0,0,0,.28-1v-.05c0-.59.13-1.67.13-2.3s.14-.53.56-.58l.27,0c.59-.1.59-.33.58-.79v-.15a1.86,1.86,0,0,0-.1-.6.64.64,0,0,1,0-.47c.05-.09.18-.11.37-.11h.19c.2,0,.42,0,.48-.2a1.59,1.59,0,0,0,.08-.46c0-.16,0-.3.09-.34l.05,0a1,1,0,0,0,.48-.61,7,7,0,0,0,0-1.19v-.32c0-.27,0-.51,0-.6s.19-.26.42-.42l0,0a4.07,4.07,0,0,0,.38-.28c.44-.34.52-1.52.52-1.81a1.36,1.36,0,0,0-.49-.83l0-.06c-.18-.2-.08-.49,0-.79a2.64,2.64,0,0,0,.12-.4c.07-.33.32-.38.67-.45l.25,0c.42-.1.43-.4.44-.67v-.13a4.48,4.48,0,0,0-.33-1.28l0-.11a2,2,0,0,0-.42-.7.81.81,0,0,0-.43-.17,1.72,1.72,0,0,1-.46-.14l-.2-.12a1.78,1.78,0,0,0-.64-.26,1.34,1.34,0,0,1-.47-.2,2.68,2.68,0,0,0-.52-.22,1.53,1.53,0,0,0-.51-.07,5.12,5.12,0,0,0-1,.12l-.33.06c-.16,0-.2-.06-.29-.24a2,2,0,0,0-.21-.35A.6.6,0,0,0,7.68,49H7.34c-.28,0-.38-.33-.5-.74l0-.08c-.06-.2.16-.28.53-.38s.62-.18.72-.42A12.69,12.69,0,0,0,7.49,44a4.12,4.12,0,0,0-1.12-.8,6.76,6.76,0,0,1-1.24-.85c-.06-.07-.08-.13-.06-.17s.21-.17.36-.22.27-.1.3-.18h.09a8,8,0,0,1,1.69.41h0s0,0,0,0h0c0-.07.34-.38.63-.67s.76-.8.84-.92S9,40,8.79,39.7a1.56,1.56,0,0,1-.19-.43h.05a6.67,6.67,0,0,1,1,.19,6.48,6.48,0,0,0,1.49.24l.7-.16a3.67,3.67,0,0,1,.49-.11,3.83,3.83,0,0,1,.43.62,4.25,4.25,0,0,0,.45.63.17.17,0,0,0,.12,0,9.24,9.24,0,0,0,3-1.19c.14-.21-.15-.93-.46-1.61l-.07-.17c0-.06-.12-.08-.27-.12a1.46,1.46,0,0,1-.39-.12,4.59,4.59,0,0,0-1.34-.12h-.43A2.26,2.26,0,0,1,11.83,36c-.09-.57-.14-.8-.37-.82a1.06,1.06,0,0,0-.32,0,3.92,3.92,0,0,1-.84.1H10a7.64,7.64,0,0,1-2.07-.44A1.34,1.34,0,0,1,7,34l0-.06a1,1,0,0,0-.82-.68l-.18-.05a5.32,5.32,0,0,1-1.83-.85c-.71-.5-.48-.83-.24-1.17a1.73,1.73,0,0,0,.21-.34,3.39,3.39,0,0,1,.41-.65,1.43,1.43,0,0,0,.31-.55.52.52,0,0,0-.15-.34,1,1,0,0,1-.24-.72c0-.58.06-.78.16-.81a4.42,4.42,0,0,1,1-.09,5.46,5.46,0,0,1,.82.06l.36,0a.52.52,0,0,0,.58-.36,1.06,1.06,0,0,1,.11-.21c.21-.3,0-.55-.15-.77a1.13,1.13,0,0,1-.1-.13.37.37,0,0,0-.33-.13,2.42,2.42,0,0,0-.47.07l-.24,0a1.9,1.9,0,0,1-.66-.42l-.34-.26a.54.54,0,0,0-.31-.09,1.91,1.91,0,0,0-.63.17l-.34.12H3.71a.94.94,0,0,1-.7-.55,1.4,1.4,0,0,1-.14-.56,1.64,1.64,0,0,0-.05-.32,2.39,2.39,0,0,1,0-.53,1.48,1.48,0,0,0,0-.21.74.74,0,0,0-.21-.45,3.56,3.56,0,0,1-.25-.36.84.84,0,0,1,0-.85l.06-.21a.61.61,0,0,1,.48-.43l.22-.08c.21-.11.24-.24.3-.44l.06-.22a2.48,2.48,0,0,0,.08-1.05v-.2a3.83,3.83,0,0,0-1.28-2.06c-.22-.22-.35-.34-.43-.41s-.13-.12-.17-.22a1.53,1.53,0,0,1,.07-.52,4,4,0,0,0,.14-1,3.89,3.89,0,0,0-.67-1.65,1.47,1.47,0,0,0-.22-.21A.78.78,0,0,1,.7,13a.55.55,0,0,1-.09-.19,1.16,1.16,0,0,0-.17-.34,2.61,2.61,0,0,1-.27-.66,2.17,2.17,0,0,0-.1-.28s0-.05,0-.05.2-.09.49-.09h.3c.33,0,.88,0,1-.2s-.08-.22-.26-.37a2.4,2.4,0,0,1-.39-.39.25.25,0,0,1-.07-.18s.12-.07.21-.08a.71.71,0,0,0,.22-.07.91.91,0,0,0,.24-.24c.09-.1.18-.21.25-.22l.34,0a3.7,3.7,0,0,0,1.16-.12c.14-.14.15-.78.15-1s.12-.33.37-.51L4.13,8a1.07,1.07,0,0,1,.57-.13.73.73,0,0,0,.47-.12,15.81,15.81,0,0,0,1-2.06c0-.11.57-.17.94-.18l.76,1.17h0C8,6.67,9.93,7,10.34,7a.54.54,0,0,0,.56-.28l0-.07a3.24,3.24,0,0,0,.22-.35,5.16,5.16,0,0,1,.29-.46c.17-.25.71-.32.71-.32h0c.07,0,1.6-.74,1.74-.83a13.29,13.29,0,0,0,1-1c.64-.62,1.5-1.47,1.59-1.51a.77.77,0,0,1,.36,0l.32,0c.34,0,.92-.76.93-.76S20.33.61,21.75.07c.24.16,2.64,1.79,3.11,2a.47.47,0,0,0,.17,0c.48,0,1-.68,1.16-.88A46,46,0,0,1,31.71.27c.08.12.49.75.57.83s0,0,.09,0a2.24,2.24,0,0,0,.94-.38h0s.18.16.24.25a.74.74,0,0,1,.09.12,4.22,4.22,0,0,0,1.27.14l.5,0a1.41,1.41,0,0,1,.63.17,6.67,6.67,0,0,0,.74.27,3.74,3.74,0,0,1,1.23.7c.11.08.21.16.31.22A14.76,14.76,0,0,1,40,5.7a17.7,17.7,0,0,0,2.79,2.64h1.11a10.67,10.67,0,0,1,1.22,2.81h0c.12.05,2.71,1.22,2.93,1.3,0,.13.07,1.4.08,2.19h0a10.35,10.35,0,0,1,.67,1.46c.11.41,1,.69,1.2.69h0a8.53,8.53,0,0,0,1.07-.87s.08-.06.27-.06A3.68,3.68,0,0,1,52,16c0,.37-.3,4.07-.32,4.32a4.8,4.8,0,0,1-1.19,1.39,1.65,1.65,0,0,0-.47.88.78.78,0,0,0-.05.14.12.12,0,0,0,0,.1s.11.14.86.14c.42,0,.87,0,1,0a14.34,14.34,0,0,1,.55,1.9c0,.07-.1.56-.18,1.09s-.15.92-.17,1a.06.06,0,0,0,0,.05,5,5,0,0,0,1.27.5c.59.19,1.19.35,1.28.37s.52.72.83,1.16c.15.22.27.41.35.51a.53.53,0,0,1,0,.59,1.38,1.38,0,0,0-.08.27,1.9,1.9,0,0,0,.18.77,3.87,3.87,0,0,1,.21.75c0,.37.7.41,1.32.41h.37c.09,0,.22.28.34.53a4.12,4.12,0,0,0,.33.59A9.55,9.55,0,0,0,61,34.75h0a2.74,2.74,0,0,0,.31-.26,4.7,4.7,0,0,1,.66-.56l.4-.2.5-.26a6.82,6.82,0,0,1,1,2.47.19.19,0,0,0,.06.16,1,1,0,0,0,.71.16c.26,0,.54,0,.79,0s.43,0,.52,0a22.92,22.92,0,0,1,3.08,1.63.25.25,0,0,0,.15,0,3.36,3.36,0,0,0,1.27-.67l0,0h0l.44.07a6.93,6.93,0,0,0,1.14.16h.15c.36,0,.56.47.7.85,0,.08.07.17.1.23.13.29-.94,1.36-1.4,1.81l-.16.17c-.37.37-.34,1.6-.34,1.72l-.73,1.67c-.77.79-1.94,2-2,2h0v0c0,.06.16.23.75.78a6.58,6.58,0,0,1,.71.7.11.11,0,0,0,.1.05c.26,0,1-.64,1.06-.7A9.92,9.92,0,0,1,73.43,48a.33.33,0,0,1,0,.12,3.89,3.89,0,0,1-.21,1.17s-.67.08-1.21.13-1.25.12-1.41.16-.24.16-.41.36-.42.55-.65.87a7.8,7.8,0,0,1-.64.83c-.28.27-.73.94-.66,1.1s.09.06.21,0a.75.75,0,0,1,.34-.09,1.26,1.26,0,0,1,.57.2l.21.12c.14.06.3.4.46.76.26.55.55,1.18,1,1.27a.47.47,0,0,0,.17,0,2.59,2.59,0,0,0,1.36-.7,2.46,2.46,0,0,1,.27-.2,5.05,5.05,0,0,1,1.33-.35.76.76,0,0,1,.33.22,1.5,1.5,0,0,0,.87.45h.1l.35,0a1.47,1.47,0,0,1,.78.27,7.84,7.84,0,0,1,1.17,2.18c.15.34.28.64.36.79.25.45,1,.49,1.69.49h.33l1.56,0,4.53.75.07,0a9.21,9.21,0,0,1,2,.58c.47.22.64,1.08.78,1.77,0,.24.1.46.15.64.2.64,1.32,2.56,2.2,2.68h.09c.72,0,1.67-1,2.17-1.66v0c.15-.18,1.62-2.52,2-3.24s.65-.91,1-1l.41-.17a11.74,11.74,0,0,0,2.35-1.12c.45-.41.87-.79,1.14-.81a1.17,1.17,0,0,1,.63.27,4,4,0,0,0,.41.23,23.82,23.82,0,0,1,2.78,2.45,5.23,5.23,0,0,0,2,.75,5.84,5.84,0,0,1,1.48.47,2.2,2.2,0,0,1,.64,1.55l0,0a4.36,4.36,0,0,0-1.68-.42,1.9,1.9,0,0,0-.87.38,1.77,1.77,0,0,1-.86.38,3,3,0,0,1-1.09-.27,2.94,2.94,0,0,0-1-.26l-.18,0c-.38.08-.36.48-.35.86a1.29,1.29,0,0,1-.09.7.47.47,0,0,1-.46.23l-.32,0-.38,0H101c-.36,0-.4.19-.43.33a.28.28,0,0,1-.12.2,1.45,1.45,0,0,0-.48,1c-.06.37.56,1,.79,1.27l.07.08a.61.61,0,0,0,.17.12,6.56,6.56,0,0,1,.9.69,1.45,1.45,0,0,1,.32,1.36h0a9.73,9.73,0,0,0,.74,1.33l.33.43c.34.44.79,1,1.17,1.5s1.65.6,2.24.63l.25,0a.34.34,0,0,1,.22.23.42.42,0,0,1,0,.4,4.73,4.73,0,0,0-.6,1,3.45,3.45,0,0,1-.44.74l-.14.2a5.63,5.63,0,0,0,.07,1.37c0,.24,0,.44,0,.51a26.36,26.36,0,0,1-1.93,3c-.13.12-2.23,1.8-2.39,1.93l-2,0s-.08,0-1,4.59c-.45,2.25-.9,4.53-.9,4.56h0c.68,1.56,1.68,3.91,1.69,4s0,.14,2.61,1.14c0,.25.4,2.8.6,4.3h0c.08.58.13,1,.13,1.06s0,.09.1.17a23.56,23.56,0,0,0,2.18,2l1.37.36,4,3.42.76,1.7,3.47,3.41h0l.84-.15,1.46.54a12.54,12.54,0,0,1,.54,1.72,5.71,5.71,0,0,1-.44.92,2.91,2.91,0,0,0-.22.44C116.84,116.4,116.1,116.63,115.51,116.82Z" transform="translate(38.84 0.11)"/></g></g></svg>