<svg xmlns="http://www.w3.org/2000/svg" viewBox="0 0 76.22 99.25"><defs><style>.cls-1{fill:#8c9aa8;}.cls-2{fill:#5c6a78;}.cls-3{fill:#4d5a68;}.cls-4{fill:#3c4a58;}</style></defs><g id="katman_2" data-name="katman 2"><g id="katman_1-2" data-name="katman 1"><g id="_4" data-name="4"><path class="cls-1" d="M38.11,22.14V99.25c-3.37-3-7.27-6.38-11.16-8.59-5.81-3.29-12.42-4.26-16.84-9.74A16.33,16.33,0,0,1,6.67,70.28c0-.59,0-1.19.09-1.78l-.55-.08a45.27,45.27,0,0,0-5.72-.57A.49.49,0,0,1,.11,67L13.16,50.6a.48.48,0,0,1,.85.22,60.2,60.2,0,0,0,2.6,10.89c.86,2.48,2.31,6.25,3.41,8.64a.5.5,0,0,1-.59.69c-1-.28-2.46-.62-4.17-1l-.48-.1-.66-.14-.64-.12a6.86,6.86,0,0,0,.77,2.24c.92,1.67,2.7,3.29,6,4.61,2.41,1,12.39,2.07,13.21-4,1.35-10.09.95-22.65,0-32.21A14.2,14.2,0,0,0,19.64,27.83h-.89V22.14h8.69a5,5,0,0,0,5-5v-2H38v7Z"/><path class="cls-2" d="M75.72,67.85a45.42,45.42,0,0,0-6,.61l-.28,0c0,.58.07,1.15.08,1.71A16.35,16.35,0,0,1,66.1,80.92c-4.41,5.48-11,6.45-16.83,9.74-3.89,2.21-7.79,5.62-11.16,8.59L38,22.14v-7h5.72v2a5,5,0,0,0,5,5h8.69v5.69h-.88A14.19,14.19,0,0,0,42.8,40.31c-1,9.56-1.36,22.12,0,32.21.82,6.09,10.8,5,13.21,4,3.3-1.34,5.08-3,6-4.67a6.55,6.55,0,0,0,.74-2.18c-1.42.29-2.76.57-3.88.83h0c-.81.18-1.52.35-2.07.51a.5.5,0,0,1-.58-.69c1.09-2.39,2.55-6.16,3.4-8.64a60.3,60.3,0,0,0,2.61-10.89.47.47,0,0,1,.84-.22L76.11,67A.5.5,0,0,1,75.72,67.85Z"/><path class="cls-3" d="M32.48,15.53v1.58a8.93,8.93,0,0,0,5.53,2h0V15.53Z"/><path class="cls-4" d="M38,15.53v3.59h.07a8.81,8.81,0,0,0,5.62-2V15.53Z"/><path class="cls-1" d="M33.13,8.87A5,5,0,0,1,38,3.9V0a8.87,8.87,0,0,0,0,17.74v-3.9A5,5,0,0,1,33.13,8.87Z"/><path class="cls-2" d="M38.11,0H38V3.9h.07a5,5,0,0,1,0,9.94H38v3.9h.07A8.87,8.87,0,0,0,38.11,0Z"/><path class="cls-3" d="M6.67,70.28c0-.59,0-1.19.09-1.78l-.55-.08v0s4.52.74,7.9,1.43l-.64-.12a6.86,6.86,0,0,0,.77,2.24Z"/><path class="cls-4" d="M69.46,68.5c0,.58.07,1.15.08,1.71L62,71.87a6.55,6.55,0,0,0,.74-2.18c-1.42.29-2.76.57-3.88.83,2.44-.76,10.86-2.14,10.86-2.14l0,.08Z"/></g></g></g></svg>