<svg xmlns="http://www.w3.org/2000/svg" viewBox="0 0 551.07 32.94"><defs><style>.cls-1{isolation:isolate;}.cls-2{fill:#54acc7;}.cls-3{mix-blend-mode:screen;}.cls-4{fill:#216666;}</style></defs><g class="cls-1"><g id="katman_2" data-name="katman 2"><g id="katman_1-2" data-name="katman 1"><rect class="cls-2" width="551.07" height="32.63"/><g class="cls-3"><path class="cls-4" d="M126.54,13.55a34.53,34.53,0,0,0,3.59.83c1.21.23,2.42.41,3.63.53a59.8,59.8,0,0,0,7.32.35,69,69,0,0,0,7.32-.5c1.21-.14,2.43-.32,3.64-.54s2.41-.44,3.62-.67a45.13,45.13,0,0,1-7.17,1.83,45.88,45.88,0,0,1-7.4.69,42.7,42.7,0,0,1-7.41-.54A29.79,29.79,0,0,1,126.54,13.55Z"/></g><g class="cls-3"><path class="cls-4" d="M122.48,21c.79.22,1.58.41,2.38.55s1.6.27,2.4.35a41.34,41.34,0,0,0,4.85.23,46.28,46.28,0,0,0,4.84-.33c.8-.09,1.61-.21,2.41-.36s1.6-.29,2.4-.44A30.91,30.91,0,0,1,137,22.19a31,31,0,0,1-4.9.46,28.72,28.72,0,0,1-4.9-.36A19.76,19.76,0,0,1,122.48,21Z"/></g><g class="cls-3"><path class="cls-4" d="M212,30.07a27.58,27.58,0,0,0,2.86.66c1,.18,1.93.32,2.9.43a49.36,49.36,0,0,0,5.83.27,54.38,54.38,0,0,0,5.84-.4c1-.11,1.94-.25,2.9-.42s1.93-.36,2.9-.54a37.3,37.3,0,0,1-5.73,1.46,37.53,37.53,0,0,1-5.9.55,35.39,35.39,0,0,1-5.91-.43A24.14,24.14,0,0,1,212,30.07Z"/></g><g class="cls-3"><path class="cls-4" d="M231.06,14.37a34.16,34.16,0,0,0,3.7.86c1.24.23,2.49.42,3.74.55a63.43,63.43,0,0,0,7.54.35,70.37,70.37,0,0,0,7.54-.51c1.25-.14,2.5-.33,3.75-.55s2.49-.46,3.74-.7a46.68,46.68,0,0,1-7.4,1.89,47.36,47.36,0,0,1-7.62.71,44.31,44.31,0,0,1-7.63-.55A31.18,31.18,0,0,1,231.06,14.37Z"/></g><g class="cls-3"><path class="cls-4" d="M226,22.63a37.15,37.15,0,0,0,3.89.9c1.3.24,2.62.44,3.94.58a67.69,67.69,0,0,0,7.93.37,75.25,75.25,0,0,0,7.93-.54c1.32-.15,2.63-.35,3.94-.58s2.63-.48,3.94-.73a48.48,48.48,0,0,1-7.78,2,51.23,51.23,0,0,1-8,.75,47.07,47.07,0,0,1-8-.58A32.74,32.74,0,0,1,226,22.63Z"/></g><g class="cls-3"><path class="cls-4" d="M14.24,3.58A36.26,36.26,0,0,0,18,4.44c1.24.23,2.49.42,3.75.55a61.62,61.62,0,0,0,7.56.35,68.23,68.23,0,0,0,7.56-.51c1.26-.14,2.51-.33,3.76-.55s2.5-.46,3.75-.7a46,46,0,0,1-7.41,1.89,47.73,47.73,0,0,1-7.65.71,44.66,44.66,0,0,1-7.66-.55A30.79,30.79,0,0,1,14.24,3.58Z"/></g><g class="cls-3"><path class="cls-4" d="M236.22,4.68a30.57,30.57,0,0,0,3.53.81c1.18.23,2.37.41,3.57.53a59.84,59.84,0,0,0,7.2.34,66.62,66.62,0,0,0,7.2-.49c1.2-.13,2.39-.32,3.58-.53s2.38-.43,3.57-.66a43.76,43.76,0,0,1-7.06,1.8,45.53,45.53,0,0,1-7.28.68,42.37,42.37,0,0,1-7.29-.53A29.26,29.26,0,0,1,236.22,4.68Z"/></g><g class="cls-3"><path class="cls-4" d="M210.26,10.66a33.06,33.06,0,0,0,3.38.78c1.13.21,2.27.38,3.41.5a56.66,56.66,0,0,0,6.89.32,63.58,63.58,0,0,0,6.88-.46q1.71-.2,3.42-.51c1.14-.17,2.27-.41,3.41-.63a43.37,43.37,0,0,1-6.75,1.72,43.72,43.72,0,0,1-7,.65,39.61,39.61,0,0,1-7-.51A27.81,27.81,0,0,1,210.26,10.66Z"/></g><g class="cls-3"><path class="cls-4" d="M92,4.48a24.38,24.38,0,0,0,2.56.59c.86.16,1.72.29,2.59.38a41.38,41.38,0,0,0,5.22.25,47.83,47.83,0,0,0,5.22-.36c.87-.09,1.74-.23,2.6-.38s1.73-.31,2.59-.48a32,32,0,0,1-5.12,1.31,33.34,33.34,0,0,1-5.28.49,30.18,30.18,0,0,1-5.29-.39A21.24,21.24,0,0,1,92,4.48Z"/></g><g class="cls-3"><path class="cls-4" d="M192.61,27.66a22.07,22.07,0,0,0,2.62.61c.87.17,1.76.3,2.64.39a43.14,43.14,0,0,0,5.33.25,50,50,0,0,0,5.33-.36c.88-.1,1.77-.24,2.65-.39s1.76-.32,2.64-.5A32.36,32.36,0,0,1,208.59,29a33.44,33.44,0,0,1-5.38.5,30.47,30.47,0,0,1-5.4-.39A21.71,21.71,0,0,1,192.61,27.66Z"/></g><g class="cls-3"><path class="cls-4" d="M156.39,4.11a32.48,32.48,0,0,0,3.61.83c1.22.23,2.44.42,3.66.54a60.52,60.52,0,0,0,7.37.35,67.4,67.4,0,0,0,7.37-.5c1.23-.14,2.45-.32,3.67-.54s2.43-.44,3.65-.68A45.63,45.63,0,0,1,178.49,6a47.56,47.56,0,0,1-7.45.69,43.34,43.34,0,0,1-7.46-.54A29.76,29.76,0,0,1,156.39,4.11Z"/></g><g class="cls-3"><path class="cls-4" d="M169.64,15.62a26.46,26.46,0,0,0,2.9.67c1,.18,1.94.33,2.92.43a48.39,48.39,0,0,0,5.89.28,55.5,55.5,0,0,0,5.9-.4c1-.11,1.95-.26,2.93-.43s1.94-.36,2.92-.55a36,36,0,0,1-5.78,1.48,37.11,37.11,0,0,1-6,.55,34.13,34.13,0,0,1-6-.43A24,24,0,0,1,169.64,15.62Z"/></g><g class="cls-3"><path class="cls-4" d="M180,4.45a27.83,27.83,0,0,0,3.1.72c1,.2,2.09.35,3.14.46a53.45,53.45,0,0,0,6.33.3,58.51,58.51,0,0,0,6.32-.43C200,5.38,201,5.22,202,5s2.09-.37,3.13-.58A38.59,38.59,0,0,1,199,6a40.07,40.07,0,0,1-6.39.6,37,37,0,0,1-6.4-.46A25.83,25.83,0,0,1,180,4.45Z"/></g><g class="cls-3"><path class="cls-4" d="M174.1,11.84a29,29,0,0,0,3.29.76c1.1.21,2.21.38,3.33.49a55.46,55.46,0,0,0,6.7.32,65.35,65.35,0,0,0,6.7-.45c1.11-.13,2.22-.3,3.33-.5s2.21-.4,3.32-.62a40.07,40.07,0,0,1-6.57,1.68,42.62,42.62,0,0,1-6.77.63,39.57,39.57,0,0,1-6.79-.49A26.8,26.8,0,0,1,174.1,11.84Z"/></g><g class="cls-3"><path class="cls-4" d="M77.13,31.13a23,23,0,0,0,2.58.6c.86.16,1.73.29,2.6.38a42,42,0,0,0,5.26.25A48.73,48.73,0,0,0,92.82,32c.87-.1,1.74-.23,2.61-.38s1.73-.32,2.6-.49a31.38,31.38,0,0,1-5.15,1.32,33.72,33.72,0,0,1-5.31.49,30.58,30.58,0,0,1-5.32-.38A21.52,21.52,0,0,1,77.13,31.13Z"/></g><g class="cls-3"><path class="cls-4" d="M67.51,27.43a28.9,28.9,0,0,0,3.16.73c1.06.2,2.13.36,3.21.47a51.4,51.4,0,0,0,6.45.3,60.74,60.74,0,0,0,6.45-.43c1.07-.12,2.14-.28,3.2-.47s2.13-.39,3.2-.6a40,40,0,0,1-6.33,1.62,40.52,40.52,0,0,1-6.51.6,37.67,37.67,0,0,1-6.54-.47A26.36,26.36,0,0,1,67.51,27.43Z"/></g><g class="cls-3"><path class="cls-4" d="M132.73,25.88a27.28,27.28,0,0,0,3.19.74c1.07.21,2.15.37,3.23.48a52.29,52.29,0,0,0,6.5.3,59,59,0,0,0,6.49-.44c1.08-.12,2.16-.28,3.23-.47s2.15-.39,3.23-.61a38.76,38.76,0,0,1-6.38,1.63,41.17,41.17,0,0,1-6.57.62,39.16,39.16,0,0,1-6.58-.48A25.75,25.75,0,0,1,132.73,25.88Z"/></g><g class="cls-3"><path class="cls-4" d="M68.39,13.88a21.93,21.93,0,0,0,2.64.61c.89.17,1.78.3,2.67.4a44,44,0,0,0,5.38.25,51,51,0,0,0,5.38-.37c.9-.1,1.79-.23,2.68-.39s1.77-.32,2.67-.5a33.24,33.24,0,0,1-5.28,1.35,34.19,34.19,0,0,1-5.44.51,32.1,32.1,0,0,1-5.45-.4A21.79,21.79,0,0,1,68.39,13.88Z"/></g><g class="cls-3"><path class="cls-4" d="M136,18.33a29.07,29.07,0,0,0,3.07.71c1,.19,2.06.35,3.1.46a54.47,54.47,0,0,0,6.25.29,59.64,59.64,0,0,0,6.26-.42c1-.12,2.07-.28,3.11-.46s2.06-.38,3.1-.58a40.35,40.35,0,0,1-6.14,1.57,39.3,39.3,0,0,1-6.32.58A36.24,36.24,0,0,1,142.1,20,25.56,25.56,0,0,1,136,18.33Z"/></g><g class="cls-3"><path class="cls-4" d="M62.71,19.41a31.33,31.33,0,0,0,3.42.79c1.15.22,2.3.39,3.46.51a58.07,58.07,0,0,0,7,.32,64.91,64.91,0,0,0,7-.47c1.16-.13,2.32-.3,3.47-.51s2.3-.42,3.46-.64a43.4,43.4,0,0,1-6.84,1.74,43.71,43.71,0,0,1-7.05.66,41.71,41.71,0,0,1-7.06-.51A28.49,28.49,0,0,1,62.71,19.41Z"/></g><g class="cls-3"><path class="cls-4" d="M164.39,21.59a26.85,26.85,0,0,0,2.92.68c1,.19,2,.33,3,.44a49.6,49.6,0,0,0,6,.27,54.41,54.41,0,0,0,6-.4c1-.11,2-.26,3-.44s2-.36,3-.55a36.76,36.76,0,0,1-5.86,1.5,39.31,39.31,0,0,1-6,.56,36,36,0,0,1-6-.44A23.84,23.84,0,0,1,164.39,21.59Z"/></g><g class="cls-3"><path class="cls-4" d="M17.51,26.05a32.82,32.82,0,0,0,3.63.83c1.22.24,2.45.42,3.68.55a60.91,60.91,0,0,0,7.4.34,67.77,67.77,0,0,0,7.39-.5c1.23-.14,2.46-.32,3.68-.54s2.45-.44,3.67-.68A46.26,46.26,0,0,1,39.7,27.9a47.94,47.94,0,0,1-7.47.7,44.77,44.77,0,0,1-7.5-.55A30,30,0,0,1,17.51,26.05Z"/></g><g class="cls-3"><path class="cls-4" d="M11.29,20.29a25.59,25.59,0,0,0,2.56.59c.86.16,1.73.29,2.6.38a43.33,43.33,0,0,0,5.22.24,48.18,48.18,0,0,0,5.23-.35c.87-.1,1.73-.23,2.59-.38s1.73-.32,2.6-.48A32.4,32.4,0,0,1,27,21.59a33.35,33.35,0,0,1-5.28.5,31.17,31.17,0,0,1-5.29-.39A21.32,21.32,0,0,1,11.29,20.29Z"/></g><g class="cls-3"><path class="cls-4" d="M11.87,17a34.74,34.74,0,0,0,3.73.87c1.26.23,2.52.42,3.78.55a62.61,62.61,0,0,0,7.62.36,71.87,71.87,0,0,0,7.61-.52c1.27-.14,2.53-.33,3.79-.56s2.51-.45,3.77-.7a46.65,46.65,0,0,1-7.46,1.91,48.46,48.46,0,0,1-7.7.71A44.37,44.37,0,0,1,19.29,19,30.61,30.61,0,0,1,11.87,17Z"/></g></g></g></g></svg>