<svg xmlns="http://www.w3.org/2000/svg" viewBox="0 0 23.59 34.52"><defs><style>.cls-1{fill:#d8c5b2;}.cls-2{fill:#ff0d00;}.cls-3{fill:#ffd600;}</style></defs><g id="katman_2" data-name="katman 2"><g id="katman_1-2" data-name="katman 1"><path class="cls-1" d="M11.79,0A11.79,11.79,0,0,0,0,11.79c0,6.52,11.79,22.73,11.79,22.73s11.8-16.21,11.8-22.73A11.79,11.79,0,0,0,11.79,0Zm0,17.41a5.28,5.28,0,1,1,5.28-5.28A5.28,5.28,0,0,1,11.79,17.41Z"/><path class="cls-2" d="M11.79,1.57A9.85,9.85,0,0,0,3.13,6.72H20.46A9.87,9.87,0,0,0,11.79,1.57Z"/><path class="cls-2" d="M11.79,21.32a9.88,9.88,0,0,0,8.67-5.14H3.13A9.86,9.86,0,0,0,11.79,21.32Z"/><path class="cls-3" d="M3.13,16.18H20.46a9.85,9.85,0,0,0,0-9.46H3.13a9.85,9.85,0,0,0,0,9.46Z"/></g></g></svg>