<svg xmlns="http://www.w3.org/2000/svg" viewBox="0 0 76.44 83.16"><defs><style>.cls-1{fill:#262626;}.cls-2{fill:#fff;}.cls-3{fill:#e6d8cd;}.cls-4{fill:#a2c629;}</style></defs><g id="katman_2" data-name="katman 2"><g id="katman_1-2" data-name="katman 1"><path class="cls-1" d="M72.26,44.67a2.2,2.2,0,0,1-.37.06c1.54-10.18-11-11.88-11-11.88s9.46-4,14.62,2.88C77.52,39.25,76,44,72.26,44.67Z"/><path class="cls-2" d="M76.32,38a6.53,6.53,0,0,0-6.6-3.5,8.91,8.91,0,0,0-7.08,5c-5.88,11.81-1.27,39.67-18.41,43.41-2.7.59-8.14-.54-8.14-.54a233,233,0,0,1-33.19-15s10.19,1.89,19.48-27.24S74.89,25.4,76.32,38Z"/><path class="cls-1" d="M42.26,83.16a37,37,0,0,1-6.19-.71,235.41,235.41,0,0,1-33.23-15,.12.12,0,0,1,0-.15.11.11,0,0,1,.13-.07s2.56.42,6.19-2.7c3.36-2.89,8.38-9.48,13.16-24.47,2.1-6.58,6-11.36,11.69-14.21a31.38,31.38,0,0,1,17.17-2.71,43.37,43.37,0,0,1,17.09,5.4c4.87,2.84,7.86,6.28,8.22,9.41a.12.12,0,0,1-.23.07,6.46,6.46,0,0,0-6.48-3.43,8.82,8.82,0,0,0-7,4.91c-2,4-2.76,9.71-3.59,15.8S57.48,67.59,55.4,72.69C53,78.5,49.38,81.87,44.26,83A9.41,9.41,0,0,1,42.26,83.16ZM3.41,67.5A233.11,233.11,0,0,0,36.13,82.22s5.43,1.11,8.08.53c5-1.1,8.63-4.42,11-10.15,2.07-5.07,2.92-11.3,3.74-17.32s1.63-11.88,3.61-15.87a9.07,9.07,0,0,1,7.18-5,6.66,6.66,0,0,1,6.38,3c-.66-2.89-3.52-6-8-8.6a43.07,43.07,0,0,0-17-5.36C44.32,22.72,28,23,22.49,40.14c-4.8,15.08-9.86,21.7-13.26,24.61C6.46,67.11,4.35,67.47,3.41,67.5Z"/><path class="cls-3" d="M46.77,75.28a3.39,3.39,0,0,1-2.34,3.1,4.66,4.66,0,0,0-5-2S45.93,71.51,46.77,75.28Z"/><path class="cls-1" d="M44.43,78.5a.1.1,0,0,1-.1,0,4.56,4.56,0,0,0-4.9-2,.1.1,0,0,1-.14-.06.11.11,0,0,1,0-.15c.18-.13,4.35-3.18,6.46-2.38a1.77,1.77,0,0,1,1.1,1.4v0a3.52,3.52,0,0,1-2.42,3.21Zm-4-2.41a5,5,0,0,1,4,2.15,3.24,3.24,0,0,0,2.18-2.94,1.51,1.51,0,0,0-.95-1.22c-1.61-.6-4.64,1.27-5.78,2A3.94,3.94,0,0,1,40.44,76.09Z"/><path class="cls-1" d="M46.77,75.28s-1.09-3-5.07.59a4.22,4.22,0,0,0-1.21,2.18,4.45,4.45,0,0,0,.44,3.24c1.51,2.54,4.68,1.21,4.68,1.21s-8.06,4-41.24-11.1A9.18,9.18,0,0,1,2.15,70c-4.95-4.29-.35-9.85,3.79-8.51,4.49,1.46,11.35,4.91,23.17,7.73S47.2,73.25,46.77,75.28Z"/><path class="cls-4" d="M14.63,0S10.51,1.12,9.3,2.64l5.48,3.53-4-1.48L16.9,9.35l-5.21-1.9s4.48,5.09,4,9.87S19,27.39,22.89,31.2l-7.72-4.57s.22,12.54,12.56,14.64h-4.8s2.24,2.83,8.29,3l-4.58,1.16,3.1,2.88,3.05,0-2.18,1.17s4,6,8.07,6.62c4.3-10,1.39-21.74,1.39-21.74l-3.34,3.15,3-5.69A63,63,0,0,0,32.53,14.4c-.26,6.68-1.46,10-1.46,10s.72-9.13-1.31-13.15C25.32,3,14.63,0,14.63,0Z"/><path class="cls-1" d="M40.08,63.7s.6-28-21.92-57.82C39,35.1,37.48,61.25,37.48,61.25Z"/><path class="cls-1" d="M21.3,14.43l-.06,0a43.89,43.89,0,0,0-7.08-3.11.12.12,0,0,1-.07-.15.12.12,0,0,1,.15-.08,45.85,45.85,0,0,1,7.12,3.14.12.12,0,0,1,0,.16A.11.11,0,0,1,21.3,14.43Z"/><path class="cls-1" d="M20.43,15.78l-.06,0a29.07,29.07,0,0,0-5.32-2.47.12.12,0,0,1-.08-.15.13.13,0,0,1,.15-.08,29,29,0,0,1,5.38,2.5.13.13,0,0,1,0,.17A.12.12,0,0,1,20.43,15.78Z"/><path class="cls-1" d="M26.44,14.88h0a.12.12,0,0,1-.09-.14,34.49,34.49,0,0,0,.76-7.08.12.12,0,0,1,.11-.12.12.12,0,0,1,.13.11,34.69,34.69,0,0,1-.77,7.14A.12.12,0,0,1,26.44,14.88Z"/><path class="cls-1" d="M34.26,30.34H34.2a.12.12,0,0,1-.05-.16,29.58,29.58,0,0,0,2.58-7,.11.11,0,0,1,.14-.09.12.12,0,0,1,.09.14,29.92,29.92,0,0,1-2.6,7.11A.11.11,0,0,1,34.26,30.34Z"/><path class="cls-1" d="M34.08,27l0,0a.12.12,0,0,1-.06-.16,32.06,32.06,0,0,0,2-5.48.11.11,0,0,1,.14-.08.12.12,0,0,1,.09.14,33,33,0,0,1-2,5.53A.14.14,0,0,1,34.08,27Z"/><path class="cls-1" d="M27.14,39.17h0c-6.76-1.8-9.83-4.9-9.86-4.93a.12.12,0,0,1,0-.16.11.11,0,0,1,.17,0s3.06,3.08,9.75,4.86a.12.12,0,0,1,.09.14A.14.14,0,0,1,27.14,39.17Z"/><path class="cls-1" d="M31.75,51.17a.12.12,0,0,1-.11-.07.12.12,0,0,1,.06-.16l2.18-1a.12.12,0,1,1,.1.21l-2.18,1Z"/><path class="cls-1" d="M39.19,45.49a.11.11,0,0,1-.07,0,.11.11,0,0,1,0-.16,9.92,9.92,0,0,0,1.76-4.23A.12.12,0,0,1,41,41a.12.12,0,0,1,.1.13,9.84,9.84,0,0,1-1.79,4.35A.14.14,0,0,1,39.19,45.49Z"/><path class="cls-1" d="M26.16,27.14h0a39,39,0,0,1-9.68-4.93.11.11,0,0,1,0-.16.11.11,0,0,1,.16,0,39.81,39.81,0,0,0,9.63,4.89.12.12,0,0,1,.07.15A.13.13,0,0,1,26.16,27.14Z"/></g></g></svg>