<svg xmlns="http://www.w3.org/2000/svg" viewBox="0 0 47.54 54.99"><defs><style>.cls-1{isolation:isolate;}.cls-2{fill:#cbc9d0;opacity:0.75;}.cls-12,.cls-2,.cls-7{mix-blend-mode:multiply;}.cls-3{fill:#fff;}.cls-4{fill:none;stroke:#a2c62c;stroke-width:0.5px;}.cls-10,.cls-11,.cls-4,.cls-5,.cls-8,.cls-9{stroke-miterlimit:10;}.cls-5{fill:#f6a873;}.cls-10,.cls-11,.cls-5,.cls-8,.cls-9{stroke:#000;stroke-width:0.1px;}.cls-6{mix-blend-mode:screen;}.cls-8{fill:#504a4b;}.cls-9{fill:#a2c629;}.cls-10{fill:#c9d300;}.cls-11{fill:#829b1b;}.cls-12{opacity:0.48;}.cls-13{fill:#0066b3;}</style></defs><g class="cls-1"><g id="katman_2" data-name="katman 2"><g id="katman_1-2" data-name="katman 1"><rect class="cls-2" x="5.94" y="1.09" width="41.6" height="53.9"/><rect class="cls-3" x="6.42" y="1.55" width="40.52" height="52.79"/><path class="cls-4" d="M37.87,49.26s-8.19,2.31-7.94-.72-.77,3.78-4.52,2.25S26.68,40.1,26.68,40.1s-12.9-1.83-11.08,0"/><path class="cls-5" d="M31.7,39.92a7.5,7.5,0,0,1,1.21-.41l2.53,3.4,2.43,6.63L32,45.45l-2.7-3.62A5.51,5.51,0,0,1,31.7,39.92Z"/><g class="cls-6"><path class="cls-5" d="M36.3,45.79c-.47-.83-1-1.65-1.45-2.47-.75-1.25-1.49-2.51-2.3-3.72l.36-.09,2.53,3.4,1.39,3.79Z"/></g><g class="cls-7"><path class="cls-5" d="M29.91,41.1c.4.51.8,1,1.21,1.5.58.7,1.18,1.38,1.81,2s1.3,1.27,2,1.9c1,1,2,2,3,3L32,45.45l-2.7-3.62A5.33,5.33,0,0,1,29.91,41.1Z"/></g><path class="cls-8" d="M36.09,47.19a1,1,0,0,1,.9-.06l.88,2.41-2.44-1.7A1.48,1.48,0,0,1,36.09,47.19Z"/><g class="cls-7"><path class="cls-8" d="M35.43,47.84a1.46,1.46,0,0,1,.61-.62,14.13,14.13,0,0,1,1.69,2.22Z"/></g><path class="cls-9" d="M2.12.28,35,44.42a5.88,5.88,0,0,0-.76-.55,2.93,2.93,0,0,0-1.17-.48.12.12,0,0,0-.14.13,4.34,4.34,0,0,0,.3,1.41L.78,1.36A3.63,3.63,0,0,1,2.12.28Z"/><path class="cls-10" d="M3.63.08,35.44,42.91h0a2.79,2.79,0,0,0-.9-.4c-.09,0-.18.08-.14.16a18.65,18.65,0,0,1,.66,1.76l0,0L2.12.28A2.74,2.74,0,0,1,3.63.08Z"/><path class="cls-11" d="M.78,1.36,33.27,44.93v0A6.27,6.27,0,0,0,32,44.29a.12.12,0,0,0-.17.12,4.11,4.11,0,0,0,.07.86L.06,2.64A5.11,5.11,0,0,1,.78,1.36Z"/><g class="cls-12"><path class="cls-13" d="M3.81.4,4.29,1A6.8,6.8,0,0,0,.77,3.6L.37,3S1.86.61,3.81.4Z"/></g></g></g></g></svg>