<svg xmlns="http://www.w3.org/2000/svg" xmlns:xlink="http://www.w3.org/1999/xlink" viewBox="0 0 23.63 34.52"><defs><style>.cls-1{fill:none;}.cls-2{fill:#d8c5b2;}.cls-3{clip-path:url(#clip-path);}.cls-4{fill:url(#linear-gradient);}.cls-5{fill:#fff;}</style><clipPath id="clip-path"><circle class="cls-1" cx="11.79" cy="11.79" r="9.53" transform="translate(-0.12 0.12) rotate(-0.58)"/></clipPath><linearGradient id="linear-gradient" x1="0.57" y1="11.89" x2="23.63" y2="11.89" gradientUnits="userSpaceOnUse"><stop offset="0" stop-color="#cf1400"/><stop offset="1" stop-color="#cf1400"/></linearGradient></defs><g id="katman_2" data-name="katman 2"><g id="katman_1-2" data-name="katman 1"><path class="cls-2" d="M11.79,0A11.79,11.79,0,0,0,0,11.79c0,6.52,11.79,22.73,11.79,22.73s11.8-16.21,11.8-22.73A11.79,11.79,0,0,0,11.79,0Zm0,17.41a5.28,5.28,0,1,1,5.28-5.28A5.28,5.28,0,0,1,11.79,17.41Z"/><g class="cls-3"><polygon class="cls-4" points="0.57 2.01 0.57 8.58 0.57 8.62 0.57 15.15 0.57 15.19 0.57 21.76 23.63 21.76 23.63 15.19 23.63 15.15 23.63 8.62 23.63 8.58 23.63 2.01 0.57 2.01"/></g><polygon class="cls-5" points="14.63 10.15 15.37 11.16 16.56 10.78 15.83 11.79 16.56 12.8 15.37 12.42 14.63 13.43 14.63 12.18 13.44 11.79 14.63 11.4 14.63 10.15"/><path class="cls-5" d="M11.47,14.65A2.86,2.86,0,1,1,14,10.38a3.61,3.61,0,1,0,0,2.82A2.86,2.86,0,0,1,11.47,14.65Z"/></g></g></svg>