<svg xmlns="http://www.w3.org/2000/svg" viewBox="0 0 812.33 12.24"><defs><style>.cls-1{isolation:isolate;}.cls-2{fill:#bfa58b;}.cls-3{fill:#e5e5e5;}.cls-4{fill:#fafafa;}.cls-5{fill:#a4a4a5;opacity:0.44;mix-blend-mode:multiply;}.cls-6{fill:#898989;}.cls-7{fill:#828281;}.cls-8{fill:#bbe6ff;}</style></defs><g class="cls-1"><g id="katman_2" data-name="katman 2"><g id="katman_1-2" data-name="katman 1"><polygon class="cls-2" points="662.94 2.96 792.71 2.96 812.33 12.24 662.94 12.24 662.94 2.96"/><rect class="cls-3" x="662.94" y="0.58" width="6.83" height="2.38"/><rect class="cls-4" x="669.77" y="0.58" width="2.27" height="2.38"/><rect class="cls-3" x="700.6" y="0.58" width="6.83" height="2.38"/><rect class="cls-4" x="707.43" y="0.58" width="2.27" height="2.38"/><rect class="cls-3" x="675.45" y="0.58" width="6.83" height="2.38"/><rect class="cls-4" x="682.28" y="0.58" width="2.27" height="2.38"/><rect class="cls-3" x="688.08" y="0.58" width="6.83" height="2.38"/><rect class="cls-4" x="694.91" y="0.58" width="2.27" height="2.38"/><path class="cls-5" d="M684.2,10.84v-.41h5v1.23h2.39V2.38h-9.8v9.28h2.39Zm0-7.16V3.27h5V6h-5Zm0,3.58V6.85h5V9.53h-5Z"/><rect class="cls-6" x="685.27" y="2.01" width="6.07" height="2.31"/><rect class="cls-2" x="537.05" y="2.96" width="129.77" height="9.29"/><rect class="cls-7" x="537.05" y="1.01" width="129.77" height="1.95"/><rect class="cls-8" x="537.05" y="6.62" width="129.78" height="1.95"/><rect class="cls-3" x="537.05" y="0.58" width="6.83" height="2.38"/><rect class="cls-4" x="543.87" y="0.58" width="2.27" height="2.38"/><rect class="cls-3" x="574.71" y="0.58" width="6.83" height="2.38"/><rect class="cls-4" x="581.54" y="0.58" width="2.27" height="2.38"/><rect class="cls-3" x="587.22" y="0.58" width="6.83" height="2.38"/><rect class="cls-4" x="594.05" y="0.58" width="2.27" height="2.38"/><rect class="cls-3" x="599.74" y="0.58" width="6.83" height="2.38"/><rect class="cls-4" x="606.57" y="0.58" width="2.27" height="2.38"/><rect class="cls-3" x="612.37" y="0.58" width="6.83" height="2.38"/><rect class="cls-4" x="619.2" y="0.58" width="2.27" height="2.38"/><rect class="cls-3" x="624.88" y="0.58" width="6.83" height="2.38"/><rect class="cls-4" x="631.71" y="0.58" width="2.27" height="2.38"/><rect class="cls-3" x="637.27" y="0.58" width="6.83" height="2.38"/><rect class="cls-4" x="644.1" y="0.58" width="2.27" height="2.38"/><rect class="cls-3" x="649.79" y="0.58" width="6.83" height="2.38"/><rect class="cls-4" x="656.62" y="0.58" width="2.27" height="2.38"/><rect class="cls-3" x="662.42" y="0.58" width="4.39" height="2.38"/><rect class="cls-5" x="537.05" y="8.58" width="129.77" height="0.79"/><rect class="cls-3" x="549.56" y="0.58" width="6.83" height="2.38"/><rect class="cls-4" x="556.39" y="0.58" width="2.27" height="2.38"/><rect class="cls-3" x="562.19" y="0.58" width="6.83" height="2.38"/><rect class="cls-4" x="569.02" y="0.58" width="2.27" height="2.38"/><polygon class="cls-2" points="599.23 2.37 599.23 11.66 742.4 11.66 742.4 8.71 739.78 7.47 729 2.37 599.23 2.37"/><path class="cls-8" d="M599.23,6H740.07a.77.77,0,0,1,.77.77v.42a.76.76,0,0,1-.76.76H599.23a0,0,0,0,1,0,0V6A0,0,0,0,1,599.23,6Z"/><polygon class="cls-5" points="599.23 7.99 599.23 8.79 738.27 8.79 740.1 7.99 599.23 7.99"/><rect class="cls-2" x="473.34" y="2.38" width="129.77" height="9.29"/><rect class="cls-7" x="473.34" y="0.42" width="129.77" height="1.95"/><rect class="cls-8" x="473.34" y="6.04" width="129.78" height="1.95"/><rect class="cls-3" x="473.34" width="6.83" height="2.38"/><rect class="cls-4" x="480.17" width="2.27" height="2.38"/><rect class="cls-3" x="511" width="6.83" height="2.38"/><rect class="cls-4" x="517.83" width="2.27" height="2.38"/><rect class="cls-3" x="523.52" width="6.83" height="2.38"/><rect class="cls-4" x="530.34" width="2.27" height="2.38"/><rect class="cls-3" x="536.03" width="6.83" height="2.38"/><rect class="cls-4" x="542.86" width="2.27" height="2.38"/><rect class="cls-3" x="548.66" width="6.83" height="2.38"/><rect class="cls-4" x="555.49" width="2.27" height="2.38"/><rect class="cls-3" x="561.18" width="6.83" height="2.38"/><rect class="cls-4" x="568.01" width="2.27" height="2.38"/><rect class="cls-3" x="573.57" width="6.83" height="2.38"/><rect class="cls-4" x="580.4" width="2.27" height="2.38"/><rect class="cls-3" x="586.08" width="6.83" height="2.38"/><rect class="cls-4" x="592.91" width="2.27" height="2.38"/><rect class="cls-3" x="598.71" width="4.39" height="2.38"/><rect class="cls-5" x="473.34" y="7.99" width="129.77" height="0.79"/><rect class="cls-3" x="485.85" width="6.83" height="2.38"/><rect class="cls-4" x="492.68" width="2.27" height="2.38"/><rect class="cls-3" x="498.49" width="6.83" height="2.38"/><rect class="cls-4" x="505.31" width="2.27" height="2.38"/><rect class="cls-2" x="356.97" y="2.38" width="118.94" height="9.29"/><rect class="cls-7" x="356.97" y="0.42" width="118.94" height="1.95"/><rect class="cls-8" x="356.97" y="6.04" width="118.95" height="1.95"/><rect class="cls-3" x="383.8" width="6.83" height="2.38"/><rect class="cls-4" x="390.63" width="2.27" height="2.38"/><rect class="cls-3" x="396.31" width="6.83" height="2.38"/><rect class="cls-4" x="403.14" width="2.27" height="2.38"/><rect class="cls-3" x="408.83" width="6.83" height="2.38"/><rect class="cls-4" x="415.66" width="2.27" height="2.38"/><rect class="cls-3" x="421.46" width="6.83" height="2.38"/><rect class="cls-4" x="428.29" width="2.27" height="2.38"/><rect class="cls-3" x="433.98" width="6.83" height="2.38"/><rect class="cls-4" x="440.81" width="2.27" height="2.38"/><rect class="cls-3" x="446.37" width="6.83" height="2.38"/><rect class="cls-4" x="453.2" width="2.27" height="2.38"/><rect class="cls-3" x="458.88" width="6.83" height="2.38"/><rect class="cls-4" x="465.71" width="2.27" height="2.38"/><rect class="cls-3" x="471.51" width="4.39" height="2.38"/><rect class="cls-5" x="356.97" y="7.99" width="118.95" height="0.79"/><rect class="cls-3" x="358.65" width="6.83" height="2.38"/><rect class="cls-4" x="365.48" width="2.27" height="2.38"/><rect class="cls-3" x="371.29" width="6.83" height="2.38"/><rect class="cls-4" x="378.12" width="2.27" height="2.38"/><rect class="cls-2" x="237.7" y="2.38" width="118.94" height="9.29"/><rect class="cls-7" x="237.7" y="0.42" width="118.94" height="1.95"/><rect class="cls-8" x="237.7" y="6.04" width="118.95" height="1.95"/><rect class="cls-3" x="264.54" width="6.83" height="2.38"/><rect class="cls-4" x="271.37" width="2.27" height="2.38"/><rect class="cls-3" x="277.05" width="6.83" height="2.38"/><rect class="cls-4" x="283.88" width="2.27" height="2.38"/><rect class="cls-3" x="289.57" width="6.83" height="2.38"/><rect class="cls-4" x="296.4" width="2.27" height="2.38"/><rect class="cls-3" x="302.2" width="6.83" height="2.38"/><rect class="cls-4" x="309.03" width="2.27" height="2.38"/><rect class="cls-3" x="314.71" width="6.83" height="2.38"/><rect class="cls-4" x="321.54" width="2.27" height="2.38"/><rect class="cls-3" x="327.1" width="6.83" height="2.38"/><rect class="cls-4" x="333.93" width="2.27" height="2.38"/><rect class="cls-3" x="339.62" width="6.83" height="2.38"/><rect class="cls-4" x="346.45" width="2.27" height="2.38"/><rect class="cls-3" x="352.25" width="4.39" height="2.38"/><rect class="cls-5" x="237.7" y="7.99" width="118.95" height="0.79"/><rect class="cls-3" x="239.39" width="6.83" height="2.38"/><rect class="cls-4" x="246.22" width="2.27" height="2.38"/><rect class="cls-3" x="252.02" width="6.83" height="2.38"/><rect class="cls-4" x="258.85" width="2.27" height="2.38"/><rect class="cls-2" x="118.98" y="2.38" width="118.94" height="9.29"/><rect class="cls-7" x="118.98" y="0.42" width="118.94" height="1.95"/><rect class="cls-8" x="118.98" y="6.04" width="118.95" height="1.95"/><rect class="cls-3" x="145.81" width="6.83" height="2.38"/><rect class="cls-4" x="152.64" width="2.27" height="2.38"/><rect class="cls-3" x="158.33" width="6.83" height="2.38"/><rect class="cls-4" x="165.16" width="2.27" height="2.38"/><rect class="cls-3" x="170.84" width="6.83" height="2.38"/><rect class="cls-4" x="177.67" width="2.27" height="2.38"/><rect class="cls-3" x="183.47" width="6.83" height="2.38"/><rect class="cls-4" x="190.3" width="2.27" height="2.38"/><rect class="cls-3" x="195.99" width="6.83" height="2.38"/><rect class="cls-4" x="202.82" width="2.27" height="2.38"/><rect class="cls-3" x="208.38" width="6.83" height="2.38"/><rect class="cls-4" x="215.21" width="2.27" height="2.38"/><rect class="cls-3" x="220.9" width="6.83" height="2.38"/><rect class="cls-4" x="227.73" width="2.27" height="2.38"/><rect class="cls-3" x="233.53" width="4.39" height="2.38"/><rect class="cls-5" x="118.98" y="7.99" width="118.95" height="0.79"/><rect class="cls-3" x="120.67" width="6.83" height="2.38"/><rect class="cls-4" x="127.5" width="2.27" height="2.38"/><rect class="cls-3" x="133.3" width="6.83" height="2.38"/><rect class="cls-4" x="140.13" width="2.27" height="2.38"/><rect class="cls-2" y="2.38" width="118.94" height="9.29"/><rect class="cls-7" y="0.42" width="118.94" height="1.95"/><rect class="cls-8" y="6.04" width="118.95" height="1.95"/><rect class="cls-3" x="26.84" width="6.83" height="2.38"/><rect class="cls-4" x="33.66" width="2.27" height="2.38"/><rect class="cls-3" x="39.35" width="6.83" height="2.38"/><rect class="cls-4" x="46.18" width="2.27" height="2.38"/><rect class="cls-3" x="51.86" width="6.83" height="2.38"/><rect class="cls-4" x="58.69" width="2.27" height="2.38"/><rect class="cls-3" x="64.5" width="6.83" height="2.38"/><rect class="cls-4" x="71.33" width="2.27" height="2.38"/><rect class="cls-3" x="77.01" width="6.83" height="2.38"/><rect class="cls-4" x="83.84" width="2.27" height="2.38"/><rect class="cls-3" x="89.4" width="6.83" height="2.38"/><rect class="cls-4" x="96.23" width="2.27" height="2.38"/><rect class="cls-3" x="101.92" width="6.83" height="2.38"/><rect class="cls-4" x="108.75" width="2.27" height="2.38"/><rect class="cls-3" x="114.55" width="4.39" height="2.38"/><rect class="cls-5" y="7.99" width="118.95" height="0.79"/><rect class="cls-3" x="1.69" width="6.83" height="2.38"/><rect class="cls-4" x="8.52" width="2.27" height="2.38"/><rect class="cls-3" x="14.32" width="6.83" height="2.38"/><rect class="cls-4" x="21.15" width="2.27" height="2.38"/></g></g></g></svg>