<svg xmlns="http://www.w3.org/2000/svg" xmlns:xlink="http://www.w3.org/1999/xlink" viewBox="0 0 164 120.18"><defs><style>.cls-1{isolation:isolate;}.cls-2{fill:#171925;}.cls-3{fill:#242635;}.cls-4{fill:#6a686a;}.cls-5{fill:#434243;}.cls-6{fill:#7e7d80;}.cls-7{fill:#a4a2a3;}.cls-8{fill:#59595b;}.cls-9{fill:#9e9e9d;}.cls-10{fill:#797a7e;}.cls-11{fill:#d2d2d2;}.cls-12{fill:#a2c629;}.cls-13{fill:#879e00;}.cls-14{fill:#6e6f71;}.cls-15{fill:#818183;}.cls-16{fill:url(#linear-gradient);}.cls-17{fill:#fff;}.cls-18,.cls-22{fill:#dfdfdf;}.cls-19{fill:#768200;}.cls-20{fill:#1167b1;}.cls-21{fill:#03476d;}.cls-22{mix-blend-mode:multiply;}</style><linearGradient id="linear-gradient" x1="-3527.42" y1="83.18" x2="-3505.61" y2="83.18" gradientTransform="matrix(-1, 0, 0, 1, -3447.44, 0)" gradientUnits="userSpaceOnUse"><stop offset="0" stop-color="#fff"/><stop offset="1"/></linearGradient></defs><g class="cls-1"><g id="katman_2" data-name="katman 2"><g id="katman_1-2" data-name="katman 1"><polygon class="cls-2" points="118.18 98.09 119.05 98.67 118.18 102 112.63 103.24 92.86 113.19 80.97 113.6 82.51 83.43 92.27 78.3 114.42 87.56 118.18 98.09"/><polygon class="cls-2" points="158.87 69.19 158.89 70.91 157.73 71.66 143.19 73.33 141.9 75.57 120.84 78.82 112.93 78.52 113.06 74.74 158.87 69.19"/><polygon class="cls-2" points="162.64 69.52 162.64 70.97 161.89 71.52 162.64 72.01 163.59 78.61 162.94 79.45 155.67 79.45 154.53 70.37 162.64 69.52"/><ellipse class="cls-2" cx="152.33" cy="79.76" rx="2.11" ry="7.41"/><rect class="cls-2" x="152.33" y="72.36" width="6.92" height="14.81"/><ellipse class="cls-3" cx="159.26" cy="79.76" rx="2.11" ry="7.41"/><path class="cls-4" d="M157.54,79.76c0,3,.74,5.48,1.65,5.48s1.66-2.45,1.66-5.48-.74-5.47-1.66-5.47S157.54,76.74,157.54,79.76Z"/><path class="cls-5" d="M158.23,79.76c0,2.47.55,4.46,1.21,4.46s1.21-2,1.21-4.46-.54-4.45-1.21-4.45S158.23,77.3,158.23,79.76Z"/><path class="cls-4" d="M158.51,79.76c0,2.08.32,3.76.72,3.76a.18.18,0,0,0,.11,0h0c.34-.29.6-1.84.6-3.71,0-.27,0-.53,0-.79s0-.53-.05-.77a4.36,4.36,0,0,0-.52-2.13h0l0,0a.18.18,0,0,0-.1,0c-.23,0-.43.56-.56,1.44h0a12.54,12.54,0,0,0-.13,1.37C158.52,79.12,158.51,79.44,158.51,79.76Z"/><path class="cls-4" d="M159.33,76.05v7.42h0l1.12-.91V77l-1.11-.9h0Z"/><path class="cls-6" d="M158.54,78.82a2,2,0,0,1,.79,0,.86.86,0,0,1,.56.45l0-.33c0-.27,0-.53-.05-.77a4.58,4.58,0,0,1-.55-.19,1.45,1.45,0,0,1-.66-.56h0A12.54,12.54,0,0,0,158.54,78.82Z"/><path class="cls-7" d="M159.75,79.76c0,1.55.32,2.8.72,2.8s.72-1.25.72-2.8-.32-2.79-.72-2.79S159.75,78.22,159.75,79.76Z"/><path class="cls-4" d="M160.05,79.76a4.35,4.35,0,0,0,.3,1.84c.07.11.14.17.21.17.29,0,.52-.9.52-2s-.23-2-.52-2c-.07,0-.14.06-.21.17A4.38,4.38,0,0,0,160.05,79.76Z"/><path class="cls-5" d="M160.05,79.76a4.35,4.35,0,0,0,.3,1.84c.27-.1.47-.88.47-1.84s-.2-1.74-.47-1.84A4.38,4.38,0,0,0,160.05,79.76Z"/><path class="cls-5" d="M159.18,74.8c0,.17.07.3.15.3s.15-.13.15-.3-.06-.3-.15-.3S159.18,74.64,159.18,74.8Z"/><path class="cls-5" d="M158.59,75.23c0,.17.06.3.15.3s.15-.13.15-.3-.07-.29-.15-.29S158.59,75.07,158.59,75.23Z"/><path class="cls-5" d="M158.21,76c0,.17.07.3.15.3s.15-.13.15-.3-.07-.29-.15-.29S158.21,75.81,158.21,76Z"/><path class="cls-5" d="M157.93,76.92c0,.17.07.3.15.3s.15-.13.15-.3-.06-.29-.15-.29S157.93,76.76,157.93,76.92Z"/><path class="cls-5" d="M157.78,78c0,.16.07.3.15.3s.15-.14.15-.3-.07-.3-.15-.3S157.78,77.86,157.78,78Z"/><path class="cls-5" d="M157.73,79.15c0,.16.07.3.15.3s.15-.14.15-.3-.07-.3-.15-.3S157.73,79,157.73,79.15Z"/><path class="cls-5" d="M159.16,84.69c0-.17.07-.3.15-.3s.15.13.15.3-.07.3-.15.3S159.16,84.85,159.16,84.69Z"/><path class="cls-5" d="M159.77,84.31c0-.13,0-.24.12-.24s.13.11.13.24-.06.24-.13.24S159.77,84.45,159.77,84.31Z"/><path class="cls-5" d="M160.09,83.65c0-.1,0-.19.1-.19s.1.09.1.19,0,.2-.1.2S160.09,83.76,160.09,83.65Z"/><path class="cls-5" d="M160.31,83.09c0-.08,0-.15.08-.15s.08.07.08.15,0,.16-.08.16S160.31,83.18,160.31,83.09Z"/><path class="cls-5" d="M159.81,75.29c0,.13.06.24.13.24s.12-.11.12-.24-.05-.24-.12-.24S159.81,75.16,159.81,75.29Z"/><path class="cls-5" d="M160.14,76c0,.1,0,.19.1.19s.1-.09.1-.19-.05-.2-.1-.2S160.14,75.84,160.14,76Z"/><path class="cls-5" d="M160.36,76.51c0,.09,0,.16.08.16s.08-.07.08-.16,0-.16-.08-.16S160.36,76.42,160.36,76.51Z"/><path class="cls-5" d="M158.56,84.26c0-.17.07-.3.16-.3s.15.13.15.3-.07.29-.15.29S158.56,84.42,158.56,84.26Z"/><path class="cls-5" d="M158.19,83.52c0-.17.06-.3.15-.3s.15.13.15.3-.07.29-.15.29S158.19,83.68,158.19,83.52Z"/><path class="cls-5" d="M157.91,82.57c0-.17.07-.3.15-.3s.15.13.15.3-.06.29-.15.29S157.91,82.73,157.91,82.57Z"/><path class="cls-5" d="M157.76,81.47c0-.16.06-.3.15-.3s.15.14.15.3-.07.3-.15.3S157.76,81.63,157.76,81.47Z"/><path class="cls-5" d="M157.71,80.43c0-.17.07-.3.15-.3s.15.13.15.3-.07.29-.15.29S157.71,80.59,157.71,80.43Z"/><path class="cls-2" d="M145.56,81c0,4.36,1,7.9,2.25,7.9s2.25-3.54,2.25-7.9-1-7.91-2.25-7.91S145.56,76.63,145.56,81Z"/><rect class="cls-2" x="147.81" y="73.09" width="7.39" height="15.81"/><ellipse class="cls-3" cx="155.2" cy="81" rx="2.25" ry="7.9"/><ellipse class="cls-4" cx="155.13" cy="81" rx="1.77" ry="5.84"/><path class="cls-5" d="M154.11,81c0,2.63.57,4.76,1.29,4.76s1.29-2.13,1.29-4.76-.58-4.76-1.29-4.76S154.11,78.37,154.11,81Z"/><path class="cls-4" d="M154.4,81c0,2.21.35,4,.77,4a.19.19,0,0,0,.12,0h0c.37-.31.65-2,.65-4,0-.29,0-.58,0-.85s0-.56,0-.82a4.72,4.72,0,0,0-.56-2.27h0l0,0a.25.25,0,0,0-.11,0c-.25,0-.46.6-.6,1.53h0a11.68,11.68,0,0,0-.14,1.46C154.41,80.31,154.4,80.65,154.4,81Z"/><path class="cls-4" d="M155.28,77V85h0l1.2-1V78l-1.18-1h0Z"/><path class="cls-6" d="M154.43,80a1.94,1.94,0,0,1,.85,0,1,1,0,0,1,.6.47l0-.35c0-.29,0-.56,0-.82a3.57,3.57,0,0,1-.59-.21,1.5,1.5,0,0,1-.71-.6h0A11.68,11.68,0,0,0,154.43,80Z"/><path class="cls-7" d="M155.72,81c0,1.64.35,3,.77,3s.77-1.34.77-3-.34-3-.77-3S155.72,79.35,155.72,81Z"/><path class="cls-4" d="M156,81a4.48,4.48,0,0,0,.33,2c.07.12.14.18.22.18.31,0,.56-1,.56-2.14s-.25-2.15-.56-2.15c-.08,0-.15.06-.22.18A4.54,4.54,0,0,0,156,81Z"/><path class="cls-5" d="M156,81a4.48,4.48,0,0,0,.33,2c.28-.11.49-.94.49-2s-.21-1.86-.49-2A4.54,4.54,0,0,0,156,81Z"/><ellipse class="cls-5" cx="155.28" cy="75.7" rx="0.16" ry="0.32"/><path class="cls-5" d="M154.48,76.16c0,.18.07.32.16.32s.17-.14.17-.32-.08-.31-.17-.31S154.48,76,154.48,76.16Z"/><path class="cls-5" d="M154.08,77c0,.18.07.32.16.32s.16-.14.16-.32-.07-.32-.16-.32S154.08,76.78,154.08,77Z"/><path class="cls-5" d="M153.78,78c0,.17.07.31.16.31s.17-.14.17-.31-.08-.32-.17-.32S153.78,77.79,153.78,78Z"/><ellipse class="cls-5" cx="153.78" cy="79.14" rx="0.16" ry="0.32"/><ellipse class="cls-5" cx="153.73" cy="80.34" rx="0.16" ry="0.32"/><ellipse class="cls-5" cx="155.25" cy="86.25" rx="0.16" ry="0.32"/><ellipse class="cls-5" cx="155.88" cy="85.85" rx="0.13" ry="0.26"/><path class="cls-5" d="M156.09,85.15c0-.11,0-.21.11-.21s.1.1.1.21-.05.21-.1.21S156.09,85.26,156.09,85.15Z"/><path class="cls-5" d="M156.32,84.55c0-.09,0-.17.09-.17s.09.08.09.17,0,.17-.09.17S156.32,84.64,156.32,84.55Z"/><ellipse class="cls-5" cx="155.92" cy="76.22" rx="0.13" ry="0.26"/><path class="cls-5" d="M156.14,76.92c0,.12,0,.21.1.21s.11-.09.11-.21,0-.2-.11-.2S156.14,76.81,156.14,76.92Z"/><path class="cls-5" d="M156.37,77.52c0,.1,0,.17.09.17s.08-.07.08-.17,0-.17-.08-.17S156.37,77.43,156.37,77.52Z"/><ellipse class="cls-5" cx="154.62" cy="85.79" rx="0.16" ry="0.32"/><path class="cls-5" d="M154.05,85c0-.17.08-.31.17-.31s.16.14.16.31-.07.32-.16.32S154.05,85.18,154.05,85Z"/><path class="cls-5" d="M153.76,84c0-.18.07-.32.16-.32s.16.14.16.32-.07.32-.16.32S153.76,84.16,153.76,84Z"/><ellipse class="cls-5" cx="153.76" cy="82.82" rx="0.16" ry="0.32"/><path class="cls-5" d="M153.54,81.7c0-.17.08-.31.17-.31s.16.14.16.31-.07.32-.16.32S153.54,81.88,153.54,81.7Z"/><polygon class="cls-4" points="141.48 75.05 141.48 84.72 128.47 88.9 128.47 76.95 141.48 75.05"/><polygon class="cls-4" points="150.22 75.05 150.22 84.72 137.22 88.9 137.22 76.95 150.22 75.05"/><rect class="cls-8" x="128.47" y="76.95" width="8.75" height="11.95"/><polygon class="cls-5" points="150.22 75.05 141.48 75.05 128.47 76.95 137.22 76.95 150.22 75.05"/><path class="cls-2" d="M116.86,87.62c0,6.65,1.54,12,3.43,12s3.43-5.39,3.43-12-1.53-12.05-3.43-12.05S116.86,81,116.86,87.62Z"/><rect class="cls-2" x="120.29" y="75.57" width="11.25" height="24.08"/><path class="cls-3" d="M128.11,87.62c0,6.65,1.54,12,3.43,12s3.44-5.39,3.44-12-1.54-12.05-3.44-12.05S128.11,81,128.11,87.62Z"/><path class="cls-4" d="M128.75,87.62c0,4.91,1.2,8.9,2.69,8.9s2.69-4,2.69-8.9-1.2-8.91-2.69-8.91S128.75,82.7,128.75,87.62Z"/><path class="cls-5" d="M129.88,87.62c0,4,.89,7.24,2,7.24s2-3.24,2-7.24-.88-7.25-2-7.25S129.88,83.61,129.88,87.62Z"/><path class="cls-4" d="M130.34,87.62c0,3.36.52,6.1,1.16,6.1a.29.29,0,0,0,.18-.08h0c.56-.48,1-3,1-6,0-.45,0-.88,0-1.3s-.05-.85-.08-1.25c-.16-1.78-.48-3.1-.86-3.46h0l0,0a.27.27,0,0,0-.17-.06c-.37,0-.7.91-.91,2.32h0c-.09.65-.17,1.4-.21,2.23C130.35,86.57,130.34,87.08,130.34,87.62Z"/><path class="cls-4" d="M131.67,81.58V93.64h0l1.83-1.48V83.08l-1.81-1.47h0Z"/><path class="cls-6" d="M130.37,86.08a3.08,3.08,0,0,1,1.3,0,1.44,1.44,0,0,1,.91.72l.07-.53c0-.43-.05-.85-.08-1.25a4.72,4.72,0,0,1-.9-.32,2.28,2.28,0,0,1-1.08-.9h0C130.49,84.5,130.41,85.25,130.37,86.08Z"/><path class="cls-7" d="M132.35,87.62c0,2.5.52,4.54,1.17,4.54s1.17-2,1.17-4.54-.53-4.54-1.17-4.54S132.35,85.11,132.35,87.62Z"/><path class="cls-4" d="M132.83,87.61a7.07,7.07,0,0,0,.5,3c.11.18.22.28.34.28.47,0,.84-1.46.84-3.27s-.37-3.27-.84-3.27c-.12,0-.23.1-.34.28A7.1,7.1,0,0,0,132.83,87.61Z"/><path class="cls-5" d="M132.83,87.61a7.07,7.07,0,0,0,.5,3c.43-.16.76-1.43.76-3s-.33-2.83-.76-3A7.1,7.1,0,0,0,132.83,87.61Z"/><ellipse class="cls-5" cx="131.67" cy="79.55" rx="0.25" ry="0.48"/><path class="cls-5" d="M130.45,80.25c0,.27.12.48.25.48s.25-.21.25-.48-.11-.48-.25-.48S130.45,80,130.45,80.25Z"/><path class="cls-5" d="M129.84,81.45c0,.27.11.48.25.48s.25-.21.25-.48-.12-.48-.25-.48S129.84,81.18,129.84,81.45Z"/><path class="cls-5" d="M129.39,83c0,.26.11.48.25.48s.24-.22.24-.48-.11-.49-.24-.49S129.39,82.73,129.39,83Z"/><path class="cls-5" d="M129.14,84.78c0,.27.11.48.25.48s.25-.21.25-.48-.11-.48-.25-.48S129.14,84.51,129.14,84.78Z"/><ellipse class="cls-5" cx="129.31" cy="86.62" rx="0.25" ry="0.48"/><path class="cls-5" d="M131.39,95.62c0-.26.11-.48.24-.48s.25.22.25.48-.11.49-.25.49S131.39,95.89,131.39,95.62Z"/><ellipse class="cls-5" cx="132.58" cy="95.01" rx="0.2" ry="0.39"/><path class="cls-5" d="M132.91,93.94c0-.17.07-.32.16-.32s.16.15.16.32-.07.31-.16.31S132.91,94.11,132.91,93.94Z"/><path class="cls-5" d="M133.26,93c0-.14.06-.26.13-.26s.13.12.13.26-.05.25-.13.25S133.26,93.17,133.26,93Z"/><path class="cls-5" d="M132.45,80.34c0,.21.09.39.2.39s.2-.18.2-.39-.09-.39-.2-.39S132.45,80.12,132.45,80.34Z"/><path class="cls-5" d="M133,81.41c0,.17.07.31.16.31s.16-.14.16-.31-.07-.32-.16-.32S133,81.23,133,81.41Z"/><path class="cls-5" d="M133.34,82.32c0,.14,0,.26.13.26s.13-.12.13-.26-.06-.26-.13-.26S133.34,82.18,133.34,82.32Z"/><path class="cls-5" d="M130.42,94.92c0-.27.11-.49.25-.49s.25.22.25.49-.12.48-.25.48S130.42,95.18,130.42,94.92Z"/><ellipse class="cls-5" cx="130.05" cy="93.72" rx="0.25" ry="0.48"/><path class="cls-5" d="M129.35,92.17c0-.27.12-.48.25-.48s.25.21.25.48-.11.48-.25.48S129.35,92.44,129.35,92.17Z"/><path class="cls-5" d="M129.11,90.39c0-.27.11-.48.24-.48s.25.21.25.48-.11.48-.25.48S129.11,90.66,129.11,90.39Z"/><ellipse class="cls-5" cx="129.27" cy="88.69" rx="0.25" ry="0.48"/><path class="cls-2" d="M109.27,89.62c0,7.1,1.64,12.85,3.66,12.85s3.66-5.75,3.66-12.85S115,76.77,112.93,76.77,109.27,82.52,109.27,89.62Z"/><rect class="cls-2" x="112.93" y="76.77" width="12.01" height="25.71"/><ellipse class="cls-3" cx="124.94" cy="89.62" rx="3.66" ry="12.85"/><path class="cls-4" d="M122,89.62c0,5.25,1.29,9.5,2.87,9.5s2.88-4.25,2.88-9.5-1.29-9.5-2.88-9.5S122,84.37,122,89.62Z"/><path class="cls-5" d="M123.17,89.62c0,4.27.94,7.74,2.1,7.74s2.1-3.47,2.1-7.74-.94-7.73-2.1-7.73S123.17,85.35,123.17,89.62Z"/><path class="cls-4" d="M123.65,89.62c0,3.6.56,6.51,1.25,6.51a.28.28,0,0,0,.19-.07h0c.6-.51,1.05-3.19,1.05-6.43q0-.7,0-1.38c0-.46-.05-.91-.09-1.33-.16-1.91-.5-3.32-.91-3.7h0l0,0a.27.27,0,0,0-.18-.07c-.4,0-.75,1-1,2.49h0c-.1.69-.18,1.5-.23,2.38C123.67,88.5,123.65,89.05,123.65,89.62Z"/><path class="cls-4" d="M125.08,83.18V96.06h0l2-1.58V84.78l-1.93-1.57h0Z"/><path class="cls-6" d="M123.69,88a3.35,3.35,0,0,1,1.39.06,1.5,1.5,0,0,1,1,.77l.07-.57c0-.46-.05-.91-.09-1.33a6.6,6.6,0,0,1-1-.34,2.52,2.52,0,0,1-1.16-1h0C123.82,86.29,123.74,87.1,123.69,88Z"/><path class="cls-7" d="M125.8,89.62c0,2.68.56,4.85,1.25,4.85s1.25-2.17,1.25-4.85-.56-4.84-1.25-4.84S125.8,87,125.8,89.62Z"/><path class="cls-4" d="M126.32,89.62a7.56,7.56,0,0,0,.53,3.19c.11.19.24.3.36.3.5,0,.9-1.57.9-3.49s-.4-3.49-.9-3.49c-.12,0-.25.1-.36.29A7.61,7.61,0,0,0,126.32,89.62Z"/><path class="cls-5" d="M126.32,89.62a7.56,7.56,0,0,0,.53,3.19c.45-.17.81-1.53.81-3.19s-.36-3-.81-3.2A7.61,7.61,0,0,0,126.32,89.62Z"/><path class="cls-5" d="M124.81,81c0,.28.12.51.27.51s.26-.23.26-.51-.12-.52-.26-.52S124.81,80.72,124.81,81Z"/><path class="cls-5" d="M123.78,81.76c0,.28.12.52.26.52s.27-.24.27-.52-.12-.52-.27-.52S123.78,81.47,123.78,81.76Z"/><path class="cls-5" d="M123.12,83c0,.29.12.52.27.52s.26-.23.26-.52-.12-.51-.26-.51S123.12,82.76,123.12,83Z"/><ellipse class="cls-5" cx="122.91" cy="84.69" rx="0.26" ry="0.52"/><path class="cls-5" d="M122.38,86.59c0,.29.12.52.26.52s.27-.23.27-.52-.12-.51-.27-.51S122.38,86.31,122.38,86.59Z"/><ellipse class="cls-5" cx="122.56" cy="88.55" rx="0.26" ry="0.52"/><path class="cls-5" d="M124.78,98.17c0-.29.11-.52.26-.52s.26.23.26.52-.11.51-.26.51S124.78,98.45,124.78,98.17Z"/><ellipse class="cls-5" cx="126.05" cy="97.52" rx="0.21" ry="0.42"/><path class="cls-5" d="M126.4,96.37c0-.18.07-.33.17-.33s.17.15.17.33-.08.34-.17.34S126.4,96.56,126.4,96.37Z"/><ellipse class="cls-5" cx="126.92" cy="95.4" rx="0.14" ry="0.27"/><ellipse class="cls-5" cx="126.13" cy="81.85" rx="0.21" ry="0.42"/><path class="cls-5" d="M126.47,83c0,.18.08.33.18.33s.17-.15.17-.33-.08-.34-.17-.34S126.47,82.81,126.47,83Z"/><path class="cls-5" d="M126.85,84c0,.15.07.27.14.27s.14-.12.14-.27-.06-.27-.14-.27S126.85,83.82,126.85,84Z"/><path class="cls-5" d="M123.74,97.42c0-.29.12-.52.27-.52s.26.23.26.52-.12.51-.26.51S123.74,97.7,123.74,97.42Z"/><path class="cls-5" d="M123.09,96.13c0-.28.12-.51.26-.51s.27.23.27.51-.12.52-.27.52S123.09,96.42,123.09,96.13Z"/><ellipse class="cls-5" cx="122.87" cy="94.48" rx="0.26" ry="0.52"/><ellipse class="cls-5" cx="122.61" cy="92.58" rx="0.26" ry="0.52"/><ellipse class="cls-5" cx="122.52" cy="90.77" rx="0.26" ry="0.52"/><ellipse class="cls-2" cx="74.08" cy="103.03" rx="4.89" ry="17.16"/><rect class="cls-2" x="74.08" y="85.87" width="16.04" height="34.32"/><path class="cls-3" d="M85.23,103c0,9.47,2.18,17.15,4.89,17.15S95,112.5,95,103s-2.18-17.16-4.88-17.16S85.23,93.55,85.23,103Z"/><ellipse class="cls-4" cx="89.97" cy="103.03" rx="3.83" ry="12.69"/><path class="cls-5" d="M87.75,103c0,5.7,1.26,10.32,2.8,10.32s2.81-4.62,2.81-10.32S92.1,92.7,90.55,92.7,87.75,97.32,87.75,103Z"/><path class="cls-4" d="M88.39,103c0,4.8.75,8.69,1.67,8.69a.44.44,0,0,0,.25-.1l0,0c.79-.67,1.39-4.25,1.39-8.57,0-.64,0-1.25,0-1.85s-.07-1.21-.12-1.78c-.22-2.54-.67-4.42-1.22-4.93h0l0,0a.35.35,0,0,0-.23-.09c-.53,0-1,1.3-1.31,3.32h0a29.79,29.79,0,0,0-.3,3.17C88.41,101.53,88.39,102.27,88.39,103Z"/><path class="cls-4" d="M90.29,94.42v17.2l0,0,2.6-2.11V96.56l-2.58-2.09h0Z"/><path class="cls-6" d="M88.45,100.83a4.58,4.58,0,0,1,1.85.08,2,2,0,0,1,1.29,1l.1-.76c0-.62-.07-1.21-.12-1.78A7,7,0,0,1,90.3,99a3.26,3.26,0,0,1-1.55-1.3h0A29.79,29.79,0,0,0,88.45,100.83Z"/><path class="cls-7" d="M91.26,103c0,3.57.75,6.47,1.67,6.47s1.66-2.9,1.66-6.47-.74-6.47-1.66-6.47S91.26,99.45,91.26,103Z"/><path class="cls-4" d="M92,103a10,10,0,0,0,.71,4.26c.15.26.31.4.49.4.66,0,1.2-2.09,1.2-4.66s-.54-4.66-1.2-4.66c-.18,0-.34.14-.49.4A10,10,0,0,0,92,103Z"/><path class="cls-5" d="M92,103a10,10,0,0,0,.71,4.26c.61-.22,1.08-2,1.08-4.26s-.47-4-1.08-4.26A10,10,0,0,0,92,103Z"/><ellipse class="cls-5" cx="90.29" cy="91.53" rx="0.35" ry="0.69"/><ellipse class="cls-5" cx="88.91" cy="92.53" rx="0.35" ry="0.69"/><path class="cls-5" d="M87.69,94.24c0,.38.15.69.35.69s.35-.31.35-.69-.16-.69-.35-.69S87.69,93.86,87.69,94.24Z"/><ellipse class="cls-5" cx="87.4" cy="96.45" rx="0.35" ry="0.69"/><ellipse class="cls-5" cx="87.04" cy="98.98" rx="0.35" ry="0.69"/><path class="cls-5" d="M86.58,101.6c0,.38.16.69.35.69s.35-.31.35-.69-.15-.69-.35-.69S86.58,101.22,86.58,101.6Z"/><ellipse class="cls-5" cx="90.24" cy="114.43" rx="0.35" ry="0.69"/><path class="cls-5" d="M91.31,113.56c0-.3.12-.55.28-.55s.29.25.29.55-.13.56-.29.56S91.31,113.87,91.31,113.56Z"/><path class="cls-5" d="M92.05,112c0-.25.11-.45.23-.45s.23.2.23.45-.1.45-.23.45S92.05,112.29,92.05,112Z"/><ellipse class="cls-5" cx="92.75" cy="110.74" rx="0.19" ry="0.36"/><path class="cls-5" d="M91.41,92.65c0,.31.13.56.29.56S92,93,92,92.65s-.13-.55-.28-.55S91.41,92.35,91.41,92.65Z"/><path class="cls-5" d="M92.16,94.18c0,.25.1.45.23.45s.23-.2.23-.45-.1-.45-.23-.45S92.16,93.93,92.16,94.18Z"/><ellipse class="cls-5" cx="92.85" cy="95.48" rx="0.19" ry="0.36"/><path class="cls-5" d="M88.51,113.43c0-.38.16-.69.36-.69s.35.31.35.69-.16.69-.35.69S88.51,113.81,88.51,113.43Z"/><path class="cls-5" d="M87.64,111.72c0-.38.15-.69.35-.69s.35.31.35.69-.16.69-.35.69S87.64,112.1,87.64,111.72Z"/><path class="cls-5" d="M87,109.52c0-.39.15-.69.35-.69s.35.3.35.69-.16.68-.35.68S87,109.9,87,109.52Z"/><ellipse class="cls-5" cx="87" cy="106.98" rx="0.35" ry="0.69"/><ellipse class="cls-5" cx="86.88" cy="104.56" rx="0.35" ry="0.69"/><path class="cls-9" d="M121.51,73.76c1.24,0,2.77-.19,2.79-.19.26,0,24.23-2.67,37.64-4.4l1-34.12L123.67,5.24Z"/><path class="cls-10" d="M124.65,7.3l37.23,28.26-1,32.68C147.38,70,124.44,72.5,124.2,72.53h0s-.74.09-1.58.14L124.65,7.3m-2-4.12-2.25,71.56a8.43,8.43,0,0,0,1.08.06c1.32,0,2.92-.19,2.92-.19s25.15-2.78,38.53-4.52l1-35.54L122.68,3.18Z"/><polygon class="cls-11" points="119.42 73.69 121.61 4.25 55.75 5.41 46.76 73.76 119.42 73.69"/><path class="cls-9" d="M120.53,5.31,118.4,72.65,48,72.71,56.67,6.44l63.86-1.13m2.15-2.13L54.83,4.38,45.57,74.8l74.86-.06,2.25-71.56Z"/><path class="cls-3" d="M82.76,112.65s-3.88,7.29-18.15,7.44S9.79,117.2,9.79,117.2,2,115.24,1,104.1C.65,100.66,81,107.55,81,107.55Z"/><rect class="cls-3" x="21.94" y="36.54" width="6.04" height="17.53" rx="1.56" transform="translate(49.93 90.6) rotate(180)"/><path class="cls-12" d="M1.29,104.74c1.79,1.94,9.22,3.63,9.22,3.63l2.84-1.49,36.7,1.74,2.39,1.94s14.19.15,17-2.09l0,0c3.88,3.44,9.65,5.68,13.25,4.24l3.48-21.12v-.06s0-.07,0-.11,0-.09,0-.13,0,0,0-.06,0-.06,0-.08l0-.08a.42.42,0,0,0,0-.1l0-.09s0,0,0,0a.56.56,0,0,0,0-.08L86,90.73l-.14-.18-.17-.14-.1-.07-.08,0a.05.05,0,0,0,0,0h0l-.1,0-.1,0h0l-.18,0h-.2a.31.31,0,0,0,0-.07c.19-.83,2.08-8.68,5.19-9.15,7.67-1.16,5.71,25.91,5.71,25.91l17.58-7.89,4.81-.82,1.32-18.73a1,1,0,0,0-.19-.59,1.05,1.05,0,0,0-.71-.44l-4.78-.62a.45.45,0,0,1,0-.08c.2-2.48,4.79-61.46-1.5-72.69,0,0-3.14-4.07-7.62-4.78A72.64,72.64,0,0,0,96.84,0l-1.9,0c-7.52.14-17.78.5-25.73.81l-3,.12c-5.39.21-9.14.38-9.14.38S49.6,2.47,46.62,5.44C45.1,7,41.86,13.23,38,20.9c-.16.33-1.36,1.07-1.53,1.42-.27.55-.27.57-.55,1.15-1.2,2.58-2.35,5.26-3.44,8.14a133,133,0,0,0-5.17,17.27l0,0c-.61.35-11.07,6.38-12.66,10.59a36.38,36.38,0,0,0-1.94,9.41s-6.29,2.41-8.64,5.73a5.08,5.08,0,0,0-.62,1.14C2.59,78,2.18,81.91,2,84.8c-.14,2.1-.17,3.66-.17,3.66l-.2,0A2.18,2.18,0,0,0,.1,89.84S-.5,102.8,1.29,104.74Z"/><path class="cls-13" d="M.1,89.84A2.18,2.18,0,0,1,1.61,88.5l.2,0s0-1.56.17-3.66c.2-2.89.61-6.79,1.48-9a5.08,5.08,0,0,1,.62-1.14c2.35-3.32,8.64-5.73,8.64-5.73a36.38,36.38,0,0,1,1.94-9.41c1.59-4.21,12.05-10.24,12.66-10.59l0,0a133,133,0,0,1,5.17-17.27c1.09-2.88,2.24-5.56,3.44-8.14.28-.58.28-.6.55-1.15.17-.35,1.37-1.09,1.53-1.42C41.86,13.23,45.1,7,46.62,5.44c3-3,10.45-4.08,10.45-4.08s-6.32,1.09-9.31,4.06C46.37,6.81,39,21.08,39,21.08l45.11,1s-43,.85-46.09.57c-.66-.07-9.7,26.08-8.9,26.17.62.07-8.76,5-12.14,9A5.72,5.72,0,0,0,16,59.44a37.11,37.11,0,0,0-1.74,10.43S9.31,71.31,7,74.63a5.08,5.08,0,0,0-.62,1.14c-.87,2.24-1.28,6.14-1.48,9-.14,2.1-.17,3.66-.17,3.66l-.2,0A2.2,2.2,0,0,0,3,89.84s-.6,13,1.19,14.9c1.21,1.3,4.95,2.49,7.28,3.14l-.94.49s-7.43-1.69-9.22-3.63S.1,89.84.1,89.84Z"/><path class="cls-13" d="M73.84,93.55a130.54,130.54,0,0,1-4.33,14.86c3.88,3.43,9.65,5.67,13.25,4.24l3.48-21.12v0C83.89,92.42,74.33,94,73.84,93.55Z"/><path class="cls-13" d="M53.34,93.55c.46,1.43,7-15.27,8.93-17.33,2.79-3,31-12.71,31-11.43L80,76.66l-1.65,7.86c-5.49,6.36-22.54,8.93-22.54,8.93S82.15,91,84.87,90.11c.19-.83,2.1-8.75,5.21-9.22,7.67-1.16,5.71,25.91,5.71,25.91l17.58-7.89,4.81-.82,1.32-18.73a1,1,0,0,0-.19-.59,1.05,1.05,0,0,0-.71-.44l-4.78-.62a.45.45,0,0,1,0-.08c.2-2.48,4.79-61.46-1.5-72.69,0,0-14.06-3.24-16.59,3.77s-4.48,24.14-4.48,24.14l-4.62,18s3.26,2.18,2.27,2c-1.42-.23-23.07,9.28-25.57,10.68C59.31,65.83,52.72,91.63,53.34,93.55Z"/><path class="cls-11" d="M47.69,64.64s8.14,1.12,9.48,3.06L49,99.88s-.83,2.39-4.16,2.24-28.14-1.34-28.14-1.34-1.58-.15-2-2.39-3.1-28.82-1.13-32.18a21.78,21.78,0,0,1,5.9-2C21.75,64,37.86,62.7,47.69,64.64Z"/><path class="cls-5" d="M13.58,74.77c0,.74,0,1.52.06,2.32,0,.59,0,1.19.06,1.79l.12,2.33c0,.6.07,1.2.11,1.8.05.78.11,1.56.17,2.32,0,.61.09,1.21.14,1.8.1,1.22.2,2.39.3,3.47l34.87,2,1-3.86.45-1.78.59-2.29.45-1.77.58-2.3.46-1.77.58-2.3L54,74.71l.59-2.3L55,70.64l.37-1.45c-1.2-1.74-10.5-2.66-10.5-2.66-8.81-1.74-23.25-.6-25.35-.4a19.85,19.85,0,0,0-5.29,1.8,3.31,3.31,0,0,0-.31.94,13.66,13.66,0,0,0-.23,1.79c0,.68-.08,1.46-.09,2.31C13.58,73.54,13.57,74.14,13.58,74.77Z"/><path class="cls-3" d="M48.9,94.63,47.69,99.8s-.2,1.7-3.33,1.58-26.83-1.29-26.83-1.29-1.72-.45-2-1.44a58.41,58.41,0,0,1-.59-6Z"/><path class="cls-11" d="M13.68,70.66l40.86,1.75L55,70.64,13.91,68.87A13.66,13.66,0,0,0,13.68,70.66Z"/><polygon class="cls-11" points="13.58 74.77 53.5 76.48 53.95 74.71 13.59 72.97 13.58 74.77"/><path class="cls-11" d="M13.64,77.09c0,.59,0,1.19.06,1.79l38.76,1.67.46-1.77Z"/><path class="cls-11" d="M13.82,81.21c0,.6.07,1.2.11,1.8l37.5,1.61.45-1.77Z"/><path class="cls-11" d="M14.1,85.33c0,.61.09,1.21.14,1.8l36.15,1.56.45-1.78Z"/><path class="cls-5" d="M27.32,48.9A4.7,4.7,0,0,0,29.59,50c1.3,0,38.13-.5,57.05.89,0,0,2.79-.59,3.19-2.39s1.89-13.93,1.89-13.93-.39-3.66-3.14-4.07c-7.41-1.11-36.3-1.51-53.32.18a4.4,4.4,0,0,0-2.74.95,133,133,0,0,0-5.17,17.27Z"/><path class="cls-14" d="M90,35s-1.37,11.14-1.74,12.78S85.32,50,85.32,50c-4-.3-9.13-.51-14.6-.65h0l-4.9-.11h0c-4.61-.09-9.32-.15-13.75-.18h-5c-2.78,0-5.37,0-7.66,0-5.47,0-9.17,0-9.53,0l-.24,0A3.82,3.82,0,0,1,28,48.21s3.09-11.44,4.83-16a3.39,3.39,0,0,1,2.24-.87c4.21-.42,9.44-.69,15-.85,3.25-.09,6.61-.14,9.92-.15,2.6,0,5.16,0,7.63,0h0l4.92.08h0c5.64.13,10.39.36,13.22.65h0c.52.05,1,.11,1.36.17a2.91,2.91,0,0,1,2,1.34A5.94,5.94,0,0,1,90,35Z"/><path class="cls-15" d="M71.57,30.44,51.13,49H47.05L67.57,30.36h0C69.27,30.38,70,30.41,71.57,30.44Z"/><path class="cls-15" d="M89.11,32.6,70.72,49.31h0l-4.9-.11L85.73,31.09h0c.52.05,1,.11,1.36.17A2.91,2.91,0,0,1,89.11,32.6Z"/><path class="cls-15" d="M59.94,30.34,39.39,49c-5.47,0-9.17,0-9.53,0l-.24,0L50,30.49C53.27,30.4,56.63,30.35,59.94,30.34Z"/><path class="cls-16" d="M80,76.66s.5,8.56-4.78,10.65-17,2.39-17,2.39S60,83,65.24,80.64,80,76.66,80,76.66Z"/><path class="cls-17" d="M58.17,89.7s11.75-.3,17-2.39S80,76.66,80,76.66s-9.46,1.59-14.73,4a10.61,10.61,0,0,0-3.08,2.17A17.26,17.26,0,0,0,58.17,89.7Z"/><path class="cls-18" d="M75.92,78.42a1.66,1.66,0,0,1,2,1.81C77.65,82.49,76.8,85.86,74,87s-8.47,1.69-11.71,1.89a1.66,1.66,0,0,1-1.58-2.4,10.93,10.93,0,0,1,4.92-5.1A55.43,55.43,0,0,1,75.92,78.42Z"/><path class="cls-17" d="M2,84.8c4.31,1.12,8.38,2,8.38,2A23.26,23.26,0,0,0,8.59,80a11,11,0,0,0-4.51-5.35,5.08,5.08,0,0,0-.62,1.14l0,.06a11.81,11.81,0,0,0-.4,1.3c-.18.71-.34,1.5-.47,2.31-.19,1.17-.33,2.4-.44,3.56C2.07,83.63,2,84.23,2,84.8Z"/><path class="cls-3" d="M70.29,101.38s-1,5.37-2.42,5.9-14.61,1.42-14.61,1.42l-2.91-2.17v-3.21S59.68,102.35,70.29,101.38Z"/><path class="cls-3" d="M1.34,97.87s-.16,5.34,1.23,6.06,7.17,2.62,7.17,2.62l3.17-1.76.61-3.22S10.73,100.69,1.34,97.87Z"/><path class="cls-19" d="M95.74,83.52l17.63-4,5.94-.74a1.05,1.05,0,0,0-.71-.44l-4.78-.62Z"/><path class="cls-13" d="M12.79,90.84C8.72,89.76,1.55,86.31,2,85.6c-.14,2.1-.17,2.86-.17,2.86S12.79,90.84,12.79,90.84Z"/><path class="cls-19" d="M95.17,66.85c.14,1.85-.61,11.45-.29,13a.63.63,0,0,0,.06.17c.08.14.59.12,1.36,0,3.24-.6,11.15-3.23,11.62-3.74,1.64-1.79,1.72-50.75,1.72-50.75S98.37,23,97.39,23.41l-.24.1a4.17,4.17,0,0,0-.86.54,5.11,5.11,0,0,0-1.58,3.39c-.38,2.76-1.89,37-1.89,37S95,64.91,95.17,66.85Z"/><path class="cls-19" d="M94.68,80.16a.71.71,0,0,1-.09-.26,60.07,60.07,0,0,1,.12-7.59c.11-2.39.22-4.65.16-5.43-.13-1.69-2-2.12-2.11-2.14l-.25,0v-.25c.06-1.4,1.52-34.3,1.89-37a5.51,5.51,0,0,1,1.69-3.58,3.77,3.77,0,0,1,.92-.58,2.18,2.18,0,0,1,.27-.11c1-.39,10.52,1.66,12.41,2.07l.24.06v.24c0,.12,0,12.38-.25,24.71-.13,7.24-.3,13.08-.51,17.37-.4,8.18-.85,8.66-1,8.87-.57.62-8.72,3.27-11.79,3.83a5.73,5.73,0,0,1-1,.12C94.92,80.4,94.77,80.31,94.68,80.16ZM97.5,23.68l-.23.1a3.47,3.47,0,0,0-.78.5A4.9,4.9,0,0,0,95,27.48c-.35,2.59-1.73,33.67-1.87,36.74a3.13,3.13,0,0,1,2.33,2.61h0c.07.82,0,3.1-.15,5.51a60.29,60.29,0,0,0-.13,7.44v0a4,4,0,0,0,1.06-.11,66.53,66.53,0,0,0,11.46-3.64c.29-.34,1-3.53,1.4-25.9.2-11.35.24-22.64.24-24.41C104,24.58,98.11,23.48,97.5,23.68Z"/><path class="cls-13" d="M95.17,66.85c.14,1.85-.61,11.45-.29,13,3.56-.79,10.49-3.11,10.92-3.59,1.65-1.79,1.73-50.75,1.73-50.75s-6.92-1.51-10.38-2a4.17,4.17,0,0,0-.86.54,4.1,4.1,0,0,0-1.07,1.48,6.66,6.66,0,0,0-.51,1.91c-.21,1.55-.79,13.1-1.24,22.89-.36,7.59-.65,14.12-.65,14.12S95,64.91,95.17,66.85Z"/><polygon class="cls-20" points="93.35 52.85 106.6 51.53 93.29 54.06 93.35 52.85"/><path class="cls-5" d="M93.47,50.33a2.94,2.94,0,0,0,1.36.18l8.52-.86a3,3,0,0,0,2.71-3V29.34a3,3,0,0,0-2.64-3l-7.09-.89a2.94,2.94,0,0,0-1.11.07,4.75,4.75,0,0,0-.24.64,6.88,6.88,0,0,0-.27,1.27C94.5,29,94,40,93.5,49.59Z"/><path class="cls-14" d="M105.25,30V46a2.81,2.81,0,0,1-2.52,2.79l-2.88.29-5,.5h-.19l-1.14,0c.08-1.71.16-3.47.25-5.21.1-2.09.2-4.15.3-6.08.28-5.5.53-9.94.66-10.86A7.82,7.82,0,0,1,95,26.17l1.24.19,4.48.56,2.1.26a2.7,2.7,0,0,1,.85.25A2.8,2.8,0,0,1,105.25,30Z"/><path class="cls-15" d="M103.65,27.43l-9.9,17c.1-2.09.2-4.15.3-6.08l6.65-11.38,2.1.26A2.7,2.7,0,0,1,103.65,27.43Z"/><polygon class="cls-15" points="105.25 31.45 105.25 41.75 101.22 48.64 99.85 49.11 94.64 49.62 105.25 31.45"/><path class="cls-3" d="M105.37,55.68l-.37,0-.18,5.74.58-.07a.67.67,0,0,0,.58-.64l.14-4.39A.67.67,0,0,0,105.37,55.68Z"/><path class="cls-19" d="M97.84,92.59V105l9.69-4.46,1.26-.58c-.05-.54-.08-6.2-.09-9.36a1.64,1.64,0,0,0-2-1.58L98.91,91.2A1.44,1.44,0,0,0,97.84,92.59Z"/><path class="cls-21" d="M97.62,92.59A1.67,1.67,0,0,1,98.85,91l7.77-2.13a1.85,1.85,0,0,1,2.31,1.79c0,5.64,0,9,.08,9.34l0,.15-11.41,5.26Zm10.86-1.94a1.39,1.39,0,0,0-.54-1.11,1.43,1.43,0,0,0-1.21-.26L99,91.41a1.23,1.23,0,0,0-.9,1.18v12.1l10.49-4.83C108.51,98.86,108.49,94.37,108.48,90.65Z"/><path class="cls-13" d="M97.84,99.12V105l9.69-4.46c0-.87,0-1.7,0-2.4a1.55,1.55,0,0,0,0-.22,1.63,1.63,0,0,0-2-1.36Z"/><path class="cls-12" d="M97.84,99.12v2.29L107.51,98a1.63,1.63,0,0,0-2-1.36Z"/><path class="cls-13" d="M51.9,17,52,17h0c.22,0,22.32-.6,28-.84,4.55-.19,5.73-4.75,6.69-8.42a23.1,23.1,0,0,1,.93-3.07C88.53,2.41,93.43.85,96.84,0l-1.9,0C91.71,1,88,2.44,87.19,4.5a26.78,26.78,0,0,0-1,3.13c-1,3.71-2,7.91-6.27,8.08-5.53.23-26.71.8-27.93.84-.31-.15-2.16-1.09-1.84-2.23.18-.62.81-2.7,1.65-4.76,1-2.47,1.92-4,2.65-4.5C57.56,3.1,66,1.44,69.21.86l-3,.12-2.4.51c-4.71,1.08-7.92,2.15-9.55,3.2-2.13,1.37-4.47,9.43-4.49,9.51C49.32,15.81,51.8,16.93,51.9,17Z"/><path class="cls-19" d="M49.77,14.2c0-.08,2.36-8.14,4.49-9.51,1.63-1.05,4.84-2.12,9.55-3.2L66.21,1l3-.12C66,1.44,57.56,3.1,54.5,5.06c-.73.47-1.65,2-2.65,4.5a46,46,0,0,0-1.65,4.76C49.72,16.21,52.07,17,52,17h0l-.05,0C51.8,16.93,49.32,15.81,49.77,14.2Z"/><rect class="cls-3" x="94.45" y="37.46" width="8.18" height="17.53" rx="2.12" transform="translate(197.09 92.44) rotate(-180)"/><polygon class="cls-3" points="95.75 49.96 93.38 51.3 93.32 53.36 95.75 51.98 95.75 49.96"/><path class="cls-17" d="M72.8,81.21a2,2,0,1,0,2-2A2,2,0,0,0,72.8,81.21Z"/><path class="cls-17" d="M61.79,86.36a1.74,1.74,0,1,0,1.74-1.74A1.73,1.73,0,0,0,61.79,86.36Z"/><path class="cls-17" d="M66.12,84.13a3.39,3.39,0,1,0,3.39-3.39A3.39,3.39,0,0,0,66.12,84.13Z"/><path class="cls-18" d="M2.12,83a2.78,2.78,0,0,0,.39.44C4,84.77,6.65,85.55,8.24,85.91c.63.14,1.06-1.15.77-2.32-.44-1.8-1.2-4.1-2.41-5.34a16.22,16.22,0,0,0-3.17-2.42,11.81,11.81,0,0,0-.4,1.3c-.18.71-.34,1.5-.47,2.31C2.37,80.61,2.23,81.84,2.12,83Z"/><path class="cls-17" d="M8.46,83.41c0,1-.38,1.7-.85,1.65s-.85-.86-.85-1.82.38-1.7.85-1.65S8.46,82.45,8.46,83.41Z"/><path class="cls-17" d="M6.34,81c0,1.87-.74,3.32-1.66,3.22S3,82.5,3,80.63s.75-3.32,1.66-3.22S6.34,79.1,6.34,81Z"/><path class="cls-22" d="M58.17,89.7s11.75-.3,17-2.39S80,76.66,80,76.66s-.43.76-3.08,2.4S66.45,82,62.16,82.81A17.26,17.26,0,0,0,58.17,89.7Z"/><path class="cls-22" d="M2,84.8c4.31,1.12,8.38,2,8.38,2A23.26,23.26,0,0,0,8.59,80a7.89,7.89,0,0,1-5.16-4.15,11.81,11.81,0,0,0-.4,1.3c-.18.71-.34,1.5-.47,2.31-.19,1.17-.33,2.4-.44,3.56C2.07,83.63,2,84.23,2,84.8Z"/><path class="cls-3" d="M32.08,47.89s-.1-.66,3-.82c14.47-.74,17.41.87,17.41.87Z"/><path class="cls-3" d="M36.7,47.61l-3.89,1.63a.31.31,0,0,0,0,.6h0a.53.53,0,0,0,.35,0l5.37-2.18Z"/><path class="cls-3" d="M60.54,47.92s-.1-.66,3-.82C78,46.36,80.9,48,80.9,48Z"/><path class="cls-3" d="M65.16,47.64l-3.89,1.63a.31.31,0,0,0,0,.6h0a.47.47,0,0,0,.35,0L67,47.69Z"/></g></g></g></svg>