<svg xmlns="http://www.w3.org/2000/svg" xmlns:xlink="http://www.w3.org/1999/xlink" viewBox="0 0 164.77 114.2"><defs><style>.cls-1{isolation:isolate;}.cls-2{fill:#818183;}.cls-3{fill:#e5e6e6;}.cls-23,.cls-3{mix-blend-mode:multiply;}.cls-4{fill:#171925;}.cls-5{fill:#242635;}.cls-6{fill:#6a686a;}.cls-7{fill:#434243;}.cls-8{fill:#7e7d80;}.cls-9{fill:#a4a2a3;}.cls-10{fill:#59595b;}.cls-11{fill:#9e9e9d;}.cls-12{fill:#797a7e;}.cls-13{fill:#d2d2d2;}.cls-14{fill:#a2c629;}.cls-15{fill:#879e00;}.cls-16{fill:#6e6f71;}.cls-17{fill:url(#linear-gradient);}.cls-18{fill:#fff;}.cls-19,.cls-23{fill:#dfdfdf;}.cls-20{fill:#768200;}.cls-21{fill:#1167b1;}.cls-22{fill:#03476d;}.cls-24{fill:#919395;}</style><linearGradient id="linear-gradient" x1="-3810.65" y1="73.77" x2="-3791.3" y2="73.77" gradientTransform="matrix(-1, 0, 0, 1, -3739.71, 0)" gradientUnits="userSpaceOnUse"><stop offset="0" stop-color="#fff"/><stop offset="1"/></linearGradient></defs><g class="cls-1"><g id="katman_2" data-name="katman 2"><g id="katman_1-2" data-name="katman 1"><path class="cls-2" d="M164.73,59.51v9L92.67,112.06c-2.6-.56-5.18-1.19-7.73-1.87A223.23,223.23,0,0,1,32.13,88.11c-6.05-3.45-11.7-7-16.86-10.5Z"/><path class="cls-3" d="M145.48,75.75,84.94,110.19A223.23,223.23,0,0,1,32.13,88.11l64-17.77Z"/><polygon class="cls-4" points="104.81 87 105.58 87.5 104.81 90.46 99.89 91.56 82.36 100.39 71.81 100.75 73.18 74 81.83 69.45 101.48 77.66 104.81 87"/><polygon class="cls-4" points="140.9 61.37 140.92 62.89 139.89 63.55 127 65.03 125.85 67.03 107.17 69.9 100.16 69.64 100.27 66.29 140.9 61.37"/><polygon class="cls-4" points="144.24 61.66 144.24 62.94 143.58 63.43 144.24 63.87 145.09 69.72 144.51 70.47 138.06 70.47 137.05 62.41 144.24 61.66"/><ellipse class="cls-4" cx="135.1" cy="70.74" rx="1.87" ry="6.57"/><rect class="cls-4" x="135.1" y="64.17" width="6.14" height="13.14"/><ellipse class="cls-5" cx="141.24" cy="70.74" rx="1.87" ry="6.57"/><path class="cls-6" d="M139.72,70.74c0,2.68.66,4.86,1.47,4.86s1.46-2.18,1.46-4.86-.65-4.85-1.46-4.85S139.72,68.06,139.72,70.74Z"/><path class="cls-7" d="M140.34,70.74c0,2.19.48,4,1.07,4s1.07-1.77,1.07-4-.48-3.95-1.07-3.95S140.34,68.56,140.34,70.74Z"/><path class="cls-6" d="M140.58,70.74c0,1.84.29,3.33.64,3.33a.14.14,0,0,0,.1,0h0c.31-.26.54-1.63.54-3.29,0-.24,0-.48,0-.7s0-.47,0-.68a3.85,3.85,0,0,0-.47-1.89h0a.16.16,0,0,0-.09,0c-.2,0-.38.49-.5,1.27h0c-.05.35-.09.76-.12,1.21C140.59,70.17,140.58,70.45,140.58,70.74Z"/><path class="cls-6" d="M141.31,67.45V74h0l1-.81v-5l-1-.8h0Z"/><path class="cls-8" d="M140.6,69.9a2,2,0,0,1,.71,0,.79.79,0,0,1,.5.4l0-.29c0-.24,0-.47,0-.68a3,3,0,0,1-.49-.18,1.29,1.29,0,0,1-.59-.49h0C140.67,69,140.63,69.45,140.6,69.9Z"/><path class="cls-9" d="M141.68,70.74c0,1.37.29,2.48.64,2.48s.64-1.11.64-2.48-.29-2.47-.64-2.47S141.68,69.38,141.68,70.74Z"/><path class="cls-6" d="M141.94,70.74a3.81,3.81,0,0,0,.28,1.63c.05.1.12.15.18.15.26,0,.46-.79.46-1.78s-.2-1.78-.46-1.78c-.06,0-.13.05-.18.15A3.81,3.81,0,0,0,141.94,70.74Z"/><path class="cls-7" d="M141.94,70.74a3.81,3.81,0,0,0,.28,1.63c.23-.08.41-.78.41-1.63s-.18-1.54-.41-1.63A3.81,3.81,0,0,0,141.94,70.74Z"/><path class="cls-7" d="M141.18,66.34c0,.15.06.26.13.26s.14-.11.14-.26-.07-.26-.14-.26S141.18,66.2,141.18,66.34Z"/><path class="cls-7" d="M140.65,66.73c0,.14.06.26.13.26s.14-.12.14-.26-.06-.27-.14-.27S140.65,66.58,140.65,66.73Z"/><path class="cls-7" d="M140.31,67.38c0,.15.06.26.14.26s.13-.11.13-.26-.06-.26-.13-.26S140.31,67.23,140.31,67.38Z"/><path class="cls-7" d="M140.07,68.22c0,.15.06.27.13.27s.14-.12.14-.27-.06-.26-.14-.26S140.07,68.08,140.07,68.22Z"/><path class="cls-7" d="M139.93,69.2c0,.14.06.26.14.26s.13-.12.13-.26-.06-.27-.13-.27S139.93,69.05,139.93,69.2Z"/><path class="cls-7" d="M139.89,70.2c0,.14.06.26.13.26s.14-.12.14-.26-.06-.27-.14-.27S139.89,70.05,139.89,70.2Z"/><path class="cls-7" d="M141.16,75.11c0-.15.06-.26.13-.26s.14.11.14.26-.06.26-.14.26S141.16,75.26,141.16,75.11Z"/><path class="cls-7" d="M141.7,74.78c0-.12.05-.22.11-.22s.11.1.11.22,0,.21-.11.21S141.7,74.89,141.7,74.78Z"/><path class="cls-7" d="M142,74.19c0-.09,0-.17.09-.17s.09.08.09.17,0,.17-.09.17S142,74.29,142,74.19Z"/><path class="cls-7" d="M142.18,73.69c0-.07,0-.13.07-.13s.07.06.07.13,0,.14-.07.14S142.18,73.77,142.18,73.69Z"/><path class="cls-7" d="M141.74,66.77c0,.12,0,.21.11.21s.11-.09.11-.21-.05-.21-.11-.21S141.74,66.65,141.74,66.77Z"/><path class="cls-7" d="M142,67.36c0,.09,0,.17.09.17s.09-.08.09-.17,0-.18-.09-.18S142,67.26,142,67.36Z"/><path class="cls-7" d="M142.22,67.85c0,.08,0,.14.07.14s.07-.06.07-.14,0-.14-.07-.14S142.22,67.78,142.22,67.85Z"/><path class="cls-7" d="M140.63,74.73c0-.15.06-.27.13-.27s.14.12.14.27-.06.26-.14.26S140.63,74.87,140.63,74.73Z"/><path class="cls-7" d="M140.29,74.07c0-.15.06-.26.14-.26s.13.11.13.26-.06.26-.13.26S140.29,74.22,140.29,74.07Z"/><path class="cls-7" d="M140.05,73.23c0-.15.06-.27.13-.27s.14.12.14.27-.06.26-.14.26S140.05,73.37,140.05,73.23Z"/><path class="cls-7" d="M139.91,72.26c0-.15.06-.27.14-.27s.13.12.13.27-.06.26-.13.26S139.91,72.4,139.91,72.26Z"/><path class="cls-7" d="M139.87,71.33c0-.15.06-.26.13-.26s.14.11.14.26-.06.26-.14.26S139.87,71.47,139.87,71.33Z"/><path class="cls-4" d="M129.09,71.84c0,3.87.9,7,2,7s2-3.14,2-7-.9-7-2-7S129.09,68,129.09,71.84Z"/><rect class="cls-4" x="131.09" y="64.83" width="6.55" height="14.02"/><ellipse class="cls-5" cx="137.64" cy="71.84" rx="2" ry="7.01"/><ellipse class="cls-6" cx="137.58" cy="71.84" rx="1.57" ry="5.18"/><path class="cls-7" d="M136.68,71.84c0,2.33.51,4.22,1.14,4.22S139,74.17,139,71.84s-.52-4.22-1.15-4.22S136.68,69.51,136.68,71.84Z"/><path class="cls-6" d="M136.94,71.84c0,2,.3,3.55.68,3.55a.21.21,0,0,0,.1,0h0c.32-.27.57-1.74.57-3.5,0-.26,0-.51,0-.76s0-.49,0-.72a4.16,4.16,0,0,0-.5-2h0l0,0a.16.16,0,0,0-.09,0c-.22,0-.41.53-.54,1.35h0c-.05.38-.1.82-.12,1.3C137,71.23,136.94,71.53,136.94,71.84Z"/><path class="cls-6" d="M137.71,68.32v7h0l1.06-.86V69.19l-1-.85h0Z"/><path class="cls-8" d="M137,70.94a1.82,1.82,0,0,1,.76,0,.83.83,0,0,1,.52.42l0-.31c0-.25,0-.49,0-.72a3.41,3.41,0,0,1-.52-.19,1.35,1.35,0,0,1-.64-.53h0C137,70,137,70.46,137,70.94Z"/><path class="cls-9" d="M138.11,71.84c0,1.46.3,2.64.68,2.64s.68-1.18.68-2.64-.3-2.65-.68-2.65S138.11,70.38,138.11,71.84Z"/><path class="cls-6" d="M138.39,71.83a4.16,4.16,0,0,0,.29,1.75c.06.1.13.16.2.16.27,0,.49-.85.49-1.91s-.22-1.9-.49-1.9c-.07,0-.14.06-.2.16A4.14,4.14,0,0,0,138.39,71.83Z"/><path class="cls-7" d="M138.39,71.83a4.16,4.16,0,0,0,.29,1.75c.25-.1.44-.84.44-1.75s-.19-1.64-.44-1.74A4.14,4.14,0,0,0,138.39,71.83Z"/><ellipse class="cls-7" cx="137.71" cy="67.14" rx="0.14" ry="0.28"/><path class="cls-7" d="M137,67.55c0,.15.06.28.14.28s.15-.13.15-.28-.07-.28-.15-.28S137,67.39,137,67.55Z"/><path class="cls-7" d="M136.65,68.25c0,.15.06.28.14.28s.15-.13.15-.28-.07-.28-.15-.28S136.65,68.09,136.65,68.25Z"/><path class="cls-7" d="M136.39,69.15c0,.15.06.28.14.28s.15-.13.15-.28-.07-.28-.15-.28S136.39,69,136.39,69.15Z"/><ellipse class="cls-7" cx="136.39" cy="70.19" rx="0.14" ry="0.28"/><ellipse class="cls-7" cx="136.34" cy="71.25" rx="0.14" ry="0.28"/><ellipse class="cls-7" cx="137.69" cy="76.5" rx="0.14" ry="0.28"/><ellipse class="cls-7" cx="138.24" cy="76.14" rx="0.12" ry="0.23"/><path class="cls-7" d="M138.43,75.52c0-.1,0-.18.1-.18s.09.08.09.18,0,.18-.09.18S138.43,75.62,138.43,75.52Z"/><path class="cls-7" d="M138.64,75c0-.08,0-.15.08-.15s.07.07.07.15,0,.15-.07.15S138.64,75.07,138.64,75Z"/><ellipse class="cls-7" cx="138.29" cy="67.6" rx="0.12" ry="0.23"/><path class="cls-7" d="M138.48,68.22c0,.1,0,.19.09.19s.09-.09.09-.19,0-.18-.09-.18S138.48,68.12,138.48,68.22Z"/><path class="cls-7" d="M138.68,68.75c0,.09,0,.15.08.15s.08-.06.08-.15,0-.15-.08-.15S138.68,68.67,138.68,68.75Z"/><ellipse class="cls-7" cx="137.13" cy="76.09" rx="0.14" ry="0.28"/><path class="cls-7" d="M136.63,75.39c0-.16.06-.28.14-.28s.15.12.15.28-.07.28-.15.28S136.63,75.54,136.63,75.39Z"/><path class="cls-7" d="M136.37,74.49c0-.16.06-.28.14-.28s.15.12.15.28-.07.28-.15.28S136.37,74.64,136.37,74.49Z"/><ellipse class="cls-7" cx="136.37" cy="73.45" rx="0.14" ry="0.28"/><path class="cls-7" d="M136.18,72.46c0-.15.06-.28.14-.28s.14.13.14.28-.06.28-.14.28S136.18,72.62,136.18,72.46Z"/><polygon class="cls-6" points="125.47 66.56 125.47 75.14 113.94 78.85 113.94 68.25 125.47 66.56"/><polygon class="cls-6" points="133.23 66.56 133.23 75.14 121.7 78.85 121.7 68.25 133.23 66.56"/><rect class="cls-10" x="113.94" y="68.25" width="7.76" height="10.6"/><polygon class="cls-7" points="133.23 66.56 125.47 66.56 113.94 68.25 121.7 68.25 133.23 66.56"/><path class="cls-4" d="M103.64,77.71c0,5.89,1.36,10.67,3,10.67s3-4.78,3-10.67S108.37,67,106.68,67,103.64,71.81,103.64,77.71Z"/><rect class="cls-4" x="106.68" y="67.03" width="9.98" height="21.36"/><path class="cls-5" d="M113.62,77.71c0,5.89,1.37,10.67,3,10.67s3-4.78,3-10.67S118.35,67,116.67,67,113.62,71.81,113.62,77.71Z"/><path class="cls-6" d="M114.19,77.71c0,4.36,1.07,7.89,2.38,7.89S119,82.07,119,77.71s-1.07-7.9-2.39-7.9S114.19,73.34,114.19,77.71Z"/><path class="cls-7" d="M115.19,77.71c0,3.55.78,6.42,1.75,6.42s1.74-2.87,1.74-6.42-.78-6.43-1.74-6.43S115.19,74.16,115.19,77.71Z"/><path class="cls-6" d="M115.59,77.71c0,3,.47,5.41,1,5.41a.28.28,0,0,0,.16-.07h0c.49-.41.87-2.64.87-5.33,0-.4,0-.78,0-1.15s0-.76-.07-1.11a6.3,6.3,0,0,0-.76-3.07h0l0,0a.23.23,0,0,0-.15,0c-.33,0-.62.8-.81,2.06h0c-.08.58-.15,1.25-.18,2C115.6,76.78,115.59,77.23,115.59,77.71Z"/><path class="cls-6" d="M116.78,72.35v10.7h0l1.62-1.31v-8l-1.61-1.3h0Z"/><path class="cls-8" d="M115.63,76.34a2.88,2.88,0,0,1,1.15,0,1.29,1.29,0,0,1,.8.64l.06-.47c0-.39,0-.76-.07-1.11a4,4,0,0,1-.79-.28,2,2,0,0,1-1-.81h0C115.73,74.94,115.66,75.61,115.63,76.34Z"/><path class="cls-9" d="M117.38,77.71c0,2.22.46,4,1,4s1-1.8,1-4-.46-4-1-4S117.38,75.48,117.38,77.71Z"/><path class="cls-6" d="M117.81,77.7a6.21,6.21,0,0,0,.44,2.65c.09.16.2.25.3.25.42,0,.75-1.3.75-2.9s-.33-2.9-.75-2.9c-.1,0-.21.09-.3.25A6.24,6.24,0,0,0,117.81,77.7Z"/><path class="cls-7" d="M117.81,77.7a6.21,6.21,0,0,0,.44,2.65c.38-.14.67-1.27.67-2.65s-.29-2.51-.67-2.65A6.24,6.24,0,0,0,117.81,77.7Z"/><ellipse class="cls-7" cx="116.78" cy="70.55" rx="0.22" ry="0.43"/><path class="cls-7" d="M115.7,71.17c0,.24.1.43.22.43s.22-.19.22-.43-.1-.43-.22-.43S115.7,70.94,115.7,71.17Z"/><path class="cls-7" d="M115.15,72.24c0,.24.1.43.22.43s.22-.19.22-.43-.1-.43-.22-.43S115.15,72,115.15,72.24Z"/><path class="cls-7" d="M114.75,73.61c0,.24.1.43.22.43s.22-.19.22-.43-.09-.43-.22-.43S114.75,73.37,114.75,73.61Z"/><path class="cls-7" d="M114.53,75.19c0,.24.1.43.22.43s.22-.19.22-.43-.09-.43-.22-.43S114.53,75,114.53,75.19Z"/><ellipse class="cls-7" cx="114.68" cy="76.82" rx="0.22" ry="0.43"/><path class="cls-7" d="M116.53,84.81c0-.24.09-.43.22-.43s.21.19.21.43-.09.42-.21.42S116.53,85,116.53,84.81Z"/><ellipse class="cls-7" cx="117.58" cy="84.27" rx="0.18" ry="0.35"/><path class="cls-7" d="M117.87,83.31c0-.15.07-.28.15-.28s.14.13.14.28-.06.28-.14.28S117.87,83.47,117.87,83.31Z"/><path class="cls-7" d="M118.19,82.51c0-.13,0-.23.11-.23s.12.1.12.23,0,.22-.12.22S118.19,82.63,118.19,82.51Z"/><path class="cls-7" d="M117.47,71.25c0,.19.08.34.18.34s.18-.15.18-.34-.08-.35-.18-.35S117.47,71.06,117.47,71.25Z"/><path class="cls-7" d="M117.94,72.2c0,.15.06.28.14.28s.14-.13.14-.28-.06-.28-.14-.28S117.94,72.05,117.94,72.2Z"/><path class="cls-7" d="M118.25,73c0,.12.06.23.12.23s.12-.11.12-.23-.06-.23-.12-.23S118.25,72.88,118.25,73Z"/><path class="cls-7" d="M115.67,84.18c0-.24.1-.43.22-.43s.22.19.22.43-.1.43-.22.43S115.67,84.42,115.67,84.18Z"/><ellipse class="cls-7" cx="115.34" cy="83.12" rx="0.22" ry="0.43"/><path class="cls-7" d="M114.72,81.74c0-.23.1-.42.22-.42s.22.19.22.42-.1.43-.22.43S114.72,82,114.72,81.74Z"/><path class="cls-7" d="M114.5,80.16c0-.23.1-.42.22-.42s.22.19.22.42-.09.43-.22.43S114.5,80.4,114.5,80.16Z"/><ellipse class="cls-7" cx="114.65" cy="78.66" rx="0.22" ry="0.43"/><path class="cls-4" d="M96.91,79.48c0,6.3,1.45,11.4,3.25,11.4s3.25-5.1,3.25-11.4S102,68.09,100.16,68.09,96.91,73.19,96.91,79.48Z"/><rect class="cls-4" x="100.16" y="68.09" width="10.65" height="22.8"/><ellipse class="cls-5" cx="110.81" cy="79.48" rx="3.25" ry="11.4"/><path class="cls-6" d="M108.17,79.48c0,4.66,1.14,8.43,2.54,8.43s2.55-3.77,2.55-8.43-1.14-8.42-2.55-8.42S108.17,74.83,108.17,79.48Z"/><path class="cls-7" d="M109.24,79.48c0,3.79.83,6.86,1.86,6.86S113,83.27,113,79.48s-.83-6.86-1.86-6.86S109.24,75.7,109.24,79.48Z"/><path class="cls-6" d="M109.67,79.48c0,3.19.49,5.78,1.1,5.78a.23.23,0,0,0,.17-.07h0c.53-.44.93-2.82.93-5.7,0-.42,0-.83,0-1.22s0-.81-.07-1.18A6.76,6.76,0,0,0,111,73.8h0l0,0a.25.25,0,0,0-.16-.06c-.35,0-.66.86-.87,2.2h0c-.09.61-.16,1.33-.2,2.11C109.68,78.49,109.67,79,109.67,79.48Z"/><path class="cls-6" d="M110.93,73.77V85.19h0l1.73-1.4V75.19L111,73.8h0Z"/><path class="cls-8" d="M109.7,78a3.08,3.08,0,0,1,1.23,0,1.35,1.35,0,0,1,.86.68l.06-.5c0-.41,0-.81-.07-1.18a5.91,5.91,0,0,1-.85-.3,2.24,2.24,0,0,1-1-.86h0C109.81,76.53,109.74,77.25,109.7,78Z"/><path class="cls-9" d="M111.57,79.48c0,2.38.5,4.3,1.11,4.3s1.11-1.92,1.11-4.3-.5-4.29-1.11-4.29S111.57,77.11,111.57,79.48Z"/><path class="cls-6" d="M112,79.48a6.63,6.63,0,0,0,.47,2.83c.1.17.21.27.33.27.44,0,.79-1.39.79-3.1s-.35-3.1-.79-3.1c-.12,0-.23.1-.33.27A6.63,6.63,0,0,0,112,79.48Z"/><path class="cls-7" d="M112,79.48a6.63,6.63,0,0,0,.47,2.83c.4-.15.72-1.36.72-2.83s-.32-2.68-.72-2.83A6.63,6.63,0,0,0,112,79.48Z"/><path class="cls-7" d="M110.69,71.85c0,.25.11.45.24.45s.23-.2.23-.45-.1-.46-.23-.46S110.69,71.59,110.69,71.85Z"/><path class="cls-7" d="M109.78,72.51c0,.25.1.46.23.46s.24-.21.24-.46-.11-.46-.24-.46S109.78,72.26,109.78,72.51Z"/><path class="cls-7" d="M109.2,73.65c0,.25.1.46.23.46s.24-.21.24-.46-.11-.46-.24-.46S109.2,73.4,109.2,73.65Z"/><ellipse class="cls-7" cx="109.01" cy="75.11" rx="0.23" ry="0.46"/><path class="cls-7" d="M108.54,76.8c0,.25.1.46.23.46s.24-.21.24-.46-.11-.46-.24-.46S108.54,76.55,108.54,76.8Z"/><ellipse class="cls-7" cx="108.7" cy="78.54" rx="0.23" ry="0.46"/><path class="cls-7" d="M110.66,87.06c0-.25.11-.45.24-.45s.23.2.23.45-.1.46-.23.46S110.66,87.32,110.66,87.06Z"/><ellipse class="cls-7" cx="111.79" cy="86.49" rx="0.19" ry="0.37"/><path class="cls-7" d="M112.1,85.47c0-.16.07-.3.15-.3s.16.14.16.3-.07.3-.16.3S112.1,85.64,112.1,85.47Z"/><ellipse class="cls-7" cx="112.56" cy="84.61" rx="0.12" ry="0.24"/><ellipse class="cls-7" cx="111.86" cy="72.59" rx="0.19" ry="0.37"/><path class="cls-7" d="M112.17,73.61c0,.16.07.3.15.3s.15-.14.15-.3-.06-.3-.15-.3S112.17,73.44,112.17,73.61Z"/><path class="cls-7" d="M112.51,74.47c0,.14,0,.24.12.24s.12-.1.12-.24,0-.24-.12-.24S112.51,74.34,112.51,74.47Z"/><path class="cls-7" d="M109.75,86.4c0-.26.1-.46.23-.46s.24.2.24.46-.11.45-.24.45S109.75,86.65,109.75,86.4Z"/><path class="cls-7" d="M109.16,85.26c0-.25.11-.46.24-.46s.23.21.23.46-.1.46-.23.46S109.16,85.51,109.16,85.26Z"/><ellipse class="cls-7" cx="108.97" cy="83.8" rx="0.23" ry="0.46"/><ellipse class="cls-7" cx="108.74" cy="82.11" rx="0.23" ry="0.46"/><ellipse class="cls-7" cx="108.66" cy="80.5" rx="0.23" ry="0.46"/><ellipse class="cls-4" cx="65.7" cy="91.37" rx="4.34" ry="15.22"/><rect class="cls-4" x="65.7" y="76.15" width="14.22" height="30.44"/><path class="cls-5" d="M75.59,91.37c0,8.41,1.94,15.22,4.33,15.22s4.34-6.81,4.34-15.22-1.94-15.22-4.34-15.22S75.59,83,75.59,91.37Z"/><ellipse class="cls-6" cx="79.79" cy="91.37" rx="3.4" ry="11.25"/><path class="cls-7" d="M77.82,91.37c0,5.06,1.12,9.16,2.49,9.16s2.49-4.1,2.49-9.16-1.12-9.16-2.49-9.16S77.82,86.31,77.82,91.37Z"/><path class="cls-6" d="M78.39,91.37c0,4.26.67,7.71,1.48,7.71A.37.37,0,0,0,80.1,99h0c.7-.59,1.24-3.77,1.24-7.61,0-.56,0-1.11,0-1.63s0-1.08-.1-1.58c-.19-2.26-.59-3.93-1.08-4.37v0l0,0a.37.37,0,0,0-.21-.08c-.47,0-.89,1.16-1.16,3h0c-.12.82-.22,1.78-.27,2.82C78.41,90.05,78.39,90.7,78.39,91.37Z"/><path class="cls-6" d="M80.08,83.74V99h0l2.31-1.87V85.63l-2.29-1.84v0Z"/><path class="cls-8" d="M78.44,89.43a3.94,3.94,0,0,1,1.65.07,1.8,1.8,0,0,1,1.14.91l.08-.67c0-.55,0-1.08-.1-1.58a7.87,7.87,0,0,1-1.13-.4,3,3,0,0,1-1.37-1.15h0C78.59,87.43,78.49,88.39,78.44,89.43Z"/><path class="cls-9" d="M80.94,91.37c0,3.17.66,5.74,1.48,5.74s1.47-2.57,1.47-5.74-.66-5.74-1.47-5.74S80.94,88.2,80.94,91.37Z"/><path class="cls-6" d="M81.55,91.37a9,9,0,0,0,.63,3.78c.13.22.28.35.43.35.59,0,1.07-1.85,1.07-4.13s-.48-4.14-1.07-4.14c-.15,0-.3.13-.43.36A8.88,8.88,0,0,0,81.55,91.37Z"/><path class="cls-7" d="M81.55,91.37a9,9,0,0,0,.63,3.78c.54-.2.95-1.82.95-3.78s-.41-3.58-.95-3.78A8.88,8.88,0,0,0,81.55,91.37Z"/><ellipse class="cls-7" cx="80.08" cy="81.17" rx="0.31" ry="0.61"/><ellipse class="cls-7" cx="78.86" cy="82.06" rx="0.31" ry="0.61"/><path class="cls-7" d="M77.77,83.58c0,.34.14.61.31.61s.31-.27.31-.61-.14-.61-.31-.61S77.77,83.24,77.77,83.58Z"/><ellipse class="cls-7" cx="77.51" cy="85.54" rx="0.31" ry="0.61"/><ellipse class="cls-7" cx="77.2" cy="87.79" rx="0.31" ry="0.61"/><path class="cls-7" d="M76.78,90.11c0,.34.14.61.32.61s.31-.27.31-.61-.14-.61-.31-.61S76.78,89.77,76.78,90.11Z"/><ellipse class="cls-7" cx="80.04" cy="101.49" rx="0.31" ry="0.61"/><path class="cls-7" d="M81,100.72c0-.27.11-.49.25-.49s.25.22.25.49-.11.49-.25.49S81,101,81,100.72Z"/><path class="cls-7" d="M81.64,99.36c0-.22.09-.39.21-.39s.2.17.2.39-.09.4-.2.4S81.64,99.58,81.64,99.36Z"/><ellipse class="cls-7" cx="82.26" cy="98.21" rx="0.17" ry="0.32"/><path class="cls-7" d="M81.07,82.17c0,.27.11.49.25.49s.26-.22.26-.49-.12-.49-.26-.49S81.07,81.9,81.07,82.17Z"/><path class="cls-7" d="M81.74,83.53c0,.22.09.4.2.4s.2-.18.2-.4-.09-.4-.2-.4S81.74,83.31,81.74,83.53Z"/><ellipse class="cls-7" cx="82.35" cy="84.68" rx="0.17" ry="0.32"/><path class="cls-7" d="M78.5,100.6c0-.34.14-.61.31-.61s.32.27.32.61-.14.61-.32.61S78.5,100.94,78.5,100.6Z"/><path class="cls-7" d="M77.72,99.08c0-.33.14-.61.32-.61s.31.28.31.61-.14.61-.31.61S77.72,99.42,77.72,99.08Z"/><path class="cls-7" d="M77.16,97.13c0-.34.14-.61.31-.61s.31.27.31.61-.14.61-.31.61S77.16,97.47,77.16,97.13Z"/><ellipse class="cls-7" cx="77.16" cy="94.88" rx="0.31" ry="0.61"/><ellipse class="cls-7" cx="77.05" cy="92.73" rx="0.31" ry="0.61"/><path class="cls-11" d="M107.76,65.41c1.1,0,2.47-.16,2.48-.16.23,0,21.49-2.37,33.38-3.91l.89-30.25L109.68,4.65Z"/><path class="cls-12" d="M110.55,6.47l33,25.07-.85,29c-12,1.53-32.36,3.77-32.57,3.8h0s-.66.08-1.41.12l1.83-58m-1.74-3.65-2,63.46a5.42,5.42,0,0,0,1,.06c1.17,0,2.59-.17,2.59-.17s22.31-2.46,34.18-4l.92-31.52L108.81,2.82Z"/><polygon class="cls-13" points="105.91 65.36 107.85 3.77 49.44 4.79 41.47 65.41 105.91 65.36"/><path class="cls-11" d="M106.89,4.71,105,64.43l-62.48.06L50.26,5.71l56.63-1m1.92-1.89L48.63,3.88,40.42,66.34l66.39-.06,2-63.46Z"/><path class="cls-5" d="M73.4,99.91s-3.45,6.47-16.1,6.6-48.62-2.57-48.62-2.57S1.76,102.2.85,92.33c-.28-3.06,71,3,71,3Z"/><rect class="cls-5" x="19.46" y="32.4" width="5.36" height="15.54" rx="2.68" transform="translate(44.28 80.35) rotate(180)"/><path class="cls-14" d="M1.14,92.89c1.59,1.72,8.18,3.22,8.18,3.22l2.52-1.32,32.55,1.55,2.12,1.72s12.58.13,15.1-1.86l0,0c3.44,3,8.56,5,11.75,3.76l3.08-18.73v-.16a.52.52,0,0,0,0-.11.13.13,0,0,0,0-.06.2.2,0,0,0,0-.07l0-.07,0-.08,0-.08v0l0-.08,0-.07c0-.06-.09-.11-.13-.16L76,80.18l-.09-.06-.07,0h0l-.08,0-.1,0h0l-.16,0h-.17a.15.15,0,0,0,0-.06c.18-.74,1.85-7.7,4.61-8.12,6.8-1,5.06,23,5.06,23l15.6-7,4.26-.73L106,70.39a.88.88,0,0,0-.17-.53.93.93,0,0,0-.63-.39L101,68.92v-.07c.18-2.2,4.25-54.51-1.33-64.46,0,0-2.78-3.62-6.75-4.25a64,64,0,0,0-7-.12L84.2.05C77.54.17,68.43.49,61.38.76L58.72.87c-4.78.19-8.1.34-8.1.34s-6.63,1-9.28,3.61c-1.34,1.35-4.22,6.92-7.6,13.71-.15.3-1.21,1-1.36,1.26l-.48,1c-1.07,2.3-2.09,4.67-3.06,7.23a116.44,116.44,0,0,0-4.58,15.31l0,0c-.54.31-9.82,5.66-11.23,9.39a32.39,32.39,0,0,0-1.72,8.34S5.7,63.25,3.62,66.18a4.61,4.61,0,0,0-.55,1,32.17,32.17,0,0,0-1.31,8c-.13,1.86-.15,3.24-.15,3.24l-.19,0A2,2,0,0,0,.08,79.68S-.45,91.17,1.14,92.89Z"/><path class="cls-15" d="M.08,79.68a2,2,0,0,1,1.34-1.19l.19,0s0-1.38.15-3.24a32.17,32.17,0,0,1,1.31-8,4.61,4.61,0,0,1,.55-1c2.08-2.93,7.66-5.08,7.66-5.08A32.39,32.39,0,0,1,13,52.76c1.41-3.73,10.69-9.08,11.23-9.39l0,0A116.44,116.44,0,0,1,28.84,28c1-2.56,2-4.93,3.06-7.23l.48-1c.15-.3,1.21-1,1.36-1.26C37.12,11.74,40,6.17,41.34,4.82,44,2.19,50.62,1.21,50.62,1.21s-5.61,1-8.26,3.6C41.13,6,34.61,18.7,34.61,18.7l40,.89s-38.13.75-40.87.5c-.59-.05-8.61,23.14-7.89,23.22.54.06-7.78,4.43-10.78,7.94a5.37,5.37,0,0,0-.92,1.46A32.82,32.82,0,0,0,12.6,62s-4.34,1.29-6.42,4.22a4.27,4.27,0,0,0-.56,1,32.63,32.63,0,0,0-1.31,8c-.12,1.86-.15,3.24-.15,3.24l-.18,0a2,2,0,0,0-1.34,1.19S2.11,91.17,3.7,92.89c1.07,1.16,4.39,2.22,6.46,2.78l-.84.44s-6.59-1.5-8.18-3.22S.08,79.68.08,79.68Z"/><path class="cls-15" d="M65.49,83a116.75,116.75,0,0,1-3.84,13.17c3.44,3,8.56,5,11.75,3.77l3.08-18.73v0C74.4,82,65.92,83.38,65.49,83Z"/><path class="cls-15" d="M47.3,83c.41,1.27,6.25-13.54,7.93-15.37C57.7,64.9,82.68,56.33,82.7,57.46L70.93,68l-1.47,7c-4.87,5.64-20,7.92-20,7.92s23.39-2.17,25.8-3c.17-.73,1.86-7.76,4.62-8.18,6.8-1,5.06,23,5.06,23l15.6-7,4.26-.73L106,70.39a.88.88,0,0,0-.17-.53.93.93,0,0,0-.63-.39L101,68.92v-.07c.18-2.2,4.25-54.51-1.33-64.46,0,0-12.46-2.88-14.71,3.34s-4,21.4-4,21.4l-4.1,16s2.89,1.93,2,1.79c-1.26-.19-20.47,8.24-22.68,9.48C52.6,58.39,46.76,81.27,47.3,83Z"/><path class="cls-13" d="M42.3,57.33s7.22,1,8.4,2.71L43.44,88.59s-.74,2.12-3.69,2S14.8,89.38,14.8,89.38s-1.41-.13-1.81-2.12S10.24,61.7,12,58.72a19.54,19.54,0,0,1,5.23-1.79C19.29,56.73,33.58,55.61,42.3,57.33Z"/><path class="cls-7" d="M12.05,66.31c0,.66,0,1.35,0,2.06q0,.78.06,1.59c0,.68.07,1.37.11,2.06,0,.53.06,1.07.1,1.6,0,.69.09,1.38.14,2.06s.08,1.08.13,1.6c.08,1.08.18,2.12.27,3.07l30.92,1.73.87-3.42.4-1.58.52-2,.4-1.58.52-2,.4-1.57.52-2,.4-1.57.52-2,.4-1.57.32-1.28C48,59.82,39.78,59,39.78,59c-7.81-1.54-20.61-.53-22.48-.35a17.68,17.68,0,0,0-4.69,1.6,3.05,3.05,0,0,0-.28.83,13.22,13.22,0,0,0-.2,1.58c0,.61-.07,1.3-.08,2.06Q12,65.47,12.05,66.31Z"/><path class="cls-5" d="M43.37,83.93,42.3,88.51s-.18,1.51-2.95,1.4-23.8-1.14-23.8-1.14-1.52-.4-1.79-1.28a50.86,50.86,0,0,1-.53-5.28Z"/><path class="cls-13" d="M12.13,62.66l36.24,1.56.4-1.57L12.33,61.08A13.22,13.22,0,0,0,12.13,62.66Z"/><polygon class="cls-13" points="12.05 66.31 47.45 67.83 47.85 66.26 12.05 64.72 12.05 66.31"/><path class="cls-13" d="M12.09,68.37q0,.78.06,1.59l34.38,1.48.4-1.57Z"/><path class="cls-13" d="M12.26,72c0,.53.06,1.07.1,1.6l33.25,1.43.4-1.58Z"/><path class="cls-13" d="M12.5,75.68c0,.54.08,1.08.13,1.6l32.06,1.38.4-1.58Z"/><path class="cls-7" d="M24.23,43.37a4.16,4.16,0,0,0,2,1c1.15,0,33.82-.44,50.6.8,0,0,2.47-.53,2.83-2.12s1.68-12.36,1.68-12.36S81,27.39,78.56,27c-6.58-1-32.19-1.34-47.29.16a3.92,3.92,0,0,0-2.43.85,116.44,116.44,0,0,0-4.58,15.31Z"/><path class="cls-16" d="M79.8,31s-1.22,9.88-1.54,11.34-2.59,1.94-2.59,1.94c-3.58-.26-8.1-.45-13-.58h0l-4.34-.1h0c-4.08-.08-8.26-.12-12.19-.15H41.73c-2.47,0-4.76,0-6.79,0-4.85,0-8.14,0-8.46,0h-.21a3.48,3.48,0,0,1-1.45-.73s2.74-10.15,4.28-14.19a3,3,0,0,1,2-.77c3.73-.37,8.37-.62,13.28-.76,2.88-.08,5.86-.12,8.79-.13,2.3,0,4.58,0,6.77,0h0L64.3,27h0c5,.11,9.22.32,11.73.57h0l1.21.15A2.57,2.57,0,0,1,79,28.91,5.22,5.22,0,0,1,79.8,31Z"/><path class="cls-2" d="M63.48,27,45.35,43.48H41.73l18.2-16.54h0Z"/><path class="cls-2" d="M79,28.91,62.72,43.73h0l-4.34-.1L76,27.57h0l1.21.15A2.57,2.57,0,0,1,79,28.91Z"/><path class="cls-2" d="M53.16,26.91,34.94,43.47c-4.85,0-8.14,0-8.46,0h-.21L44.37,27C47.25,27,50.23,26.92,53.16,26.91Z"/><path class="cls-17" d="M70.93,68s.44,7.59-4.24,9.45-15.1,2.12-15.1,2.12,1.59-5.92,6.27-8S70.93,68,70.93,68Z"/><path class="cls-18" d="M51.59,79.56s10.42-.27,15.1-2.12S70.93,68,70.93,68s-8.39,1.41-13.07,3.53a9.19,9.19,0,0,0-2.73,1.92A15.31,15.31,0,0,0,51.59,79.56Z"/><path class="cls-19" d="M67.33,69.55a1.47,1.47,0,0,1,1.75,1.6c-.22,2-1,5-3.49,6s-7.51,1.5-10.39,1.67a1.46,1.46,0,0,1-1.4-2.12,9.66,9.66,0,0,1,4.37-4.52A48.64,48.64,0,0,1,67.33,69.55Z"/><path class="cls-18" d="M1.76,75.21C5.58,76.2,9.19,77,9.19,77a20.51,20.51,0,0,0-1.58-6,9.82,9.82,0,0,0-4-4.75,4.61,4.61,0,0,0-.55,1l0,0a10,10,0,0,0-.35,1.16c-.17.63-.3,1.32-.42,2-.17,1-.29,2.12-.39,3.15C1.83,74.17,1.79,74.71,1.76,75.21Z"/><path class="cls-5" d="M62.34,89.91s-.85,4.77-2.15,5.23S47.24,96.4,47.24,96.4l-2.58-1.92V91.63S52.93,90.77,62.34,89.91Z"/><path class="cls-5" d="M1.18,86.8s-.13,4.74,1.1,5.37,6.36,2.32,6.36,2.32l2.81-1.55L12,90.09S9.52,89.3,1.18,86.8Z"/><path class="cls-20" d="M84.91,74.07l15.64-3.55,5.26-.66a.93.93,0,0,0-.63-.39L101,68.92Z"/><path class="cls-15" d="M11.34,80.56c-3.61-1-10-4-9.58-4.64-.13,1.86-.15,2.53-.15,2.53S11.34,80.56,11.34,80.56Z"/><path class="cls-20" d="M84.4,59.29c.13,1.64-.53,10.15-.25,11.52a.37.37,0,0,0,0,.15c.07.13.52.1,1.21,0,2.87-.53,9.89-2.86,10.3-3.31,1.46-1.59,1.53-45,1.53-45s-10-2.18-10.86-1.85l-.22.09a3.27,3.27,0,0,0-.76.48,4.57,4.57,0,0,0-1.41,3c-.33,2.45-1.67,32.83-1.67,32.83S84.27,57.57,84.4,59.29Z"/><path class="cls-20" d="M84,71.1a1,1,0,0,1-.08-.23A52,52,0,0,1,84,64.13c.1-2.12.19-4.12.14-4.82-.12-1.5-1.8-1.87-1.87-1.89l-.22-.05v-.22c0-1.24,1.34-30.42,1.67-32.85a4.85,4.85,0,0,1,1.5-3.17,3.46,3.46,0,0,1,.82-.52l.23-.1c.89-.34,9.33,1.48,11,1.84l.21,0v.21c0,.11,0,11-.21,21.92-.12,6.42-.27,11.6-.46,15.4-.36,7.26-.75,7.69-.92,7.87-.5.55-7.73,2.9-10.46,3.4a5,5,0,0,1-.93.11C84.18,71.31,84.05,71.23,84,71.1ZM86.48,21l-.21.09a3.32,3.32,0,0,0-.7.44,4.34,4.34,0,0,0-1.31,2.84C84,26.67,82.72,54.23,82.6,57a2.76,2.76,0,0,1,2.07,2.31h0c0,.73,0,2.75-.14,4.89a56.57,56.57,0,0,0-.12,6.6h0a3.13,3.13,0,0,0,1-.09,60,60,0,0,0,10.16-3.23c.25-.3.88-3.13,1.24-23,.18-10.07.21-20.08.21-21.65C92.24,21.8,87,20.82,86.48,21Z"/><path class="cls-15" d="M84.4,59.29c.13,1.64-.53,10.15-.25,11.52,3.15-.7,9.3-2.76,9.69-3.18,1.45-1.59,1.52-45,1.52-45s-6.13-1.34-9.2-1.76a3.27,3.27,0,0,0-.76.48,3.53,3.53,0,0,0-1,1.31A6.5,6.5,0,0,0,84,24.33c-.18,1.38-.69,11.63-1.1,20.31-.31,6.73-.57,12.52-.57,12.52S84.27,57.57,84.4,59.29Z"/><polygon class="cls-21" points="82.79 46.87 94.55 45.7 82.74 47.95 82.79 46.87"/><path class="cls-7" d="M82.89,44.64a2.76,2.76,0,0,0,1.22.16L91.66,44a2.68,2.68,0,0,0,2.4-2.66V26a2.67,2.67,0,0,0-2.34-2.65l-6.28-.79a2.72,2.72,0,0,0-1,.06,3.77,3.77,0,0,0-.21.57A6.41,6.41,0,0,0,84,24.33c-.18,1.35-.66,11.11-1.07,19.65Z"/><path class="cls-16" d="M93.34,26.57V40.83a2.48,2.48,0,0,1-2.23,2.47l-2.56.25L84.1,44h-.17c-.22,0-.59,0-1,0,.08-1.52.15-3.08.22-4.62.09-1.85.19-3.68.27-5.39.25-4.88.48-8.82.58-9.63a7.35,7.35,0,0,1,.25-1.13l1.1.17,4,.5,1.86.23a2.16,2.16,0,0,1,.76.22A2.48,2.48,0,0,1,93.34,26.57Z"/><path class="cls-2" d="M91.93,24.33l-8.79,15c.09-1.85.19-3.68.27-5.39l5.9-10.09,1.86.23A2.16,2.16,0,0,1,91.93,24.33Z"/><polygon class="cls-2" points="93.34 27.89 93.34 37.03 89.78 43.13 88.55 43.55 83.93 44.01 93.34 27.89"/><path class="cls-5" d="M93.46,49.39l-.33,0L93,54.52l.52-.07a.58.58,0,0,0,.51-.56l.13-3.9A.58.58,0,0,0,93.46,49.39Z"/><path class="cls-20" d="M86.78,82.12v11l8.59-4,1.11-.51c0-.48-.06-5.5-.07-8.3a1.45,1.45,0,0,0-1.8-1.4l-6.89,1.89A1.28,1.28,0,0,0,86.78,82.12Z"/><path class="cls-22" d="M86.58,82.12a1.49,1.49,0,0,1,1.09-1.43l6.89-1.89a1.6,1.6,0,0,1,1.41.3,1.63,1.63,0,0,1,.64,1.29c0,5,0,7.94.07,8.28l0,.14L86.58,93.47Zm9.63-1.73a1.25,1.25,0,0,0-1.55-1.21l-6.89,1.89a1.09,1.09,0,0,0-.8,1.05V92.85l9.31-4.29C96.24,87.67,96.22,83.7,96.21,80.39Z"/><path class="cls-15" d="M86.78,87.91v5.25l8.59-4c0-.77,0-1.5,0-2.13a1.21,1.21,0,0,0,0-.19,1.45,1.45,0,0,0-1.79-1.21Z"/><path class="cls-14" d="M86.78,87.91v2l8.57-3.06a1.45,1.45,0,0,0-1.79-1.21Z"/><path class="cls-15" d="M46,15.06l0,0h0c.2,0,19.79-.53,24.83-.74,4-.16,5.08-4.21,5.92-7.46a22.46,22.46,0,0,1,.83-2.73c.81-2,5.16-3.38,8.18-4.12L84.2.05C81.34.86,78.07,2.17,77.33,4a23.92,23.92,0,0,0-.84,2.78c-.86,3.28-1.83,7-5.56,7.17-4.91.2-23.7.71-24.78.74-.27-.14-1.91-1-1.63-2,.16-.55.72-2.39,1.47-4.22.88-2.19,1.7-3.57,2.35-4,2.71-1.74,10.19-3.21,13-3.73L58.72.87c-.66.13-1.38.29-2.13.46-4.17.95-7,1.9-8.47,2.83-1.89,1.21-4,8.36-4,8.44C43.74,14,45.94,15,46,15.06Z"/><path class="cls-20" d="M44.14,12.6c0-.08,2.09-7.23,4-8.44,1.45-.93,4.3-1.88,8.47-2.83.75-.17,1.47-.33,2.13-.46L61.38.76c-2.85.52-10.33,2-13,3.73-.65.42-1.47,1.8-2.35,4a42.3,42.3,0,0,0-1.47,4.22c-.43,1.68,1.66,2.37,1.6,2.37h0l0,0C45.94,15,43.74,14,44.14,12.6Z"/><rect class="cls-5" x="83.77" y="33.22" width="7.25" height="15.54" rx="3.63" transform="translate(174.8 81.99) rotate(-180)"/><polygon class="cls-5" points="84.92 44.31 82.82 45.49 82.77 47.33 84.92 46.1 84.92 44.31"/><path class="cls-18" d="M64.57,72a1.81,1.81,0,1,0,1.81-1.81A1.81,1.81,0,0,0,64.57,72Z"/><path class="cls-18" d="M54.8,76.59a1.54,1.54,0,1,0,1.54-1.54A1.54,1.54,0,0,0,54.8,76.59Z"/><path class="cls-18" d="M58.64,74.61a3,3,0,1,0,3-3A3,3,0,0,0,58.64,74.61Z"/><path class="cls-19" d="M1.88,73.61a2.64,2.64,0,0,0,.34.39,12.29,12.29,0,0,0,5.09,2.19c.55.13.94-1,.68-2.06A11,11,0,0,0,5.86,69.4,14.71,14.71,0,0,0,3,67.25a10,10,0,0,0-.35,1.16c-.17.63-.3,1.32-.42,2C2.1,71.49,2,72.58,1.88,73.61Z"/><path class="cls-18" d="M7.5,74c0,.85-.33,1.5-.75,1.46S6,74.67,6,73.82s.33-1.5.75-1.46S7.5,73.12,7.5,74Z"/><path class="cls-18" d="M5.63,71.81c0,1.66-.66,2.94-1.48,2.86s-1.47-1.5-1.47-3.16.66-2.94,1.47-2.86S5.63,70.15,5.63,71.81Z"/><path class="cls-23" d="M51.59,79.56s10.42-.27,15.1-2.12S70.93,68,70.93,68s-.39.68-2.74,2.13-9.26,2.59-13.06,3.32A15.31,15.31,0,0,0,51.59,79.56Z"/><path class="cls-23" d="M1.76,75.21C5.58,76.2,9.19,77,9.19,77a20.51,20.51,0,0,0-1.58-6A7,7,0,0,1,3,67.25a10,10,0,0,0-.35,1.16c-.17.63-.3,1.32-.42,2-.17,1-.29,2.12-.39,3.15C1.83,74.17,1.79,74.71,1.76,75.21Z"/><path class="cls-5" d="M28.45,42.47s-.08-.59,2.62-.72c12.83-.66,15.43.76,15.43.76Z"/><path class="cls-5" d="M32.55,42.23,29.1,43.67a.28.28,0,0,0,0,.54h0a.47.47,0,0,0,.31,0l4.76-1.93Z"/><path class="cls-5" d="M53.69,42.5s-.08-.59,2.62-.73c12.83-.65,15.44.77,15.44.77Z"/><path class="cls-5" d="M57.79,42.25,54.34,43.7a.27.27,0,0,0,0,.53h0a.42.42,0,0,0,.31,0l4.76-1.92Z"/><path class="cls-24" d="M164.73,66.43V114.2H103.78q-5.67-1-11.11-2.14l-3.11-.7C109.78,99.57,151.32,75.24,164.73,66.43Z"/><polygon class="cls-24" points="164.73 66.43 89.56 111.36 94.72 112.41 164.77 67.07 164.73 66.43"/></g></g></g></svg>